<?xml version="1.0" encoding="us-ascii" standalone="no"?><svg xmlns="http://www.w3.org/2000/svg" xmlns:xlink="http://www.w3.org/1999/xlink" contentStyleType="text/css" height="1289px" preserveAspectRatio="none" style="width:2133px;height:1289px;background:#FFFFFF;" version="1.1" viewBox="0 0 2133 1289" width="2133px" zoomAndPan="magnify"><defs/><g><rect fill="#FFFFFF" height="1103.8848" style="stroke:#181818;stroke-width:1.0;" width="10" x="60" y="93.6211"/><rect fill="#FFFFFF" height="154.7852" style="stroke:#181818;stroke-width:1.0;" width="10" x="414" y="116.9121"/><rect fill="#FFFFFF" height="877.2266" style="stroke:#181818;stroke-width:1.0;" width="10" x="414" y="320.2793"/><rect fill="#FFFFFF" height="64.9121" style="stroke:#181818;stroke-width:1.0;" width="10" x="767" y="158.2031"/><rect fill="#FFFFFF" height="828.6445" style="stroke:#181818;stroke-width:1.0;" width="10" x="767" y="368.8613"/><rect fill="#FFFFFF" height="31.291" style="stroke:#181818;stroke-width:1.0;" width="10" x="903.5" y="191.8242"/><rect fill="#FFFFFF" height="31.291" style="stroke:#181818;stroke-width:1.0;" width="10" x="1010.5" y="400.1523"/><rect fill="#FFFFFF" height="31.291" style="stroke:#181818;stroke-width:1.0;" width="10" x="1010.5" y="587.8984"/><rect fill="#FFFFFF" height="458.1523" style="stroke:#181818;stroke-width:1.0;" width="10" x="1133.5" y="667.7715"/><rect fill="#FFFFFF" height="226.7461" style="stroke:#181818;stroke-width:1.0;" width="10" x="1138.5" y="860.8867"/><rect fill="#FFFFFF" height="138.1641" style="stroke:#181818;stroke-width:1.0;" width="10" x="1143.5" y="905.1777"/><rect fill="#FFFFFF" height="88.2422" style="stroke:#181818;stroke-width:1.0;" width="10" x="1497.5" y="726.3535"/><rect fill="#FFFFFF" height="28" style="stroke:#181818;stroke-width:1.0;" width="10" x="1502.5" y="786.5957"/><rect fill="#FFFFFF" height="31.291" style="stroke:#181818;stroke-width:1.0;" width="10" x="1497.5" y="967.7598"/><rect fill="#FFFFFF" height="93.873" style="stroke:#181818;stroke-width:1.0;" width="10" x="1799.5" y="462.7344"/><rect fill="#FFFFFF" height="31.291" style="stroke:#181818;stroke-width:1.0;" width="10" x="2076.5" y="494.0254"/><rect fill="none" height="81.873" style="stroke:#000000;stroke-width:1.5;" width="475.5" x="1064" y="925.1777"/><line style="stroke:#181818;stroke-width:0.5;stroke-dasharray:5.0,5.0;" x1="65" x2="65" y1="83.6211" y2="1206.5059"/><line style="stroke:#181818;stroke-width:0.5;stroke-dasharray:5.0,5.0;" x1="419" x2="419" y1="83.6211" y2="1206.5059"/><line style="stroke:#181818;stroke-width:0.5;stroke-dasharray:5.0,5.0;" x1="772" x2="772" y1="156.7227" y2="1206.5059"/><line style="stroke:#181818;stroke-width:0.5;stroke-dasharray:5.0,5.0;" x1="908" x2="908" y1="83.6211" y2="1206.5059"/><line style="stroke:#181818;stroke-width:0.5;stroke-dasharray:5.0,5.0;" x1="1015" x2="1015" y1="83.6211" y2="1206.5059"/><line style="stroke:#181818;stroke-width:0.5;stroke-dasharray:5.0,5.0;" x1="1138" x2="1138" y1="83.6211" y2="1206.5059"/><line style="stroke:#181818;stroke-width:0.5;stroke-dasharray:5.0,5.0;" x1="1502.5" x2="1502.5" y1="716.8926" y2="1206.5059"/><line style="stroke:#181818;stroke-width:0.5;stroke-dasharray:5.0,5.0;" x1="1804.5" x2="1804.5" y1="83.6211" y2="1206.5059"/><line style="stroke:#181818;stroke-width:0.5;stroke-dasharray:5.0,5.0;" x1="2081" x2="2081" y1="83.6211" y2="1206.5059"/><text fill="#000000" font-family="sans-serif" font-size="14" lengthAdjust="spacing" textLength="114" x="5" y="80.1074">Unregistered User</text><ellipse cx="65" cy="13.5" fill="#E3E3E3" rx="8" ry="8" style="stroke:#181818;stroke-width:0.5;"/><path d="M65,21.5 L65,48.5 M52,29.5 L78,29.5 M65,48.5 L52,63.5 M65,48.5 L78,63.5 " fill="none" style="stroke:#181818;stroke-width:0.5;"/><text fill="#000000" font-family="sans-serif" font-size="14" lengthAdjust="spacing" textLength="114" x="5" y="1220.6133">Unregistered User</text><ellipse cx="65" cy="1232.627" fill="#E3E3E3" rx="8" ry="8" style="stroke:#181818;stroke-width:0.5;"/><path d="M65,1240.627 L65,1267.627 M52,1248.627 L78,1248.627 M65,1267.627 L52,1282.627 M65,1267.627 L78,1282.627 " fill="none" style="stroke:#181818;stroke-width:0.5;"/><rect fill="#E3E3E3" height="32.6211" rx="2.5" ry="2.5" style="stroke:#181818;stroke-width:0.5;" width="106" x="366" y="50"/><text fill="#000000" font-family="sans-serif" font-size="14" lengthAdjust="spacing" textLength="92" x="373" y="72.1074">:RegistrationUI</text><rect fill="#E3E3E3" height="32.6211" rx="2.5" ry="2.5" style="stroke:#181818;stroke-width:0.5;" width="106" x="366" y="1205.5059"/><text fill="#000000" font-family="sans-serif" font-size="14" lengthAdjust="spacing" textLength="92" x="373" y="1227.6133">:RegistrationUI</text><rect fill="#E3E3E3" height="32.6211" rx="2.5" ry="2.5" style="stroke:#181818;stroke-width:0.5;" width="156" x="694" y="1205.5059"/><text fill="#000000" font-family="sans-serif" font-size="14" lengthAdjust="spacing" textLength="142" x="701" y="1227.6133">:RegistrationController</text><rect fill="#E3E3E3" height="32.6211" rx="2.5" ry="2.5" style="stroke:#181818;stroke-width:0.5;" width="97" x="860" y="50"/><text fill="#000000" font-family="sans-serif" font-size="14" lengthAdjust="spacing" textLength="83" x="867" y="72.1074">:Repositories</text><rect fill="#E3E3E3" height="32.6211" rx="2.5" ry="2.5" style="stroke:#181818;stroke-width:0.5;" width="97" x="860" y="1205.5059"/><text fill="#000000" font-family="sans-serif" font-size="14" lengthAdjust="spacing" textLength="83" x="867" y="1227.6133">:Repositories</text><rect fill="#E3E3E3" height="51.2422" rx="2.5" ry="2.5" style="stroke:#181818;stroke-width:0.5;" width="97" x="967" y="31.3789"/><text fill="#000000" font-family="sans-serif" font-size="14" lengthAdjust="spacing" textLength="74" x="978.5" y="53.4863">repositories</text><text fill="#000000" font-family="sans-serif" font-size="14" lengthAdjust="spacing" textLength="83" x="974" y="72.1074">:Repositories</text><rect fill="#E3E3E3" height="51.2422" rx="2.5" ry="2.5" style="stroke:#181818;stroke-width:0.5;" width="97" x="967" y="1205.5059"/><text fill="#000000" font-family="sans-serif" font-size="14" lengthAdjust="spacing" textLength="74" x="978.5" y="1227.6133">repositories</text><text fill="#000000" font-family="sans-serif" font-size="14" lengthAdjust="spacing" textLength="83" x="974" y="1246.2344">:Repositories</text><rect fill="#E3E3E3" height="51.2422" rx="2.5" ry="2.5" style="stroke:#181818;stroke-width:0.5;" width="129" x="1074" y="31.3789"/><text fill="#000000" font-family="sans-serif" font-size="14" lengthAdjust="spacing" textLength="108" x="1084.5" y="53.4863">clientsRepository</text><text fill="#000000" font-family="sans-serif" font-size="14" lengthAdjust="spacing" textLength="115" x="1081" y="72.1074">:ClientsRepository</text><rect fill="#E3E3E3" height="51.2422" rx="2.5" ry="2.5" style="stroke:#181818;stroke-width:0.5;" width="129" x="1074" y="1205.5059"/><text fill="#000000" font-family="sans-serif" font-size="14" lengthAdjust="spacing" textLength="108" x="1084.5" y="1227.6133">clientsRepository</text><text fill="#000000" font-family="sans-serif" font-size="14" lengthAdjust="spacing" textLength="115" x="1081" y="1246.2344">:ClientsRepository</text><rect fill="#E3E3E3" height="51.2422" rx="2.5" ry="2.5" style="stroke:#181818;stroke-width:0.5;" width="54" x="1475.5" y="1205.5059"/><text fill="#000000" font-family="sans-serif" font-size="14" lengthAdjust="spacing" textLength="33" x="1486" y="1227.6133">client</text><text fill="#000000" font-family="sans-serif" font-size="14" lengthAdjust="spacing" textLength="40" x="1482.5" y="1246.2344">:Client</text><rect fill="#E3E3E3" height="32.6211" rx="2.5" ry="2.5" style="stroke:#181818;stroke-width:0.5;" width="172" x="1718.5" y="50"/><text fill="#000000" font-family="sans-serif" font-size="14" lengthAdjust="spacing" textLength="158" x="1725.5" y="72.1074">AuthenticationRepository</text><rect fill="#E3E3E3" height="32.6211" rx="2.5" ry="2.5" style="stroke:#181818;stroke-width:0.5;" width="172" x="1718.5" y="1205.5059"/><text fill="#000000" font-family="sans-serif" font-size="14" lengthAdjust="spacing" textLength="158" x="1725.5" y="1227.6133">AuthenticationRepository</text><rect fill="#E3E3E3" height="32.6211" rx="2.5" ry="2.5" style="stroke:#181818;stroke-width:0.5;" width="91" x="2036" y="50"/><text fill="#000000" font-family="sans-serif" font-size="14" lengthAdjust="spacing" textLength="77" x="2043" y="72.1074">AuthFacade</text><rect fill="#E3E3E3" height="32.6211" rx="2.5" ry="2.5" style="stroke:#181818;stroke-width:0.5;" width="91" x="2036" y="1205.5059"/><text fill="#000000" font-family="sans-serif" font-size="14" lengthAdjust="spacing" textLength="77" x="2043" y="1227.6133">AuthFacade</text><rect fill="#FFFFFF" height="1103.8848" style="stroke:#181818;stroke-width:1.0;" width="10" x="60" y="93.6211"/><rect fill="#FFFFFF" height="154.7852" style="stroke:#181818;stroke-width:1.0;" width="10" x="414" y="116.9121"/><rect fill="#FFFFFF" height="877.2266" style="stroke:#181818;stroke-width:1.0;" width="10" x="414" y="320.2793"/><rect fill="#FFFFFF" height="64.9121" style="stroke:#181818;stroke-width:1.0;" width="10" x="767" y="158.2031"/><rect fill="#FFFFFF" height="828.6445" style="stroke:#181818;stroke-width:1.0;" width="10" x="767" y="368.8613"/><rect fill="#FFFFFF" height="31.291" style="stroke:#181818;stroke-width:1.0;" width="10" x="903.5" y="191.8242"/><rect fill="#FFFFFF" height="31.291" style="stroke:#181818;stroke-width:1.0;" width="10" x="1010.5" y="400.1523"/><rect fill="#FFFFFF" height="31.291" style="stroke:#181818;stroke-width:1.0;" width="10" x="1010.5" y="587.8984"/><rect fill="#FFFFFF" height="458.1523" style="stroke:#181818;stroke-width:1.0;" width="10" x="1133.5" y="667.7715"/><rect fill="#FFFFFF" height="226.7461" style="stroke:#181818;stroke-width:1.0;" width="10" x="1138.5" y="860.8867"/><rect fill="#FFFFFF" height="138.1641" style="stroke:#181818;stroke-width:1.0;" width="10" x="1143.5" y="905.1777"/><rect fill="#FFFFFF" height="88.2422" style="stroke:#181818;stroke-width:1.0;" width="10" x="1497.5" y="726.3535"/><rect fill="#FFFFFF" height="28" style="stroke:#181818;stroke-width:1.0;" width="10" x="1502.5" y="786.5957"/><rect fill="#FFFFFF" height="31.291" style="stroke:#181818;stroke-width:1.0;" width="10" x="1497.5" y="967.7598"/><rect fill="#FFFFFF" height="93.873" style="stroke:#181818;stroke-width:1.0;" width="10" x="1799.5" y="462.7344"/><rect fill="#FFFFFF" height="31.291" style="stroke:#181818;stroke-width:1.0;" width="10" x="2076.5" y="494.0254"/><polygon fill="#181818" points="402,112.9121,412,116.9121,402,120.9121,406,116.9121" style="stroke:#181818;stroke-width:1.0;"/><line style="stroke:#181818;stroke-width:1.0;" x1="70" x2="408" y1="116.9121" y2="116.9121"/><text fill="#000000" font-family="sans-serif" font-size="13" font-weight="bold" lengthAdjust="spacing" textLength="7" x="77" y="111.6494">1</text><text fill="#000000" font-family="sans-serif" font-size="13" lengthAdjust="spacing" textLength="148" x="88" y="111.6494">Search's to get registered</text><polygon fill="#181818" points="682,144.2031,692,148.2031,682,152.2031,686,148.2031" style="stroke:#181818;stroke-width:1.0;"/><line style="stroke:#181818;stroke-width:1.0;" x1="424" x2="688" y1="148.2031" y2="148.2031"/><text fill="#000000" font-family="sans-serif" font-size="13" font-weight="bold" lengthAdjust="spacing" textLength="7" x="431" y="142.9404">2</text><text fill="#000000" font-family="sans-serif" font-size="13" lengthAdjust="spacing" textLength="44" x="442" y="142.9404">create()</text><rect fill="#E3E3E3" height="32.6211" rx="2.5" ry="2.5" style="stroke:#181818;stroke-width:0.5;" width="156" x="694" y="124.9121"/><text fill="#000000" font-family="sans-serif" font-size="14" lengthAdjust="spacing" textLength="142" x="701" y="147.0195">:RegistrationController</text><polygon fill="#181818" points="891.5,187.8242,901.5,191.8242,891.5,195.8242,895.5,191.8242" style="stroke:#181818;stroke-width:1.0;"/><line style="stroke:#181818;stroke-width:1.0;" x1="777" x2="897.5" y1="191.8242" y2="191.8242"/><text fill="#000000" font-family="sans-serif" font-size="13" font-weight="bold" lengthAdjust="spacing" textLength="7" x="784" y="186.5615">3</text><text fill="#000000" font-family="sans-serif" font-size="13" lengthAdjust="spacing" textLength="75" x="795" y="186.5615">getInstance()</text><polygon fill="#181818" points="783,219.1152,773,223.1152,783,227.1152,779,223.1152" style="stroke:#181818;stroke-width:1.0;"/><line style="stroke:#181818;stroke-width:1.0;stroke-dasharray:2.0,2.0;" x1="777" x2="907.5" y1="223.1152" y2="223.1152"/><text fill="#000000" font-family="sans-serif" font-size="13" font-weight="bold" lengthAdjust="spacing" textLength="7" x="789" y="217.8525">4</text><text fill="#000000" font-family="sans-serif" font-size="13" lengthAdjust="spacing" textLength="67" x="800" y="217.8525">repositories</text><polygon fill="#181818" points="81,267.6973,71,271.6973,81,275.6973,77,271.6973" style="stroke:#181818;stroke-width:1.0;"/><line style="stroke:#181818;stroke-width:1.0;stroke-dasharray:2.0,2.0;" x1="75" x2="418" y1="271.6973" y2="271.6973"/><text fill="#000000" font-family="sans-serif" font-size="13" font-weight="bold" lengthAdjust="spacing" textLength="7" x="87" y="257.7891">5</text><text fill="#000000" font-family="sans-serif" font-size="13" lengthAdjust="spacing" textLength="305" x="98" y="249.1436">Requests data(name,citizenCardNumber, taxNumber</text><text fill="#000000" font-family="sans-serif" font-size="13" lengthAdjust="spacing" textLength="305" x="102" y="266.4346">address, emailAddress, telephoneNumber,password)</text><polygon fill="#181818" points="402,316.2793,412,320.2793,402,324.2793,406,320.2793" style="stroke:#181818;stroke-width:1.0;"/><line style="stroke:#181818;stroke-width:1.0;" x1="70" x2="408" y1="320.2793" y2="320.2793"/><text fill="#000000" font-family="sans-serif" font-size="13" font-weight="bold" lengthAdjust="spacing" textLength="7" x="77" y="306.3711">6</text><text fill="#000000" font-family="sans-serif" font-size="13" lengthAdjust="spacing" textLength="285" x="88" y="297.7256">Types data(name,citizenCardNumber, taxNumber</text><text fill="#000000" font-family="sans-serif" font-size="13" lengthAdjust="spacing" textLength="309" x="92" y="315.0166">address, emailAddress, telephoneNumber, password)</text><polygon fill="#181818" points="755,364.8613,765,368.8613,755,372.8613,759,368.8613" style="stroke:#181818;stroke-width:1.0;"/><line style="stroke:#181818;stroke-width:1.0;" x1="424" x2="761" y1="368.8613" y2="368.8613"/><text fill="#000000" font-family="sans-serif" font-size="13" font-weight="bold" lengthAdjust="spacing" textLength="7" x="431" y="354.9531">7</text><text fill="#000000" font-family="sans-serif" font-size="13" lengthAdjust="spacing" textLength="290" x="442" y="346.3076">createClient(name,citizenCardNumber, taxNumber</text><text fill="#000000" font-family="sans-serif" font-size="13" lengthAdjust="spacing" textLength="309" x="446" y="363.5986">address, emailAddress, telephoneNumber, password)</text><polygon fill="#181818" points="998.5,396.1523,1008.5,400.1523,998.5,404.1523,1002.5,400.1523" style="stroke:#181818;stroke-width:1.0;"/><line style="stroke:#181818;stroke-width:1.0;" x1="777" x2="1004.5" y1="400.1523" y2="400.1523"/><text fill="#000000" font-family="sans-serif" font-size="13" font-weight="bold" lengthAdjust="spacing" textLength="7" x="784" y="394.8896">8</text><text fill="#000000" font-family="sans-serif" font-size="13" lengthAdjust="spacing" textLength="171" x="795" y="394.8896">getAuthenticationRepository()</text><polygon fill="#181818" points="788,427.4434,778,431.4434,788,435.4434,784,431.4434" style="stroke:#181818;stroke-width:1.0;"/><line style="stroke:#181818;stroke-width:1.0;stroke-dasharray:2.0,2.0;" x1="782" x2="1014.5" y1="431.4434" y2="431.4434"/><text fill="#000000" font-family="sans-serif" font-size="13" font-weight="bold" lengthAdjust="spacing" textLength="7" x="794" y="426.1807">9</text><text fill="#000000" font-family="sans-serif" font-size="13" lengthAdjust="spacing" textLength="143" x="805" y="426.1807">authenticationRepository</text><polygon fill="#181818" points="1787.5,458.7344,1797.5,462.7344,1787.5,466.7344,1791.5,462.7344" style="stroke:#181818;stroke-width:1.0;"/><line style="stroke:#181818;stroke-width:1.0;" x1="777" x2="1793.5" y1="462.7344" y2="462.7344"/><text fill="#000000" font-family="sans-serif" font-size="13" font-weight="bold" lengthAdjust="spacing" textLength="14" x="784" y="457.4717">10</text><text fill="#000000" font-family="sans-serif" font-size="13" lengthAdjust="spacing" textLength="230" x="802" y="457.4717">addUser(emailAddress,name,password)</text><polygon fill="#181818" points="2064.5,490.0254,2074.5,494.0254,2064.5,498.0254,2068.5,494.0254" style="stroke:#181818;stroke-width:1.0;"/><line style="stroke:#181818;stroke-width:1.0;" x1="1809.5" x2="2070.5" y1="494.0254" y2="494.0254"/><text fill="#000000" font-family="sans-serif" font-size="13" font-weight="bold" lengthAdjust="spacing" textLength="14" x="1816.5" y="488.7627">11</text><text fill="#000000" font-family="sans-serif" font-size="13" lengthAdjust="spacing" textLength="230" x="1834.5" y="488.7627">addUser(emailAddress,name,password)</text><polygon fill="#181818" points="1820.5,521.3164,1810.5,525.3164,1820.5,529.3164,1816.5,525.3164" style="stroke:#181818;stroke-width:1.0;"/><line style="stroke:#181818;stroke-width:1.0;stroke-dasharray:2.0,2.0;" x1="1814.5" x2="2080.5" y1="525.3164" y2="525.3164"/><text fill="#000000" font-family="sans-serif" font-size="13" font-weight="bold" lengthAdjust="spacing" textLength="14" x="1826.5" y="520.0537">12</text><text fill="#000000" font-family="sans-serif" font-size="13" lengthAdjust="spacing" textLength="53" x="1844.5" y="520.0537">true/false</text><polygon fill="#181818" points="788,552.6074,778,556.6074,788,560.6074,784,556.6074" style="stroke:#181818;stroke-width:1.0;"/><line style="stroke:#181818;stroke-width:1.0;stroke-dasharray:2.0,2.0;" x1="782" x2="1803.5" y1="556.6074" y2="556.6074"/><text fill="#000000" font-family="sans-serif" font-size="13" font-weight="bold" lengthAdjust="spacing" textLength="14" x="794" y="551.3447">13</text><text fill="#000000" font-family="sans-serif" font-size="13" lengthAdjust="spacing" textLength="53" x="812" y="551.3447">true/false</text><polygon fill="#181818" points="998.5,583.8984,1008.5,587.8984,998.5,591.8984,1002.5,587.8984" style="stroke:#181818;stroke-width:1.0;"/><line style="stroke:#181818;stroke-width:1.0;" x1="777" x2="1004.5" y1="587.8984" y2="587.8984"/><text fill="#000000" font-family="sans-serif" font-size="13" font-weight="bold" lengthAdjust="spacing" textLength="14" x="784" y="582.6357">14</text><text fill="#000000" font-family="sans-serif" font-size="13" lengthAdjust="spacing" textLength="128" x="802" y="582.6357">getClientsRepository()</text><polygon fill="#181818" points="788,615.1895,778,619.1895,788,623.1895,784,619.1895" style="stroke:#181818;stroke-width:1.0;"/><line style="stroke:#181818;stroke-width:1.0;stroke-dasharray:2.0,2.0;" x1="782" x2="1014.5" y1="619.1895" y2="619.1895"/><text fill="#000000" font-family="sans-serif" font-size="13" font-weight="bold" lengthAdjust="spacing" textLength="14" x="794" y="613.9268">15</text><text fill="#000000" font-family="sans-serif" font-size="13" lengthAdjust="spacing" textLength="102" x="812" y="613.9268">ClientsRepository</text><polygon fill="#181818" points="1121.5,663.7715,1131.5,667.7715,1121.5,671.7715,1125.5,667.7715" style="stroke:#181818;stroke-width:1.0;"/><line style="stroke:#181818;stroke-width:1.0;" x1="777" x2="1127.5" y1="667.7715" y2="667.7715"/><text fill="#000000" font-family="sans-serif" font-size="13" font-weight="bold" lengthAdjust="spacing" textLength="14" x="784" y="653.8633">16</text><text fill="#000000" font-family="sans-serif" font-size="13" lengthAdjust="spacing" textLength="290" x="802" y="645.2178">createClient(name,citizenCardNumber, taxNumber</text><text fill="#000000" font-family="sans-serif" font-size="13" lengthAdjust="spacing" textLength="246" x="806" y="662.5088">address, emailAddress, telephoneNumber)</text><polygon fill="#181818" points="1463.5,712.3535,1473.5,716.3535,1463.5,720.3535,1467.5,716.3535" style="stroke:#181818;stroke-width:1.0;"/><line style="stroke:#181818;stroke-width:1.0;" x1="1143.5" x2="1469.5" y1="716.3535" y2="716.3535"/><text fill="#000000" font-family="sans-serif" font-size="13" font-weight="bold" lengthAdjust="spacing" textLength="14" x="1150.5" y="702.4453">17</text><text fill="#000000" font-family="sans-serif" font-size="13" lengthAdjust="spacing" textLength="290" x="1168.5" y="693.7998">createClient(name,citizenCardNumber, taxNumber</text><text fill="#000000" font-family="sans-serif" font-size="13" lengthAdjust="spacing" textLength="246" x="1172.5" y="711.0908">address, emailAddress, telephoneNumber)</text><rect fill="#E3E3E3" height="51.2422" rx="2.5" ry="2.5" style="stroke:#181818;stroke-width:0.5;" width="54" x="1475.5" y="675.7715"/><text fill="#000000" font-family="sans-serif" font-size="14" lengthAdjust="spacing" textLength="33" x="1486" y="697.8789">client</text><text fill="#000000" font-family="sans-serif" font-size="14" lengthAdjust="spacing" textLength="40" x="1482.5" y="716.5">:Client</text><line style="stroke:#181818;stroke-width:1.0;" x1="1512.5" x2="1554.5" y1="778.5957" y2="778.5957"/><line style="stroke:#181818;stroke-width:1.0;" x1="1554.5" x2="1554.5" y1="778.5957" y2="791.5957"/><line style="stroke:#181818;stroke-width:1.0;" x1="1513.5" x2="1554.5" y1="791.5957" y2="791.5957"/><polygon fill="#181818" points="1523.5,787.5957,1513.5,791.5957,1523.5,795.5957,1519.5,791.5957" style="stroke:#181818;stroke-width:1.0;"/><text fill="#000000" font-family="sans-serif" font-size="13" font-weight="bold" lengthAdjust="spacing" textLength="14" x="1519.5" y="764.6875">18</text><text fill="#000000" font-family="sans-serif" font-size="13" lengthAdjust="spacing" textLength="260" x="1537.5" y="756.042">isValid(name,citizenCardNumber, taxNumber</text><text fill="#000000" font-family="sans-serif" font-size="13" lengthAdjust="spacing" textLength="246" x="1541.5" y="773.333">address, emailAddress, telephoneNumber)</text><line style="stroke:#181818;stroke-width:1.0;" x1="1143.5" x2="1190.5" y1="847.8867" y2="847.8867"/><line style="stroke:#181818;stroke-width:1.0;" x1="1190.5" x2="1190.5" y1="847.8867" y2="860.8867"/><line style="stroke:#181818;stroke-width:1.0;" x1="1149.5" x2="1190.5" y1="860.8867" y2="860.8867"/><polygon fill="#181818" points="1159.5,856.8867,1149.5,860.8867,1159.5,864.8867,1155.5,860.8867" style="stroke:#181818;stroke-width:1.0;"/><text fill="#000000" font-family="sans-serif" font-size="13" font-weight="bold" lengthAdjust="spacing" textLength="14" x="1155.5" y="842.624">19</text><text fill="#000000" font-family="sans-serif" font-size="13" lengthAdjust="spacing" textLength="93" x="1173.5" y="842.624">addClient(client)</text><line style="stroke:#181818;stroke-width:1.0;" x1="1148.5" x2="1195.5" y1="892.1777" y2="892.1777"/><line style="stroke:#181818;stroke-width:1.0;" x1="1195.5" x2="1195.5" y1="892.1777" y2="905.1777"/><line style="stroke:#181818;stroke-width:1.0;" x1="1154.5" x2="1195.5" y1="905.1777" y2="905.1777"/><polygon fill="#181818" points="1164.5,901.1777,1154.5,905.1777,1164.5,909.1777,1160.5,905.1777" style="stroke:#181818;stroke-width:1.0;"/><text fill="#000000" font-family="sans-serif" font-size="13" font-weight="bold" lengthAdjust="spacing" textLength="14" x="1160.5" y="886.915">20</text><text fill="#000000" font-family="sans-serif" font-size="13" lengthAdjust="spacing" textLength="78" x="1178.5" y="886.915">isValid(client)</text><path d="M1064,925.1777 L1137,925.1777 L1137,934.4688 L1127,944.4688 L1064,944.4688 L1064,925.1777 " fill="#EEEEEE" style="stroke:#000000;stroke-width:1.5;"/><rect fill="none" height="81.873" style="stroke:#000000;stroke-width:1.5;" width="475.5" x="1064" y="925.1777"/><text fill="#000000" font-family="sans-serif" font-size="13" font-weight="bold" lengthAdjust="spacing" textLength="28" x="1079" y="940.2061">loop</text><text fill="#000000" font-family="sans-serif" font-size="11" font-weight="bold" lengthAdjust="spacing" textLength="86" x="1152" y="939.0479">[for each client]</text><polygon fill="#181818" points="1485.5,963.7598,1495.5,967.7598,1485.5,971.7598,1489.5,967.7598" style="stroke:#181818;stroke-width:1.0;"/><line style="stroke:#181818;stroke-width:1.0;" x1="1153.5" x2="1491.5" y1="967.7598" y2="967.7598"/><text fill="#000000" font-family="sans-serif" font-size="13" font-weight="bold" lengthAdjust="spacing" textLength="14" x="1160.5" y="962.4971">21</text><text fill="#000000" font-family="sans-serif" font-size="13" lengthAdjust="spacing" textLength="77" x="1178.5" y="962.4971">equals(client)</text><polygon fill="#181818" points="1164.5,995.0508,1154.5,999.0508,1164.5,1003.0508,1160.5,999.0508" style="stroke:#181818;stroke-width:1.0;"/><line style="stroke:#181818;stroke-width:1.0;stroke-dasharray:2.0,2.0;" x1="1158.5" x2="1501.5" y1="999.0508" y2="999.0508"/><text fill="#000000" font-family="sans-serif" font-size="13" font-weight="bold" lengthAdjust="spacing" textLength="14" x="1170.5" y="993.7881">22</text><text fill="#000000" font-family="sans-serif" font-size="13" lengthAdjust="spacing" textLength="53" x="1188.5" y="993.7881">true/false</text><line style="stroke:#181818;stroke-width:1.0;stroke-dasharray:2.0,2.0;" x1="1153.5" x2="1195.5" y1="1042.3418" y2="1042.3418"/><line style="stroke:#181818;stroke-width:1.0;stroke-dasharray:2.0,2.0;" x1="1195.5" x2="1195.5" y1="1042.3418" y2="1055.3418"/><line style="stroke:#181818;stroke-width:1.0;stroke-dasharray:2.0,2.0;" x1="1148.5" x2="1195.5" y1="1055.3418" y2="1055.3418"/><polygon fill="#181818" points="1158.5,1051.3418,1148.5,1055.3418,1158.5,1059.3418,1154.5,1055.3418" style="stroke:#181818;stroke-width:1.0;"/><text fill="#000000" font-family="sans-serif" font-size="13" font-weight="bold" lengthAdjust="spacing" textLength="14" x="1160.5" y="1037.0791">23</text><text fill="#000000" font-family="sans-serif" font-size="13" lengthAdjust="spacing" textLength="53" x="1178.5" y="1037.0791">true/false</text><line style="stroke:#181818;stroke-width:1.0;stroke-dasharray:2.0,2.0;" x1="1148.5" x2="1190.5" y1="1086.6328" y2="1086.6328"/><line style="stroke:#181818;stroke-width:1.0;stroke-dasharray:2.0,2.0;" x1="1190.5" x2="1190.5" y1="1086.6328" y2="1099.6328"/><line style="stroke:#181818;stroke-width:1.0;stroke-dasharray:2.0,2.0;" x1="1143.5" x2="1190.5" y1="1099.6328" y2="1099.6328"/><polygon fill="#181818" points="1153.5,1095.6328,1143.5,1099.6328,1153.5,1103.6328,1149.5,1099.6328" style="stroke:#181818;stroke-width:1.0;"/><text fill="#000000" font-family="sans-serif" font-size="13" font-weight="bold" lengthAdjust="spacing" textLength="14" x="1155.5" y="1081.3701">24</text><text fill="#000000" font-family="sans-serif" font-size="13" lengthAdjust="spacing" textLength="53" x="1173.5" y="1081.3701">true/false</text><polygon fill="#181818" points="788,1121.9238,778,1125.9238,788,1129.9238,784,1125.9238" style="stroke:#181818;stroke-width:1.0;"/><line style="stroke:#181818;stroke-width:1.0;stroke-dasharray:2.0,2.0;" x1="782" x2="1137.5" y1="1125.9238" y2="1125.9238"/><text fill="#000000" font-family="sans-serif" font-size="13" font-weight="bold" lengthAdjust="spacing" textLength="14" x="794" y="1120.6611">25</text><text fill="#000000" font-family="sans-serif" font-size="13" lengthAdjust="spacing" textLength="53" x="812" y="1120.6611">true/false</text><polygon fill="#181818" points="435,1153.2148,425,1157.2148,435,1161.2148,431,1157.2148" style="stroke:#181818;stroke-width:1.0;"/><line style="stroke:#181818;stroke-width:1.0;stroke-dasharray:2.0,2.0;" x1="429" x2="766" y1="1157.2148" y2="1157.2148"/><text fill="#000000" font-family="sans-serif" font-size="13" font-weight="bold" lengthAdjust="spacing" textLength="14" x="441" y="1151.9521">26</text><text fill="#000000" font-family="sans-serif" font-size="13" lengthAdjust="spacing" textLength="53" x="459" y="1151.9521">true/false</text><polygon fill="#181818" points="81,1184.5059,71,1188.5059,81,1192.5059,77,1188.5059" style="stroke:#181818;stroke-width:1.0;"/><line style="stroke:#181818;stroke-width:1.0;stroke-dasharray:2.0,2.0;" x1="75" x2="413" y1="1188.5059" y2="1188.5059"/><text fill="#000000" font-family="sans-serif" font-size="13" font-weight="bold" lengthAdjust="spacing" textLength="14" x="87" y="1183.2432">27</text><text fill="#000000" font-family="sans-serif" font-size="13" lengthAdjust="spacing" textLength="190" x="105" y="1183.2432">displays (in)success of operation</text><!--SRC=[lLPDRnen4BtlhnZb4e90lNE8XBP2Gcfxs8IUSd7jWRMos5lRDA6_lcDxWVq4qZJr9S7pvlbvvjbU-onLoGpRmbOhpNEZjmZEx32nnqZ9-3FRu8FR5mW6kMDgKzG1DcT2lqYrWJKhB2O9spcjTjiVQ9BaDfS2OQsr-w5V4yQTDd2pKWOtqZeqA61bqTm0ix3ALWanEibboPI3craMK8OvgTLg6K7BCvXKAsTqKLI4MTh1bjfAaY3HHWIMJOYf8PvKDu7YYH-D95v8LCuUmNlAJDjp8JtDUbEF-02ASqtSVETocfGyxBF5Ei-wu0NZJ60CBxnYAhtynHo6CYTG3Ve1qtkgAipW0PdX-Qq5fs633auzEk5FB4lgBTG6KKo9QVxvAr4P_Bb3wom8vXYC3Aw9Hd6SW43BZIpzBYO0KgsrsR82dbGpuf3dYdPRDAV5BZPw0bnRTvVK1TnoWrvP-fXzIThAxiaCup4fYw1HC_MuAt9C8v2b8HLBogIIB9Kbz_DsUdkSwBnRuCBmxDCWqDVjvBUBYGBhkgz5agIUjdaVp2XOQzj8iIrEk7JoDwgK6V4j76dg3NkD_rBJc106hPq0RfaiveTV3WiiSwsmoYcPjI_QYBka9eKiLBVVuxx4Vxyod9PkUFTWYgCbuW7ywAMzmQAfZ3SLUMheP9F7JcdXsZ57ev1eDf1MBt38QlS-hZxFF8SG_l8TDROH2d1IFkXjkdGwGMBrt8jtSozwk1T-yq6tVw0-nRVcZDE9f4_VeO1Naj0ks_5Q__obqBdfkxT3ioEj8CqTHNMuEkXsUvCBPxrVV9fzdE_Fz3NjyKmQF1FVlF7u0rKDoweUt7OyJa_luz-PjDzP8SN_gLGbwLnttm69DK-hEw2gTGIVxrwNAF3Cu52Slo4fj2xf2z402S-7cX4annYffdUAJkxbrOOAK15D3rMuxZ8Oa8PAz9MOo3ttTTJzjNsRl46EDzntVIUq5UwvS_obSdZ6pwopMX8gV6a8QSk2xIsCfBgpEyxfU81UWounVk0bVm00]--></g></svg>