<?xml version="1.0" encoding="us-ascii" standalone="no"?><svg xmlns="http://www.w3.org/2000/svg" xmlns:xlink="http://www.w3.org/1999/xlink" contentStyleType="text/css" height="1858px" preserveAspectRatio="none" style="width:1657px;height:1858px;background:#FFFFFF;" version="1.1" viewBox="0 0 1657 1858" width="1657px" zoomAndPan="magnify"><defs/><g><text fill="#000000" font-family="sans-serif" font-size="14" font-weight="bold" lengthAdjust="spacing" textLength="209" x="725" y="30.1074">US015 - List booking requests</text><rect fill="#FFFFFF" height="1633.1055" style="stroke:#181818;stroke-width:1.0;" width="10" x="21.5" y="133.2422"/><rect fill="#FFFFFF" height="1609.8145" style="stroke:#181818;stroke-width:1.0;" width="10" x="370.5" y="156.5332"/><rect fill="#FFFFFF" height="167.4551" style="stroke:#181818;stroke-width:1.0;" width="10" x="375.5" y="195.8242"/><rect fill="#FFFFFF" height="28" style="stroke:#181818;stroke-width:1.0;" width="10" x="375.5" y="409.5703"/><rect fill="#FFFFFF" height="1051.0703" style="stroke:#181818;stroke-width:1.0;" width="10" x="638.5" y="519.4824"/><rect fill="#FFFFFF" height="568.9473" style="stroke:#181818;stroke-width:1.0;" width="10" x="643.5" y="558.7734"/><rect fill="#FFFFFF" height="355.2012" style="stroke:#181818;stroke-width:1.0;" width="10" x="648.5" y="603.0645"/><rect fill="#FFFFFF" height="248.0859" style="stroke:#181818;stroke-width:1.0;" width="10" x="643.5" y="1299.1758"/><rect fill="#FFFFFF" height="31.291" style="stroke:#181818;stroke-width:1.0;" width="10" x="866.5" y="639.3555"/><rect fill="#FFFFFF" height="31.291" style="stroke:#181818;stroke-width:1.0;" width="10" x="866.5" y="701.9375"/><rect fill="#FFFFFF" height="31.291" style="stroke:#181818;stroke-width:1.0;" width="10" x="866.5" y="996.5566"/><rect fill="#FFFFFF" height="31.291" style="stroke:#181818;stroke-width:1.0;" width="10" x="866.5" y="1166.0117"/><rect fill="#FFFFFF" height="31.291" style="stroke:#181818;stroke-width:1.0;" width="10" x="1009" y="764.5195"/><rect fill="#FFFFFF" height="31.291" style="stroke:#181818;stroke-width:1.0;" width="10" x="1151.5" y="827.1016"/><rect fill="#FFFFFF" height="31.291" style="stroke:#181818;stroke-width:1.0;" width="10" x="1266" y="889.6836"/><rect fill="#FFFFFF" height="31.291" style="stroke:#181818;stroke-width:1.0;" width="10" x="1414.5" y="1059.1387"/><rect fill="#FFFFFF" height="31.291" style="stroke:#181818;stroke-width:1.0;" width="10" x="1414.5" y="1228.5938"/><rect fill="#FFFFFF" height="31.291" style="stroke:#181818;stroke-width:1.0;" width="10" x="1525" y="1335.4668"/><rect fill="#FFFFFF" height="30" style="stroke:#181818;stroke-width:1.0;" width="10" x="1525" y="1689.0566"/><rect fill="#FFFFFF" height="30" style="stroke:#181818;stroke-width:1.0;" width="10" x="1595" y="1424.3398"/><rect fill="#FFFFFF" height="30" style="stroke:#181818;stroke-width:1.0;" width="10" x="1595" y="1502.2617"/><rect fill="none" height="158.5039" style="stroke:#000000;stroke-width:1.5;" width="1120" x="530" y="1381.7578"/><rect fill="none" height="141.5039" style="stroke:#000000;stroke-width:1.5;" width="1258" x="302" y="1585.5527"/><line style="stroke:#181818;stroke-width:0.5;stroke-dasharray:5.0,5.0;" x1="26" x2="26" y1="123.2422" y2="1775.3477"/><line style="stroke:#181818;stroke-width:0.5;stroke-dasharray:5.0,5.0;" x1="375" x2="375" y1="123.2422" y2="1775.3477"/><line style="stroke:#181818;stroke-width:0.5;stroke-dasharray:5.0,5.0;" x1="643" x2="643" y1="484.3809" y2="1775.3477"/><line style="stroke:#181818;stroke-width:0.5;stroke-dasharray:5.0,5.0;" x1="871" x2="871" y1="123.2422" y2="1775.3477"/><line style="stroke:#181818;stroke-width:0.5;stroke-dasharray:5.0,5.0;" x1="1014" x2="1014" y1="123.2422" y2="1775.3477"/><line style="stroke:#181818;stroke-width:0.5;stroke-dasharray:5.0,5.0;" x1="1156" x2="1156" y1="123.2422" y2="1775.3477"/><line style="stroke:#181818;stroke-width:0.5;stroke-dasharray:5.0,5.0;" x1="1271" x2="1271" y1="123.2422" y2="1775.3477"/><line style="stroke:#181818;stroke-width:0.5;stroke-dasharray:5.0,5.0;" x1="1419" x2="1419" y1="123.2422" y2="1775.3477"/><line style="stroke:#181818;stroke-width:0.5;stroke-dasharray:5.0,5.0;" x1="1530" x2="1530" y1="123.2422" y2="1775.3477"/><line style="stroke:#181818;stroke-width:0.5;stroke-dasharray:5.0,5.0;" x1="1600" x2="1600" y1="123.2422" y2="1775.3477"/><text fill="#000000" font-family="sans-serif" font-size="14" lengthAdjust="spacing" textLength="37" x="5" y="119.7285">Agent</text><ellipse cx="26.5" cy="53.1211" fill="#E2E2F0" rx="8" ry="8" style="stroke:#181818;stroke-width:0.5;"/><path d="M26.5,61.1211 L26.5,88.1211 M13.5,69.1211 L39.5,69.1211 M26.5,88.1211 L13.5,103.1211 M26.5,88.1211 L39.5,103.1211 " fill="none" style="stroke:#181818;stroke-width:0.5;"/><text fill="#000000" font-family="sans-serif" font-size="14" lengthAdjust="spacing" textLength="37" x="5" y="1789.4551">Agent</text><ellipse cx="26.5" cy="1801.4688" fill="#E2E2F0" rx="8" ry="8" style="stroke:#181818;stroke-width:0.5;"/><path d="M26.5,1809.4688 L26.5,1836.4688 M13.5,1817.4688 L39.5,1817.4688 M26.5,1836.4688 L13.5,1851.4688 M26.5,1836.4688 L39.5,1851.4688 " fill="none" style="stroke:#181818;stroke-width:0.5;"/><rect fill="#E2E2F0" height="32.6211" rx="2.5" ry="2.5" style="stroke:#181818;stroke-width:0.5;" width="127" x="312" y="89.6211"/><text fill="#000000" font-family="sans-serif" font-size="14" lengthAdjust="spacing" textLength="113" x="319" y="111.7285">ListVisitRequestUI</text><rect fill="#E2E2F0" height="32.6211" rx="2.5" ry="2.5" style="stroke:#181818;stroke-width:0.5;" width="127" x="312" y="1774.3477"/><text fill="#000000" font-family="sans-serif" font-size="14" lengthAdjust="spacing" textLength="113" x="319" y="1796.4551">ListVisitRequestUI</text><rect fill="#E2E2F0" height="32.6211" rx="2.5" ry="2.5" style="stroke:#181818;stroke-width:0.5;" width="207" x="540" y="1774.3477"/><text fill="#000000" font-family="sans-serif" font-size="14" lengthAdjust="spacing" textLength="193" x="547" y="1796.4551">ReviewVisitRequestsController</text><rect fill="#E2E2F0" height="32.6211" rx="2.5" ry="2.5" style="stroke:#181818;stroke-width:0.5;" width="93" x="825" y="89.6211"/><text fill="#000000" font-family="sans-serif" font-size="14" lengthAdjust="spacing" textLength="79" x="832" y="111.7285">Repositories</text><rect fill="#E2E2F0" height="32.6211" rx="2.5" ry="2.5" style="stroke:#181818;stroke-width:0.5;" width="93" x="825" y="1774.3477"/><text fill="#000000" font-family="sans-serif" font-size="14" lengthAdjust="spacing" textLength="79" x="832" y="1796.4551">Repositories</text><rect fill="#E2E2F0" height="32.6211" rx="2.5" ry="2.5" style="stroke:#181818;stroke-width:0.5;" width="172" x="928" y="89.6211"/><text fill="#000000" font-family="sans-serif" font-size="14" lengthAdjust="spacing" textLength="158" x="935" y="111.7285">AuthenticationRepository</text><rect fill="#E2E2F0" height="32.6211" rx="2.5" ry="2.5" style="stroke:#181818;stroke-width:0.5;" width="172" x="928" y="1774.3477"/><text fill="#000000" font-family="sans-serif" font-size="14" lengthAdjust="spacing" textLength="158" x="935" y="1796.4551">AuthenticationRepository</text><rect fill="#E2E2F0" height="32.6211" rx="2.5" ry="2.5" style="stroke:#181818;stroke-width:0.5;" width="93" x="1110" y="89.6211"/><text fill="#000000" font-family="sans-serif" font-size="14" lengthAdjust="spacing" textLength="79" x="1117" y="111.7285">UserSession</text><rect fill="#E2E2F0" height="32.6211" rx="2.5" ry="2.5" style="stroke:#181818;stroke-width:0.5;" width="93" x="1110" y="1774.3477"/><text fill="#000000" font-family="sans-serif" font-size="14" lengthAdjust="spacing" textLength="79" x="1117" y="1796.4551">UserSession</text><rect fill="#E2E2F0" height="32.6211" rx="2.5" ry="2.5" style="stroke:#181818;stroke-width:0.5;" width="116" x="1213" y="89.6211"/><text fill="#000000" font-family="sans-serif" font-size="14" lengthAdjust="spacing" textLength="102" x="1220" y="111.7285">StoreRepository</text><rect fill="#E2E2F0" height="32.6211" rx="2.5" ry="2.5" style="stroke:#181818;stroke-width:0.5;" width="116" x="1213" y="1774.3477"/><text fill="#000000" font-family="sans-serif" font-size="14" lengthAdjust="spacing" textLength="102" x="1220" y="1796.4551">StoreRepository</text><rect fill="#E2E2F0" height="32.6211" rx="2.5" ry="2.5" style="stroke:#181818;stroke-width:0.5;" width="161" x="1339" y="89.6211"/><text fill="#000000" font-family="sans-serif" font-size="14" lengthAdjust="spacing" textLength="147" x="1346" y="111.7285">VisitRequestRepository</text><rect fill="#E2E2F0" height="32.6211" rx="2.5" ry="2.5" style="stroke:#181818;stroke-width:0.5;" width="161" x="1339" y="1774.3477"/><text fill="#000000" font-family="sans-serif" font-size="14" lengthAdjust="spacing" textLength="147" x="1346" y="1796.4551">VisitRequestRepository</text><rect fill="#E2E2F0" height="32.6211" rx="2.5" ry="2.5" style="stroke:#181818;stroke-width:0.5;" width="40" x="1510" y="89.6211"/><text fill="#000000" font-family="sans-serif" font-size="14" lengthAdjust="spacing" textLength="26" x="1517" y="111.7285">Utils</text><rect fill="#E2E2F0" height="32.6211" rx="2.5" ry="2.5" style="stroke:#181818;stroke-width:0.5;" width="40" x="1510" y="1774.3477"/><text fill="#000000" font-family="sans-serif" font-size="14" lengthAdjust="spacing" textLength="26" x="1517" y="1796.4551">Utils</text><rect fill="#E2E2F0" height="32.6211" rx="2.5" ry="2.5" style="stroke:#181818;stroke-width:0.5;" width="80" x="1560" y="89.6211"/><text fill="#000000" font-family="sans-serif" font-size="14" lengthAdjust="spacing" textLength="66" x="1567" y="111.7285">Algorithms</text><rect fill="#E2E2F0" height="32.6211" rx="2.5" ry="2.5" style="stroke:#181818;stroke-width:0.5;" width="80" x="1560" y="1774.3477"/><text fill="#000000" font-family="sans-serif" font-size="14" lengthAdjust="spacing" textLength="66" x="1567" y="1796.4551">Algorithms</text><rect fill="#FFFFFF" height="1633.1055" style="stroke:#181818;stroke-width:1.0;" width="10" x="21.5" y="133.2422"/><rect fill="#FFFFFF" height="1609.8145" style="stroke:#181818;stroke-width:1.0;" width="10" x="370.5" y="156.5332"/><rect fill="#FFFFFF" height="167.4551" style="stroke:#181818;stroke-width:1.0;" width="10" x="375.5" y="195.8242"/><rect fill="#FFFFFF" height="28" style="stroke:#181818;stroke-width:1.0;" width="10" x="375.5" y="409.5703"/><rect fill="#FFFFFF" height="1051.0703" style="stroke:#181818;stroke-width:1.0;" width="10" x="638.5" y="519.4824"/><rect fill="#FFFFFF" height="568.9473" style="stroke:#181818;stroke-width:1.0;" width="10" x="643.5" y="558.7734"/><rect fill="#FFFFFF" height="355.2012" style="stroke:#181818;stroke-width:1.0;" width="10" x="648.5" y="603.0645"/><rect fill="#FFFFFF" height="248.0859" style="stroke:#181818;stroke-width:1.0;" width="10" x="643.5" y="1299.1758"/><rect fill="#FFFFFF" height="31.291" style="stroke:#181818;stroke-width:1.0;" width="10" x="866.5" y="639.3555"/><rect fill="#FFFFFF" height="31.291" style="stroke:#181818;stroke-width:1.0;" width="10" x="866.5" y="701.9375"/><rect fill="#FFFFFF" height="31.291" style="stroke:#181818;stroke-width:1.0;" width="10" x="866.5" y="996.5566"/><rect fill="#FFFFFF" height="31.291" style="stroke:#181818;stroke-width:1.0;" width="10" x="866.5" y="1166.0117"/><rect fill="#FFFFFF" height="31.291" style="stroke:#181818;stroke-width:1.0;" width="10" x="1009" y="764.5195"/><rect fill="#FFFFFF" height="31.291" style="stroke:#181818;stroke-width:1.0;" width="10" x="1151.5" y="827.1016"/><rect fill="#FFFFFF" height="31.291" style="stroke:#181818;stroke-width:1.0;" width="10" x="1266" y="889.6836"/><rect fill="#FFFFFF" height="31.291" style="stroke:#181818;stroke-width:1.0;" width="10" x="1414.5" y="1059.1387"/><rect fill="#FFFFFF" height="31.291" style="stroke:#181818;stroke-width:1.0;" width="10" x="1414.5" y="1228.5938"/><rect fill="#FFFFFF" height="31.291" style="stroke:#181818;stroke-width:1.0;" width="10" x="1525" y="1335.4668"/><rect fill="#FFFFFF" height="30" style="stroke:#181818;stroke-width:1.0;" width="10" x="1525" y="1689.0566"/><rect fill="#FFFFFF" height="30" style="stroke:#181818;stroke-width:1.0;" width="10" x="1595" y="1424.3398"/><rect fill="#FFFFFF" height="30" style="stroke:#181818;stroke-width:1.0;" width="10" x="1595" y="1502.2617"/><polygon fill="#181818" points="358.5,152.5332,368.5,156.5332,358.5,160.5332,362.5,156.5332" style="stroke:#181818;stroke-width:1.0;"/><line style="stroke:#181818;stroke-width:1.0;" x1="31.5" x2="364.5" y1="156.5332" y2="156.5332"/><text fill="#000000" font-family="sans-serif" font-size="13" font-weight="bold" lengthAdjust="spacing" textLength="7" x="38.5" y="151.2705">1</text><text fill="#000000" font-family="sans-serif" font-size="13" lengthAdjust="spacing" textLength="184" x="49.5" y="151.2705">asks to list all booking requests</text><line style="stroke:#181818;stroke-width:1.0;" x1="380.5" x2="427.5" y1="182.8242" y2="182.8242"/><line style="stroke:#181818;stroke-width:1.0;" x1="427.5" x2="427.5" y1="182.8242" y2="195.8242"/><line style="stroke:#181818;stroke-width:1.0;" x1="386.5" x2="427.5" y1="195.8242" y2="195.8242"/><polygon fill="#181818" points="396.5,191.8242,386.5,195.8242,396.5,199.8242,392.5,195.8242" style="stroke:#181818;stroke-width:1.0;"/><text fill="#000000" font-family="sans-serif" font-size="13" font-weight="bold" lengthAdjust="spacing" textLength="7" x="392.5" y="177.5615">2</text><text fill="#000000" font-family="sans-serif" font-size="13" lengthAdjust="spacing" textLength="85" x="403.5" y="177.5615">requestDates()</text><polygon fill="#181818" points="42.5,228.1152,32.5,232.1152,42.5,236.1152,38.5,232.1152" style="stroke:#181818;stroke-width:1.0;"/><line style="stroke:#181818;stroke-width:1.0;stroke-dasharray:2.0,2.0;" x1="36.5" x2="374.5" y1="232.1152" y2="232.1152"/><text fill="#000000" font-family="sans-serif" font-size="13" font-weight="bold" lengthAdjust="spacing" textLength="7" x="48.5" y="226.8525">3</text><text fill="#000000" font-family="sans-serif" font-size="13" lengthAdjust="spacing" textLength="110" x="59.5" y="226.8525">asks for begin date</text><polygon fill="#181818" points="363.5,259.4063,373.5,263.4063,363.5,267.4063,367.5,263.4063" style="stroke:#181818;stroke-width:1.0;"/><line style="stroke:#181818;stroke-width:1.0;stroke-dasharray:2.0,2.0;" x1="31.5" x2="369.5" y1="263.4063" y2="263.4063"/><text fill="#000000" font-family="sans-serif" font-size="13" font-weight="bold" lengthAdjust="spacing" textLength="7" x="38.5" y="258.1436">4</text><text fill="#000000" font-family="sans-serif" font-size="13" lengthAdjust="spacing" textLength="111" x="49.5" y="258.1436">provides begin date</text><polygon fill="#181818" points="42.5,290.6973,32.5,294.6973,42.5,298.6973,38.5,294.6973" style="stroke:#181818;stroke-width:1.0;"/><line style="stroke:#181818;stroke-width:1.0;stroke-dasharray:2.0,2.0;" x1="36.5" x2="374.5" y1="294.6973" y2="294.6973"/><text fill="#000000" font-family="sans-serif" font-size="13" font-weight="bold" lengthAdjust="spacing" textLength="7" x="48.5" y="289.4346">5</text><text fill="#000000" font-family="sans-serif" font-size="13" lengthAdjust="spacing" textLength="100" x="59.5" y="289.4346">asks for end date</text><polygon fill="#181818" points="363.5,321.9883,373.5,325.9883,363.5,329.9883,367.5,325.9883" style="stroke:#181818;stroke-width:1.0;"/><line style="stroke:#181818;stroke-width:1.0;stroke-dasharray:2.0,2.0;" x1="31.5" x2="369.5" y1="325.9883" y2="325.9883"/><text fill="#000000" font-family="sans-serif" font-size="13" font-weight="bold" lengthAdjust="spacing" textLength="7" x="38.5" y="320.7256">6</text><text fill="#000000" font-family="sans-serif" font-size="13" lengthAdjust="spacing" textLength="101" x="49.5" y="320.7256">provides end date</text><line style="stroke:#181818;stroke-width:1.0;stroke-dasharray:2.0,2.0;" x1="385.5" x2="427.5" y1="362.2793" y2="362.2793"/><line style="stroke:#181818;stroke-width:1.0;stroke-dasharray:2.0,2.0;" x1="427.5" x2="427.5" y1="362.2793" y2="375.2793"/><line style="stroke:#181818;stroke-width:1.0;stroke-dasharray:2.0,2.0;" x1="380.5" x2="427.5" y1="375.2793" y2="375.2793"/><polygon fill="#181818" points="390.5,371.2793,380.5,375.2793,390.5,379.2793,386.5,375.2793" style="stroke:#181818;stroke-width:1.0;"/><text fill="#000000" font-family="sans-serif" font-size="13" font-weight="bold" lengthAdjust="spacing" textLength="7" x="392.5" y="357.0166">7</text><text fill="#000000" font-family="sans-serif" font-size="13" lengthAdjust="spacing" textLength="4" x="403.5" y="357.0166">&#160;</text><line style="stroke:#181818;stroke-width:1.0;" x1="385.5" x2="427.5" y1="401.5703" y2="401.5703"/><line style="stroke:#181818;stroke-width:1.0;" x1="427.5" x2="427.5" y1="401.5703" y2="414.5703"/><line style="stroke:#181818;stroke-width:1.0;" x1="386.5" x2="427.5" y1="414.5703" y2="414.5703"/><polygon fill="#181818" points="396.5,410.5703,386.5,414.5703,396.5,418.5703,392.5,414.5703" style="stroke:#181818;stroke-width:1.0;"/><text fill="#000000" font-family="sans-serif" font-size="13" font-weight="bold" lengthAdjust="spacing" textLength="7" x="392.5" y="396.3076">8</text><text fill="#000000" font-family="sans-serif" font-size="13" lengthAdjust="spacing" textLength="101" x="403.5" y="396.3076">dataIsConfirmed()</text><polygon fill="#181818" points="528,471.8613,538,475.8613,528,479.8613,532,475.8613" style="stroke:#181818;stroke-width:1.0;"/><line style="stroke:#181818;stroke-width:1.0;" x1="380.5" x2="534" y1="475.8613" y2="475.8613"/><text fill="#000000" font-family="sans-serif" font-size="13" font-weight="bold" lengthAdjust="spacing" textLength="7" x="387.5" y="470.5986">9</text><text fill="#000000" font-family="sans-serif" font-size="13" lengthAdjust="spacing" textLength="50" x="398.5" y="470.5986">&#171;create&#187;</text><rect fill="#E2E2F0" height="32.6211" rx="2.5" ry="2.5" style="stroke:#181818;stroke-width:0.5;" width="207" x="540" y="452.5703"/><text fill="#000000" font-family="sans-serif" font-size="14" lengthAdjust="spacing" textLength="193" x="547" y="474.6777">ReviewVisitRequestsController</text><polygon fill="#181818" points="626.5,515.4824,636.5,519.4824,626.5,523.4824,630.5,519.4824" style="stroke:#181818;stroke-width:1.0;"/><line style="stroke:#181818;stroke-width:1.0;" x1="380.5" x2="632.5" y1="519.4824" y2="519.4824"/><text fill="#000000" font-family="sans-serif" font-size="13" font-weight="bold" lengthAdjust="spacing" textLength="14" x="387.5" y="514.2197">10</text><text fill="#000000" font-family="sans-serif" font-size="13" lengthAdjust="spacing" textLength="221" x="405.5" y="514.2197">getVisitRequests(beginDate, endDate)</text><line style="stroke:#181818;stroke-width:1.0;" x1="648.5" x2="695.5" y1="545.7734" y2="545.7734"/><line style="stroke:#181818;stroke-width:1.0;" x1="695.5" x2="695.5" y1="545.7734" y2="558.7734"/><line style="stroke:#181818;stroke-width:1.0;" x1="654.5" x2="695.5" y1="558.7734" y2="558.7734"/><polygon fill="#181818" points="664.5,554.7734,654.5,558.7734,664.5,562.7734,660.5,558.7734" style="stroke:#181818;stroke-width:1.0;"/><text fill="#000000" font-family="sans-serif" font-size="13" font-weight="bold" lengthAdjust="spacing" textLength="14" x="660.5" y="540.5107">11</text><text fill="#000000" font-family="sans-serif" font-size="13" lengthAdjust="spacing" textLength="186" x="678.5" y="540.5107">getPropertySaleListFromAgent()</text><line style="stroke:#181818;stroke-width:1.0;" x1="653.5" x2="700.5" y1="590.0645" y2="590.0645"/><line style="stroke:#181818;stroke-width:1.0;" x1="700.5" x2="700.5" y1="590.0645" y2="603.0645"/><line style="stroke:#181818;stroke-width:1.0;" x1="659.5" x2="700.5" y1="603.0645" y2="603.0645"/><polygon fill="#181818" points="669.5,599.0645,659.5,603.0645,669.5,607.0645,665.5,603.0645" style="stroke:#181818;stroke-width:1.0;"/><text fill="#000000" font-family="sans-serif" font-size="13" font-weight="bold" lengthAdjust="spacing" textLength="14" x="665.5" y="584.8018">12</text><text fill="#000000" font-family="sans-serif" font-size="13" lengthAdjust="spacing" textLength="137" x="683.5" y="584.8018">getAgentFromSession()</text><polygon fill="#181818" points="854.5,635.3555,864.5,639.3555,854.5,643.3555,858.5,639.3555" style="stroke:#181818;stroke-width:1.0;"/><line style="stroke:#181818;stroke-width:1.0;" x1="658.5" x2="860.5" y1="639.3555" y2="639.3555"/><text fill="#000000" font-family="sans-serif" font-size="13" font-weight="bold" lengthAdjust="spacing" textLength="14" x="665.5" y="634.0928">13</text><text fill="#000000" font-family="sans-serif" font-size="13" lengthAdjust="spacing" textLength="171" x="683.5" y="634.0928">getAuthenticationRepository()</text><polygon fill="#181818" points="669.5,666.6465,659.5,670.6465,669.5,674.6465,665.5,670.6465" style="stroke:#181818;stroke-width:1.0;"/><line style="stroke:#181818;stroke-width:1.0;stroke-dasharray:2.0,2.0;" x1="663.5" x2="870.5" y1="670.6465" y2="670.6465"/><text fill="#000000" font-family="sans-serif" font-size="13" font-weight="bold" lengthAdjust="spacing" textLength="14" x="675.5" y="665.3838">14</text><text fill="#000000" font-family="sans-serif" font-size="13" lengthAdjust="spacing" textLength="143" x="693.5" y="665.3838">authenticationRepository</text><polygon fill="#181818" points="854.5,697.9375,864.5,701.9375,854.5,705.9375,858.5,701.9375" style="stroke:#181818;stroke-width:1.0;"/><line style="stroke:#181818;stroke-width:1.0;" x1="658.5" x2="860.5" y1="701.9375" y2="701.9375"/><text fill="#000000" font-family="sans-serif" font-size="13" font-weight="bold" lengthAdjust="spacing" textLength="14" x="665.5" y="696.6748">15</text><text fill="#000000" font-family="sans-serif" font-size="13" lengthAdjust="spacing" textLength="119" x="683.5" y="696.6748">getStoreRepository()</text><polygon fill="#181818" points="669.5,729.2285,659.5,733.2285,669.5,737.2285,665.5,733.2285" style="stroke:#181818;stroke-width:1.0;"/><line style="stroke:#181818;stroke-width:1.0;stroke-dasharray:2.0,2.0;" x1="663.5" x2="870.5" y1="733.2285" y2="733.2285"/><text fill="#000000" font-family="sans-serif" font-size="13" font-weight="bold" lengthAdjust="spacing" textLength="14" x="675.5" y="727.9658">16</text><text fill="#000000" font-family="sans-serif" font-size="13" lengthAdjust="spacing" textLength="91" x="693.5" y="727.9658">storeRepository</text><polygon fill="#181818" points="997,760.5195,1007,764.5195,997,768.5195,1001,764.5195" style="stroke:#181818;stroke-width:1.0;"/><line style="stroke:#181818;stroke-width:1.0;" x1="658.5" x2="1003" y1="764.5195" y2="764.5195"/><text fill="#000000" font-family="sans-serif" font-size="13" font-weight="bold" lengthAdjust="spacing" textLength="14" x="665.5" y="759.2568">17</text><text fill="#000000" font-family="sans-serif" font-size="13" lengthAdjust="spacing" textLength="142" x="683.5" y="759.2568">getCurrentUserSession()</text><polygon fill="#181818" points="669.5,791.8105,659.5,795.8105,669.5,799.8105,665.5,795.8105" style="stroke:#181818;stroke-width:1.0;"/><line style="stroke:#181818;stroke-width:1.0;stroke-dasharray:2.0,2.0;" x1="663.5" x2="1013" y1="795.8105" y2="795.8105"/><text fill="#000000" font-family="sans-serif" font-size="13" font-weight="bold" lengthAdjust="spacing" textLength="14" x="675.5" y="790.5479">18</text><text fill="#000000" font-family="sans-serif" font-size="13" lengthAdjust="spacing" textLength="72" x="693.5" y="790.5479">userSession</text><polygon fill="#181818" points="1139.5,823.1016,1149.5,827.1016,1139.5,831.1016,1143.5,827.1016" style="stroke:#181818;stroke-width:1.0;"/><line style="stroke:#181818;stroke-width:1.0;" x1="658.5" x2="1145.5" y1="827.1016" y2="827.1016"/><text fill="#000000" font-family="sans-serif" font-size="13" font-weight="bold" lengthAdjust="spacing" textLength="14" x="665.5" y="821.8389">19</text><text fill="#000000" font-family="sans-serif" font-size="13" lengthAdjust="spacing" textLength="63" x="683.5" y="821.8389">getUserId()</text><polygon fill="#181818" points="669.5,854.3926,659.5,858.3926,669.5,862.3926,665.5,858.3926" style="stroke:#181818;stroke-width:1.0;"/><line style="stroke:#181818;stroke-width:1.0;stroke-dasharray:2.0,2.0;" x1="663.5" x2="1155.5" y1="858.3926" y2="858.3926"/><text fill="#000000" font-family="sans-serif" font-size="13" font-weight="bold" lengthAdjust="spacing" textLength="14" x="675.5" y="853.1299">20</text><text fill="#000000" font-family="sans-serif" font-size="13" lengthAdjust="spacing" textLength="35" x="693.5" y="853.1299">userId</text><polygon fill="#181818" points="1254,885.6836,1264,889.6836,1254,893.6836,1258,889.6836" style="stroke:#181818;stroke-width:1.0;"/><line style="stroke:#181818;stroke-width:1.0;" x1="658.5" x2="1260" y1="889.6836" y2="889.6836"/><text fill="#000000" font-family="sans-serif" font-size="13" font-weight="bold" lengthAdjust="spacing" textLength="14" x="665.5" y="884.4209">21</text><text fill="#000000" font-family="sans-serif" font-size="13" lengthAdjust="spacing" textLength="184" x="683.5" y="884.4209">getAgentDTOFromEmail(userId)</text><polygon fill="#181818" points="669.5,916.9746,659.5,920.9746,669.5,924.9746,665.5,920.9746" style="stroke:#181818;stroke-width:1.0;"/><line style="stroke:#181818;stroke-width:1.0;stroke-dasharray:2.0,2.0;" x1="663.5" x2="1270" y1="920.9746" y2="920.9746"/><text fill="#000000" font-family="sans-serif" font-size="13" font-weight="bold" lengthAdjust="spacing" textLength="14" x="675.5" y="915.7119">22</text><text fill="#000000" font-family="sans-serif" font-size="13" lengthAdjust="spacing" textLength="58" x="693.5" y="915.7119">agentDTO</text><line style="stroke:#181818;stroke-width:1.0;stroke-dasharray:2.0,2.0;" x1="658.5" x2="700.5" y1="957.2656" y2="957.2656"/><line style="stroke:#181818;stroke-width:1.0;stroke-dasharray:2.0,2.0;" x1="700.5" x2="700.5" y1="957.2656" y2="970.2656"/><line style="stroke:#181818;stroke-width:1.0;stroke-dasharray:2.0,2.0;" x1="653.5" x2="700.5" y1="970.2656" y2="970.2656"/><polygon fill="#181818" points="663.5,966.2656,653.5,970.2656,663.5,974.2656,659.5,970.2656" style="stroke:#181818;stroke-width:1.0;"/><text fill="#000000" font-family="sans-serif" font-size="13" font-weight="bold" lengthAdjust="spacing" textLength="14" x="665.5" y="952.0029">23</text><text fill="#000000" font-family="sans-serif" font-size="13" lengthAdjust="spacing" textLength="58" x="683.5" y="952.0029">agentDTO</text><polygon fill="#181818" points="854.5,992.5566,864.5,996.5566,854.5,1000.5566,858.5,996.5566" style="stroke:#181818;stroke-width:1.0;"/><line style="stroke:#181818;stroke-width:1.0;" x1="653.5" x2="860.5" y1="996.5566" y2="996.5566"/><text fill="#000000" font-family="sans-serif" font-size="13" font-weight="bold" lengthAdjust="spacing" textLength="14" x="660.5" y="991.2939">24</text><text fill="#000000" font-family="sans-serif" font-size="13" lengthAdjust="spacing" textLength="169" x="678.5" y="991.2939">getVisitRequestsRepository()</text><polygon fill="#181818" points="664.5,1023.8477,654.5,1027.8477,664.5,1031.8477,660.5,1027.8477" style="stroke:#181818;stroke-width:1.0;"/><line style="stroke:#181818;stroke-width:1.0;stroke-dasharray:2.0,2.0;" x1="658.5" x2="870.5" y1="1027.8477" y2="1027.8477"/><text fill="#000000" font-family="sans-serif" font-size="13" font-weight="bold" lengthAdjust="spacing" textLength="14" x="670.5" y="1022.585">25</text><text fill="#000000" font-family="sans-serif" font-size="13" lengthAdjust="spacing" textLength="132" x="688.5" y="1022.585">visitRequestRepository</text><polygon fill="#181818" points="1402.5,1055.1387,1412.5,1059.1387,1402.5,1063.1387,1406.5,1059.1387" style="stroke:#181818;stroke-width:1.0;"/><line style="stroke:#181818;stroke-width:1.0;" x1="653.5" x2="1408.5" y1="1059.1387" y2="1059.1387"/><text fill="#000000" font-family="sans-serif" font-size="13" font-weight="bold" lengthAdjust="spacing" textLength="14" x="660.5" y="1053.876">26</text><text fill="#000000" font-family="sans-serif" font-size="13" lengthAdjust="spacing" textLength="243" x="678.5" y="1053.876">getVisitRequestListFromAgent(agentDTO)</text><polygon fill="#181818" points="664.5,1086.4297,654.5,1090.4297,664.5,1094.4297,660.5,1090.4297" style="stroke:#181818;stroke-width:1.0;"/><line style="stroke:#181818;stroke-width:1.0;stroke-dasharray:2.0,2.0;" x1="658.5" x2="1418.5" y1="1090.4297" y2="1090.4297"/><text fill="#000000" font-family="sans-serif" font-size="13" font-weight="bold" lengthAdjust="spacing" textLength="14" x="670.5" y="1085.167">27</text><text fill="#000000" font-family="sans-serif" font-size="13" lengthAdjust="spacing" textLength="117" x="688.5" y="1085.167">visitRequestDTOList</text><line style="stroke:#181818;stroke-width:1.0;stroke-dasharray:2.0,2.0;" x1="653.5" x2="695.5" y1="1126.7207" y2="1126.7207"/><line style="stroke:#181818;stroke-width:1.0;stroke-dasharray:2.0,2.0;" x1="695.5" x2="695.5" y1="1126.7207" y2="1139.7207"/><line style="stroke:#181818;stroke-width:1.0;stroke-dasharray:2.0,2.0;" x1="648.5" x2="695.5" y1="1139.7207" y2="1139.7207"/><polygon fill="#181818" points="658.5,1135.7207,648.5,1139.7207,658.5,1143.7207,654.5,1139.7207" style="stroke:#181818;stroke-width:1.0;"/><text fill="#000000" font-family="sans-serif" font-size="13" font-weight="bold" lengthAdjust="spacing" textLength="14" x="660.5" y="1121.458">28</text><text fill="#000000" font-family="sans-serif" font-size="13" lengthAdjust="spacing" textLength="117" x="678.5" y="1121.458">visitRequestDTOList</text><polygon fill="#181818" points="854.5,1162.0117,864.5,1166.0117,854.5,1170.0117,858.5,1166.0117" style="stroke:#181818;stroke-width:1.0;"/><line style="stroke:#181818;stroke-width:1.0;" x1="648.5" x2="860.5" y1="1166.0117" y2="1166.0117"/><text fill="#000000" font-family="sans-serif" font-size="13" font-weight="bold" lengthAdjust="spacing" textLength="14" x="655.5" y="1160.749">29</text><text fill="#000000" font-family="sans-serif" font-size="13" lengthAdjust="spacing" textLength="169" x="673.5" y="1160.749">getVisitRequestsRepository()</text><polygon fill="#181818" points="659.5,1193.3027,649.5,1197.3027,659.5,1201.3027,655.5,1197.3027" style="stroke:#181818;stroke-width:1.0;"/><line style="stroke:#181818;stroke-width:1.0;stroke-dasharray:2.0,2.0;" x1="653.5" x2="870.5" y1="1197.3027" y2="1197.3027"/><text fill="#000000" font-family="sans-serif" font-size="13" font-weight="bold" lengthAdjust="spacing" textLength="14" x="665.5" y="1192.04">30</text><text fill="#000000" font-family="sans-serif" font-size="13" lengthAdjust="spacing" textLength="132" x="683.5" y="1192.04">visitRequestRepository</text><polygon fill="#181818" points="1402.5,1224.5938,1412.5,1228.5938,1402.5,1232.5938,1406.5,1228.5938" style="stroke:#181818;stroke-width:1.0;"/><line style="stroke:#181818;stroke-width:1.0;" x1="648.5" x2="1408.5" y1="1228.5938" y2="1228.5938"/><text fill="#000000" font-family="sans-serif" font-size="13" font-weight="bold" lengthAdjust="spacing" textLength="14" x="655.5" y="1223.3311">31</text><text fill="#000000" font-family="sans-serif" font-size="13" lengthAdjust="spacing" textLength="314" x="673.5" y="1223.3311">filterByDate(visitRequestDTOList, beginDate, endDate)</text><polygon fill="#181818" points="659.5,1255.8848,649.5,1259.8848,659.5,1263.8848,655.5,1259.8848" style="stroke:#181818;stroke-width:1.0;"/><line style="stroke:#181818;stroke-width:1.0;stroke-dasharray:2.0,2.0;" x1="653.5" x2="1418.5" y1="1259.8848" y2="1259.8848"/><text fill="#000000" font-family="sans-serif" font-size="13" font-weight="bold" lengthAdjust="spacing" textLength="14" x="665.5" y="1254.6221">32</text><text fill="#000000" font-family="sans-serif" font-size="13" lengthAdjust="spacing" textLength="119" x="683.5" y="1254.6221">filteredVisitRequests</text><line style="stroke:#181818;stroke-width:1.0;" x1="648.5" x2="695.5" y1="1286.1758" y2="1286.1758"/><line style="stroke:#181818;stroke-width:1.0;" x1="695.5" x2="695.5" y1="1286.1758" y2="1299.1758"/><line style="stroke:#181818;stroke-width:1.0;" x1="654.5" x2="695.5" y1="1299.1758" y2="1299.1758"/><polygon fill="#181818" points="664.5,1295.1758,654.5,1299.1758,664.5,1303.1758,660.5,1299.1758" style="stroke:#181818;stroke-width:1.0;"/><text fill="#000000" font-family="sans-serif" font-size="13" font-weight="bold" lengthAdjust="spacing" textLength="14" x="660.5" y="1280.9131">33</text><text fill="#000000" font-family="sans-serif" font-size="13" lengthAdjust="spacing" textLength="170" x="678.5" y="1280.9131">sortList(filteredVisitRequests)</text><polygon fill="#181818" points="1513,1331.4668,1523,1335.4668,1513,1339.4668,1517,1335.4668" style="stroke:#181818;stroke-width:1.0;"/><line style="stroke:#181818;stroke-width:1.0;" x1="653.5" x2="1519" y1="1335.4668" y2="1335.4668"/><text fill="#000000" font-family="sans-serif" font-size="13" font-weight="bold" lengthAdjust="spacing" textLength="14" x="660.5" y="1330.2041">34</text><text fill="#000000" font-family="sans-serif" font-size="13" lengthAdjust="spacing" textLength="190" x="678.5" y="1330.2041">ReadProperties("Sort.Algorithm")</text><polygon fill="#181818" points="664.5,1362.7578,654.5,1366.7578,664.5,1370.7578,660.5,1366.7578" style="stroke:#181818;stroke-width:1.0;"/><line style="stroke:#181818;stroke-width:1.0;stroke-dasharray:2.0,2.0;" x1="658.5" x2="1529" y1="1366.7578" y2="1366.7578"/><text fill="#000000" font-family="sans-serif" font-size="13" font-weight="bold" lengthAdjust="spacing" textLength="14" x="670.5" y="1361.4951">35</text><text fill="#000000" font-family="sans-serif" font-size="13" lengthAdjust="spacing" textLength="77" x="688.5" y="1361.4951">sortAlgorithm</text><path d="M530,1381.7578 L591,1381.7578 L591,1391.0488 L581,1401.0488 L530,1401.0488 L530,1381.7578 " fill="#EEEEEE" style="stroke:#000000;stroke-width:1.5;"/><rect fill="none" height="158.5039" style="stroke:#000000;stroke-width:1.5;" width="1120" x="530" y="1381.7578"/><text fill="#000000" font-family="sans-serif" font-size="13" font-weight="bold" lengthAdjust="spacing" textLength="16" x="545" y="1396.7861">alt</text><text fill="#000000" font-family="sans-serif" font-size="11" font-weight="bold" lengthAdjust="spacing" textLength="140" x="606" y="1395.6279">[sortAlgorithm is Bubble]</text><polygon fill="#181818" points="1583,1420.3398,1593,1424.3398,1583,1428.3398,1587,1424.3398" style="stroke:#181818;stroke-width:1.0;"/><line style="stroke:#181818;stroke-width:1.0;" x1="653.5" x2="1589" y1="1424.3398" y2="1424.3398"/><text fill="#000000" font-family="sans-serif" font-size="13" font-weight="bold" lengthAdjust="spacing" textLength="14" x="660.5" y="1419.0771">36</text><text fill="#000000" font-family="sans-serif" font-size="13" lengthAdjust="spacing" textLength="189" x="678.5" y="1419.0771">bubbleSort(filteredVisitRequests)</text><line style="stroke:#000000;stroke-width:1.0;stroke-dasharray:2.0,2.0;" x1="530" x2="1650" y1="1463.3398" y2="1463.3398"/><text fill="#000000" font-family="sans-serif" font-size="11" font-weight="bold" lengthAdjust="spacing" textLength="138" x="535" y="1475.21">[sortAlgorithm is Merge]</text><polygon fill="#181818" points="1583,1498.2617,1593,1502.2617,1583,1506.2617,1587,1502.2617" style="stroke:#181818;stroke-width:1.0;"/><line style="stroke:#181818;stroke-width:1.0;" x1="653.5" x2="1589" y1="1502.2617" y2="1502.2617"/><text fill="#000000" font-family="sans-serif" font-size="13" font-weight="bold" lengthAdjust="spacing" textLength="14" x="660.5" y="1496.999">37</text><text fill="#000000" font-family="sans-serif" font-size="13" lengthAdjust="spacing" textLength="187" x="678.5" y="1496.999">mergeSort(filteredVisitRequests)</text><polygon fill="#181818" points="391.5,1566.5527,381.5,1570.5527,391.5,1574.5527,387.5,1570.5527" style="stroke:#181818;stroke-width:1.0;"/><line style="stroke:#181818;stroke-width:1.0;stroke-dasharray:2.0,2.0;" x1="385.5" x2="642.5" y1="1570.5527" y2="1570.5527"/><text fill="#000000" font-family="sans-serif" font-size="13" font-weight="bold" lengthAdjust="spacing" textLength="14" x="397.5" y="1565.29">38</text><text fill="#000000" font-family="sans-serif" font-size="13" lengthAdjust="spacing" textLength="77" x="415.5" y="1565.29">visitRequests</text><path d="M302,1585.5527 L363,1585.5527 L363,1594.8438 L353,1604.8438 L302,1604.8438 L302,1585.5527 " fill="#EEEEEE" style="stroke:#000000;stroke-width:1.5;"/><rect fill="none" height="141.5039" style="stroke:#000000;stroke-width:1.5;" width="1258" x="302" y="1585.5527"/><text fill="#000000" font-family="sans-serif" font-size="13" font-weight="bold" lengthAdjust="spacing" textLength="16" x="317" y="1600.5811">alt</text><text fill="#000000" font-family="sans-serif" font-size="11" font-weight="bold" lengthAdjust="spacing" textLength="135" x="378" y="1599.4229">[visitRequests is empty]</text><line style="stroke:#181818;stroke-width:1.0;" x1="380.5" x2="422.5" y1="1628.1348" y2="1628.1348"/><line style="stroke:#181818;stroke-width:1.0;" x1="422.5" x2="422.5" y1="1628.1348" y2="1641.1348"/><line style="stroke:#181818;stroke-width:1.0;" x1="381.5" x2="422.5" y1="1641.1348" y2="1641.1348"/><polygon fill="#181818" points="391.5,1637.1348,381.5,1641.1348,391.5,1645.1348,387.5,1641.1348" style="stroke:#181818;stroke-width:1.0;"/><text fill="#000000" font-family="sans-serif" font-size="13" font-weight="bold" lengthAdjust="spacing" textLength="14" x="387.5" y="1622.8721">39</text><text fill="#000000" font-family="sans-serif" font-size="13" lengthAdjust="spacing" textLength="188" x="405.5" y="1622.8721">showNoVisitRequestsMessage()</text><line style="stroke:#000000;stroke-width:1.0;stroke-dasharray:2.0,2.0;" x1="302" x2="1560" y1="1650.1348" y2="1650.1348"/><text fill="#000000" font-family="sans-serif" font-size="11" font-weight="bold" lengthAdjust="spacing" textLength="156" x="307" y="1662.0049">[visitRequests is not empty]</text><polygon fill="#181818" points="1513,1685.0566,1523,1689.0566,1513,1693.0566,1517,1689.0566" style="stroke:#181818;stroke-width:1.0;"/><line style="stroke:#181818;stroke-width:1.0;" x1="380.5" x2="1519" y1="1689.0566" y2="1689.0566"/><text fill="#000000" font-family="sans-serif" font-size="13" font-weight="bold" lengthAdjust="spacing" textLength="14" x="387.5" y="1683.7939">40</text><text fill="#000000" font-family="sans-serif" font-size="13" lengthAdjust="spacing" textLength="285" x="405.5" y="1683.7939">showVisitRequestsLists(visitRequests, message)</text><polygon fill="#181818" points="42.5,1753.3477,32.5,1757.3477,42.5,1761.3477,38.5,1757.3477" style="stroke:#181818;stroke-width:1.0;"/><line style="stroke:#181818;stroke-width:1.0;stroke-dasharray:2.0,2.0;" x1="36.5" x2="369.5" y1="1757.3477" y2="1757.3477"/><text fill="#000000" font-family="sans-serif" font-size="13" font-weight="bold" lengthAdjust="spacing" textLength="14" x="48.5" y="1752.085">41</text><text fill="#000000" font-family="sans-serif" font-size="13" lengthAdjust="spacing" textLength="297" x="66.5" y="1752.085">provides list of booking requests for the given period</text><!--SRC=[pLR9Rjim4BthAuXSgWPnqXvw2O80MLh0GDCMSTmxBOrb8fIeafG3_trdI4acjIHjJ_L95j-RDvnLxtRMrkRougAMlB9DASypLLuO-DL0bS4Y5xpGl4mIAwm4jbvz-FY9BTXNOIpRAFKige9f0XjhaeGtLbLDkG6DpvbLcjqKK5d63UD5KdDjHIPgr746VWeZxACdhvS4QaG4UeIzW9SGPkvKPRMI4ZJXCwlbW54hH2ijm110q_y8STFO7ReaCcw5gdhymVc8P_Gc8gmDw1KOWsZdul5l15kX4OZD6Jsq5LubnewWQokakq933_4LP84NjBlIdNDP92xQOiyjK9nvmHRN64jsYUVFXbd59EMBIpdEMK_4s2Eb8xRdztXYqlSHoi4GXpAjm1OJlO52L2n737bJE8IpL6kr5pcc8q1CMe0gzwUJxFwqvQ8ZESmuZpY-f5BP2br2Fl1_YaQ5T7gArAkhJ0CUNLydz3kUuba1KScQrDs8GdH6xj53eEHgqp4Z2p-qga7RmufBe2RuebNfcYHzc-jmH6WBS9RYohxbpDHxoFLTuacBeoAVeOOHzDG9tK4__86SYHdpAbsRUg6xHclqCcZJKAjlwPuKA8Qz7AZrd4umm7bD4bl6THMO2k43jMKUbLz0whJSq0ZIVV_qdJB-kUH2fjv48Ej7ZEU4cMkPePY7UfdNaNEb51N_NwLsFpdtNg-ZiMRSBftd0_La68jG6-5aP2WyYieRdFycG5iXBUZR0usUTCBfC_RgY9gCbxS9UNIPcOWTUrTfbvvqaZqtfjngG_OZyBoTYxYtqvCLMZlljzn9s6Pk6NhU8fRlyL67EJoNDeOmOTXjizb8E0uLISjeurwI_fiteRqR3Wty2zB0MEW1T37KAUdTFylWAiGh9JCbsMt1_Lm27PPY4Y78LIXhUmWtgTcfbsygykq11nRs7XQrk-x8HgLiRATDCfcA356zcAXgpHa6nbaVfNoKqou8uQT4_x7WFdVKTlIruxupSAcnGkoXObXmGkLkqVy6]--></g></svg>