<?xml version="1.0" encoding="us-ascii" standalone="no"?><svg xmlns="http://www.w3.org/2000/svg" xmlns:xlink="http://www.w3.org/1999/xlink" contentStyleType="text/css" height="577px" preserveAspectRatio="none" style="width:1694px;height:577px;background:#FFFFFF;" version="1.1" viewBox="0 0 1694 577" width="1694px" zoomAndPan="magnify"><defs/><g><text fill="#000000" font-family="sans-serif" font-size="14" font-weight="bold" lengthAdjust="spacing" textLength="182" x="749.25" y="25.1074">US015 - List visit requests</text><!--class Algorithms--><g id="elem_Algorithms"><rect codeLine="6" fill="#F1F1F1" height="103.8633" id="Algorithms" rx="2.5" ry="2.5" style="stroke:#181818;stroke-width:0.5;" width="329" x="7" y="312.6211"/><ellipse cx="134.25" cy="328.6211" fill="#ADD1B2" rx="11" ry="11" style="stroke:#181818;stroke-width:1.0;"/><path d="M137.0156,324.4961 Q137.1719,324.2773 137.3594,324.168 Q137.5469,324.0586 137.7656,324.0586 Q138.1406,324.0586 138.375,324.3242 Q138.6094,324.5742 138.6094,325.1836 L138.6094,326.6367 Q138.6094,327.2461 138.375,327.5117 Q138.1406,327.7773 137.7656,327.7773 Q137.4219,327.7773 137.2188,327.5742 Q137.0156,327.3867 136.9063,326.8711 Q136.8594,326.5117 136.6719,326.3242 Q136.3438,325.9492 135.7344,325.7305 Q135.125,325.5117 134.5,325.5117 Q133.7344,325.5117 133.0938,325.8398 Q132.4688,326.168 131.9688,326.918 Q131.4844,327.668 131.4844,328.6992 L131.4844,329.793 Q131.4844,331.0273 132.375,331.8555 Q133.2656,332.668 134.8594,332.668 Q135.7969,332.668 136.4531,332.418 Q136.8438,332.2617 137.2656,331.8242 Q137.5313,331.5586 137.6719,331.4805 Q137.8281,331.4023 138.0313,331.4023 Q138.3594,331.4023 138.6094,331.668 Q138.875,331.918 138.875,332.2617 Q138.875,332.6055 138.5313,333.0117 Q138.0313,333.5898 137.2344,333.918 Q136.1563,334.3711 134.8594,334.3711 Q133.3438,334.3711 132.1406,333.7461 Q131.1563,333.2461 130.4688,332.1836 Q129.7813,331.1055 129.7813,329.8242 L129.7813,328.668 Q129.7813,327.3398 130.3906,326.1992 Q131.0156,325.043 132.1094,324.4336 Q133.2031,323.8086 134.4375,323.8086 Q135.1719,323.8086 135.8125,323.9805 Q136.4688,324.1367 137.0156,324.4961 Z " fill="#000000"/><text fill="#000000" font-family="sans-serif" font-size="14" lengthAdjust="spacing" textLength="66" x="154.75" y="334.418">Algorithms</text><line style="stroke:#181818;stroke-width:0.5;" x1="8" x2="335" y1="344.6211" y2="344.6211"/><line style="stroke:#181818;stroke-width:0.5;" x1="8" x2="335" y1="352.6211" y2="352.6211"/><ellipse cx="18" cy="367.4316" fill="#84BE84" rx="3" ry="3" style="stroke:#038048;stroke-width:1.0;"/><text fill="#000000" font-family="sans-serif" font-size="14" lengthAdjust="spacing" textLength="303" x="27" y="371.7285">mergeSort(List&lt;VisitRequestDTO&gt;, int, int): void</text><ellipse cx="18" cy="386.0527" fill="#84BE84" rx="3" ry="3" style="stroke:#038048;stroke-width:1.0;"/><text fill="#000000" font-family="sans-serif" font-size="14" lengthAdjust="spacing" textLength="260" x="27" y="390.3496">bubbleSort(List&lt;VisitRequestDTO&gt;): void</text><rect fill="#F24D5C" height="6" style="stroke:#C82930;stroke-width:1.0;" width="6" x="15" y="401.6738"/><text fill="#000000" font-family="sans-serif" font-size="14" lengthAdjust="spacing" textLength="284" x="27" y="408.9707">sort(List&lt;VisitRequestDTO&gt;, int, int, int): void</text></g><!--class AuthenticationRepository--><g id="elem_AuthenticationRepository"><rect codeLine="11" fill="#F1F1F1" height="66.6211" id="AuthenticationRepository" rx="2.5" ry="2.5" style="stroke:#181818;stroke-width:0.5;" width="270" x="287.5" y="494.6211"/><ellipse cx="339.25" cy="510.6211" fill="#ADD1B2" rx="11" ry="11" style="stroke:#181818;stroke-width:1.0;"/><path d="M342.0156,506.4961 Q342.1719,506.2773 342.3594,506.168 Q342.5469,506.0586 342.7656,506.0586 Q343.1406,506.0586 343.375,506.3242 Q343.6094,506.5742 343.6094,507.1836 L343.6094,508.6367 Q343.6094,509.2461 343.375,509.5117 Q343.1406,509.7773 342.7656,509.7773 Q342.4219,509.7773 342.2188,509.5742 Q342.0156,509.3867 341.9063,508.8711 Q341.8594,508.5117 341.6719,508.3242 Q341.3438,507.9492 340.7344,507.7305 Q340.125,507.5117 339.5,507.5117 Q338.7344,507.5117 338.0938,507.8398 Q337.4688,508.168 336.9688,508.918 Q336.4844,509.668 336.4844,510.6992 L336.4844,511.793 Q336.4844,513.0273 337.375,513.8555 Q338.2656,514.668 339.8594,514.668 Q340.7969,514.668 341.4531,514.418 Q341.8438,514.2617 342.2656,513.8242 Q342.5313,513.5586 342.6719,513.4805 Q342.8281,513.4023 343.0313,513.4023 Q343.3594,513.4023 343.6094,513.668 Q343.875,513.918 343.875,514.2617 Q343.875,514.6055 343.5313,515.0117 Q343.0313,515.5898 342.2344,515.918 Q341.1563,516.3711 339.8594,516.3711 Q338.3438,516.3711 337.1406,515.7461 Q336.1563,515.2461 335.4688,514.1836 Q334.7813,513.1055 334.7813,511.8242 L334.7813,510.668 Q334.7813,509.3398 335.3906,508.1992 Q336.0156,507.043 337.1094,506.4336 Q338.2031,505.8086 339.4375,505.8086 Q340.1719,505.8086 340.8125,505.9805 Q341.4688,506.1367 342.0156,506.4961 Z " fill="#000000"/><text fill="#000000" font-family="sans-serif" font-size="14" lengthAdjust="spacing" textLength="158" x="359.75" y="516.418">AuthenticationRepository</text><line style="stroke:#181818;stroke-width:0.5;" x1="288.5" x2="556.5" y1="526.6211" y2="526.6211"/><line style="stroke:#181818;stroke-width:0.5;" x1="288.5" x2="556.5" y1="534.6211" y2="534.6211"/><ellipse cx="298.5" cy="549.4316" fill="#84BE84" rx="3" ry="3" style="stroke:#038048;stroke-width:1.0;"/><text fill="#000000" font-family="sans-serif" font-size="14" lengthAdjust="spacing" textLength="244" x="307.5" y="553.7285">getCurrentUserSession(): UserSession</text></g><!--class ListVisitRequestsUI--><g id="elem_ListVisitRequestsUI"><rect codeLine="15" fill="#F1F1F1" height="122.4844" id="ListVisitRequestsUI" rx="2.5" ry="2.5" style="stroke:#181818;stroke-width:0.5;" width="198" x="371.5" y="303.6211"/><ellipse cx="407.2" cy="319.6211" fill="#ADD1B2" rx="11" ry="11" style="stroke:#181818;stroke-width:1.0;"/><path d="M409.9656,315.4961 Q410.1219,315.2773 410.3094,315.168 Q410.4969,315.0586 410.7156,315.0586 Q411.0906,315.0586 411.325,315.3242 Q411.5594,315.5742 411.5594,316.1836 L411.5594,317.6367 Q411.5594,318.2461 411.325,318.5117 Q411.0906,318.7773 410.7156,318.7773 Q410.3719,318.7773 410.1688,318.5742 Q409.9656,318.3867 409.8563,317.8711 Q409.8094,317.5117 409.6219,317.3242 Q409.2938,316.9492 408.6844,316.7305 Q408.075,316.5117 407.45,316.5117 Q406.6844,316.5117 406.0438,316.8398 Q405.4188,317.168 404.9188,317.918 Q404.4344,318.668 404.4344,319.6992 L404.4344,320.793 Q404.4344,322.0273 405.325,322.8555 Q406.2156,323.668 407.8094,323.668 Q408.7469,323.668 409.4031,323.418 Q409.7938,323.2617 410.2156,322.8242 Q410.4813,322.5586 410.6219,322.4805 Q410.7781,322.4023 410.9813,322.4023 Q411.3094,322.4023 411.5594,322.668 Q411.825,322.918 411.825,323.2617 Q411.825,323.6055 411.4813,324.0117 Q410.9813,324.5898 410.1844,324.918 Q409.1063,325.3711 407.8094,325.3711 Q406.2938,325.3711 405.0906,324.7461 Q404.1063,324.2461 403.4188,323.1836 Q402.7313,322.1055 402.7313,320.8242 L402.7313,319.668 Q402.7313,318.3398 403.3406,317.1992 Q403.9656,316.043 405.0594,315.4336 Q406.1531,314.8086 407.3875,314.8086 Q408.1219,314.8086 408.7625,314.9805 Q409.4188,315.1367 409.9656,315.4961 Z " fill="#000000"/><text fill="#000000" font-family="sans-serif" font-size="14" lengthAdjust="spacing" textLength="120" x="425.8" y="325.418">ListVisitRequestsUI</text><line style="stroke:#181818;stroke-width:0.5;" x1="372.5" x2="568.5" y1="335.6211" y2="335.6211"/><rect fill="none" height="6" style="stroke:#C82930;stroke-width:1.0;" width="6" x="379.5" y="347.4316"/><text fill="#000000" font-family="sans-serif" font-size="14" lengthAdjust="spacing" textLength="137" x="391.5" y="354.7285">beginDate: LocalDate</text><rect fill="none" height="6" style="stroke:#C82930;stroke-width:1.0;" width="6" x="379.5" y="366.0527"/><text fill="#000000" font-family="sans-serif" font-size="14" lengthAdjust="spacing" textLength="126" x="391.5" y="373.3496">endDate: LocalDate</text><line style="stroke:#181818;stroke-width:0.5;" x1="372.5" x2="568.5" y1="380.8633" y2="380.8633"/><rect fill="#F24D5C" height="6" style="stroke:#C82930;stroke-width:1.0;" width="6" x="379.5" y="392.6738"/><text fill="#000000" font-family="sans-serif" font-size="14" lengthAdjust="spacing" textLength="129" x="391.5" y="399.9707">requestDates(): void</text><rect fill="#F24D5C" height="6" style="stroke:#C82930;stroke-width:1.0;" width="6" x="379.5" y="411.2949"/><text fill="#000000" font-family="sans-serif" font-size="14" lengthAdjust="spacing" textLength="172" x="391.5" y="418.5918">dataIsConfirmed(): boolean</text></g><!--class Repositories--><g id="elem_Repositories"><rect codeLine="22" fill="#F1F1F1" height="103.8633" id="Repositories" rx="2.5" ry="2.5" style="stroke:#181818;stroke-width:0.5;" width="380" x="604.5" y="312.6211"/><ellipse cx="750.75" cy="328.6211" fill="#ADD1B2" rx="11" ry="11" style="stroke:#181818;stroke-width:1.0;"/><path d="M753.5156,324.4961 Q753.6719,324.2773 753.8594,324.168 Q754.0469,324.0586 754.2656,324.0586 Q754.6406,324.0586 754.875,324.3242 Q755.1094,324.5742 755.1094,325.1836 L755.1094,326.6367 Q755.1094,327.2461 754.875,327.5117 Q754.6406,327.7773 754.2656,327.7773 Q753.9219,327.7773 753.7188,327.5742 Q753.5156,327.3867 753.4063,326.8711 Q753.3594,326.5117 753.1719,326.3242 Q752.8438,325.9492 752.2344,325.7305 Q751.625,325.5117 751,325.5117 Q750.2344,325.5117 749.5938,325.8398 Q748.9688,326.168 748.4688,326.918 Q747.9844,327.668 747.9844,328.6992 L747.9844,329.793 Q747.9844,331.0273 748.875,331.8555 Q749.7656,332.668 751.3594,332.668 Q752.2969,332.668 752.9531,332.418 Q753.3438,332.2617 753.7656,331.8242 Q754.0313,331.5586 754.1719,331.4805 Q754.3281,331.4023 754.5313,331.4023 Q754.8594,331.4023 755.1094,331.668 Q755.375,331.918 755.375,332.2617 Q755.375,332.6055 755.0313,333.0117 Q754.5313,333.5898 753.7344,333.918 Q752.6563,334.3711 751.3594,334.3711 Q749.8438,334.3711 748.6406,333.7461 Q747.6563,333.2461 746.9688,332.1836 Q746.2813,331.1055 746.2813,329.8242 L746.2813,328.668 Q746.2813,327.3398 746.8906,326.1992 Q747.5156,325.043 748.6094,324.4336 Q749.7031,323.8086 750.9375,323.8086 Q751.6719,323.8086 752.3125,323.9805 Q752.9688,324.1367 753.5156,324.4961 Z " fill="#000000"/><text fill="#000000" font-family="sans-serif" font-size="14" lengthAdjust="spacing" textLength="79" x="771.25" y="334.418">Repositories</text><line style="stroke:#181818;stroke-width:0.5;" x1="605.5" x2="983.5" y1="344.6211" y2="344.6211"/><line style="stroke:#181818;stroke-width:0.5;" x1="605.5" x2="983.5" y1="352.6211" y2="352.6211"/><ellipse cx="615.5" cy="367.4316" fill="#84BE84" rx="3" ry="3" style="stroke:#038048;stroke-width:1.0;"/><text fill="#000000" font-family="sans-serif" font-size="14" lengthAdjust="spacing" textLength="332" x="624.5" y="371.7285">getVisitRequestRepository(): VisitRequestRepository</text><ellipse cx="615.5" cy="386.0527" fill="#84BE84" rx="3" ry="3" style="stroke:#038048;stroke-width:1.0;"/><text fill="#000000" font-family="sans-serif" font-size="14" lengthAdjust="spacing" textLength="354" x="624.5" y="390.3496">getAuthenticationRepository(): AuthenticationRepository</text><ellipse cx="615.5" cy="404.6738" fill="#84BE84" rx="3" ry="3" style="stroke:#038048;stroke-width:1.0;"/><text fill="#000000" font-family="sans-serif" font-size="14" lengthAdjust="spacing" textLength="242" x="624.5" y="408.9707">getStoreRepository(): StoreRepository</text></g><!--class ReviewVisitRequestsController--><g id="elem_ReviewVisitRequestsController"><rect codeLine="28" fill="#F1F1F1" height="196.9688" id="ReviewVisitRequestsController" rx="2.5" ry="2.5" style="stroke:#181818;stroke-width:0.5;" width="539" x="525" y="46.6211"/><ellipse cx="693.75" cy="62.6211" fill="#ADD1B2" rx="11" ry="11" style="stroke:#181818;stroke-width:1.0;"/><path d="M696.5156,58.4961 Q696.6719,58.2773 696.8594,58.168 Q697.0469,58.0586 697.2656,58.0586 Q697.6406,58.0586 697.875,58.3242 Q698.1094,58.5742 698.1094,59.1836 L698.1094,60.6367 Q698.1094,61.2461 697.875,61.5117 Q697.6406,61.7773 697.2656,61.7773 Q696.9219,61.7773 696.7188,61.5742 Q696.5156,61.3867 696.4063,60.8711 Q696.3594,60.5117 696.1719,60.3242 Q695.8438,59.9492 695.2344,59.7305 Q694.625,59.5117 694,59.5117 Q693.2344,59.5117 692.5938,59.8398 Q691.9688,60.168 691.4688,60.918 Q690.9844,61.668 690.9844,62.6992 L690.9844,63.793 Q690.9844,65.0273 691.875,65.8555 Q692.7656,66.668 694.3594,66.668 Q695.2969,66.668 695.9531,66.418 Q696.3438,66.2617 696.7656,65.8242 Q697.0313,65.5586 697.1719,65.4805 Q697.3281,65.4023 697.5313,65.4023 Q697.8594,65.4023 698.1094,65.668 Q698.375,65.918 698.375,66.2617 Q698.375,66.6055 698.0313,67.0117 Q697.5313,67.5898 696.7344,67.918 Q695.6563,68.3711 694.3594,68.3711 Q692.8438,68.3711 691.6406,67.7461 Q690.6563,67.2461 689.9688,66.1836 Q689.2813,65.1055 689.2813,63.8242 L689.2813,62.668 Q689.2813,61.3398 689.8906,60.1992 Q690.5156,59.043 691.6094,58.4336 Q692.7031,57.8086 693.9375,57.8086 Q694.6719,57.8086 695.3125,57.9805 Q695.9688,58.1367 696.5156,58.4961 Z " fill="#000000"/><text fill="#000000" font-family="sans-serif" font-size="14" lengthAdjust="spacing" textLength="193" x="714.25" y="68.418">ReviewVisitRequestsController</text><line style="stroke:#181818;stroke-width:0.5;" x1="526" x2="1063" y1="78.6211" y2="78.6211"/><rect fill="none" height="6" style="stroke:#C82930;stroke-width:1.0;" width="6" x="533" y="90.4316"/><text fill="#000000" font-family="sans-serif" font-size="14" lengthAdjust="spacing" textLength="94" x="545" y="97.7285">startTime: long</text><rect fill="none" height="6" style="stroke:#C82930;stroke-width:1.0;" width="6" x="533" y="109.0527"/><text fill="#000000" font-family="sans-serif" font-size="14" lengthAdjust="spacing" textLength="90" x="545" y="116.3496">endTime: long</text><rect fill="none" height="6" style="stroke:#C82930;stroke-width:1.0;" width="6" x="533" y="127.6738"/><text fill="#000000" font-family="sans-serif" font-size="14" lengthAdjust="spacing" textLength="161" x="545" y="134.9707">repositories: Repositories</text><line style="stroke:#181818;stroke-width:0.5;" x1="526" x2="1063" y1="142.4844" y2="142.4844"/><ellipse cx="536" cy="157.2949" fill="#84BE84" rx="3" ry="3" style="stroke:#038048;stroke-width:1.0;"/><text fill="#000000" font-family="sans-serif" font-size="14" lengthAdjust="spacing" textLength="268" x="545" y="161.5918">getVisitRequestByAgentAsString(): String[]</text><rect fill="#F24D5C" height="6" style="stroke:#C82930;stroke-width:1.0;" width="6" x="533" y="172.916"/><text fill="#000000" font-family="sans-serif" font-size="14" lengthAdjust="spacing" textLength="237" x="545" y="180.2129">sortList(List&lt;VisitRequestDTO&gt;): void</text><ellipse cx="536" cy="194.5371" fill="#84BE84" rx="3" ry="3" style="stroke:#038048;stroke-width:1.0;"/><text fill="#000000" font-family="sans-serif" font-size="14" lengthAdjust="spacing" textLength="407" x="545" y="198.834">getVisitRequests(LocalDate, LocalDate): List&lt;VisitRequestDTO&gt;</text><ellipse cx="536" cy="213.1582" fill="#84BE84" rx="3" ry="3" style="stroke:#038048;stroke-width:1.0;"/><text fill="#000000" font-family="sans-serif" font-size="14" lengthAdjust="spacing" textLength="513" x="545" y="217.4551">getPropertySaleRequestListFromAgent(): ErrorOptional&lt;List&lt;VisitRequestDTO&gt;&gt;</text><rect fill="#F24D5C" height="6" style="stroke:#C82930;stroke-width:1.0;" width="6" x="533" y="228.7793"/><text fill="#000000" font-family="sans-serif" font-size="14" lengthAdjust="spacing" textLength="326" x="545" y="236.0762">getAgentFromSession(): ErrorOptional&lt;AgentDTO&gt;</text></g><!--class StoreRepository--><g id="elem_StoreRepository"><rect codeLine="39" fill="#F1F1F1" height="66.6211" id="StoreRepository" rx="2.5" ry="2.5" style="stroke:#181818;stroke-width:0.5;" width="403" x="593" y="494.6211"/><ellipse cx="739.25" cy="510.6211" fill="#ADD1B2" rx="11" ry="11" style="stroke:#181818;stroke-width:1.0;"/><path d="M742.0156,506.4961 Q742.1719,506.2773 742.3594,506.168 Q742.5469,506.0586 742.7656,506.0586 Q743.1406,506.0586 743.375,506.3242 Q743.6094,506.5742 743.6094,507.1836 L743.6094,508.6367 Q743.6094,509.2461 743.375,509.5117 Q743.1406,509.7773 742.7656,509.7773 Q742.4219,509.7773 742.2188,509.5742 Q742.0156,509.3867 741.9063,508.8711 Q741.8594,508.5117 741.6719,508.3242 Q741.3438,507.9492 740.7344,507.7305 Q740.125,507.5117 739.5,507.5117 Q738.7344,507.5117 738.0938,507.8398 Q737.4688,508.168 736.9688,508.918 Q736.4844,509.668 736.4844,510.6992 L736.4844,511.793 Q736.4844,513.0273 737.375,513.8555 Q738.2656,514.668 739.8594,514.668 Q740.7969,514.668 741.4531,514.418 Q741.8438,514.2617 742.2656,513.8242 Q742.5313,513.5586 742.6719,513.4805 Q742.8281,513.4023 743.0313,513.4023 Q743.3594,513.4023 743.6094,513.668 Q743.875,513.918 743.875,514.2617 Q743.875,514.6055 743.5313,515.0117 Q743.0313,515.5898 742.2344,515.918 Q741.1563,516.3711 739.8594,516.3711 Q738.3438,516.3711 737.1406,515.7461 Q736.1563,515.2461 735.4688,514.1836 Q734.7813,513.1055 734.7813,511.8242 L734.7813,510.668 Q734.7813,509.3398 735.3906,508.1992 Q736.0156,507.043 737.1094,506.4336 Q738.2031,505.8086 739.4375,505.8086 Q740.1719,505.8086 740.8125,505.9805 Q741.4688,506.1367 742.0156,506.4961 Z " fill="#000000"/><text fill="#000000" font-family="sans-serif" font-size="14" lengthAdjust="spacing" textLength="102" x="759.75" y="516.418">StoreRepository</text><line style="stroke:#181818;stroke-width:0.5;" x1="594" x2="995" y1="526.6211" y2="526.6211"/><line style="stroke:#181818;stroke-width:0.5;" x1="594" x2="995" y1="534.6211" y2="534.6211"/><ellipse cx="604" cy="549.4316" fill="#84BE84" rx="3" ry="3" style="stroke:#038048;stroke-width:1.0;"/><text fill="#000000" font-family="sans-serif" font-size="14" lengthAdjust="spacing" textLength="377" x="613" y="553.7285">getAgentDTOFromEmail(String): ErrorOptional&lt;AgentDTO&gt;</text></g><!--class UserSession--><g id="elem_UserSession"><rect codeLine="43" fill="#F1F1F1" height="66.6211" id="UserSession" rx="2.5" ry="2.5" style="stroke:#181818;stroke-width:0.5;" width="138" x="1019.5" y="331.1211"/><ellipse cx="1046.65" cy="347.1211" fill="#ADD1B2" rx="11" ry="11" style="stroke:#181818;stroke-width:1.0;"/><path d="M1049.4156,342.9961 Q1049.5719,342.7773 1049.7594,342.668 Q1049.9469,342.5586 1050.1656,342.5586 Q1050.5406,342.5586 1050.775,342.8242 Q1051.0094,343.0742 1051.0094,343.6836 L1051.0094,345.1367 Q1051.0094,345.7461 1050.775,346.0117 Q1050.5406,346.2773 1050.1656,346.2773 Q1049.8219,346.2773 1049.6188,346.0742 Q1049.4156,345.8867 1049.3063,345.3711 Q1049.2594,345.0117 1049.0719,344.8242 Q1048.7438,344.4492 1048.1344,344.2305 Q1047.525,344.0117 1046.9,344.0117 Q1046.1344,344.0117 1045.4938,344.3398 Q1044.8688,344.668 1044.3688,345.418 Q1043.8844,346.168 1043.8844,347.1992 L1043.8844,348.293 Q1043.8844,349.5273 1044.775,350.3555 Q1045.6656,351.168 1047.2594,351.168 Q1048.1969,351.168 1048.8531,350.918 Q1049.2438,350.7617 1049.6656,350.3242 Q1049.9313,350.0586 1050.0719,349.9805 Q1050.2281,349.9023 1050.4313,349.9023 Q1050.7594,349.9023 1051.0094,350.168 Q1051.275,350.418 1051.275,350.7617 Q1051.275,351.1055 1050.9313,351.5117 Q1050.4313,352.0898 1049.6344,352.418 Q1048.5563,352.8711 1047.2594,352.8711 Q1045.7438,352.8711 1044.5406,352.2461 Q1043.5563,351.7461 1042.8688,350.6836 Q1042.1813,349.6055 1042.1813,348.3242 L1042.1813,347.168 Q1042.1813,345.8398 1042.7906,344.6992 Q1043.4156,343.543 1044.5094,342.9336 Q1045.6031,342.3086 1046.8375,342.3086 Q1047.5719,342.3086 1048.2125,342.4805 Q1048.8688,342.6367 1049.4156,342.9961 Z " fill="#000000"/><text fill="#000000" font-family="sans-serif" font-size="14" lengthAdjust="spacing" textLength="79" x="1063.35" y="352.918">UserSession</text><line style="stroke:#181818;stroke-width:0.5;" x1="1020.5" x2="1156.5" y1="363.1211" y2="363.1211"/><line style="stroke:#181818;stroke-width:0.5;" x1="1020.5" x2="1156.5" y1="371.1211" y2="371.1211"/><ellipse cx="1030.5" cy="385.9316" fill="#84BE84" rx="3" ry="3" style="stroke:#038048;stroke-width:1.0;"/><text fill="#000000" font-family="sans-serif" font-size="14" lengthAdjust="spacing" textLength="112" x="1039.5" y="390.2285">getUserId(): Email</text></g><!--class Utils--><g id="elem_Utils"><rect codeLine="47" fill="#F1F1F1" height="85.2422" id="Utils" rx="2.5" ry="2.5" style="stroke:#181818;stroke-width:0.5;" width="402" x="1192.5" y="322.1211"/><ellipse cx="1376.25" cy="338.1211" fill="#ADD1B2" rx="11" ry="11" style="stroke:#181818;stroke-width:1.0;"/><path d="M1379.0156,333.9961 Q1379.1719,333.7773 1379.3594,333.668 Q1379.5469,333.5586 1379.7656,333.5586 Q1380.1406,333.5586 1380.375,333.8242 Q1380.6094,334.0742 1380.6094,334.6836 L1380.6094,336.1367 Q1380.6094,336.7461 1380.375,337.0117 Q1380.1406,337.2773 1379.7656,337.2773 Q1379.4219,337.2773 1379.2188,337.0742 Q1379.0156,336.8867 1378.9063,336.3711 Q1378.8594,336.0117 1378.6719,335.8242 Q1378.3438,335.4492 1377.7344,335.2305 Q1377.125,335.0117 1376.5,335.0117 Q1375.7344,335.0117 1375.0938,335.3398 Q1374.4688,335.668 1373.9688,336.418 Q1373.4844,337.168 1373.4844,338.1992 L1373.4844,339.293 Q1373.4844,340.5273 1374.375,341.3555 Q1375.2656,342.168 1376.8594,342.168 Q1377.7969,342.168 1378.4531,341.918 Q1378.8438,341.7617 1379.2656,341.3242 Q1379.5313,341.0586 1379.6719,340.9805 Q1379.8281,340.9023 1380.0313,340.9023 Q1380.3594,340.9023 1380.6094,341.168 Q1380.875,341.418 1380.875,341.7617 Q1380.875,342.1055 1380.5313,342.5117 Q1380.0313,343.0898 1379.2344,343.418 Q1378.1563,343.8711 1376.8594,343.8711 Q1375.3438,343.8711 1374.1406,343.2461 Q1373.1563,342.7461 1372.4688,341.6836 Q1371.7813,340.6055 1371.7813,339.3242 L1371.7813,338.168 Q1371.7813,336.8398 1372.3906,335.6992 Q1373.0156,334.543 1374.1094,333.9336 Q1375.2031,333.3086 1376.4375,333.3086 Q1377.1719,333.3086 1377.8125,333.4805 Q1378.4688,333.6367 1379.0156,333.9961 Z " fill="#000000"/><text fill="#000000" font-family="sans-serif" font-size="14" lengthAdjust="spacing" textLength="26" x="1396.75" y="343.918">Utils</text><line style="stroke:#181818;stroke-width:0.5;" x1="1193.5" x2="1593.5" y1="354.1211" y2="354.1211"/><line style="stroke:#181818;stroke-width:0.5;" x1="1193.5" x2="1593.5" y1="362.1211" y2="362.1211"/><ellipse cx="1203.5" cy="376.9316" fill="#84BE84" rx="3" ry="3" style="stroke:#038048;stroke-width:1.0;"/><text fill="#000000" font-family="sans-serif" font-size="14" lengthAdjust="spacing" textLength="191" x="1212.5" y="381.2285">ReadProperties(String): String</text><ellipse cx="1203.5" cy="395.5527" fill="#84BE84" rx="3" ry="3" style="stroke:#038048;stroke-width:1.0;"/><text fill="#000000" font-family="sans-serif" font-size="14" lengthAdjust="spacing" textLength="376" x="1212.5" y="399.8496">showVisitRequestsList(List&lt;VisitRequestDTO&gt;, String): void</text></g><!--class VisitRequestRepository--><g id="elem_VisitRequestRepository"><rect codeLine="52" fill="#F1F1F1" height="85.2422" id="VisitRequestRepository" rx="2.5" ry="2.5" style="stroke:#181818;stroke-width:0.5;" width="656" x="1031.5" y="485.6211"/><ellipse cx="1281.75" cy="501.6211" fill="#ADD1B2" rx="11" ry="11" style="stroke:#181818;stroke-width:1.0;"/><path d="M1284.5156,497.4961 Q1284.6719,497.2773 1284.8594,497.168 Q1285.0469,497.0586 1285.2656,497.0586 Q1285.6406,497.0586 1285.875,497.3242 Q1286.1094,497.5742 1286.1094,498.1836 L1286.1094,499.6367 Q1286.1094,500.2461 1285.875,500.5117 Q1285.6406,500.7773 1285.2656,500.7773 Q1284.9219,500.7773 1284.7188,500.5742 Q1284.5156,500.3867 1284.4063,499.8711 Q1284.3594,499.5117 1284.1719,499.3242 Q1283.8438,498.9492 1283.2344,498.7305 Q1282.625,498.5117 1282,498.5117 Q1281.2344,498.5117 1280.5938,498.8398 Q1279.9688,499.168 1279.4688,499.918 Q1278.9844,500.668 1278.9844,501.6992 L1278.9844,502.793 Q1278.9844,504.0273 1279.875,504.8555 Q1280.7656,505.668 1282.3594,505.668 Q1283.2969,505.668 1283.9531,505.418 Q1284.3438,505.2617 1284.7656,504.8242 Q1285.0313,504.5586 1285.1719,504.4805 Q1285.3281,504.4023 1285.5313,504.4023 Q1285.8594,504.4023 1286.1094,504.668 Q1286.375,504.918 1286.375,505.2617 Q1286.375,505.6055 1286.0313,506.0117 Q1285.5313,506.5898 1284.7344,506.918 Q1283.6563,507.3711 1282.3594,507.3711 Q1280.8438,507.3711 1279.6406,506.7461 Q1278.6563,506.2461 1277.9688,505.1836 Q1277.2813,504.1055 1277.2813,502.8242 L1277.2813,501.668 Q1277.2813,500.3398 1277.8906,499.1992 Q1278.5156,498.043 1279.6094,497.4336 Q1280.7031,496.8086 1281.9375,496.8086 Q1282.6719,496.8086 1283.3125,496.9805 Q1283.9688,497.1367 1284.5156,497.4961 Z " fill="#000000"/><text fill="#000000" font-family="sans-serif" font-size="14" lengthAdjust="spacing" textLength="147" x="1302.25" y="507.418">VisitRequestRepository</text><line style="stroke:#181818;stroke-width:0.5;" x1="1032.5" x2="1686.5" y1="517.6211" y2="517.6211"/><line style="stroke:#181818;stroke-width:0.5;" x1="1032.5" x2="1686.5" y1="525.6211" y2="525.6211"/><ellipse cx="1042.5" cy="540.4316" fill="#84BE84" rx="3" ry="3" style="stroke:#038048;stroke-width:1.0;"/><text fill="#000000" font-family="sans-serif" font-size="14" lengthAdjust="spacing" textLength="524" x="1051.5" y="544.7285">getVisitRequestListFromAgent(AgentDTO): ErrorOptional&lt;List&lt;VisitRequestDTO&gt;&gt;</text><ellipse cx="1042.5" cy="559.0527" fill="#84BE84" rx="3" ry="3" style="stroke:#038048;stroke-width:1.0;"/><text fill="#000000" font-family="sans-serif" font-size="14" lengthAdjust="spacing" textLength="630" x="1051.5" y="563.3496">filterByDate(ErrorOptional&lt;List&lt;VisitRequestDTO&gt;&gt;, LocalDate, LocalDate): List&lt;VisitRequestDTO&gt;</text></g><!--link Repositories to AuthenticationRepository--><g id="link_Repositories_AuthenticationRepository"><path codeLine="57" d="M664.63,422.0011 C613.36,444.2611 555.82,469.2411 509.69,489.2711 " fill="none" id="Repositories-AuthenticationRepository" style="stroke:#595959;stroke-width:1.0;"/><polygon fill="#595959" points="676.8,416.7211,669.704,415.4377,665.7901,421.4942,672.8861,422.7776,676.8,416.7211" style="stroke:#595959;stroke-width:1.0;"/><polygon fill="#595959" points="497.61,494.5111,507.4585,494.5913,502.1954,492.5177,504.269,487.2546,497.61,494.5111" style="stroke:#595959;stroke-width:1.0;"/><line style="stroke:#595959;stroke-width:1.0;" x1="502.1954" x2="509.535" y1="492.5177" y2="489.3361"/><text fill="#000000" font-family="sans-serif" font-size="13" lengthAdjust="spacing" textLength="7" x="654.2712" y="438.5412">1</text><text fill="#000000" font-family="sans-serif" font-size="13" lengthAdjust="spacing" textLength="143" x="355.2305" y="465.9234">authenticationRepository</text><text fill="#000000" font-family="sans-serif" font-size="13" lengthAdjust="spacing" textLength="7" x="423.2305" y="483.2144">1</text></g><!--link Repositories to StoreRepository--><g id="link_Repositories_StoreRepository"><path codeLine="58" d="M794.5,429.8011 C794.5,446.8611 794.5,464.9411 794.5,480.8311 " fill="none" id="Repositories-StoreRepository" style="stroke:#595959;stroke-width:1.0;"/><polygon fill="#595959" points="794.5,416.7211,790.5,422.7211,794.5,428.7211,798.5,422.7211,794.5,416.7211" style="stroke:#595959;stroke-width:1.0;"/><polygon fill="#595959" points="794.5,494.1511,798.5,485.1511,794.5,489.1511,790.5,485.1511,794.5,494.1511" style="stroke:#595959;stroke-width:1.0;"/><line style="stroke:#595959;stroke-width:1.0;" x1="794.5" x2="794.5" y1="489.1511" y2="481.1511"/><text fill="#000000" font-family="sans-serif" font-size="13" lengthAdjust="spacing" textLength="7" x="787.0516" y="438.5412">1</text><text fill="#000000" font-family="sans-serif" font-size="13" lengthAdjust="spacing" textLength="91" x="696.2484" y="466.1326">storeRepository</text><text fill="#000000" font-family="sans-serif" font-size="13" lengthAdjust="spacing" textLength="7" x="738.2484" y="483.4237">1</text></g><!--link Repositories to VisitRequestRepository--><g id="link_Repositories_VisitRequestRepository"><path codeLine="59" d="M984.06,420.3311 C990.28,422.1211 996.44,423.8811 1002.5,425.6211 C1067.12,444.1311 1138.35,464.4011 1200.08,481.9311 " fill="none" id="Repositories-VisitRequestRepository" style="stroke:#595959;stroke-width:1.0;"/><polygon fill="#595959" points="971.22,416.6511,975.8786,422.1554,982.7513,419.9721,978.0927,414.4678,971.22,416.6511" style="stroke:#595959;stroke-width:1.0;"/><polygon fill="#595959" points="1212.69,485.5211,1205.1218,479.2185,1207.8795,484.1577,1202.9403,486.9153,1212.69,485.5211" style="stroke:#595959;stroke-width:1.0;"/><line style="stroke:#595959;stroke-width:1.0;" x1="1207.8795" x2="1200.19" y1="484.1577" y2="481.9661"/><text fill="#000000" font-family="sans-serif" font-size="13" lengthAdjust="spacing" textLength="7" x="986.4138" y="438.4622">1</text><text fill="#000000" font-family="sans-serif" font-size="13" lengthAdjust="spacing" textLength="132" x="1050.7636" y="457.1921">visitRequestRepository</text><text fill="#000000" font-family="sans-serif" font-size="13" lengthAdjust="spacing" textLength="7" x="1113.2636" y="474.4831">1</text></g><!--link ReviewVisitRequestsController to Repositories--><g id="link_ReviewVisitRequestsController_Repositories"><path codeLine="60" d="M794.5,243.7411 C794.5,265.4111 794.5,287.6911 794.5,307.0611 " fill="none" id="ReviewVisitRequestsController-to-Repositories" style="stroke:#595959;stroke-width:1.0;"/><polygon fill="#595959" points="794.5,312.4511,798.5,303.4511,794.5,307.4511,790.5,303.4511,794.5,312.4511" style="stroke:#595959;stroke-width:1.0;"/><text fill="#000000" font-family="sans-serif" font-size="13" lengthAdjust="spacing" textLength="7" x="787.243" y="265.6479">1</text><text fill="#000000" font-family="sans-serif" font-size="13" lengthAdjust="spacing" textLength="67" x="723.4172" y="284.0931">repositories</text><text fill="#000000" font-family="sans-serif" font-size="13" lengthAdjust="spacing" textLength="7" x="753.4172" y="301.3841">1</text></g><!--link ReviewVisitRequestsController to Utils--><g id="link_ReviewVisitRequestsController_Utils"><path codeLine="61" d="M1063.34,243.7411 C1137.3,270.5911 1213.78,298.3611 1274.48,320.4011 " fill="none" id="ReviewVisitRequestsController-to-Utils" style="stroke:#595959;stroke-width:1.0;stroke-dasharray:7.0,7.0;"/><polygon fill="#595959" points="1279.2,322.1211,1272.0972,315.2984,1274.4981,320.4204,1269.3761,322.8214,1279.2,322.1211" style="stroke:#595959;stroke-width:1.0;"/><text fill="#000000" font-family="sans-serif" font-size="13" lengthAdjust="spacing" textLength="7" x="1071.68" y="263.9716">1</text><text fill="#000000" font-family="sans-serif" font-size="13" lengthAdjust="spacing" textLength="24" x="1236.6497" y="293.4353">utils</text><text fill="#000000" font-family="sans-serif" font-size="13" lengthAdjust="spacing" textLength="7" x="1245.1497" y="310.7263">1</text></g><!--reverse link ReviewVisitRequestsController to ListVisitRequestsUI--><g id="link_ReviewVisitRequestsController_ListVisitRequestsUI"><path codeLine="62" d="M644.82,246.6011 C615.9,266.0111 586.45,285.7811 560.19,303.4111 " fill="none" id="ReviewVisitRequestsController-backto-ListVisitRequestsUI" style="stroke:#595959;stroke-width:1.0;"/><polygon fill="#595959" points="649.09,243.7411,639.3867,245.4282,644.9363,246.5245,643.8401,252.0741,649.09,243.7411" style="stroke:#595959;stroke-width:1.0;"/><text fill="#000000" font-family="sans-serif" font-size="13" lengthAdjust="spacing" textLength="7" x="631.1544" y="265.6479">1</text><text fill="#000000" font-family="sans-serif" font-size="13" lengthAdjust="spacing" textLength="110" x="453.9842" y="274.8905">listVisitRequestsUI</text><text fill="#000000" font-family="sans-serif" font-size="13" lengthAdjust="spacing" textLength="7" x="505.4842" y="292.1816">1</text></g><!--link ReviewVisitRequestsController to Algorithms--><g id="link_ReviewVisitRequestsController_Algorithms"><path codeLine="63" d="M524.87,240.2511 C455.48,264.4811 383.27,289.6911 322.34,310.9611 " fill="none" id="ReviewVisitRequestsController-to-Algorithms" style="stroke:#595959;stroke-width:1.0;stroke-dasharray:7.0,7.0;"/><polygon fill="#595959" points="317.6,312.6111,327.4143,313.4358,322.3231,310.9702,324.7888,305.8789,317.6,312.6111" style="stroke:#595959;stroke-width:1.0;"/><text fill="#000000" font-family="sans-serif" font-size="13" lengthAdjust="spacing" textLength="7" x="509.7615" y="239.856">1</text></g><!--link ReviewVisitRequestsController to UserSession--><g id="link_ReviewVisitRequestsController_UserSession"><path codeLine="64" d="M926.45,243.7411 C967.06,273.7811 1009.23,304.9711 1040.36,328.0111 " fill="none" id="ReviewVisitRequestsController-to-UserSession" style="stroke:#595959;stroke-width:1.0;stroke-dasharray:7.0,7.0;"/><polygon fill="#595959" points="1044.49,331.0611,1039.636,322.4915,1040.4712,328.0863,1034.8763,328.9215,1044.49,331.0611" style="stroke:#595959;stroke-width:1.0;"/><text fill="#000000" font-family="sans-serif" font-size="13" lengthAdjust="spacing" textLength="7" x="928.883" y="265.6479">1</text><text fill="#000000" font-family="sans-serif" font-size="13" lengthAdjust="spacing" textLength="72" x="1043.1133" y="302.482">userSession</text><text fill="#000000" font-family="sans-serif" font-size="13" lengthAdjust="spacing" textLength="7" x="1075.6133" y="319.773">1</text></g><!--SRC=[dPNTRzem4C3V-IjEx2LRoRG-z6488T6FIKYLEfNIbwuF3bo39ITczi64fltlyvc4E91q6KH2iNttkqzVI992cC- -N5v13FVI4cobbGG6VsxGaktrIA-1D2IQI6Umb0ON97NUwosKi1OcAjL6qYgpyBi7S04PcXHdsb34kD4punxtjDkdX_40P4x-x-CGjbeklLAoIHBrZbOb6uFjmAuP-5Ewkg4LvYGNWWDunBLswjhi2iTJf9kDCKvYRj7Cq5ed5Jb8i7Ii0iOEXFRjVEevCIIOolnM40xXNY-4ubT_WFcoQRj8DQzj50Qw52IczaRdRz9akEIpH6k58d3Z48L4MyKHEbR5oO3carAlBKEisNPMwixS0kigHrkXrrk9lshfSs6IqKgXAT9eIHXwafdBbz9vMcRmQCS4yGzhsMZAnVLkaheO9dP6HkRftaT-Utazj1ONzbzDU0AsqQ6cWwgyJg4HL1A-6xr6GxkPK5WSi_mtepFl9_jtPums3slEkL2ZHjpO-yxbOoNM3fgthkybl0k7MXmLgMgYKfQ1TvcGAjhdgWiqk38La3UdleqzBf0cgShkVKInBFBYYbYPtBzu4RlIzTvfBza03e1Y51Gcc-z1ymsgrwICjdjjBk1DAa9plUEcYBfe1KtKfPzSMBL1SFBhN_RXK_pouUehFuEr4Z9_ZSVG5ost-aVkD5gl_9d6RBtLl8tZ6N4cUjjOJs-XPUIzFuFOK9ETSDvuUcta_3_pisDkkFqzp5-43fHHVCo1lZhz87bcmuVgF3-3J_svWLPJOHzkjVuB]--></g></svg>