<?xml version="1.0" encoding="us-ascii" standalone="no"?><svg xmlns="http://www.w3.org/2000/svg" xmlns:xlink="http://www.w3.org/1999/xlink" contentStyleType="text/css" height="382px" preserveAspectRatio="none" style="width:506px;height:382px;background:#FFFFFF;" version="1.1" viewBox="0 0 506 382" width="506px" zoomAndPan="magnify"><defs/><g><rect fill="#FFFFFF" height="193.6641" style="stroke:#181818;stroke-width:1.0;" width="10" x="73" y="90.6406"/><rect fill="#FFFFFF" height="28.5234" style="stroke:#181818;stroke-width:1.0;" width="10" x="453" y="111.1641"/><rect fill="#FFFFFF" height="52.0469" style="stroke:#181818;stroke-width:1.0;" width="10" x="453" y="168.2109"/><rect fill="#FFFFFF" height="44.5234" style="stroke:#181818;stroke-width:1.0;" width="10" x="453" y="248.7813"/><rect fill="none" height="73.5703" style="stroke:#000000;stroke-width:1.5;" width="490" x="10" y="183.2109"/><line style="stroke:#181818;stroke-width:0.5;stroke-dasharray:5.0,5.0;" x1="78" x2="78" y1="80.6406" y2="302.3047"/><line style="stroke:#181818;stroke-width:0.5;stroke-dasharray:5.0,5.0;" x1="458" x2="458" y1="80.6406" y2="302.3047"/><text fill="#000000" font-family="sans-serif" font-size="14" lengthAdjust="spacing" textLength="110" x="20" y="77.6738">Network Manager</text><ellipse cx="78" cy="13.5" fill="#E3E3E3" rx="8" ry="8" style="stroke:#181818;stroke-width:0.5;"/><path d="M78,21.5 L78,48.5 M65,29.5 L91,29.5 M78,48.5 L65,63.5 M78,48.5 L91,63.5 " fill="none" style="stroke:#181818;stroke-width:0.5;"/><text fill="#000000" font-family="sans-serif" font-size="14" lengthAdjust="spacing" textLength="110" x="20" y="313.9785">Network Manager</text><ellipse cx="78" cy="325.4453" fill="#E3E3E3" rx="8" ry="8" style="stroke:#181818;stroke-width:0.5;"/><path d="M78,333.4453 L78,360.4453 M65,341.4453 L91,341.4453 M78,360.4453 L65,375.4453 M78,360.4453 L91,375.4453 " fill="none" style="stroke:#181818;stroke-width:0.5;"/><rect fill="#E3E3E3" height="29.6406" rx="2.5" ry="2.5" style="stroke:#181818;stroke-width:0.5;" width="64" x="426" y="50"/><text fill="#000000" font-family="sans-serif" font-size="14" lengthAdjust="spacing" textLength="50" x="433" y="69.6738">:System</text><rect fill="#E3E3E3" height="29.6406" rx="2.5" ry="2.5" style="stroke:#181818;stroke-width:0.5;" width="64" x="426" y="301.3047"/><text fill="#000000" font-family="sans-serif" font-size="14" lengthAdjust="spacing" textLength="50" x="433" y="320.9785">:System</text><rect fill="#FFFFFF" height="193.6641" style="stroke:#181818;stroke-width:1.0;" width="10" x="73" y="90.6406"/><rect fill="#FFFFFF" height="28.5234" style="stroke:#181818;stroke-width:1.0;" width="10" x="453" y="111.1641"/><rect fill="#FFFFFF" height="52.0469" style="stroke:#181818;stroke-width:1.0;" width="10" x="453" y="168.2109"/><rect fill="#FFFFFF" height="44.5234" style="stroke:#181818;stroke-width:1.0;" width="10" x="453" y="248.7813"/><polygon fill="#181818" points="441,107.1641,451,111.1641,441,115.1641,445,111.1641" style="stroke:#181818;stroke-width:1.0;"/><line style="stroke:#181818;stroke-width:1.0;" x1="83" x2="447" y1="111.1641" y2="111.1641"/><text fill="#000000" font-family="sans-serif" font-size="13" font-weight="bold" lengthAdjust="spacing" textLength="7" x="90" y="106.4092">1</text><text fill="#000000" font-family="sans-serif" font-size="13" lengthAdjust="spacing" textLength="222" x="101" y="106.4092">asks to study prices using Regression</text><polygon fill="#181818" points="94,135.6875,84,139.6875,94,143.6875,90,139.6875" style="stroke:#181818;stroke-width:1.0;"/><line style="stroke:#181818;stroke-width:1.0;stroke-dasharray:2.0,2.0;" x1="88" x2="457" y1="139.6875" y2="139.6875"/><text fill="#000000" font-family="sans-serif" font-size="13" font-weight="bold" lengthAdjust="spacing" textLength="7" x="100" y="134.9326">2</text><text fill="#000000" font-family="sans-serif" font-size="13" lengthAdjust="spacing" textLength="335" x="111" y="134.9326">shows options(Linear Regression or Multiliear Regression)</text><polygon fill="#181818" points="441,164.2109,451,168.2109,441,172.2109,445,168.2109" style="stroke:#181818;stroke-width:1.0;"/><line style="stroke:#181818;stroke-width:1.0;" x1="83" x2="447" y1="168.2109" y2="168.2109"/><text fill="#000000" font-family="sans-serif" font-size="13" font-weight="bold" lengthAdjust="spacing" textLength="7" x="90" y="163.4561">3</text><text fill="#000000" font-family="sans-serif" font-size="13" lengthAdjust="spacing" textLength="99" x="101" y="163.4561">selects an option</text><path d="M10,183.2109 L75,183.2109 L75,189.7344 L65,199.7344 L10,199.7344 L10,183.2109 " fill="#EEEEEE" style="stroke:#000000;stroke-width:1.5;"/><rect fill="none" height="73.5703" style="stroke:#000000;stroke-width:1.5;" width="490" x="10" y="183.2109"/><text fill="#000000" font-family="sans-serif" font-size="13" font-weight="bold" lengthAdjust="spacing" textLength="20" x="25" y="195.9795">opt</text><text fill="#000000" font-family="sans-serif" font-size="11" font-weight="bold" lengthAdjust="spacing" textLength="161" x="90" y="195.1689">[Selected Linear Regression]</text><polygon fill="#181818" points="94,216.2578,84,220.2578,94,224.2578,90,220.2578" style="stroke:#181818;stroke-width:1.0;"/><line style="stroke:#181818;stroke-width:1.0;stroke-dasharray:2.0,2.0;" x1="88" x2="457" y1="220.2578" y2="220.2578"/><text fill="#000000" font-family="sans-serif" font-size="13" font-weight="bold" lengthAdjust="spacing" textLength="7" x="100" y="215.5029">4</text><text fill="#000000" font-family="sans-serif" font-size="13" lengthAdjust="spacing" textLength="165" x="111" y="215.5029">shows independent variables</text><polygon fill="#181818" points="441,244.7813,451,248.7813,441,252.7813,445,248.7813" style="stroke:#181818;stroke-width:1.0;"/><line style="stroke:#181818;stroke-width:1.0;" x1="83" x2="447" y1="248.7813" y2="248.7813"/><text fill="#000000" font-family="sans-serif" font-size="13" font-weight="bold" lengthAdjust="spacing" textLength="7" x="90" y="244.0264">5</text><text fill="#000000" font-family="sans-serif" font-size="13" lengthAdjust="spacing" textLength="174" x="101" y="244.0264">selects a independent variable</text><polygon fill="#181818" points="89,280.3047,79,284.3047,89,288.3047,85,284.3047" style="stroke:#181818;stroke-width:1.0;"/><line style="stroke:#181818;stroke-width:1.0;stroke-dasharray:2.0,2.0;" x1="83" x2="452" y1="284.3047" y2="284.3047"/><text fill="#000000" font-family="sans-serif" font-size="13" font-weight="bold" lengthAdjust="spacing" textLength="7" x="95" y="279.5498">6</text><text fill="#000000" font-family="sans-serif" font-size="13" lengthAdjust="spacing" textLength="80" x="106" y="279.5498">shows results</text><!--SRC=[XL5BReGm3Drp2ejLkvWBpA8dw7HHJk09BXCHaYWsWxXzNHeYHaEf5v4ZluzVmhtr4HCEC0GVp2s5WK3II1MNIKJJOqUDp8uWaH7qdTi2-8PjcAplu0iTKwM5emG_3bTAsXi92UeFaYca7YxeLItLWBpsbUg8DJQY5wZFpSn2mmBuRHSDUqUXmgX0Ar_Wz9Q1S5PIpo01MCPsXfYi8OQHVxRxf2uHimr-OHVDrGHoPQsJoguEPmqP9eOGHUdyycuzOTeeWaQyZ4wiiu-3roBRqgxZNWWcf-_CW3ux7Y-i66WM2hNmj5g1_PFD-fOYwQ6VSCTayUg87yZF2TP9QGxJx5eKwb_QYg-Any7-6bS_WAlDbXdo3G00]--></g></svg>