<?xml version="1.0" encoding="us-ascii" standalone="no"?><svg xmlns="http://www.w3.org/2000/svg" xmlns:xlink="http://www.w3.org/1999/xlink" contentStyleType="text/css" height="1826px" preserveAspectRatio="none" style="width:1656px;height:1826px;background:#FFFFFF;" version="1.1" viewBox="0 0 1656 1826" width="1656px" zoomAndPan="magnify"><defs/><g><!--class PropertySale--><g id="elem_PropertySale"><rect codeLine="2" fill="#F1F1F1" height="79.2813" id="PropertySale" rx="2.5" ry="2.5" style="stroke:#181818;stroke-width:0.5;" width="256" x="845.5" y="741"/><ellipse cx="928.25" cy="757" fill="#ADD1B2" rx="11" ry="11" style="stroke:#181818;stroke-width:1.0;"/><path d="M931.0156,752.875 Q931.1719,752.6563 931.3594,752.5469 Q931.5469,752.4375 931.7656,752.4375 Q932.1406,752.4375 932.375,752.7031 Q932.6094,752.9531 932.6094,753.5625 L932.6094,755.0156 Q932.6094,755.625 932.375,755.8906 Q932.1406,756.1563 931.7656,756.1563 Q931.4219,756.1563 931.2188,755.9531 Q931.0156,755.7656 930.9063,755.25 Q930.8594,754.8906 930.6719,754.7031 Q930.3438,754.3281 929.7344,754.1094 Q929.125,753.8906 928.5,753.8906 Q927.7344,753.8906 927.0938,754.2188 Q926.4688,754.5469 925.9688,755.2969 Q925.4844,756.0469 925.4844,757.0781 L925.4844,758.1719 Q925.4844,759.4063 926.375,760.2344 Q927.2656,761.0469 928.8594,761.0469 Q929.7969,761.0469 930.4531,760.7969 Q930.8438,760.6406 931.2656,760.2031 Q931.5313,759.9375 931.6719,759.8594 Q931.8281,759.7813 932.0313,759.7813 Q932.3594,759.7813 932.6094,760.0469 Q932.875,760.2969 932.875,760.6406 Q932.875,760.9844 932.5313,761.3906 Q932.0313,761.9688 931.2344,762.2969 Q930.1563,762.75 928.8594,762.75 Q927.3438,762.75 926.1406,762.125 Q925.1563,761.625 924.4688,760.5625 Q923.7813,759.4844 923.7813,758.2031 L923.7813,757.0469 Q923.7813,755.7188 924.3906,754.5781 Q925.0156,753.4219 926.1094,752.8125 Q927.2031,752.1875 928.4375,752.1875 Q929.1719,752.1875 929.8125,752.3594 Q930.4688,752.5156 931.0156,752.875 Z " fill="#000000"/><text fill="#000000" font-family="sans-serif" font-size="14" lengthAdjust="spacing" textLength="82" x="948.75" y="761.8535">PropertySale</text><line style="stroke:#181818;stroke-width:0.5;" x1="846.5" x2="1100.5" y1="773" y2="773"/><rect fill="none" height="6" style="stroke:#C82930;stroke-width:1.0;" width="6" x="853.5" y="783.3203"/><text fill="#000000" font-family="sans-serif" font-size="14" lengthAdjust="spacing" textLength="230" x="865.5" y="789.6738">CommissionType typeOfCommission</text><rect fill="none" height="6" style="stroke:#C82930;stroke-width:1.0;" width="6" x="853.5" y="798.9609"/><text fill="#000000" font-family="sans-serif" font-size="14" lengthAdjust="spacing" textLength="120" x="865.5" y="805.3145">double commission</text><line style="stroke:#181818;stroke-width:0.5;" x1="846.5" x2="1100.5" y1="812.2813" y2="812.2813"/></g><!--class PropertySaleRequest--><g id="elem_PropertySaleRequest"><rect codeLine="8" fill="#F1F1F1" height="79.2813" id="PropertySaleRequest" rx="2.5" ry="2.5" style="stroke:#181818;stroke-width:0.5;" width="167" x="890" y="944"/><ellipse cx="905" cy="960" fill="#ADD1B2" rx="11" ry="11" style="stroke:#181818;stroke-width:1.0;"/><path d="M907.7656,955.875 Q907.9219,955.6563 908.1094,955.5469 Q908.2969,955.4375 908.5156,955.4375 Q908.8906,955.4375 909.125,955.7031 Q909.3594,955.9531 909.3594,956.5625 L909.3594,958.0156 Q909.3594,958.625 909.125,958.8906 Q908.8906,959.1563 908.5156,959.1563 Q908.1719,959.1563 907.9688,958.9531 Q907.7656,958.7656 907.6563,958.25 Q907.6094,957.8906 907.4219,957.7031 Q907.0938,957.3281 906.4844,957.1094 Q905.875,956.8906 905.25,956.8906 Q904.4844,956.8906 903.8438,957.2188 Q903.2188,957.5469 902.7188,958.2969 Q902.2344,959.0469 902.2344,960.0781 L902.2344,961.1719 Q902.2344,962.4063 903.125,963.2344 Q904.0156,964.0469 905.6094,964.0469 Q906.5469,964.0469 907.2031,963.7969 Q907.5938,963.6406 908.0156,963.2031 Q908.2813,962.9375 908.4219,962.8594 Q908.5781,962.7813 908.7813,962.7813 Q909.1094,962.7813 909.3594,963.0469 Q909.625,963.2969 909.625,963.6406 Q909.625,963.9844 909.2813,964.3906 Q908.7813,964.9688 907.9844,965.2969 Q906.9063,965.75 905.6094,965.75 Q904.0938,965.75 902.8906,965.125 Q901.9063,964.625 901.2188,963.5625 Q900.5313,962.4844 900.5313,961.2031 L900.5313,960.0469 Q900.5313,958.7188 901.1406,957.5781 Q901.7656,956.4219 902.8594,955.8125 Q903.9531,955.1875 905.1875,955.1875 Q905.9219,955.1875 906.5625,955.3594 Q907.2188,955.5156 907.7656,955.875 Z " fill="#000000"/><text fill="#000000" font-family="sans-serif" font-size="14" lengthAdjust="spacing" textLength="135" x="919" y="964.8535">PropertySaleRequest</text><line style="stroke:#181818;stroke-width:0.5;" x1="891" x2="1056" y1="976" y2="976"/><rect fill="none" height="6" style="stroke:#C82930;stroke-width:1.0;" width="6" x="898" y="986.3203"/><text fill="#000000" font-family="sans-serif" font-size="14" lengthAdjust="spacing" textLength="118" x="910" y="992.6738">int typeOfBusiness</text><rect fill="none" height="6" style="stroke:#C82930;stroke-width:1.0;" width="6" x="898" y="1001.9609"/><text fill="#000000" font-family="sans-serif" font-size="14" lengthAdjust="spacing" textLength="127" x="910" y="1008.3145">float requestedPrice</text><line style="stroke:#181818;stroke-width:0.5;" x1="891" x2="1056" y1="1015.2813" y2="1015.2813"/></g><!--class ListPropertySaleRequestUI--><g id="elem_ListPropertySaleRequestUI"><rect codeLine="13" fill="#F1F1F1" height="48" id="ListPropertySaleRequestUI" rx="2.5" ry="2.5" style="stroke:#181818;stroke-width:0.5;" width="201" x="7" y="54"/><ellipse cx="22" cy="70" fill="#ADD1B2" rx="11" ry="11" style="stroke:#181818;stroke-width:1.0;"/><path d="M24.7656,65.875 Q24.9219,65.6563 25.1094,65.5469 Q25.2969,65.4375 25.5156,65.4375 Q25.8906,65.4375 26.125,65.7031 Q26.3594,65.9531 26.3594,66.5625 L26.3594,68.0156 Q26.3594,68.625 26.125,68.8906 Q25.8906,69.1563 25.5156,69.1563 Q25.1719,69.1563 24.9688,68.9531 Q24.7656,68.7656 24.6563,68.25 Q24.6094,67.8906 24.4219,67.7031 Q24.0938,67.3281 23.4844,67.1094 Q22.875,66.8906 22.25,66.8906 Q21.4844,66.8906 20.8438,67.2188 Q20.2188,67.5469 19.7188,68.2969 Q19.2344,69.0469 19.2344,70.0781 L19.2344,71.1719 Q19.2344,72.4063 20.125,73.2344 Q21.0156,74.0469 22.6094,74.0469 Q23.5469,74.0469 24.2031,73.7969 Q24.5938,73.6406 25.0156,73.2031 Q25.2813,72.9375 25.4219,72.8594 Q25.5781,72.7813 25.7813,72.7813 Q26.1094,72.7813 26.3594,73.0469 Q26.625,73.2969 26.625,73.6406 Q26.625,73.9844 26.2813,74.3906 Q25.7813,74.9688 24.9844,75.2969 Q23.9063,75.75 22.6094,75.75 Q21.0938,75.75 19.8906,75.125 Q18.9063,74.625 18.2188,73.5625 Q17.5313,72.4844 17.5313,71.2031 L17.5313,70.0469 Q17.5313,68.7188 18.1406,67.5781 Q18.7656,66.4219 19.8594,65.8125 Q20.9531,65.1875 22.1875,65.1875 Q22.9219,65.1875 23.5625,65.3594 Q24.2188,65.5156 24.7656,65.875 Z " fill="#000000"/><text fill="#000000" font-family="sans-serif" font-size="14" lengthAdjust="spacing" textLength="169" x="36" y="74.8535">ListPropertySaleRequestUI</text><line style="stroke:#181818;stroke-width:0.5;" x1="8" x2="207" y1="86" y2="86"/><line style="stroke:#181818;stroke-width:0.5;" x1="8" x2="207" y1="94" y2="94"/></g><!--class ListPropertySaleRequestsController--><g id="elem_ListPropertySaleRequestsController"><rect codeLine="16" fill="#F1F1F1" height="141.8438" id="ListPropertySaleRequestsController" rx="2.5" ry="2.5" style="stroke:#181818;stroke-width:0.5;" width="930" x="243.5" y="7"/><ellipse cx="591.25" cy="23" fill="#ADD1B2" rx="11" ry="11" style="stroke:#181818;stroke-width:1.0;"/><path d="M594.0156,18.875 Q594.1719,18.6563 594.3594,18.5469 Q594.5469,18.4375 594.7656,18.4375 Q595.1406,18.4375 595.375,18.7031 Q595.6094,18.9531 595.6094,19.5625 L595.6094,21.0156 Q595.6094,21.625 595.375,21.8906 Q595.1406,22.1563 594.7656,22.1563 Q594.4219,22.1563 594.2188,21.9531 Q594.0156,21.7656 593.9063,21.25 Q593.8594,20.8906 593.6719,20.7031 Q593.3438,20.3281 592.7344,20.1094 Q592.125,19.8906 591.5,19.8906 Q590.7344,19.8906 590.0938,20.2188 Q589.4688,20.5469 588.9688,21.2969 Q588.4844,22.0469 588.4844,23.0781 L588.4844,24.1719 Q588.4844,25.4063 589.375,26.2344 Q590.2656,27.0469 591.8594,27.0469 Q592.7969,27.0469 593.4531,26.7969 Q593.8438,26.6406 594.2656,26.2031 Q594.5313,25.9375 594.6719,25.8594 Q594.8281,25.7813 595.0313,25.7813 Q595.3594,25.7813 595.6094,26.0469 Q595.875,26.2969 595.875,26.6406 Q595.875,26.9844 595.5313,27.3906 Q595.0313,27.9688 594.2344,28.2969 Q593.1563,28.75 591.8594,28.75 Q590.3438,28.75 589.1406,28.125 Q588.1563,27.625 587.4688,26.5625 Q586.7813,25.4844 586.7813,24.2031 L586.7813,23.0469 Q586.7813,21.7188 587.3906,20.5781 Q588.0156,19.4219 589.1094,18.8125 Q590.2031,18.1875 591.4375,18.1875 Q592.1719,18.1875 592.8125,18.3594 Q593.4688,18.5156 594.0156,18.875 Z " fill="#000000"/><text fill="#000000" font-family="sans-serif" font-size="14" lengthAdjust="spacing" textLength="226" x="611.75" y="27.8535">ListPropertySaleRequestsController</text><line style="stroke:#181818;stroke-width:0.5;" x1="244.5" x2="1172.5" y1="39" y2="39"/><line style="stroke:#181818;stroke-width:0.5;" x1="244.5" x2="1172.5" y1="47" y2="47"/><ellipse cx="254.5" cy="60.3203" fill="#84BE84" rx="3" ry="3" style="stroke:#038048;stroke-width:1.0;"/><text fill="#000000" font-family="sans-serif" font-size="14" lengthAdjust="spacing" textLength="257" x="263.5" y="63.6738">getPropertySaleRequestListFromAgent()</text><ellipse cx="254.5" cy="75.9609" fill="#84BE84" rx="3" ry="3" style="stroke:#038048;stroke-width:1.0;"/><text fill="#000000" font-family="sans-serif" font-size="14" lengthAdjust="spacing" textLength="276" x="263.5" y="79.3145">getClientDTOFromEmail(String ownerEmail)</text><ellipse cx="254.5" cy="91.6016" fill="#84BE84" rx="3" ry="3" style="stroke:#038048;stroke-width:1.0;"/><text fill="#000000" font-family="sans-serif" font-size="14" lengthAdjust="spacing" textLength="150" x="263.5" y="94.9551">getAgentFromSession()</text><ellipse cx="254.5" cy="107.2422" fill="#84BE84" rx="3" ry="3" style="stroke:#038048;stroke-width:1.0;"/><text fill="#000000" font-family="sans-serif" font-size="14" lengthAdjust="spacing" textLength="525" x="263.5" y="110.5957">removePropertySaleRequest(PropertySaleRequestDTO propertySaleRequestDTO)</text><ellipse cx="254.5" cy="122.8828" fill="#84BE84" rx="3" ry="3" style="stroke:#038048;stroke-width:1.0;"/><text fill="#000000" font-family="sans-serif" font-size="14" lengthAdjust="spacing" textLength="904" x="263.5" y="126.2363">createPropertySale(PropertySaleRequestDTO propertySaleRequestDTO, PropertySale.CommissionType commissionType, double commission)</text><ellipse cx="254.5" cy="138.5234" fill="#84BE84" rx="3" ry="3" style="stroke:#038048;stroke-width:1.0;"/><text fill="#000000" font-family="sans-serif" font-size="14" lengthAdjust="spacing" textLength="470" x="263.5" y="141.877">sendMessageToClient(ClientDTO clientDTO, MessageDTO messageDTO)</text></g><!--class PropertySaleRequestRepository--><g id="elem_PropertySaleRequestRepository"><rect codeLine="25" fill="#F1F1F1" height="63.6406" id="PropertySaleRequestRepository" rx="2.5" ry="2.5" style="stroke:#181818;stroke-width:0.5;" width="382" x="266.5" y="569"/><ellipse cx="351.75" cy="585" fill="#ADD1B2" rx="11" ry="11" style="stroke:#181818;stroke-width:1.0;"/><path d="M354.5156,580.875 Q354.6719,580.6563 354.8594,580.5469 Q355.0469,580.4375 355.2656,580.4375 Q355.6406,580.4375 355.875,580.7031 Q356.1094,580.9531 356.1094,581.5625 L356.1094,583.0156 Q356.1094,583.625 355.875,583.8906 Q355.6406,584.1563 355.2656,584.1563 Q354.9219,584.1563 354.7188,583.9531 Q354.5156,583.7656 354.4063,583.25 Q354.3594,582.8906 354.1719,582.7031 Q353.8438,582.3281 353.2344,582.1094 Q352.625,581.8906 352,581.8906 Q351.2344,581.8906 350.5938,582.2188 Q349.9688,582.5469 349.4688,583.2969 Q348.9844,584.0469 348.9844,585.0781 L348.9844,586.1719 Q348.9844,587.4063 349.875,588.2344 Q350.7656,589.0469 352.3594,589.0469 Q353.2969,589.0469 353.9531,588.7969 Q354.3438,588.6406 354.7656,588.2031 Q355.0313,587.9375 355.1719,587.8594 Q355.3281,587.7813 355.5313,587.7813 Q355.8594,587.7813 356.1094,588.0469 Q356.375,588.2969 356.375,588.6406 Q356.375,588.9844 356.0313,589.3906 Q355.5313,589.9688 354.7344,590.2969 Q353.6563,590.75 352.3594,590.75 Q350.8438,590.75 349.6406,590.125 Q348.6563,589.625 347.9688,588.5625 Q347.2813,587.4844 347.2813,586.2031 L347.2813,585.0469 Q347.2813,583.7188 347.8906,582.5781 Q348.5156,581.4219 349.6094,580.8125 Q350.7031,580.1875 351.9375,580.1875 Q352.6719,580.1875 353.3125,580.3594 Q353.9688,580.5156 354.5156,580.875 Z " fill="#000000"/><text fill="#000000" font-family="sans-serif" font-size="14" lengthAdjust="spacing" textLength="203" x="372.25" y="589.8535">PropertySaleRequestRepository</text><line style="stroke:#181818;stroke-width:0.5;" x1="267.5" x2="647.5" y1="601" y2="601"/><line style="stroke:#181818;stroke-width:0.5;" x1="267.5" x2="647.5" y1="609" y2="609"/><ellipse cx="277.5" cy="622.3203" fill="#84BE84" rx="3" ry="3" style="stroke:#038048;stroke-width:1.0;"/><text fill="#000000" font-family="sans-serif" font-size="14" lengthAdjust="spacing" textLength="356" x="286.5" y="625.6738">removePropertySaleRequest(propertySaleRequestDTO)</text></g><!--class PropertySaleRepository--><g id="elem_PropertySaleRepository"><rect codeLine="29" fill="#F1F1F1" height="63.6406" id="PropertySaleRepository" rx="2.5" ry="2.5" style="stroke:#181818;stroke-width:0.5;" width="579" x="684" y="569"/><ellipse cx="894.25" cy="585" fill="#ADD1B2" rx="11" ry="11" style="stroke:#181818;stroke-width:1.0;"/><path d="M897.0156,580.875 Q897.1719,580.6563 897.3594,580.5469 Q897.5469,580.4375 897.7656,580.4375 Q898.1406,580.4375 898.375,580.7031 Q898.6094,580.9531 898.6094,581.5625 L898.6094,583.0156 Q898.6094,583.625 898.375,583.8906 Q898.1406,584.1563 897.7656,584.1563 Q897.4219,584.1563 897.2188,583.9531 Q897.0156,583.7656 896.9063,583.25 Q896.8594,582.8906 896.6719,582.7031 Q896.3438,582.3281 895.7344,582.1094 Q895.125,581.8906 894.5,581.8906 Q893.7344,581.8906 893.0938,582.2188 Q892.4688,582.5469 891.9688,583.2969 Q891.4844,584.0469 891.4844,585.0781 L891.4844,586.1719 Q891.4844,587.4063 892.375,588.2344 Q893.2656,589.0469 894.8594,589.0469 Q895.7969,589.0469 896.4531,588.7969 Q896.8438,588.6406 897.2656,588.2031 Q897.5313,587.9375 897.6719,587.8594 Q897.8281,587.7813 898.0313,587.7813 Q898.3594,587.7813 898.6094,588.0469 Q898.875,588.2969 898.875,588.6406 Q898.875,588.9844 898.5313,589.3906 Q898.0313,589.9688 897.2344,590.2969 Q896.1563,590.75 894.8594,590.75 Q893.3438,590.75 892.1406,590.125 Q891.1563,589.625 890.4688,588.5625 Q889.7813,587.4844 889.7813,586.2031 L889.7813,585.0469 Q889.7813,583.7188 890.3906,582.5781 Q891.0156,581.4219 892.1094,580.8125 Q893.2031,580.1875 894.4375,580.1875 Q895.1719,580.1875 895.8125,580.3594 Q896.4688,580.5156 897.0156,580.875 Z " fill="#000000"/><text fill="#000000" font-family="sans-serif" font-size="14" lengthAdjust="spacing" textLength="150" x="914.75" y="589.8535">PropertySaleRepository</text><line style="stroke:#181818;stroke-width:0.5;" x1="685" x2="1262" y1="601" y2="601"/><line style="stroke:#181818;stroke-width:0.5;" x1="685" x2="1262" y1="609" y2="609"/><ellipse cx="695" cy="622.3203" fill="#84BE84" rx="3" ry="3" style="stroke:#038048;stroke-width:1.0;"/><text fill="#000000" font-family="sans-serif" font-size="14" lengthAdjust="spacing" textLength="553" x="704" y="625.6738">convertRequestInPropertySale(propertySaleRequestDTO,commissionType,commission)</text></g><!--class Repositories--><g id="elem_Repositories"><rect codeLine="33" fill="#F1F1F1" height="126.2031" id="Repositories" rx="2.5" ry="2.5" style="stroke:#181818;stroke-width:0.5;" width="259" x="1091" y="210"/><ellipse cx="1176.75" cy="226" fill="#ADD1B2" rx="11" ry="11" style="stroke:#181818;stroke-width:1.0;"/><path d="M1179.5156,221.875 Q1179.6719,221.6563 1179.8594,221.5469 Q1180.0469,221.4375 1180.2656,221.4375 Q1180.6406,221.4375 1180.875,221.7031 Q1181.1094,221.9531 1181.1094,222.5625 L1181.1094,224.0156 Q1181.1094,224.625 1180.875,224.8906 Q1180.6406,225.1563 1180.2656,225.1563 Q1179.9219,225.1563 1179.7188,224.9531 Q1179.5156,224.7656 1179.4063,224.25 Q1179.3594,223.8906 1179.1719,223.7031 Q1178.8438,223.3281 1178.2344,223.1094 Q1177.625,222.8906 1177,222.8906 Q1176.2344,222.8906 1175.5938,223.2188 Q1174.9688,223.5469 1174.4688,224.2969 Q1173.9844,225.0469 1173.9844,226.0781 L1173.9844,227.1719 Q1173.9844,228.4063 1174.875,229.2344 Q1175.7656,230.0469 1177.3594,230.0469 Q1178.2969,230.0469 1178.9531,229.7969 Q1179.3438,229.6406 1179.7656,229.2031 Q1180.0313,228.9375 1180.1719,228.8594 Q1180.3281,228.7813 1180.5313,228.7813 Q1180.8594,228.7813 1181.1094,229.0469 Q1181.375,229.2969 1181.375,229.6406 Q1181.375,229.9844 1181.0313,230.3906 Q1180.5313,230.9688 1179.7344,231.2969 Q1178.6563,231.75 1177.3594,231.75 Q1175.8438,231.75 1174.6406,231.125 Q1173.6563,230.625 1172.9688,229.5625 Q1172.2813,228.4844 1172.2813,227.2031 L1172.2813,226.0469 Q1172.2813,224.7188 1172.8906,223.5781 Q1173.5156,222.4219 1174.6094,221.8125 Q1175.7031,221.1875 1176.9375,221.1875 Q1177.6719,221.1875 1178.3125,221.3594 Q1178.9688,221.5156 1179.5156,221.875 Z " fill="#000000"/><text fill="#000000" font-family="sans-serif" font-size="14" lengthAdjust="spacing" textLength="79" x="1197.25" y="230.8535">Repositories</text><line style="stroke:#181818;stroke-width:0.5;" x1="1092" x2="1349" y1="242" y2="242"/><rect fill="none" height="6" style="stroke:#C82930;stroke-width:1.0;" width="6" x="1099" y="252.3203"/><text fill="#000000" font-family="sans-serif" font-size="14" lengthAdjust="spacing" textLength="79" x="1111" y="258.6738">Repositories</text><line style="stroke:#181818;stroke-width:0.5;" x1="1092" x2="1349" y1="265.6406" y2="265.6406"/><ellipse cx="1102" cy="278.9609" fill="#84BE84" rx="3" ry="3" style="stroke:#038048;stroke-width:1.0;"/><text fill="#000000" font-family="sans-serif" font-size="14" lengthAdjust="spacing" textLength="174" x="1111" y="282.3145">getInstance() : Repositories</text><ellipse cx="1102" cy="294.6016" fill="#84BE84" rx="3" ry="3" style="stroke:#038048;stroke-width:1.0;"/><text fill="#000000" font-family="sans-serif" font-size="14" lengthAdjust="spacing" textLength="233" x="1111" y="297.9551">getPropertySaleRequestRepository()</text><ellipse cx="1102" cy="310.2422" fill="#84BE84" rx="3" ry="3" style="stroke:#038048;stroke-width:1.0;"/><text fill="#000000" font-family="sans-serif" font-size="14" lengthAdjust="spacing" textLength="180" x="1111" y="313.5957">getPropertySaleRepository()</text><ellipse cx="1102" cy="325.8828" fill="#84BE84" rx="3" ry="3" style="stroke:#038048;stroke-width:1.0;"/><text fill="#000000" font-family="sans-serif" font-size="14" lengthAdjust="spacing" textLength="182" x="1111" y="329.2363">getStoreNetworkRepository()</text></g><!--class Property--><g id="elem_Property"><rect codeLine="41" fill="#F1F1F1" height="110.5625" id="Property" rx="2.5" ry="2.5" style="stroke:#181818;stroke-width:0.5;" width="210" x="918.5" y="1084"/><ellipse cx="992.25" cy="1100" fill="#A9DCDF" rx="11" ry="11" style="stroke:#181818;stroke-width:1.0;"/><path d="M994.4375,1101.7656 L990.2969,1101.7656 L989.875,1102.7969 L990.2969,1102.7969 Q990.9063,1102.7969 991.1719,1103.0313 Q991.4375,1103.2656 991.4375,1103.6563 Q991.4375,1104.0313 991.1719,1104.2656 Q990.9063,1104.5 990.2969,1104.5 L988,1104.5 Q987.3906,1104.5 987.1406,1104.2656 Q986.875,1104.0313 986.875,1103.6406 Q986.875,1103.2656 987.1563,1103.0313 Q987.4219,1102.7813 988.0469,1102.7969 L990.7188,1096.1406 L989.6094,1096.1406 Q989,1096.1406 988.7344,1095.9063 Q988.4688,1095.6719 988.4688,1095.2813 Q988.4688,1094.9063 988.7344,1094.6719 Q989,1094.4375 989.6094,1094.4375 L993.2813,1094.4375 L996.6719,1102.7969 Q997.2656,1102.7969 997.4531,1102.9375 Q997.8438,1103.2031 997.8438,1103.6563 Q997.8438,1104.0313 997.5781,1104.2656 Q997.3281,1104.5 996.7188,1104.5 L994.4219,1104.5 Q993.8125,1104.5 993.5469,1104.2656 Q993.2813,1104.0313 993.2813,1103.6406 Q993.2813,1103.2656 993.5469,1103.0313 Q993.8125,1102.7969 994.4219,1102.7969 L994.8438,1102.7969 L994.4375,1101.7656 Z M993.7188,1100.0625 L992.3594,1096.6875 L990.9844,1100.0625 L993.7188,1100.0625 Z " fill="#000000"/><text fill="#000000" font-family="sans-serif" font-size="14" font-style="italic" lengthAdjust="spacing" textLength="54" x="1012.75" y="1104.8535">Property</text><line style="stroke:#181818;stroke-width:0.5;" x1="919.5" x2="1127.5" y1="1116" y2="1116"/><rect fill="none" height="6" style="stroke:#C82930;stroke-width:1.0;" width="6" x="926.5" y="1126.3203"/><text fill="#000000" font-family="sans-serif" font-size="14" lengthAdjust="spacing" textLength="60" x="938.5" y="1132.6738">float area</text><rect fill="none" height="6" style="stroke:#C82930;stroke-width:1.0;" width="6" x="926.5" y="1141.9609"/><text fill="#000000" font-family="sans-serif" font-size="14" lengthAdjust="spacing" textLength="77" x="938.5" y="1148.3145">String street</text><rect fill="none" height="6" style="stroke:#C82930;stroke-width:1.0;" width="6" x="926.5" y="1157.6016"/><text fill="#000000" font-family="sans-serif" font-size="14" lengthAdjust="spacing" textLength="92" x="938.5" y="1163.9551">String zipCode</text><rect fill="none" height="6" style="stroke:#C82930;stroke-width:1.0;" width="6" x="926.5" y="1173.2422"/><text fill="#000000" font-family="sans-serif" font-size="14" lengthAdjust="spacing" textLength="184" x="938.5" y="1179.5957">float distanceFromCityCenter</text><line style="stroke:#181818;stroke-width:0.5;" x1="919.5" x2="1127.5" y1="1186.5625" y2="1186.5625"/></g><!--class Land--><g id="elem_Land"><rect codeLine="49" fill="#F1F1F1" height="48" id="Land" rx="2.5" ry="2.5" style="stroke:#181818;stroke-width:0.5;" width="64" x="1076.5" y="1302.5"/><ellipse cx="1091.5" cy="1318.5" fill="#ADD1B2" rx="11" ry="11" style="stroke:#181818;stroke-width:1.0;"/><path d="M1094.2656,1314.375 Q1094.4219,1314.1563 1094.6094,1314.0469 Q1094.7969,1313.9375 1095.0156,1313.9375 Q1095.3906,1313.9375 1095.625,1314.2031 Q1095.8594,1314.4531 1095.8594,1315.0625 L1095.8594,1316.5156 Q1095.8594,1317.125 1095.625,1317.3906 Q1095.3906,1317.6563 1095.0156,1317.6563 Q1094.6719,1317.6563 1094.4688,1317.4531 Q1094.2656,1317.2656 1094.1563,1316.75 Q1094.1094,1316.3906 1093.9219,1316.2031 Q1093.5938,1315.8281 1092.9844,1315.6094 Q1092.375,1315.3906 1091.75,1315.3906 Q1090.9844,1315.3906 1090.3438,1315.7188 Q1089.7188,1316.0469 1089.2188,1316.7969 Q1088.7344,1317.5469 1088.7344,1318.5781 L1088.7344,1319.6719 Q1088.7344,1320.9063 1089.625,1321.7344 Q1090.5156,1322.5469 1092.1094,1322.5469 Q1093.0469,1322.5469 1093.7031,1322.2969 Q1094.0938,1322.1406 1094.5156,1321.7031 Q1094.7813,1321.4375 1094.9219,1321.3594 Q1095.0781,1321.2813 1095.2813,1321.2813 Q1095.6094,1321.2813 1095.8594,1321.5469 Q1096.125,1321.7969 1096.125,1322.1406 Q1096.125,1322.4844 1095.7813,1322.8906 Q1095.2813,1323.4688 1094.4844,1323.7969 Q1093.4063,1324.25 1092.1094,1324.25 Q1090.5938,1324.25 1089.3906,1323.625 Q1088.4063,1323.125 1087.7188,1322.0625 Q1087.0313,1320.9844 1087.0313,1319.7031 L1087.0313,1318.5469 Q1087.0313,1317.2188 1087.6406,1316.0781 Q1088.2656,1314.9219 1089.3594,1314.3125 Q1090.4531,1313.6875 1091.6875,1313.6875 Q1092.4219,1313.6875 1093.0625,1313.8594 Q1093.7188,1314.0156 1094.2656,1314.375 Z " fill="#000000"/><text fill="#000000" font-family="sans-serif" font-size="14" lengthAdjust="spacing" textLength="32" x="1105.5" y="1323.3535">Land</text><line style="stroke:#181818;stroke-width:0.5;" x1="1077.5" x2="1139.5" y1="1334.5" y2="1334.5"/><line style="stroke:#181818;stroke-width:0.5;" x1="1077.5" x2="1139.5" y1="1342.5" y2="1342.5"/></g><!--class City--><g id="elem_City"><rect codeLine="53" fill="#F1F1F1" height="63.6406" id="City" rx="2.5" ry="2.5" style="stroke:#181818;stroke-width:0.5;" width="102" x="886.5" y="1646"/><ellipse cx="922.2" cy="1662" fill="#ADD1B2" rx="11" ry="11" style="stroke:#181818;stroke-width:1.0;"/><path d="M924.9656,1657.875 Q925.1219,1657.6563 925.3094,1657.5469 Q925.4969,1657.4375 925.7156,1657.4375 Q926.0906,1657.4375 926.325,1657.7031 Q926.5594,1657.9531 926.5594,1658.5625 L926.5594,1660.0156 Q926.5594,1660.625 926.325,1660.8906 Q926.0906,1661.1563 925.7156,1661.1563 Q925.3719,1661.1563 925.1688,1660.9531 Q924.9656,1660.7656 924.8563,1660.25 Q924.8094,1659.8906 924.6219,1659.7031 Q924.2938,1659.3281 923.6844,1659.1094 Q923.075,1658.8906 922.45,1658.8906 Q921.6844,1658.8906 921.0438,1659.2188 Q920.4188,1659.5469 919.9188,1660.2969 Q919.4344,1661.0469 919.4344,1662.0781 L919.4344,1663.1719 Q919.4344,1664.4063 920.325,1665.2344 Q921.2156,1666.0469 922.8094,1666.0469 Q923.7469,1666.0469 924.4031,1665.7969 Q924.7938,1665.6406 925.2156,1665.2031 Q925.4813,1664.9375 925.6219,1664.8594 Q925.7781,1664.7813 925.9813,1664.7813 Q926.3094,1664.7813 926.5594,1665.0469 Q926.825,1665.2969 926.825,1665.6406 Q926.825,1665.9844 926.4813,1666.3906 Q925.9813,1666.9688 925.1844,1667.2969 Q924.1063,1667.75 922.8094,1667.75 Q921.2938,1667.75 920.0906,1667.125 Q919.1063,1666.625 918.4188,1665.5625 Q917.7313,1664.4844 917.7313,1663.2031 L917.7313,1662.0469 Q917.7313,1660.7188 918.3406,1659.5781 Q918.9656,1658.4219 920.0594,1657.8125 Q921.1531,1657.1875 922.3875,1657.1875 Q923.1219,1657.1875 923.7625,1657.3594 Q924.4188,1657.5156 924.9656,1657.875 Z " fill="#000000"/><text fill="#000000" font-family="sans-serif" font-size="14" lengthAdjust="spacing" textLength="24" x="940.8" y="1666.8535">City</text><line style="stroke:#181818;stroke-width:0.5;" x1="887.5" x2="987.5" y1="1678" y2="1678"/><rect fill="none" height="6" style="stroke:#C82930;stroke-width:1.0;" width="6" x="894.5" y="1688.3203"/><text fill="#000000" font-family="sans-serif" font-size="14" lengthAdjust="spacing" textLength="76" x="906.5" y="1694.6738">String name</text><line style="stroke:#181818;stroke-width:0.5;" x1="887.5" x2="987.5" y1="1701.6406" y2="1701.6406"/></g><!--class ResidentialProperty--><g id="elem_ResidentialProperty"><rect codeLine="57" fill="#F1F1F1" height="110.5625" id="ResidentialProperty" rx="2.5" ry="2.5" style="stroke:#181818;stroke-width:0.5;" width="176" x="680.5" y="1271"/><ellipse cx="704.5" cy="1287" fill="#A9DCDF" rx="11" ry="11" style="stroke:#181818;stroke-width:1.0;"/><path d="M706.6875,1288.7656 L702.5469,1288.7656 L702.125,1289.7969 L702.5469,1289.7969 Q703.1563,1289.7969 703.4219,1290.0313 Q703.6875,1290.2656 703.6875,1290.6563 Q703.6875,1291.0313 703.4219,1291.2656 Q703.1563,1291.5 702.5469,1291.5 L700.25,1291.5 Q699.6406,1291.5 699.3906,1291.2656 Q699.125,1291.0313 699.125,1290.6406 Q699.125,1290.2656 699.4063,1290.0313 Q699.6719,1289.7813 700.2969,1289.7969 L702.9688,1283.1406 L701.8594,1283.1406 Q701.25,1283.1406 700.9844,1282.9063 Q700.7188,1282.6719 700.7188,1282.2813 Q700.7188,1281.9063 700.9844,1281.6719 Q701.25,1281.4375 701.8594,1281.4375 L705.5313,1281.4375 L708.9219,1289.7969 Q709.5156,1289.7969 709.7031,1289.9375 Q710.0938,1290.2031 710.0938,1290.6563 Q710.0938,1291.0313 709.8281,1291.2656 Q709.5781,1291.5 708.9688,1291.5 L706.6719,1291.5 Q706.0625,1291.5 705.7969,1291.2656 Q705.5313,1291.0313 705.5313,1290.6406 Q705.5313,1290.2656 705.7969,1290.0313 Q706.0625,1289.7969 706.6719,1289.7969 L707.0938,1289.7969 L706.6875,1288.7656 Z M705.9688,1287.0625 L704.6094,1283.6875 L703.2344,1287.0625 L705.9688,1287.0625 Z " fill="#000000"/><text fill="#000000" font-family="sans-serif" font-size="14" font-style="italic" lengthAdjust="spacing" textLength="124" x="720.5" y="1291.8535">ResidentialProperty</text><line style="stroke:#181818;stroke-width:0.5;" x1="681.5" x2="855.5" y1="1303" y2="1303"/><rect fill="none" height="6" style="stroke:#C82930;stroke-width:1.0;" width="6" x="688.5" y="1313.3203"/><text fill="#000000" font-family="sans-serif" font-size="14" lengthAdjust="spacing" textLength="127" x="700.5" y="1319.6738">numberOfBedrooms</text><rect fill="none" height="6" style="stroke:#C82930;stroke-width:1.0;" width="6" x="688.5" y="1328.9609"/><text fill="#000000" font-family="sans-serif" font-size="14" lengthAdjust="spacing" textLength="131" x="700.5" y="1335.3145">numberOfBathrooms</text><rect fill="none" height="6" style="stroke:#C82930;stroke-width:1.0;" width="6" x="688.5" y="1344.6016"/><text fill="#000000" font-family="sans-serif" font-size="14" lengthAdjust="spacing" textLength="150" x="700.5" y="1350.9551">numerOfParkingSpaces</text><rect fill="none" height="6" style="stroke:#C82930;stroke-width:1.0;" width="6" x="688.5" y="1360.2422"/><text fill="#000000" font-family="sans-serif" font-size="14" lengthAdjust="spacing" textLength="123" x="700.5" y="1366.5957">availableEquipment</text><line style="stroke:#181818;stroke-width:0.5;" x1="681.5" x2="855.5" y1="1373.5625" y2="1373.5625"/></g><!--class Apartment--><g id="elem_Apartment"><rect codeLine="64" fill="#F1F1F1" height="48" id="Apartment" rx="2.5" ry="2.5" style="stroke:#181818;stroke-width:0.5;" width="97" x="540" y="1490"/><ellipse cx="555" cy="1506" fill="#ADD1B2" rx="11" ry="11" style="stroke:#181818;stroke-width:1.0;"/><path d="M557.7656,1501.875 Q557.9219,1501.6563 558.1094,1501.5469 Q558.2969,1501.4375 558.5156,1501.4375 Q558.8906,1501.4375 559.125,1501.7031 Q559.3594,1501.9531 559.3594,1502.5625 L559.3594,1504.0156 Q559.3594,1504.625 559.125,1504.8906 Q558.8906,1505.1563 558.5156,1505.1563 Q558.1719,1505.1563 557.9688,1504.9531 Q557.7656,1504.7656 557.6563,1504.25 Q557.6094,1503.8906 557.4219,1503.7031 Q557.0938,1503.3281 556.4844,1503.1094 Q555.875,1502.8906 555.25,1502.8906 Q554.4844,1502.8906 553.8438,1503.2188 Q553.2188,1503.5469 552.7188,1504.2969 Q552.2344,1505.0469 552.2344,1506.0781 L552.2344,1507.1719 Q552.2344,1508.4063 553.125,1509.2344 Q554.0156,1510.0469 555.6094,1510.0469 Q556.5469,1510.0469 557.2031,1509.7969 Q557.5938,1509.6406 558.0156,1509.2031 Q558.2813,1508.9375 558.4219,1508.8594 Q558.5781,1508.7813 558.7813,1508.7813 Q559.1094,1508.7813 559.3594,1509.0469 Q559.625,1509.2969 559.625,1509.6406 Q559.625,1509.9844 559.2813,1510.3906 Q558.7813,1510.9688 557.9844,1511.2969 Q556.9063,1511.75 555.6094,1511.75 Q554.0938,1511.75 552.8906,1511.125 Q551.9063,1510.625 551.2188,1509.5625 Q550.5313,1508.4844 550.5313,1507.2031 L550.5313,1506.0469 Q550.5313,1504.7188 551.1406,1503.5781 Q551.7656,1502.4219 552.8594,1501.8125 Q553.9531,1501.1875 555.1875,1501.1875 Q555.9219,1501.1875 556.5625,1501.3594 Q557.2188,1501.5156 557.7656,1501.875 Z " fill="#000000"/><text fill="#000000" font-family="sans-serif" font-size="14" lengthAdjust="spacing" textLength="65" x="569" y="1510.8535">Apartment</text><line style="stroke:#181818;stroke-width:0.5;" x1="541" x2="636" y1="1522" y2="1522"/><line style="stroke:#181818;stroke-width:0.5;" x1="541" x2="636" y1="1530" y2="1530"/></g><!--class House--><g id="elem_House"><rect codeLine="68" fill="#F1F1F1" height="94.9219" id="House" rx="2.5" ry="2.5" style="stroke:#181818;stroke-width:0.5;" width="193" x="672" y="1466.5"/><ellipse cx="744.25" cy="1482.5" fill="#ADD1B2" rx="11" ry="11" style="stroke:#181818;stroke-width:1.0;"/><path d="M747.0156,1478.375 Q747.1719,1478.1563 747.3594,1478.0469 Q747.5469,1477.9375 747.7656,1477.9375 Q748.1406,1477.9375 748.375,1478.2031 Q748.6094,1478.4531 748.6094,1479.0625 L748.6094,1480.5156 Q748.6094,1481.125 748.375,1481.3906 Q748.1406,1481.6563 747.7656,1481.6563 Q747.4219,1481.6563 747.2188,1481.4531 Q747.0156,1481.2656 746.9063,1480.75 Q746.8594,1480.3906 746.6719,1480.2031 Q746.3438,1479.8281 745.7344,1479.6094 Q745.125,1479.3906 744.5,1479.3906 Q743.7344,1479.3906 743.0938,1479.7188 Q742.4688,1480.0469 741.9688,1480.7969 Q741.4844,1481.5469 741.4844,1482.5781 L741.4844,1483.6719 Q741.4844,1484.9063 742.375,1485.7344 Q743.2656,1486.5469 744.8594,1486.5469 Q745.7969,1486.5469 746.4531,1486.2969 Q746.8438,1486.1406 747.2656,1485.7031 Q747.5313,1485.4375 747.6719,1485.3594 Q747.8281,1485.2813 748.0313,1485.2813 Q748.3594,1485.2813 748.6094,1485.5469 Q748.875,1485.7969 748.875,1486.1406 Q748.875,1486.4844 748.5313,1486.8906 Q748.0313,1487.4688 747.2344,1487.7969 Q746.1563,1488.25 744.8594,1488.25 Q743.3438,1488.25 742.1406,1487.625 Q741.1563,1487.125 740.4688,1486.0625 Q739.7813,1484.9844 739.7813,1483.7031 L739.7813,1482.5469 Q739.7813,1481.2188 740.3906,1480.0781 Q741.0156,1478.9219 742.1094,1478.3125 Q743.2031,1477.6875 744.4375,1477.6875 Q745.1719,1477.6875 745.8125,1477.8594 Q746.4688,1478.0156 747.0156,1478.375 Z " fill="#000000"/><text fill="#000000" font-family="sans-serif" font-size="14" lengthAdjust="spacing" textLength="40" x="764.75" y="1487.3535">House</text><line style="stroke:#181818;stroke-width:0.5;" x1="673" x2="864" y1="1498.5" y2="1498.5"/><rect fill="none" height="6" style="stroke:#C82930;stroke-width:1.0;" width="6" x="680" y="1508.8203"/><text fill="#000000" font-family="sans-serif" font-size="14" lengthAdjust="spacing" textLength="137" x="692" y="1515.1738">existanceOfBasement</text><rect fill="none" height="6" style="stroke:#C82930;stroke-width:1.0;" width="6" x="680" y="1524.4609"/><text fill="#000000" font-family="sans-serif" font-size="14" lengthAdjust="spacing" textLength="167" x="692" y="1530.8145">existanceOfInhabitableLoft</text><rect fill="none" height="6" style="stroke:#C82930;stroke-width:1.0;" width="6" x="680" y="1540.1016"/><text fill="#000000" font-family="sans-serif" font-size="14" lengthAdjust="spacing" textLength="82" x="692" y="1546.4551">sunExposure</text><line style="stroke:#181818;stroke-width:0.5;" x1="673" x2="864" y1="1553.4219" y2="1553.4219"/></g><!--class AplicationSession--><g id="elem_AplicationSession"><rect codeLine="74" fill="#F1F1F1" height="79.2813" id="AplicationSession" rx="2.5" ry="2.5" style="stroke:#181818;stroke-width:0.5;" width="158" x="268.5" y="233.5"/><ellipse cx="290.25" cy="249.5" fill="#ADD1B2" rx="11" ry="11" style="stroke:#181818;stroke-width:1.0;"/><path d="M293.0156,245.375 Q293.1719,245.1563 293.3594,245.0469 Q293.5469,244.9375 293.7656,244.9375 Q294.1406,244.9375 294.375,245.2031 Q294.6094,245.4531 294.6094,246.0625 L294.6094,247.5156 Q294.6094,248.125 294.375,248.3906 Q294.1406,248.6563 293.7656,248.6563 Q293.4219,248.6563 293.2188,248.4531 Q293.0156,248.2656 292.9063,247.75 Q292.8594,247.3906 292.6719,247.2031 Q292.3438,246.8281 291.7344,246.6094 Q291.125,246.3906 290.5,246.3906 Q289.7344,246.3906 289.0938,246.7188 Q288.4688,247.0469 287.9688,247.7969 Q287.4844,248.5469 287.4844,249.5781 L287.4844,250.6719 Q287.4844,251.9063 288.375,252.7344 Q289.2656,253.5469 290.8594,253.5469 Q291.7969,253.5469 292.4531,253.2969 Q292.8438,253.1406 293.2656,252.7031 Q293.5313,252.4375 293.6719,252.3594 Q293.8281,252.2813 294.0313,252.2813 Q294.3594,252.2813 294.6094,252.5469 Q294.875,252.7969 294.875,253.1406 Q294.875,253.4844 294.5313,253.8906 Q294.0313,254.4688 293.2344,254.7969 Q292.1563,255.25 290.8594,255.25 Q289.3438,255.25 288.1406,254.625 Q287.1563,254.125 286.4688,253.0625 Q285.7813,251.9844 285.7813,250.7031 L285.7813,249.5469 Q285.7813,248.2188 286.3906,247.0781 Q287.0156,245.9219 288.1094,245.3125 Q289.2031,244.6875 290.4375,244.6875 Q291.1719,244.6875 291.8125,244.8594 Q292.4688,245.0156 293.0156,245.375 Z " fill="#000000"/><text fill="#000000" font-family="sans-serif" font-size="14" lengthAdjust="spacing" textLength="111" x="305.75" y="254.3535">AplicationSession</text><line style="stroke:#181818;stroke-width:0.5;" x1="269.5" x2="425.5" y1="265.5" y2="265.5"/><line style="stroke:#181818;stroke-width:0.5;" x1="269.5" x2="425.5" y1="273.5" y2="273.5"/><ellipse cx="279.5" cy="286.8203" fill="#84BE84" rx="3" ry="3" style="stroke:#038048;stroke-width:1.0;"/><text fill="#000000" font-family="sans-serif" font-size="14" lengthAdjust="spacing" textLength="120" x="288.5" y="290.1738">static getInstance()</text><ellipse cx="279.5" cy="302.4609" fill="#84BE84" rx="3" ry="3" style="stroke:#038048;stroke-width:1.0;"/><text fill="#000000" font-family="sans-serif" font-size="14" lengthAdjust="spacing" textLength="132" x="288.5" y="305.8145">get CurrentSession()</text></g><!--class UserSession--><g id="elem_UserSession"><rect codeLine="80" fill="#F1F1F1" height="63.6406" id="UserSession" rx="2.5" ry="2.5" style="stroke:#181818;stroke-width:0.5;" width="111" x="292" y="397"/><ellipse cx="307" cy="413" fill="#ADD1B2" rx="11" ry="11" style="stroke:#181818;stroke-width:1.0;"/><path d="M309.7656,408.875 Q309.9219,408.6563 310.1094,408.5469 Q310.2969,408.4375 310.5156,408.4375 Q310.8906,408.4375 311.125,408.7031 Q311.3594,408.9531 311.3594,409.5625 L311.3594,411.0156 Q311.3594,411.625 311.125,411.8906 Q310.8906,412.1563 310.5156,412.1563 Q310.1719,412.1563 309.9688,411.9531 Q309.7656,411.7656 309.6563,411.25 Q309.6094,410.8906 309.4219,410.7031 Q309.0938,410.3281 308.4844,410.1094 Q307.875,409.8906 307.25,409.8906 Q306.4844,409.8906 305.8438,410.2188 Q305.2188,410.5469 304.7188,411.2969 Q304.2344,412.0469 304.2344,413.0781 L304.2344,414.1719 Q304.2344,415.4063 305.125,416.2344 Q306.0156,417.0469 307.6094,417.0469 Q308.5469,417.0469 309.2031,416.7969 Q309.5938,416.6406 310.0156,416.2031 Q310.2813,415.9375 310.4219,415.8594 Q310.5781,415.7813 310.7813,415.7813 Q311.1094,415.7813 311.3594,416.0469 Q311.625,416.2969 311.625,416.6406 Q311.625,416.9844 311.2813,417.3906 Q310.7813,417.9688 309.9844,418.2969 Q308.9063,418.75 307.6094,418.75 Q306.0938,418.75 304.8906,418.125 Q303.9063,417.625 303.2188,416.5625 Q302.5313,415.4844 302.5313,414.2031 L302.5313,413.0469 Q302.5313,411.7188 303.1406,410.5781 Q303.7656,409.4219 304.8594,408.8125 Q305.9531,408.1875 307.1875,408.1875 Q307.9219,408.1875 308.5625,408.3594 Q309.2188,408.5156 309.7656,408.875 Z " fill="#000000"/><text fill="#000000" font-family="sans-serif" font-size="14" lengthAdjust="spacing" textLength="79" x="321" y="417.8535">UserSession</text><line style="stroke:#181818;stroke-width:0.5;" x1="293" x2="402" y1="429" y2="429"/><line style="stroke:#181818;stroke-width:0.5;" x1="293" x2="402" y1="437" y2="437"/><ellipse cx="303" cy="450.3203" fill="#84BE84" rx="3" ry="3" style="stroke:#038048;stroke-width:1.0;"/><text fill="#000000" font-family="sans-serif" font-size="14" lengthAdjust="spacing" textLength="70" x="312" y="453.6738">getUserId()</text></g><!--class Owner--><g id="elem_Owner"><rect codeLine="85" fill="#F1F1F1" height="48" id="Owner" rx="2.5" ry="2.5" style="stroke:#181818;stroke-width:0.5;" width="73" x="1276" y="1302.5"/><ellipse cx="1291" cy="1318.5" fill="#ADD1B2" rx="11" ry="11" style="stroke:#181818;stroke-width:1.0;"/><path d="M1293.7656,1314.375 Q1293.9219,1314.1563 1294.1094,1314.0469 Q1294.2969,1313.9375 1294.5156,1313.9375 Q1294.8906,1313.9375 1295.125,1314.2031 Q1295.3594,1314.4531 1295.3594,1315.0625 L1295.3594,1316.5156 Q1295.3594,1317.125 1295.125,1317.3906 Q1294.8906,1317.6563 1294.5156,1317.6563 Q1294.1719,1317.6563 1293.9688,1317.4531 Q1293.7656,1317.2656 1293.6563,1316.75 Q1293.6094,1316.3906 1293.4219,1316.2031 Q1293.0938,1315.8281 1292.4844,1315.6094 Q1291.875,1315.3906 1291.25,1315.3906 Q1290.4844,1315.3906 1289.8438,1315.7188 Q1289.2188,1316.0469 1288.7188,1316.7969 Q1288.2344,1317.5469 1288.2344,1318.5781 L1288.2344,1319.6719 Q1288.2344,1320.9063 1289.125,1321.7344 Q1290.0156,1322.5469 1291.6094,1322.5469 Q1292.5469,1322.5469 1293.2031,1322.2969 Q1293.5938,1322.1406 1294.0156,1321.7031 Q1294.2813,1321.4375 1294.4219,1321.3594 Q1294.5781,1321.2813 1294.7813,1321.2813 Q1295.1094,1321.2813 1295.3594,1321.5469 Q1295.625,1321.7969 1295.625,1322.1406 Q1295.625,1322.4844 1295.2813,1322.8906 Q1294.7813,1323.4688 1293.9844,1323.7969 Q1292.9063,1324.25 1291.6094,1324.25 Q1290.0938,1324.25 1288.8906,1323.625 Q1287.9063,1323.125 1287.2188,1322.0625 Q1286.5313,1320.9844 1286.5313,1319.7031 L1286.5313,1318.5469 Q1286.5313,1317.2188 1287.1406,1316.0781 Q1287.7656,1314.9219 1288.8594,1314.3125 Q1289.9531,1313.6875 1291.1875,1313.6875 Q1291.9219,1313.6875 1292.5625,1313.8594 Q1293.2188,1314.0156 1293.7656,1314.375 Z " fill="#000000"/><text fill="#000000" font-family="sans-serif" font-size="14" lengthAdjust="spacing" textLength="41" x="1305" y="1323.3535">Owner</text><line style="stroke:#181818;stroke-width:0.5;" x1="1277" x2="1348" y1="1334.5" y2="1334.5"/><line style="stroke:#181818;stroke-width:0.5;" x1="1277" x2="1348" y1="1342.5" y2="1342.5"/></g><!--class Client--><g id="elem_Client"><rect codeLine="89" fill="#F1F1F1" height="48" id="Client" rx="2.5" ry="2.5" style="stroke:#181818;stroke-width:0.5;" width="68" x="1335.5" y="1490"/><ellipse cx="1350.5" cy="1506" fill="#ADD1B2" rx="11" ry="11" style="stroke:#181818;stroke-width:1.0;"/><path d="M1353.2656,1501.875 Q1353.4219,1501.6563 1353.6094,1501.5469 Q1353.7969,1501.4375 1354.0156,1501.4375 Q1354.3906,1501.4375 1354.625,1501.7031 Q1354.8594,1501.9531 1354.8594,1502.5625 L1354.8594,1504.0156 Q1354.8594,1504.625 1354.625,1504.8906 Q1354.3906,1505.1563 1354.0156,1505.1563 Q1353.6719,1505.1563 1353.4688,1504.9531 Q1353.2656,1504.7656 1353.1563,1504.25 Q1353.1094,1503.8906 1352.9219,1503.7031 Q1352.5938,1503.3281 1351.9844,1503.1094 Q1351.375,1502.8906 1350.75,1502.8906 Q1349.9844,1502.8906 1349.3438,1503.2188 Q1348.7188,1503.5469 1348.2188,1504.2969 Q1347.7344,1505.0469 1347.7344,1506.0781 L1347.7344,1507.1719 Q1347.7344,1508.4063 1348.625,1509.2344 Q1349.5156,1510.0469 1351.1094,1510.0469 Q1352.0469,1510.0469 1352.7031,1509.7969 Q1353.0938,1509.6406 1353.5156,1509.2031 Q1353.7813,1508.9375 1353.9219,1508.8594 Q1354.0781,1508.7813 1354.2813,1508.7813 Q1354.6094,1508.7813 1354.8594,1509.0469 Q1355.125,1509.2969 1355.125,1509.6406 Q1355.125,1509.9844 1354.7813,1510.3906 Q1354.2813,1510.9688 1353.4844,1511.2969 Q1352.4063,1511.75 1351.1094,1511.75 Q1349.5938,1511.75 1348.3906,1511.125 Q1347.4063,1510.625 1346.7188,1509.5625 Q1346.0313,1508.4844 1346.0313,1507.2031 L1346.0313,1506.0469 Q1346.0313,1504.7188 1346.6406,1503.5781 Q1347.2656,1502.4219 1348.3594,1501.8125 Q1349.4531,1501.1875 1350.6875,1501.1875 Q1351.4219,1501.1875 1352.0625,1501.3594 Q1352.7188,1501.5156 1353.2656,1501.875 Z " fill="#000000"/><text fill="#000000" font-family="sans-serif" font-size="14" lengthAdjust="spacing" textLength="36" x="1364.5" y="1510.8535">Client</text><line style="stroke:#181818;stroke-width:0.5;" x1="1336.5" x2="1402.5" y1="1522" y2="1522"/><line style="stroke:#181818;stroke-width:0.5;" x1="1336.5" x2="1402.5" y1="1530" y2="1530"/></g><!--class ClientRepository--><g id="elem_ClientRepository"><rect codeLine="92" fill="#F1F1F1" height="48" id="ClientRepository" rx="2.5" ry="2.5" style="stroke:#181818;stroke-width:0.5;" width="136" x="1339.5" y="491"/><ellipse cx="1354.5" cy="507" fill="#ADD1B2" rx="11" ry="11" style="stroke:#181818;stroke-width:1.0;"/><path d="M1357.2656,502.875 Q1357.4219,502.6563 1357.6094,502.5469 Q1357.7969,502.4375 1358.0156,502.4375 Q1358.3906,502.4375 1358.625,502.7031 Q1358.8594,502.9531 1358.8594,503.5625 L1358.8594,505.0156 Q1358.8594,505.625 1358.625,505.8906 Q1358.3906,506.1563 1358.0156,506.1563 Q1357.6719,506.1563 1357.4688,505.9531 Q1357.2656,505.7656 1357.1563,505.25 Q1357.1094,504.8906 1356.9219,504.7031 Q1356.5938,504.3281 1355.9844,504.1094 Q1355.375,503.8906 1354.75,503.8906 Q1353.9844,503.8906 1353.3438,504.2188 Q1352.7188,504.5469 1352.2188,505.2969 Q1351.7344,506.0469 1351.7344,507.0781 L1351.7344,508.1719 Q1351.7344,509.4063 1352.625,510.2344 Q1353.5156,511.0469 1355.1094,511.0469 Q1356.0469,511.0469 1356.7031,510.7969 Q1357.0938,510.6406 1357.5156,510.2031 Q1357.7813,509.9375 1357.9219,509.8594 Q1358.0781,509.7813 1358.2813,509.7813 Q1358.6094,509.7813 1358.8594,510.0469 Q1359.125,510.2969 1359.125,510.6406 Q1359.125,510.9844 1358.7813,511.3906 Q1358.2813,511.9688 1357.4844,512.2969 Q1356.4063,512.75 1355.1094,512.75 Q1353.5938,512.75 1352.3906,512.125 Q1351.4063,511.625 1350.7188,510.5625 Q1350.0313,509.4844 1350.0313,508.2031 L1350.0313,507.0469 Q1350.0313,505.7188 1350.6406,504.5781 Q1351.2656,503.4219 1352.3594,502.8125 Q1353.4531,502.1875 1354.6875,502.1875 Q1355.4219,502.1875 1356.0625,502.3594 Q1356.7188,502.5156 1357.2656,502.875 Z " fill="#000000"/><text fill="#000000" font-family="sans-serif" font-size="14" lengthAdjust="spacing" textLength="104" x="1368.5" y="511.8535">ClientRepository</text><line style="stroke:#181818;stroke-width:0.5;" x1="1340.5" x2="1474.5" y1="523" y2="523"/><line style="stroke:#181818;stroke-width:0.5;" x1="1340.5" x2="1474.5" y1="531" y2="531"/></g><!--class StoreNetworkRepository--><g id="elem_StoreNetworkRepository"><rect codeLine="95" fill="#F1F1F1" height="63.6406" id="StoreNetworkRepository" rx="2.5" ry="2.5" style="stroke:#181818;stroke-width:0.5;" width="193" x="1444" y="397"/><ellipse cx="1463.05" cy="413" fill="#ADD1B2" rx="11" ry="11" style="stroke:#181818;stroke-width:1.0;"/><path d="M1465.8156,408.875 Q1465.9719,408.6563 1466.1594,408.5469 Q1466.3469,408.4375 1466.5656,408.4375 Q1466.9406,408.4375 1467.175,408.7031 Q1467.4094,408.9531 1467.4094,409.5625 L1467.4094,411.0156 Q1467.4094,411.625 1467.175,411.8906 Q1466.9406,412.1563 1466.5656,412.1563 Q1466.2219,412.1563 1466.0188,411.9531 Q1465.8156,411.7656 1465.7063,411.25 Q1465.6594,410.8906 1465.4719,410.7031 Q1465.1438,410.3281 1464.5344,410.1094 Q1463.925,409.8906 1463.3,409.8906 Q1462.5344,409.8906 1461.8938,410.2188 Q1461.2688,410.5469 1460.7688,411.2969 Q1460.2844,412.0469 1460.2844,413.0781 L1460.2844,414.1719 Q1460.2844,415.4063 1461.175,416.2344 Q1462.0656,417.0469 1463.6594,417.0469 Q1464.5969,417.0469 1465.2531,416.7969 Q1465.6438,416.6406 1466.0656,416.2031 Q1466.3313,415.9375 1466.4719,415.8594 Q1466.6281,415.7813 1466.8313,415.7813 Q1467.1594,415.7813 1467.4094,416.0469 Q1467.675,416.2969 1467.675,416.6406 Q1467.675,416.9844 1467.3313,417.3906 Q1466.8313,417.9688 1466.0344,418.2969 Q1464.9563,418.75 1463.6594,418.75 Q1462.1438,418.75 1460.9406,418.125 Q1459.9563,417.625 1459.2688,416.5625 Q1458.5813,415.4844 1458.5813,414.2031 L1458.5813,413.0469 Q1458.5813,411.7188 1459.1906,410.5781 Q1459.8156,409.4219 1460.9094,408.8125 Q1462.0031,408.1875 1463.2375,408.1875 Q1463.9719,408.1875 1464.6125,408.3594 Q1465.2688,408.5156 1465.8156,408.875 Z " fill="#000000"/><text fill="#000000" font-family="sans-serif" font-size="14" lengthAdjust="spacing" textLength="152" x="1477.95" y="417.8535">StoreNetworkRepository</text><line style="stroke:#181818;stroke-width:0.5;" x1="1445" x2="1636" y1="429" y2="429"/><line style="stroke:#181818;stroke-width:0.5;" x1="1445" x2="1636" y1="437" y2="437"/><ellipse cx="1455" cy="450.3203" fill="#84BE84" rx="3" ry="3" style="stroke:#038048;stroke-width:1.0;"/><text fill="#000000" font-family="sans-serif" font-size="14" lengthAdjust="spacing" textLength="167" x="1464" y="453.6738">getAgentFromEmail(email)</text></g><!--class StoreNetwork--><g id="elem_StoreNetwork"><rect codeLine="100" fill="#F1F1F1" height="63.6406" id="StoreNetwork" rx="2.5" ry="2.5" style="stroke:#181818;stroke-width:0.5;" width="193" x="1445" y="850"/><ellipse cx="1495.25" cy="866" fill="#ADD1B2" rx="11" ry="11" style="stroke:#181818;stroke-width:1.0;"/><path d="M1498.0156,861.875 Q1498.1719,861.6563 1498.3594,861.5469 Q1498.5469,861.4375 1498.7656,861.4375 Q1499.1406,861.4375 1499.375,861.7031 Q1499.6094,861.9531 1499.6094,862.5625 L1499.6094,864.0156 Q1499.6094,864.625 1499.375,864.8906 Q1499.1406,865.1563 1498.7656,865.1563 Q1498.4219,865.1563 1498.2188,864.9531 Q1498.0156,864.7656 1497.9063,864.25 Q1497.8594,863.8906 1497.6719,863.7031 Q1497.3438,863.3281 1496.7344,863.1094 Q1496.125,862.8906 1495.5,862.8906 Q1494.7344,862.8906 1494.0938,863.2188 Q1493.4688,863.5469 1492.9688,864.2969 Q1492.4844,865.0469 1492.4844,866.0781 L1492.4844,867.1719 Q1492.4844,868.4063 1493.375,869.2344 Q1494.2656,870.0469 1495.8594,870.0469 Q1496.7969,870.0469 1497.4531,869.7969 Q1497.8438,869.6406 1498.2656,869.2031 Q1498.5313,868.9375 1498.6719,868.8594 Q1498.8281,868.7813 1499.0313,868.7813 Q1499.3594,868.7813 1499.6094,869.0469 Q1499.875,869.2969 1499.875,869.6406 Q1499.875,869.9844 1499.5313,870.3906 Q1499.0313,870.9688 1498.2344,871.2969 Q1497.1563,871.75 1495.8594,871.75 Q1494.3438,871.75 1493.1406,871.125 Q1492.1563,870.625 1491.4688,869.5625 Q1490.7813,868.4844 1490.7813,867.2031 L1490.7813,866.0469 Q1490.7813,864.7188 1491.3906,863.5781 Q1492.0156,862.4219 1493.1094,861.8125 Q1494.2031,861.1875 1495.4375,861.1875 Q1496.1719,861.1875 1496.8125,861.3594 Q1497.4688,861.5156 1498.0156,861.875 Z " fill="#000000"/><text fill="#000000" font-family="sans-serif" font-size="14" lengthAdjust="spacing" textLength="84" x="1515.75" y="870.8535">StoreNetwork</text><line style="stroke:#181818;stroke-width:0.5;" x1="1446" x2="1637" y1="882" y2="882"/><line style="stroke:#181818;stroke-width:0.5;" x1="1446" x2="1637" y1="890" y2="890"/><ellipse cx="1456" cy="903.3203" fill="#84BE84" rx="3" ry="3" style="stroke:#038048;stroke-width:1.0;"/><text fill="#000000" font-family="sans-serif" font-size="14" lengthAdjust="spacing" textLength="167" x="1465" y="906.6738">getAgentFromEmail(email)</text></g><!--class Store--><g id="elem_Store"><rect codeLine="105" fill="#F1F1F1" height="63.6406" id="Store" rx="2.5" ry="2.5" style="stroke:#181818;stroke-width:0.5;" width="193" x="1456" y="1107.5"/><ellipse cx="1531.25" cy="1123.5" fill="#ADD1B2" rx="11" ry="11" style="stroke:#181818;stroke-width:1.0;"/><path d="M1534.0156,1119.375 Q1534.1719,1119.1563 1534.3594,1119.0469 Q1534.5469,1118.9375 1534.7656,1118.9375 Q1535.1406,1118.9375 1535.375,1119.2031 Q1535.6094,1119.4531 1535.6094,1120.0625 L1535.6094,1121.5156 Q1535.6094,1122.125 1535.375,1122.3906 Q1535.1406,1122.6563 1534.7656,1122.6563 Q1534.4219,1122.6563 1534.2188,1122.4531 Q1534.0156,1122.2656 1533.9063,1121.75 Q1533.8594,1121.3906 1533.6719,1121.2031 Q1533.3438,1120.8281 1532.7344,1120.6094 Q1532.125,1120.3906 1531.5,1120.3906 Q1530.7344,1120.3906 1530.0938,1120.7188 Q1529.4688,1121.0469 1528.9688,1121.7969 Q1528.4844,1122.5469 1528.4844,1123.5781 L1528.4844,1124.6719 Q1528.4844,1125.9063 1529.375,1126.7344 Q1530.2656,1127.5469 1531.8594,1127.5469 Q1532.7969,1127.5469 1533.4531,1127.2969 Q1533.8438,1127.1406 1534.2656,1126.7031 Q1534.5313,1126.4375 1534.6719,1126.3594 Q1534.8281,1126.2813 1535.0313,1126.2813 Q1535.3594,1126.2813 1535.6094,1126.5469 Q1535.875,1126.7969 1535.875,1127.1406 Q1535.875,1127.4844 1535.5313,1127.8906 Q1535.0313,1128.4688 1534.2344,1128.7969 Q1533.1563,1129.25 1531.8594,1129.25 Q1530.3438,1129.25 1529.1406,1128.625 Q1528.1563,1128.125 1527.4688,1127.0625 Q1526.7813,1125.9844 1526.7813,1124.7031 L1526.7813,1123.5469 Q1526.7813,1122.2188 1527.3906,1121.0781 Q1528.0156,1119.9219 1529.1094,1119.3125 Q1530.2031,1118.6875 1531.4375,1118.6875 Q1532.1719,1118.6875 1532.8125,1118.8594 Q1533.4688,1119.0156 1534.0156,1119.375 Z " fill="#000000"/><text fill="#000000" font-family="sans-serif" font-size="14" lengthAdjust="spacing" textLength="34" x="1551.75" y="1128.3535">Store</text><line style="stroke:#181818;stroke-width:0.5;" x1="1457" x2="1648" y1="1139.5" y2="1139.5"/><line style="stroke:#181818;stroke-width:0.5;" x1="1457" x2="1648" y1="1147.5" y2="1147.5"/><ellipse cx="1467" cy="1160.8203" fill="#84BE84" rx="3" ry="3" style="stroke:#038048;stroke-width:1.0;"/><text fill="#000000" font-family="sans-serif" font-size="14" lengthAdjust="spacing" textLength="167" x="1476" y="1164.1738">getAgentFromEmail(email)</text></g><!--class Employee--><g id="elem_Employee"><rect codeLine="110" fill="#F1F1F1" height="141.8438" id="Employee" rx="2.5" ry="2.5" style="stroke:#181818;stroke-width:0.5;" width="148" x="1480.5" y="1443"/><ellipse cx="1519.8" cy="1459" fill="#ADD1B2" rx="11" ry="11" style="stroke:#181818;stroke-width:1.0;"/><path d="M1522.5656,1454.875 Q1522.7219,1454.6563 1522.9094,1454.5469 Q1523.0969,1454.4375 1523.3156,1454.4375 Q1523.6906,1454.4375 1523.925,1454.7031 Q1524.1594,1454.9531 1524.1594,1455.5625 L1524.1594,1457.0156 Q1524.1594,1457.625 1523.925,1457.8906 Q1523.6906,1458.1563 1523.3156,1458.1563 Q1522.9719,1458.1563 1522.7688,1457.9531 Q1522.5656,1457.7656 1522.4563,1457.25 Q1522.4094,1456.8906 1522.2219,1456.7031 Q1521.8938,1456.3281 1521.2844,1456.1094 Q1520.675,1455.8906 1520.05,1455.8906 Q1519.2844,1455.8906 1518.6438,1456.2188 Q1518.0188,1456.5469 1517.5188,1457.2969 Q1517.0344,1458.0469 1517.0344,1459.0781 L1517.0344,1460.1719 Q1517.0344,1461.4063 1517.925,1462.2344 Q1518.8156,1463.0469 1520.4094,1463.0469 Q1521.3469,1463.0469 1522.0031,1462.7969 Q1522.3938,1462.6406 1522.8156,1462.2031 Q1523.0813,1461.9375 1523.2219,1461.8594 Q1523.3781,1461.7813 1523.5813,1461.7813 Q1523.9094,1461.7813 1524.1594,1462.0469 Q1524.425,1462.2969 1524.425,1462.6406 Q1524.425,1462.9844 1524.0813,1463.3906 Q1523.5813,1463.9688 1522.7844,1464.2969 Q1521.7063,1464.75 1520.4094,1464.75 Q1518.8938,1464.75 1517.6906,1464.125 Q1516.7063,1463.625 1516.0188,1462.5625 Q1515.3313,1461.4844 1515.3313,1460.2031 L1515.3313,1459.0469 Q1515.3313,1457.7188 1515.9406,1456.5781 Q1516.5656,1455.4219 1517.6594,1454.8125 Q1518.7531,1454.1875 1519.9875,1454.1875 Q1520.7219,1454.1875 1521.3625,1454.3594 Q1522.0188,1454.5156 1522.5656,1454.875 Z " fill="#000000"/><text fill="#000000" font-family="sans-serif" font-size="14" lengthAdjust="spacing" textLength="62" x="1539.2" y="1463.8535">Employee</text><line style="stroke:#181818;stroke-width:0.5;" x1="1481.5" x2="1627.5" y1="1475" y2="1475"/><rect fill="none" height="6" style="stroke:#C82930;stroke-width:1.0;" width="6" x="1488.5" y="1485.3203"/><text fill="#000000" font-family="sans-serif" font-size="14" lengthAdjust="spacing" textLength="76" x="1500.5" y="1491.6738">String name</text><rect fill="none" height="6" style="stroke:#C82930;stroke-width:1.0;" width="6" x="1488.5" y="1500.9609"/><text fill="#000000" font-family="sans-serif" font-size="14" lengthAdjust="spacing" textLength="122" x="1500.5" y="1507.3145">int civilCardNumber</text><rect fill="none" height="6" style="stroke:#C82930;stroke-width:1.0;" width="6" x="1488.5" y="1516.6016"/><text fill="#000000" font-family="sans-serif" font-size="14" lengthAdjust="spacing" textLength="86" x="1500.5" y="1522.9551">int taxNumber</text><rect fill="none" height="6" style="stroke:#C82930;stroke-width:1.0;" width="6" x="1488.5" y="1532.2422"/><text fill="#000000" font-family="sans-serif" font-size="14" lengthAdjust="spacing" textLength="85" x="1500.5" y="1538.5957">String Adress</text><rect fill="none" height="6" style="stroke:#C82930;stroke-width:1.0;" width="6" x="1488.5" y="1547.8828"/><text fill="#000000" font-family="sans-serif" font-size="14" lengthAdjust="spacing" textLength="71" x="1500.5" y="1554.2363">Email email</text><rect fill="none" height="6" style="stroke:#C82930;stroke-width:1.0;" width="6" x="1488.5" y="1563.5234"/><text fill="#000000" font-family="sans-serif" font-size="14" lengthAdjust="spacing" textLength="108" x="1500.5" y="1569.877">int phoneNumber</text><line style="stroke:#181818;stroke-width:0.5;" x1="1481.5" x2="1627.5" y1="1576.8438" y2="1576.8438"/></g><!--class Agent--><g id="elem_Agent"><rect codeLine="119" fill="#F1F1F1" height="63.6406" id="Agent" rx="2.5" ry="2.5" style="stroke:#181818;stroke-width:0.5;" width="69" x="1456" y="1294.5"/><ellipse cx="1471" cy="1310.5" fill="#ADD1B2" rx="11" ry="11" style="stroke:#181818;stroke-width:1.0;"/><path d="M1473.7656,1306.375 Q1473.9219,1306.1563 1474.1094,1306.0469 Q1474.2969,1305.9375 1474.5156,1305.9375 Q1474.8906,1305.9375 1475.125,1306.2031 Q1475.3594,1306.4531 1475.3594,1307.0625 L1475.3594,1308.5156 Q1475.3594,1309.125 1475.125,1309.3906 Q1474.8906,1309.6563 1474.5156,1309.6563 Q1474.1719,1309.6563 1473.9688,1309.4531 Q1473.7656,1309.2656 1473.6563,1308.75 Q1473.6094,1308.3906 1473.4219,1308.2031 Q1473.0938,1307.8281 1472.4844,1307.6094 Q1471.875,1307.3906 1471.25,1307.3906 Q1470.4844,1307.3906 1469.8438,1307.7188 Q1469.2188,1308.0469 1468.7188,1308.7969 Q1468.2344,1309.5469 1468.2344,1310.5781 L1468.2344,1311.6719 Q1468.2344,1312.9063 1469.125,1313.7344 Q1470.0156,1314.5469 1471.6094,1314.5469 Q1472.5469,1314.5469 1473.2031,1314.2969 Q1473.5938,1314.1406 1474.0156,1313.7031 Q1474.2813,1313.4375 1474.4219,1313.3594 Q1474.5781,1313.2813 1474.7813,1313.2813 Q1475.1094,1313.2813 1475.3594,1313.5469 Q1475.625,1313.7969 1475.625,1314.1406 Q1475.625,1314.4844 1475.2813,1314.8906 Q1474.7813,1315.4688 1473.9844,1315.7969 Q1472.9063,1316.25 1471.6094,1316.25 Q1470.0938,1316.25 1468.8906,1315.625 Q1467.9063,1315.125 1467.2188,1314.0625 Q1466.5313,1312.9844 1466.5313,1311.7031 L1466.5313,1310.5469 Q1466.5313,1309.2188 1467.1406,1308.0781 Q1467.7656,1306.9219 1468.8594,1306.3125 Q1469.9531,1305.6875 1471.1875,1305.6875 Q1471.9219,1305.6875 1472.5625,1305.8594 Q1473.2188,1306.0156 1473.7656,1306.375 Z " fill="#000000"/><text fill="#000000" font-family="sans-serif" font-size="14" lengthAdjust="spacing" textLength="37" x="1485" y="1315.3535">Agent</text><line style="stroke:#181818;stroke-width:0.5;" x1="1457" x2="1524" y1="1326.5" y2="1326.5"/><line style="stroke:#181818;stroke-width:0.5;" x1="1457" x2="1524" y1="1334.5" y2="1334.5"/><text fill="#000000" font-family="sans-serif" font-size="14" lengthAdjust="spacing" textLength="4" x="1462" y="1351.1738">&#160;</text></g><!--class State--><g id="elem_State"><rect fill="#F1F1F1" height="48" id="State" rx="2.5" ry="2.5" style="stroke:#181818;stroke-width:0.5;" width="65" x="1176" y="1302.5"/><ellipse cx="1191" cy="1318.5" fill="#ADD1B2" rx="11" ry="11" style="stroke:#181818;stroke-width:1.0;"/><path d="M1193.7656,1314.375 Q1193.9219,1314.1563 1194.1094,1314.0469 Q1194.2969,1313.9375 1194.5156,1313.9375 Q1194.8906,1313.9375 1195.125,1314.2031 Q1195.3594,1314.4531 1195.3594,1315.0625 L1195.3594,1316.5156 Q1195.3594,1317.125 1195.125,1317.3906 Q1194.8906,1317.6563 1194.5156,1317.6563 Q1194.1719,1317.6563 1193.9688,1317.4531 Q1193.7656,1317.2656 1193.6563,1316.75 Q1193.6094,1316.3906 1193.4219,1316.2031 Q1193.0938,1315.8281 1192.4844,1315.6094 Q1191.875,1315.3906 1191.25,1315.3906 Q1190.4844,1315.3906 1189.8438,1315.7188 Q1189.2188,1316.0469 1188.7188,1316.7969 Q1188.2344,1317.5469 1188.2344,1318.5781 L1188.2344,1319.6719 Q1188.2344,1320.9063 1189.125,1321.7344 Q1190.0156,1322.5469 1191.6094,1322.5469 Q1192.5469,1322.5469 1193.2031,1322.2969 Q1193.5938,1322.1406 1194.0156,1321.7031 Q1194.2813,1321.4375 1194.4219,1321.3594 Q1194.5781,1321.2813 1194.7813,1321.2813 Q1195.1094,1321.2813 1195.3594,1321.5469 Q1195.625,1321.7969 1195.625,1322.1406 Q1195.625,1322.4844 1195.2813,1322.8906 Q1194.7813,1323.4688 1193.9844,1323.7969 Q1192.9063,1324.25 1191.6094,1324.25 Q1190.0938,1324.25 1188.8906,1323.625 Q1187.9063,1323.125 1187.2188,1322.0625 Q1186.5313,1320.9844 1186.5313,1319.7031 L1186.5313,1318.5469 Q1186.5313,1317.2188 1187.1406,1316.0781 Q1187.7656,1314.9219 1188.8594,1314.3125 Q1189.9531,1313.6875 1191.1875,1313.6875 Q1191.9219,1313.6875 1192.5625,1313.8594 Q1193.2188,1314.0156 1193.7656,1314.375 Z " fill="#000000"/><text fill="#000000" font-family="sans-serif" font-size="14" lengthAdjust="spacing" textLength="33" x="1205" y="1323.3535">State</text><line style="stroke:#181818;stroke-width:0.5;" x1="1177" x2="1240" y1="1334.5" y2="1334.5"/><line style="stroke:#181818;stroke-width:0.5;" x1="1177" x2="1240" y1="1342.5" y2="1342.5"/></g><!--class District--><g id="elem_District"><rect fill="#F1F1F1" height="48" id="District" rx="2.5" ry="2.5" style="stroke:#181818;stroke-width:0.5;" width="75" x="1006" y="1490"/><ellipse cx="1021" cy="1506" fill="#ADD1B2" rx="11" ry="11" style="stroke:#181818;stroke-width:1.0;"/><path d="M1023.7656,1501.875 Q1023.9219,1501.6563 1024.1094,1501.5469 Q1024.2969,1501.4375 1024.5156,1501.4375 Q1024.8906,1501.4375 1025.125,1501.7031 Q1025.3594,1501.9531 1025.3594,1502.5625 L1025.3594,1504.0156 Q1025.3594,1504.625 1025.125,1504.8906 Q1024.8906,1505.1563 1024.5156,1505.1563 Q1024.1719,1505.1563 1023.9688,1504.9531 Q1023.7656,1504.7656 1023.6563,1504.25 Q1023.6094,1503.8906 1023.4219,1503.7031 Q1023.0938,1503.3281 1022.4844,1503.1094 Q1021.875,1502.8906 1021.25,1502.8906 Q1020.4844,1502.8906 1019.8438,1503.2188 Q1019.2188,1503.5469 1018.7188,1504.2969 Q1018.2344,1505.0469 1018.2344,1506.0781 L1018.2344,1507.1719 Q1018.2344,1508.4063 1019.125,1509.2344 Q1020.0156,1510.0469 1021.6094,1510.0469 Q1022.5469,1510.0469 1023.2031,1509.7969 Q1023.5938,1509.6406 1024.0156,1509.2031 Q1024.2813,1508.9375 1024.4219,1508.8594 Q1024.5781,1508.7813 1024.7813,1508.7813 Q1025.1094,1508.7813 1025.3594,1509.0469 Q1025.625,1509.2969 1025.625,1509.6406 Q1025.625,1509.9844 1025.2813,1510.3906 Q1024.7813,1510.9688 1023.9844,1511.2969 Q1022.9063,1511.75 1021.6094,1511.75 Q1020.0938,1511.75 1018.8906,1511.125 Q1017.9063,1510.625 1017.2188,1509.5625 Q1016.5313,1508.4844 1016.5313,1507.2031 L1016.5313,1506.0469 Q1016.5313,1504.7188 1017.1406,1503.5781 Q1017.7656,1502.4219 1018.8594,1501.8125 Q1019.9531,1501.1875 1021.1875,1501.1875 Q1021.9219,1501.1875 1022.5625,1501.3594 Q1023.2188,1501.5156 1023.7656,1501.875 Z " fill="#000000"/><text fill="#000000" font-family="sans-serif" font-size="14" lengthAdjust="spacing" textLength="43" x="1035" y="1510.8535">District</text><line style="stroke:#181818;stroke-width:0.5;" x1="1007" x2="1080" y1="1522" y2="1522"/><line style="stroke:#181818;stroke-width:0.5;" x1="1007" x2="1080" y1="1530" y2="1530"/></g><!--class LocationsRepository--><g id="elem_LocationsRepository"><rect fill="#F1F1F1" height="48" id="LocationsRepository" rx="2.5" ry="2.5" style="stroke:#181818;stroke-width:0.5;" width="161" x="1188" y="663"/><ellipse cx="1203" cy="679" fill="#ADD1B2" rx="11" ry="11" style="stroke:#181818;stroke-width:1.0;"/><path d="M1205.7656,674.875 Q1205.9219,674.6563 1206.1094,674.5469 Q1206.2969,674.4375 1206.5156,674.4375 Q1206.8906,674.4375 1207.125,674.7031 Q1207.3594,674.9531 1207.3594,675.5625 L1207.3594,677.0156 Q1207.3594,677.625 1207.125,677.8906 Q1206.8906,678.1563 1206.5156,678.1563 Q1206.1719,678.1563 1205.9688,677.9531 Q1205.7656,677.7656 1205.6563,677.25 Q1205.6094,676.8906 1205.4219,676.7031 Q1205.0938,676.3281 1204.4844,676.1094 Q1203.875,675.8906 1203.25,675.8906 Q1202.4844,675.8906 1201.8438,676.2188 Q1201.2188,676.5469 1200.7188,677.2969 Q1200.2344,678.0469 1200.2344,679.0781 L1200.2344,680.1719 Q1200.2344,681.4063 1201.125,682.2344 Q1202.0156,683.0469 1203.6094,683.0469 Q1204.5469,683.0469 1205.2031,682.7969 Q1205.5938,682.6406 1206.0156,682.2031 Q1206.2813,681.9375 1206.4219,681.8594 Q1206.5781,681.7813 1206.7813,681.7813 Q1207.1094,681.7813 1207.3594,682.0469 Q1207.625,682.2969 1207.625,682.6406 Q1207.625,682.9844 1207.2813,683.3906 Q1206.7813,683.9688 1205.9844,684.2969 Q1204.9063,684.75 1203.6094,684.75 Q1202.0938,684.75 1200.8906,684.125 Q1199.9063,683.625 1199.2188,682.5625 Q1198.5313,681.4844 1198.5313,680.2031 L1198.5313,679.0469 Q1198.5313,677.7188 1199.1406,676.5781 Q1199.7656,675.4219 1200.8594,674.8125 Q1201.9531,674.1875 1203.1875,674.1875 Q1203.9219,674.1875 1204.5625,674.3594 Q1205.2188,674.5156 1205.7656,674.875 Z " fill="#000000"/><text fill="#000000" font-family="sans-serif" font-size="14" lengthAdjust="spacing" textLength="129" x="1217" y="683.8535">LocationsRepository</text><line style="stroke:#181818;stroke-width:0.5;" x1="1189" x2="1348" y1="695" y2="695"/><line style="stroke:#181818;stroke-width:0.5;" x1="1189" x2="1348" y1="703" y2="703"/></g><!--class Location--><g id="elem_Location"><rect fill="#F1F1F1" height="48" id="Location" rx="2.5" ry="2.5" style="stroke:#181818;stroke-width:0.5;" width="86" x="1000.5" y="1771"/><ellipse cx="1015.5" cy="1787" fill="#ADD1B2" rx="11" ry="11" style="stroke:#181818;stroke-width:1.0;"/><path d="M1018.2656,1782.875 Q1018.4219,1782.6563 1018.6094,1782.5469 Q1018.7969,1782.4375 1019.0156,1782.4375 Q1019.3906,1782.4375 1019.625,1782.7031 Q1019.8594,1782.9531 1019.8594,1783.5625 L1019.8594,1785.0156 Q1019.8594,1785.625 1019.625,1785.8906 Q1019.3906,1786.1563 1019.0156,1786.1563 Q1018.6719,1786.1563 1018.4688,1785.9531 Q1018.2656,1785.7656 1018.1563,1785.25 Q1018.1094,1784.8906 1017.9219,1784.7031 Q1017.5938,1784.3281 1016.9844,1784.1094 Q1016.375,1783.8906 1015.75,1783.8906 Q1014.9844,1783.8906 1014.3438,1784.2188 Q1013.7188,1784.5469 1013.2188,1785.2969 Q1012.7344,1786.0469 1012.7344,1787.0781 L1012.7344,1788.1719 Q1012.7344,1789.4063 1013.625,1790.2344 Q1014.5156,1791.0469 1016.1094,1791.0469 Q1017.0469,1791.0469 1017.7031,1790.7969 Q1018.0938,1790.6406 1018.5156,1790.2031 Q1018.7813,1789.9375 1018.9219,1789.8594 Q1019.0781,1789.7813 1019.2813,1789.7813 Q1019.6094,1789.7813 1019.8594,1790.0469 Q1020.125,1790.2969 1020.125,1790.6406 Q1020.125,1790.9844 1019.7813,1791.3906 Q1019.2813,1791.9688 1018.4844,1792.2969 Q1017.4063,1792.75 1016.1094,1792.75 Q1014.5938,1792.75 1013.3906,1792.125 Q1012.4063,1791.625 1011.7188,1790.5625 Q1011.0313,1789.4844 1011.0313,1788.2031 L1011.0313,1787.0469 Q1011.0313,1785.7188 1011.6406,1784.5781 Q1012.2656,1783.4219 1013.3594,1782.8125 Q1014.4531,1782.1875 1015.6875,1782.1875 Q1016.4219,1782.1875 1017.0625,1782.3594 Q1017.7188,1782.5156 1018.2656,1782.875 Z " fill="#000000"/><text fill="#000000" font-family="sans-serif" font-size="14" lengthAdjust="spacing" textLength="54" x="1029.5" y="1791.8535">Location</text><line style="stroke:#181818;stroke-width:0.5;" x1="1001.5" x2="1085.5" y1="1803" y2="1803"/><line style="stroke:#181818;stroke-width:0.5;" x1="1001.5" x2="1085.5" y1="1811" y2="1811"/></g><!--link ListPropertySaleRequestUI to ListPropertySaleRequestsController--><g id="link_ListPropertySaleRequestUI_ListPropertySaleRequestsController"><path codeLine="125" d="M208.16,78 C218.14,78 228.13,78 238.11,78 " fill="none" id="ListPropertySaleRequestUI-to-ListPropertySaleRequestsController" style="stroke:#181818;stroke-width:1.0;stroke-dasharray:7.0,7.0;"/><polygon fill="#181818" points="243.34,78,234.34,74,238.34,78,234.34,82,243.34,78" style="stroke:#181818;stroke-width:1.0;"/></g><!--link ListPropertySaleRequestsController to Repositories--><g id="link_ListPropertySaleRequestsController_Repositories"><path codeLine="127" d="M894.43,149.09 C957.73,172.95 1027.22,199.14 1085.72,221.2 " fill="none" id="ListPropertySaleRequestsController-to-Repositories" style="stroke:#181818;stroke-width:1.0;stroke-dasharray:7.0,7.0;"/><polygon fill="#181818" points="1090.63,223.05,1083.6075,216.1446,1085.9484,221.2944,1080.7985,223.6352,1090.63,223.05" style="stroke:#181818;stroke-width:1.0;"/></g><!--link ListPropertySaleRequestsController to PropertySaleRepository--><g id="link_ListPropertySaleRequestsController_PropertySaleRepository"><path codeLine="128" d="M721.84,149.4 C740.81,244.86 776.91,409.37 809.5,461 C836.78,504.22 881.8,540.97 917.78,565.81 " fill="none" id="ListPropertySaleRequestsController-to-PropertySaleRepository" style="stroke:#181818;stroke-width:1.0;stroke-dasharray:7.0,7.0;"/><polygon fill="#181818" points="922.12,568.78,916.9562,560.3934,917.9952,565.954,912.4346,566.9931,922.12,568.78" style="stroke:#181818;stroke-width:1.0;"/></g><!--link Repositories to PropertySaleRepository--><g id="link_Repositories_PropertySaleRepository"><path codeLine="130" d="M1173.46,336.09 C1122.17,403.78 1041.86,509.77 1000.35,564.56 " fill="none" id="Repositories-to-PropertySaleRepository" style="stroke:#181818;stroke-width:1.0;"/><polygon fill="#181818" points="997.19,568.73,1005.8174,563.9794,1000.2129,564.7473,999.445,559.1428,997.19,568.73" style="stroke:#181818;stroke-width:1.0;"/><text fill="#000000" font-family="sans-serif" font-size="13" lengthAdjust="spacing" textLength="137" x="1128.5" y="433.7686">PropertySaleRepository</text><text fill="#000000" font-family="sans-serif" font-size="13" lengthAdjust="spacing" textLength="7" x="994.6066" y="558.0048">1</text></g><!--link Repositories to PropertySaleRequestRepository--><g id="link_Repositories_PropertySaleRequestRepository"><path codeLine="131" d="M1090.83,307.9 C1025.99,328.15 948.01,357.67 884.5,397 C806.45,445.33 815.61,496.01 734.5,539 C709.41,552.3 681.57,562.7 653.49,570.84 " fill="none" id="Repositories-to-PropertySaleRequestRepository" style="stroke:#181818;stroke-width:1.0;"/><polygon fill="#181818" points="648.62,572.23,658.3715,573.6113,653.4287,570.8602,656.1798,565.9173,648.62,572.23" style="stroke:#181818;stroke-width:1.0;"/><text fill="#000000" font-family="sans-serif" font-size="13" lengthAdjust="spacing" textLength="185" x="885.5" y="433.7686">PropertySaleRequestRepository</text><text fill="#000000" font-family="sans-serif" font-size="13" lengthAdjust="spacing" textLength="7" x="656.2223" y="568.6185">1</text></g><!--link Repositories to ClientRepository--><g id="link_Repositories_ClientRepository"><path codeLine="132" d="M1313.76,336.09 C1324.22,345.35 1334.11,355.39 1342.5,366 C1371.5,402.67 1390.28,454.28 1399.87,485.87 " fill="none" id="Repositories-to-ClientRepository" style="stroke:#181818;stroke-width:1.0;"/><polygon fill="#181818" points="1401.32,490.76,1402.5786,480.9919,1399.8898,485.9689,1394.9128,483.2802,1401.32,490.76" style="stroke:#181818;stroke-width:1.0;"/><text fill="#000000" font-family="sans-serif" font-size="13" lengthAdjust="spacing" textLength="7" x="1391.7185" y="480.2031">1</text></g><!--link PropertySaleRepository to PropertySale--><g id="link_PropertySaleRepository_PropertySale"><path codeLine="134" d="M963.51,633.32 C960.28,661.76 959.89,703.98 962.34,735.74 " fill="none" id="PropertySaleRepository-to-PropertySale" style="stroke:#181818;stroke-width:1.0;"/><polygon fill="#181818" points="962.75,740.75,965.991,731.4497,962.336,735.7672,958.0185,732.1121,962.75,740.75" style="stroke:#181818;stroke-width:1.0;"/><text fill="#000000" font-family="sans-serif" font-size="13" lengthAdjust="spacing" textLength="5" x="955.3898" y="730.2128">*</text></g><!--link PropertySaleRepository to PropertySale--><g id="link_PropertySaleRepository_PropertySale"><path codeLine="183" d="M984.08,633.32 C987.5,661.76 987.92,703.98 985.32,735.74 " fill="none" id="PropertySaleRepository-to-PropertySale-1" style="stroke:#181818;stroke-width:1.0;"/><polygon fill="#181818" points="984.88,740.75,989.6628,732.1404,985.3236,735.7697,981.6943,731.4306,984.88,740.75" style="stroke:#181818;stroke-width:1.0;"/><text fill="#000000" font-family="sans-serif" font-size="13" lengthAdjust="spacing" textLength="20" x="965.1258" y="730.2128">0..*</text></g><!--link Repositories to Repositories--><g id="link_Repositories_Repositories"><path codeLine="136" d="M1350.14,257.11 C1370.84,259.44 1385,264.73 1385,273 C1385,280.56 1373.17,285.63 1355.33,288.22 " fill="none" id="Repositories-to-Repositories" style="stroke:#181818;stroke-width:1.0;"/><polygon fill="#181818" points="1350.14,288.89,1359.5787,291.7028,1355.0987,288.2488,1358.5527,283.7688,1350.14,288.89" style="stroke:#181818;stroke-width:1.0;"/><text fill="#000000" font-family="sans-serif" font-size="13" lengthAdjust="spacing" textLength="49" x="1391" y="277.7686">instance</text></g><!--reverse link Property to ResidentialProperty--><g id="link_Property_ResidentialProperty"><path codeLine="138" d="M919.04,1206.42 C909.98,1212.58 901.02,1218.83 892.5,1225 C872.75,1239.31 851.93,1255.65 833.1,1270.95 " fill="none" id="Property-backto-ResidentialProperty" style="stroke:#181818;stroke-width:1.0;"/><polygon fill="none" points="915.42,1200.42,935.94,1195.11,923.21,1212.05,915.42,1200.42" style="stroke:#181818;stroke-width:1.0;"/></g><!--reverse link Property to Land--><g id="link_Property_Land"><path codeLine="139" d="M1057.08,1213.59 C1071.56,1245.11 1087.5,1279.79 1097.73,1302.06 " fill="none" id="Property-backto-Land" style="stroke:#181818;stroke-width:1.0;"/><polygon fill="none" points="1050.53,1216.1,1048.54,1195.01,1063.25,1210.26,1050.53,1216.1" style="stroke:#181818;stroke-width:1.0;"/></g><!--reverse link ResidentialProperty to Apartment--><g id="link_ResidentialProperty_Apartment"><path codeLine="140" d="M699.91,1396.48 C684.88,1411.74 669.1,1427.86 654.5,1443 C639.54,1458.51 622.9,1476.16 610.07,1489.86 " fill="none" id="ResidentialProperty-backto-Apartment" style="stroke:#181818;stroke-width:1.0;"/><polygon fill="none" points="694.99,1391.5,714.02,1382.18,704.95,1401.33,694.99,1391.5" style="stroke:#181818;stroke-width:1.0;"/></g><!--reverse link ResidentialProperty to House--><g id="link_ResidentialProperty_House"><path codeLine="141" d="M768.5,1402.3 C768.5,1423.92 768.5,1446.89 768.5,1466.27 " fill="none" id="ResidentialProperty-backto-House" style="stroke:#181818;stroke-width:1.0;"/><polygon fill="none" points="761.5,1402.15,768.5,1382.15,775.5,1402.15,761.5,1402.15" style="stroke:#181818;stroke-width:1.0;"/></g><!--link Property to City--><g id="link_Property_City"><path codeLine="143" d="M1006.59,1195.39 C982.41,1305.09 943.79,1548.72 936.5,1640.81 " fill="none" id="Property-to-City" style="stroke:#181818;stroke-width:1.0;"/><polygon fill="#181818" points="936.12,1645.86,940.7776,1637.182,936.4915,1640.8738,932.7997,1636.5877,936.12,1645.86" style="stroke:#181818;stroke-width:1.0;"/><text fill="#000000" font-family="sans-serif" font-size="13" lengthAdjust="spacing" textLength="7" x="928.0525" y="1635.1632">1</text></g><!--link Property to City--><g id="link_Property_City"><path codeLine="155" d="M1023.28,1195.39 C1012.97,1302.14 975.28,1535.73 952.37,1633.06 " fill="none" id="Property-to-City-1" style="stroke:#181818;stroke-width:1.0;"/><polygon fill="none" points="949.24,1645.86,954.5499,1640.9809,952.0883,1634.2029,946.7785,1639.082,949.24,1645.86" style="stroke:#181818;stroke-width:1.0;"/><text fill="#000000" font-family="sans-serif" font-size="13" lengthAdjust="spacing" textLength="7" x="944.0425" y="1635.1632">1</text></g><!--link PropertySale to PropertySaleRequest--><g id="link_PropertySale_PropertySaleRequest"><path codeLine="145" d="M973.5,820.25 C973.5,849.59 973.5,890.39 973.5,923.73 " fill="none" id="PropertySale-to-PropertySaleRequest" style="stroke:#181818;stroke-width:1.0;"/><polygon fill="none" points="980.5,923.86,973.5,943.86,966.5,923.86,980.5,923.86" style="stroke:#181818;stroke-width:1.0;"/></g><!--link PropertySaleRequest to Property--><g id="link_PropertySaleRequest_Property"><path codeLine="147" d="M986.12,1023.36 C991.56,1040.14 998.06,1060.15 1004.1,1078.74 " fill="none" id="PropertySaleRequest-to-Property" style="stroke:#181818;stroke-width:1.0;"/><polygon fill="#181818" points="1005.79,1083.95,1006.8183,1074.155,1004.2475,1079.1939,999.2086,1076.623,1005.79,1083.95" style="stroke:#181818;stroke-width:1.0;"/><text fill="#000000" font-family="sans-serif" font-size="13" lengthAdjust="spacing" textLength="7" x="995.9399" y="1073.378">1</text></g><!--link PropertySaleRequestRepository to PropertySaleRequest--><g id="link_PropertySaleRequestRepository_PropertySaleRequest"><path codeLine="149" d="M499.73,633.14 C592.2,701.32 812.64,863.88 916.95,940.8 " fill="none" id="PropertySaleRequestRepository-to-PropertySaleRequest" style="stroke:#181818;stroke-width:1.0;"/><polygon fill="#181818" points="921.22,943.95,916.3514,935.3886,917.1962,940.9821,911.6027,941.8268,921.22,943.95" style="stroke:#181818;stroke-width:1.0;"/><text fill="#000000" font-family="sans-serif" font-size="13" lengthAdjust="spacing" textLength="5" x="906.1199" y="933.1582">*</text></g><!--link ListPropertySaleRequestsController to PropertySaleRequestRepository--><g id="link_ListPropertySaleRequestsController_PropertySaleRequestRepository"><path codeLine="151" d="M703.91,149.25 C698.38,202.44 686.22,276.3 659.5,336 C618.26,428.15 539.05,517.64 493.03,565.08 " fill="none" id="ListPropertySaleRequestsController-to-PropertySaleRequestRepository" style="stroke:#181818;stroke-width:1.0;stroke-dasharray:7.0,7.0;"/><polygon fill="#181818" points="489.5,568.7,498.649,565.0535,492.9925,565.122,492.9241,559.4655,489.5,568.7" style="stroke:#181818;stroke-width:1.0;"/></g><!--link Property to State--><g id="link_Property_State"><path codeLine="153" d="M1080.8,1195.17 C1104.75,1218.31 1132.72,1245.72 1157.5,1271 C1164.36,1278 1171.62,1285.62 1178.44,1292.88 " fill="none" id="Property-to-State" style="stroke:#181818;stroke-width:1.0;"/><polygon fill="none" points="1187.39,1302.47,1186.2184,1295.3547,1179.1998,1293.6995,1180.3714,1300.8148,1187.39,1302.47" style="stroke:#181818;stroke-width:1.0;"/><text fill="#000000" font-family="sans-serif" font-size="13" lengthAdjust="spacing" textLength="7" x="1173.4684" y="1291.585">1</text></g><!--link Property to District--><g id="link_Property_District"><path codeLine="154" d="M1026.43,1195.06 C1030.56,1272.06 1038,1410.55 1041.53,1476.35 " fill="none" id="Property-to-District" style="stroke:#181818;stroke-width:1.0;"/><polygon fill="none" points="1042.24,1489.61,1045.918,1483.4074,1041.6072,1477.6267,1037.9292,1483.8293,1042.24,1489.61" style="stroke:#181818;stroke-width:1.0;"/><text fill="#000000" font-family="sans-serif" font-size="13" lengthAdjust="spacing" textLength="7" x="1034.0203" y="1479.4019">1</text></g><!--link ListPropertySaleRequestsController to AplicationSession--><g id="link_ListPropertySaleRequestsController_AplicationSession"><path codeLine="157" d="M577.4,149.09 C525.93,176.61 468.64,207.24 424.13,231.03 " fill="none" id="ListPropertySaleRequestsController-to-AplicationSession" style="stroke:#181818;stroke-width:1.0;stroke-dasharray:7.0,7.0;"/><polygon fill="#181818" points="419.59,233.46,429.4132,232.7492,424.0006,231.1048,425.6449,225.6922,419.59,233.46" style="stroke:#181818;stroke-width:1.0;"/></g><!--link AplicationSession to AplicationSession--><g id="link_AplicationSession_AplicationSession"><path codeLine="158" d="M426.62,264.49 C446.56,265.06 461.5,267.9 461.5,273 C461.5,277.66 449.02,280.43 431.64,281.32 " fill="none" id="AplicationSession-to-AplicationSession" style="stroke:#181818;stroke-width:1.0;"/><polygon fill="#181818" points="426.62,281.51,435.7731,285.146,431.616,281.3096,435.4524,277.1525,426.62,281.51" style="stroke:#181818;stroke-width:1.0;"/><text fill="#000000" font-family="sans-serif" font-size="13" lengthAdjust="spacing" textLength="49" x="467.5" y="277.7686">instance</text></g><!--link AplicationSession to AplicationSession--><g id="link_AplicationSession_AplicationSession"><path codeLine="188" d="M426.53,256.7 C474.76,253.37 522.5,258.8 522.5,273 C522.5,286.7 478.06,292.24 431.61,289.62 " fill="none" id="AplicationSession-to-AplicationSession-1" style="stroke:#181818;stroke-width:1.0;"/><polygon fill="#181818" points="426.53,289.3,435.2605,293.8583,431.5201,289.6146,435.7638,285.8741,426.53,289.3" style="stroke:#181818;stroke-width:1.0;"/><text fill="#000000" font-family="sans-serif" font-size="13" lengthAdjust="spacing" textLength="49" x="528.5" y="277.7686">instance</text></g><!--link AplicationSession to UserSession--><g id="link_AplicationSession_UserSession"><path codeLine="159" d="M336.26,312.86 C334.17,337.05 334.25,367.96 336.48,391.66 " fill="none" id="AplicationSession-to-UserSession" style="stroke:#181818;stroke-width:1.0;"/><polygon fill="#181818" points="337.03,396.91,340.0827,387.5462,336.5155,391.9365,332.1251,388.3694,337.03,396.91" style="stroke:#181818;stroke-width:1.0;"/><text fill="#000000" font-family="sans-serif" font-size="13" lengthAdjust="spacing" textLength="7" x="326.9741" y="386.2242">1</text></g><!--link AplicationSession to UserSession--><g id="link_AplicationSession_UserSession"><path codeLine="189" d="M359.4,312.86 C361.61,337.05 361.53,367.96 359.16,391.66 " fill="none" id="AplicationSession-to-UserSession-1" style="stroke:#181818;stroke-width:1.0;"/><polygon fill="#181818" points="358.59,396.91,363.5675,388.4115,359.1469,391.9411,355.6172,387.5205,358.59,396.91" style="stroke:#181818;stroke-width:1.0;"/><text fill="#000000" font-family="sans-serif" font-size="13" lengthAdjust="spacing" textLength="7" x="353.2503" y="386.2242">1</text></g><!--link ListPropertySaleRequestsController to UserSession--><g id="link_ListPropertySaleRequestsController_UserSession"><path codeLine="160" d="M686.45,149.06 C664.28,215.59 629.47,309.31 601.5,336 C548.22,386.83 464.75,409.92 408.16,420.17 " fill="none" id="ListPropertySaleRequestsController-to-UserSession" style="stroke:#181818;stroke-width:1.0;stroke-dasharray:7.0,7.0;"/><polygon fill="#181818" points="403.12,421.07,412.679,423.4419,408.0436,420.1994,411.2861,415.5641,403.12,421.07" style="stroke:#181818;stroke-width:1.0;"/></g><!--link Repositories to LocationsRepository--><g id="link_Repositories_LocationsRepository"><path codeLine="162" d="M1253.28,336.27 C1261.77,355.26 1269.83,376.54 1274.5,397 C1297.84,499.29 1292.16,528.73 1280.5,633 C1279.58,641.23 1277.88,650.05 1276.04,658.08 " fill="none" id="Repositories-to-LocationsRepository" style="stroke:#181818;stroke-width:1.0;"/><polygon fill="#181818" points="1274.89,662.97,1280.8617,655.1381,1276.0455,658.1054,1273.0782,653.2892,1274.89,662.97" style="stroke:#181818;stroke-width:1.0;"/><text fill="#000000" font-family="sans-serif" font-size="13" lengthAdjust="spacing" textLength="7" x="1268.7028" y="652.085">1</text></g><!--link Repositories to StoreNetworkRepository--><g id="link_Repositories_StoreNetworkRepository"><path codeLine="163" d="M1350.21,334.76 C1372.04,345.11 1394.44,355.81 1415.5,366 C1434.4,375.14 1454.82,385.2 1473.58,394.5 " fill="none" id="Repositories-to-StoreNetworkRepository" style="stroke:#181818;stroke-width:1.0;"/><polygon fill="#181818" points="1478.31,396.85,1472.0296,389.2634,1473.8322,394.6253,1468.4702,396.4279,1478.31,396.85" style="stroke:#181818;stroke-width:1.0;"/><text fill="#000000" font-family="sans-serif" font-size="13" lengthAdjust="spacing" textLength="7" x="1456.9403" y="386.151">1</text></g><!--link LocationsRepository to State--><g id="link_LocationsRepository_State"><path codeLine="166" d="M1268.3,711.17 C1268.01,747.41 1267.5,819.68 1267.5,881 C1267.5,881 1267.5,881 1267.5,1140.5 C1267.5,1198.57 1240.78,1262.26 1223.31,1297.71 " fill="none" id="LocationsRepository-to-State" style="stroke:#181818;stroke-width:1.0;"/><polygon fill="#181818" points="1221.01,1302.31,1228.6046,1296.0393,1223.2403,1297.835,1221.4446,1292.4707,1221.01,1302.31" style="stroke:#181818;stroke-width:1.0;"/><text fill="#000000" font-family="sans-serif" font-size="13" lengthAdjust="spacing" textLength="20" x="1201.6846" y="1291.7666">1..*</text></g><!--link State to District--><g id="link_State_District"><path codeLine="167" d="M1187.94,1350.62 C1157.35,1385.01 1099.98,1449.5 1067.51,1486.01 " fill="none" id="State-to-District" style="stroke:#181818;stroke-width:1.0;"/><polygon fill="#181818" points="1064.06,1489.88,1073.0376,1485.8299,1067.3898,1486.1501,1067.0697,1480.5023,1064.06,1489.88" style="stroke:#181818;stroke-width:1.0;"/><text fill="#000000" font-family="sans-serif" font-size="13" lengthAdjust="spacing" textLength="20" x="1046.898" y="1479.3554">1..*</text></g><!--link District to City--><g id="link_District_City"><path codeLine="168" d="M1028.31,1538.21 C1010.69,1565.15 981.43,1609.87 960.89,1641.25 " fill="none" id="District-to-City" style="stroke:#181818;stroke-width:1.0;"/><polygon fill="#181818" points="957.93,1645.78,966.1957,1640.4249,960.6605,1641.5914,959.4939,1636.0561,957.93,1645.78" style="stroke:#181818;stroke-width:1.0;"/><text fill="#000000" font-family="sans-serif" font-size="13" lengthAdjust="spacing" textLength="20" x="964.5866" y="1635.0657">1..*</text></g><!--link State to Location--><g id="link_State_Location"><path codeLine="169" d="M1201.86,1350.75 C1183.47,1414.27 1129.27,1595.66 1069.5,1741 C1067.97,1744.73 1066.29,1748.57 1064.55,1752.39 " fill="none" id="State-to-Location" style="stroke:#181818;stroke-width:1.0;"/><polygon fill="none" points="1070.66,1755.83,1055.69,1770.82,1058.04,1749.76,1070.66,1755.83" style="stroke:#181818;stroke-width:1.0;"/></g><!--link District to Location--><g id="link_District_Location"><path codeLine="170" d="M1043.5,1538.31 C1043.5,1585.09 1043.5,1691.07 1043.5,1750.87 " fill="none" id="District-to-Location" style="stroke:#181818;stroke-width:1.0;"/><polygon fill="none" points="1050.5,1750.96,1043.5,1770.96,1036.5,1750.96,1050.5,1750.96" style="stroke:#181818;stroke-width:1.0;"/></g><!--link City to Location--><g id="link_City_Location"><path codeLine="171" d="M966.19,1710.12 C979.15,1724.19 994.6,1740.95 1008.27,1755.77 " fill="none" id="City-to-Location" style="stroke:#181818;stroke-width:1.0;"/><polygon fill="none" points="1013.78,1751.43,1022.19,1770.88,1003.49,1760.92,1013.78,1751.43" style="stroke:#181818;stroke-width:1.0;"/></g><!--link Location to Location--><g id="link_Location_Location"><path codeLine="172" d="M1086.81,1785 C1105.5,1784.18 1121.5,1787.51 1121.5,1795 C1121.5,1801.79 1108.36,1805.16 1091.99,1805.12 " fill="none" id="Location-to-Location" style="stroke:#181818;stroke-width:1.0;"/><polygon fill="#181818" points="1086.81,1805,1095.7162,1809.2046,1091.8087,1805.1143,1095.8991,1801.2067,1086.81,1805" style="stroke:#181818;stroke-width:1.0;"/></g><!--link StoreNetworkRepository to StoreNetwork--><g id="link_StoreNetworkRepository_StoreNetwork"><path codeLine="174" d="M1540.57,461.36 C1540.75,542.36 1541.23,758.29 1541.42,844.6 " fill="none" id="StoreNetworkRepository-to-StoreNetwork" style="stroke:#181818;stroke-width:1.0;"/><polygon fill="#181818" points="1541.43,849.85,1545.4043,840.8386,1541.4157,844.85,1537.4043,840.8615,1541.43,849.85" style="stroke:#181818;stroke-width:1.0;"/><text fill="#000000" font-family="sans-serif" font-size="13" lengthAdjust="spacing" textLength="5" x="1535.8678" y="839.151">*</text></g><!--link StoreNetwork to Store--><g id="link_StoreNetwork_Store"><path codeLine="175" d="M1542.84,914.07 C1544.88,961.52 1548.77,1051.8 1550.94,1102.2 " fill="none" id="StoreNetwork-to-Store" style="stroke:#181818;stroke-width:1.0;"/><polygon fill="#181818" points="1551.15,1107.24,1554.761,1098.077,1550.9359,1102.2446,1546.7683,1098.4195,1551.15,1107.24" style="stroke:#181818;stroke-width:1.0;"/><text fill="#000000" font-family="sans-serif" font-size="13" lengthAdjust="spacing" textLength="5" x="1545.3078" y="1096.517">*</text></g><!--link Store to Employee--><g id="link_Store_Employee"><path codeLine="176" d="M1561.2,1171.52 C1565.21,1187.38 1569.51,1207.07 1571.5,1225 C1579.49,1297 1573.03,1379.57 1565.89,1437.79 " fill="none" id="Store-to-Employee" style="stroke:#181818;stroke-width:1.0;"/><polygon fill="#181818" points="1565.24,1442.99,1570.3135,1434.5485,1565.8532,1438.0277,1562.3739,1433.5674,1565.24,1442.99" style="stroke:#181818;stroke-width:1.0;"/><text fill="#000000" font-family="sans-serif" font-size="13" lengthAdjust="spacing" textLength="51" x="1575.5" y="1331.2686">Employs</text><text fill="#000000" font-family="sans-serif" font-size="13" lengthAdjust="spacing" textLength="5" x="1561.1413" y="1432.2634">*</text></g><!--link Agent to Employee--><g id="link_Agent_Employee"><path codeLine="177" d="M1501.21,1358.55 C1507.44,1376.61 1515.64,1400.38 1523.74,1423.84 " fill="none" id="Agent-to-Employee" style="stroke:#181818;stroke-width:1.0;"/><polygon fill="none" points="1530.41,1421.72,1530.32,1442.91,1517.18,1426.29,1530.41,1421.72" style="stroke:#181818;stroke-width:1.0;"/></g><!--link Store to Agent--><g id="link_Store_Agent"><path codeLine="178" d="M1541.98,1171.88 C1531.08,1204.41 1514.07,1255.17 1502.61,1289.35 " fill="none" id="Store-to-Agent" style="stroke:#181818;stroke-width:1.0;stroke-dasharray:7.0,7.0;"/><polygon fill="#181818" points="1500.97,1294.27,1507.6174,1287.0028,1502.5554,1289.528,1500.0302,1284.4661,1500.97,1294.27" style="stroke:#181818;stroke-width:1.0;"/><text fill="#000000" font-family="sans-serif" font-size="13" lengthAdjust="spacing" textLength="39" x="1523.5" y="1237.7686">search</text></g><!--link ClientRepository to Client--><g id="link_ClientRepository_Client"><path codeLine="180" d="M1406.39,539.09 C1404.92,571.78 1402.5,633.44 1402.5,686 C1402.5,686 1402.5,686 1402.5,1327.5 C1402.5,1383.93 1387.51,1448.55 1377.74,1484.69 " fill="none" id="ClientRepository-to-Client" style="stroke:#181818;stroke-width:1.0;"/><polygon fill="#181818" points="1376.34,1489.81,1382.5843,1482.1936,1377.6664,1484.9892,1374.8709,1480.0713,1376.34,1489.81" style="stroke:#181818;stroke-width:1.0;"/><text fill="#000000" font-family="sans-serif" font-size="13" lengthAdjust="spacing" textLength="5" x="1372.5064" y="1479.2666">*</text></g><!--link Owner to Client--><g id="link_Owner_Client"><path codeLine="181" d="M1319.6,1350.62 C1328.8,1380.55 1345.01,1433.29 1356.45,1470.53 " fill="none" id="Owner-to-Client" style="stroke:#181818;stroke-width:1.0;"/><polygon fill="none" points="1363.21,1468.71,1362.4,1489.88,1349.83,1472.82,1363.21,1468.71" style="stroke:#181818;stroke-width:1.0;"/></g><!--link Property to Owner--><g id="link_Property_Owner"><path codeLine="185" d="M1128.62,1190.71 C1170.67,1212.84 1218.52,1240.7 1258.5,1271 C1267.01,1277.45 1275.48,1285.2 1283.11,1292.81 " fill="none" id="Property-to-Owner" style="stroke:#181818;stroke-width:1.0;"/><polygon fill="none" points="1292.26,1302.26,1290.9669,1295.1658,1283.9211,1293.6308,1285.2142,1300.725,1292.26,1302.26" style="stroke:#181818;stroke-width:1.0;"/><text fill="#000000" font-family="sans-serif" font-size="13" lengthAdjust="spacing" textLength="7" x="1278.8799" y="1291.7031">1</text></g><!--link Property to Agent--><g id="link_Property_Agent"><path codeLine="186" d="M1128.74,1178.97 C1196.89,1204.27 1287.35,1238.57 1366.5,1271 C1392.32,1281.58 1420.85,1294.06 1444.03,1304.41 " fill="none" id="Property-to-Agent" style="stroke:#181818;stroke-width:1.0;"/><polygon fill="none" points="1455.96,1309.76,1452.1269,1303.652,1445.0145,1304.8411,1448.8476,1310.9491,1455.96,1309.76" style="stroke:#181818;stroke-width:1.0;"/><text fill="#000000" font-family="sans-serif" font-size="13" lengthAdjust="spacing" textLength="7" x="1441.1143" y="1302.7232">1</text></g><!--SRC=[jLR1Rjiu4BtpAuYUd6vix5vz292gATP0jWdYz5mmqiGXAeagIQLntVxx3ac98YNASGlqOeXlthmP3eT3PoLJYjvAqO3K-oqhuK2MD1DLnPNYehxVDq0r_jmy3Y0o2j4-b43p0IC_2SacQdVmjGMbZIYlTQVqhbMy1gKGV2m5qrGw5XItakSmA5rpfHDgdpQ7Lpag4xMMeYn17iXVT0Sfal7z84LrkODQByuSBoivhjxVtnZBLSLukTXgoUiT5Tzga1RfgDRFqBPWYs0b95JY6HBH5WaCmz0c2HkfN0BJaTIlQPn7Px4Q7MiUBS-dPsfIK50N_-7ks0xkXIlDmbU8vltNEUr81gtyvzdHhhY3HYYkXTmVZjPjha0pse5eBkfdD7HEcpegvKpDHcK9o-43-Y0SbEdjSErQOrChpUeS5cTqdJ0VhKRVYUbjzTOjBk0Zw6z2Vecic2LxK5goNEC1XVMX1t_b6BOMBhhEHZQ07jRVUPE90Zoxu6utfjSphlSPdZf8U-TTX6jM5wW-08Pr60HhLa4YiJjGl40jpieenxgj7a3Yf8122b6f46BwAS0CTCla5mooRLWE1cRFU4KPzlBLrvOt5UeFULqsJ6e3HTd-Are5DZAyT5iraHHOvmZTr4_iWMiZVoqUZL6rzTKBrh-L4COfUSuqjaqt6mxaysTpdpI2UTmXxZnfrag9uOPPuiK-AP2n3F8Dk2b2sesPJ_4fsFjv60FX7V6cT3_H8Q2VTcueWXk4IVzVz3gTVbKrfTY3EwkmjzpxalDdNcPC5Xzjj_Il3dlnwyxdif3k0R9Xg0tJiPidKKF77uvpvre6qpGWcNsPwEhYX2TfLY3Wq1LAHPFZH9_qs20arABBvVA2llddpGmRXzQCp2agetcsFcuUIph5SQSICfEfTNWRfq2ccX6mnfDsjyymfpDekMoR7qCbYHrlOt0O9PqbeKJSP3b2yDlo6-Twj5bq_t6Hgk6u9XQaupD9ibufe0_mMpqtFc0I55ROtBOu1c4AlyTe-1TGJoskAYTcCnc-P8BGPO8MzaN2ewjhC8rFJIXqIRVxjN31r6lt8ZscpKYQAdHEgzNRlkBsDuHznVkFq6YBthbW1_OHGcu86_e8wZ-igaV9p5lJTs9eZhWnmvayvj-6TVUfY1lRDgNUsZdPDh7MDVx7PJ9_Cl_juf7ZbPs1kFVLgdN8qPdqjwrXF9OcVMqrfx1DZVonjYN_0m00]--></g></svg>