<?xml version="1.0" encoding="us-ascii" standalone="no"?><svg xmlns="http://www.w3.org/2000/svg" xmlns:xlink="http://www.w3.org/1999/xlink" contentStyleType="text/css" height="1551px" preserveAspectRatio="none" style="width:2084px;height:1551px;background:#FFFFFF;" version="1.1" viewBox="0 0 2084 1551" width="2084px" zoomAndPan="magnify"><defs/><g><rect fill="#FFFFFF" height="1362.8594" style="stroke:#181818;stroke-width:1.0;" width="10" x="21" y="90.6406"/><rect fill="#FFFFFF" height="69.1641" style="stroke:#181818;stroke-width:1.0;" width="10" x="250" y="111.1641"/><rect fill="#FFFFFF" height="28.5234" style="stroke:#181818;stroke-width:1.0;" width="10" x="250" y="208.8516"/><rect fill="#FFFFFF" height="28.5234" style="stroke:#181818;stroke-width:1.0;" width="10" x="250" y="265.8984"/><rect fill="#FFFFFF" height="1130.5547" style="stroke:#181818;stroke-width:1.0;" width="10" x="250" y="322.9453"/><rect fill="#FFFFFF" height="1073.5078" style="stroke:#181818;stroke-width:1.0;" width="10" x="511" y="351.4688"/><rect fill="#FFFFFF" height="536.0156" style="stroke:#181818;stroke-width:1.0;" width="10" x="516" y="387.9922"/><rect fill="#FFFFFF" height="296.8281" style="stroke:#181818;stroke-width:1.0;" width="10" x="742" y="592.6563"/><rect fill="#FFFFFF" height="127.0938" style="stroke:#181818;stroke-width:1.0;" width="10" x="747" y="629.1797"/><rect fill="#FFFFFF" height="28.5234" style="stroke:#181818;stroke-width:1.0;" width="10" x="937" y="686.2266"/><rect fill="#FFFFFF" height="69.1641" style="stroke:#181818;stroke-width:1.0;" width="10" x="1021" y="791.7969"/><rect fill="#FFFFFF" height="436.9219" style="stroke:#181818;stroke-width:1.0;" width="10" x="1274.5" y="959.5313"/><rect fill="#FFFFFF" height="267.1875" style="stroke:#181818;stroke-width:1.0;" width="10" x="1279.5" y="1093.7422"/><rect fill="#FFFFFF" height="127.0938" style="stroke:#181818;stroke-width:1.0;" width="10" x="1284.5" y="1192.3125"/><rect fill="#FFFFFF" height="69.1641" style="stroke:#181818;stroke-width:1.0;" width="10" x="1489.5" y="988.0547"/><rect fill="#FFFFFF" height="28.5234" style="stroke:#181818;stroke-width:1.0;" width="10" x="1619" y="1127.2656"/><rect fill="#FFFFFF" height="28.5234" style="stroke:#181818;stroke-width:1.0;" width="10" x="1619" y="1249.3594"/><rect fill="#FFFFFF" height="28.5234" style="stroke:#181818;stroke-width:1.0;" width="10" x="1744" y="421.5156"/><rect fill="#FFFFFF" height="28.5234" style="stroke:#181818;stroke-width:1.0;" width="10" x="1888.5" y="478.5625"/><rect fill="#FFFFFF" height="28.5234" style="stroke:#181818;stroke-width:1.0;" width="10" x="2019" y="535.6094"/><rect fill="none" height="73.5703" style="stroke:#000000;stroke-width:1.5;" width="299" x="678" y="649.1797"/><rect fill="none" height="73.5703" style="stroke:#000000;stroke-width:1.5;" width="491.5" x="1189" y="1212.3125"/><line style="stroke:#181818;stroke-width:0.5;stroke-dasharray:5.0,5.0;" x1="26" x2="26" y1="80.6406" y2="1471.5"/><line style="stroke:#181818;stroke-width:0.5;stroke-dasharray:5.0,5.0;" x1="254.5" x2="254.5" y1="80.6406" y2="1471.5"/><line style="stroke:#181818;stroke-width:0.5;stroke-dasharray:5.0,5.0;" x1="515.5" x2="515.5" y1="149.4844" y2="1471.5"/><line style="stroke:#181818;stroke-width:0.5;stroke-dasharray:5.0,5.0;" x1="747" x2="747" y1="80.6406" y2="1471.5"/><line style="stroke:#181818;stroke-width:0.5;stroke-dasharray:5.0,5.0;" x1="942" x2="942" y1="80.6406" y2="1471.5"/><line style="stroke:#181818;stroke-width:0.5;stroke-dasharray:5.0,5.0;" x1="1026" x2="1026" y1="80.6406" y2="1471.5"/><line style="stroke:#181818;stroke-width:0.5;stroke-dasharray:5.0,5.0;" x1="1149" x2="1149" y1="830.1172" y2="1471.5"/><line style="stroke:#181818;stroke-width:0.5;stroke-dasharray:5.0,5.0;" x1="1279" x2="1279" y1="80.6406" y2="1471.5"/><line style="stroke:#181818;stroke-width:0.5;stroke-dasharray:5.0,5.0;" x1="1494" x2="1494" y1="80.6406" y2="1471.5"/><line style="stroke:#181818;stroke-width:0.5;stroke-dasharray:5.0,5.0;" x1="1623.5" x2="1623.5" y1="1026.375" y2="1471.5"/><line style="stroke:#181818;stroke-width:0.5;stroke-dasharray:5.0,5.0;" x1="1748.5" x2="1748.5" y1="80.6406" y2="1471.5"/><line style="stroke:#181818;stroke-width:0.5;stroke-dasharray:5.0,5.0;" x1="1893.5" x2="1893.5" y1="80.6406" y2="1471.5"/><line style="stroke:#181818;stroke-width:0.5;stroke-dasharray:5.0,5.0;" x1="2023.5" x2="2023.5" y1="80.6406" y2="1471.5"/><text fill="#000000" font-family="sans-serif" font-size="14" lengthAdjust="spacing" textLength="36" x="5" y="77.6738">Client</text><ellipse cx="26" cy="13.5" fill="#E3E3E3" rx="8" ry="8" style="stroke:#181818;stroke-width:0.5;"/><path d="M26,21.5 L26,48.5 M13,29.5 L39,29.5 M26,48.5 L13,63.5 M26,48.5 L39,63.5 " fill="none" style="stroke:#181818;stroke-width:0.5;"/><text fill="#000000" font-family="sans-serif" font-size="14" lengthAdjust="spacing" textLength="36" x="5" y="1483.1738">Client</text><ellipse cx="26" cy="1494.6406" fill="#E3E3E3" rx="8" ry="8" style="stroke:#181818;stroke-width:0.5;"/><path d="M26,1502.6406 L26,1529.6406 M13,1510.6406 L39,1510.6406 M26,1529.6406 L13,1544.6406 M26,1529.6406 L39,1544.6406 " fill="none" style="stroke:#181818;stroke-width:0.5;"/><rect fill="#E3E3E3" height="29.6406" rx="2.5" ry="2.5" style="stroke:#181818;stroke-width:0.5;" width="111" x="199.5" y="50"/><text fill="#000000" font-family="sans-serif" font-size="14" lengthAdjust="spacing" textLength="97" x="206.5" y="69.6738">ScheduleVisitUI</text><rect fill="#E3E3E3" height="29.6406" rx="2.5" ry="2.5" style="stroke:#181818;stroke-width:0.5;" width="111" x="199.5" y="1470.5"/><text fill="#000000" font-family="sans-serif" font-size="14" lengthAdjust="spacing" textLength="97" x="206.5" y="1490.1738">ScheduleVisitUI</text><rect fill="#E3E3E3" height="29.6406" rx="2.5" ry="2.5" style="stroke:#181818;stroke-width:0.5;" width="161" x="435.5" y="1470.5"/><text fill="#000000" font-family="sans-serif" font-size="14" lengthAdjust="spacing" textLength="147" x="442.5" y="1490.1738">ScheduleVisitController</text><rect fill="#E3E3E3" height="29.6406" rx="2.5" ry="2.5" style="stroke:#181818;stroke-width:0.5;" width="118" x="688" y="50"/><text fill="#000000" font-family="sans-serif" font-size="14" lengthAdjust="spacing" textLength="104" x="695" y="69.6738">ClientRepository</text><rect fill="#E3E3E3" height="29.6406" rx="2.5" ry="2.5" style="stroke:#181818;stroke-width:0.5;" width="118" x="688" y="1470.5"/><text fill="#000000" font-family="sans-serif" font-size="14" lengthAdjust="spacing" textLength="104" x="695" y="1490.1738">ClientRepository</text><rect fill="#E3E3E3" height="29.6406" rx="2.5" ry="2.5" style="stroke:#181818;stroke-width:0.5;" width="50" x="917" y="50"/><text fill="#000000" font-family="sans-serif" font-size="14" lengthAdjust="spacing" textLength="36" x="924" y="69.6738">Client</text><rect fill="#E3E3E3" height="29.6406" rx="2.5" ry="2.5" style="stroke:#181818;stroke-width:0.5;" width="50" x="917" y="1470.5"/><text fill="#000000" font-family="sans-serif" font-size="14" lengthAdjust="spacing" textLength="36" x="924" y="1490.1738">Client</text><rect fill="#E3E3E3" height="29.6406" rx="2.5" ry="2.5" style="stroke:#181818;stroke-width:0.5;" width="98" x="977" y="50"/><text fill="#000000" font-family="sans-serif" font-size="14" lengthAdjust="spacing" textLength="84" x="984" y="69.6738">ClientMapper</text><rect fill="#E3E3E3" height="29.6406" rx="2.5" ry="2.5" style="stroke:#181818;stroke-width:0.5;" width="98" x="977" y="1470.5"/><text fill="#000000" font-family="sans-serif" font-size="14" lengthAdjust="spacing" textLength="84" x="984" y="1490.1738">ClientMapper</text><rect fill="#E3E3E3" height="29.6406" rx="2.5" ry="2.5" style="stroke:#181818;stroke-width:0.5;" width="80" x="1109" y="1470.5"/><text fill="#000000" font-family="sans-serif" font-size="14" lengthAdjust="spacing" textLength="66" x="1116" y="1490.1738">ClientDTO</text><rect fill="#E3E3E3" height="29.6406" rx="2.5" ry="2.5" style="stroke:#181818;stroke-width:0.5;" width="161" x="1199" y="50"/><text fill="#000000" font-family="sans-serif" font-size="14" lengthAdjust="spacing" textLength="147" x="1206" y="69.6738">VisitRequestRepository</text><rect fill="#E3E3E3" height="29.6406" rx="2.5" ry="2.5" style="stroke:#181818;stroke-width:0.5;" width="161" x="1199" y="1470.5"/><text fill="#000000" font-family="sans-serif" font-size="14" lengthAdjust="spacing" textLength="147" x="1206" y="1490.1738">VisitRequestRepository</text><rect fill="#E3E3E3" height="29.6406" rx="2.5" ry="2.5" style="stroke:#181818;stroke-width:0.5;" width="141" x="1424" y="50"/><text fill="#000000" font-family="sans-serif" font-size="14" lengthAdjust="spacing" textLength="127" x="1431" y="69.6738">VisitRequestMapper</text><rect fill="#E3E3E3" height="29.6406" rx="2.5" ry="2.5" style="stroke:#181818;stroke-width:0.5;" width="141" x="1424" y="1470.5"/><text fill="#000000" font-family="sans-serif" font-size="14" lengthAdjust="spacing" textLength="127" x="1431" y="1490.1738">VisitRequestMapper</text><rect fill="#E3E3E3" height="29.6406" rx="2.5" ry="2.5" style="stroke:#181818;stroke-width:0.5;" width="93" x="1577.5" y="1470.5"/><text fill="#000000" font-family="sans-serif" font-size="14" lengthAdjust="spacing" textLength="79" x="1584.5" y="1490.1738">VisitRequest</text><rect fill="#E3E3E3" height="29.6406" rx="2.5" ry="2.5" style="stroke:#181818;stroke-width:0.5;" width="137" x="1680.5" y="50"/><text fill="#000000" font-family="sans-serif" font-size="14" lengthAdjust="spacing" textLength="123" x="1687.5" y="69.6738">:ApplicationSession</text><rect fill="#E3E3E3" height="29.6406" rx="2.5" ry="2.5" style="stroke:#181818;stroke-width:0.5;" width="137" x="1680.5" y="1470.5"/><text fill="#000000" font-family="sans-serif" font-size="14" lengthAdjust="spacing" textLength="123" x="1687.5" y="1490.1738">:ApplicationSession</text><rect fill="#E3E3E3" height="45.2813" rx="2.5" ry="2.5" style="stroke:#181818;stroke-width:0.5;" width="132" x="1827.5" y="34.3594"/><text fill="#000000" font-family="sans-serif" font-size="14" lengthAdjust="spacing" textLength="118" x="1834.5" y="54.0332">applicationSession</text><text fill="#000000" font-family="sans-serif" font-size="14" lengthAdjust="spacing" textLength="115" x="1836" y="69.6738">:AplicationSession</text><rect fill="#E3E3E3" height="45.2813" rx="2.5" ry="2.5" style="stroke:#181818;stroke-width:0.5;" width="132" x="1827.5" y="1470.5"/><text fill="#000000" font-family="sans-serif" font-size="14" lengthAdjust="spacing" textLength="118" x="1834.5" y="1490.1738">applicationSession</text><text fill="#000000" font-family="sans-serif" font-size="14" lengthAdjust="spacing" textLength="115" x="1836" y="1505.8145">:AplicationSession</text><rect fill="#E3E3E3" height="45.2813" rx="2.5" ry="2.5" style="stroke:#181818;stroke-width:0.5;" width="109" x="1969.5" y="34.3594"/><text fill="#000000" font-family="sans-serif" font-size="14" lengthAdjust="spacing" textLength="95" x="1976.5" y="54.0332">currentSession</text><text fill="#000000" font-family="sans-serif" font-size="14" lengthAdjust="spacing" textLength="83" x="1982.5" y="69.6738">:UserSession</text><rect fill="#E3E3E3" height="45.2813" rx="2.5" ry="2.5" style="stroke:#181818;stroke-width:0.5;" width="109" x="1969.5" y="1470.5"/><text fill="#000000" font-family="sans-serif" font-size="14" lengthAdjust="spacing" textLength="95" x="1976.5" y="1490.1738">currentSession</text><text fill="#000000" font-family="sans-serif" font-size="14" lengthAdjust="spacing" textLength="83" x="1982.5" y="1505.8145">:UserSession</text><rect fill="#FFFFFF" height="1362.8594" style="stroke:#181818;stroke-width:1.0;" width="10" x="21" y="90.6406"/><rect fill="#FFFFFF" height="69.1641" style="stroke:#181818;stroke-width:1.0;" width="10" x="250" y="111.1641"/><rect fill="#FFFFFF" height="28.5234" style="stroke:#181818;stroke-width:1.0;" width="10" x="250" y="208.8516"/><rect fill="#FFFFFF" height="28.5234" style="stroke:#181818;stroke-width:1.0;" width="10" x="250" y="265.8984"/><rect fill="#FFFFFF" height="1130.5547" style="stroke:#181818;stroke-width:1.0;" width="10" x="250" y="322.9453"/><rect fill="#FFFFFF" height="1073.5078" style="stroke:#181818;stroke-width:1.0;" width="10" x="511" y="351.4688"/><rect fill="#FFFFFF" height="536.0156" style="stroke:#181818;stroke-width:1.0;" width="10" x="516" y="387.9922"/><rect fill="#FFFFFF" height="296.8281" style="stroke:#181818;stroke-width:1.0;" width="10" x="742" y="592.6563"/><rect fill="#FFFFFF" height="127.0938" style="stroke:#181818;stroke-width:1.0;" width="10" x="747" y="629.1797"/><rect fill="#FFFFFF" height="28.5234" style="stroke:#181818;stroke-width:1.0;" width="10" x="937" y="686.2266"/><rect fill="#FFFFFF" height="69.1641" style="stroke:#181818;stroke-width:1.0;" width="10" x="1021" y="791.7969"/><rect fill="#FFFFFF" height="436.9219" style="stroke:#181818;stroke-width:1.0;" width="10" x="1274.5" y="959.5313"/><rect fill="#FFFFFF" height="267.1875" style="stroke:#181818;stroke-width:1.0;" width="10" x="1279.5" y="1093.7422"/><rect fill="#FFFFFF" height="127.0938" style="stroke:#181818;stroke-width:1.0;" width="10" x="1284.5" y="1192.3125"/><rect fill="#FFFFFF" height="69.1641" style="stroke:#181818;stroke-width:1.0;" width="10" x="1489.5" y="988.0547"/><rect fill="#FFFFFF" height="28.5234" style="stroke:#181818;stroke-width:1.0;" width="10" x="1619" y="1127.2656"/><rect fill="#FFFFFF" height="28.5234" style="stroke:#181818;stroke-width:1.0;" width="10" x="1619" y="1249.3594"/><rect fill="#FFFFFF" height="28.5234" style="stroke:#181818;stroke-width:1.0;" width="10" x="1744" y="421.5156"/><rect fill="#FFFFFF" height="28.5234" style="stroke:#181818;stroke-width:1.0;" width="10" x="1888.5" y="478.5625"/><rect fill="#FFFFFF" height="28.5234" style="stroke:#181818;stroke-width:1.0;" width="10" x="2019" y="535.6094"/><polygon fill="#181818" points="238,107.1641,248,111.1641,238,115.1641,242,111.1641" style="stroke:#181818;stroke-width:1.0;"/><line style="stroke:#181818;stroke-width:1.0;" x1="31" x2="244" y1="111.1641" y2="111.1641"/><text fill="#000000" font-family="sans-serif" font-size="13" font-weight="bold" lengthAdjust="spacing" textLength="7" x="38" y="106.4092">1</text><text fill="#000000" font-family="sans-serif" font-size="13" lengthAdjust="spacing" textLength="164" x="49" y="106.4092">asks to make a visitRequest</text><polygon fill="#181818" points="423.5,135.6875,433.5,139.6875,423.5,143.6875,427.5,139.6875" style="stroke:#181818;stroke-width:1.0;"/><line style="stroke:#181818;stroke-width:1.0;" x1="260" x2="429.5" y1="139.6875" y2="139.6875"/><text fill="#000000" font-family="sans-serif" font-size="13" font-weight="bold" lengthAdjust="spacing" textLength="7" x="267" y="134.9326">2</text><text fill="#000000" font-family="sans-serif" font-size="13" lengthAdjust="spacing" textLength="36" x="278" y="134.9326">create</text><rect fill="#E3E3E3" height="29.6406" rx="2.5" ry="2.5" style="stroke:#181818;stroke-width:0.5;" width="161" x="435.5" y="119.1641"/><text fill="#000000" font-family="sans-serif" font-size="14" lengthAdjust="spacing" textLength="147" x="442.5" y="138.8379">ScheduleVisitController</text><polygon fill="#181818" points="42,176.3281,32,180.3281,42,184.3281,38,180.3281" style="stroke:#181818;stroke-width:1.0;"/><line style="stroke:#181818;stroke-width:1.0;stroke-dasharray:2.0,2.0;" x1="36" x2="254" y1="180.3281" y2="180.3281"/><text fill="#000000" font-family="sans-serif" font-size="13" font-weight="bold" lengthAdjust="spacing" textLength="7" x="48" y="175.5732">3</text><text fill="#000000" font-family="sans-serif" font-size="13" lengthAdjust="spacing" textLength="181" x="59" y="175.5732">asks for date(yeat, month, day)</text><polygon fill="#181818" points="238,204.8516,248,208.8516,238,212.8516,242,208.8516" style="stroke:#181818;stroke-width:1.0;"/><line style="stroke:#181818;stroke-width:1.0;" x1="31" x2="244" y1="208.8516" y2="208.8516"/><text fill="#000000" font-family="sans-serif" font-size="13" font-weight="bold" lengthAdjust="spacing" textLength="7" x="38" y="204.0967">4</text><text fill="#000000" font-family="sans-serif" font-size="13" lengthAdjust="spacing" textLength="61" x="49" y="204.0967">types date</text><polygon fill="#181818" points="42,233.375,32,237.375,42,241.375,38,237.375" style="stroke:#181818;stroke-width:1.0;"/><line style="stroke:#181818;stroke-width:1.0;stroke-dasharray:2.0,2.0;" x1="36" x2="254" y1="237.375" y2="237.375"/><text fill="#000000" font-family="sans-serif" font-size="13" font-weight="bold" lengthAdjust="spacing" textLength="7" x="48" y="232.6201">5</text><text fill="#000000" font-family="sans-serif" font-size="13" lengthAdjust="spacing" textLength="184" x="59" y="232.6201">asks for startTime(hour, minute)</text><polygon fill="#181818" points="238,261.8984,248,265.8984,238,269.8984,242,265.8984" style="stroke:#181818;stroke-width:1.0;"/><line style="stroke:#181818;stroke-width:1.0;" x1="31" x2="244" y1="265.8984" y2="265.8984"/><text fill="#000000" font-family="sans-serif" font-size="13" font-weight="bold" lengthAdjust="spacing" textLength="7" x="38" y="261.1436">6</text><text fill="#000000" font-family="sans-serif" font-size="13" lengthAdjust="spacing" textLength="90" x="49" y="261.1436">types startTime</text><polygon fill="#181818" points="42,290.4219,32,294.4219,42,298.4219,38,294.4219" style="stroke:#181818;stroke-width:1.0;"/><line style="stroke:#181818;stroke-width:1.0;stroke-dasharray:2.0,2.0;" x1="36" x2="254" y1="294.4219" y2="294.4219"/><text fill="#000000" font-family="sans-serif" font-size="13" font-weight="bold" lengthAdjust="spacing" textLength="7" x="48" y="289.667">7</text><text fill="#000000" font-family="sans-serif" font-size="13" lengthAdjust="spacing" textLength="179" x="59" y="289.667">asks for endTime(hour, minute)</text><polygon fill="#181818" points="238,318.9453,248,322.9453,238,326.9453,242,322.9453" style="stroke:#181818;stroke-width:1.0;"/><line style="stroke:#181818;stroke-width:1.0;" x1="31" x2="244" y1="322.9453" y2="322.9453"/><text fill="#000000" font-family="sans-serif" font-size="13" font-weight="bold" lengthAdjust="spacing" textLength="7" x="38" y="318.1904">8</text><text fill="#000000" font-family="sans-serif" font-size="13" lengthAdjust="spacing" textLength="85" x="49" y="318.1904">types endTime</text><polygon fill="#181818" points="499,347.4688,509,351.4688,499,355.4688,503,351.4688" style="stroke:#181818;stroke-width:1.0;"/><line style="stroke:#181818;stroke-width:1.0;" x1="260" x2="505" y1="351.4688" y2="351.4688"/><text fill="#000000" font-family="sans-serif" font-size="13" font-weight="bold" lengthAdjust="spacing" textLength="7" x="267" y="346.7139">9</text><text fill="#000000" font-family="sans-serif" font-size="13" lengthAdjust="spacing" textLength="221" x="278" y="346.7139">registerVisitRequest(visitRequestDTO)</text><line style="stroke:#181818;stroke-width:1.0;" x1="521" x2="568" y1="374.9922" y2="374.9922"/><line style="stroke:#181818;stroke-width:1.0;" x1="568" x2="568" y1="374.9922" y2="387.9922"/><line style="stroke:#181818;stroke-width:1.0;" x1="527" x2="568" y1="387.9922" y2="387.9922"/><polygon fill="#181818" points="537,383.9922,527,387.9922,537,391.9922,533,387.9922" style="stroke:#181818;stroke-width:1.0;"/><text fill="#000000" font-family="sans-serif" font-size="13" font-weight="bold" lengthAdjust="spacing" textLength="14" x="533" y="370.2373">10</text><text fill="#000000" font-family="sans-serif" font-size="13" lengthAdjust="spacing" textLength="163" x="551" y="370.2373">getClientFromUserSession()</text><polygon fill="#181818" points="1732,417.5156,1742,421.5156,1732,425.5156,1736,421.5156" style="stroke:#181818;stroke-width:1.0;"/><line style="stroke:#181818;stroke-width:1.0;" x1="526" x2="1738" y1="421.5156" y2="421.5156"/><text fill="#000000" font-family="sans-serif" font-size="13" font-weight="bold" lengthAdjust="spacing" textLength="14" x="533" y="416.7607">11</text><text fill="#000000" font-family="sans-serif" font-size="13" lengthAdjust="spacing" textLength="75" x="551" y="416.7607">getInstance()</text><polygon fill="#181818" points="537,446.0391,527,450.0391,537,454.0391,533,450.0391" style="stroke:#181818;stroke-width:1.0;"/><line style="stroke:#181818;stroke-width:1.0;stroke-dasharray:2.0,2.0;" x1="531" x2="1748" y1="450.0391" y2="450.0391"/><text fill="#000000" font-family="sans-serif" font-size="13" font-weight="bold" lengthAdjust="spacing" textLength="14" x="543" y="445.2842">12</text><text fill="#000000" font-family="sans-serif" font-size="13" lengthAdjust="spacing" textLength="68" x="561" y="445.2842">appSession</text><polygon fill="#181818" points="1876.5,474.5625,1886.5,478.5625,1876.5,482.5625,1880.5,478.5625" style="stroke:#181818;stroke-width:1.0;"/><line style="stroke:#181818;stroke-width:1.0;" x1="526" x2="1882.5" y1="478.5625" y2="478.5625"/><text fill="#000000" font-family="sans-serif" font-size="13" font-weight="bold" lengthAdjust="spacing" textLength="14" x="533" y="473.8076">13</text><text fill="#000000" font-family="sans-serif" font-size="13" lengthAdjust="spacing" textLength="115" x="551" y="473.8076">getCurrentSession()</text><polygon fill="#181818" points="537,503.0859,527,507.0859,537,511.0859,533,507.0859" style="stroke:#181818;stroke-width:1.0;"/><line style="stroke:#181818;stroke-width:1.0;stroke-dasharray:2.0,2.0;" x1="531" x2="1892.5" y1="507.0859" y2="507.0859"/><text fill="#000000" font-family="sans-serif" font-size="13" font-weight="bold" lengthAdjust="spacing" textLength="14" x="543" y="502.3311">14</text><text fill="#000000" font-family="sans-serif" font-size="13" lengthAdjust="spacing" textLength="72" x="561" y="502.3311">userSession</text><polygon fill="#181818" points="2007,531.6094,2017,535.6094,2007,539.6094,2011,535.6094" style="stroke:#181818;stroke-width:1.0;"/><line style="stroke:#181818;stroke-width:1.0;" x1="526" x2="2013" y1="535.6094" y2="535.6094"/><text fill="#000000" font-family="sans-serif" font-size="13" font-weight="bold" lengthAdjust="spacing" textLength="14" x="533" y="530.8545">15</text><text fill="#000000" font-family="sans-serif" font-size="13" lengthAdjust="spacing" textLength="63" x="551" y="530.8545">getUserId()</text><polygon fill="#181818" points="537,560.1328,527,564.1328,537,568.1328,533,564.1328" style="stroke:#181818;stroke-width:1.0;"/><line style="stroke:#181818;stroke-width:1.0;stroke-dasharray:2.0,2.0;" x1="531" x2="2023" y1="564.1328" y2="564.1328"/><text fill="#000000" font-family="sans-serif" font-size="13" font-weight="bold" lengthAdjust="spacing" textLength="14" x="543" y="559.3779">16</text><text fill="#000000" font-family="sans-serif" font-size="13" lengthAdjust="spacing" textLength="31" x="561" y="559.3779">email</text><polygon fill="#181818" points="730,588.6563,740,592.6563,730,596.6563,734,592.6563" style="stroke:#181818;stroke-width:1.0;"/><line style="stroke:#181818;stroke-width:1.0;" x1="526" x2="736" y1="592.6563" y2="592.6563"/><text fill="#000000" font-family="sans-serif" font-size="13" font-weight="bold" lengthAdjust="spacing" textLength="14" x="533" y="587.9014">17</text><text fill="#000000" font-family="sans-serif" font-size="13" lengthAdjust="spacing" textLength="179" x="551" y="587.9014">getClientDTOFromEmail(email)</text><line style="stroke:#181818;stroke-width:1.0;" x1="752" x2="799" y1="616.1797" y2="616.1797"/><line style="stroke:#181818;stroke-width:1.0;" x1="799" x2="799" y1="616.1797" y2="629.1797"/><line style="stroke:#181818;stroke-width:1.0;" x1="758" x2="799" y1="629.1797" y2="629.1797"/><polygon fill="#181818" points="768,625.1797,758,629.1797,768,633.1797,764,629.1797" style="stroke:#181818;stroke-width:1.0;"/><text fill="#000000" font-family="sans-serif" font-size="13" font-weight="bold" lengthAdjust="spacing" textLength="14" x="764" y="611.4248">18</text><text fill="#000000" font-family="sans-serif" font-size="13" lengthAdjust="spacing" textLength="153" x="782" y="611.4248">getClientFromEmail(email)</text><path d="M678,649.1797 L751,649.1797 L751,655.7031 L741,665.7031 L678,665.7031 L678,649.1797 " fill="#EEEEEE" style="stroke:#000000;stroke-width:1.5;"/><rect fill="none" height="73.5703" style="stroke:#000000;stroke-width:1.5;" width="299" x="678" y="649.1797"/><text fill="#000000" font-family="sans-serif" font-size="13" font-weight="bold" lengthAdjust="spacing" textLength="28" x="693" y="661.9482">loop</text><text fill="#000000" font-family="sans-serif" font-size="11" font-weight="bold" lengthAdjust="spacing" textLength="86" x="766" y="661.1377">[for each client]</text><polygon fill="#181818" points="925,682.2266,935,686.2266,925,690.2266,929,686.2266" style="stroke:#181818;stroke-width:1.0;"/><line style="stroke:#181818;stroke-width:1.0;" x1="757" x2="931" y1="686.2266" y2="686.2266"/><text fill="#000000" font-family="sans-serif" font-size="13" font-weight="bold" lengthAdjust="spacing" textLength="14" x="764" y="681.4717">19</text><text fill="#000000" font-family="sans-serif" font-size="13" lengthAdjust="spacing" textLength="93" x="782" y="681.4717">hasEmail(email)</text><polygon fill="#181818" points="768,710.75,758,714.75,768,718.75,764,714.75" style="stroke:#181818;stroke-width:1.0;"/><line style="stroke:#181818;stroke-width:1.0;stroke-dasharray:2.0,2.0;" x1="762" x2="941" y1="714.75" y2="714.75"/><text fill="#000000" font-family="sans-serif" font-size="13" font-weight="bold" lengthAdjust="spacing" textLength="14" x="774" y="709.9951">20</text><text fill="#000000" font-family="sans-serif" font-size="13" lengthAdjust="spacing" textLength="45" x="792" y="709.9951">boolean</text><line style="stroke:#181818;stroke-width:1.0;stroke-dasharray:2.0,2.0;" x1="757" x2="799" y1="755.2734" y2="755.2734"/><line style="stroke:#181818;stroke-width:1.0;stroke-dasharray:2.0,2.0;" x1="799" x2="799" y1="755.2734" y2="768.2734"/><line style="stroke:#181818;stroke-width:1.0;stroke-dasharray:2.0,2.0;" x1="752" x2="799" y1="768.2734" y2="768.2734"/><polygon fill="#181818" points="762,764.2734,752,768.2734,762,772.2734,758,768.2734" style="stroke:#181818;stroke-width:1.0;"/><text fill="#000000" font-family="sans-serif" font-size="13" font-weight="bold" lengthAdjust="spacing" textLength="14" x="764" y="750.5186">21</text><text fill="#000000" font-family="sans-serif" font-size="13" lengthAdjust="spacing" textLength="31" x="782" y="750.5186">client</text><polygon fill="#181818" points="1009,787.7969,1019,791.7969,1009,795.7969,1013,791.7969" style="stroke:#181818;stroke-width:1.0;"/><line style="stroke:#181818;stroke-width:1.0;" x1="752" x2="1015" y1="791.7969" y2="791.7969"/><text fill="#000000" font-family="sans-serif" font-size="13" font-weight="bold" lengthAdjust="spacing" textLength="14" x="759" y="787.042">22</text><text fill="#000000" font-family="sans-serif" font-size="13" lengthAdjust="spacing" textLength="76" x="777" y="787.042">toDTO(client)</text><polygon fill="#181818" points="1097,816.3203,1107,820.3203,1097,824.3203,1101,820.3203" style="stroke:#181818;stroke-width:1.0;"/><line style="stroke:#181818;stroke-width:1.0;" x1="1031" x2="1103" y1="820.3203" y2="820.3203"/><text fill="#000000" font-family="sans-serif" font-size="13" font-weight="bold" lengthAdjust="spacing" textLength="14" x="1038" y="815.5654">23</text><text fill="#000000" font-family="sans-serif" font-size="13" lengthAdjust="spacing" textLength="36" x="1056" y="815.5654">create</text><rect fill="#E3E3E3" height="29.6406" rx="2.5" ry="2.5" style="stroke:#181818;stroke-width:0.5;" width="80" x="1109" y="799.7969"/><text fill="#000000" font-family="sans-serif" font-size="14" lengthAdjust="spacing" textLength="66" x="1116" y="819.4707">ClientDTO</text><polygon fill="#181818" points="763,856.9609,753,860.9609,763,864.9609,759,860.9609" style="stroke:#181818;stroke-width:1.0;"/><line style="stroke:#181818;stroke-width:1.0;" x1="757" x2="1025" y1="860.9609" y2="860.9609"/><text fill="#000000" font-family="sans-serif" font-size="13" font-weight="bold" lengthAdjust="spacing" textLength="14" x="769" y="856.2061">24</text><text fill="#000000" font-family="sans-serif" font-size="13" lengthAdjust="spacing" textLength="57" x="787" y="856.2061">clientDTO</text><polygon fill="#181818" points="537,885.4844,527,889.4844,537,893.4844,533,889.4844" style="stroke:#181818;stroke-width:1.0;"/><line style="stroke:#181818;stroke-width:1.0;stroke-dasharray:2.0,2.0;" x1="531" x2="746" y1="889.4844" y2="889.4844"/><text fill="#000000" font-family="sans-serif" font-size="13" font-weight="bold" lengthAdjust="spacing" textLength="14" x="543" y="884.7295">25</text><text fill="#000000" font-family="sans-serif" font-size="13" lengthAdjust="spacing" textLength="57" x="561" y="884.7295">clientDTO</text><line style="stroke:#181818;stroke-width:1.0;" x1="526" x2="568" y1="923.0078" y2="923.0078"/><line style="stroke:#181818;stroke-width:1.0;" x1="568" x2="568" y1="923.0078" y2="936.0078"/><line style="stroke:#181818;stroke-width:1.0;" x1="521" x2="568" y1="936.0078" y2="936.0078"/><polygon fill="#181818" points="531,932.0078,521,936.0078,531,940.0078,527,936.0078" style="stroke:#181818;stroke-width:1.0;"/><text fill="#000000" font-family="sans-serif" font-size="13" font-weight="bold" lengthAdjust="spacing" textLength="14" x="533" y="918.2529">26</text><text fill="#000000" font-family="sans-serif" font-size="13" lengthAdjust="spacing" textLength="57" x="551" y="918.2529">clientDTO</text><polygon fill="#181818" points="1262.5,955.5313,1272.5,959.5313,1262.5,963.5313,1266.5,959.5313" style="stroke:#181818;stroke-width:1.0;"/><line style="stroke:#181818;stroke-width:1.0;" x1="521" x2="1268.5" y1="959.5313" y2="959.5313"/><text fill="#000000" font-family="sans-serif" font-size="13" font-weight="bold" lengthAdjust="spacing" textLength="14" x="528" y="954.7764">27</text><text fill="#000000" font-family="sans-serif" font-size="13" lengthAdjust="spacing" textLength="221" x="546" y="954.7764">registerVisitRequest(visitRequestDTO)</text><polygon fill="#181818" points="1477.5,984.0547,1487.5,988.0547,1477.5,992.0547,1481.5,988.0547" style="stroke:#181818;stroke-width:1.0;"/><line style="stroke:#181818;stroke-width:1.0;" x1="1284.5" x2="1483.5" y1="988.0547" y2="988.0547"/><text fill="#000000" font-family="sans-serif" font-size="13" font-weight="bold" lengthAdjust="spacing" textLength="14" x="1291.5" y="983.2998">28</text><text fill="#000000" font-family="sans-serif" font-size="13" lengthAdjust="spacing" textLength="159" x="1309.5" y="983.2998">toDomain(visitRequestDTO)</text><polygon fill="#181818" points="1565.5,1012.5781,1575.5,1016.5781,1565.5,1020.5781,1569.5,1016.5781" style="stroke:#181818;stroke-width:1.0;"/><line style="stroke:#181818;stroke-width:1.0;" x1="1499.5" x2="1571.5" y1="1016.5781" y2="1016.5781"/><text fill="#000000" font-family="sans-serif" font-size="13" font-weight="bold" lengthAdjust="spacing" textLength="14" x="1506.5" y="1011.8232">29</text><text fill="#000000" font-family="sans-serif" font-size="13" lengthAdjust="spacing" textLength="36" x="1524.5" y="1011.8232">create</text><rect fill="#E3E3E3" height="29.6406" rx="2.5" ry="2.5" style="stroke:#181818;stroke-width:0.5;" width="93" x="1577.5" y="996.0547"/><text fill="#000000" font-family="sans-serif" font-size="14" lengthAdjust="spacing" textLength="79" x="1584.5" y="1015.7285">VisitRequest</text><polygon fill="#181818" points="1295.5,1053.2188,1285.5,1057.2188,1295.5,1061.2188,1291.5,1057.2188" style="stroke:#181818;stroke-width:1.0;"/><line style="stroke:#181818;stroke-width:1.0;stroke-dasharray:2.0,2.0;" x1="1289.5" x2="1493.5" y1="1057.2188" y2="1057.2188"/><text fill="#000000" font-family="sans-serif" font-size="13" font-weight="bold" lengthAdjust="spacing" textLength="14" x="1301.5" y="1052.4639">30</text><text fill="#000000" font-family="sans-serif" font-size="13" lengthAdjust="spacing" textLength="70" x="1319.5" y="1052.4639">visitRequest</text><line style="stroke:#181818;stroke-width:1.0;" x1="1284.5" x2="1331.5" y1="1080.7422" y2="1080.7422"/><line style="stroke:#181818;stroke-width:1.0;" x1="1331.5" x2="1331.5" y1="1080.7422" y2="1093.7422"/><line style="stroke:#181818;stroke-width:1.0;" x1="1290.5" x2="1331.5" y1="1093.7422" y2="1093.7422"/><polygon fill="#181818" points="1300.5,1089.7422,1290.5,1093.7422,1300.5,1097.7422,1296.5,1093.7422" style="stroke:#181818;stroke-width:1.0;"/><text fill="#000000" font-family="sans-serif" font-size="13" font-weight="bold" lengthAdjust="spacing" textLength="14" x="1296.5" y="1075.9873">31</text><text fill="#000000" font-family="sans-serif" font-size="13" lengthAdjust="spacing" textLength="173" x="1314.5" y="1075.9873">addVisitRequest(visitRequest)</text><polygon fill="#181818" points="1607,1123.2656,1617,1127.2656,1607,1131.2656,1611,1127.2656" style="stroke:#181818;stroke-width:1.0;"/><line style="stroke:#181818;stroke-width:1.0;" x1="1289.5" x2="1613" y1="1127.2656" y2="1127.2656"/><text fill="#000000" font-family="sans-serif" font-size="13" font-weight="bold" lengthAdjust="spacing" textLength="14" x="1296.5" y="1122.5107">32</text><text fill="#000000" font-family="sans-serif" font-size="13" lengthAdjust="spacing" textLength="47" x="1314.5" y="1122.5107">isValid()</text><polygon fill="#181818" points="1300.5,1151.7891,1290.5,1155.7891,1300.5,1159.7891,1296.5,1155.7891" style="stroke:#181818;stroke-width:1.0;"/><line style="stroke:#181818;stroke-width:1.0;stroke-dasharray:2.0,2.0;" x1="1294.5" x2="1623" y1="1155.7891" y2="1155.7891"/><text fill="#000000" font-family="sans-serif" font-size="13" font-weight="bold" lengthAdjust="spacing" textLength="14" x="1306.5" y="1151.0342">33</text><text fill="#000000" font-family="sans-serif" font-size="13" lengthAdjust="spacing" textLength="45" x="1324.5" y="1151.0342">boolean</text><line style="stroke:#181818;stroke-width:1.0;" x1="1289.5" x2="1336.5" y1="1179.3125" y2="1179.3125"/><line style="stroke:#181818;stroke-width:1.0;" x1="1336.5" x2="1336.5" y1="1179.3125" y2="1192.3125"/><line style="stroke:#181818;stroke-width:1.0;" x1="1295.5" x2="1336.5" y1="1192.3125" y2="1192.3125"/><polygon fill="#181818" points="1305.5,1188.3125,1295.5,1192.3125,1305.5,1196.3125,1301.5,1192.3125" style="stroke:#181818;stroke-width:1.0;"/><text fill="#000000" font-family="sans-serif" font-size="13" font-weight="bold" lengthAdjust="spacing" textLength="14" x="1301.5" y="1174.5576">34</text><text fill="#000000" font-family="sans-serif" font-size="13" lengthAdjust="spacing" textLength="117" x="1319.5" y="1174.5576">isValid(visitRequest)</text><path d="M1189,1212.3125 L1262,1212.3125 L1262,1218.8359 L1252,1228.8359 L1189,1228.8359 L1189,1212.3125 " fill="#EEEEEE" style="stroke:#000000;stroke-width:1.5;"/><rect fill="none" height="73.5703" style="stroke:#000000;stroke-width:1.5;" width="491.5" x="1189" y="1212.3125"/><text fill="#000000" font-family="sans-serif" font-size="13" font-weight="bold" lengthAdjust="spacing" textLength="28" x="1204" y="1225.0811">loop</text><text fill="#000000" font-family="sans-serif" font-size="11" font-weight="bold" lengthAdjust="spacing" textLength="125" x="1277" y="1224.2705">[for each visitRequest]</text><polygon fill="#181818" points="1607,1245.3594,1617,1249.3594,1607,1253.3594,1611,1249.3594" style="stroke:#181818;stroke-width:1.0;"/><line style="stroke:#181818;stroke-width:1.0;" x1="1294.5" x2="1613" y1="1249.3594" y2="1249.3594"/><text fill="#000000" font-family="sans-serif" font-size="13" font-weight="bold" lengthAdjust="spacing" textLength="14" x="1301.5" y="1244.6045">35</text><text fill="#000000" font-family="sans-serif" font-size="13" lengthAdjust="spacing" textLength="116" x="1319.5" y="1244.6045">equals(visitRequest)</text><polygon fill="#181818" points="1305.5,1273.8828,1295.5,1277.8828,1305.5,1281.8828,1301.5,1277.8828" style="stroke:#181818;stroke-width:1.0;"/><line style="stroke:#181818;stroke-width:1.0;stroke-dasharray:2.0,2.0;" x1="1299.5" x2="1623" y1="1277.8828" y2="1277.8828"/><text fill="#000000" font-family="sans-serif" font-size="13" font-weight="bold" lengthAdjust="spacing" textLength="14" x="1311.5" y="1273.1279">36</text><text fill="#000000" font-family="sans-serif" font-size="13" lengthAdjust="spacing" textLength="45" x="1329.5" y="1273.1279">boolean</text><line style="stroke:#181818;stroke-width:1.0;stroke-dasharray:2.0,2.0;" x1="1294.5" x2="1336.5" y1="1318.4063" y2="1318.4063"/><line style="stroke:#181818;stroke-width:1.0;stroke-dasharray:2.0,2.0;" x1="1336.5" x2="1336.5" y1="1318.4063" y2="1331.4063"/><line style="stroke:#181818;stroke-width:1.0;stroke-dasharray:2.0,2.0;" x1="1289.5" x2="1336.5" y1="1331.4063" y2="1331.4063"/><polygon fill="#181818" points="1299.5,1327.4063,1289.5,1331.4063,1299.5,1335.4063,1295.5,1331.4063" style="stroke:#181818;stroke-width:1.0;"/><text fill="#000000" font-family="sans-serif" font-size="13" font-weight="bold" lengthAdjust="spacing" textLength="14" x="1301.5" y="1313.6514">37</text><text fill="#000000" font-family="sans-serif" font-size="13" lengthAdjust="spacing" textLength="90" x="1319.5" y="1313.6514">operationResult</text><line style="stroke:#181818;stroke-width:1.0;stroke-dasharray:2.0,2.0;" x1="1289.5" x2="1331.5" y1="1359.9297" y2="1359.9297"/><line style="stroke:#181818;stroke-width:1.0;stroke-dasharray:2.0,2.0;" x1="1331.5" x2="1331.5" y1="1359.9297" y2="1372.9297"/><line style="stroke:#181818;stroke-width:1.0;stroke-dasharray:2.0,2.0;" x1="1284.5" x2="1331.5" y1="1372.9297" y2="1372.9297"/><polygon fill="#181818" points="1294.5,1368.9297,1284.5,1372.9297,1294.5,1376.9297,1290.5,1372.9297" style="stroke:#181818;stroke-width:1.0;"/><text fill="#000000" font-family="sans-serif" font-size="13" font-weight="bold" lengthAdjust="spacing" textLength="14" x="1296.5" y="1355.1748">38</text><text fill="#000000" font-family="sans-serif" font-size="13" lengthAdjust="spacing" textLength="90" x="1314.5" y="1355.1748">operationResult</text><polygon fill="#181818" points="532,1392.4531,522,1396.4531,532,1400.4531,528,1396.4531" style="stroke:#181818;stroke-width:1.0;"/><line style="stroke:#181818;stroke-width:1.0;stroke-dasharray:2.0,2.0;" x1="526" x2="1278.5" y1="1396.4531" y2="1396.4531"/><text fill="#000000" font-family="sans-serif" font-size="13" font-weight="bold" lengthAdjust="spacing" textLength="14" x="538" y="1391.6982">39</text><text fill="#000000" font-family="sans-serif" font-size="13" lengthAdjust="spacing" textLength="90" x="556" y="1391.6982">operationResult</text><polygon fill="#181818" points="271,1420.9766,261,1424.9766,271,1428.9766,267,1424.9766" style="stroke:#181818;stroke-width:1.0;"/><line style="stroke:#181818;stroke-width:1.0;stroke-dasharray:2.0,2.0;" x1="265" x2="515" y1="1424.9766" y2="1424.9766"/><text fill="#000000" font-family="sans-serif" font-size="13" font-weight="bold" lengthAdjust="spacing" textLength="14" x="277" y="1420.2217">40</text><text fill="#000000" font-family="sans-serif" font-size="13" lengthAdjust="spacing" textLength="90" x="295" y="1420.2217">operationResult</text><polygon fill="#181818" points="37,1449.5,27,1453.5,37,1457.5,33,1453.5" style="stroke:#181818;stroke-width:1.0;"/><line style="stroke:#181818;stroke-width:1.0;stroke-dasharray:2.0,2.0;" x1="31" x2="254" y1="1453.5" y2="1453.5"/><text fill="#000000" font-family="sans-serif" font-size="13" font-weight="bold" lengthAdjust="spacing" textLength="14" x="43" y="1448.7451">41</text><text fill="#000000" font-family="sans-serif" font-size="13" lengthAdjust="spacing" textLength="130" x="61" y="1448.7451">shows operation result</text><!--SRC=[hLV9Rjim4BtxAuYSdA3vWHmA56aB-50Ko7RgXQ4c5c69L4agWV- -eyKIAIvQKbuiIpFllLd8aVI9YuegMf9I2ibo9KiWHjMmqyEJYh8JFSAZEHT05313nR6m3NHEC_d1nP6yqKB3RaTh8qLTleB2QsQa8lS51s5sQ6yuunKLXbmziXooke0NhhbvFbmHgidp8M5pBuLHiYX0jRRZNzUdutg0IgAFLEVEU78pvD8QCbzfz_GNhQe9LVVW-zDlvswhzG7-rg1ZXBP90DT-x0gz-rPL1MVKS2aUGMlyQLNZxVwlQqyzypy2CK8GQAf34AnM2gCStPyrADknCRYGD-NcxzJ0fU8xWgkx9hTViRxa3drEcXX9Ide2Gicx7MrZFc1WDxGtceMUw3_M_EO6aPW2j7ED6gkEhsTwm_xBq6n_HkClJQER_0lUEL-tVXbuV1Ezvbo1RY7IyeBCsc0odtW9-rpM2kcvg0sienumDl23o3x9tYCiBmrwAZXoRK3PdRot2usRvde069jctDB3mrRNY3rbEeBfLF_4iyjgpVsrWp1BuTECUwgZEGYiWs0mGNRGhNte6JNBmhoTHa97twcRLQeKWwj_tD1zcfoDd8h2EWg2KLZ8NXJrM89K62aADmphUEdYQ8fyo5BwdHE9H9QDwqK19UL5Id-IOjAkaz5ZDorkWwPlVpHq-vOq4POtmuAnUNGp4cRvDsXeLY5brPr0bEMNiKeIAoISNSwpdEfPaNuVM3CejNgMst2cNgKiW8eaYjqPwKZnD8qBybCGbfJWi9Hyjb-wDvDc3aZiqtr7kgW_-dUQcJXx_84FIUofliuva9_cnMnHYb9omoMnpueusQfQ96PScC56NpGtmo-cgwUrK-_8owuNNOHxeihkE8aRNQHLH9Ma2XhWcwYOQy8GGYgztWjkf8fB8bYMHuUUPbcqi0lpENU6B5E5MhX-eGKF3UyeT_mKSR2J5KWTuP42V2PGX_iISZhjcrFlZzhtHSbRLJQym2_x1I5ihEJ_hUXSPJUDvbYk4Y8bxk3sC_i1T5sODTstTSEbKZOdPuEKX0ndWAMeLzBQ8-todHg3dvcGqszcdSiFFOBXM1pGt6zbRwx_0m00]--></g></svg>