<?xml version="1.0" encoding="us-ascii" standalone="no"?><svg xmlns="http://www.w3.org/2000/svg" xmlns:xlink="http://www.w3.org/1999/xlink" contentStyleType="text/css" height="1216px" preserveAspectRatio="none" style="width:838px;height:1216px;background:#FFFFFF;" version="1.1" viewBox="0 0 838 1216" width="838px" zoomAndPan="magnify"><defs/><g><!--class Repositories--><g id="elem_Repositories"><rect codeLine="9" fill="#F1F1F1" height="94.9219" id="Repositories" rx="2.5" ry="2.5" style="stroke:#181818;stroke-width:0.5;" width="206" x="393.5" y="163"/><ellipse cx="452.75" cy="179" fill="#ADD1B2" rx="11" ry="11" style="stroke:#181818;stroke-width:1.0;"/><path d="M455.5156,174.875 Q455.6719,174.6563 455.8594,174.5469 Q456.0469,174.4375 456.2656,174.4375 Q456.6406,174.4375 456.875,174.7031 Q457.1094,174.9531 457.1094,175.5625 L457.1094,177.0156 Q457.1094,177.625 456.875,177.8906 Q456.6406,178.1563 456.2656,178.1563 Q455.9219,178.1563 455.7188,177.9531 Q455.5156,177.7656 455.4063,177.25 Q455.3594,176.8906 455.1719,176.7031 Q454.8438,176.3281 454.2344,176.1094 Q453.625,175.8906 453,175.8906 Q452.2344,175.8906 451.5938,176.2188 Q450.9688,176.5469 450.4688,177.2969 Q449.9844,178.0469 449.9844,179.0781 L449.9844,180.1719 Q449.9844,181.4063 450.875,182.2344 Q451.7656,183.0469 453.3594,183.0469 Q454.2969,183.0469 454.9531,182.7969 Q455.3438,182.6406 455.7656,182.2031 Q456.0313,181.9375 456.1719,181.8594 Q456.3281,181.7813 456.5313,181.7813 Q456.8594,181.7813 457.1094,182.0469 Q457.375,182.2969 457.375,182.6406 Q457.375,182.9844 457.0313,183.3906 Q456.5313,183.9688 455.7344,184.2969 Q454.6563,184.75 453.3594,184.75 Q451.8438,184.75 450.6406,184.125 Q449.6563,183.625 448.9688,182.5625 Q448.2813,181.4844 448.2813,180.2031 L448.2813,179.0469 Q448.2813,177.7188 448.8906,176.5781 Q449.5156,175.4219 450.6094,174.8125 Q451.7031,174.1875 452.9375,174.1875 Q453.6719,174.1875 454.3125,174.3594 Q454.9688,174.5156 455.5156,174.875 Z " fill="#000000"/><text fill="#000000" font-family="sans-serif" font-size="14" lengthAdjust="spacing" textLength="79" x="473.25" y="183.8535">Repositories</text><line style="stroke:#181818;stroke-width:0.5;" x1="394.5" x2="598.5" y1="195" y2="195"/><rect fill="none" height="6" style="stroke:#C82930;stroke-width:1.0;" width="6" x="401.5" y="205.3203"/><text fill="#000000" font-family="sans-serif" font-size="14" lengthAdjust="spacing" textLength="79" x="413.5" y="211.6738">Repositories</text><line style="stroke:#181818;stroke-width:0.5;" x1="394.5" x2="598.5" y1="218.6406" y2="218.6406"/><ellipse cx="404.5" cy="231.9609" fill="#84BE84" rx="3" ry="3" style="stroke:#038048;stroke-width:1.0;"/><text fill="#000000" font-family="sans-serif" font-size="14" lengthAdjust="spacing" textLength="174" x="413.5" y="235.3145">getInstance() : Repositories</text><ellipse cx="404.5" cy="247.6016" fill="#84BE84" rx="3" ry="3" style="stroke:#038048;stroke-width:1.0;"/><text fill="#000000" font-family="sans-serif" font-size="14" lengthAdjust="spacing" textLength="180" x="413.5" y="250.9551">getPropertySaleRepository()</text></g><!--class PropertySaleRepository--><g id="elem_PropertySaleRepository"><rect codeLine="16" fill="#F1F1F1" height="48" id="PropertySaleRepository" rx="2.5" ry="2.5" style="stroke:#181818;stroke-width:0.5;" width="182" x="405.5" y="334"/><ellipse cx="420.5" cy="350" fill="#ADD1B2" rx="11" ry="11" style="stroke:#181818;stroke-width:1.0;"/><path d="M423.2656,345.875 Q423.4219,345.6563 423.6094,345.5469 Q423.7969,345.4375 424.0156,345.4375 Q424.3906,345.4375 424.625,345.7031 Q424.8594,345.9531 424.8594,346.5625 L424.8594,348.0156 Q424.8594,348.625 424.625,348.8906 Q424.3906,349.1563 424.0156,349.1563 Q423.6719,349.1563 423.4688,348.9531 Q423.2656,348.7656 423.1563,348.25 Q423.1094,347.8906 422.9219,347.7031 Q422.5938,347.3281 421.9844,347.1094 Q421.375,346.8906 420.75,346.8906 Q419.9844,346.8906 419.3438,347.2188 Q418.7188,347.5469 418.2188,348.2969 Q417.7344,349.0469 417.7344,350.0781 L417.7344,351.1719 Q417.7344,352.4063 418.625,353.2344 Q419.5156,354.0469 421.1094,354.0469 Q422.0469,354.0469 422.7031,353.7969 Q423.0938,353.6406 423.5156,353.2031 Q423.7813,352.9375 423.9219,352.8594 Q424.0781,352.7813 424.2813,352.7813 Q424.6094,352.7813 424.8594,353.0469 Q425.125,353.2969 425.125,353.6406 Q425.125,353.9844 424.7813,354.3906 Q424.2813,354.9688 423.4844,355.2969 Q422.4063,355.75 421.1094,355.75 Q419.5938,355.75 418.3906,355.125 Q417.4063,354.625 416.7188,353.5625 Q416.0313,352.4844 416.0313,351.2031 L416.0313,350.0469 Q416.0313,348.7188 416.6406,347.5781 Q417.2656,346.4219 418.3594,345.8125 Q419.4531,345.1875 420.6875,345.1875 Q421.4219,345.1875 422.0625,345.3594 Q422.7188,345.5156 423.2656,345.875 Z " fill="#000000"/><text fill="#000000" font-family="sans-serif" font-size="14" lengthAdjust="spacing" textLength="150" x="434.5" y="354.8535">PropertySaleRepository</text><line style="stroke:#181818;stroke-width:0.5;" x1="406.5" x2="586.5" y1="366" y2="366"/><line style="stroke:#181818;stroke-width:0.5;" x1="406.5" x2="586.5" y1="374" y2="374"/></g><g id="elem_GMN4"><path d="M249,338.5 L249,377.5469 L370,377.5469 L370,348.5 L360,338.5 L249,338.5 " fill="#FEFFDD" style="stroke:#181818;stroke-width:0.5;"/><path d="M360,338.5 L360,348.5 L370,348.5 L360,338.5 " fill="#FEFFDD" style="stroke:#181818;stroke-width:1.0;"/><text fill="#000000" font-family="sans-serif" font-size="13" lengthAdjust="spacing" textLength="91" x="255" y="355.2686">Used for storing</text><text fill="#000000" font-family="sans-serif" font-size="13" lengthAdjust="spacing" textLength="100" x="255" y="369.792">the properties list</text></g><!--class ListPropertiesController--><g id="elem_ListPropertiesController"><rect codeLine="25" fill="#F1F1F1" height="94.9219" id="ListPropertiesController" rx="2.5" ry="2.5" style="stroke:#181818;stroke-width:0.5;" width="646" x="173.5" y="7"/><ellipse cx="417.75" cy="23" fill="#ADD1B2" rx="11" ry="11" style="stroke:#181818;stroke-width:1.0;"/><path d="M420.5156,18.875 Q420.6719,18.6563 420.8594,18.5469 Q421.0469,18.4375 421.2656,18.4375 Q421.6406,18.4375 421.875,18.7031 Q422.1094,18.9531 422.1094,19.5625 L422.1094,21.0156 Q422.1094,21.625 421.875,21.8906 Q421.6406,22.1563 421.2656,22.1563 Q420.9219,22.1563 420.7188,21.9531 Q420.5156,21.7656 420.4063,21.25 Q420.3594,20.8906 420.1719,20.7031 Q419.8438,20.3281 419.2344,20.1094 Q418.625,19.8906 418,19.8906 Q417.2344,19.8906 416.5938,20.2188 Q415.9688,20.5469 415.4688,21.2969 Q414.9844,22.0469 414.9844,23.0781 L414.9844,24.1719 Q414.9844,25.4063 415.875,26.2344 Q416.7656,27.0469 418.3594,27.0469 Q419.2969,27.0469 419.9531,26.7969 Q420.3438,26.6406 420.7656,26.2031 Q421.0313,25.9375 421.1719,25.8594 Q421.3281,25.7813 421.5313,25.7813 Q421.8594,25.7813 422.1094,26.0469 Q422.375,26.2969 422.375,26.6406 Q422.375,26.9844 422.0313,27.3906 Q421.5313,27.9688 420.7344,28.2969 Q419.6563,28.75 418.3594,28.75 Q416.8438,28.75 415.6406,28.125 Q414.6563,27.625 413.9688,26.5625 Q413.2813,25.4844 413.2813,24.2031 L413.2813,23.0469 Q413.2813,21.7188 413.8906,20.5781 Q414.5156,19.4219 415.6094,18.8125 Q416.7031,18.1875 417.9375,18.1875 Q418.6719,18.1875 419.3125,18.3594 Q419.9688,18.5156 420.5156,18.875 Z " fill="#000000"/><text fill="#000000" font-family="sans-serif" font-size="14" lengthAdjust="spacing" textLength="149" x="438.25" y="27.8535">ListPropertiesController</text><line style="stroke:#181818;stroke-width:0.5;" x1="174.5" x2="818.5" y1="39" y2="39"/><line style="stroke:#181818;stroke-width:0.5;" x1="174.5" x2="818.5" y1="47" y2="47"/><ellipse cx="184.5" cy="60.3203" fill="#84BE84" rx="3" ry="3" style="stroke:#038048;stroke-width:1.0;"/><text fill="#000000" font-family="sans-serif" font-size="14" lengthAdjust="spacing" textLength="159" x="193.5" y="63.6738">ListPropertiesController()</text><ellipse cx="184.5" cy="75.9609" fill="#84BE84" rx="3" ry="3" style="stroke:#038048;stroke-width:1.0;"/><text fill="#000000" font-family="sans-serif" font-size="14" lengthAdjust="spacing" textLength="203" x="193.5" y="79.3145">ListProperties(short sortCriteria)</text><ellipse cx="184.5" cy="91.6016" fill="#84BE84" rx="3" ry="3" style="stroke:#038048;stroke-width:1.0;"/><text fill="#000000" font-family="sans-serif" font-size="14" lengthAdjust="spacing" textLength="620" x="193.5" y="94.9551">ListProperties(short sortCriteria, short propertyBusiness, short propertyType, int numberOfRooms)</text></g><!--class PropertySaleRequest--><g id="elem_PropertySaleRequest"><rect codeLine="31" fill="#F1F1F1" height="94.9219" id="PropertySaleRequest" rx="2.5" ry="2.5" style="stroke:#181818;stroke-width:0.5;" width="167" x="579" y="615"/><ellipse cx="594" cy="631" fill="#ADD1B2" rx="11" ry="11" style="stroke:#181818;stroke-width:1.0;"/><path d="M596.7656,626.875 Q596.9219,626.6563 597.1094,626.5469 Q597.2969,626.4375 597.5156,626.4375 Q597.8906,626.4375 598.125,626.7031 Q598.3594,626.9531 598.3594,627.5625 L598.3594,629.0156 Q598.3594,629.625 598.125,629.8906 Q597.8906,630.1563 597.5156,630.1563 Q597.1719,630.1563 596.9688,629.9531 Q596.7656,629.7656 596.6563,629.25 Q596.6094,628.8906 596.4219,628.7031 Q596.0938,628.3281 595.4844,628.1094 Q594.875,627.8906 594.25,627.8906 Q593.4844,627.8906 592.8438,628.2188 Q592.2188,628.5469 591.7188,629.2969 Q591.2344,630.0469 591.2344,631.0781 L591.2344,632.1719 Q591.2344,633.4063 592.125,634.2344 Q593.0156,635.0469 594.6094,635.0469 Q595.5469,635.0469 596.2031,634.7969 Q596.5938,634.6406 597.0156,634.2031 Q597.2813,633.9375 597.4219,633.8594 Q597.5781,633.7813 597.7813,633.7813 Q598.1094,633.7813 598.3594,634.0469 Q598.625,634.2969 598.625,634.6406 Q598.625,634.9844 598.2813,635.3906 Q597.7813,635.9688 596.9844,636.2969 Q595.9063,636.75 594.6094,636.75 Q593.0938,636.75 591.8906,636.125 Q590.9063,635.625 590.2188,634.5625 Q589.5313,633.4844 589.5313,632.2031 L589.5313,631.0469 Q589.5313,629.7188 590.1406,628.5781 Q590.7656,627.4219 591.8594,626.8125 Q592.9531,626.1875 594.1875,626.1875 Q594.9219,626.1875 595.5625,626.3594 Q596.2188,626.5156 596.7656,626.875 Z " fill="#000000"/><text fill="#000000" font-family="sans-serif" font-size="14" lengthAdjust="spacing" textLength="135" x="608" y="635.8535">PropertySaleRequest</text><line style="stroke:#181818;stroke-width:0.5;" x1="580" x2="745" y1="647" y2="647"/><rect fill="none" height="6" style="stroke:#C82930;stroke-width:1.0;" width="6" x="587" y="657.3203"/><text fill="#000000" font-family="sans-serif" font-size="14" lengthAdjust="spacing" textLength="118" x="599" y="663.6738">int typeOfBusiness</text><rect fill="none" height="6" style="stroke:#C82930;stroke-width:1.0;" width="6" x="587" y="672.9609"/><text fill="#000000" font-family="sans-serif" font-size="14" lengthAdjust="spacing" textLength="127" x="599" y="679.3145">float requestedPrice</text><line style="stroke:#181818;stroke-width:0.5;" x1="580" x2="745" y1="686.2813" y2="686.2813"/><ellipse cx="590" cy="699.6016" fill="#84BE84" rx="3" ry="3" style="stroke:#038048;stroke-width:1.0;"/><text fill="#000000" font-family="sans-serif" font-size="14" lengthAdjust="spacing" textLength="76" x="599" y="702.9551">SortByCity()</text></g><!--class ListPropertiesUI--><g id="elem_ListPropertiesUI"><rect codeLine="38" fill="#F1F1F1" height="48" id="ListPropertiesUI" rx="2.5" ry="2.5" style="stroke:#181818;stroke-width:0.5;" width="131" x="7" y="30.5"/><ellipse cx="22" cy="46.5" fill="#ADD1B2" rx="11" ry="11" style="stroke:#181818;stroke-width:1.0;"/><path d="M24.7656,42.375 Q24.9219,42.1563 25.1094,42.0469 Q25.2969,41.9375 25.5156,41.9375 Q25.8906,41.9375 26.125,42.2031 Q26.3594,42.4531 26.3594,43.0625 L26.3594,44.5156 Q26.3594,45.125 26.125,45.3906 Q25.8906,45.6563 25.5156,45.6563 Q25.1719,45.6563 24.9688,45.4531 Q24.7656,45.2656 24.6563,44.75 Q24.6094,44.3906 24.4219,44.2031 Q24.0938,43.8281 23.4844,43.6094 Q22.875,43.3906 22.25,43.3906 Q21.4844,43.3906 20.8438,43.7188 Q20.2188,44.0469 19.7188,44.7969 Q19.2344,45.5469 19.2344,46.5781 L19.2344,47.6719 Q19.2344,48.9063 20.125,49.7344 Q21.0156,50.5469 22.6094,50.5469 Q23.5469,50.5469 24.2031,50.2969 Q24.5938,50.1406 25.0156,49.7031 Q25.2813,49.4375 25.4219,49.3594 Q25.5781,49.2813 25.7813,49.2813 Q26.1094,49.2813 26.3594,49.5469 Q26.625,49.7969 26.625,50.1406 Q26.625,50.4844 26.2813,50.8906 Q25.7813,51.4688 24.9844,51.7969 Q23.9063,52.25 22.6094,52.25 Q21.0938,52.25 19.8906,51.625 Q18.9063,51.125 18.2188,50.0625 Q17.5313,48.9844 17.5313,47.7031 L17.5313,46.5469 Q17.5313,45.2188 18.1406,44.0781 Q18.7656,42.9219 19.8594,42.3125 Q20.9531,41.6875 22.1875,41.6875 Q22.9219,41.6875 23.5625,41.8594 Q24.2188,42.0156 24.7656,42.375 Z " fill="#000000"/><text fill="#000000" font-family="sans-serif" font-size="14" lengthAdjust="spacing" textLength="99" x="36" y="51.3535">ListPropertiesUI</text><line style="stroke:#181818;stroke-width:0.5;" x1="8" x2="137" y1="62.5" y2="62.5"/><line style="stroke:#181818;stroke-width:0.5;" x1="8" x2="137" y1="70.5" y2="70.5"/></g><!--class PropertySale--><g id="elem_PropertySale"><rect codeLine="41" fill="#F1F1F1" height="110.5625" id="PropertySale" rx="2.5" ry="2.5" style="stroke:#181818;stroke-width:0.5;" width="152" x="586.5" y="443"/><ellipse cx="618.6" cy="459" fill="#ADD1B2" rx="11" ry="11" style="stroke:#181818;stroke-width:1.0;"/><path d="M621.3656,454.875 Q621.5219,454.6563 621.7094,454.5469 Q621.8969,454.4375 622.1156,454.4375 Q622.4906,454.4375 622.725,454.7031 Q622.9594,454.9531 622.9594,455.5625 L622.9594,457.0156 Q622.9594,457.625 622.725,457.8906 Q622.4906,458.1563 622.1156,458.1563 Q621.7719,458.1563 621.5688,457.9531 Q621.3656,457.7656 621.2563,457.25 Q621.2094,456.8906 621.0219,456.7031 Q620.6938,456.3281 620.0844,456.1094 Q619.475,455.8906 618.85,455.8906 Q618.0844,455.8906 617.4438,456.2188 Q616.8188,456.5469 616.3188,457.2969 Q615.8344,458.0469 615.8344,459.0781 L615.8344,460.1719 Q615.8344,461.4063 616.725,462.2344 Q617.6156,463.0469 619.2094,463.0469 Q620.1469,463.0469 620.8031,462.7969 Q621.1938,462.6406 621.6156,462.2031 Q621.8813,461.9375 622.0219,461.8594 Q622.1781,461.7813 622.3813,461.7813 Q622.7094,461.7813 622.9594,462.0469 Q623.225,462.2969 623.225,462.6406 Q623.225,462.9844 622.8813,463.3906 Q622.3813,463.9688 621.5844,464.2969 Q620.5063,464.75 619.2094,464.75 Q617.6938,464.75 616.4906,464.125 Q615.5063,463.625 614.8188,462.5625 Q614.1313,461.4844 614.1313,460.2031 L614.1313,459.0469 Q614.1313,457.7188 614.7406,456.5781 Q615.3656,455.4219 616.4594,454.8125 Q617.5531,454.1875 618.7875,454.1875 Q619.5219,454.1875 620.1625,454.3594 Q620.8188,454.5156 621.3656,454.875 Z " fill="#000000"/><text fill="#000000" font-family="sans-serif" font-size="14" lengthAdjust="spacing" textLength="82" x="636.4" y="463.8535">PropertySale</text><line style="stroke:#181818;stroke-width:0.5;" x1="587.5" x2="737.5" y1="475" y2="475"/><rect fill="none" height="6" style="stroke:#C82930;stroke-width:1.0;" width="6" x="594.5" y="485.3203"/><text fill="#000000" font-family="sans-serif" font-size="14" lengthAdjust="spacing" textLength="126" x="606.5" y="491.6738">int typeOfComission</text><rect fill="none" height="6" style="stroke:#C82930;stroke-width:1.0;" width="6" x="594.5" y="500.9609"/><text fill="#000000" font-family="sans-serif" font-size="14" lengthAdjust="spacing" textLength="104" x="606.5" y="507.3145">float commission</text><line style="stroke:#181818;stroke-width:0.5;" x1="587.5" x2="737.5" y1="514.2813" y2="514.2813"/><ellipse cx="597.5" cy="527.6016" fill="#84BE84" rx="3" ry="3" style="stroke:#038048;stroke-width:1.0;"/><text fill="#000000" font-family="sans-serif" font-size="14" lengthAdjust="spacing" textLength="84" x="606.5" y="530.9551">SortByPrice()</text><ellipse cx="597.5" cy="543.2422" fill="#84BE84" rx="3" ry="3" style="stroke:#038048;stroke-width:1.0;"/><text fill="#000000" font-family="sans-serif" font-size="14" lengthAdjust="spacing" textLength="98" x="606.5" y="546.5957">calculatePrice()</text></g><g id="elem_GMN11"><path d="M400,464.5 L400,532.5938 A0,0 0 0 0 400,532.5938 L551,532.5938 A0,0 0 0 0 551,532.5938 L551,502.5 L586.1,498.5 L551,494.5 L551,474.5 L541,464.5 L400,464.5 A0,0 0 0 0 400,464.5 " fill="#FEFFDD" style="stroke:#181818;stroke-width:0.5;"/><path d="M541,464.5 L541,474.5 L551,474.5 L541,464.5 " fill="#FEFFDD" style="stroke:#181818;stroke-width:0.5;"/><text fill="#000000" font-family="sans-serif" font-size="13" lengthAdjust="spacing" textLength="112" x="406" y="481.2686">Used for categorize</text><text fill="#000000" font-family="sans-serif" font-size="13" lengthAdjust="spacing" textLength="105" x="406" y="495.792">the properties that</text><text fill="#000000" font-family="sans-serif" font-size="13" lengthAdjust="spacing" textLength="130" x="406" y="510.3154">were already accepted</text><text fill="#000000" font-family="sans-serif" font-size="13" lengthAdjust="spacing" textLength="98" x="406" y="524.8389">in the application</text></g><!--class Property--><g id="elem_Property"><rect codeLine="56" fill="#F1F1F1" height="110.5625" id="Property" rx="2.5" ry="2.5" style="stroke:#181818;stroke-width:0.5;" width="210" x="557.5" y="771"/><ellipse cx="631.25" cy="787" fill="#A9DCDF" rx="11" ry="11" style="stroke:#181818;stroke-width:1.0;"/><path d="M633.4375,788.7656 L629.2969,788.7656 L628.875,789.7969 L629.2969,789.7969 Q629.9063,789.7969 630.1719,790.0313 Q630.4375,790.2656 630.4375,790.6563 Q630.4375,791.0313 630.1719,791.2656 Q629.9063,791.5 629.2969,791.5 L627,791.5 Q626.3906,791.5 626.1406,791.2656 Q625.875,791.0313 625.875,790.6406 Q625.875,790.2656 626.1563,790.0313 Q626.4219,789.7813 627.0469,789.7969 L629.7188,783.1406 L628.6094,783.1406 Q628,783.1406 627.7344,782.9063 Q627.4688,782.6719 627.4688,782.2813 Q627.4688,781.9063 627.7344,781.6719 Q628,781.4375 628.6094,781.4375 L632.2813,781.4375 L635.6719,789.7969 Q636.2656,789.7969 636.4531,789.9375 Q636.8438,790.2031 636.8438,790.6563 Q636.8438,791.0313 636.5781,791.2656 Q636.3281,791.5 635.7188,791.5 L633.4219,791.5 Q632.8125,791.5 632.5469,791.2656 Q632.2813,791.0313 632.2813,790.6406 Q632.2813,790.2656 632.5469,790.0313 Q632.8125,789.7969 633.4219,789.7969 L633.8438,789.7969 L633.4375,788.7656 Z M632.7188,787.0625 L631.3594,783.6875 L629.9844,787.0625 L632.7188,787.0625 Z " fill="#000000"/><text fill="#000000" font-family="sans-serif" font-size="14" font-style="italic" lengthAdjust="spacing" textLength="54" x="651.75" y="791.8535">Property</text><line style="stroke:#181818;stroke-width:0.5;" x1="558.5" x2="766.5" y1="803" y2="803"/><rect fill="none" height="6" style="stroke:#C82930;stroke-width:1.0;" width="6" x="565.5" y="813.3203"/><text fill="#000000" font-family="sans-serif" font-size="14" lengthAdjust="spacing" textLength="60" x="577.5" y="819.6738">float area</text><rect fill="none" height="6" style="stroke:#C82930;stroke-width:1.0;" width="6" x="565.5" y="828.9609"/><text fill="#000000" font-family="sans-serif" font-size="14" lengthAdjust="spacing" textLength="77" x="577.5" y="835.3145">String street</text><rect fill="none" height="6" style="stroke:#C82930;stroke-width:1.0;" width="6" x="565.5" y="844.6016"/><text fill="#000000" font-family="sans-serif" font-size="14" lengthAdjust="spacing" textLength="92" x="577.5" y="850.9551">String zipCode</text><rect fill="none" height="6" style="stroke:#C82930;stroke-width:1.0;" width="6" x="565.5" y="860.2422"/><text fill="#000000" font-family="sans-serif" font-size="14" lengthAdjust="spacing" textLength="184" x="577.5" y="866.5957">float distanceFromCityCenter</text><line style="stroke:#181818;stroke-width:0.5;" x1="558.5" x2="766.5" y1="873.5625" y2="873.5625"/></g><!--class Land--><g id="elem_Land"><rect codeLine="64" fill="#F1F1F1" height="48" id="Land" rx="2.5" ry="2.5" style="stroke:#181818;stroke-width:0.5;" width="64" x="630.5" y="974.5"/><ellipse cx="645.5" cy="990.5" fill="#ADD1B2" rx="11" ry="11" style="stroke:#181818;stroke-width:1.0;"/><path d="M648.2656,986.375 Q648.4219,986.1563 648.6094,986.0469 Q648.7969,985.9375 649.0156,985.9375 Q649.3906,985.9375 649.625,986.2031 Q649.8594,986.4531 649.8594,987.0625 L649.8594,988.5156 Q649.8594,989.125 649.625,989.3906 Q649.3906,989.6563 649.0156,989.6563 Q648.6719,989.6563 648.4688,989.4531 Q648.2656,989.2656 648.1563,988.75 Q648.1094,988.3906 647.9219,988.2031 Q647.5938,987.8281 646.9844,987.6094 Q646.375,987.3906 645.75,987.3906 Q644.9844,987.3906 644.3438,987.7188 Q643.7188,988.0469 643.2188,988.7969 Q642.7344,989.5469 642.7344,990.5781 L642.7344,991.6719 Q642.7344,992.9063 643.625,993.7344 Q644.5156,994.5469 646.1094,994.5469 Q647.0469,994.5469 647.7031,994.2969 Q648.0938,994.1406 648.5156,993.7031 Q648.7813,993.4375 648.9219,993.3594 Q649.0781,993.2813 649.2813,993.2813 Q649.6094,993.2813 649.8594,993.5469 Q650.125,993.7969 650.125,994.1406 Q650.125,994.4844 649.7813,994.8906 Q649.2813,995.4688 648.4844,995.7969 Q647.4063,996.25 646.1094,996.25 Q644.5938,996.25 643.3906,995.625 Q642.4063,995.125 641.7188,994.0625 Q641.0313,992.9844 641.0313,991.7031 L641.0313,990.5469 Q641.0313,989.2188 641.6406,988.0781 Q642.2656,986.9219 643.3594,986.3125 Q644.4531,985.6875 645.6875,985.6875 Q646.4219,985.6875 647.0625,985.8594 Q647.7188,986.0156 648.2656,986.375 Z " fill="#000000"/><text fill="#000000" font-family="sans-serif" font-size="14" lengthAdjust="spacing" textLength="32" x="659.5" y="995.3535">Land</text><line style="stroke:#181818;stroke-width:0.5;" x1="631.5" x2="693.5" y1="1006.5" y2="1006.5"/><line style="stroke:#181818;stroke-width:0.5;" x1="631.5" x2="693.5" y1="1014.5" y2="1014.5"/></g><!--class City--><g id="elem_City"><rect codeLine="68" fill="#F1F1F1" height="63.6406" id="City" rx="2.5" ry="2.5" style="stroke:#181818;stroke-width:0.5;" width="102" x="729.5" y="966.5"/><ellipse cx="765.2" cy="982.5" fill="#ADD1B2" rx="11" ry="11" style="stroke:#181818;stroke-width:1.0;"/><path d="M767.9656,978.375 Q768.1219,978.1563 768.3094,978.0469 Q768.4969,977.9375 768.7156,977.9375 Q769.0906,977.9375 769.325,978.2031 Q769.5594,978.4531 769.5594,979.0625 L769.5594,980.5156 Q769.5594,981.125 769.325,981.3906 Q769.0906,981.6563 768.7156,981.6563 Q768.3719,981.6563 768.1688,981.4531 Q767.9656,981.2656 767.8563,980.75 Q767.8094,980.3906 767.6219,980.2031 Q767.2938,979.8281 766.6844,979.6094 Q766.075,979.3906 765.45,979.3906 Q764.6844,979.3906 764.0438,979.7188 Q763.4188,980.0469 762.9188,980.7969 Q762.4344,981.5469 762.4344,982.5781 L762.4344,983.6719 Q762.4344,984.9063 763.325,985.7344 Q764.2156,986.5469 765.8094,986.5469 Q766.7469,986.5469 767.4031,986.2969 Q767.7938,986.1406 768.2156,985.7031 Q768.4813,985.4375 768.6219,985.3594 Q768.7781,985.2813 768.9813,985.2813 Q769.3094,985.2813 769.5594,985.5469 Q769.825,985.7969 769.825,986.1406 Q769.825,986.4844 769.4813,986.8906 Q768.9813,987.4688 768.1844,987.7969 Q767.1063,988.25 765.8094,988.25 Q764.2938,988.25 763.0906,987.625 Q762.1063,987.125 761.4188,986.0625 Q760.7313,984.9844 760.7313,983.7031 L760.7313,982.5469 Q760.7313,981.2188 761.3406,980.0781 Q761.9656,978.9219 763.0594,978.3125 Q764.1531,977.6875 765.3875,977.6875 Q766.1219,977.6875 766.7625,977.8594 Q767.4188,978.0156 767.9656,978.375 Z " fill="#000000"/><text fill="#000000" font-family="sans-serif" font-size="14" lengthAdjust="spacing" textLength="24" x="783.8" y="987.3535">City</text><line style="stroke:#181818;stroke-width:0.5;" x1="730.5" x2="830.5" y1="998.5" y2="998.5"/><rect fill="none" height="6" style="stroke:#C82930;stroke-width:1.0;" width="6" x="737.5" y="1008.8203"/><text fill="#000000" font-family="sans-serif" font-size="14" lengthAdjust="spacing" textLength="76" x="749.5" y="1015.1738">String name</text><line style="stroke:#181818;stroke-width:0.5;" x1="730.5" x2="830.5" y1="1022.1406" y2="1022.1406"/></g><!--class ResidentialProperty--><g id="elem_ResidentialProperty"><rect codeLine="72" fill="#F1F1F1" height="110.5625" id="ResidentialProperty" rx="2.5" ry="2.5" style="stroke:#181818;stroke-width:0.5;" width="176" x="419.5" y="943"/><ellipse cx="443.5" cy="959" fill="#A9DCDF" rx="11" ry="11" style="stroke:#181818;stroke-width:1.0;"/><path d="M445.6875,960.7656 L441.5469,960.7656 L441.125,961.7969 L441.5469,961.7969 Q442.1563,961.7969 442.4219,962.0313 Q442.6875,962.2656 442.6875,962.6563 Q442.6875,963.0313 442.4219,963.2656 Q442.1563,963.5 441.5469,963.5 L439.25,963.5 Q438.6406,963.5 438.3906,963.2656 Q438.125,963.0313 438.125,962.6406 Q438.125,962.2656 438.4063,962.0313 Q438.6719,961.7813 439.2969,961.7969 L441.9688,955.1406 L440.8594,955.1406 Q440.25,955.1406 439.9844,954.9063 Q439.7188,954.6719 439.7188,954.2813 Q439.7188,953.9063 439.9844,953.6719 Q440.25,953.4375 440.8594,953.4375 L444.5313,953.4375 L447.9219,961.7969 Q448.5156,961.7969 448.7031,961.9375 Q449.0938,962.2031 449.0938,962.6563 Q449.0938,963.0313 448.8281,963.2656 Q448.5781,963.5 447.9688,963.5 L445.6719,963.5 Q445.0625,963.5 444.7969,963.2656 Q444.5313,963.0313 444.5313,962.6406 Q444.5313,962.2656 444.7969,962.0313 Q445.0625,961.7969 445.6719,961.7969 L446.0938,961.7969 L445.6875,960.7656 Z M444.9688,959.0625 L443.6094,955.6875 L442.2344,959.0625 L444.9688,959.0625 Z " fill="#000000"/><text fill="#000000" font-family="sans-serif" font-size="14" font-style="italic" lengthAdjust="spacing" textLength="124" x="459.5" y="963.8535">ResidentialProperty</text><line style="stroke:#181818;stroke-width:0.5;" x1="420.5" x2="594.5" y1="975" y2="975"/><rect fill="none" height="6" style="stroke:#C82930;stroke-width:1.0;" width="6" x="427.5" y="985.3203"/><text fill="#000000" font-family="sans-serif" font-size="14" lengthAdjust="spacing" textLength="127" x="439.5" y="991.6738">numberOfBedrooms</text><rect fill="none" height="6" style="stroke:#C82930;stroke-width:1.0;" width="6" x="427.5" y="1000.9609"/><text fill="#000000" font-family="sans-serif" font-size="14" lengthAdjust="spacing" textLength="131" x="439.5" y="1007.3145">numberOfBathrooms</text><rect fill="none" height="6" style="stroke:#C82930;stroke-width:1.0;" width="6" x="427.5" y="1016.6016"/><text fill="#000000" font-family="sans-serif" font-size="14" lengthAdjust="spacing" textLength="150" x="439.5" y="1022.9551">numerOfParkingSpaces</text><rect fill="none" height="6" style="stroke:#C82930;stroke-width:1.0;" width="6" x="427.5" y="1032.2422"/><text fill="#000000" font-family="sans-serif" font-size="14" lengthAdjust="spacing" textLength="123" x="439.5" y="1038.5957">availableEquipment</text><line style="stroke:#181818;stroke-width:0.5;" x1="420.5" x2="594.5" y1="1045.5625" y2="1045.5625"/></g><!--class Apartment--><g id="elem_Apartment"><rect codeLine="79" fill="#F1F1F1" height="48" id="Apartment" rx="2.5" ry="2.5" style="stroke:#181818;stroke-width:0.5;" width="97" x="369" y="1138.5"/><ellipse cx="384" cy="1154.5" fill="#ADD1B2" rx="11" ry="11" style="stroke:#181818;stroke-width:1.0;"/><path d="M386.7656,1150.375 Q386.9219,1150.1563 387.1094,1150.0469 Q387.2969,1149.9375 387.5156,1149.9375 Q387.8906,1149.9375 388.125,1150.2031 Q388.3594,1150.4531 388.3594,1151.0625 L388.3594,1152.5156 Q388.3594,1153.125 388.125,1153.3906 Q387.8906,1153.6563 387.5156,1153.6563 Q387.1719,1153.6563 386.9688,1153.4531 Q386.7656,1153.2656 386.6563,1152.75 Q386.6094,1152.3906 386.4219,1152.2031 Q386.0938,1151.8281 385.4844,1151.6094 Q384.875,1151.3906 384.25,1151.3906 Q383.4844,1151.3906 382.8438,1151.7188 Q382.2188,1152.0469 381.7188,1152.7969 Q381.2344,1153.5469 381.2344,1154.5781 L381.2344,1155.6719 Q381.2344,1156.9063 382.125,1157.7344 Q383.0156,1158.5469 384.6094,1158.5469 Q385.5469,1158.5469 386.2031,1158.2969 Q386.5938,1158.1406 387.0156,1157.7031 Q387.2813,1157.4375 387.4219,1157.3594 Q387.5781,1157.2813 387.7813,1157.2813 Q388.1094,1157.2813 388.3594,1157.5469 Q388.625,1157.7969 388.625,1158.1406 Q388.625,1158.4844 388.2813,1158.8906 Q387.7813,1159.4688 386.9844,1159.7969 Q385.9063,1160.25 384.6094,1160.25 Q383.0938,1160.25 381.8906,1159.625 Q380.9063,1159.125 380.2188,1158.0625 Q379.5313,1156.9844 379.5313,1155.7031 L379.5313,1154.5469 Q379.5313,1153.2188 380.1406,1152.0781 Q380.7656,1150.9219 381.8594,1150.3125 Q382.9531,1149.6875 384.1875,1149.6875 Q384.9219,1149.6875 385.5625,1149.8594 Q386.2188,1150.0156 386.7656,1150.375 Z " fill="#000000"/><text fill="#000000" font-family="sans-serif" font-size="14" lengthAdjust="spacing" textLength="65" x="398" y="1159.3535">Apartment</text><line style="stroke:#181818;stroke-width:0.5;" x1="370" x2="465" y1="1170.5" y2="1170.5"/><line style="stroke:#181818;stroke-width:0.5;" x1="370" x2="465" y1="1178.5" y2="1178.5"/></g><!--class House--><g id="elem_House"><rect codeLine="83" fill="#F1F1F1" height="94.9219" id="House" rx="2.5" ry="2.5" style="stroke:#181818;stroke-width:0.5;" width="193" x="501" y="1115"/><ellipse cx="573.25" cy="1131" fill="#ADD1B2" rx="11" ry="11" style="stroke:#181818;stroke-width:1.0;"/><path d="M576.0156,1126.875 Q576.1719,1126.6563 576.3594,1126.5469 Q576.5469,1126.4375 576.7656,1126.4375 Q577.1406,1126.4375 577.375,1126.7031 Q577.6094,1126.9531 577.6094,1127.5625 L577.6094,1129.0156 Q577.6094,1129.625 577.375,1129.8906 Q577.1406,1130.1563 576.7656,1130.1563 Q576.4219,1130.1563 576.2188,1129.9531 Q576.0156,1129.7656 575.9063,1129.25 Q575.8594,1128.8906 575.6719,1128.7031 Q575.3438,1128.3281 574.7344,1128.1094 Q574.125,1127.8906 573.5,1127.8906 Q572.7344,1127.8906 572.0938,1128.2188 Q571.4688,1128.5469 570.9688,1129.2969 Q570.4844,1130.0469 570.4844,1131.0781 L570.4844,1132.1719 Q570.4844,1133.4063 571.375,1134.2344 Q572.2656,1135.0469 573.8594,1135.0469 Q574.7969,1135.0469 575.4531,1134.7969 Q575.8438,1134.6406 576.2656,1134.2031 Q576.5313,1133.9375 576.6719,1133.8594 Q576.8281,1133.7813 577.0313,1133.7813 Q577.3594,1133.7813 577.6094,1134.0469 Q577.875,1134.2969 577.875,1134.6406 Q577.875,1134.9844 577.5313,1135.3906 Q577.0313,1135.9688 576.2344,1136.2969 Q575.1563,1136.75 573.8594,1136.75 Q572.3438,1136.75 571.1406,1136.125 Q570.1563,1135.625 569.4688,1134.5625 Q568.7813,1133.4844 568.7813,1132.2031 L568.7813,1131.0469 Q568.7813,1129.7188 569.3906,1128.5781 Q570.0156,1127.4219 571.1094,1126.8125 Q572.2031,1126.1875 573.4375,1126.1875 Q574.1719,1126.1875 574.8125,1126.3594 Q575.4688,1126.5156 576.0156,1126.875 Z " fill="#000000"/><text fill="#000000" font-family="sans-serif" font-size="14" lengthAdjust="spacing" textLength="40" x="593.75" y="1135.8535">House</text><line style="stroke:#181818;stroke-width:0.5;" x1="502" x2="693" y1="1147" y2="1147"/><rect fill="none" height="6" style="stroke:#C82930;stroke-width:1.0;" width="6" x="509" y="1157.3203"/><text fill="#000000" font-family="sans-serif" font-size="14" lengthAdjust="spacing" textLength="137" x="521" y="1163.6738">existanceOfBasement</text><rect fill="none" height="6" style="stroke:#C82930;stroke-width:1.0;" width="6" x="509" y="1172.9609"/><text fill="#000000" font-family="sans-serif" font-size="14" lengthAdjust="spacing" textLength="167" x="521" y="1179.3145">existanceOfInhabitableLoft</text><rect fill="none" height="6" style="stroke:#C82930;stroke-width:1.0;" width="6" x="509" y="1188.6016"/><text fill="#000000" font-family="sans-serif" font-size="14" lengthAdjust="spacing" textLength="82" x="521" y="1194.9551">sunExposure</text><line style="stroke:#181818;stroke-width:0.5;" x1="502" x2="693" y1="1201.9219" y2="1201.9219"/></g><!--link GMN4 to PropertySaleRepository--><g id="link_GMN4_PropertySaleRepository"><path d="M370.04,358 C371.19,358 371.83,358 371.83,358 C371.83,358 388.91,358 405.19,358 " fill="none" id="GMN4-PropertySaleRepository" style="stroke:#181818;stroke-width:1.0;stroke-dasharray:7.0,7.0;"/></g><!--link ListPropertiesUI to ListPropertiesController--><g id="link_ListPropertiesUI_ListPropertiesController"><path codeLine="89" d="M138.2,54.5 C148.3,54.5 158.53,54.5 168.07,54.5 " fill="none" id="ListPropertiesUI-to-ListPropertiesController" style="stroke:#181818;stroke-width:1.0;stroke-dasharray:7.0,7.0;"/><polygon fill="#181818" points="173.29,54.5,164.29,50.5,168.29,54.5,164.29,58.5,173.29,54.5" style="stroke:#181818;stroke-width:1.0;"/></g><!--link ListPropertiesController to Repositories--><g id="link_ListPropertiesController_Repositories"><path codeLine="91" d="M496.5,102.12 C496.5,119.68 496.5,139.75 496.5,157.75 " fill="none" id="ListPropertiesController-to-Repositories" style="stroke:#181818;stroke-width:1.0;stroke-dasharray:7.0,7.0;"/><polygon fill="#181818" points="496.5,162.77,500.5,153.77,496.5,157.77,492.5,153.77,496.5,162.77" style="stroke:#181818;stroke-width:1.0;"/></g><!--link ListPropertiesController to PropertySaleRepository--><g id="link_ListPropertiesController_PropertySaleRepository"><path codeLine="92" d="M444.13,102.03 C411.43,131.08 375.5,163 375.5,163 C375.5,163 375.5,258 375.5,258 C375.5,258 428.01,300.96 463.85,330.28 " fill="none" id="ListPropertiesController-to-PropertySaleRepository" style="stroke:#181818;stroke-width:1.0;stroke-dasharray:7.0,7.0;"/><polygon fill="#181818" points="468.13,333.79,463.7026,324.9924,464.2621,330.6215,458.633,331.181,468.13,333.79" style="stroke:#181818;stroke-width:1.0;"/></g><!--link Repositories to PropertySaleRepository--><g id="link_Repositories_PropertySaleRepository"><path codeLine="94" d="M496.5,258.34 C496.5,281.52 496.5,308.74 496.5,328.71 " fill="none" id="Repositories-to-PropertySaleRepository" style="stroke:#181818;stroke-width:1.0;"/><polygon fill="#181818" points="496.5,333.88,500.5,324.88,496.5,328.88,492.5,324.88,496.5,333.88" style="stroke:#181818;stroke-width:1.0;"/><text fill="#000000" font-family="sans-serif" font-size="13" lengthAdjust="spacing" textLength="137" x="497.5" y="300.7686">PropertySaleRepository</text><text fill="#000000" font-family="sans-serif" font-size="13" lengthAdjust="spacing" textLength="7" x="488.5594" y="323.3554">1</text></g><!--link PropertySaleRepository to PropertySale--><g id="link_PropertySaleRepository_PropertySale"><path codeLine="96" d="M524.28,382.18 C543.12,397.9 568.9,419.41 593.1,439.59 " fill="none" id="PropertySaleRepository-to-PropertySale" style="stroke:#181818;stroke-width:1.0;"/><polygon fill="#181818" points="596.96,442.82,592.6229,433.9775,593.1247,439.6121,587.4902,440.1139,596.96,442.82" style="stroke:#181818;stroke-width:1.0;"/><text fill="#000000" font-family="sans-serif" font-size="13" lengthAdjust="spacing" textLength="5" x="582.8171" y="432.2305">*</text></g><!--link Repositories to Repositories--><g id="link_Repositories_Repositories"><path codeLine="98" d="M599.71,196.5 C620.04,198.1 634.5,202.77 634.5,210.5 C634.5,217.57 622.42,222.07 604.82,224.02 " fill="none" id="Repositories-to-Repositories" style="stroke:#181818;stroke-width:1.0;"/><polygon fill="#181818" points="599.71,224.5,609.0474,227.6325,604.6877,224.028,608.2922,219.6682,599.71,224.5" style="stroke:#181818;stroke-width:1.0;"/><text fill="#000000" font-family="sans-serif" font-size="13" lengthAdjust="spacing" textLength="49" x="640.5" y="215.2686">instance</text></g><!--reverse link Property to ResidentialProperty--><g id="link_Property_ResidentialProperty"><path codeLine="100" d="M598.98,897.16 C585.09,912.4 570.57,928.32 557.3,942.88 " fill="none" id="Property-backto-ResidentialProperty" style="stroke:#181818;stroke-width:1.0;"/><polygon fill="none" points="593.96,892.29,612.6,882.22,604.3,901.72,593.96,892.29" style="stroke:#181818;stroke-width:1.0;"/></g><!--reverse link Property to Land--><g id="link_Property_Land"><path codeLine="101" d="M662.5,902.52 C662.5,928.4 662.5,955.52 662.5,974.13 " fill="none" id="Property-backto-Land" style="stroke:#181818;stroke-width:1.0;"/><polygon fill="none" points="655.5,902.22,662.5,882.22,669.5,902.22,655.5,902.22" style="stroke:#181818;stroke-width:1.0;"/></g><!--reverse link ResidentialProperty to Apartment--><g id="link_ResidentialProperty_Apartment"><path codeLine="102" d="M467.27,1071.91 C453.96,1095.88 440.08,1120.86 430.37,1138.33 " fill="none" id="ResidentialProperty-backto-Apartment" style="stroke:#181818;stroke-width:1.0;"/><polygon fill="none" points="461.2,1068.43,477.03,1054.35,473.44,1075.23,461.2,1068.43" style="stroke:#181818;stroke-width:1.0;"/></g><!--reverse link ResidentialProperty to House--><g id="link_ResidentialProperty_House"><path codeLine="103" d="M547.95,1072.31 C555.97,1086.75 564.19,1101.54 571.57,1114.82 " fill="none" id="ResidentialProperty-backto-House" style="stroke:#181818;stroke-width:1.0;"/><polygon fill="none" points="541.56,1075.23,537.97,1054.35,553.8,1068.43,541.56,1075.23" style="stroke:#181818;stroke-width:1.0;"/></g><!--link ListPropertiesController to PropertySale--><g id="link_ListPropertiesController_PropertySale"><path codeLine="106" d="M583.06,102.03 C637.11,131.08 696.5,163 696.5,163 C696.5,163 696.5,258 696.5,258 C696.5,258 681.04,366.88 670.97,437.81 " fill="none" id="ListPropertiesController-to-PropertySale" style="stroke:#181818;stroke-width:1.0;stroke-dasharray:7.0,7.0;"/><polygon fill="#181818" points="670.26,442.85,675.4825,434.4998,670.9611,437.8994,667.5615,433.378,670.26,442.85" style="stroke:#181818;stroke-width:1.0;"/></g><!--link Property to City--><g id="link_Property_City"><path codeLine="108" d="M700.49,882.22 C718.63,908.36 739.81,938.88 755.83,961.96 " fill="none" id="Property-to-City" style="stroke:#181818;stroke-width:1.0;"/><polygon fill="#181818" points="758.76,966.17,756.9189,956.4948,755.911,962.0611,750.3446,961.0532,758.76,966.17" style="stroke:#181818;stroke-width:1.0;"/><text fill="#000000" font-family="sans-serif" font-size="13" lengthAdjust="spacing" textLength="7" x="746.5543" y="955.9178">1</text></g><!--link PropertySale to PropertySaleRequest--><g id="link_PropertySale_PropertySaleRequest"><path codeLine="110" d="M662.5,554.35 C662.5,567.24 662.5,581.12 662.5,594.48 " fill="none" id="PropertySale-to-PropertySaleRequest" style="stroke:#181818;stroke-width:1.0;"/><polygon fill="none" points="669.5,594.82,662.5,614.82,655.5,594.82,669.5,594.82" style="stroke:#181818;stroke-width:1.0;"/></g><!--link PropertySaleRequest to Property--><g id="link_PropertySaleRequest_Property"><path codeLine="112" d="M662.5,710.36 C662.5,727.61 662.5,747.4 662.5,765.64 " fill="none" id="PropertySaleRequest-to-Property" style="stroke:#181818;stroke-width:1.0;"/><polygon fill="#181818" points="662.5,770.74,666.5,761.74,662.5,765.74,658.5,761.74,662.5,770.74" style="stroke:#181818;stroke-width:1.0;"/><text fill="#000000" font-family="sans-serif" font-size="13" lengthAdjust="spacing" textLength="7" x="655.0297" y="760.1397">1</text></g><!--SRC=[ZLHDJ-Cm4BtxLrXSW8KYxPK3qhO2BH8I5Lr-m3IP91QE7Up9GYZxttVia2Of2QA7IddpvljvZlsJCXKuA6LfZKqAPqkKv6eKlQM2v0bot52ZKJfC24okXmHVG6fVbCbb1jeFBLePfAP2MLdTX0znF66qZgmGnnepacIbKtb1CbKXbR96Y4I3z_81A-iLMQVGovrOZ01n9dEaM-Evk0HFJkNbX7djR8MEcWret5kRarCX_dL9fYcxo32MKCOYRJP3599_ZnvJcLadVKXkyWXImKDeVKBzMdaIQ58PWdR9xnXSxpahQyXPhT5njo74sIo1MvWYdFY2Hoiz_wsS8dGAlaqybotsKNEph3slo_j3_0yly5mgGzBKvHRTVVPWRUbFvqRwNAEdiBtW4hP_dtMX6Soq1MADHHQcQwSIvDrjEEEoMIaAo-B0a_DwlEKvJMQLutmhMohlWxAwX8ajEsYVBURcT6So0PtK6WWxw2ijZ1MGi5VE8dZ3AH5G0HJn5tGeGJk4j96G95Xnyz6YJ7I2gjAAWuKAUzN0rfE3XEiVjHpRRHi33iaV6mewP3qwHEg_trIriYdksQbgdyyDNu4mx1KQriBWTTm1vzuDWC3QzG4Db1YC1uKze5SfnrAWHpLsYbbYwe9eXX1GCS02j0R7foFVy3d20CDVK1gs6g-VQrML7B-lwnTV60hGgDhVjlQj6F3rezMGoMDq7g6tfe2jeX3-pcR1w6jp_Shll7QnnK_QkxYQVPw7xC7Blc2tqQ7waZbpTCJeD2uML_Bevz4CcG_ZN9GPXnZlnpZUHCeHSCd2RKSPc9-tlrZKrNlVZuZ2EWJx9NvO9YA9TgTV4CJtHzgFe9jXqFTuC9pg_MhgfXtEBuAVbY7-0m00]--></g></svg>