<?xml version="1.0" encoding="us-ascii" standalone="no"?><svg xmlns="http://www.w3.org/2000/svg" xmlns:xlink="http://www.w3.org/1999/xlink" contentStyleType="text/css" height="933px" preserveAspectRatio="none" style="width:1399px;height:933px;background:#FFFFFF;" version="1.1" viewBox="0 0 1399 933" width="1399px" zoomAndPan="magnify"><defs/><g><rect fill="#FFFFFF" height="829.3535" style="stroke:#181818;stroke-width:1.0;" width="10" x="62" y="48.6211"/><rect fill="#FFFFFF" height="815.0625" style="stroke:#181818;stroke-width:1.0;" width="10" x="320" y="71.9121"/><rect fill="#FFFFFF" height="699.8594" style="stroke:#181818;stroke-width:1.0;" width="10" x="500" y="146.8242"/><rect fill="#FFFFFF" height="31.291" style="stroke:#181818;stroke-width:1.0;" width="10" x="666" y="178.1152"/><rect fill="#FFFFFF" height="93.873" style="stroke:#181818;stroke-width:1.0;" width="10" x="666" y="240.6973"/><rect fill="#FFFFFF" height="31.291" style="stroke:#181818;stroke-width:1.0;" width="10" x="832" y="271.9883"/><rect fill="#FFFFFF" height="31.291" style="stroke:#181818;stroke-width:1.0;" width="10" x="832" y="365.8613"/><rect fill="#FFFFFF" height="376.9492" style="stroke:#181818;stroke-width:1.0;" width="10" x="1039.5" y="438.4434"/><rect fill="#FFFFFF" height="219.4551" style="stroke:#181818;stroke-width:1.0;" width="10" x="1044.5" y="550.6465"/><rect fill="#FFFFFF" height="130.873" style="stroke:#181818;stroke-width:1.0;" width="10" x="1049.5" y="594.9375"/><rect fill="#FFFFFF" height="42.291" style="stroke:#181818;stroke-width:1.0;" width="10" x="1054.5" y="639.2285"/><rect fill="none" height="285.0371" style="stroke:#000000;stroke-width:1.5;" width="440.5" x="953" y="500.0645"/><line style="stroke:#181818;stroke-width:0.5;stroke-dasharray:5.0,5.0;" x1="67" x2="67" y1="38.6211" y2="895.9746"/><line style="stroke:#181818;stroke-width:0.5;stroke-dasharray:5.0,5.0;" x1="325" x2="325" y1="38.6211" y2="895.9746"/><line style="stroke:#181818;stroke-width:0.5;stroke-dasharray:5.0,5.0;" x1="505" x2="505" y1="111.7227" y2="895.9746"/><line style="stroke:#181818;stroke-width:0.5;stroke-dasharray:5.0,5.0;" x1="670.5" x2="670.5" y1="38.6211" y2="895.9746"/><line style="stroke:#181818;stroke-width:0.5;stroke-dasharray:5.0,5.0;" x1="837" x2="837" y1="38.6211" y2="895.9746"/><line style="stroke:#181818;stroke-width:0.5;stroke-dasharray:5.0,5.0;" x1="929" x2="929" y1="38.6211" y2="895.9746"/><line style="stroke:#181818;stroke-width:0.5;stroke-dasharray:5.0,5.0;" x1="1044" x2="1044" y1="436.9629" y2="895.9746"/><rect fill="#E2E2F0" height="32.6211" rx="2.5" ry="2.5" style="stroke:#181818;stroke-width:0.5;" width="124" x="5" y="5"/><text fill="#000000" font-family="sans-serif" font-size="14" lengthAdjust="spacing" textLength="110" x="12" y="27.1074">Network Manager</text><rect fill="#E2E2F0" height="32.6211" rx="2.5" ry="2.5" style="stroke:#181818;stroke-width:0.5;" width="124" x="5" y="894.9746"/><text fill="#000000" font-family="sans-serif" font-size="14" lengthAdjust="spacing" textLength="110" x="12" y="917.082">Network Manager</text><rect fill="#E2E2F0" height="32.6211" rx="2.5" ry="2.5" style="stroke:#181818;stroke-width:0.5;" width="144" x="253" y="5"/><text fill="#000000" font-family="sans-serif" font-size="14" lengthAdjust="spacing" textLength="130" x="260" y="27.1074">NetworkStoresSplitUI</text><rect fill="#E2E2F0" height="32.6211" rx="2.5" ry="2.5" style="stroke:#181818;stroke-width:0.5;" width="144" x="253" y="894.9746"/><text fill="#000000" font-family="sans-serif" font-size="14" lengthAdjust="spacing" textLength="130" x="260" y="917.082">NetworkStoresSplitUI</text><rect fill="#E2E2F0" height="32.6211" rx="2.5" ry="2.5" style="stroke:#181818;stroke-width:0.5;" width="194" x="408" y="894.9746"/><text fill="#000000" font-family="sans-serif" font-size="14" lengthAdjust="spacing" textLength="180" x="415" y="917.082">NetworkStoresSplitController</text><rect fill="#E2E2F0" height="32.6211" rx="2.5" ry="2.5" style="stroke:#181818;stroke-width:0.5;" width="93" x="624.5" y="5"/><text fill="#000000" font-family="sans-serif" font-size="14" lengthAdjust="spacing" textLength="79" x="631.5" y="27.1074">Repositories</text><rect fill="#E2E2F0" height="32.6211" rx="2.5" ry="2.5" style="stroke:#181818;stroke-width:0.5;" width="93" x="624.5" y="894.9746"/><text fill="#000000" font-family="sans-serif" font-size="14" lengthAdjust="spacing" textLength="79" x="631.5" y="917.082">Repositories</text><rect fill="#E2E2F0" height="32.6211" rx="2.5" ry="2.5" style="stroke:#181818;stroke-width:0.5;" width="116" x="779" y="5"/><text fill="#000000" font-family="sans-serif" font-size="14" lengthAdjust="spacing" textLength="102" x="786" y="27.1074">StoreRepository</text><rect fill="#E2E2F0" height="32.6211" rx="2.5" ry="2.5" style="stroke:#181818;stroke-width:0.5;" width="116" x="779" y="894.9746"/><text fill="#000000" font-family="sans-serif" font-size="14" lengthAdjust="spacing" textLength="102" x="786" y="917.082">StoreRepository</text><rect fill="#E2E2F0" height="32.6211" rx="2.5" ry="2.5" style="stroke:#181818;stroke-width:0.5;" width="48" x="905" y="5"/><text fill="#000000" font-family="sans-serif" font-size="14" lengthAdjust="spacing" textLength="34" x="912" y="27.1074">Store</text><rect fill="#E2E2F0" height="32.6211" rx="2.5" ry="2.5" style="stroke:#181818;stroke-width:0.5;" width="48" x="905" y="894.9746"/><text fill="#000000" font-family="sans-serif" font-size="14" lengthAdjust="spacing" textLength="34" x="912" y="917.082">Store</text><rect fill="#E2E2F0" height="32.6211" rx="2.5" ry="2.5" style="stroke:#181818;stroke-width:0.5;" width="163" x="963" y="894.9746"/><text fill="#000000" font-family="sans-serif" font-size="14" lengthAdjust="spacing" textLength="149" x="970" y="917.082">SplitStoreListAlgorithms</text><rect fill="#FFFFFF" height="829.3535" style="stroke:#181818;stroke-width:1.0;" width="10" x="62" y="48.6211"/><rect fill="#FFFFFF" height="815.0625" style="stroke:#181818;stroke-width:1.0;" width="10" x="320" y="71.9121"/><rect fill="#FFFFFF" height="699.8594" style="stroke:#181818;stroke-width:1.0;" width="10" x="500" y="146.8242"/><rect fill="#FFFFFF" height="31.291" style="stroke:#181818;stroke-width:1.0;" width="10" x="666" y="178.1152"/><rect fill="#FFFFFF" height="93.873" style="stroke:#181818;stroke-width:1.0;" width="10" x="666" y="240.6973"/><rect fill="#FFFFFF" height="31.291" style="stroke:#181818;stroke-width:1.0;" width="10" x="832" y="271.9883"/><rect fill="#FFFFFF" height="31.291" style="stroke:#181818;stroke-width:1.0;" width="10" x="832" y="365.8613"/><rect fill="#FFFFFF" height="376.9492" style="stroke:#181818;stroke-width:1.0;" width="10" x="1039.5" y="438.4434"/><rect fill="#FFFFFF" height="219.4551" style="stroke:#181818;stroke-width:1.0;" width="10" x="1044.5" y="550.6465"/><rect fill="#FFFFFF" height="130.873" style="stroke:#181818;stroke-width:1.0;" width="10" x="1049.5" y="594.9375"/><rect fill="#FFFFFF" height="42.291" style="stroke:#181818;stroke-width:1.0;" width="10" x="1054.5" y="639.2285"/><polygon fill="#181818" points="308,67.9121,318,71.9121,308,75.9121,312,71.9121" style="stroke:#181818;stroke-width:1.0;"/><line style="stroke:#181818;stroke-width:1.0;" x1="72" x2="314" y1="71.9121" y2="71.9121"/><text fill="#000000" font-family="sans-serif" font-size="13" font-weight="bold" lengthAdjust="spacing" textLength="7" x="79" y="66.6494">1</text><text fill="#000000" font-family="sans-serif" font-size="13" lengthAdjust="spacing" textLength="218" x="90" y="66.6494">Selects to split his stores in two Lists</text><polygon fill="#181818" points="396,99.2031,406,103.2031,396,107.2031,400,103.2031" style="stroke:#181818;stroke-width:1.0;"/><line style="stroke:#181818;stroke-width:1.0;" x1="330" x2="402" y1="103.2031" y2="103.2031"/><text fill="#000000" font-family="sans-serif" font-size="13" font-weight="bold" lengthAdjust="spacing" textLength="7" x="337" y="97.9404">2</text><text fill="#000000" font-family="sans-serif" font-size="13" lengthAdjust="spacing" textLength="43" x="348" y="97.9404">creates</text><rect fill="#E2E2F0" height="32.6211" rx="2.5" ry="2.5" style="stroke:#181818;stroke-width:0.5;" width="194" x="408" y="79.9121"/><text fill="#000000" font-family="sans-serif" font-size="14" lengthAdjust="spacing" textLength="180" x="415" y="102.0195">NetworkStoresSplitController</text><polygon fill="#181818" points="488,142.8242,498,146.8242,488,150.8242,492,146.8242" style="stroke:#181818;stroke-width:1.0;"/><line style="stroke:#181818;stroke-width:1.0;" x1="330" x2="494" y1="146.8242" y2="146.8242"/><text fill="#000000" font-family="sans-serif" font-size="13" font-weight="bold" lengthAdjust="spacing" textLength="7" x="337" y="141.5615">3</text><text fill="#000000" font-family="sans-serif" font-size="13" lengthAdjust="spacing" textLength="119" x="348" y="141.5615">NetworkStoresSplit()</text><polygon fill="#181818" points="654,174.1152,664,178.1152,654,182.1152,658,178.1152" style="stroke:#181818;stroke-width:1.0;"/><line style="stroke:#181818;stroke-width:1.0;" x1="510" x2="660" y1="178.1152" y2="178.1152"/><text fill="#000000" font-family="sans-serif" font-size="13" font-weight="bold" lengthAdjust="spacing" textLength="7" x="517" y="172.8525">4</text><text fill="#000000" font-family="sans-serif" font-size="13" lengthAdjust="spacing" textLength="75" x="528" y="172.8525">getInstance()</text><polygon fill="#181818" points="521,205.4063,511,209.4063,521,213.4063,517,209.4063" style="stroke:#181818;stroke-width:1.0;"/><line style="stroke:#181818;stroke-width:1.0;stroke-dasharray:2.0,2.0;" x1="515" x2="670" y1="209.4063" y2="209.4063"/><text fill="#000000" font-family="sans-serif" font-size="13" font-weight="bold" lengthAdjust="spacing" textLength="7" x="527" y="204.1436">5</text><text fill="#000000" font-family="sans-serif" font-size="13" lengthAdjust="spacing" textLength="72" x="538" y="204.1436">Repositories</text><polygon fill="#181818" points="654,236.6973,664,240.6973,654,244.6973,658,240.6973" style="stroke:#181818;stroke-width:1.0;"/><line style="stroke:#181818;stroke-width:1.0;" x1="510" x2="660" y1="240.6973" y2="240.6973"/><text fill="#000000" font-family="sans-serif" font-size="13" font-weight="bold" lengthAdjust="spacing" textLength="7" x="517" y="235.4346">6</text><text fill="#000000" font-family="sans-serif" font-size="13" lengthAdjust="spacing" textLength="126" x="528" y="235.4346">getStoresRepository()</text><polygon fill="#181818" points="820,267.9883,830,271.9883,820,275.9883,824,271.9883" style="stroke:#181818;stroke-width:1.0;"/><line style="stroke:#181818;stroke-width:1.0;" x1="676" x2="826" y1="271.9883" y2="271.9883"/><text fill="#000000" font-family="sans-serif" font-size="13" font-weight="bold" lengthAdjust="spacing" textLength="7" x="683" y="266.7256">7</text><text fill="#000000" font-family="sans-serif" font-size="13" lengthAdjust="spacing" textLength="126" x="694" y="266.7256">getStoresRepository()</text><polygon fill="#181818" points="687,299.2793,677,303.2793,687,307.2793,683,303.2793" style="stroke:#181818;stroke-width:1.0;"/><line style="stroke:#181818;stroke-width:1.0;stroke-dasharray:2.0,2.0;" x1="681" x2="836" y1="303.2793" y2="303.2793"/><text fill="#000000" font-family="sans-serif" font-size="13" font-weight="bold" lengthAdjust="spacing" textLength="7" x="693" y="298.0166">8</text><text fill="#000000" font-family="sans-serif" font-size="13" lengthAdjust="spacing" textLength="98" x="704" y="298.0166">storesRepository</text><polygon fill="#181818" points="521,330.5703,511,334.5703,521,338.5703,517,334.5703" style="stroke:#181818;stroke-width:1.0;"/><line style="stroke:#181818;stroke-width:1.0;stroke-dasharray:2.0,2.0;" x1="515" x2="670" y1="334.5703" y2="334.5703"/><text fill="#000000" font-family="sans-serif" font-size="13" font-weight="bold" lengthAdjust="spacing" textLength="7" x="527" y="329.3076">9</text><text fill="#000000" font-family="sans-serif" font-size="13" lengthAdjust="spacing" textLength="98" x="538" y="329.3076">storesRepository</text><polygon fill="#181818" points="820,361.8613,830,365.8613,820,369.8613,824,365.8613" style="stroke:#181818;stroke-width:1.0;"/><line style="stroke:#181818;stroke-width:1.0;" x1="510" x2="826" y1="365.8613" y2="365.8613"/><text fill="#000000" font-family="sans-serif" font-size="13" font-weight="bold" lengthAdjust="spacing" textLength="14" x="517" y="360.5986">10</text><text fill="#000000" font-family="sans-serif" font-size="13" lengthAdjust="spacing" textLength="116" x="535" y="360.5986">getSortedStoreList()</text><polygon fill="#181818" points="521,393.1523,511,397.1523,521,401.1523,517,397.1523" style="stroke:#181818;stroke-width:1.0;"/><line style="stroke:#181818;stroke-width:1.0;stroke-dasharray:2.0,2.0;" x1="515" x2="836" y1="397.1523" y2="397.1523"/><text fill="#000000" font-family="sans-serif" font-size="13" font-weight="bold" lengthAdjust="spacing" textLength="14" x="527" y="391.8896">11</text><text fill="#000000" font-family="sans-serif" font-size="13" lengthAdjust="spacing" textLength="62" x="545" y="391.8896">storesDTO</text><polygon fill="#181818" points="951,424.4434,961,428.4434,951,432.4434,955,428.4434" style="stroke:#181818;stroke-width:1.0;"/><line style="stroke:#181818;stroke-width:1.0;" x1="510" x2="957" y1="428.4434" y2="428.4434"/><text fill="#000000" font-family="sans-serif" font-size="13" font-weight="bold" lengthAdjust="spacing" textLength="14" x="517" y="423.1807">12</text><text fill="#000000" font-family="sans-serif" font-size="13" lengthAdjust="spacing" textLength="179" x="535" y="423.1807">splitStoreListInTwo(storesDTO)</text><rect fill="#E2E2F0" height="32.6211" rx="2.5" ry="2.5" style="stroke:#181818;stroke-width:0.5;" width="163" x="963" y="405.1523"/><text fill="#000000" font-family="sans-serif" font-size="14" lengthAdjust="spacing" textLength="149" x="970" y="427.2598">SplitStoreListAlgorithms</text><line style="stroke:#181818;stroke-width:1.0;" x1="1049.5" x2="1091.5" y1="472.0645" y2="472.0645"/><line style="stroke:#181818;stroke-width:1.0;" x1="1091.5" x2="1091.5" y1="472.0645" y2="485.0645"/><line style="stroke:#181818;stroke-width:1.0;" x1="1050.5" x2="1091.5" y1="485.0645" y2="485.0645"/><polygon fill="#181818" points="1060.5,481.0645,1050.5,485.0645,1060.5,489.0645,1056.5,485.0645" style="stroke:#181818;stroke-width:1.0;"/><text fill="#000000" font-family="sans-serif" font-size="13" font-weight="bold" lengthAdjust="spacing" textLength="14" x="1056.5" y="466.8018">13</text><text fill="#000000" font-family="sans-serif" font-size="13" lengthAdjust="spacing" textLength="110" x="1074.5" y="466.8018">splitList(storesList)</text><path d="M953,500.0645 L1026,500.0645 L1026,509.3555 L1016,519.3555 L953,519.3555 L953,500.0645 " fill="#EEEEEE" style="stroke:#000000;stroke-width:1.5;"/><rect fill="none" height="285.0371" style="stroke:#000000;stroke-width:1.5;" width="440.5" x="953" y="500.0645"/><text fill="#000000" font-family="sans-serif" font-size="13" font-weight="bold" lengthAdjust="spacing" textLength="28" x="968" y="515.0928">loop</text><text fill="#000000" font-family="sans-serif" font-size="11" font-weight="bold" lengthAdjust="spacing" textLength="182" x="1041" y="513.9346">[For every combination possible]</text><line style="stroke:#181818;stroke-width:1.0;" x1="1049.5" x2="1096.5" y1="537.6465" y2="537.6465"/><line style="stroke:#181818;stroke-width:1.0;" x1="1096.5" x2="1096.5" y1="537.6465" y2="550.6465"/><line style="stroke:#181818;stroke-width:1.0;" x1="1055.5" x2="1096.5" y1="550.6465" y2="550.6465"/><polygon fill="#181818" points="1065.5,546.6465,1055.5,550.6465,1065.5,554.6465,1061.5,550.6465" style="stroke:#181818;stroke-width:1.0;"/><text fill="#000000" font-family="sans-serif" font-size="13" font-weight="bold" lengthAdjust="spacing" textLength="14" x="1061.5" y="532.3838">14</text><text fill="#000000" font-family="sans-serif" font-size="13" lengthAdjust="spacing" textLength="271" x="1079.5" y="532.3838">permuteSubLists(storesLists, storesList.size())</text><line style="stroke:#181818;stroke-width:1.0;" x1="1054.5" x2="1101.5" y1="581.9375" y2="581.9375"/><line style="stroke:#181818;stroke-width:1.0;" x1="1101.5" x2="1101.5" y1="581.9375" y2="594.9375"/><line style="stroke:#181818;stroke-width:1.0;" x1="1060.5" x2="1101.5" y1="594.9375" y2="594.9375"/><polygon fill="#181818" points="1070.5,590.9375,1060.5,594.9375,1070.5,598.9375,1066.5,594.9375" style="stroke:#181818;stroke-width:1.0;"/><text fill="#000000" font-family="sans-serif" font-size="13" font-weight="bold" lengthAdjust="spacing" textLength="14" x="1066.5" y="576.6748">15</text><text fill="#000000" font-family="sans-serif" font-size="13" lengthAdjust="spacing" textLength="140" x="1084.5" y="576.6748">evaluateList(storesLists)</text><line style="stroke:#181818;stroke-width:1.0;" x1="1059.5" x2="1106.5" y1="626.2285" y2="626.2285"/><line style="stroke:#181818;stroke-width:1.0;" x1="1106.5" x2="1106.5" y1="626.2285" y2="639.2285"/><line style="stroke:#181818;stroke-width:1.0;" x1="1065.5" x2="1106.5" y1="639.2285" y2="639.2285"/><polygon fill="#181818" points="1075.5,635.2285,1065.5,639.2285,1075.5,643.2285,1071.5,639.2285" style="stroke:#181818;stroke-width:1.0;"/><text fill="#000000" font-family="sans-serif" font-size="13" font-weight="bold" lengthAdjust="spacing" textLength="14" x="1071.5" y="620.9658">16</text><text fill="#000000" font-family="sans-serif" font-size="13" lengthAdjust="spacing" textLength="292" x="1089.5" y="620.9658">calculateStoreListsPropertiesDifference(storesList)</text><line style="stroke:#181818;stroke-width:1.0;" x1="1064.5" x2="1106.5" y1="680.5195" y2="680.5195"/><line style="stroke:#181818;stroke-width:1.0;" x1="1106.5" x2="1106.5" y1="680.5195" y2="693.5195"/><line style="stroke:#181818;stroke-width:1.0;" x1="1059.5" x2="1106.5" y1="693.5195" y2="693.5195"/><polygon fill="#181818" points="1069.5,689.5195,1059.5,693.5195,1069.5,697.5195,1065.5,693.5195" style="stroke:#181818;stroke-width:1.0;"/><text fill="#000000" font-family="sans-serif" font-size="13" font-weight="bold" lengthAdjust="spacing" textLength="14" x="1071.5" y="675.2568">17</text><text fill="#000000" font-family="sans-serif" font-size="13" lengthAdjust="spacing" textLength="189" x="1089.5" y="675.2568">getNumberOfElements(storeList)</text><line style="stroke:#181818;stroke-width:1.0;" x1="1059.5" x2="1101.5" y1="724.8105" y2="724.8105"/><line style="stroke:#181818;stroke-width:1.0;" x1="1101.5" x2="1101.5" y1="724.8105" y2="737.8105"/><line style="stroke:#181818;stroke-width:1.0;" x1="1054.5" x2="1101.5" y1="737.8105" y2="737.8105"/><polygon fill="#181818" points="1064.5,733.8105,1054.5,737.8105,1064.5,741.8105,1060.5,737.8105" style="stroke:#181818;stroke-width:1.0;"/><text fill="#000000" font-family="sans-serif" font-size="13" font-weight="bold" lengthAdjust="spacing" textLength="14" x="1066.5" y="719.5479">18</text><text fill="#000000" font-family="sans-serif" font-size="13" lengthAdjust="spacing" textLength="209" x="1084.5" y="719.5479">swap(storesList,element1,element2)</text><line style="stroke:#181818;stroke-width:1.0;" x1="1054.5" x2="1096.5" y1="769.1016" y2="769.1016"/><line style="stroke:#181818;stroke-width:1.0;" x1="1096.5" x2="1096.5" y1="769.1016" y2="782.1016"/><line style="stroke:#181818;stroke-width:1.0;" x1="1049.5" x2="1096.5" y1="782.1016" y2="782.1016"/><polygon fill="#181818" points="1059.5,778.1016,1049.5,782.1016,1059.5,786.1016,1055.5,782.1016" style="stroke:#181818;stroke-width:1.0;"/><text fill="#000000" font-family="sans-serif" font-size="13" font-weight="bold" lengthAdjust="spacing" textLength="14" x="1061.5" y="763.8389">19</text><text fill="#000000" font-family="sans-serif" font-size="13" lengthAdjust="spacing" textLength="63" x="1079.5" y="763.8389">bestOption</text><polygon fill="#181818" points="521,811.3926,511,815.3926,521,819.3926,517,815.3926" style="stroke:#181818;stroke-width:1.0;"/><line style="stroke:#181818;stroke-width:1.0;stroke-dasharray:2.0,2.0;" x1="515" x2="1043.5" y1="815.3926" y2="815.3926"/><text fill="#000000" font-family="sans-serif" font-size="13" font-weight="bold" lengthAdjust="spacing" textLength="14" x="527" y="810.1299">20</text><text fill="#000000" font-family="sans-serif" font-size="13" lengthAdjust="spacing" textLength="59" x="545" y="810.1299">splitedList</text><polygon fill="#181818" points="341,842.6836,331,846.6836,341,850.6836,337,846.6836" style="stroke:#181818;stroke-width:1.0;"/><line style="stroke:#181818;stroke-width:1.0;stroke-dasharray:2.0,2.0;" x1="335" x2="504" y1="846.6836" y2="846.6836"/><text fill="#000000" font-family="sans-serif" font-size="13" font-weight="bold" lengthAdjust="spacing" textLength="14" x="347" y="841.4209">21</text><text fill="#000000" font-family="sans-serif" font-size="13" lengthAdjust="spacing" textLength="59" x="365" y="841.4209">splitedList</text><polygon fill="#181818" points="78,873.9746,68,877.9746,78,881.9746,74,877.9746" style="stroke:#181818;stroke-width:1.0;"/><line style="stroke:#181818;stroke-width:1.0;stroke-dasharray:2.0,2.0;" x1="72" x2="319" y1="877.9746" y2="877.9746"/><text fill="#000000" font-family="sans-serif" font-size="13" font-weight="bold" lengthAdjust="spacing" textLength="14" x="84" y="872.7119">22</text><text fill="#000000" font-family="sans-serif" font-size="13" lengthAdjust="spacing" textLength="128" x="102" y="872.7119">Displays each subList</text><!--SRC=[fLN1RXen4BtlLrYvD8b2K7la42aghOJKXYea7s2M0QnwRTSp2w9Vtx4tQtQ9ARJioMk_zsRcUMn_M1Cv70s7Jaj3TQNlIriD4NxLO4eOB9HSULaLXQp9chgQWoyA9psfKZacYAideAtrFyLtQUGA_9MGA0pbGJEo7d3cjABNIKI-Jau1Frj3tchz9ht_xHEVmLbKJ5E04UZ1zH5HCy5s4JHxpc3Y2eRHmM989oA-AQH7lU9WjAwQSBBzPQjAKXj946qG_35vyC2bYf6OWOQIK90L6EJ4Mht5Gg6CuE954CU6c9JOfZWHFjPXjOuHjxSiN7fW81v7CUQzkTStYP1YTHnkrpegBChEijWAQ6AG97T9JYNOtqu6me29lMIw6vQG2yWA78dV5BBVqhFoUE1DFv_E3TBECMsGekC1DrT1Xvjru1oDaFuH6r8PrXCiKb-ULqKcaV7Bz4GL_VYfusF_OUzmJCpBrbudtKnA-_EIbjgPddWh7Kjh1CDmhwYjTUAhzG8su7U2Rw-vCfAKDOADHJNNS3g40r_L1BDw7azV9n3UYVtFFQhVtEsNbGCRgMlc75I4bwcMKfUrPbBQ0_pXBTT5VBx6Qha47oxqh8N_4uyRxoa-1zFb5mqLcDQrHZhNIV-ovLlfEgdUGHFYOpluT7DXW3aWJLteahyBWLd43YiwIk-EJ-XFM8H4Ywn8zzoq3y4HKkVo3JSue_dn68cnOhpSeM3aMc3JfaMNo6_D7m00]--></g></svg>