<?xml version="1.0" encoding="us-ascii" standalone="no"?><svg xmlns="http://www.w3.org/2000/svg" xmlns:xlink="http://www.w3.org/1999/xlink" contentStyleType="text/css" height="851px" preserveAspectRatio="none" style="width:470px;height:851px;background:#FFFFFF;" version="1.1" viewBox="0 0 470 851" width="470px" zoomAndPan="magnify"><defs/><g><!--class NetworkStoresSplitUI--><g id="elem_NetworkStoresSplitUI"><rect codeLine="3" fill="#F1F1F1" height="48" id="NetworkStoresSplitUI" rx="2.5" ry="2.5" style="stroke:#181818;stroke-width:0.5;" width="162" x="32" y="7"/><ellipse cx="47" cy="23" fill="#ADD1B2" rx="11" ry="11" style="stroke:#181818;stroke-width:1.0;"/><path d="M49.7656,18.875 Q49.9219,18.6563 50.1094,18.5469 Q50.2969,18.4375 50.5156,18.4375 Q50.8906,18.4375 51.125,18.7031 Q51.3594,18.9531 51.3594,19.5625 L51.3594,21.0156 Q51.3594,21.625 51.125,21.8906 Q50.8906,22.1563 50.5156,22.1563 Q50.1719,22.1563 49.9688,21.9531 Q49.7656,21.7656 49.6563,21.25 Q49.6094,20.8906 49.4219,20.7031 Q49.0938,20.3281 48.4844,20.1094 Q47.875,19.8906 47.25,19.8906 Q46.4844,19.8906 45.8438,20.2188 Q45.2188,20.5469 44.7188,21.2969 Q44.2344,22.0469 44.2344,23.0781 L44.2344,24.1719 Q44.2344,25.4063 45.125,26.2344 Q46.0156,27.0469 47.6094,27.0469 Q48.5469,27.0469 49.2031,26.7969 Q49.5938,26.6406 50.0156,26.2031 Q50.2813,25.9375 50.4219,25.8594 Q50.5781,25.7813 50.7813,25.7813 Q51.1094,25.7813 51.3594,26.0469 Q51.625,26.2969 51.625,26.6406 Q51.625,26.9844 51.2813,27.3906 Q50.7813,27.9688 49.9844,28.2969 Q48.9063,28.75 47.6094,28.75 Q46.0938,28.75 44.8906,28.125 Q43.9063,27.625 43.2188,26.5625 Q42.5313,25.4844 42.5313,24.2031 L42.5313,23.0469 Q42.5313,21.7188 43.1406,20.5781 Q43.7656,19.4219 44.8594,18.8125 Q45.9531,18.1875 47.1875,18.1875 Q47.9219,18.1875 48.5625,18.3594 Q49.2188,18.5156 49.7656,18.875 Z " fill="#000000"/><text fill="#000000" font-family="sans-serif" font-size="14" lengthAdjust="spacing" textLength="130" x="61" y="28.7969">NetworkStoresSplitUI</text><line style="stroke:#181818;stroke-width:0.5;" x1="33" x2="193" y1="39" y2="39"/><line style="stroke:#181818;stroke-width:0.5;" x1="33" x2="193" y1="47" y2="47"/></g><!--class NetworkStoresSplitController--><g id="elem_NetworkStoresSplitController"><rect codeLine="6" fill="#F1F1F1" height="66.6211" id="NetworkStoresSplitController" rx="2.5" ry="2.5" style="stroke:#181818;stroke-width:0.5;" width="212" x="7" y="125"/><ellipse cx="22" cy="141" fill="#ADD1B2" rx="11" ry="11" style="stroke:#181818;stroke-width:1.0;"/><path d="M24.7656,136.875 Q24.9219,136.6563 25.1094,136.5469 Q25.2969,136.4375 25.5156,136.4375 Q25.8906,136.4375 26.125,136.7031 Q26.3594,136.9531 26.3594,137.5625 L26.3594,139.0156 Q26.3594,139.625 26.125,139.8906 Q25.8906,140.1563 25.5156,140.1563 Q25.1719,140.1563 24.9688,139.9531 Q24.7656,139.7656 24.6563,139.25 Q24.6094,138.8906 24.4219,138.7031 Q24.0938,138.3281 23.4844,138.1094 Q22.875,137.8906 22.25,137.8906 Q21.4844,137.8906 20.8438,138.2188 Q20.2188,138.5469 19.7188,139.2969 Q19.2344,140.0469 19.2344,141.0781 L19.2344,142.1719 Q19.2344,143.4063 20.125,144.2344 Q21.0156,145.0469 22.6094,145.0469 Q23.5469,145.0469 24.2031,144.7969 Q24.5938,144.6406 25.0156,144.2031 Q25.2813,143.9375 25.4219,143.8594 Q25.5781,143.7813 25.7813,143.7813 Q26.1094,143.7813 26.3594,144.0469 Q26.625,144.2969 26.625,144.6406 Q26.625,144.9844 26.2813,145.3906 Q25.7813,145.9688 24.9844,146.2969 Q23.9063,146.75 22.6094,146.75 Q21.0938,146.75 19.8906,146.125 Q18.9063,145.625 18.2188,144.5625 Q17.5313,143.4844 17.5313,142.2031 L17.5313,141.0469 Q17.5313,139.7188 18.1406,138.5781 Q18.7656,137.4219 19.8594,136.8125 Q20.9531,136.1875 22.1875,136.1875 Q22.9219,136.1875 23.5625,136.3594 Q24.2188,136.5156 24.7656,136.875 Z " fill="#000000"/><text fill="#000000" font-family="sans-serif" font-size="14" lengthAdjust="spacing" textLength="180" x="36" y="146.7969">NetworkStoresSplitController</text><line style="stroke:#181818;stroke-width:0.5;" x1="8" x2="218" y1="157" y2="157"/><line style="stroke:#181818;stroke-width:0.5;" x1="8" x2="218" y1="165" y2="165"/><text fill="#000000" font-family="sans-serif" font-size="14" lengthAdjust="spacing" textLength="136" x="13" y="184.1074">+NetworkStoresSplit()</text></g><!--class Repositories--><g id="elem_Repositories"><rect codeLine="9" fill="#F1F1F1" height="66.6211" id="Repositories" rx="2.5" ry="2.5" style="stroke:#181818;stroke-width:0.5;" width="152" x="37" y="262"/><ellipse cx="70.45" cy="278" fill="#ADD1B2" rx="11" ry="11" style="stroke:#181818;stroke-width:1.0;"/><path d="M73.2156,273.875 Q73.3719,273.6563 73.5594,273.5469 Q73.7469,273.4375 73.9656,273.4375 Q74.3406,273.4375 74.575,273.7031 Q74.8094,273.9531 74.8094,274.5625 L74.8094,276.0156 Q74.8094,276.625 74.575,276.8906 Q74.3406,277.1563 73.9656,277.1563 Q73.6219,277.1563 73.4188,276.9531 Q73.2156,276.7656 73.1063,276.25 Q73.0594,275.8906 72.8719,275.7031 Q72.5438,275.3281 71.9344,275.1094 Q71.325,274.8906 70.7,274.8906 Q69.9344,274.8906 69.2938,275.2188 Q68.6688,275.5469 68.1688,276.2969 Q67.6844,277.0469 67.6844,278.0781 L67.6844,279.1719 Q67.6844,280.4063 68.575,281.2344 Q69.4656,282.0469 71.0594,282.0469 Q71.9969,282.0469 72.6531,281.7969 Q73.0438,281.6406 73.4656,281.2031 Q73.7313,280.9375 73.8719,280.8594 Q74.0281,280.7813 74.2313,280.7813 Q74.5594,280.7813 74.8094,281.0469 Q75.075,281.2969 75.075,281.6406 Q75.075,281.9844 74.7313,282.3906 Q74.2313,282.9688 73.4344,283.2969 Q72.3563,283.75 71.0594,283.75 Q69.5438,283.75 68.3406,283.125 Q67.3563,282.625 66.6688,281.5625 Q65.9813,280.4844 65.9813,279.2031 L65.9813,278.0469 Q65.9813,276.7188 66.5906,275.5781 Q67.2156,274.4219 68.3094,273.8125 Q69.4031,273.1875 70.6375,273.1875 Q71.3719,273.1875 72.0125,273.3594 Q72.6688,273.5156 73.2156,273.875 Z " fill="#000000"/><text fill="#000000" font-family="sans-serif" font-size="14" lengthAdjust="spacing" textLength="79" x="88.55" y="283.7969">Repositories</text><line style="stroke:#181818;stroke-width:0.5;" x1="38" x2="188" y1="294" y2="294"/><line style="stroke:#181818;stroke-width:0.5;" x1="38" x2="188" y1="302" y2="302"/><text fill="#000000" font-family="sans-serif" font-size="14" lengthAdjust="spacing" textLength="140" x="43" y="321.1074">+getStoreRepository()</text></g><!--class StoreRepository--><g id="elem_StoreRepository"><rect codeLine="13" fill="#F1F1F1" height="66.6211" id="StoreRepository" rx="2.5" ry="2.5" style="stroke:#181818;stroke-width:0.5;" width="134" x="46" y="390"/><ellipse cx="61" cy="406" fill="#ADD1B2" rx="11" ry="11" style="stroke:#181818;stroke-width:1.0;"/><path d="M63.7656,401.875 Q63.9219,401.6563 64.1094,401.5469 Q64.2969,401.4375 64.5156,401.4375 Q64.8906,401.4375 65.125,401.7031 Q65.3594,401.9531 65.3594,402.5625 L65.3594,404.0156 Q65.3594,404.625 65.125,404.8906 Q64.8906,405.1563 64.5156,405.1563 Q64.1719,405.1563 63.9688,404.9531 Q63.7656,404.7656 63.6563,404.25 Q63.6094,403.8906 63.4219,403.7031 Q63.0938,403.3281 62.4844,403.1094 Q61.875,402.8906 61.25,402.8906 Q60.4844,402.8906 59.8438,403.2188 Q59.2188,403.5469 58.7188,404.2969 Q58.2344,405.0469 58.2344,406.0781 L58.2344,407.1719 Q58.2344,408.4063 59.125,409.2344 Q60.0156,410.0469 61.6094,410.0469 Q62.5469,410.0469 63.2031,409.7969 Q63.5938,409.6406 64.0156,409.2031 Q64.2813,408.9375 64.4219,408.8594 Q64.5781,408.7813 64.7813,408.7813 Q65.1094,408.7813 65.3594,409.0469 Q65.625,409.2969 65.625,409.6406 Q65.625,409.9844 65.2813,410.3906 Q64.7813,410.9688 63.9844,411.2969 Q62.9063,411.75 61.6094,411.75 Q60.0938,411.75 58.8906,411.125 Q57.9063,410.625 57.2188,409.5625 Q56.5313,408.4844 56.5313,407.2031 L56.5313,406.0469 Q56.5313,404.7188 57.1406,403.5781 Q57.7656,402.4219 58.8594,401.8125 Q59.9531,401.1875 61.1875,401.1875 Q61.9219,401.1875 62.5625,401.3594 Q63.2188,401.5156 63.7656,401.875 Z " fill="#000000"/><text fill="#000000" font-family="sans-serif" font-size="14" lengthAdjust="spacing" textLength="102" x="75" y="411.7969">StoreRepository</text><line style="stroke:#181818;stroke-width:0.5;" x1="47" x2="179" y1="422" y2="422"/><line style="stroke:#181818;stroke-width:0.5;" x1="47" x2="179" y1="430" y2="430"/><text fill="#000000" font-family="sans-serif" font-size="14" lengthAdjust="spacing" textLength="101" x="52" y="449.1074">+getStoresList()</text></g><!--class Store--><g id="elem_Store"><rect codeLine="17" fill="#F1F1F1" height="308.6953" id="Store" rx="2.5" ry="2.5" style="stroke:#181818;stroke-width:0.5;" width="140" x="43" y="536"/><ellipse cx="91.75" cy="552" fill="#ADD1B2" rx="11" ry="11" style="stroke:#181818;stroke-width:1.0;"/><path d="M94.5156,547.875 Q94.6719,547.6563 94.8594,547.5469 Q95.0469,547.4375 95.2656,547.4375 Q95.6406,547.4375 95.875,547.7031 Q96.1094,547.9531 96.1094,548.5625 L96.1094,550.0156 Q96.1094,550.625 95.875,550.8906 Q95.6406,551.1563 95.2656,551.1563 Q94.9219,551.1563 94.7188,550.9531 Q94.5156,550.7656 94.4063,550.25 Q94.3594,549.8906 94.1719,549.7031 Q93.8438,549.3281 93.2344,549.1094 Q92.625,548.8906 92,548.8906 Q91.2344,548.8906 90.5938,549.2188 Q89.9688,549.5469 89.4688,550.2969 Q88.9844,551.0469 88.9844,552.0781 L88.9844,553.1719 Q88.9844,554.4063 89.875,555.2344 Q90.7656,556.0469 92.3594,556.0469 Q93.2969,556.0469 93.9531,555.7969 Q94.3438,555.6406 94.7656,555.2031 Q95.0313,554.9375 95.1719,554.8594 Q95.3281,554.7813 95.5313,554.7813 Q95.8594,554.7813 96.1094,555.0469 Q96.375,555.2969 96.375,555.6406 Q96.375,555.9844 96.0313,556.3906 Q95.5313,556.9688 94.7344,557.2969 Q93.6563,557.75 92.3594,557.75 Q90.8438,557.75 89.6406,557.125 Q88.6563,556.625 87.9688,555.5625 Q87.2813,554.4844 87.2813,553.2031 L87.2813,552.0469 Q87.2813,550.7188 87.8906,549.5781 Q88.5156,548.4219 89.6094,547.8125 Q90.7031,547.1875 91.9375,547.1875 Q92.6719,547.1875 93.3125,547.3594 Q93.9688,547.5156 94.5156,547.875 Z " fill="#000000"/><text fill="#000000" font-family="sans-serif" font-size="14" lengthAdjust="spacing" textLength="34" x="112.25" y="557.7969">Store</text><line style="stroke:#181818;stroke-width:0.5;" x1="44" x2="182" y1="568" y2="568"/><text fill="#000000" font-family="sans-serif" font-size="14" lengthAdjust="spacing" textLength="18" x="49" y="587.1074">-ID</text><text fill="#000000" font-family="sans-serif" font-size="14" lengthAdjust="spacing" textLength="56" x="49" y="605.7285">-address</text><text fill="#000000" font-family="sans-serif" font-size="14" lengthAdjust="spacing" textLength="41" x="49" y="624.3496">-Name</text><text fill="#000000" font-family="sans-serif" font-size="14" lengthAdjust="spacing" textLength="39" x="49" y="642.9707">-Email</text><text fill="#000000" font-family="sans-serif" font-size="14" lengthAdjust="spacing" textLength="95" x="49" y="661.5918">-PhoneNumber</text><text fill="#000000" font-family="sans-serif" font-size="14" lengthAdjust="spacing" textLength="59" x="49" y="680.2129">-Property</text><text fill="#000000" font-family="sans-serif" font-size="14" lengthAdjust="spacing" textLength="97" x="49" y="698.834">-PropertyCount</text><text fill="#000000" font-family="sans-serif" font-size="14" lengthAdjust="spacing" textLength="120" x="49" y="717.4551">+getPropertyCount</text><line style="stroke:#181818;stroke-width:0.5;" x1="44" x2="182" y1="724.9688" y2="724.9688"/><text fill="#000000" font-family="sans-serif" font-size="14" lengthAdjust="spacing" textLength="51" x="49" y="744.0762">+getID()</text><text fill="#000000" font-family="sans-serif" font-size="14" lengthAdjust="spacing" textLength="90" x="49" y="762.6973">+getAddress()</text><text fill="#000000" font-family="sans-serif" font-size="14" lengthAdjust="spacing" textLength="74" x="49" y="781.3184">+getName()</text><text fill="#000000" font-family="sans-serif" font-size="14" lengthAdjust="spacing" textLength="72" x="49" y="799.9395">+getEmail()</text><text fill="#000000" font-family="sans-serif" font-size="14" lengthAdjust="spacing" textLength="128" x="49" y="818.5605">+getPhoneNumber()</text><text fill="#000000" font-family="sans-serif" font-size="14" lengthAdjust="spacing" textLength="92" x="49" y="837.1816">+getProperty()</text></g><!--class SplitStoreListAlgorithms--><g id="elem_SplitStoreListAlgorithms"><rect codeLine="33" fill="#F1F1F1" height="85.2422" id="SplitStoreListAlgorithms" rx="2.5" ry="2.5" style="stroke:#181818;stroke-width:0.5;" width="209" x="254.5" y="116"/><ellipse cx="282.1" cy="132" fill="#ADD1B2" rx="11" ry="11" style="stroke:#181818;stroke-width:1.0;"/><path d="M284.8656,127.875 Q285.0219,127.6563 285.2094,127.5469 Q285.3969,127.4375 285.6156,127.4375 Q285.9906,127.4375 286.225,127.7031 Q286.4594,127.9531 286.4594,128.5625 L286.4594,130.0156 Q286.4594,130.625 286.225,130.8906 Q285.9906,131.1563 285.6156,131.1563 Q285.2719,131.1563 285.0688,130.9531 Q284.8656,130.7656 284.7563,130.25 Q284.7094,129.8906 284.5219,129.7031 Q284.1938,129.3281 283.5844,129.1094 Q282.975,128.8906 282.35,128.8906 Q281.5844,128.8906 280.9438,129.2188 Q280.3188,129.5469 279.8188,130.2969 Q279.3344,131.0469 279.3344,132.0781 L279.3344,133.1719 Q279.3344,134.4063 280.225,135.2344 Q281.1156,136.0469 282.7094,136.0469 Q283.6469,136.0469 284.3031,135.7969 Q284.6938,135.6406 285.1156,135.2031 Q285.3813,134.9375 285.5219,134.8594 Q285.6781,134.7813 285.8813,134.7813 Q286.2094,134.7813 286.4594,135.0469 Q286.725,135.2969 286.725,135.6406 Q286.725,135.9844 286.3813,136.3906 Q285.8813,136.9688 285.0844,137.2969 Q284.0063,137.75 282.7094,137.75 Q281.1938,137.75 279.9906,137.125 Q279.0063,136.625 278.3188,135.5625 Q277.6313,134.4844 277.6313,133.2031 L277.6313,132.0469 Q277.6313,130.7188 278.2406,129.5781 Q278.8656,128.4219 279.9594,127.8125 Q281.0531,127.1875 282.2875,127.1875 Q283.0219,127.1875 283.6625,127.3594 Q284.3188,127.5156 284.8656,127.875 Z " fill="#000000"/><text fill="#000000" font-family="sans-serif" font-size="14" lengthAdjust="spacing" textLength="149" x="298.9" y="137.7969">SplitStoreListAlgorithms</text><line style="stroke:#181818;stroke-width:0.5;" x1="255.5" x2="462.5" y1="148" y2="148"/><text fill="#000000" font-family="sans-serif" font-size="14" lengthAdjust="spacing" textLength="74" x="260.5" y="167.1074">-bestOption</text><line style="stroke:#181818;stroke-width:0.5;" x1="255.5" x2="462.5" y1="174.6211" y2="174.6211"/><text fill="#000000" font-family="sans-serif" font-size="14" lengthAdjust="spacing" textLength="197" x="260.5" y="193.7285">+splitStoreListInTwo(storesList)</text></g><!--link NetworkStoresSplitUI to NetworkStoresSplitController--><g id="link_NetworkStoresSplitUI_NetworkStoresSplitController"><path codeLine="38" d="M113,55.02 C113,73.02 113,98.44 113,119.46 " fill="none" id="NetworkStoresSplitUI-to-NetworkStoresSplitController" style="stroke:#181818;stroke-width:1.0;"/><polygon fill="#181818" points="113,124.7,117,115.7,113,119.7,109,115.7,113,124.7" style="stroke:#181818;stroke-width:1.0;"/></g><!--link NetworkStoresSplitController to Repositories--><g id="link_NetworkStoresSplitController_Repositories"><path codeLine="40" d="M113,192.18 C113,211.6 113,236.32 113,256.6 " fill="none" id="NetworkStoresSplitController-to-Repositories" style="stroke:#181818;stroke-width:1.0;"/><polygon fill="#181818" points="113,261.65,117,252.65,113,256.65,109,252.65,113,261.65" style="stroke:#181818;stroke-width:1.0;"/></g><!--link StoreRepository to Store--><g id="link_StoreRepository_Store"><path codeLine="42" d="M113,457.26 C113,476.68 113,502.9 113,530.72 " fill="none" id="StoreRepository-to-Store" style="stroke:#181818;stroke-width:1.0;"/><polygon fill="#181818" points="113,535.93,117,526.93,113,530.93,109,526.93,113,535.93" style="stroke:#181818;stroke-width:1.0;"/><polygon fill="#000000" points="118,501.6455,120.9389,492.6004,115.0611,492.6004,118,501.6455" style="stroke:#000000;stroke-width:1.0;"/><text fill="#000000" font-family="sans-serif" font-size="13" lengthAdjust="spacing" textLength="37" x="127" y="502.0283">knows</text></g><!--link Repositories to StoreRepository--><g id="link_Repositories_StoreRepository"><path codeLine="44" d="M113,329.28 C113,346.19 113,366.92 113,384.53 " fill="none" id="Repositories-to-StoreRepository" style="stroke:#181818;stroke-width:1.0;"/><polygon fill="#181818" points="113,389.89,117,380.89,113,384.89,109,380.89,113,389.89" style="stroke:#181818;stroke-width:1.0;"/></g><!--link NetworkStoresSplitController to SplitStoreListAlgorithms--><g id="link_NetworkStoresSplitController_SplitStoreListAlgorithms"><path codeLine="46" d="M219.18,158.5 C229.18,158.5 239.18,158.5 249.18,158.5 " fill="none" id="NetworkStoresSplitController-to-SplitStoreListAlgorithms" style="stroke:#181818;stroke-width:1.0;"/><polygon fill="#181818" points="254.41,158.5,245.41,154.5,249.41,158.5,245.41,162.5,254.41,158.5" style="stroke:#181818;stroke-width:1.0;"/></g><!--SRC=[XL91ReCm4Bpx5JwcGaWzzu24aXwGAbgLzW4cMIKMnaRUHIYD-lSQcwGc8Uq9p-oCnimQ6waxOKNBjqeWvaHMrZr1iJMwab_07ndp4ru23SOs5HaBM7LAqcV1J-px_dnjD5cZ55YdupovLQmUd3_Otw4pADr80exoP0_abPV1qQid-TKeDk2BHBhHZZVWF2qsuIjsEwV404hHGZWzjqAgS7mx60rbtzPW9yAQ3YmTvsXjUasU6YzGR5pm6UGX8sB6e0Zwj0X7aJ4x9IrG8VnSeQ_K_-pOGAxshamwj7XYQGr8hnr9erc2CrcXFmQpmajnlhV5NQTfzkUIbspH4nZjyP8PkzgXLtYEF_56cm5vnjZiNLmKlwx_KhExjR0V]--></g></svg>