<?xml version="1.0" encoding="us-ascii" standalone="no"?><svg xmlns="http://www.w3.org/2000/svg" xmlns:xlink="http://www.w3.org/1999/xlink" contentStyleType="text/css" height="885px" preserveAspectRatio="none" style="width:287px;height:885px;background:#FFFFFF;" version="1.1" viewBox="0 0 287 885" width="287px" zoomAndPan="magnify"><defs/><g><!--class User--><g id="elem_User"><rect codeLine="11" fill="#F1F1F1" height="166.9688" id="User" rx="2.5" ry="2.5" style="stroke:#181818;stroke-width:0.5;" width="135" x="64.5" y="7"/><text fill="#000000" font-family="sans-serif" font-size="14" lengthAdjust="spacing" textLength="29" x="117.5" y="27.1074">User</text><line style="stroke:#181818;stroke-width:0.5;" x1="65.5" x2="198.5" y1="35.6211" y2="35.6211"/><text fill="#000000" font-family="sans-serif" font-size="14" lengthAdjust="spacing" textLength="35" x="70.5" y="54.7285">name</text><text fill="#000000" font-family="sans-serif" font-size="14" lengthAdjust="spacing" textLength="85" x="70.5" y="73.3496">emailAddress</text><text fill="#000000" font-family="sans-serif" font-size="14" lengthAdjust="spacing" textLength="115" x="70.5" y="91.9707">telephone number</text><text fill="#000000" font-family="sans-serif" font-size="14" lengthAdjust="spacing" textLength="123" x="70.5" y="110.5918">citizen card number</text><text fill="#000000" font-family="sans-serif" font-size="14" lengthAdjust="spacing" textLength="70" x="70.5" y="129.2129">tax number</text><text fill="#000000" font-family="sans-serif" font-size="14" lengthAdjust="spacing" textLength="51" x="70.5" y="147.834">address</text><text fill="#000000" font-family="sans-serif" font-size="14" lengthAdjust="spacing" textLength="60" x="70.5" y="166.4551">password</text></g><!--class Agent--><g id="elem_Agent"><rect codeLine="21" fill="#F1F1F1" height="36.6211" id="Agent" rx="2.5" ry="2.5" style="stroke:#181818;stroke-width:0.5;" width="43" x="237.5" y="602"/><text fill="#000000" font-family="sans-serif" font-size="14" lengthAdjust="spacing" textLength="37" x="240.5" y="622.1074">Agent</text><line style="stroke:#181818;stroke-width:0.5;" x1="238.5" x2="279.5" y1="630.6211" y2="630.6211"/></g><!--class Store--><g id="elem_Store"><rect codeLine="24" fill="#F1F1F1" height="36.6211" id="Store" rx="2.5" ry="2.5" style="stroke:#181818;stroke-width:0.5;" width="40" x="99" y="602"/><text fill="#000000" font-family="sans-serif" font-size="14" lengthAdjust="spacing" textLength="34" x="102" y="622.1074">Store</text><line style="stroke:#181818;stroke-width:0.5;" x1="100" x2="138" y1="630.6211" y2="630.6211"/></g><!--class StoreManager--><g id="elem_StoreManager"><rect codeLine="27" fill="#F1F1F1" height="36.6211" id="StoreManager" rx="2.5" ry="2.5" style="stroke:#181818;stroke-width:0.5;" width="96" x="29" y="842"/><text fill="#000000" font-family="sans-serif" font-size="14" lengthAdjust="spacing" textLength="90" x="32" y="862.1074">StoreManager</text><line style="stroke:#181818;stroke-width:0.5;" x1="30" x2="124" y1="870.6211" y2="870.6211"/></g><!--class Employee--><g id="elem_Employee"><rect codeLine="30" fill="#F1F1F1" height="73.8633" id="Employee" rx="2.5" ry="2.5" style="stroke:#181818;stroke-width:0.5;" width="68" x="98" y="235"/><text fill="#000000" font-family="sans-serif" font-size="14" lengthAdjust="spacing" textLength="62" x="101" y="255.1074">Employee</text><line style="stroke:#181818;stroke-width:0.5;" x1="99" x2="165" y1="263.6211" y2="263.6211"/><text fill="#000000" font-family="sans-serif" font-size="14" lengthAdjust="spacing" textLength="46" x="104" y="282.7285">agency</text><text fill="#000000" font-family="sans-serif" font-size="14" lengthAdjust="spacing" textLength="24" x="104" y="301.3496">role</text></g><!--class NetworkManager--><g id="elem_NetworkManager"><rect codeLine="36" fill="#F1F1F1" height="36.6211" id="NetworkManager" rx="2.5" ry="2.5" style="stroke:#181818;stroke-width:0.5;" width="112" x="76" y="370"/><text fill="#000000" font-family="sans-serif" font-size="14" lengthAdjust="spacing" textLength="106" x="79" y="390.1074">NetworkManager</text><line style="stroke:#181818;stroke-width:0.5;" x1="77" x2="187" y1="398.6211" y2="398.6211"/></g><!--class Branch--><g id="elem_Branch"><rect fill="#F1F1F1" height="36.6211" id="Branch" rx="2.5" ry="2.5" style="stroke:#181818;stroke-width:0.5;" width="51" x="93.5" y="486"/><text fill="#000000" font-family="sans-serif" font-size="14" lengthAdjust="spacing" textLength="45" x="96.5" y="506.1074">Branch</text><line style="stroke:#181818;stroke-width:0.5;" x1="94.5" x2="143.5" y1="514.6211" y2="514.6211"/></g><!--reverse link Employee to NetworkManager--><g id="link_Employee_NetworkManager"><path codeLine="39" d="M132,329.47 C132,344.09 132,358.79 132,369.74 " fill="none" id="Employee-backto-NetworkManager" style="stroke:#181818;stroke-width:1.0;"/><polygon fill="none" points="125,329.23,132,309.23,139,329.23,125,329.23" style="stroke:#181818;stroke-width:1.0;"/></g><!--reverse link Employee to Agent--><g id="link_Employee_Agent"><path codeLine="40" d="M178.41,325.13 C188.79,338.95 198.84,354.4 206,370 C243.33,451.29 254.75,559.64 257.9,601.73 " fill="none" id="Employee-backto-Agent" style="stroke:#181818;stroke-width:1.0;"/><polygon fill="none" points="172.69,329.19,165.74,309.17,183.66,320.49,172.69,329.19" style="stroke:#181818;stroke-width:1.0;"/></g><!--reverse link Employee to StoreManager--><g id="link_Employee_StoreManager"><path codeLine="41" d="M79.9,295.59 C45.22,314.53 6,345.28 6,387.5 C6,387.5 6,387.5 6,781 C6,806.91 27.54,828.09 46.89,841.89 " fill="none" id="Employee-backto-StoreManager" style="stroke:#181818;stroke-width:1.0;"/><polygon fill="none" points="76.89,289.27,97.9,286.53,83.19,301.78,76.89,289.27" style="stroke:#181818;stroke-width:1.0;"/></g><!--link Store to StoreManager--><g id="link_Store_StoreManager"><path codeLine="43" d="M128.13,639.16 C139.81,664.12 157.26,711.02 146,750 C135.65,785.84 109.71,821.24 92.75,841.7 " fill="none" id="Store-StoreManager" style="stroke:#181818;stroke-width:1.0;"/><polygon fill="#000000" points="154.1396,745.5709,158.5912,737.1665,152.801,736.155,154.1396,745.5709" style="stroke:#000000;stroke-width:1.0;"/><text fill="#000000" font-family="sans-serif" font-size="13" lengthAdjust="spacing" textLength="49" x="164" y="746.0283">contains</text><text fill="#000000" font-family="sans-serif" font-size="13" lengthAdjust="spacing" textLength="7" x="122.6431" y="660.5776">1</text><text fill="#000000" font-family="sans-serif" font-size="13" lengthAdjust="spacing" textLength="7" x="89.3484" y="830.8073">1</text></g><!--link StoreManager to Store--><g id="link_StoreManager_Store"><path codeLine="44" d="M73.13,841.81 C68.32,816.82 61.69,769.89 70,731 C77.31,696.78 96.13,660.32 108.2,639.29 " fill="none" id="StoreManager-Store" style="stroke:#181818;stroke-width:1.0;stroke-dasharray:7.0,7.0;"/><polygon fill="#000000" points="75.8531,735.7188,71.414,744.1298,77.2056,745.1327,75.8531,735.7188" style="stroke:#000000;stroke-width:1.0;"/><text fill="#000000" font-family="sans-serif" font-size="13" lengthAdjust="spacing" textLength="53" x="84" y="746.0283">manages</text></g><!--link Store to Agent--><g id="link_Store_Agent"><path codeLine="45" d="M139.06,620.5 C165.07,620.5 210.27,620.5 237.13,620.5 " fill="none" id="Store-Agent" style="stroke:#181818;stroke-width:1.0;"/><polygon fill="#000000" points="166.25,608.1455,157.2049,605.2066,157.2049,611.0844,166.25,608.1455" style="stroke:#000000;stroke-width:1.0;"/><text fill="#000000" font-family="sans-serif" font-size="13" lengthAdjust="spacing" textLength="49" x="170.25" y="613.5283">contains</text><text fill="#000000" font-family="sans-serif" font-size="13" lengthAdjust="spacing" textLength="7" x="146.8643" y="614.8237">1</text><text fill="#000000" font-family="sans-serif" font-size="13" lengthAdjust="spacing" textLength="20" x="209.3617" y="636.6818">0..*</text></g><!--link Branch to Store--><g id="link_Branch_Store"><path codeLine="47" d="M119,523.31 C119,544.73 119,580.45 119,601.81 " fill="none" id="Branch-Store" style="stroke:#181818;stroke-width:1.0;"/><polygon fill="#000000" points="124,567.6455,126.9389,558.6004,121.0611,558.6004,124,567.6455" style="stroke:#000000;stroke-width:1.0;"/><text fill="#000000" font-family="sans-serif" font-size="13" lengthAdjust="spacing" textLength="49" x="133" y="568.0283">contains</text><text fill="#000000" font-family="sans-serif" font-size="13" lengthAdjust="spacing" textLength="7" x="111.0594" y="544.7679">1</text><text fill="#000000" font-family="sans-serif" font-size="13" lengthAdjust="spacing" textLength="20" x="95.9375" y="590.614">0..*</text></g><!--link Branch to NetworkManager--><g id="link_Branch_NetworkManager"><path codeLine="48" d="M93.42,490.15 C73.13,477.65 49.88,457.81 61,437 C67.78,424.31 79.61,414.42 91.7,407.02 " fill="none" id="Branch-NetworkManager" style="stroke:#181818;stroke-width:1.0;"/><polygon fill="#000000" points="65.8966,441.6466,63.1454,450.7505,69.022,450.6289,65.8966,441.6466" style="stroke:#000000;stroke-width:1.0;"/><text fill="#000000" font-family="sans-serif" font-size="13" lengthAdjust="spacing" textLength="49" x="75" y="452.0283">contains</text><text fill="#000000" font-family="sans-serif" font-size="13" lengthAdjust="spacing" textLength="7" x="78.6048" y="481.1274">1</text><text fill="#000000" font-family="sans-serif" font-size="13" lengthAdjust="spacing" textLength="7" x="72.3813" y="428.7419">1</text></g><!--link NetworkManager to Branch--><g id="link_NetworkManager_Branch"><path codeLine="49" d="M131.98,407.07 C131.78,420.51 131.1,439.49 129,456 C127.75,465.87 125.53,476.73 123.49,485.57 " fill="none" id="NetworkManager-Branch" style="stroke:#181818;stroke-width:1.0;stroke-dasharray:7.0,7.0;"/><polygon fill="#000000" points="135.4624,451.6165,139.3568,442.9399,133.5131,442.3079,135.4624,451.6165" style="stroke:#000000;stroke-width:1.0;"/><text fill="#000000" font-family="sans-serif" font-size="13" lengthAdjust="spacing" textLength="53" x="145" y="452.0283">manages</text><text fill="#000000" font-family="sans-serif" font-size="13" lengthAdjust="spacing" textLength="7" x="123.99" y="428.806">1</text><text fill="#000000" font-family="sans-serif" font-size="13" lengthAdjust="spacing" textLength="7" x="116.7808" y="474.6392">1</text></g><!--reverse link User to Employee--><g id="link_User_Employee"><path codeLine="51" d="M132,194.18 C132,208.76 132,222.87 132,234.94 " fill="none" id="User-backto-Employee" style="stroke:#181818;stroke-width:1.0;"/><polygon fill="none" points="125,194.16,132,174.16,139,194.16,125,194.16" style="stroke:#181818;stroke-width:1.0;"/></g><!--SRC=[PLB1Ri8m3BtxAomkI9Ees1LDavYqmmxR1Uq3GchQYCIf72F66F- -KDgkPRauydj-VdQIzeuR8oPWY1njBJ4GgXm8qe0qnkvDHHizUK8XguOhFoQasfJnwBZ2dV69OFu7USUafuOmYjOHvfvsYXfHN5KhbkugvoAFnAmtAQrLnMqFIcysyiPz4owXTYMXTM9px_OUA4kM2G3Q6lnC97W6De60Wd5-NPP2AO6IfwQEJCY7i2K1wpHhCbeZPPzJyzLVJLVNPDLZb18kVOjrHQovnv3OQ1JwbtWtd1Scu_nhQ7my4PqX8snF837FSHdCVv3cLlkkiYtiIn2VVXQBl66-O_qn1iBDuHHepyGOmCttx7666Rg6YUyLvhMhSPpm6IP8qKsymj1c1i9D2sVBedYOTNkQoC2B6BRrqFD6xDL6n3jU3jEff-mxx4elYZPqEcEdq7wHwqw6z_W5]--></g></svg>