<?xml version="1.0" encoding="us-ascii" standalone="no"?><svg xmlns="http://www.w3.org/2000/svg" xmlns:xlink="http://www.w3.org/1999/xlink" contentStyleType="text/css" height="576px" preserveAspectRatio="none" style="width:1499px;height:576px;background:#FFFFFF;" version="1.1" viewBox="0 0 1499 576" width="1499px" zoomAndPan="magnify"><defs/><g><!--class AuthenticationRepository--><g id="elem_AuthenticationRepository"><rect codeLine="2" fill="#F1F1F1" height="66.6211" id="AuthenticationRepository" rx="2.5" ry="2.5" style="stroke:#181818;stroke-width:0.5;" width="277" x="633.5" y="236.5"/><ellipse cx="688.75" cy="252.5" fill="#ADD1B2" rx="11" ry="11" style="stroke:#181818;stroke-width:1.0;"/><path d="M691.5156,248.375 Q691.6719,248.1563 691.8594,248.0469 Q692.0469,247.9375 692.2656,247.9375 Q692.6406,247.9375 692.875,248.2031 Q693.1094,248.4531 693.1094,249.0625 L693.1094,250.5156 Q693.1094,251.125 692.875,251.3906 Q692.6406,251.6563 692.2656,251.6563 Q691.9219,251.6563 691.7188,251.4531 Q691.5156,251.2656 691.4063,250.75 Q691.3594,250.3906 691.1719,250.2031 Q690.8438,249.8281 690.2344,249.6094 Q689.625,249.3906 689,249.3906 Q688.2344,249.3906 687.5938,249.7188 Q686.9688,250.0469 686.4688,250.7969 Q685.9844,251.5469 685.9844,252.5781 L685.9844,253.6719 Q685.9844,254.9063 686.875,255.7344 Q687.7656,256.5469 689.3594,256.5469 Q690.2969,256.5469 690.9531,256.2969 Q691.3438,256.1406 691.7656,255.7031 Q692.0313,255.4375 692.1719,255.3594 Q692.3281,255.2813 692.5313,255.2813 Q692.8594,255.2813 693.1094,255.5469 Q693.375,255.7969 693.375,256.1406 Q693.375,256.4844 693.0313,256.8906 Q692.5313,257.4688 691.7344,257.7969 Q690.6563,258.25 689.3594,258.25 Q687.8438,258.25 686.6406,257.625 Q685.6563,257.125 684.9688,256.0625 Q684.2813,254.9844 684.2813,253.7031 L684.2813,252.5469 Q684.2813,251.2188 684.8906,250.0781 Q685.5156,248.9219 686.6094,248.3125 Q687.7031,247.6875 688.9375,247.6875 Q689.6719,247.6875 690.3125,247.8594 Q690.9688,248.0156 691.5156,248.375 Z " fill="#000000"/><text fill="#000000" font-family="sans-serif" font-size="14" lengthAdjust="spacing" textLength="158" x="709.25" y="258.2969">AuthenticationRepository</text><line style="stroke:#181818;stroke-width:0.5;" x1="634.5" x2="909.5" y1="268.5" y2="268.5"/><line style="stroke:#181818;stroke-width:0.5;" x1="634.5" x2="909.5" y1="276.5" y2="276.5"/><ellipse cx="644.5" cy="291.3105" fill="#84BE84" rx="3" ry="3" style="stroke:#038048;stroke-width:1.0;"/><text fill="#000000" font-family="sans-serif" font-size="14" lengthAdjust="spacing" textLength="251" x="653.5" y="295.6074">addUser(emailAddress,password,name)</text></g><!--class AuthFacade--><g id="elem_AuthFacade"><rect codeLine="6" fill="#F1F1F1" height="66.6211" id="AuthFacade" rx="2.5" ry="2.5" style="stroke:#181818;stroke-width:0.5;" width="277" x="633.5" y="7"/><ellipse cx="729.25" cy="23" fill="#ADD1B2" rx="11" ry="11" style="stroke:#181818;stroke-width:1.0;"/><path d="M732.0156,18.875 Q732.1719,18.6563 732.3594,18.5469 Q732.5469,18.4375 732.7656,18.4375 Q733.1406,18.4375 733.375,18.7031 Q733.6094,18.9531 733.6094,19.5625 L733.6094,21.0156 Q733.6094,21.625 733.375,21.8906 Q733.1406,22.1563 732.7656,22.1563 Q732.4219,22.1563 732.2188,21.9531 Q732.0156,21.7656 731.9063,21.25 Q731.8594,20.8906 731.6719,20.7031 Q731.3438,20.3281 730.7344,20.1094 Q730.125,19.8906 729.5,19.8906 Q728.7344,19.8906 728.0938,20.2188 Q727.4688,20.5469 726.9688,21.2969 Q726.4844,22.0469 726.4844,23.0781 L726.4844,24.1719 Q726.4844,25.4063 727.375,26.2344 Q728.2656,27.0469 729.8594,27.0469 Q730.7969,27.0469 731.4531,26.7969 Q731.8438,26.6406 732.2656,26.2031 Q732.5313,25.9375 732.6719,25.8594 Q732.8281,25.7813 733.0313,25.7813 Q733.3594,25.7813 733.6094,26.0469 Q733.875,26.2969 733.875,26.6406 Q733.875,26.9844 733.5313,27.3906 Q733.0313,27.9688 732.2344,28.2969 Q731.1563,28.75 729.8594,28.75 Q728.3438,28.75 727.1406,28.125 Q726.1563,27.625 725.4688,26.5625 Q724.7813,25.4844 724.7813,24.2031 L724.7813,23.0469 Q724.7813,21.7188 725.3906,20.5781 Q726.0156,19.4219 727.1094,18.8125 Q728.2031,18.1875 729.4375,18.1875 Q730.1719,18.1875 730.8125,18.3594 Q731.4688,18.5156 732.0156,18.875 Z " fill="#000000"/><text fill="#000000" font-family="sans-serif" font-size="14" lengthAdjust="spacing" textLength="77" x="749.75" y="28.7969">AuthFacade</text><line style="stroke:#181818;stroke-width:0.5;" x1="634.5" x2="909.5" y1="39" y2="39"/><line style="stroke:#181818;stroke-width:0.5;" x1="634.5" x2="909.5" y1="47" y2="47"/><ellipse cx="644.5" cy="61.8105" fill="#84BE84" rx="3" ry="3" style="stroke:#038048;stroke-width:1.0;"/><text fill="#000000" font-family="sans-serif" font-size="14" lengthAdjust="spacing" textLength="251" x="653.5" y="66.1074">addUser(emailAddress,password,name)</text></g><!--class Client--><g id="elem_Client"><rect codeLine="10" fill="#F1F1F1" height="234.2109" id="Client" rx="2.5" ry="2.5" style="stroke:#181818;stroke-width:0.5;" width="145" x="945.5" y="153"/><ellipse cx="995.75" cy="169" fill="#ADD1B2" rx="11" ry="11" style="stroke:#181818;stroke-width:1.0;"/><path d="M998.5156,164.875 Q998.6719,164.6563 998.8594,164.5469 Q999.0469,164.4375 999.2656,164.4375 Q999.6406,164.4375 999.875,164.7031 Q1000.1094,164.9531 1000.1094,165.5625 L1000.1094,167.0156 Q1000.1094,167.625 999.875,167.8906 Q999.6406,168.1563 999.2656,168.1563 Q998.9219,168.1563 998.7188,167.9531 Q998.5156,167.7656 998.4063,167.25 Q998.3594,166.8906 998.1719,166.7031 Q997.8438,166.3281 997.2344,166.1094 Q996.625,165.8906 996,165.8906 Q995.2344,165.8906 994.5938,166.2188 Q993.9688,166.5469 993.4688,167.2969 Q992.9844,168.0469 992.9844,169.0781 L992.9844,170.1719 Q992.9844,171.4063 993.875,172.2344 Q994.7656,173.0469 996.3594,173.0469 Q997.2969,173.0469 997.9531,172.7969 Q998.3438,172.6406 998.7656,172.2031 Q999.0313,171.9375 999.1719,171.8594 Q999.3281,171.7813 999.5313,171.7813 Q999.8594,171.7813 1000.1094,172.0469 Q1000.375,172.2969 1000.375,172.6406 Q1000.375,172.9844 1000.0313,173.3906 Q999.5313,173.9688 998.7344,174.2969 Q997.6563,174.75 996.3594,174.75 Q994.8438,174.75 993.6406,174.125 Q992.6563,173.625 991.9688,172.5625 Q991.2813,171.4844 991.2813,170.2031 L991.2813,169.0469 Q991.2813,167.7188 991.8906,166.5781 Q992.5156,165.4219 993.6094,164.8125 Q994.7031,164.1875 995.9375,164.1875 Q996.6719,164.1875 997.3125,164.3594 Q997.9688,164.5156 998.5156,164.875 Z " fill="#000000"/><text fill="#000000" font-family="sans-serif" font-size="14" lengthAdjust="spacing" textLength="36" x="1016.25" y="174.7969">Client</text><line style="stroke:#181818;stroke-width:0.5;" x1="946.5" x2="1089.5" y1="185" y2="185"/><rect fill="none" height="6" style="stroke:#C82930;stroke-width:1.0;" width="6" x="953.5" y="196.8105"/><text fill="#000000" font-family="sans-serif" font-size="14" lengthAdjust="spacing" textLength="35" x="965.5" y="204.1074">name</text><rect fill="none" height="6" style="stroke:#C82930;stroke-width:1.0;" width="6" x="953.5" y="215.4316"/><text fill="#000000" font-family="sans-serif" font-size="14" lengthAdjust="spacing" textLength="85" x="965.5" y="222.7285">emailAddress</text><rect fill="none" height="6" style="stroke:#C82930;stroke-width:1.0;" width="6" x="953.5" y="234.0527"/><text fill="#000000" font-family="sans-serif" font-size="14" lengthAdjust="spacing" textLength="112" x="965.5" y="241.3496">telephoneNumber</text><rect fill="none" height="6" style="stroke:#C82930;stroke-width:1.0;" width="6" x="953.5" y="252.6738"/><text fill="#000000" font-family="sans-serif" font-size="14" lengthAdjust="spacing" textLength="119" x="965.5" y="259.9707">citizenCardNumber</text><rect fill="none" height="6" style="stroke:#C82930;stroke-width:1.0;" width="6" x="953.5" y="271.2949"/><text fill="#000000" font-family="sans-serif" font-size="14" lengthAdjust="spacing" textLength="40" x="965.5" y="278.5918">phone</text><rect fill="none" height="6" style="stroke:#C82930;stroke-width:1.0;" width="6" x="953.5" y="289.916"/><text fill="#000000" font-family="sans-serif" font-size="14" lengthAdjust="spacing" textLength="67" x="965.5" y="297.2129">taxNumber</text><rect fill="none" height="6" style="stroke:#C82930;stroke-width:1.0;" width="6" x="953.5" y="308.5371"/><text fill="#000000" font-family="sans-serif" font-size="14" lengthAdjust="spacing" textLength="51" x="965.5" y="315.834">address</text><line style="stroke:#181818;stroke-width:0.5;" x1="946.5" x2="1089.5" y1="323.3477" y2="323.3477"/><ellipse cx="956.5" cy="338.1582" fill="#84BE84" rx="3" ry="3" style="stroke:#038048;stroke-width:1.0;"/><text fill="#000000" font-family="sans-serif" font-size="14" lengthAdjust="spacing" textLength="86" x="965.5" y="342.4551">createClient()</text><ellipse cx="956.5" cy="356.7793" fill="#84BE84" rx="3" ry="3" style="stroke:#038048;stroke-width:1.0;"/><text fill="#000000" font-family="sans-serif" font-size="14" lengthAdjust="spacing" textLength="51" x="965.5" y="361.0762">isValid()</text><ellipse cx="956.5" cy="375.4004" fill="#84BE84" rx="3" ry="3" style="stroke:#038048;stroke-width:1.0;"/><text fill="#000000" font-family="sans-serif" font-size="14" lengthAdjust="spacing" textLength="85" x="965.5" y="379.6973">equals(client)</text></g><!--class RegistrationUI--><g id="elem_RegistrationUI"><rect codeLine="22" fill="#F1F1F1" height="48" id="RegistrationUI" rx="2.5" ry="2.5" style="stroke:#181818;stroke-width:0.5;" width="120" x="7" y="246"/><ellipse cx="22" cy="262" fill="#ADD1B2" rx="11" ry="11" style="stroke:#181818;stroke-width:1.0;"/><path d="M24.7656,257.875 Q24.9219,257.6563 25.1094,257.5469 Q25.2969,257.4375 25.5156,257.4375 Q25.8906,257.4375 26.125,257.7031 Q26.3594,257.9531 26.3594,258.5625 L26.3594,260.0156 Q26.3594,260.625 26.125,260.8906 Q25.8906,261.1563 25.5156,261.1563 Q25.1719,261.1563 24.9688,260.9531 Q24.7656,260.7656 24.6563,260.25 Q24.6094,259.8906 24.4219,259.7031 Q24.0938,259.3281 23.4844,259.1094 Q22.875,258.8906 22.25,258.8906 Q21.4844,258.8906 20.8438,259.2188 Q20.2188,259.5469 19.7188,260.2969 Q19.2344,261.0469 19.2344,262.0781 L19.2344,263.1719 Q19.2344,264.4063 20.125,265.2344 Q21.0156,266.0469 22.6094,266.0469 Q23.5469,266.0469 24.2031,265.7969 Q24.5938,265.6406 25.0156,265.2031 Q25.2813,264.9375 25.4219,264.8594 Q25.5781,264.7813 25.7813,264.7813 Q26.1094,264.7813 26.3594,265.0469 Q26.625,265.2969 26.625,265.6406 Q26.625,265.9844 26.2813,266.3906 Q25.7813,266.9688 24.9844,267.2969 Q23.9063,267.75 22.6094,267.75 Q21.0938,267.75 19.8906,267.125 Q18.9063,266.625 18.2188,265.5625 Q17.5313,264.4844 17.5313,263.2031 L17.5313,262.0469 Q17.5313,260.7188 18.1406,259.5781 Q18.7656,258.4219 19.8594,257.8125 Q20.9531,257.1875 22.1875,257.1875 Q22.9219,257.1875 23.5625,257.3594 Q24.2188,257.5156 24.7656,257.875 Z " fill="#000000"/><text fill="#000000" font-family="sans-serif" font-size="14" lengthAdjust="spacing" textLength="88" x="36" y="267.7969">RegistrationUI</text><line style="stroke:#181818;stroke-width:0.5;" x1="8" x2="126" y1="278" y2="278"/><line style="stroke:#181818;stroke-width:0.5;" x1="8" x2="126" y1="286" y2="286"/></g><!--class RegistrationController--><g id="elem_RegistrationController"><rect codeLine="24" fill="#F1F1F1" height="103.8633" id="RegistrationController" rx="2.5" ry="2.5" style="stroke:#181818;stroke-width:0.5;" width="367" x="162.5" y="218"/><ellipse cx="272.75" cy="234" fill="#ADD1B2" rx="11" ry="11" style="stroke:#181818;stroke-width:1.0;"/><path d="M275.5156,229.875 Q275.6719,229.6563 275.8594,229.5469 Q276.0469,229.4375 276.2656,229.4375 Q276.6406,229.4375 276.875,229.7031 Q277.1094,229.9531 277.1094,230.5625 L277.1094,232.0156 Q277.1094,232.625 276.875,232.8906 Q276.6406,233.1563 276.2656,233.1563 Q275.9219,233.1563 275.7188,232.9531 Q275.5156,232.7656 275.4063,232.25 Q275.3594,231.8906 275.1719,231.7031 Q274.8438,231.3281 274.2344,231.1094 Q273.625,230.8906 273,230.8906 Q272.2344,230.8906 271.5938,231.2188 Q270.9688,231.5469 270.4688,232.2969 Q269.9844,233.0469 269.9844,234.0781 L269.9844,235.1719 Q269.9844,236.4063 270.875,237.2344 Q271.7656,238.0469 273.3594,238.0469 Q274.2969,238.0469 274.9531,237.7969 Q275.3438,237.6406 275.7656,237.2031 Q276.0313,236.9375 276.1719,236.8594 Q276.3281,236.7813 276.5313,236.7813 Q276.8594,236.7813 277.1094,237.0469 Q277.375,237.2969 277.375,237.6406 Q277.375,237.9844 277.0313,238.3906 Q276.5313,238.9688 275.7344,239.2969 Q274.6563,239.75 273.3594,239.75 Q271.8438,239.75 270.6406,239.125 Q269.6563,238.625 268.9688,237.5625 Q268.2813,236.4844 268.2813,235.2031 L268.2813,234.0469 Q268.2813,232.7188 268.8906,231.5781 Q269.5156,230.4219 270.6094,229.8125 Q271.7031,229.1875 272.9375,229.1875 Q273.6719,229.1875 274.3125,229.3594 Q274.9688,229.5156 275.5156,229.875 Z " fill="#000000"/><text fill="#000000" font-family="sans-serif" font-size="14" lengthAdjust="spacing" textLength="138" x="293.25" y="239.7969">RegistrationController</text><line style="stroke:#181818;stroke-width:0.5;" x1="163.5" x2="528.5" y1="250" y2="250"/><line style="stroke:#181818;stroke-width:0.5;" x1="163.5" x2="528.5" y1="258" y2="258"/><ellipse cx="173.5" cy="272.8105" fill="#84BE84" rx="3" ry="3" style="stroke:#038048;stroke-width:1.0;"/><text fill="#000000" font-family="sans-serif" font-size="14" lengthAdjust="spacing" textLength="50" x="182.5" y="277.1074">create()</text><ellipse cx="173.5" cy="300.7422" fill="#84BE84" rx="3" ry="3" style="stroke:#038048;stroke-width:1.0;"/><text fill="#000000" font-family="sans-serif" font-size="14" lengthAdjust="spacing" textLength="314" x="182.5" y="295.7285">createClient(name,citizenCardNumber, taxNumber</text><text fill="#000000" font-family="sans-serif" font-size="14" lengthAdjust="spacing" textLength="337" x="186.5" y="314.3496">address, emailAddress, telephoneNumber, password)</text></g><!--class ClientsRepository--><g id="elem_ClientsRepository"><rect codeLine="29" fill="#F1F1F1" height="141.1055" id="ClientsRepository" rx="2.5" ry="2.5" style="stroke:#181818;stroke-width:0.5;" width="367" x="1125.5" y="199.5"/><ellipse cx="1249.25" cy="215.5" fill="#ADD1B2" rx="11" ry="11" style="stroke:#181818;stroke-width:1.0;"/><path d="M1252.0156,211.375 Q1252.1719,211.1563 1252.3594,211.0469 Q1252.5469,210.9375 1252.7656,210.9375 Q1253.1406,210.9375 1253.375,211.2031 Q1253.6094,211.4531 1253.6094,212.0625 L1253.6094,213.5156 Q1253.6094,214.125 1253.375,214.3906 Q1253.1406,214.6563 1252.7656,214.6563 Q1252.4219,214.6563 1252.2188,214.4531 Q1252.0156,214.2656 1251.9063,213.75 Q1251.8594,213.3906 1251.6719,213.2031 Q1251.3438,212.8281 1250.7344,212.6094 Q1250.125,212.3906 1249.5,212.3906 Q1248.7344,212.3906 1248.0938,212.7188 Q1247.4688,213.0469 1246.9688,213.7969 Q1246.4844,214.5469 1246.4844,215.5781 L1246.4844,216.6719 Q1246.4844,217.9063 1247.375,218.7344 Q1248.2656,219.5469 1249.8594,219.5469 Q1250.7969,219.5469 1251.4531,219.2969 Q1251.8438,219.1406 1252.2656,218.7031 Q1252.5313,218.4375 1252.6719,218.3594 Q1252.8281,218.2813 1253.0313,218.2813 Q1253.3594,218.2813 1253.6094,218.5469 Q1253.875,218.7969 1253.875,219.1406 Q1253.875,219.4844 1253.5313,219.8906 Q1253.0313,220.4688 1252.2344,220.7969 Q1251.1563,221.25 1249.8594,221.25 Q1248.3438,221.25 1247.1406,220.625 Q1246.1563,220.125 1245.4688,219.0625 Q1244.7813,217.9844 1244.7813,216.7031 L1244.7813,215.5469 Q1244.7813,214.2188 1245.3906,213.0781 Q1246.0156,211.9219 1247.1094,211.3125 Q1248.2031,210.6875 1249.4375,210.6875 Q1250.1719,210.6875 1250.8125,210.8594 Q1251.4688,211.0156 1252.0156,211.375 Z " fill="#000000"/><text fill="#000000" font-family="sans-serif" font-size="14" lengthAdjust="spacing" textLength="111" x="1269.75" y="221.2969">ClientsRepository</text><line style="stroke:#181818;stroke-width:0.5;" x1="1126.5" x2="1491.5" y1="231.5" y2="231.5"/><rect fill="none" height="6" style="stroke:#C82930;stroke-width:1.0;" width="6" x="1133.5" y="243.3105"/><text fill="#000000" font-family="sans-serif" font-size="14" lengthAdjust="spacing" textLength="103" x="1145.5" y="250.6074">ArrayList Clients</text><line style="stroke:#181818;stroke-width:0.5;" x1="1126.5" x2="1491.5" y1="258.1211" y2="258.1211"/><ellipse cx="1136.5" cy="272.9316" fill="#84BE84" rx="3" ry="3" style="stroke:#038048;stroke-width:1.0;"/><text fill="#000000" font-family="sans-serif" font-size="14" lengthAdjust="spacing" textLength="103" x="1145.5" y="277.2285">addClient(client)</text><ellipse cx="1136.5" cy="291.5527" fill="#84BE84" rx="3" ry="3" style="stroke:#038048;stroke-width:1.0;"/><text fill="#000000" font-family="sans-serif" font-size="14" lengthAdjust="spacing" textLength="84" x="1145.5" y="295.8496">isValid(client)</text><ellipse cx="1136.5" cy="319.4844" fill="#84BE84" rx="3" ry="3" style="stroke:#038048;stroke-width:1.0;"/><text fill="#000000" font-family="sans-serif" font-size="14" lengthAdjust="spacing" textLength="314" x="1145.5" y="314.4707">createClient(name,citizenCardNumber, taxNumber</text><text fill="#000000" font-family="sans-serif" font-size="14" lengthAdjust="spacing" textLength="337" x="1149.5" y="333.0918">address, emailAddress, telephoneNumber, password)</text></g><!--class Repositories--><g id="elem_Repositories"><rect codeLine="38" fill="#F1F1F1" height="103.8633" id="Repositories" rx="2.5" ry="2.5" style="stroke:#181818;stroke-width:0.5;" width="200" x="672" y="466"/><ellipse cx="728.25" cy="482" fill="#ADD1B2" rx="11" ry="11" style="stroke:#181818;stroke-width:1.0;"/><path d="M731.0156,477.875 Q731.1719,477.6563 731.3594,477.5469 Q731.5469,477.4375 731.7656,477.4375 Q732.1406,477.4375 732.375,477.7031 Q732.6094,477.9531 732.6094,478.5625 L732.6094,480.0156 Q732.6094,480.625 732.375,480.8906 Q732.1406,481.1563 731.7656,481.1563 Q731.4219,481.1563 731.2188,480.9531 Q731.0156,480.7656 730.9063,480.25 Q730.8594,479.8906 730.6719,479.7031 Q730.3438,479.3281 729.7344,479.1094 Q729.125,478.8906 728.5,478.8906 Q727.7344,478.8906 727.0938,479.2188 Q726.4688,479.5469 725.9688,480.2969 Q725.4844,481.0469 725.4844,482.0781 L725.4844,483.1719 Q725.4844,484.4063 726.375,485.2344 Q727.2656,486.0469 728.8594,486.0469 Q729.7969,486.0469 730.4531,485.7969 Q730.8438,485.6406 731.2656,485.2031 Q731.5313,484.9375 731.6719,484.8594 Q731.8281,484.7813 732.0313,484.7813 Q732.3594,484.7813 732.6094,485.0469 Q732.875,485.2969 732.875,485.6406 Q732.875,485.9844 732.5313,486.3906 Q732.0313,486.9688 731.2344,487.2969 Q730.1563,487.75 728.8594,487.75 Q727.3438,487.75 726.1406,487.125 Q725.1563,486.625 724.4688,485.5625 Q723.7813,484.4844 723.7813,483.2031 L723.7813,482.0469 Q723.7813,480.7188 724.3906,479.5781 Q725.0156,478.4219 726.1094,477.8125 Q727.2031,477.1875 728.4375,477.1875 Q729.1719,477.1875 729.8125,477.3594 Q730.4688,477.5156 731.0156,477.875 Z " fill="#000000"/><text fill="#000000" font-family="sans-serif" font-size="14" lengthAdjust="spacing" textLength="79" x="748.75" y="487.7969">Repositories</text><line style="stroke:#181818;stroke-width:0.5;" x1="673" x2="871" y1="498" y2="498"/><line style="stroke:#181818;stroke-width:0.5;" x1="673" x2="871" y1="506" y2="506"/><rect fill="#F24D5C" height="6" style="stroke:#C82930;stroke-width:1.0;" width="6" x="680" y="517.8105"/><text fill="#000000" font-family="sans-serif" font-size="14" lengthAdjust="spacing" textLength="89" x="692" y="525.1074">Repositories()</text><ellipse cx="683" cy="539.4316" fill="#84BE84" rx="3" ry="3" style="stroke:#038048;stroke-width:1.0;"/><text fill="#000000" font-family="sans-serif" font-size="14" lengthAdjust="spacing" textLength="174" x="692" y="543.7285">getInstance() : Repositories</text><ellipse cx="683" cy="558.0527" fill="#84BE84" rx="3" ry="3" style="stroke:#038048;stroke-width:1.0;"/><text fill="#000000" font-family="sans-serif" font-size="14" lengthAdjust="spacing" textLength="141" x="692" y="562.3496">getClientsRepository()</text></g><!--link RegistrationUI to RegistrationController--><g id="link_RegistrationUI_RegistrationController"><path codeLine="45" d="M127.21,270 C137.16,270 147.11,270 157.05,270 " fill="none" id="RegistrationUI-to-RegistrationController" style="stroke:#181818;stroke-width:1.0;stroke-dasharray:7.0,7.0;"/><polygon fill="#181818" points="162.25,270,153.25,266,157.25,270,153.25,274,162.25,270" style="stroke:#181818;stroke-width:1.0;"/></g><!--link RegistrationController to Repositories--><g id="link_RegistrationController_Repositories"><path codeLine="47" d="M434.53,322.12 C505.97,363.38 606.19,421.25 678.84,463.2 " fill="none" id="RegistrationController-to-Repositories" style="stroke:#181818;stroke-width:1.0;stroke-dasharray:7.0,7.0;"/><polygon fill="#181818" points="683.59,465.94,677.797,457.975,679.2603,463.4393,673.7959,464.9026,683.59,465.94" style="stroke:#181818;stroke-width:1.0;"/><text fill="#000000" font-family="sans-serif" font-size="13" lengthAdjust="spacing" textLength="67" x="624" y="432.0283">repositories</text></g><!--link Repositories to Repositories--><g id="link_Repositories_Repositories"><path codeLine="49" d="M872.09,501.77 C892.43,503.54 907,508.95 907,518 C907,526.27 894.83,531.51 877.2,533.69 " fill="none" id="Repositories-to-Repositories" style="stroke:#181818;stroke-width:1.0;"/><polygon fill="#181818" points="872.09,534.23,881.4538,537.2827,877.0635,533.7155,880.6306,529.3251,872.09,534.23" style="stroke:#181818;stroke-width:1.0;"/><text fill="#000000" font-family="sans-serif" font-size="13" lengthAdjust="spacing" textLength="49" x="913" y="523.5283">instance</text></g><!--reverse link ClientsRepository to Repositories--><g id="link_ClientsRepository_Repositories"><path codeLine="51" d="M1190.94,343.17 C1164.09,358.44 1135.4,373.89 1108,387 C1030.7,423.99 939.91,458.62 872.2,482.82 " fill="none" id="ClientsRepository-backto-Repositories" style="stroke:#181818;stroke-width:1.0;"/><polygon fill="#181818" points="1195.58,340.52,1185.782,341.5192,1191.2405,343.0038,1189.756,348.4623,1195.58,340.52" style="stroke:#181818;stroke-width:1.0;"/><text fill="#000000" font-family="sans-serif" font-size="13" lengthAdjust="spacing" textLength="7" x="1176.5226" y="362.7068">1</text></g><!--reverse link Client to ClientsRepository--><g id="link_Client_ClientsRepository"><path codeLine="53" d="M1095.88,270 C1105.68,270 1115.48,270 1125.28,270 " fill="none" id="Client-backto-ClientsRepository" style="stroke:#181818;stroke-width:1.0;"/><polygon fill="#181818" points="1090.75,270,1099.75,274,1095.75,270,1099.75,266,1090.75,270" style="stroke:#181818;stroke-width:1.0;"/><text fill="#000000" font-family="sans-serif" font-size="13" lengthAdjust="spacing" textLength="20" x="1097.7128" y="266.6999">0..*</text></g><!--reverse link AuthenticationRepository to Repositories--><g id="link_AuthenticationRepository_Repositories"><path codeLine="55" d="M772,308.91 C772,350.96 772,419 772,465.77 " fill="none" id="AuthenticationRepository-backto-Repositories" style="stroke:#181818;stroke-width:1.0;"/><polygon fill="#181818" points="772,303.67,768,312.67,772,308.67,776,312.67,772,303.67" style="stroke:#181818;stroke-width:1.0;"/><text fill="#000000" font-family="sans-serif" font-size="13" lengthAdjust="spacing" textLength="7" x="764.3766" y="325.2695">1</text></g><!--reverse link AuthFacade to AuthenticationRepository--><g id="link_AuthFacade_AuthenticationRepository"><path codeLine="57" d="M772,79.31 C772,123.22 772,194.94 772,236.47 " fill="none" id="AuthFacade-backto-AuthenticationRepository" style="stroke:#181818;stroke-width:1.0;"/><polygon fill="#181818" points="772,74.1,768,83.1,772,79.1,776,83.1,772,74.1" style="stroke:#181818;stroke-width:1.0;"/><text fill="#000000" font-family="sans-serif" font-size="13" lengthAdjust="spacing" textLength="7" x="764.3766" y="95.687">1</text></g><!--link RegistrationController to ClientsRepository--><g id="link_RegistrationController_ClientsRepository"><path codeLine="59" d="M418.52,217.97 C468.21,185.64 537.09,147.08 604.5,130 C660.15,115.9 864.11,80.22 1108,153 C1141.28,162.93 1174.89,179.4 1204.85,196.89 " fill="none" id="RegistrationController-to-ClientsRepository" style="stroke:#181818;stroke-width:1.0;stroke-dasharray:7.0,7.0;"/><polygon fill="#181818" points="1209.24,199.48,1203.4979,191.4782,1204.9263,196.9518,1199.4527,198.3801,1209.24,199.48" style="stroke:#181818;stroke-width:1.0;"/><text fill="#000000" font-family="sans-serif" font-size="13" lengthAdjust="spacing" textLength="67" x="605.5" y="119.0283">repositories</text></g><!--link RegistrationController to AuthenticationRepository--><g id="link_RegistrationController_AuthenticationRepository"><path codeLine="61" d="M529.75,270 C562.67,270 596.54,270 628.13,270 " fill="none" id="RegistrationController-to-AuthenticationRepository" style="stroke:#181818;stroke-width:1.0;stroke-dasharray:7.0,7.0;"/><polygon fill="#181818" points="633.18,270,624.18,266,628.18,270,624.18,274,633.18,270" style="stroke:#181818;stroke-width:1.0;"/><text fill="#000000" font-family="sans-serif" font-size="13" lengthAdjust="spacing" textLength="67" x="548" y="263.0283">repositories</text></g><!--SRC=[lLEnQiCm4Dtr5OSdfx5DkveG2852e7G8f5ENgtGa0aLE9OKs3VdtAhRiM3Y6JlLaltllzEwTnHLQ2ukZsv5sagEJbLxJeRBILUPqPbCKOcF9fBH7gHP26B8sEtZHLsL4fd5F4yOkZ7Tzdf6Ze3ygBomebqfw0t1cu9yShjNmsfSta2D5XrsbwVMu_o0JU5mw-KDwYKP4UCqCGlpkbx3NTCeDeQF6HZffC6dVK4dHVjBd4PLDUSsPT4ElQIkjCtLqczNvBhwij3ELKcHyCCrHlcjyw7NcR3151fthTmt1SXQbuYbn8XcqCGyIjltbvWjZyFJYNRRLUcl1Jpjd5qC7_8Fjg-ykn-1Oakr-a3xOxWUsv5RQEjJSfmjbHBfH1a6apN7n7g6OZsmmPjvmA6f9psm9fk-0HSKyZzaboE2TiO55I9wIMHwFtT9WbYUFHV6G35VCsDZDlj_mTd_R-fX-F8JvqCQT8CQqetxBgCCl]--></g></svg>