<?xml version="1.0" encoding="us-ascii" standalone="no"?><svg xmlns="http://www.w3.org/2000/svg" xmlns:xlink="http://www.w3.org/1999/xlink" contentStyleType="text/css" height="620px" preserveAspectRatio="none" style="width:463px;height:620px;background:#FFFFFF;" version="1.1" viewBox="0 0 463 620" width="463px" zoomAndPan="magnify"><defs/><g><text fill="#000000" font-family="sans-serif" font-size="14" font-weight="bold" lengthAdjust="spacing" textLength="330" x="67.75" y="27.6738">System Sequence Diagram (SSD) - Alternative 1</text><rect fill="#FFFFFF" height="403.6641" style="stroke:#181818;stroke-width:1.0;" width="10" x="74.5" y="127.2813"/><rect fill="#FFFFFF" height="43.0469" style="stroke:#181818;stroke-width:1.0;" width="10" x="409.5" y="147.8047"/><rect fill="#FFFFFF" height="43.0469" style="stroke:#181818;stroke-width:1.0;" width="10" x="409.5" y="242.8984"/><rect fill="#FFFFFF" height="43.0469" style="stroke:#181818;stroke-width:1.0;" width="10" x="409.5" y="314.4688"/><rect fill="#FFFFFF" height="43.0469" style="stroke:#181818;stroke-width:1.0;" width="10" x="409.5" y="400.3281"/><rect fill="#FFFFFF" height="43.0469" style="stroke:#181818;stroke-width:1.0;" width="10" x="409.5" y="471.8984"/><rect fill="none" height="317.0938" style="stroke:#000000;stroke-width:1.5;" width="446.5" x="10" y="205.8516"/><line style="stroke:#181818;stroke-width:0.5;stroke-dasharray:5.0,5.0;" x1="79" x2="79" y1="117.2813" y2="539.9453"/><line style="stroke:#181818;stroke-width:0.5;stroke-dasharray:5.0,5.0;" x1="414.5" x2="414.5" y1="117.2813" y2="539.9453"/><text fill="#000000" font-family="sans-serif" font-size="14" lengthAdjust="spacing" textLength="113" x="20" y="114.3145">Unregistered user</text><ellipse cx="79.5" cy="50.1406" fill="#E3E3E3" rx="8" ry="8" style="stroke:#181818;stroke-width:0.5;"/><path d="M79.5,58.1406 L79.5,85.1406 M66.5,66.1406 L92.5,66.1406 M79.5,85.1406 L66.5,100.1406 M79.5,85.1406 L92.5,100.1406 " fill="none" style="stroke:#181818;stroke-width:0.5;"/><text fill="#000000" font-family="sans-serif" font-size="14" lengthAdjust="spacing" textLength="113" x="20" y="551.6191">Unregistered user</text><ellipse cx="79.5" cy="563.0859" fill="#E3E3E3" rx="8" ry="8" style="stroke:#181818;stroke-width:0.5;"/><path d="M79.5,571.0859 L79.5,598.0859 M66.5,579.0859 L92.5,579.0859 M79.5,598.0859 L66.5,613.0859 M79.5,598.0859 L92.5,613.0859 " fill="none" style="stroke:#181818;stroke-width:0.5;"/><rect fill="#E3E3E3" height="29.6406" rx="2.5" ry="2.5" style="stroke:#181818;stroke-width:0.5;" width="64" x="382.5" y="86.6406"/><text fill="#000000" font-family="sans-serif" font-size="14" lengthAdjust="spacing" textLength="50" x="389.5" y="106.3145">:System</text><rect fill="#E3E3E3" height="29.6406" rx="2.5" ry="2.5" style="stroke:#181818;stroke-width:0.5;" width="64" x="382.5" y="538.9453"/><text fill="#000000" font-family="sans-serif" font-size="14" lengthAdjust="spacing" textLength="50" x="389.5" y="558.6191">:System</text><rect fill="#FFFFFF" height="403.6641" style="stroke:#181818;stroke-width:1.0;" width="10" x="74.5" y="127.2813"/><rect fill="#FFFFFF" height="43.0469" style="stroke:#181818;stroke-width:1.0;" width="10" x="409.5" y="147.8047"/><rect fill="#FFFFFF" height="43.0469" style="stroke:#181818;stroke-width:1.0;" width="10" x="409.5" y="242.8984"/><rect fill="#FFFFFF" height="43.0469" style="stroke:#181818;stroke-width:1.0;" width="10" x="409.5" y="314.4688"/><rect fill="#FFFFFF" height="43.0469" style="stroke:#181818;stroke-width:1.0;" width="10" x="409.5" y="400.3281"/><rect fill="#FFFFFF" height="43.0469" style="stroke:#181818;stroke-width:1.0;" width="10" x="409.5" y="471.8984"/><polygon fill="#181818" points="397.5,143.8047,407.5,147.8047,397.5,151.8047,401.5,147.8047" style="stroke:#181818;stroke-width:1.0;"/><line style="stroke:#181818;stroke-width:1.0;" x1="84.5" x2="403.5" y1="147.8047" y2="147.8047"/><text fill="#000000" font-family="sans-serif" font-size="13" font-weight="bold" lengthAdjust="spacing" textLength="7" x="91.5" y="143.0498">1</text><text fill="#000000" font-family="sans-serif" font-size="13" lengthAdjust="spacing" textLength="210" x="102.5" y="143.0498">asks to display the listed properties.</text><polygon fill="#181818" points="95.5,186.8516,85.5,190.8516,95.5,194.8516,91.5,190.8516" style="stroke:#181818;stroke-width:1.0;"/><line style="stroke:#181818;stroke-width:1.0;stroke-dasharray:2.0,2.0;" x1="89.5" x2="413.5" y1="190.8516" y2="190.8516"/><text fill="#000000" font-family="sans-serif" font-size="13" font-weight="bold" lengthAdjust="spacing" textLength="7" x="101.5" y="178.835">2</text><text fill="#000000" font-family="sans-serif" font-size="13" lengthAdjust="spacing" textLength="286" x="112.5" y="171.5732">ask to select type of business (renting or buying),</text><text fill="#000000" font-family="sans-serif" font-size="13" lengthAdjust="spacing" textLength="264" x="112.5" y="186.0967">the type of property and the number of rooms.</text><path d="M10,205.8516 L71,205.8516 L71,212.375 L61,222.375 L10,222.375 L10,205.8516 " fill="#EEEEEE" style="stroke:#000000;stroke-width:1.5;"/><rect fill="none" height="317.0938" style="stroke:#000000;stroke-width:1.5;" width="446.5" x="10" y="205.8516"/><text fill="#000000" font-family="sans-serif" font-size="13" font-weight="bold" lengthAdjust="spacing" textLength="16" x="25" y="218.6201">alt</text><text fill="#000000" font-family="sans-serif" font-size="11" font-weight="bold" lengthAdjust="spacing" textLength="243" x="86" y="217.8096">[selects one or more of the requested data]</text><polygon fill="#181818" points="397.5,238.8984,407.5,242.8984,397.5,246.8984,401.5,242.8984" style="stroke:#181818;stroke-width:1.0;"/><line style="stroke:#181818;stroke-width:1.0;" x1="84.5" x2="403.5" y1="242.8984" y2="242.8984"/><text fill="#000000" font-family="sans-serif" font-size="13" font-weight="bold" lengthAdjust="spacing" textLength="7" x="91.5" y="238.1436">3</text><text fill="#000000" font-family="sans-serif" font-size="13" lengthAdjust="spacing" textLength="136" x="102.5" y="238.1436">selects requested data.</text><polygon fill="#181818" points="95.5,281.9453,85.5,285.9453,95.5,289.9453,91.5,285.9453" style="stroke:#181818;stroke-width:1.0;"/><line style="stroke:#181818;stroke-width:1.0;stroke-dasharray:2.0,2.0;" x1="89.5" x2="413.5" y1="285.9453" y2="285.9453"/><text fill="#000000" font-family="sans-serif" font-size="13" font-weight="bold" lengthAdjust="spacing" textLength="7" x="101.5" y="273.9287">4</text><text fill="#000000" font-family="sans-serif" font-size="13" lengthAdjust="spacing" textLength="164" x="112.5" y="266.667">ask if wants to sort by price,</text><text fill="#000000" font-family="sans-serif" font-size="13" lengthAdjust="spacing" textLength="109" x="112.5" y="281.1904">by city or by state.</text><polygon fill="#181818" points="397.5,310.4688,407.5,314.4688,397.5,318.4688,401.5,314.4688" style="stroke:#181818;stroke-width:1.0;"/><line style="stroke:#181818;stroke-width:1.0;" x1="84.5" x2="403.5" y1="314.4688" y2="314.4688"/><text fill="#000000" font-family="sans-serif" font-size="13" font-weight="bold" lengthAdjust="spacing" textLength="7" x="91.5" y="309.7139">5</text><text fill="#000000" font-family="sans-serif" font-size="13" lengthAdjust="spacing" textLength="71" x="102.5" y="309.7139">selects one.</text><polygon fill="#181818" points="95.5,353.5156,85.5,357.5156,95.5,361.5156,91.5,357.5156" style="stroke:#181818;stroke-width:1.0;"/><line style="stroke:#181818;stroke-width:1.0;stroke-dasharray:2.0,2.0;" x1="89.5" x2="413.5" y1="357.5156" y2="357.5156"/><text fill="#000000" font-family="sans-serif" font-size="13" font-weight="bold" lengthAdjust="spacing" textLength="7" x="101.5" y="345.499">6</text><text fill="#000000" font-family="sans-serif" font-size="13" lengthAdjust="spacing" textLength="120" x="112.5" y="338.2373">shows the properties</text><text fill="#000000" font-family="sans-serif" font-size="13" lengthAdjust="spacing" textLength="207" x="112.5" y="352.7607">corresponding to the choices made.</text><line style="stroke:#000000;stroke-width:1.0;stroke-dasharray:2.0,2.0;" x1="10" x2="456.5" y1="366.5156" y2="366.5156"/><text fill="#000000" font-family="sans-serif" font-size="11" font-weight="bold" lengthAdjust="spacing" textLength="94" x="15" y="376.4736">[selects nothing]</text><polygon fill="#181818" points="397.5,396.3281,407.5,400.3281,397.5,404.3281,401.5,400.3281" style="stroke:#181818;stroke-width:1.0;"/><line style="stroke:#181818;stroke-width:1.0;" x1="84.5" x2="403.5" y1="400.3281" y2="400.3281"/><text fill="#000000" font-family="sans-serif" font-size="13" font-weight="bold" lengthAdjust="spacing" textLength="7" x="91.5" y="395.5732">7</text><text fill="#000000" font-family="sans-serif" font-size="13" lengthAdjust="spacing" textLength="92" x="102.5" y="395.5732">selects nothing.</text><polygon fill="#181818" points="95.5,439.375,85.5,443.375,95.5,447.375,91.5,443.375" style="stroke:#181818;stroke-width:1.0;"/><line style="stroke:#181818;stroke-width:1.0;stroke-dasharray:2.0,2.0;" x1="89.5" x2="413.5" y1="443.375" y2="443.375"/><text fill="#000000" font-family="sans-serif" font-size="13" font-weight="bold" lengthAdjust="spacing" textLength="7" x="101.5" y="431.3584">8</text><text fill="#000000" font-family="sans-serif" font-size="13" lengthAdjust="spacing" textLength="164" x="112.5" y="424.0967">ask if wants to sort by price,</text><text fill="#000000" font-family="sans-serif" font-size="13" lengthAdjust="spacing" textLength="109" x="112.5" y="438.6201">by city or by state.</text><polygon fill="#181818" points="397.5,467.8984,407.5,471.8984,397.5,475.8984,401.5,471.8984" style="stroke:#181818;stroke-width:1.0;"/><line style="stroke:#181818;stroke-width:1.0;" x1="84.5" x2="403.5" y1="471.8984" y2="471.8984"/><text fill="#000000" font-family="sans-serif" font-size="13" font-weight="bold" lengthAdjust="spacing" textLength="7" x="91.5" y="467.1436">9</text><text fill="#000000" font-family="sans-serif" font-size="13" lengthAdjust="spacing" textLength="71" x="102.5" y="467.1436">selects one.</text><polygon fill="#181818" points="95.5,510.9453,85.5,514.9453,95.5,518.9453,91.5,514.9453" style="stroke:#181818;stroke-width:1.0;"/><line style="stroke:#181818;stroke-width:1.0;stroke-dasharray:2.0,2.0;" x1="89.5" x2="413.5" y1="514.9453" y2="514.9453"/><text fill="#000000" font-family="sans-serif" font-size="13" font-weight="bold" lengthAdjust="spacing" textLength="14" x="101.5" y="502.9287">10</text><text fill="#000000" font-family="sans-serif" font-size="13" lengthAdjust="spacing" textLength="177" x="119.5" y="495.667">shows the all sorted properties</text><text fill="#000000" font-family="sans-serif" font-size="13" lengthAdjust="spacing" textLength="170" x="119.5" y="510.1904">that are on sale or on renting.</text><!--SRC=[jLFDRjim3BxhAOYSMc0fi6iF1GPqJn3ijWiZCxOGMVH4ke7VlfHYEokmUKM0wKJ3vFT7ISuX3PYnXvuJ-ovpJw1v92Vhdm7z6Liww1G9Cdd5rCRV6wJ3XYyXjN32AEIS1hNMmoHAFHperqZ94xm6R4lxm-7m-WXx-1QLSa8DRmHVdSDHEOtzaRBLNZd3xaVAr0P3oTJ0A9HtW0BV-o7oHEICNOCF0oQ5tVELhdPSomeJtb3fDkB0pl85-vT5vBEDdGMKeGaoH9n0Eu9Ok1iOCWzaL2HFTNw5NNXWFZFOtd1NZefSW8MYPGSw3GHyWkCe8P48F6HAMi8pnyTnikhn2_nCXN_fdGLCWAcfmguvbL-PkPzbDVH7OHXrvXRWH8Mcvrnn2rGkwwas6rJS26Z1-3XmToBX11TRNCrSE2iS9_CPF1NpLljWVaia4uWQzAR7JS5c-YwLql55QaQt2s3QFETCCd1goj9CVUdm7PjqWHwRRQLsoDx8AYwnTeRp2HjpvzEg-gzs_aVmsvO-kO0xLTyMWJ5MpHyUPNqig83bKYSGZFMIMpc_h7yweDGuvzu1]--></g></svg>