<?xml version="1.0" encoding="us-ascii" standalone="no"?><svg xmlns="http://www.w3.org/2000/svg" xmlns:xlink="http://www.w3.org/1999/xlink" contentStyleType="text/css" height="445px" preserveAspectRatio="none" style="width:391px;height:445px;background:#FFFFFF;" version="1.1" viewBox="0 0 391 445" width="391px" zoomAndPan="magnify"><defs/><g><text fill="#000000" font-family="sans-serif" font-size="14" font-weight="bold" lengthAdjust="spacing" textLength="363" x="10" y="27.6738">System Sequence Diagram (SSD) - Alternative Three</text><rect fill="#FFFFFF" height="220.1875" style="stroke:#181818;stroke-width:1.0;" width="10" x="91.75" y="127.2813"/><rect fill="#FFFFFF" height="28.5234" style="stroke:#181818;stroke-width:1.0;" width="10" x="297.75" y="147.8047"/><rect fill="#FFFFFF" height="28.5234" style="stroke:#181818;stroke-width:1.0;" width="10" x="297.75" y="204.8516"/><rect fill="#FFFFFF" height="28.5234" style="stroke:#181818;stroke-width:1.0;" width="10" x="297.75" y="261.8984"/><rect fill="#FFFFFF" height="28.5234" style="stroke:#181818;stroke-width:1.0;" width="10" x="297.75" y="318.9453"/><line style="stroke:#181818;stroke-width:0.5;stroke-dasharray:5.0,5.0;" x1="96.25" x2="96.25" y1="117.2813" y2="365.4688"/><line style="stroke:#181818;stroke-width:0.5;stroke-dasharray:5.0,5.0;" x1="302.75" x2="302.75" y1="117.2813" y2="365.4688"/><text fill="#000000" font-family="sans-serif" font-size="14" lengthAdjust="spacing" textLength="89" x="49.25" y="114.3145">System Admin</text><ellipse cx="96.75" cy="50.1406" fill="#E3E3E3" rx="8" ry="8" style="stroke:#181818;stroke-width:0.5;"/><path d="M96.75,58.1406 L96.75,85.1406 M83.75,66.1406 L109.75,66.1406 M96.75,85.1406 L83.75,100.1406 M96.75,85.1406 L109.75,100.1406 " fill="none" style="stroke:#181818;stroke-width:0.5;"/><text fill="#000000" font-family="sans-serif" font-size="14" lengthAdjust="spacing" textLength="89" x="49.25" y="377.1426">System Admin</text><ellipse cx="96.75" cy="388.6094" fill="#E3E3E3" rx="8" ry="8" style="stroke:#181818;stroke-width:0.5;"/><path d="M96.75,396.6094 L96.75,423.6094 M83.75,404.6094 L109.75,404.6094 M96.75,423.6094 L83.75,438.6094 M96.75,423.6094 L109.75,438.6094 " fill="none" style="stroke:#181818;stroke-width:0.5;"/><rect fill="#E3E3E3" height="29.6406" rx="2.5" ry="2.5" style="stroke:#181818;stroke-width:0.5;" width="64" x="270.75" y="86.6406"/><text fill="#000000" font-family="sans-serif" font-size="14" lengthAdjust="spacing" textLength="50" x="277.75" y="106.3145">:System</text><rect fill="#E3E3E3" height="29.6406" rx="2.5" ry="2.5" style="stroke:#181818;stroke-width:0.5;" width="64" x="270.75" y="364.4688"/><text fill="#000000" font-family="sans-serif" font-size="14" lengthAdjust="spacing" textLength="50" x="277.75" y="384.1426">:System</text><rect fill="#FFFFFF" height="220.1875" style="stroke:#181818;stroke-width:1.0;" width="10" x="91.75" y="127.2813"/><rect fill="#FFFFFF" height="28.5234" style="stroke:#181818;stroke-width:1.0;" width="10" x="297.75" y="147.8047"/><rect fill="#FFFFFF" height="28.5234" style="stroke:#181818;stroke-width:1.0;" width="10" x="297.75" y="204.8516"/><rect fill="#FFFFFF" height="28.5234" style="stroke:#181818;stroke-width:1.0;" width="10" x="297.75" y="261.8984"/><rect fill="#FFFFFF" height="28.5234" style="stroke:#181818;stroke-width:1.0;" width="10" x="297.75" y="318.9453"/><polygon fill="#181818" points="285.75,143.8047,295.75,147.8047,285.75,151.8047,289.75,147.8047" style="stroke:#181818;stroke-width:1.0;"/><line style="stroke:#181818;stroke-width:1.0;" x1="101.75" x2="291.75" y1="147.8047" y2="147.8047"/><text fill="#000000" font-family="sans-serif" font-size="13" font-weight="bold" lengthAdjust="spacing" textLength="7" x="108.75" y="143.0498">1</text><text fill="#000000" font-family="sans-serif" font-size="13" lengthAdjust="spacing" textLength="166" x="119.75" y="143.0498">requests to define a new city</text><polygon fill="#181818" points="112.75,172.3281,102.75,176.3281,112.75,180.3281,108.75,176.3281" style="stroke:#181818;stroke-width:1.0;"/><line style="stroke:#181818;stroke-width:1.0;stroke-dasharray:2.0,2.0;" x1="106.75" x2="301.75" y1="176.3281" y2="176.3281"/><text fill="#000000" font-family="sans-serif" font-size="13" font-weight="bold" lengthAdjust="spacing" textLength="7" x="118.75" y="171.5732">2</text><text fill="#000000" font-family="sans-serif" font-size="13" lengthAdjust="spacing" textLength="123" x="129.75" y="171.5732">shows a list of states</text><polygon fill="#181818" points="285.75,200.8516,295.75,204.8516,285.75,208.8516,289.75,204.8516" style="stroke:#181818;stroke-width:1.0;"/><line style="stroke:#181818;stroke-width:1.0;" x1="101.75" x2="291.75" y1="204.8516" y2="204.8516"/><text fill="#000000" font-family="sans-serif" font-size="13" font-weight="bold" lengthAdjust="spacing" textLength="7" x="108.75" y="200.0967">3</text><text fill="#000000" font-family="sans-serif" font-size="13" lengthAdjust="spacing" textLength="115" x="119.75" y="200.0967">selects data(states)</text><polygon fill="#181818" points="112.75,229.375,102.75,233.375,112.75,237.375,108.75,233.375" style="stroke:#181818;stroke-width:1.0;"/><line style="stroke:#181818;stroke-width:1.0;stroke-dasharray:2.0,2.0;" x1="106.75" x2="301.75" y1="233.375" y2="233.375"/><text fill="#000000" font-family="sans-serif" font-size="13" font-weight="bold" lengthAdjust="spacing" textLength="7" x="118.75" y="228.6201">4</text><text fill="#000000" font-family="sans-serif" font-size="13" lengthAdjust="spacing" textLength="133" x="129.75" y="228.6201">shows a list of districts</text><polygon fill="#181818" points="285.75,257.8984,295.75,261.8984,285.75,265.8984,289.75,261.8984" style="stroke:#181818;stroke-width:1.0;"/><line style="stroke:#181818;stroke-width:1.0;" x1="101.75" x2="291.75" y1="261.8984" y2="261.8984"/><text fill="#000000" font-family="sans-serif" font-size="13" font-weight="bold" lengthAdjust="spacing" textLength="7" x="108.75" y="257.1436">5</text><text fill="#000000" font-family="sans-serif" font-size="13" lengthAdjust="spacing" textLength="125" x="119.75" y="257.1436">selects data(districts)</text><polygon fill="#181818" points="112.75,286.4219,102.75,290.4219,112.75,294.4219,108.75,290.4219" style="stroke:#181818;stroke-width:1.0;"/><line style="stroke:#181818;stroke-width:1.0;stroke-dasharray:2.0,2.0;" x1="106.75" x2="301.75" y1="290.4219" y2="290.4219"/><text fill="#000000" font-family="sans-serif" font-size="13" font-weight="bold" lengthAdjust="spacing" textLength="7" x="118.75" y="285.667">6</text><text fill="#000000" font-family="sans-serif" font-size="13" lengthAdjust="spacing" textLength="79" x="129.75" y="285.667">requests data</text><polygon fill="#181818" points="285.75,314.9453,295.75,318.9453,285.75,322.9453,289.75,318.9453" style="stroke:#181818;stroke-width:1.0;"/><line style="stroke:#181818;stroke-width:1.0;" x1="101.75" x2="291.75" y1="318.9453" y2="318.9453"/><text fill="#000000" font-family="sans-serif" font-size="13" font-weight="bold" lengthAdjust="spacing" textLength="7" x="108.75" y="314.1904">7</text><text fill="#000000" font-family="sans-serif" font-size="13" lengthAdjust="spacing" textLength="126" x="119.75" y="314.1904">types data(city name)</text><polygon fill="#181818" points="107.75,343.4688,97.75,347.4688,107.75,351.4688,103.75,347.4688" style="stroke:#181818;stroke-width:1.0;"/><line style="stroke:#181818;stroke-width:1.0;stroke-dasharray:2.0,2.0;" x1="101.75" x2="301.75" y1="347.4688" y2="347.4688"/><text fill="#000000" font-family="sans-serif" font-size="13" font-weight="bold" lengthAdjust="spacing" textLength="7" x="113.75" y="342.7139">8</text><text fill="#000000" font-family="sans-serif" font-size="13" lengthAdjust="spacing" textLength="140" x="124.75" y="342.7139">(In)Success of operation</text><!--SRC=[fP8zRiCm38LtduB8qcHmitie421BP_S2hCJOGlGNaKxWsvUndI10so685ZzOV1-VABtr8fcRxJPxZ384_svIs3AT1eg6QkkmAnWgFhgOKHM459FfIme4KWPwsCbeZjXHAwCdA6G4O-SV2xX7coukTd10prHLuaHBsv650hHBJzZFFM7TjliDrB3pGYMYk3F1Lrz8ZJX8YaFufgBQI2gmMYWx6rnS0VAiAkqiphYiXuDLCnTDsxESxEwCGajz1Rec2VN7BLgZnz5mB0oImDB1HGA4I1SmJiR9S-VSmB2iXL4hRkOsEeXqOGLunmBf02ngvCbXwK_GxqHCNaVCO55mFGCsBmUn-YrEiIzakJEUZtEVyXNqN0GPCoq1hbS24GCz7s3z6JVjO0mnNyUHCXLzTod-a-NXpqJu0G00]--></g></svg>