<?xml version="1.0" encoding="us-ascii" standalone="no"?><svg xmlns="http://www.w3.org/2000/svg" xmlns:xlink="http://www.w3.org/1999/xlink" contentStyleType="text/css" height="445px" preserveAspectRatio="none" style="width:378px;height:445px;background:#FFFFFF;" version="1.1" viewBox="0 0 378 445" width="378px" zoomAndPan="magnify"><defs/><g><text fill="#000000" font-family="sans-serif" font-size="14" font-weight="bold" lengthAdjust="spacing" textLength="350" x="10" y="27.6738">System Sequence Diagram (SSD) - Alternative Two</text><rect fill="#FFFFFF" height="220.1875" style="stroke:#181818;stroke-width:1.0;" width="10" x="65.25" y="127.2813"/><rect fill="#FFFFFF" height="28.5234" style="stroke:#181818;stroke-width:1.0;" width="10" x="311.25" y="147.8047"/><rect fill="#FFFFFF" height="28.5234" style="stroke:#181818;stroke-width:1.0;" width="10" x="311.25" y="204.8516"/><rect fill="#FFFFFF" height="28.5234" style="stroke:#181818;stroke-width:1.0;" width="10" x="311.25" y="261.8984"/><rect fill="#FFFFFF" height="28.5234" style="stroke:#181818;stroke-width:1.0;" width="10" x="311.25" y="318.9453"/><line style="stroke:#181818;stroke-width:0.5;stroke-dasharray:5.0,5.0;" x1="69.75" x2="69.75" y1="117.2813" y2="365.4688"/><line style="stroke:#181818;stroke-width:0.5;stroke-dasharray:5.0,5.0;" x1="316.25" x2="316.25" y1="117.2813" y2="365.4688"/><text fill="#000000" font-family="sans-serif" font-size="14" lengthAdjust="spacing" textLength="89" x="22.75" y="114.3145">System Admin</text><ellipse cx="70.25" cy="50.1406" fill="#E3E3E3" rx="8" ry="8" style="stroke:#181818;stroke-width:0.5;"/><path d="M70.25,58.1406 L70.25,85.1406 M57.25,66.1406 L83.25,66.1406 M70.25,85.1406 L57.25,100.1406 M70.25,85.1406 L83.25,100.1406 " fill="none" style="stroke:#181818;stroke-width:0.5;"/><text fill="#000000" font-family="sans-serif" font-size="14" lengthAdjust="spacing" textLength="89" x="22.75" y="377.1426">System Admin</text><ellipse cx="70.25" cy="388.6094" fill="#E3E3E3" rx="8" ry="8" style="stroke:#181818;stroke-width:0.5;"/><path d="M70.25,396.6094 L70.25,423.6094 M57.25,404.6094 L83.25,404.6094 M70.25,423.6094 L57.25,438.6094 M70.25,423.6094 L83.25,438.6094 " fill="none" style="stroke:#181818;stroke-width:0.5;"/><rect fill="#E3E3E3" height="29.6406" rx="2.5" ry="2.5" style="stroke:#181818;stroke-width:0.5;" width="64" x="284.25" y="86.6406"/><text fill="#000000" font-family="sans-serif" font-size="14" lengthAdjust="spacing" textLength="50" x="291.25" y="106.3145">:System</text><rect fill="#E3E3E3" height="29.6406" rx="2.5" ry="2.5" style="stroke:#181818;stroke-width:0.5;" width="64" x="284.25" y="364.4688"/><text fill="#000000" font-family="sans-serif" font-size="14" lengthAdjust="spacing" textLength="50" x="291.25" y="384.1426">:System</text><rect fill="#FFFFFF" height="220.1875" style="stroke:#181818;stroke-width:1.0;" width="10" x="65.25" y="127.2813"/><rect fill="#FFFFFF" height="28.5234" style="stroke:#181818;stroke-width:1.0;" width="10" x="311.25" y="147.8047"/><rect fill="#FFFFFF" height="28.5234" style="stroke:#181818;stroke-width:1.0;" width="10" x="311.25" y="204.8516"/><rect fill="#FFFFFF" height="28.5234" style="stroke:#181818;stroke-width:1.0;" width="10" x="311.25" y="261.8984"/><rect fill="#FFFFFF" height="28.5234" style="stroke:#181818;stroke-width:1.0;" width="10" x="311.25" y="318.9453"/><polygon fill="#181818" points="299.25,143.8047,309.25,147.8047,299.25,151.8047,303.25,147.8047" style="stroke:#181818;stroke-width:1.0;"/><line style="stroke:#181818;stroke-width:1.0;" x1="75.25" x2="305.25" y1="147.8047" y2="147.8047"/><text fill="#000000" font-family="sans-serif" font-size="13" font-weight="bold" lengthAdjust="spacing" textLength="7" x="82.25" y="143.0498">1</text><text fill="#000000" font-family="sans-serif" font-size="13" lengthAdjust="spacing" textLength="184" x="93.25" y="143.0498">requests to define a new district</text><polygon fill="#181818" points="86.25,172.3281,76.25,176.3281,86.25,180.3281,82.25,176.3281" style="stroke:#181818;stroke-width:1.0;"/><line style="stroke:#181818;stroke-width:1.0;stroke-dasharray:2.0,2.0;" x1="80.25" x2="315.25" y1="176.3281" y2="176.3281"/><text fill="#000000" font-family="sans-serif" font-size="13" font-weight="bold" lengthAdjust="spacing" textLength="7" x="92.25" y="171.5732">2</text><text fill="#000000" font-family="sans-serif" font-size="13" lengthAdjust="spacing" textLength="125" x="103.25" y="171.5732">shows a list of States</text><polygon fill="#181818" points="299.25,200.8516,309.25,204.8516,299.25,208.8516,303.25,204.8516" style="stroke:#181818;stroke-width:1.0;"/><line style="stroke:#181818;stroke-width:1.0;" x1="75.25" x2="305.25" y1="204.8516" y2="204.8516"/><text fill="#000000" font-family="sans-serif" font-size="13" font-weight="bold" lengthAdjust="spacing" textLength="7" x="82.25" y="200.0967">3</text><text fill="#000000" font-family="sans-serif" font-size="13" lengthAdjust="spacing" textLength="115" x="93.25" y="200.0967">selects data(states)</text><polygon fill="#181818" points="86.25,229.375,76.25,233.375,86.25,237.375,82.25,233.375" style="stroke:#181818;stroke-width:1.0;"/><line style="stroke:#181818;stroke-width:1.0;stroke-dasharray:2.0,2.0;" x1="80.25" x2="315.25" y1="233.375" y2="233.375"/><text fill="#000000" font-family="sans-serif" font-size="13" font-weight="bold" lengthAdjust="spacing" textLength="7" x="92.25" y="228.6201">4</text><text fill="#000000" font-family="sans-serif" font-size="13" lengthAdjust="spacing" textLength="79" x="103.25" y="228.6201">requests data</text><polygon fill="#181818" points="299.25,257.8984,309.25,261.8984,299.25,265.8984,303.25,261.8984" style="stroke:#181818;stroke-width:1.0;"/><line style="stroke:#181818;stroke-width:1.0;" x1="75.25" x2="305.25" y1="261.8984" y2="261.8984"/><text fill="#000000" font-family="sans-serif" font-size="13" font-weight="bold" lengthAdjust="spacing" textLength="7" x="82.25" y="257.1436">5</text><text fill="#000000" font-family="sans-serif" font-size="13" lengthAdjust="spacing" textLength="144" x="93.25" y="257.1436">types data(district name)</text><polygon fill="#181818" points="86.25,286.4219,76.25,290.4219,86.25,294.4219,82.25,290.4219" style="stroke:#181818;stroke-width:1.0;"/><line style="stroke:#181818;stroke-width:1.0;stroke-dasharray:2.0,2.0;" x1="80.25" x2="315.25" y1="290.4219" y2="290.4219"/><text fill="#000000" font-family="sans-serif" font-size="13" font-weight="bold" lengthAdjust="spacing" textLength="7" x="92.25" y="285.667">6</text><text fill="#000000" font-family="sans-serif" font-size="13" lengthAdjust="spacing" textLength="79" x="103.25" y="285.667">requests data</text><polygon fill="#181818" points="299.25,314.9453,309.25,318.9453,299.25,322.9453,303.25,318.9453" style="stroke:#181818;stroke-width:1.0;"/><line style="stroke:#181818;stroke-width:1.0;" x1="75.25" x2="305.25" y1="318.9453" y2="318.9453"/><text fill="#000000" font-family="sans-serif" font-size="13" font-weight="bold" lengthAdjust="spacing" textLength="7" x="82.25" y="314.1904">7</text><text fill="#000000" font-family="sans-serif" font-size="13" lengthAdjust="spacing" textLength="206" x="93.25" y="314.1904">types data(one or more city names)</text><polygon fill="#181818" points="81.25,343.4688,71.25,347.4688,81.25,351.4688,77.25,347.4688" style="stroke:#181818;stroke-width:1.0;"/><line style="stroke:#181818;stroke-width:1.0;stroke-dasharray:2.0,2.0;" x1="75.25" x2="315.25" y1="347.4688" y2="347.4688"/><text fill="#000000" font-family="sans-serif" font-size="13" font-weight="bold" lengthAdjust="spacing" textLength="7" x="87.25" y="342.7139">8</text><text fill="#000000" font-family="sans-serif" font-size="13" lengthAdjust="spacing" textLength="143" x="98.25" y="342.7139">(In)Success of Operation</text><!--SRC=[nP8zRiCm38LtdOB8qcHmitie421Bfmxk1LY9SOJennNf6Bvz6Ti90hGTqgMQ28dytYF5fwD8n_LssmLCqiVmR7FSCdtsb2nLpcDRC1e- -TIXHX1polPOSYIGqjFTIuVsX2qrCWQ2GbOmjU4-WO_eyk1J2mSCJCQ85qrjHXQAq2oQi9yrOTqq-mrKi0j29Q7uCy7xa8t1NdBgumSLZQta0gk5iNFHfnKWpv5HNV7MTzeQhEevQNgUmwdSdr5eoJUWPmgXUhaQgxKPjSR281aS7NmYG4WqWFCinLkPwcwiAnoMit0gHSxiMaUH1rP8K03a0pIYXJnLEFeHzDqLKz0XCpWKNFC4s3nivDRQXVAOlemTBUhNEK32IFzb8kktw2x4N0Yibt4oyuUHh5_Jfkcj9URBrxnrL7JvSlh5sDtDl4HV]--></g></svg>