<?xml version="1.0" encoding="us-ascii" standalone="no"?><svg xmlns="http://www.w3.org/2000/svg" xmlns:xlink="http://www.w3.org/1999/xlink" contentStyleType="text/css" height="476px" preserveAspectRatio="none" style="width:381px;height:476px;background:#FFFFFF;" version="1.1" viewBox="0 0 381 476" width="381px" zoomAndPan="magnify"><defs/><g><text fill="#000000" font-family="sans-serif" font-size="14" font-weight="bold" lengthAdjust="spacing" textLength="351" x="12.25" y="27.6738">System Sequence Diagram (SSD) - Alternative One</text><rect fill="#FFFFFF" height="250.7109" style="stroke:#181818;stroke-width:1.0;" width="10" x="62.5" y="127.2813"/><rect fill="#FFFFFF" height="28.5234" style="stroke:#181818;stroke-width:1.0;" width="10" x="319.5" y="147.8047"/><rect fill="#FFFFFF" height="28.5234" style="stroke:#181818;stroke-width:1.0;" width="10" x="319.5" y="204.8516"/><rect fill="#FFFFFF" height="52.0469" style="stroke:#181818;stroke-width:1.0;" width="10" x="319.5" y="261.8984"/><rect fill="#FFFFFF" height="35.5234" style="stroke:#181818;stroke-width:1.0;" width="10" x="319.5" y="342.4688"/><rect fill="none" height="73.5703" style="stroke:#000000;stroke-width:1.5;" width="356.5" x="10" y="276.8984"/><line style="stroke:#181818;stroke-width:0.5;stroke-dasharray:5.0,5.0;" x1="67" x2="67" y1="117.2813" y2="395.9922"/><line style="stroke:#181818;stroke-width:0.5;stroke-dasharray:5.0,5.0;" x1="324.5" x2="324.5" y1="117.2813" y2="395.9922"/><text fill="#000000" font-family="sans-serif" font-size="14" lengthAdjust="spacing" textLength="89" x="20" y="114.3145">System Admin</text><ellipse cx="67.5" cy="50.1406" fill="#E3E3E3" rx="8" ry="8" style="stroke:#181818;stroke-width:0.5;"/><path d="M67.5,58.1406 L67.5,85.1406 M54.5,66.1406 L80.5,66.1406 M67.5,85.1406 L54.5,100.1406 M67.5,85.1406 L80.5,100.1406 " fill="none" style="stroke:#181818;stroke-width:0.5;"/><text fill="#000000" font-family="sans-serif" font-size="14" lengthAdjust="spacing" textLength="89" x="20" y="407.666">System Admin</text><ellipse cx="67.5" cy="419.1328" fill="#E3E3E3" rx="8" ry="8" style="stroke:#181818;stroke-width:0.5;"/><path d="M67.5,427.1328 L67.5,454.1328 M54.5,435.1328 L80.5,435.1328 M67.5,454.1328 L54.5,469.1328 M67.5,454.1328 L80.5,469.1328 " fill="none" style="stroke:#181818;stroke-width:0.5;"/><rect fill="#E3E3E3" height="29.6406" rx="2.5" ry="2.5" style="stroke:#181818;stroke-width:0.5;" width="64" x="292.5" y="86.6406"/><text fill="#000000" font-family="sans-serif" font-size="14" lengthAdjust="spacing" textLength="50" x="299.5" y="106.3145">:System</text><rect fill="#E3E3E3" height="29.6406" rx="2.5" ry="2.5" style="stroke:#181818;stroke-width:0.5;" width="64" x="292.5" y="394.9922"/><text fill="#000000" font-family="sans-serif" font-size="14" lengthAdjust="spacing" textLength="50" x="299.5" y="414.666">:System</text><rect fill="#FFFFFF" height="250.7109" style="stroke:#181818;stroke-width:1.0;" width="10" x="62.5" y="127.2813"/><rect fill="#FFFFFF" height="28.5234" style="stroke:#181818;stroke-width:1.0;" width="10" x="319.5" y="147.8047"/><rect fill="#FFFFFF" height="28.5234" style="stroke:#181818;stroke-width:1.0;" width="10" x="319.5" y="204.8516"/><rect fill="#FFFFFF" height="52.0469" style="stroke:#181818;stroke-width:1.0;" width="10" x="319.5" y="261.8984"/><rect fill="#FFFFFF" height="35.5234" style="stroke:#181818;stroke-width:1.0;" width="10" x="319.5" y="342.4688"/><polygon fill="#181818" points="307.5,143.8047,317.5,147.8047,307.5,151.8047,311.5,147.8047" style="stroke:#181818;stroke-width:1.0;"/><line style="stroke:#181818;stroke-width:1.0;" x1="72.5" x2="313.5" y1="147.8047" y2="147.8047"/><text fill="#000000" font-family="sans-serif" font-size="13" font-weight="bold" lengthAdjust="spacing" textLength="7" x="79.5" y="143.0498">1</text><text fill="#000000" font-family="sans-serif" font-size="13" lengthAdjust="spacing" textLength="174" x="90.5" y="143.0498">requests to define a new state</text><polygon fill="#181818" points="83.5,172.3281,73.5,176.3281,83.5,180.3281,79.5,176.3281" style="stroke:#181818;stroke-width:1.0;"/><line style="stroke:#181818;stroke-width:1.0;stroke-dasharray:2.0,2.0;" x1="77.5" x2="323.5" y1="176.3281" y2="176.3281"/><text fill="#000000" font-family="sans-serif" font-size="13" font-weight="bold" lengthAdjust="spacing" textLength="7" x="89.5" y="171.5732">2</text><text fill="#000000" font-family="sans-serif" font-size="13" lengthAdjust="spacing" textLength="79" x="100.5" y="171.5732">requests data</text><polygon fill="#181818" points="307.5,200.8516,317.5,204.8516,307.5,208.8516,311.5,204.8516" style="stroke:#181818;stroke-width:1.0;"/><line style="stroke:#181818;stroke-width:1.0;" x1="72.5" x2="313.5" y1="204.8516" y2="204.8516"/><text fill="#000000" font-family="sans-serif" font-size="13" font-weight="bold" lengthAdjust="spacing" textLength="7" x="79.5" y="200.0967">3</text><text fill="#000000" font-family="sans-serif" font-size="13" lengthAdjust="spacing" textLength="134" x="90.5" y="200.0967">types data(state name)</text><polygon fill="#181818" points="83.5,229.375,73.5,233.375,83.5,237.375,79.5,233.375" style="stroke:#181818;stroke-width:1.0;"/><line style="stroke:#181818;stroke-width:1.0;stroke-dasharray:2.0,2.0;" x1="77.5" x2="323.5" y1="233.375" y2="233.375"/><text fill="#000000" font-family="sans-serif" font-size="13" font-weight="bold" lengthAdjust="spacing" textLength="7" x="89.5" y="228.6201">4</text><text fill="#000000" font-family="sans-serif" font-size="13" lengthAdjust="spacing" textLength="79" x="100.5" y="228.6201">requests data</text><polygon fill="#181818" points="307.5,257.8984,317.5,261.8984,307.5,265.8984,311.5,261.8984" style="stroke:#181818;stroke-width:1.0;"/><line style="stroke:#181818;stroke-width:1.0;" x1="72.5" x2="313.5" y1="261.8984" y2="261.8984"/><text fill="#000000" font-family="sans-serif" font-size="13" font-weight="bold" lengthAdjust="spacing" textLength="7" x="79.5" y="257.1436">5</text><text fill="#000000" font-family="sans-serif" font-size="13" lengthAdjust="spacing" textLength="217" x="90.5" y="257.1436">types data(one or more district name)</text><path d="M10,276.8984 L83,276.8984 L83,283.4219 L73,293.4219 L10,293.4219 L10,276.8984 " fill="#EEEEEE" style="stroke:#000000;stroke-width:1.5;"/><rect fill="none" height="73.5703" style="stroke:#000000;stroke-width:1.5;" width="356.5" x="10" y="276.8984"/><text fill="#000000" font-family="sans-serif" font-size="13" font-weight="bold" lengthAdjust="spacing" textLength="28" x="25" y="289.667">loop</text><text fill="#000000" font-family="sans-serif" font-size="11" font-weight="bold" lengthAdjust="spacing" textLength="95" x="98" y="288.8564">[for each district]</text><polygon fill="#181818" points="83.5,309.9453,73.5,313.9453,83.5,317.9453,79.5,313.9453" style="stroke:#181818;stroke-width:1.0;"/><line style="stroke:#181818;stroke-width:1.0;stroke-dasharray:2.0,2.0;" x1="77.5" x2="323.5" y1="313.9453" y2="313.9453"/><text fill="#000000" font-family="sans-serif" font-size="13" font-weight="bold" lengthAdjust="spacing" textLength="7" x="89.5" y="309.1904">6</text><text fill="#000000" font-family="sans-serif" font-size="13" lengthAdjust="spacing" textLength="79" x="100.5" y="309.1904">requests data</text><polygon fill="#181818" points="307.5,338.4688,317.5,342.4688,307.5,346.4688,311.5,342.4688" style="stroke:#181818;stroke-width:1.0;"/><line style="stroke:#181818;stroke-width:1.0;" x1="72.5" x2="313.5" y1="342.4688" y2="342.4688"/><text fill="#000000" font-family="sans-serif" font-size="13" font-weight="bold" lengthAdjust="spacing" textLength="7" x="79.5" y="337.7139">7</text><text fill="#000000" font-family="sans-serif" font-size="13" lengthAdjust="spacing" textLength="199" x="90.5" y="337.7139">types data(one or more city name)</text><polygon fill="#181818" points="78.5,373.9922,68.5,377.9922,78.5,381.9922,74.5,377.9922" style="stroke:#181818;stroke-width:1.0;"/><line style="stroke:#181818;stroke-width:1.0;stroke-dasharray:2.0,2.0;" x1="72.5" x2="323.5" y1="377.9922" y2="377.9922"/><text fill="#000000" font-family="sans-serif" font-size="13" font-weight="bold" lengthAdjust="spacing" textLength="7" x="84.5" y="373.2373">8</text><text fill="#000000" font-family="sans-serif" font-size="13" lengthAdjust="spacing" textLength="136" x="95.5" y="373.2373">(In)Sucess of Operation</text><!--SRC=[nLAxRiCm3Dpz5KIM9aEQFKE105awPV0Ni19j2x4eLQ8J-EzB-94QRLEaKpaHujtnZj1J8nBpVhUBBR9qldqsmUyolNV4XhRMOPtG5_diEA9su0C7qwJW2IHrj9X4D6UigPI-9KXa1Bbkbu3Se0rNnpLKs6Og2d6YqBBFGXxAQISSnvsmBilZ1hPmQ8KIexWBmOcLXfq4xlmR9UsDX0IhIUDWlUCLO1wxGlUACovgD5ZjHz0m7jk1xYueDE4Bq1fQsBxCnlOQHgrboI01B5ME2H2Ohf15kGFf9ZGhmrIJo5RrHk65d4N10MZfH_vt9z976ddhOJSmUjhyauEWTz3Z-v08hCkId9573BKXHAYKgJkR6_Dp_YVZSzq9CDV3GOoJVX5Yhg_Yypkn_VNIwrVUb9sXd25KS8gKz2C7ldFpnSlu8Jy0]--></g></svg>