<?xml version="1.0" encoding="us-ascii" standalone="no"?><svg xmlns="http://www.w3.org/2000/svg" xmlns:xlink="http://www.w3.org/1999/xlink" contentStyleType="text/css" height="1713px" preserveAspectRatio="none" style="width:1991px;height:1713px;background:#FFFFFF;" version="1.1" viewBox="0 0 1991 1713" width="1991px" zoomAndPan="magnify"><defs/><g><rect fill="#FFFFFF" height="1524.5859" style="stroke:#181818;stroke-width:1.0;" width="10" x="82.5" y="90.6406"/><rect fill="#FFFFFF" height="141.8516" style="stroke:#181818;stroke-width:1.0;" width="10" x="335.5" y="111.1641"/><rect fill="#FFFFFF" height="28.5234" style="stroke:#181818;stroke-width:1.0;" width="10" x="335.5" y="281.5391"/><rect fill="#FFFFFF" height="52.0469" style="stroke:#181818;stroke-width:1.0;" width="10" x="335.5" y="338.5859"/><rect fill="#FFFFFF" height="1205.0703" style="stroke:#181818;stroke-width:1.0;" width="10" x="335.5" y="419.1563"/><rect fill="#FFFFFF" height="74.8047" style="stroke:#181818;stroke-width:1.0;" width="10" x="591.5" y="149.6875"/><rect fill="#FFFFFF" height="1117.5" style="stroke:#181818;stroke-width:1.0;" width="10" x="591.5" y="469.2031"/><rect fill="#FFFFFF" height="28.5234" style="stroke:#181818;stroke-width:1.0;" width="10" x="753" y="195.9688"/><rect fill="#FFFFFF" height="28.5234" style="stroke:#181818;stroke-width:1.0;" width="10" x="860" y="497.7266"/><rect fill="#FFFFFF" height="988.8828" style="stroke:#181818;stroke-width:1.0;" width="10" x="992" y="569.2969"/><rect fill="#FFFFFF" height="686.9453" style="stroke:#181818;stroke-width:1.0;" width="10" x="997" y="835.7109"/><rect fill="#FFFFFF" height="122.5703" style="stroke:#181818;stroke-width:1.0;" width="10" x="1002" y="1358.5625"/><rect fill="#FFFFFF" height="39.5234" style="stroke:#181818;stroke-width:1.0;" width="10" x="1007" y="1400.0859"/><rect fill="#FFFFFF" height="199.3672" style="stroke:#181818;stroke-width:1.0;" width="10" x="1384.5" y="607.8203"/><rect fill="#FFFFFF" height="452.8047" style="stroke:#181818;stroke-width:1.0;" width="10" x="1384.5" y="869.2344"/><rect fill="#FFFFFF" height="39.5234" style="stroke:#181818;stroke-width:1.0;" width="10" x="1389.5" y="905.7578"/><rect fill="#FFFFFF" height="112.5625" style="stroke:#181818;stroke-width:1.0;" width="10" x="1673" y="687.625"/><rect fill="#FFFFFF" height="282.1875" style="stroke:#181818;stroke-width:1.0;" width="10" x="1673" y="1004.3281"/><rect fill="#FFFFFF" height="39.5234" style="stroke:#181818;stroke-width:1.0;" width="10" x="1678" y="1040.8516"/><rect fill="#FFFFFF" height="111.5703" style="stroke:#181818;stroke-width:1.0;" width="10" x="1842" y="1139.4219"/><rect fill="#FFFFFF" height="39.5234" style="stroke:#181818;stroke-width:1.0;" width="10" x="1847" y="1175.9453"/><rect fill="none" height="73.5703" style="stroke:#000000;stroke-width:1.5;" width="418.5" x="10" y="353.5859"/><rect fill="none" height="159.6094" style="stroke:#000000;stroke-width:1.5;" width="534" x="1354" y="640.5781"/><rect fill="none" height="72.8047" style="stroke:#000000;stroke-width:1.5;" width="240.5" x="1637.5" y="720.3828"/><rect fill="none" height="327.2344" style="stroke:#000000;stroke-width:1.5;" width="631" x="1354" y="967.2813"/><rect fill="none" height="156.6172" style="stroke:#000000;stroke-width:1.5;" width="337.5" x="1637.5" y="1102.375"/><line style="stroke:#181818;stroke-width:0.5;stroke-dasharray:5.0,5.0;" x1="87" x2="87" y1="80.6406" y2="1633.2266"/><line style="stroke:#181818;stroke-width:0.5;stroke-dasharray:5.0,5.0;" x1="340.5" x2="340.5" y1="80.6406" y2="1633.2266"/><line style="stroke:#181818;stroke-width:0.5;stroke-dasharray:5.0,5.0;" x1="596.5" x2="596.5" y1="157.3047" y2="1633.2266"/><line style="stroke:#181818;stroke-width:0.5;stroke-dasharray:5.0,5.0;" x1="757.5" x2="757.5" y1="80.6406" y2="1633.2266"/><line style="stroke:#181818;stroke-width:0.5;stroke-dasharray:5.0,5.0;" x1="864.5" x2="864.5" y1="80.6406" y2="1633.2266"/><line style="stroke:#181818;stroke-width:0.5;stroke-dasharray:5.0,5.0;" x1="996.5" x2="996.5" y1="80.6406" y2="1633.2266"/><line style="stroke:#181818;stroke-width:0.5;stroke-dasharray:5.0,5.0;" x1="1389" x2="1389" y1="615.4375" y2="1633.2266"/><line style="stroke:#181818;stroke-width:0.5;stroke-dasharray:5.0,5.0;" x1="1677.5" x2="1677.5" y1="695.2422" y2="1633.2266"/><line style="stroke:#181818;stroke-width:0.5;stroke-dasharray:5.0,5.0;" x1="1847" x2="1847" y1="775.0469" y2="1633.2266"/><text fill="#000000" font-family="sans-serif" font-size="14" lengthAdjust="spacing" textLength="129" x="20" y="77.6738">SystemAdministrator</text><ellipse cx="87.5" cy="13.5" fill="#E3E3E3" rx="8" ry="8" style="stroke:#181818;stroke-width:0.5;"/><path d="M87.5,21.5 L87.5,48.5 M74.5,29.5 L100.5,29.5 M87.5,48.5 L74.5,63.5 M87.5,48.5 L100.5,63.5 " fill="none" style="stroke:#181818;stroke-width:0.5;"/><text fill="#000000" font-family="sans-serif" font-size="14" lengthAdjust="spacing" textLength="129" x="20" y="1644.9004">SystemAdministrator</text><ellipse cx="87.5" cy="1656.3672" fill="#E3E3E3" rx="8" ry="8" style="stroke:#181818;stroke-width:0.5;"/><path d="M87.5,1664.3672 L87.5,1691.3672 M74.5,1672.3672 L100.5,1672.3672 M87.5,1691.3672 L74.5,1706.3672 M87.5,1691.3672 L100.5,1706.3672 " fill="none" style="stroke:#181818;stroke-width:0.5;"/><rect fill="#E3E3E3" height="29.6406" rx="2.5" ry="2.5" style="stroke:#181818;stroke-width:0.5;" width="156" x="262.5" y="50"/><text fill="#000000" font-family="sans-serif" font-size="14" lengthAdjust="spacing" textLength="142" x="269.5" y="69.6738">:SpecifyingLocationsUI</text><rect fill="#E3E3E3" height="29.6406" rx="2.5" ry="2.5" style="stroke:#181818;stroke-width:0.5;" width="156" x="262.5" y="1632.2266"/><text fill="#000000" font-family="sans-serif" font-size="14" lengthAdjust="spacing" textLength="142" x="269.5" y="1651.9004">:SpecifyingLocationsUI</text><rect fill="#E3E3E3" height="45.2813" rx="2.5" ry="2.5" style="stroke:#181818;stroke-width:0.5;" width="206" x="493.5" y="1632.2266"/><text fill="#000000" font-family="sans-serif" font-size="14" lengthAdjust="spacing" textLength="186" x="503.5" y="1651.9004">specifyingLocationsController</text><text fill="#000000" font-family="sans-serif" font-size="14" lengthAdjust="spacing" textLength="192" x="500.5" y="1667.541">:SpecifyingLocationsController</text><rect fill="#E3E3E3" height="29.6406" rx="2.5" ry="2.5" style="stroke:#181818;stroke-width:0.5;" width="97" x="709.5" y="50"/><text fill="#000000" font-family="sans-serif" font-size="14" lengthAdjust="spacing" textLength="83" x="716.5" y="69.6738">:Repositories</text><rect fill="#E3E3E3" height="29.6406" rx="2.5" ry="2.5" style="stroke:#181818;stroke-width:0.5;" width="97" x="709.5" y="1632.2266"/><text fill="#000000" font-family="sans-serif" font-size="14" lengthAdjust="spacing" textLength="83" x="716.5" y="1651.9004">:Repositories</text><rect fill="#E3E3E3" height="45.2813" rx="2.5" ry="2.5" style="stroke:#181818;stroke-width:0.5;" width="97" x="816.5" y="34.3594"/><text fill="#000000" font-family="sans-serif" font-size="14" lengthAdjust="spacing" textLength="21" x="854.5" y="54.0332">rep</text><text fill="#000000" font-family="sans-serif" font-size="14" lengthAdjust="spacing" textLength="83" x="823.5" y="69.6738">:Repositories</text><rect fill="#E3E3E3" height="45.2813" rx="2.5" ry="2.5" style="stroke:#181818;stroke-width:0.5;" width="97" x="816.5" y="1632.2266"/><text fill="#000000" font-family="sans-serif" font-size="14" lengthAdjust="spacing" textLength="21" x="854.5" y="1651.9004">rep</text><text fill="#000000" font-family="sans-serif" font-size="14" lengthAdjust="spacing" textLength="83" x="823.5" y="1667.541">:Repositories</text><rect fill="#E3E3E3" height="45.2813" rx="2.5" ry="2.5" style="stroke:#181818;stroke-width:0.5;" width="147" x="923.5" y="34.3594"/><text fill="#000000" font-family="sans-serif" font-size="14" lengthAdjust="spacing" textLength="117" x="938.5" y="54.0332">locatiosREpository</text><text fill="#000000" font-family="sans-serif" font-size="14" lengthAdjust="spacing" textLength="133" x="930.5" y="69.6738">:LocationsRepository</text><rect fill="#E3E3E3" height="45.2813" rx="2.5" ry="2.5" style="stroke:#181818;stroke-width:0.5;" width="147" x="923.5" y="1632.2266"/><text fill="#000000" font-family="sans-serif" font-size="14" lengthAdjust="spacing" textLength="117" x="938.5" y="1651.9004">locatiosREpository</text><text fill="#000000" font-family="sans-serif" font-size="14" lengthAdjust="spacing" textLength="133" x="930.5" y="1667.541">:LocationsRepository</text><rect fill="#E3E3E3" height="45.2813" rx="2.5" ry="2.5" style="stroke:#181818;stroke-width:0.5;" width="51" x="1364" y="1632.2266"/><text fill="#000000" font-family="sans-serif" font-size="14" lengthAdjust="spacing" textLength="31" x="1374" y="1651.9004">state</text><text fill="#000000" font-family="sans-serif" font-size="14" lengthAdjust="spacing" textLength="37" x="1371" y="1667.541">:State</text><rect fill="#E3E3E3" height="45.2813" rx="2.5" ry="2.5" style="stroke:#181818;stroke-width:0.5;" width="61" x="1647.5" y="1632.2266"/><text fill="#000000" font-family="sans-serif" font-size="14" lengthAdjust="spacing" textLength="41" x="1657.5" y="1651.9004">district</text><text fill="#000000" font-family="sans-serif" font-size="14" lengthAdjust="spacing" textLength="47" x="1654.5" y="1667.541">:District</text><rect fill="#E3E3E3" height="45.2813" rx="2.5" ry="2.5" style="stroke:#181818;stroke-width:0.5;" width="42" x="1826" y="1632.2266"/><text fill="#000000" font-family="sans-serif" font-size="14" lengthAdjust="spacing" textLength="21" x="1836.5" y="1651.9004">city</text><text fill="#000000" font-family="sans-serif" font-size="14" lengthAdjust="spacing" textLength="28" x="1833" y="1667.541">:City</text><rect fill="#FFFFFF" height="1524.5859" style="stroke:#181818;stroke-width:1.0;" width="10" x="82.5" y="90.6406"/><rect fill="#FFFFFF" height="141.8516" style="stroke:#181818;stroke-width:1.0;" width="10" x="335.5" y="111.1641"/><rect fill="#FFFFFF" height="28.5234" style="stroke:#181818;stroke-width:1.0;" width="10" x="335.5" y="281.5391"/><rect fill="#FFFFFF" height="52.0469" style="stroke:#181818;stroke-width:1.0;" width="10" x="335.5" y="338.5859"/><rect fill="#FFFFFF" height="1205.0703" style="stroke:#181818;stroke-width:1.0;" width="10" x="335.5" y="419.1563"/><rect fill="#FFFFFF" height="74.8047" style="stroke:#181818;stroke-width:1.0;" width="10" x="591.5" y="149.6875"/><rect fill="#FFFFFF" height="1117.5" style="stroke:#181818;stroke-width:1.0;" width="10" x="591.5" y="469.2031"/><rect fill="#FFFFFF" height="28.5234" style="stroke:#181818;stroke-width:1.0;" width="10" x="753" y="195.9688"/><rect fill="#FFFFFF" height="28.5234" style="stroke:#181818;stroke-width:1.0;" width="10" x="860" y="497.7266"/><rect fill="#FFFFFF" height="988.8828" style="stroke:#181818;stroke-width:1.0;" width="10" x="992" y="569.2969"/><rect fill="#FFFFFF" height="686.9453" style="stroke:#181818;stroke-width:1.0;" width="10" x="997" y="835.7109"/><rect fill="#FFFFFF" height="122.5703" style="stroke:#181818;stroke-width:1.0;" width="10" x="1002" y="1358.5625"/><rect fill="#FFFFFF" height="39.5234" style="stroke:#181818;stroke-width:1.0;" width="10" x="1007" y="1400.0859"/><rect fill="#FFFFFF" height="199.3672" style="stroke:#181818;stroke-width:1.0;" width="10" x="1384.5" y="607.8203"/><rect fill="#FFFFFF" height="452.8047" style="stroke:#181818;stroke-width:1.0;" width="10" x="1384.5" y="869.2344"/><rect fill="#FFFFFF" height="39.5234" style="stroke:#181818;stroke-width:1.0;" width="10" x="1389.5" y="905.7578"/><rect fill="#FFFFFF" height="112.5625" style="stroke:#181818;stroke-width:1.0;" width="10" x="1673" y="687.625"/><rect fill="#FFFFFF" height="282.1875" style="stroke:#181818;stroke-width:1.0;" width="10" x="1673" y="1004.3281"/><rect fill="#FFFFFF" height="39.5234" style="stroke:#181818;stroke-width:1.0;" width="10" x="1678" y="1040.8516"/><rect fill="#FFFFFF" height="111.5703" style="stroke:#181818;stroke-width:1.0;" width="10" x="1842" y="1139.4219"/><rect fill="#FFFFFF" height="39.5234" style="stroke:#181818;stroke-width:1.0;" width="10" x="1847" y="1175.9453"/><polygon fill="#181818" points="323.5,107.1641,333.5,111.1641,323.5,115.1641,327.5,111.1641" style="stroke:#181818;stroke-width:1.0;"/><line style="stroke:#181818;stroke-width:1.0;" x1="92.5" x2="329.5" y1="111.1641" y2="111.1641"/><text fill="#000000" font-family="sans-serif" font-size="13" font-weight="bold" lengthAdjust="spacing" textLength="7" x="99.5" y="106.4092">1</text><text fill="#000000" font-family="sans-serif" font-size="13" lengthAdjust="spacing" textLength="176" x="110.5" y="106.4092">requests to define a new State</text><polygon fill="#181818" points="481.5,135.6875,491.5,139.6875,481.5,143.6875,485.5,139.6875" style="stroke:#181818;stroke-width:1.0;"/><line style="stroke:#181818;stroke-width:1.0;" x1="345.5" x2="487.5" y1="139.6875" y2="139.6875"/><text fill="#000000" font-family="sans-serif" font-size="13" font-weight="bold" lengthAdjust="spacing" textLength="7" x="352.5" y="134.9326">2</text><text fill="#000000" font-family="sans-serif" font-size="13" lengthAdjust="spacing" textLength="44" x="363.5" y="134.9326">create()</text><rect fill="#E3E3E3" height="45.2813" rx="2.5" ry="2.5" style="stroke:#181818;stroke-width:0.5;" width="206" x="493.5" y="119.1641"/><text fill="#000000" font-family="sans-serif" font-size="14" lengthAdjust="spacing" textLength="186" x="503.5" y="138.8379">specifyingLocationsController</text><text fill="#000000" font-family="sans-serif" font-size="14" lengthAdjust="spacing" textLength="192" x="500.5" y="154.4785">:SpecifyingLocationsController</text><polygon fill="#181818" points="741,191.9688,751,195.9688,741,199.9688,745,195.9688" style="stroke:#181818;stroke-width:1.0;"/><line style="stroke:#181818;stroke-width:1.0;" x1="601.5" x2="747" y1="195.9688" y2="195.9688"/><text fill="#000000" font-family="sans-serif" font-size="13" font-weight="bold" lengthAdjust="spacing" textLength="7" x="608.5" y="191.2139">3</text><text fill="#000000" font-family="sans-serif" font-size="13" lengthAdjust="spacing" textLength="75" x="619.5" y="191.2139">getInstance()</text><polygon fill="#181818" points="607.5,220.4922,597.5,224.4922,607.5,228.4922,603.5,224.4922" style="stroke:#181818;stroke-width:1.0;"/><line style="stroke:#181818;stroke-width:1.0;stroke-dasharray:2.0,2.0;" x1="601.5" x2="757" y1="224.4922" y2="224.4922"/><text fill="#000000" font-family="sans-serif" font-size="13" font-weight="bold" lengthAdjust="spacing" textLength="7" x="613.5" y="219.7373">4</text><text fill="#000000" font-family="sans-serif" font-size="13" lengthAdjust="spacing" textLength="67" x="624.5" y="219.7373">repositories</text><polygon fill="#181818" points="103.5,249.0156,93.5,253.0156,103.5,257.0156,99.5,253.0156" style="stroke:#181818;stroke-width:1.0;"/><line style="stroke:#181818;stroke-width:1.0;stroke-dasharray:2.0,2.0;" x1="97.5" x2="339.5" y1="253.0156" y2="253.0156"/><text fill="#000000" font-family="sans-serif" font-size="13" font-weight="bold" lengthAdjust="spacing" textLength="7" x="109.5" y="248.2607">5</text><text fill="#000000" font-family="sans-serif" font-size="13" lengthAdjust="spacing" textLength="79" x="120.5" y="248.2607">requests data</text><polygon fill="#181818" points="323.5,277.5391,333.5,281.5391,323.5,285.5391,327.5,281.5391" style="stroke:#181818;stroke-width:1.0;"/><line style="stroke:#181818;stroke-width:1.0;" x1="92.5" x2="329.5" y1="281.5391" y2="281.5391"/><text fill="#000000" font-family="sans-serif" font-size="13" font-weight="bold" lengthAdjust="spacing" textLength="7" x="99.5" y="276.7842">6</text><text fill="#000000" font-family="sans-serif" font-size="13" lengthAdjust="spacing" textLength="132" x="110.5" y="276.7842">types data(stateName)</text><polygon fill="#181818" points="103.5,306.0625,93.5,310.0625,103.5,314.0625,99.5,310.0625" style="stroke:#181818;stroke-width:1.0;"/><line style="stroke:#181818;stroke-width:1.0;stroke-dasharray:2.0,2.0;" x1="97.5" x2="339.5" y1="310.0625" y2="310.0625"/><text fill="#000000" font-family="sans-serif" font-size="13" font-weight="bold" lengthAdjust="spacing" textLength="7" x="109.5" y="305.3076">7</text><text fill="#000000" font-family="sans-serif" font-size="13" lengthAdjust="spacing" textLength="79" x="120.5" y="305.3076">requests data</text><polygon fill="#181818" points="323.5,334.5859,333.5,338.5859,323.5,342.5859,327.5,338.5859" style="stroke:#181818;stroke-width:1.0;"/><line style="stroke:#181818;stroke-width:1.0;" x1="92.5" x2="329.5" y1="338.5859" y2="338.5859"/><text fill="#000000" font-family="sans-serif" font-size="13" font-weight="bold" lengthAdjust="spacing" textLength="7" x="99.5" y="333.8311">8</text><text fill="#000000" font-family="sans-serif" font-size="13" lengthAdjust="spacing" textLength="209" x="110.5" y="333.8311">types data(one more district names)</text><path d="M10,353.5859 L83,353.5859 L83,360.1094 L73,370.1094 L10,370.1094 L10,353.5859 " fill="#EEEEEE" style="stroke:#000000;stroke-width:1.5;"/><rect fill="none" height="73.5703" style="stroke:#000000;stroke-width:1.5;" width="418.5" x="10" y="353.5859"/><text fill="#000000" font-family="sans-serif" font-size="13" font-weight="bold" lengthAdjust="spacing" textLength="28" x="25" y="366.3545">loop</text><text fill="#000000" font-family="sans-serif" font-size="11" font-weight="bold" lengthAdjust="spacing" textLength="126" x="98" y="365.5439">[for each districtName]</text><polygon fill="#181818" points="103.5,386.6328,93.5,390.6328,103.5,394.6328,99.5,390.6328" style="stroke:#181818;stroke-width:1.0;"/><line style="stroke:#181818;stroke-width:1.0;stroke-dasharray:2.0,2.0;" x1="97.5" x2="339.5" y1="390.6328" y2="390.6328"/><text fill="#000000" font-family="sans-serif" font-size="13" font-weight="bold" lengthAdjust="spacing" textLength="7" x="109.5" y="385.8779">9</text><text fill="#000000" font-family="sans-serif" font-size="13" lengthAdjust="spacing" textLength="79" x="120.5" y="385.8779">requests data</text><polygon fill="#181818" points="323.5,415.1563,333.5,419.1563,323.5,423.1563,327.5,419.1563" style="stroke:#181818;stroke-width:1.0;"/><line style="stroke:#181818;stroke-width:1.0;" x1="92.5" x2="329.5" y1="419.1563" y2="419.1563"/><text fill="#000000" font-family="sans-serif" font-size="13" font-weight="bold" lengthAdjust="spacing" textLength="14" x="99.5" y="414.4014">10</text><text fill="#000000" font-family="sans-serif" font-size="13" lengthAdjust="spacing" textLength="206" x="117.5" y="414.4014">types data(one or more city names)</text><polygon fill="#181818" points="579.5,465.2031,589.5,469.2031,579.5,473.2031,583.5,469.2031" style="stroke:#181818;stroke-width:1.0;"/><line style="stroke:#181818;stroke-width:1.0;" x1="345.5" x2="585.5" y1="469.2031" y2="469.2031"/><text fill="#000000" font-family="sans-serif" font-size="13" font-weight="bold" lengthAdjust="spacing" textLength="14" x="352.5" y="457.1865">11</text><text fill="#000000" font-family="sans-serif" font-size="13" lengthAdjust="spacing" textLength="138" x="370.5" y="449.9248">createState(stateName,</text><text fill="#000000" font-family="sans-serif" font-size="13" lengthAdjust="spacing" textLength="209" x="370.5" y="464.4482">districtsNameList, citiesNameArray)</text><polygon fill="#181818" points="848,493.7266,858,497.7266,848,501.7266,852,497.7266" style="stroke:#181818;stroke-width:1.0;"/><line style="stroke:#181818;stroke-width:1.0;" x1="601.5" x2="854" y1="497.7266" y2="497.7266"/><text fill="#000000" font-family="sans-serif" font-size="13" font-weight="bold" lengthAdjust="spacing" textLength="14" x="608.5" y="492.9717">12</text><text fill="#000000" font-family="sans-serif" font-size="13" lengthAdjust="spacing" textLength="144" x="626.5" y="492.9717">getLocationsRepository()</text><polygon fill="#181818" points="612.5,522.25,602.5,526.25,612.5,530.25,608.5,526.25" style="stroke:#181818;stroke-width:1.0;"/><line style="stroke:#181818;stroke-width:1.0;stroke-dasharray:2.0,2.0;" x1="606.5" x2="864" y1="526.25" y2="526.25"/><text fill="#000000" font-family="sans-serif" font-size="13" font-weight="bold" lengthAdjust="spacing" textLength="14" x="618.5" y="521.4951">13</text><text fill="#000000" font-family="sans-serif" font-size="13" lengthAdjust="spacing" textLength="114" x="636.5" y="521.4951">locationsRepository</text><polygon fill="#181818" points="980,565.2969,990,569.2969,980,573.2969,984,569.2969" style="stroke:#181818;stroke-width:1.0;"/><line style="stroke:#181818;stroke-width:1.0;" x1="601.5" x2="986" y1="569.2969" y2="569.2969"/><text fill="#000000" font-family="sans-serif" font-size="13" font-weight="bold" lengthAdjust="spacing" textLength="14" x="608.5" y="557.2803">14</text><text fill="#000000" font-family="sans-serif" font-size="13" lengthAdjust="spacing" textLength="138" x="626.5" y="550.0186">createState(stateName,</text><text fill="#000000" font-family="sans-serif" font-size="13" lengthAdjust="spacing" textLength="209" x="626.5" y="564.542">districtsNameList, citiesNameArray)</text><polygon fill="#181818" points="1352,593.8203,1362,597.8203,1352,601.8203,1356,597.8203" style="stroke:#181818;stroke-width:1.0;"/><line style="stroke:#181818;stroke-width:1.0;" x1="1002" x2="1358" y1="597.8203" y2="597.8203"/><text fill="#000000" font-family="sans-serif" font-size="13" font-weight="bold" lengthAdjust="spacing" textLength="14" x="1009" y="593.0654">15</text><text fill="#000000" font-family="sans-serif" font-size="13" lengthAdjust="spacing" textLength="320" x="1027" y="593.0654">create(stateName, districtsNameList, citiesNameArray)</text><rect fill="#E3E3E3" height="45.2813" rx="2.5" ry="2.5" style="stroke:#181818;stroke-width:0.5;" width="51" x="1364" y="577.2969"/><text fill="#000000" font-family="sans-serif" font-size="14" lengthAdjust="spacing" textLength="31" x="1374" y="596.9707">state</text><text fill="#000000" font-family="sans-serif" font-size="14" lengthAdjust="spacing" textLength="37" x="1371" y="612.6113">:State</text><path d="M1354,640.5781 L1427,640.5781 L1427,647.1016 L1417,657.1016 L1354,657.1016 L1354,640.5781 " fill="#EEEEEE" style="stroke:#000000;stroke-width:1.5;"/><rect fill="none" height="159.6094" style="stroke:#000000;stroke-width:1.5;" width="534" x="1354" y="640.5781"/><text fill="#000000" font-family="sans-serif" font-size="13" font-weight="bold" lengthAdjust="spacing" textLength="28" x="1369" y="653.3467">loop</text><text fill="#000000" font-family="sans-serif" font-size="11" font-weight="bold" lengthAdjust="spacing" textLength="126" x="1442" y="652.5361">[for each districtName]</text><polygon fill="#181818" points="1635.5,673.625,1645.5,677.625,1635.5,681.625,1639.5,677.625" style="stroke:#181818;stroke-width:1.0;"/><line style="stroke:#181818;stroke-width:1.0;" x1="1394.5" x2="1641.5" y1="677.625" y2="677.625"/><text fill="#000000" font-family="sans-serif" font-size="13" font-weight="bold" lengthAdjust="spacing" textLength="14" x="1401.5" y="672.8701">16</text><text fill="#000000" font-family="sans-serif" font-size="13" lengthAdjust="spacing" textLength="211" x="1419.5" y="672.8701">create(districtName, citiesNameList)</text><rect fill="#E3E3E3" height="45.2813" rx="2.5" ry="2.5" style="stroke:#181818;stroke-width:0.5;" width="61" x="1647.5" y="657.1016"/><text fill="#000000" font-family="sans-serif" font-size="14" lengthAdjust="spacing" textLength="41" x="1657.5" y="676.7754">district</text><text fill="#000000" font-family="sans-serif" font-size="14" lengthAdjust="spacing" textLength="47" x="1654.5" y="692.416">:District</text><path d="M1637.5,720.3828 L1710.5,720.3828 L1710.5,726.9063 L1700.5,736.9063 L1637.5,736.9063 L1637.5,720.3828 " fill="#EEEEEE" style="stroke:#000000;stroke-width:1.5;"/><rect fill="none" height="72.8047" style="stroke:#000000;stroke-width:1.5;" width="240.5" x="1637.5" y="720.3828"/><text fill="#000000" font-family="sans-serif" font-size="13" font-weight="bold" lengthAdjust="spacing" textLength="28" x="1652.5" y="733.1514">loop</text><text fill="#000000" font-family="sans-serif" font-size="11" font-weight="bold" lengthAdjust="spacing" textLength="106" x="1725.5" y="732.3408">[for each cityName]</text><polygon fill="#181818" points="1814,753.4297,1824,757.4297,1814,761.4297,1818,757.4297" style="stroke:#181818;stroke-width:1.0;"/><line style="stroke:#181818;stroke-width:1.0;" x1="1683" x2="1820" y1="757.4297" y2="757.4297"/><text fill="#000000" font-family="sans-serif" font-size="13" font-weight="bold" lengthAdjust="spacing" textLength="14" x="1690" y="752.6748">17</text><text fill="#000000" font-family="sans-serif" font-size="13" lengthAdjust="spacing" textLength="101" x="1708" y="752.6748">create(CityName)</text><rect fill="#E3E3E3" height="45.2813" rx="2.5" ry="2.5" style="stroke:#181818;stroke-width:0.5;" width="42" x="1826" y="736.9063"/><text fill="#000000" font-family="sans-serif" font-size="14" lengthAdjust="spacing" textLength="21" x="1836.5" y="756.5801">city</text><text fill="#000000" font-family="sans-serif" font-size="14" lengthAdjust="spacing" textLength="28" x="1833" y="772.2207">:City</text><line style="stroke:#181818;stroke-width:1.0;" x1="1002" x2="1049" y1="822.7109" y2="822.7109"/><line style="stroke:#181818;stroke-width:1.0;" x1="1049" x2="1049" y1="822.7109" y2="835.7109"/><line style="stroke:#181818;stroke-width:1.0;" x1="1008" x2="1049" y1="835.7109" y2="835.7109"/><polygon fill="#181818" points="1018,831.7109,1008,835.7109,1018,839.7109,1014,835.7109" style="stroke:#181818;stroke-width:1.0;"/><text fill="#000000" font-family="sans-serif" font-size="13" font-weight="bold" lengthAdjust="spacing" textLength="14" x="1014" y="817.9561">18</text><text fill="#000000" font-family="sans-serif" font-size="13" lengthAdjust="spacing" textLength="91" x="1032" y="817.9561">addState(State)</text><polygon fill="#181818" points="1372.5,865.2344,1382.5,869.2344,1372.5,873.2344,1376.5,869.2344" style="stroke:#181818;stroke-width:1.0;"/><line style="stroke:#181818;stroke-width:1.0;" x1="1007" x2="1378.5" y1="869.2344" y2="869.2344"/><text fill="#000000" font-family="sans-serif" font-size="13" font-weight="bold" lengthAdjust="spacing" textLength="14" x="1014" y="864.4795">19</text><text fill="#000000" font-family="sans-serif" font-size="13" lengthAdjust="spacing" textLength="47" x="1032" y="864.4795">isValid()</text><line style="stroke:#181818;stroke-width:1.0;" x1="1394.5" x2="1441.5" y1="892.7578" y2="892.7578"/><line style="stroke:#181818;stroke-width:1.0;" x1="1441.5" x2="1441.5" y1="892.7578" y2="905.7578"/><line style="stroke:#181818;stroke-width:1.0;" x1="1400.5" x2="1441.5" y1="905.7578" y2="905.7578"/><polygon fill="#181818" points="1410.5,901.7578,1400.5,905.7578,1410.5,909.7578,1406.5,905.7578" style="stroke:#181818;stroke-width:1.0;"/><text fill="#000000" font-family="sans-serif" font-size="13" font-weight="bold" lengthAdjust="spacing" textLength="14" x="1406.5" y="888.0029">20</text><text fill="#000000" font-family="sans-serif" font-size="13" lengthAdjust="spacing" textLength="81" x="1424.5" y="888.0029">isNameValid()</text><line style="stroke:#181818;stroke-width:1.0;stroke-dasharray:2.0,2.0;" x1="1399.5" x2="1441.5" y1="944.2813" y2="944.2813"/><line style="stroke:#181818;stroke-width:1.0;stroke-dasharray:2.0,2.0;" x1="1441.5" x2="1441.5" y1="944.2813" y2="957.2813"/><line style="stroke:#181818;stroke-width:1.0;stroke-dasharray:2.0,2.0;" x1="1394.5" x2="1441.5" y1="957.2813" y2="957.2813"/><polygon fill="#181818" points="1404.5,953.2813,1394.5,957.2813,1404.5,961.2813,1400.5,957.2813" style="stroke:#181818;stroke-width:1.0;"/><text fill="#000000" font-family="sans-serif" font-size="13" font-weight="bold" lengthAdjust="spacing" textLength="14" x="1406.5" y="939.5264">21</text><text fill="#000000" font-family="sans-serif" font-size="13" lengthAdjust="spacing" textLength="53" x="1424.5" y="939.5264">true/false</text><path d="M1354,967.2813 L1427,967.2813 L1427,973.8047 L1417,983.8047 L1354,983.8047 L1354,967.2813 " fill="#EEEEEE" style="stroke:#000000;stroke-width:1.5;"/><rect fill="none" height="327.2344" style="stroke:#000000;stroke-width:1.5;" width="631" x="1354" y="967.2813"/><text fill="#000000" font-family="sans-serif" font-size="13" font-weight="bold" lengthAdjust="spacing" textLength="28" x="1369" y="980.0498">loop</text><text fill="#000000" font-family="sans-serif" font-size="11" font-weight="bold" lengthAdjust="spacing" textLength="95" x="1442" y="979.2393">[for each district]</text><polygon fill="#181818" points="1661,1000.3281,1671,1004.3281,1661,1008.3281,1665,1004.3281" style="stroke:#181818;stroke-width:1.0;"/><line style="stroke:#181818;stroke-width:1.0;" x1="1394.5" x2="1667" y1="1004.3281" y2="1004.3281"/><text fill="#000000" font-family="sans-serif" font-size="13" font-weight="bold" lengthAdjust="spacing" textLength="14" x="1401.5" y="999.5732">22</text><text fill="#000000" font-family="sans-serif" font-size="13" lengthAdjust="spacing" textLength="47" x="1419.5" y="999.5732">isValid()</text><line style="stroke:#181818;stroke-width:1.0;" x1="1683" x2="1730" y1="1027.8516" y2="1027.8516"/><line style="stroke:#181818;stroke-width:1.0;" x1="1730" x2="1730" y1="1027.8516" y2="1040.8516"/><line style="stroke:#181818;stroke-width:1.0;" x1="1689" x2="1730" y1="1040.8516" y2="1040.8516"/><polygon fill="#181818" points="1699,1036.8516,1689,1040.8516,1699,1044.8516,1695,1040.8516" style="stroke:#181818;stroke-width:1.0;"/><text fill="#000000" font-family="sans-serif" font-size="13" font-weight="bold" lengthAdjust="spacing" textLength="14" x="1695" y="1023.0967">23</text><text fill="#000000" font-family="sans-serif" font-size="13" lengthAdjust="spacing" textLength="81" x="1713" y="1023.0967">isNameValid()</text><line style="stroke:#181818;stroke-width:1.0;stroke-dasharray:2.0,2.0;" x1="1688" x2="1730" y1="1079.375" y2="1079.375"/><line style="stroke:#181818;stroke-width:1.0;stroke-dasharray:2.0,2.0;" x1="1730" x2="1730" y1="1079.375" y2="1092.375"/><line style="stroke:#181818;stroke-width:1.0;stroke-dasharray:2.0,2.0;" x1="1683" x2="1730" y1="1092.375" y2="1092.375"/><polygon fill="#181818" points="1693,1088.375,1683,1092.375,1693,1096.375,1689,1092.375" style="stroke:#181818;stroke-width:1.0;"/><text fill="#000000" font-family="sans-serif" font-size="13" font-weight="bold" lengthAdjust="spacing" textLength="14" x="1695" y="1074.6201">24</text><text fill="#000000" font-family="sans-serif" font-size="13" lengthAdjust="spacing" textLength="53" x="1713" y="1074.6201">true/false</text><path d="M1637.5,1102.375 L1710.5,1102.375 L1710.5,1108.8984 L1700.5,1118.8984 L1637.5,1118.8984 L1637.5,1102.375 " fill="#EEEEEE" style="stroke:#000000;stroke-width:1.5;"/><rect fill="none" height="156.6172" style="stroke:#000000;stroke-width:1.5;" width="337.5" x="1637.5" y="1102.375"/><text fill="#000000" font-family="sans-serif" font-size="13" font-weight="bold" lengthAdjust="spacing" textLength="28" x="1652.5" y="1115.1436">loop</text><text fill="#000000" font-family="sans-serif" font-size="11" font-weight="bold" lengthAdjust="spacing" textLength="77" x="1725.5" y="1114.333">[for each City]</text><polygon fill="#181818" points="1830,1135.4219,1840,1139.4219,1830,1143.4219,1834,1139.4219" style="stroke:#181818;stroke-width:1.0;"/><line style="stroke:#181818;stroke-width:1.0;" x1="1683" x2="1836" y1="1139.4219" y2="1139.4219"/><text fill="#000000" font-family="sans-serif" font-size="13" font-weight="bold" lengthAdjust="spacing" textLength="14" x="1690" y="1134.667">25</text><text fill="#000000" font-family="sans-serif" font-size="13" lengthAdjust="spacing" textLength="47" x="1708" y="1134.667">isValid()</text><line style="stroke:#181818;stroke-width:1.0;" x1="1852" x2="1899" y1="1162.9453" y2="1162.9453"/><line style="stroke:#181818;stroke-width:1.0;" x1="1899" x2="1899" y1="1162.9453" y2="1175.9453"/><line style="stroke:#181818;stroke-width:1.0;" x1="1858" x2="1899" y1="1175.9453" y2="1175.9453"/><polygon fill="#181818" points="1868,1171.9453,1858,1175.9453,1868,1179.9453,1864,1175.9453" style="stroke:#181818;stroke-width:1.0;"/><text fill="#000000" font-family="sans-serif" font-size="13" font-weight="bold" lengthAdjust="spacing" textLength="14" x="1864" y="1158.1904">26</text><text fill="#000000" font-family="sans-serif" font-size="13" lengthAdjust="spacing" textLength="81" x="1882" y="1158.1904">isNameValid()</text><line style="stroke:#181818;stroke-width:1.0;stroke-dasharray:2.0,2.0;" x1="1857" x2="1899" y1="1214.4688" y2="1214.4688"/><line style="stroke:#181818;stroke-width:1.0;stroke-dasharray:2.0,2.0;" x1="1899" x2="1899" y1="1214.4688" y2="1227.4688"/><line style="stroke:#181818;stroke-width:1.0;stroke-dasharray:2.0,2.0;" x1="1852" x2="1899" y1="1227.4688" y2="1227.4688"/><polygon fill="#181818" points="1862,1223.4688,1852,1227.4688,1862,1231.4688,1858,1227.4688" style="stroke:#181818;stroke-width:1.0;"/><text fill="#000000" font-family="sans-serif" font-size="13" font-weight="bold" lengthAdjust="spacing" textLength="14" x="1864" y="1209.7139">27</text><text fill="#000000" font-family="sans-serif" font-size="13" lengthAdjust="spacing" textLength="53" x="1882" y="1209.7139">true/false</text><polygon fill="#181818" points="1694,1246.9922,1684,1250.9922,1694,1254.9922,1690,1250.9922" style="stroke:#181818;stroke-width:1.0;"/><line style="stroke:#181818;stroke-width:1.0;stroke-dasharray:2.0,2.0;" x1="1688" x2="1846" y1="1250.9922" y2="1250.9922"/><text fill="#000000" font-family="sans-serif" font-size="13" font-weight="bold" lengthAdjust="spacing" textLength="14" x="1700" y="1246.2373">28</text><text fill="#000000" font-family="sans-serif" font-size="13" lengthAdjust="spacing" textLength="53" x="1718" y="1246.2373">true/false</text><polygon fill="#181818" points="1405.5,1282.5156,1395.5,1286.5156,1405.5,1290.5156,1401.5,1286.5156" style="stroke:#181818;stroke-width:1.0;"/><line style="stroke:#181818;stroke-width:1.0;stroke-dasharray:2.0,2.0;" x1="1399.5" x2="1677" y1="1286.5156" y2="1286.5156"/><text fill="#000000" font-family="sans-serif" font-size="13" font-weight="bold" lengthAdjust="spacing" textLength="14" x="1411.5" y="1281.7607">29</text><text fill="#000000" font-family="sans-serif" font-size="13" lengthAdjust="spacing" textLength="53" x="1429.5" y="1281.7607">true/false</text><polygon fill="#181818" points="1018,1318.0391,1008,1322.0391,1018,1326.0391,1014,1322.0391" style="stroke:#181818;stroke-width:1.0;"/><line style="stroke:#181818;stroke-width:1.0;stroke-dasharray:2.0,2.0;" x1="1012" x2="1388.5" y1="1322.0391" y2="1322.0391"/><text fill="#000000" font-family="sans-serif" font-size="13" font-weight="bold" lengthAdjust="spacing" textLength="14" x="1024" y="1317.2842">30</text><text fill="#000000" font-family="sans-serif" font-size="13" lengthAdjust="spacing" textLength="53" x="1042" y="1317.2842">true/false</text><line style="stroke:#181818;stroke-width:1.0;" x1="1007" x2="1054" y1="1345.5625" y2="1345.5625"/><line style="stroke:#181818;stroke-width:1.0;" x1="1054" x2="1054" y1="1345.5625" y2="1358.5625"/><line style="stroke:#181818;stroke-width:1.0;" x1="1013" x2="1054" y1="1358.5625" y2="1358.5625"/><polygon fill="#181818" points="1023,1354.5625,1013,1358.5625,1023,1362.5625,1019,1358.5625" style="stroke:#181818;stroke-width:1.0;"/><text fill="#000000" font-family="sans-serif" font-size="13" font-weight="bold" lengthAdjust="spacing" textLength="14" x="1019" y="1340.8076">31</text><text fill="#000000" font-family="sans-serif" font-size="13" lengthAdjust="spacing" textLength="78" x="1037" y="1340.8076">isValid(State)</text><line style="stroke:#181818;stroke-width:1.0;" x1="1012" x2="1059" y1="1387.0859" y2="1387.0859"/><line style="stroke:#181818;stroke-width:1.0;" x1="1059" x2="1059" y1="1387.0859" y2="1400.0859"/><line style="stroke:#181818;stroke-width:1.0;" x1="1018" x2="1059" y1="1400.0859" y2="1400.0859"/><polygon fill="#181818" points="1028,1396.0859,1018,1400.0859,1028,1404.0859,1024,1400.0859" style="stroke:#181818;stroke-width:1.0;"/><text fill="#000000" font-family="sans-serif" font-size="13" font-weight="bold" lengthAdjust="spacing" textLength="14" x="1024" y="1382.3311">32</text><text fill="#000000" font-family="sans-serif" font-size="13" lengthAdjust="spacing" textLength="46" x="1042" y="1382.3311">equals()</text><line style="stroke:#181818;stroke-width:1.0;stroke-dasharray:2.0,2.0;" x1="1017" x2="1059" y1="1438.6094" y2="1438.6094"/><line style="stroke:#181818;stroke-width:1.0;stroke-dasharray:2.0,2.0;" x1="1059" x2="1059" y1="1438.6094" y2="1451.6094"/><line style="stroke:#181818;stroke-width:1.0;stroke-dasharray:2.0,2.0;" x1="1012" x2="1059" y1="1451.6094" y2="1451.6094"/><polygon fill="#181818" points="1022,1447.6094,1012,1451.6094,1022,1455.6094,1018,1451.6094" style="stroke:#181818;stroke-width:1.0;"/><text fill="#000000" font-family="sans-serif" font-size="13" font-weight="bold" lengthAdjust="spacing" textLength="14" x="1024" y="1433.8545">33</text><text fill="#000000" font-family="sans-serif" font-size="13" lengthAdjust="spacing" textLength="53" x="1042" y="1433.8545">true/false</text><line style="stroke:#181818;stroke-width:1.0;stroke-dasharray:2.0,2.0;" x1="1012" x2="1054" y1="1480.1328" y2="1480.1328"/><line style="stroke:#181818;stroke-width:1.0;stroke-dasharray:2.0,2.0;" x1="1054" x2="1054" y1="1480.1328" y2="1493.1328"/><line style="stroke:#181818;stroke-width:1.0;stroke-dasharray:2.0,2.0;" x1="1007" x2="1054" y1="1493.1328" y2="1493.1328"/><polygon fill="#181818" points="1017,1489.1328,1007,1493.1328,1017,1497.1328,1013,1493.1328" style="stroke:#181818;stroke-width:1.0;"/><text fill="#000000" font-family="sans-serif" font-size="13" font-weight="bold" lengthAdjust="spacing" textLength="14" x="1019" y="1475.3779">34</text><text fill="#000000" font-family="sans-serif" font-size="13" lengthAdjust="spacing" textLength="53" x="1037" y="1475.3779">true/false</text><line style="stroke:#181818;stroke-width:1.0;stroke-dasharray:2.0,2.0;" x1="1007" x2="1049" y1="1521.6563" y2="1521.6563"/><line style="stroke:#181818;stroke-width:1.0;stroke-dasharray:2.0,2.0;" x1="1049" x2="1049" y1="1521.6563" y2="1534.6563"/><line style="stroke:#181818;stroke-width:1.0;stroke-dasharray:2.0,2.0;" x1="1002" x2="1049" y1="1534.6563" y2="1534.6563"/><polygon fill="#181818" points="1012,1530.6563,1002,1534.6563,1012,1538.6563,1008,1534.6563" style="stroke:#181818;stroke-width:1.0;"/><text fill="#000000" font-family="sans-serif" font-size="13" font-weight="bold" lengthAdjust="spacing" textLength="14" x="1014" y="1516.9014">35</text><text fill="#000000" font-family="sans-serif" font-size="13" lengthAdjust="spacing" textLength="53" x="1032" y="1516.9014">true/false</text><polygon fill="#181818" points="612.5,1554.1797,602.5,1558.1797,612.5,1562.1797,608.5,1558.1797" style="stroke:#181818;stroke-width:1.0;"/><line style="stroke:#181818;stroke-width:1.0;stroke-dasharray:2.0,2.0;" x1="606.5" x2="996" y1="1558.1797" y2="1558.1797"/><text fill="#000000" font-family="sans-serif" font-size="13" font-weight="bold" lengthAdjust="spacing" textLength="14" x="618.5" y="1553.4248">36</text><text fill="#000000" font-family="sans-serif" font-size="13" lengthAdjust="spacing" textLength="53" x="636.5" y="1553.4248">true/false</text><polygon fill="#181818" points="356.5,1582.7031,346.5,1586.7031,356.5,1590.7031,352.5,1586.7031" style="stroke:#181818;stroke-width:1.0;"/><line style="stroke:#181818;stroke-width:1.0;stroke-dasharray:2.0,2.0;" x1="350.5" x2="595.5" y1="1586.7031" y2="1586.7031"/><text fill="#000000" font-family="sans-serif" font-size="13" font-weight="bold" lengthAdjust="spacing" textLength="14" x="362.5" y="1581.9482">37</text><text fill="#000000" font-family="sans-serif" font-size="13" lengthAdjust="spacing" textLength="53" x="380.5" y="1581.9482">true/false</text><polygon fill="#181818" points="98.5,1611.2266,88.5,1615.2266,98.5,1619.2266,94.5,1615.2266" style="stroke:#181818;stroke-width:1.0;"/><line style="stroke:#181818;stroke-width:1.0;stroke-dasharray:2.0,2.0;" x1="92.5" x2="334.5" y1="1615.2266" y2="1615.2266"/><text fill="#000000" font-family="sans-serif" font-size="13" font-weight="bold" lengthAdjust="spacing" textLength="14" x="104.5" y="1610.4717">38</text><text fill="#000000" font-family="sans-serif" font-size="13" lengthAdjust="spacing" textLength="140" x="122.5" y="1610.4717">(In)Success of operation</text><!--SRC=[hLSzRzim4DtrAmXFTf2WUuO2WTl1GD31HZfbOQMpGqGYLP9ke7_V8oLHf3uf9nniYRfxztZtUABKE-CbbRGWXU0YVPEY0ABb5HBbdfGqVQSNEEag1o8XrPHVSjz0lT5CV31-8MUQAqWIUjM2Nui_8F4wrKAIpQbI6egdh62SAIqfJcu8LSJE98YZMSfAoZNPF9vAIDcvGi1daLBD15Sl1slzSWXDrT1oBxYM8iz1ll8nfEwvHUnkUoIEK0h5a2O3PItzYT1MGecn1Wuu7ThbDGTr_DbOLkZcY3d_odgZyR4Fe3JLO9Pb_gsLlGgDCfDVbcgq-z5SMjFs9hHEcJOizlXNvmClRD7OFqHkofCG7FQIF7p78f17NDpVAoYjY1OaWpFZG2ZXyD4mCWuE1Ajc9yn0PuJeidvtXs2f1BJRxfoLS_NAunwQqSqRE3_r27S1VU2OAvxwc05kKCp0n8m0xo7WQvVk-Vfk6IpWUmPZ2pEvmM1rehqKPrJJfEVVvZIiYgvAgEstLYk_Q06x-M9yMK214YY41D8Aa72ChdQrMov4ISxO2H3npPaOViEY-nIZQ4vGNQIBT2nZimbQjcDip3tmR5h5JiDM_LtkxyahRzUgpCGptjoRUAWBS_ya9QrkrZqgiPRxI1EPKhxfIWF16w21plCXw9JS1w0XpxgNVLMIWkKqRNAmeYOa1hVH_3RZ1LuRDWXTTxh1yqYrzuT5CtpRFkrJzX5yYeRoRXBICNMjVz9qIDhiYLd2xMZ1xOv09v_tlW7PpKSsUslgcQSojunO3CztebYTJ9n6QPRL0hM_C_Llf3UUoa1zYChKRvgpR3jUhHXD1IBfO4rwvw3Nm7iXl1ZcEFYjFjb556aXnFZEY67KxOp5TDwu0Vfg3kB5vFaJSSFOOV280ipjbaMdi2Rs1BYERhtneyioVDlPGoU973QM7tDDQJuPkulV4LXHdh63u0rhlraUOx6Nx8E3JvHqLpIEDHr-xatHTItNnsUYt_HUQBKT-LfOU2yuM3pC8iUbzy8Sg0yScO1U4c8ehq_jqj4i0d41pKCAJguZQ3D8_bdLVIY423CVRhsFa-s1xqxND0MbY3WJKOAqX-Z4Wx2s_m40]--></g></svg>