<?xml version="1.0" encoding="us-ascii" standalone="no"?><svg xmlns="http://www.w3.org/2000/svg" xmlns:xlink="http://www.w3.org/1999/xlink" contentStyleType="text/css" height="1330px" preserveAspectRatio="none" style="width:1347px;height:1330px;background:#FFFFFF;" version="1.1" viewBox="0 0 1347 1330" width="1347px" zoomAndPan="magnify"><defs/><g><rect fill="#FFFFFF" height="1135.4375" style="stroke:#181818;stroke-width:1.0;" width="10" x="21.5" y="93.6211"/><rect fill="#FFFFFF" height="279.9492" style="stroke:#181818;stroke-width:1.0;" width="10" x="256.5" y="116.9121"/><rect fill="#FFFFFF" height="156.4551" style="stroke:#181818;stroke-width:1.0;" width="10" x="256.5" y="428.1523"/><rect fill="#FFFFFF" height="581.8691" style="stroke:#181818;stroke-width:1.0;" width="10" x="256.5" y="647.1895"/><rect fill="#FFFFFF" height="156.4551" style="stroke:#181818;stroke-width:1.0;" width="10" x="492.5" y="191.8242"/><rect fill="#FFFFFF" height="93.873" style="stroke:#181818;stroke-width:1.0;" width="10" x="492.5" y="459.4434"/><rect fill="#FFFFFF" height="281.6191" style="stroke:#181818;stroke-width:1.0;" width="10" x="492.5" y="704.7715"/><rect fill="#FFFFFF" height="156.4551" style="stroke:#181818;stroke-width:1.0;" width="10" x="492.5" y="1034.3125"/><rect fill="#FFFFFF" height="31.291" style="stroke:#181818;stroke-width:1.0;" width="10" x="651" y="223.1152"/><rect fill="#FFFFFF" height="31.291" style="stroke:#181818;stroke-width:1.0;" width="10" x="916" y="285.6973"/><rect fill="#FFFFFF" height="31.291" style="stroke:#181818;stroke-width:1.0;" width="10" x="916" y="798.6445"/><rect fill="#FFFFFF" height="31.291" style="stroke:#181818;stroke-width:1.0;" width="10" x="916" y="923.8086"/><rect fill="#FFFFFF" height="31.291" style="stroke:#181818;stroke-width:1.0;" width="10" x="916" y="1065.6035"/><rect fill="#FFFFFF" height="31.291" style="stroke:#181818;stroke-width:1.0;" width="10" x="1109.5" y="490.7344"/><rect fill="#FFFFFF" height="31.291" style="stroke:#181818;stroke-width:1.0;" width="10" x="1109.5" y="736.0625"/><rect fill="#FFFFFF" height="31.291" style="stroke:#181818;stroke-width:1.0;" width="10" x="1264.5" y="861.2266"/><rect fill="#FFFFFF" height="31.291" style="stroke:#181818;stroke-width:1.0;" width="10" x="1264.5" y="1128.1855"/><rect fill="none" height="536.5781" style="stroke:#000000;stroke-width:1.5;" width="1160.5" x="180" y="662.1895"/><line style="stroke:#181818;stroke-width:0.5;stroke-dasharray:5.0,5.0;" x1="26" x2="26" y1="83.6211" y2="1247.0586"/><line style="stroke:#181818;stroke-width:0.5;stroke-dasharray:5.0,5.0;" x1="261" x2="261" y1="83.6211" y2="1247.0586"/><line style="stroke:#181818;stroke-width:0.5;stroke-dasharray:5.0,5.0;" x1="497.5" x2="497.5" y1="156.7227" y2="1247.0586"/><line style="stroke:#181818;stroke-width:0.5;stroke-dasharray:5.0,5.0;" x1="655.5" x2="655.5" y1="83.6211" y2="1247.0586"/><line style="stroke:#181818;stroke-width:0.5;stroke-dasharray:5.0,5.0;" x1="762.5" x2="762.5" y1="83.6211" y2="1247.0586"/><line style="stroke:#181818;stroke-width:0.5;stroke-dasharray:5.0,5.0;" x1="920.5" x2="920.5" y1="83.6211" y2="1247.0586"/><line style="stroke:#181818;stroke-width:0.5;stroke-dasharray:5.0,5.0;" x1="1114.5" x2="1114.5" y1="83.6211" y2="1247.0586"/><line style="stroke:#181818;stroke-width:0.5;stroke-dasharray:5.0,5.0;" x1="1269.5" x2="1269.5" y1="83.6211" y2="1247.0586"/><text fill="#000000" font-family="sans-serif" font-size="14" lengthAdjust="spacing" textLength="37" x="5" y="80.1074">Agent</text><ellipse cx="26.5" cy="13.5" fill="#E3E3E3" rx="8" ry="8" style="stroke:#181818;stroke-width:0.5;"/><path d="M26.5,21.5 L26.5,48.5 M13.5,29.5 L39.5,29.5 M26.5,48.5 L13.5,63.5 M26.5,48.5 L39.5,63.5 " fill="none" style="stroke:#181818;stroke-width:0.5;"/><text fill="#000000" font-family="sans-serif" font-size="14" lengthAdjust="spacing" textLength="37" x="5" y="1261.166">Agent</text><ellipse cx="26.5" cy="1273.1797" fill="#E3E3E3" rx="8" ry="8" style="stroke:#181818;stroke-width:0.5;"/><path d="M26.5,1281.1797 L26.5,1308.1797 M13.5,1289.1797 L39.5,1289.1797 M26.5,1308.1797 L13.5,1323.1797 M26.5,1308.1797 L39.5,1323.1797 " fill="none" style="stroke:#181818;stroke-width:0.5;"/><rect fill="#E3E3E3" height="32.6211" rx="2.5" ry="2.5" style="stroke:#181818;stroke-width:0.5;" width="143" x="190" y="50"/><text fill="#000000" font-family="sans-serif" font-size="14" lengthAdjust="spacing" textLength="129" x="197" y="72.1074">:PurchaseRequestUI</text><rect fill="#E3E3E3" height="32.6211" rx="2.5" ry="2.5" style="stroke:#181818;stroke-width:0.5;" width="143" x="190" y="1246.0586"/><text fill="#000000" font-family="sans-serif" font-size="14" lengthAdjust="spacing" textLength="129" x="197" y="1268.166">:PurchaseRequestUI</text><rect fill="#E3E3E3" height="32.6211" rx="2.5" ry="2.5" style="stroke:#181818;stroke-width:0.5;" width="200" x="397.5" y="1246.0586"/><text fill="#000000" font-family="sans-serif" font-size="14" lengthAdjust="spacing" textLength="186" x="404.5" y="1268.166">:ListPropertyOrdersController</text><rect fill="#E3E3E3" height="32.6211" rx="2.5" ry="2.5" style="stroke:#181818;stroke-width:0.5;" width="97" x="607.5" y="50"/><text fill="#000000" font-family="sans-serif" font-size="14" lengthAdjust="spacing" textLength="83" x="614.5" y="72.1074">:Repositories</text><rect fill="#E3E3E3" height="32.6211" rx="2.5" ry="2.5" style="stroke:#181818;stroke-width:0.5;" width="97" x="607.5" y="1246.0586"/><text fill="#000000" font-family="sans-serif" font-size="14" lengthAdjust="spacing" textLength="83" x="614.5" y="1268.166">:Repositories</text><rect fill="#E3E3E3" height="51.2422" rx="2.5" ry="2.5" style="stroke:#181818;stroke-width:0.5;" width="97" x="714.5" y="31.3789"/><text fill="#000000" font-family="sans-serif" font-size="14" lengthAdjust="spacing" textLength="74" x="726" y="53.4863">repositories</text><text fill="#000000" font-family="sans-serif" font-size="14" lengthAdjust="spacing" textLength="83" x="721.5" y="72.1074">:Repositories</text><rect fill="#E3E3E3" height="51.2422" rx="2.5" ry="2.5" style="stroke:#181818;stroke-width:0.5;" width="97" x="714.5" y="1246.0586"/><text fill="#000000" font-family="sans-serif" font-size="14" lengthAdjust="spacing" textLength="74" x="726" y="1268.166">repositories</text><text fill="#000000" font-family="sans-serif" font-size="14" lengthAdjust="spacing" textLength="83" x="721.5" y="1286.7871">:Repositories</text><rect fill="#E3E3E3" height="51.2422" rx="2.5" ry="2.5" style="stroke:#181818;stroke-width:0.5;" width="199" x="821.5" y="31.3789"/><text fill="#000000" font-family="sans-serif" font-size="14" lengthAdjust="spacing" textLength="185" x="828.5" y="53.4863">PurchaseRequestRepository:</text><text fill="#000000" font-family="sans-serif" font-size="14" lengthAdjust="spacing" textLength="181" x="830.5" y="72.1074">PurchaseRequestRepository</text><rect fill="#E3E3E3" height="51.2422" rx="2.5" ry="2.5" style="stroke:#181818;stroke-width:0.5;" width="199" x="821.5" y="1246.0586"/><text fill="#000000" font-family="sans-serif" font-size="14" lengthAdjust="spacing" textLength="185" x="828.5" y="1268.166">PurchaseRequestRepository:</text><text fill="#000000" font-family="sans-serif" font-size="14" lengthAdjust="spacing" textLength="181" x="830.5" y="1286.7871">PurchaseRequestRepository</text><rect fill="#E3E3E3" height="51.2422" rx="2.5" ry="2.5" style="stroke:#181818;stroke-width:0.5;" width="168" x="1030.5" y="31.3789"/><text fill="#000000" font-family="sans-serif" font-size="14" lengthAdjust="spacing" textLength="154" x="1037.5" y="53.4863">PropertySaleRepository:</text><text fill="#000000" font-family="sans-serif" font-size="14" lengthAdjust="spacing" textLength="150" x="1039.5" y="72.1074">PropertySaleRepository</text><rect fill="#E3E3E3" height="51.2422" rx="2.5" ry="2.5" style="stroke:#181818;stroke-width:0.5;" width="168" x="1030.5" y="1246.0586"/><text fill="#000000" font-family="sans-serif" font-size="14" lengthAdjust="spacing" textLength="154" x="1037.5" y="1268.166">PropertySaleRepository:</text><text fill="#000000" font-family="sans-serif" font-size="14" lengthAdjust="spacing" textLength="150" x="1039.5" y="1286.7871">PropertySaleRepository</text><rect fill="#E3E3E3" height="51.2422" rx="2.5" ry="2.5" style="stroke:#181818;stroke-width:0.5;" width="122" x="1208.5" y="31.3789"/><text fill="#000000" font-family="sans-serif" font-size="14" lengthAdjust="spacing" textLength="108" x="1215.5" y="53.4863">ClientRepository:</text><text fill="#000000" font-family="sans-serif" font-size="14" lengthAdjust="spacing" textLength="104" x="1217.5" y="72.1074">ClientRepository</text><rect fill="#E3E3E3" height="51.2422" rx="2.5" ry="2.5" style="stroke:#181818;stroke-width:0.5;" width="122" x="1208.5" y="1246.0586"/><text fill="#000000" font-family="sans-serif" font-size="14" lengthAdjust="spacing" textLength="108" x="1215.5" y="1268.166">ClientRepository:</text><text fill="#000000" font-family="sans-serif" font-size="14" lengthAdjust="spacing" textLength="104" x="1217.5" y="1286.7871">ClientRepository</text><rect fill="#FFFFFF" height="1135.4375" style="stroke:#181818;stroke-width:1.0;" width="10" x="21.5" y="93.6211"/><rect fill="#FFFFFF" height="279.9492" style="stroke:#181818;stroke-width:1.0;" width="10" x="256.5" y="116.9121"/><rect fill="#FFFFFF" height="156.4551" style="stroke:#181818;stroke-width:1.0;" width="10" x="256.5" y="428.1523"/><rect fill="#FFFFFF" height="581.8691" style="stroke:#181818;stroke-width:1.0;" width="10" x="256.5" y="647.1895"/><rect fill="#FFFFFF" height="156.4551" style="stroke:#181818;stroke-width:1.0;" width="10" x="492.5" y="191.8242"/><rect fill="#FFFFFF" height="93.873" style="stroke:#181818;stroke-width:1.0;" width="10" x="492.5" y="459.4434"/><rect fill="#FFFFFF" height="281.6191" style="stroke:#181818;stroke-width:1.0;" width="10" x="492.5" y="704.7715"/><rect fill="#FFFFFF" height="156.4551" style="stroke:#181818;stroke-width:1.0;" width="10" x="492.5" y="1034.3125"/><rect fill="#FFFFFF" height="31.291" style="stroke:#181818;stroke-width:1.0;" width="10" x="651" y="223.1152"/><rect fill="#FFFFFF" height="31.291" style="stroke:#181818;stroke-width:1.0;" width="10" x="916" y="285.6973"/><rect fill="#FFFFFF" height="31.291" style="stroke:#181818;stroke-width:1.0;" width="10" x="916" y="798.6445"/><rect fill="#FFFFFF" height="31.291" style="stroke:#181818;stroke-width:1.0;" width="10" x="916" y="923.8086"/><rect fill="#FFFFFF" height="31.291" style="stroke:#181818;stroke-width:1.0;" width="10" x="916" y="1065.6035"/><rect fill="#FFFFFF" height="31.291" style="stroke:#181818;stroke-width:1.0;" width="10" x="1109.5" y="490.7344"/><rect fill="#FFFFFF" height="31.291" style="stroke:#181818;stroke-width:1.0;" width="10" x="1109.5" y="736.0625"/><rect fill="#FFFFFF" height="31.291" style="stroke:#181818;stroke-width:1.0;" width="10" x="1264.5" y="861.2266"/><rect fill="#FFFFFF" height="31.291" style="stroke:#181818;stroke-width:1.0;" width="10" x="1264.5" y="1128.1855"/><polygon fill="#181818" points="244.5,112.9121,254.5,116.9121,244.5,120.9121,248.5,116.9121" style="stroke:#181818;stroke-width:1.0;"/><line style="stroke:#181818;stroke-width:1.0;" x1="31.5" x2="250.5" y1="116.9121" y2="116.9121"/><text fill="#000000" font-family="sans-serif" font-size="13" font-weight="bold" lengthAdjust="spacing" textLength="7" x="38.5" y="111.6494">1</text><text fill="#000000" font-family="sans-serif" font-size="13" lengthAdjust="spacing" textLength="155" x="49.5" y="111.6494">asks to list property orders</text><polygon fill="#181818" points="385.5,144.2031,395.5,148.2031,385.5,152.2031,389.5,148.2031" style="stroke:#181818;stroke-width:1.0;"/><line style="stroke:#181818;stroke-width:1.0;" x1="266.5" x2="391.5" y1="148.2031" y2="148.2031"/><text fill="#000000" font-family="sans-serif" font-size="13" font-weight="bold" lengthAdjust="spacing" textLength="7" x="273.5" y="142.9404">2</text><text fill="#000000" font-family="sans-serif" font-size="13" lengthAdjust="spacing" textLength="36" x="284.5" y="142.9404">create</text><rect fill="#E3E3E3" height="32.6211" rx="2.5" ry="2.5" style="stroke:#181818;stroke-width:0.5;" width="200" x="397.5" y="124.9121"/><text fill="#000000" font-family="sans-serif" font-size="14" lengthAdjust="spacing" textLength="186" x="404.5" y="147.0195">:ListPropertyOrdersController</text><polygon fill="#181818" points="480.5,187.8242,490.5,191.8242,480.5,195.8242,484.5,191.8242" style="stroke:#181818;stroke-width:1.0;"/><line style="stroke:#181818;stroke-width:1.0;" x1="266.5" x2="486.5" y1="191.8242" y2="191.8242"/><text fill="#000000" font-family="sans-serif" font-size="13" font-weight="bold" lengthAdjust="spacing" textLength="7" x="273.5" y="186.5615">3</text><text fill="#000000" font-family="sans-serif" font-size="13" lengthAdjust="spacing" textLength="114" x="284.5" y="186.5615">getPropertyOrders()</text><polygon fill="#181818" points="639,219.1152,649,223.1152,639,227.1152,643,223.1152" style="stroke:#181818;stroke-width:1.0;"/><line style="stroke:#181818;stroke-width:1.0;" x1="502.5" x2="645" y1="223.1152" y2="223.1152"/><text fill="#000000" font-family="sans-serif" font-size="13" font-weight="bold" lengthAdjust="spacing" textLength="7" x="509.5" y="217.8525">4</text><text fill="#000000" font-family="sans-serif" font-size="13" lengthAdjust="spacing" textLength="75" x="520.5" y="217.8525">getInstance()</text><polygon fill="#181818" points="513.5,250.4063,503.5,254.4063,513.5,258.4063,509.5,254.4063" style="stroke:#181818;stroke-width:1.0;"/><line style="stroke:#181818;stroke-width:1.0;stroke-dasharray:2.0,2.0;" x1="507.5" x2="655" y1="254.4063" y2="254.4063"/><text fill="#000000" font-family="sans-serif" font-size="13" font-weight="bold" lengthAdjust="spacing" textLength="7" x="519.5" y="249.1436">5</text><text fill="#000000" font-family="sans-serif" font-size="13" lengthAdjust="spacing" textLength="67" x="530.5" y="249.1436">repositories</text><polygon fill="#181818" points="904,281.6973,914,285.6973,904,289.6973,908,285.6973" style="stroke:#181818;stroke-width:1.0;"/><line style="stroke:#181818;stroke-width:1.0;" x1="502.5" x2="910" y1="285.6973" y2="285.6973"/><text fill="#000000" font-family="sans-serif" font-size="13" font-weight="bold" lengthAdjust="spacing" textLength="7" x="509.5" y="280.4346">6</text><text fill="#000000" font-family="sans-serif" font-size="13" lengthAdjust="spacing" textLength="191" x="520.5" y="280.4346">getPurchaseRequestRepository()</text><polygon fill="#181818" points="513.5,312.9883,503.5,316.9883,513.5,320.9883,509.5,316.9883" style="stroke:#181818;stroke-width:1.0;"/><line style="stroke:#181818;stroke-width:1.0;stroke-dasharray:2.0,2.0;" x1="507.5" x2="920" y1="316.9883" y2="316.9883"/><text fill="#000000" font-family="sans-serif" font-size="13" font-weight="bold" lengthAdjust="spacing" textLength="7" x="519.5" y="311.7256">7</text><text fill="#000000" font-family="sans-serif" font-size="13" lengthAdjust="spacing" textLength="107" x="530.5" y="311.7256">propertyOrdersList</text><polygon fill="#181818" points="277.5,344.2793,267.5,348.2793,277.5,352.2793,273.5,348.2793" style="stroke:#181818;stroke-width:1.0;"/><line style="stroke:#181818;stroke-width:1.0;stroke-dasharray:2.0,2.0;" x1="271.5" x2="496.5" y1="348.2793" y2="348.2793"/><text fill="#000000" font-family="sans-serif" font-size="13" font-weight="bold" lengthAdjust="spacing" textLength="7" x="283.5" y="343.0166">8</text><text fill="#000000" font-family="sans-serif" font-size="13" lengthAdjust="spacing" textLength="107" x="294.5" y="343.0166">propertyOrdersList</text><polygon fill="#181818" points="42.5,392.8613,32.5,396.8613,42.5,400.8613,38.5,396.8613" style="stroke:#181818;stroke-width:1.0;"/><line style="stroke:#181818;stroke-width:1.0;stroke-dasharray:2.0,2.0;" x1="36.5" x2="260.5" y1="396.8613" y2="396.8613"/><text fill="#000000" font-family="sans-serif" font-size="13" font-weight="bold" lengthAdjust="spacing" textLength="7" x="48.5" y="382.9531">9</text><text fill="#000000" font-family="sans-serif" font-size="13" lengthAdjust="spacing" textLength="149" x="59.5" y="374.3076">shows property orders list</text><text fill="#000000" font-family="sans-serif" font-size="13" lengthAdjust="spacing" textLength="132" x="63.5" y="391.5986">and asks to select one</text><polygon fill="#181818" points="244.5,424.1523,254.5,428.1523,244.5,432.1523,248.5,428.1523" style="stroke:#181818;stroke-width:1.0;"/><line style="stroke:#181818;stroke-width:1.0;" x1="31.5" x2="250.5" y1="428.1523" y2="428.1523"/><text fill="#000000" font-family="sans-serif" font-size="13" font-weight="bold" lengthAdjust="spacing" textLength="14" x="38.5" y="422.8896">10</text><text fill="#000000" font-family="sans-serif" font-size="13" lengthAdjust="spacing" textLength="137" x="56.5" y="422.8896">selects a property order</text><polygon fill="#181818" points="480.5,455.4434,490.5,459.4434,480.5,463.4434,484.5,459.4434" style="stroke:#181818;stroke-width:1.0;"/><line style="stroke:#181818;stroke-width:1.0;" x1="266.5" x2="486.5" y1="459.4434" y2="459.4434"/><text fill="#000000" font-family="sans-serif" font-size="13" font-weight="bold" lengthAdjust="spacing" textLength="14" x="273.5" y="454.1807">11</text><text fill="#000000" font-family="sans-serif" font-size="13" lengthAdjust="spacing" textLength="128" x="291.5" y="454.1807">listPurchaseRequest()</text><polygon fill="#181818" points="1097.5,486.7344,1107.5,490.7344,1097.5,494.7344,1101.5,490.7344" style="stroke:#181818;stroke-width:1.0;"/><line style="stroke:#181818;stroke-width:1.0;" x1="502.5" x2="1103.5" y1="490.7344" y2="490.7344"/><text fill="#000000" font-family="sans-serif" font-size="13" font-weight="bold" lengthAdjust="spacing" textLength="14" x="509.5" y="485.4717">12</text><text fill="#000000" font-family="sans-serif" font-size="13" lengthAdjust="spacing" textLength="150" x="527.5" y="485.4717">getPurchaseRequestList()</text><polygon fill="#181818" points="513.5,518.0254,503.5,522.0254,513.5,526.0254,509.5,522.0254" style="stroke:#181818;stroke-width:1.0;"/><line style="stroke:#181818;stroke-width:1.0;stroke-dasharray:2.0,2.0;" x1="507.5" x2="1113.5" y1="522.0254" y2="522.0254"/><text fill="#000000" font-family="sans-serif" font-size="13" font-weight="bold" lengthAdjust="spacing" textLength="14" x="519.5" y="516.7627">13</text><text fill="#000000" font-family="sans-serif" font-size="13" lengthAdjust="spacing" textLength="80" x="537.5" y="516.7627">listedProperty</text><polygon fill="#181818" points="277.5,549.3164,267.5,553.3164,277.5,557.3164,273.5,553.3164" style="stroke:#181818;stroke-width:1.0;"/><line style="stroke:#181818;stroke-width:1.0;stroke-dasharray:2.0,2.0;" x1="271.5" x2="496.5" y1="553.3164" y2="553.3164"/><text fill="#000000" font-family="sans-serif" font-size="13" font-weight="bold" lengthAdjust="spacing" textLength="14" x="283.5" y="548.0537">14</text><text fill="#000000" font-family="sans-serif" font-size="13" lengthAdjust="spacing" textLength="80" x="301.5" y="548.0537">listedProperty</text><polygon fill="#181818" points="42.5,580.6074,32.5,584.6074,42.5,588.6074,38.5,584.6074" style="stroke:#181818;stroke-width:1.0;"/><line style="stroke:#181818;stroke-width:1.0;stroke-dasharray:2.0,2.0;" x1="36.5" x2="260.5" y1="584.6074" y2="584.6074"/><text fill="#000000" font-family="sans-serif" font-size="13" font-weight="bold" lengthAdjust="spacing" textLength="14" x="48.5" y="579.3447">15</text><text fill="#000000" font-family="sans-serif" font-size="13" lengthAdjust="spacing" textLength="183" x="66.5" y="579.3447">shows data related to that order</text><polygon fill="#181818" points="42.5,611.8984,32.5,615.8984,42.5,619.8984,38.5,615.8984" style="stroke:#181818;stroke-width:1.0;"/><line style="stroke:#181818;stroke-width:1.0;stroke-dasharray:2.0,2.0;" x1="36.5" x2="260.5" y1="615.8984" y2="615.8984"/><text fill="#000000" font-family="sans-serif" font-size="13" font-weight="bold" lengthAdjust="spacing" textLength="14" x="48.5" y="610.6357">16</text><text fill="#000000" font-family="sans-serif" font-size="13" lengthAdjust="spacing" textLength="132" x="66.5" y="610.6357">asks for decision (Y/N)</text><polygon fill="#181818" points="244.5,643.1895,254.5,647.1895,244.5,651.1895,248.5,647.1895" style="stroke:#181818;stroke-width:1.0;"/><line style="stroke:#181818;stroke-width:1.0;" x1="31.5" x2="250.5" y1="647.1895" y2="647.1895"/><text fill="#000000" font-family="sans-serif" font-size="13" font-weight="bold" lengthAdjust="spacing" textLength="14" x="38.5" y="641.9268">17</text><text fill="#000000" font-family="sans-serif" font-size="13" lengthAdjust="spacing" textLength="113" x="56.5" y="641.9268">accepts or declines</text><path d="M180,662.1895 L245,662.1895 L245,671.4805 L235,681.4805 L180,681.4805 L180,662.1895 " fill="#EEEEEE" style="stroke:#000000;stroke-width:1.5;"/><rect fill="none" height="536.5781" style="stroke:#000000;stroke-width:1.5;" width="1160.5" x="180" y="662.1895"/><text fill="#000000" font-family="sans-serif" font-size="13" font-weight="bold" lengthAdjust="spacing" textLength="20" x="195" y="677.2178">opt</text><text fill="#000000" font-family="sans-serif" font-size="11" font-weight="bold" lengthAdjust="spacing" textLength="120" x="260" y="676.0596">[request is Accepted]</text><polygon fill="#181818" points="480.5,700.7715,490.5,704.7715,480.5,708.7715,484.5,704.7715" style="stroke:#181818;stroke-width:1.0;"/><line style="stroke:#181818;stroke-width:1.0;" x1="266.5" x2="486.5" y1="704.7715" y2="704.7715"/><text fill="#000000" font-family="sans-serif" font-size="13" font-weight="bold" lengthAdjust="spacing" textLength="14" x="273.5" y="699.5088">18</text><text fill="#000000" font-family="sans-serif" font-size="13" lengthAdjust="spacing" textLength="187" x="291.5" y="699.5088">acceptRequest() : send decision</text><polygon fill="#181818" points="1097.5,732.0625,1107.5,736.0625,1097.5,740.0625,1101.5,736.0625" style="stroke:#181818;stroke-width:1.0;"/><line style="stroke:#181818;stroke-width:1.0;" x1="502.5" x2="1103.5" y1="736.0625" y2="736.0625"/><text fill="#000000" font-family="sans-serif" font-size="13" font-weight="bold" lengthAdjust="spacing" textLength="14" x="509.5" y="730.7998">19</text><text fill="#000000" font-family="sans-serif" font-size="13" lengthAdjust="spacing" textLength="124" x="527.5" y="730.7998">removePropertySale()</text><polygon fill="#181818" points="513.5,763.3535,503.5,767.3535,513.5,771.3535,509.5,767.3535" style="stroke:#181818;stroke-width:1.0;"/><line style="stroke:#181818;stroke-width:1.0;stroke-dasharray:2.0,2.0;" x1="507.5" x2="1113.5" y1="767.3535" y2="767.3535"/><text fill="#000000" font-family="sans-serif" font-size="13" font-weight="bold" lengthAdjust="spacing" textLength="14" x="519.5" y="762.0908">20</text><text fill="#000000" font-family="sans-serif" font-size="13" lengthAdjust="spacing" textLength="89" x="537.5" y="762.0908">operation result</text><polygon fill="#181818" points="904,794.6445,914,798.6445,904,802.6445,908,798.6445" style="stroke:#181818;stroke-width:1.0;"/><line style="stroke:#181818;stroke-width:1.0;" x1="502.5" x2="910" y1="798.6445" y2="798.6445"/><text fill="#000000" font-family="sans-serif" font-size="13" font-weight="bold" lengthAdjust="spacing" textLength="14" x="509.5" y="793.3818">21</text><text fill="#000000" font-family="sans-serif" font-size="13" lengthAdjust="spacing" textLength="152" x="527.5" y="793.3818">removePurchaseRequest()</text><polygon fill="#181818" points="513.5,825.9355,503.5,829.9355,513.5,833.9355,509.5,829.9355" style="stroke:#181818;stroke-width:1.0;"/><line style="stroke:#181818;stroke-width:1.0;stroke-dasharray:2.0,2.0;" x1="507.5" x2="920" y1="829.9355" y2="829.9355"/><text fill="#000000" font-family="sans-serif" font-size="13" font-weight="bold" lengthAdjust="spacing" textLength="14" x="519.5" y="824.6729">22</text><text fill="#000000" font-family="sans-serif" font-size="13" lengthAdjust="spacing" textLength="89" x="537.5" y="824.6729">operation result</text><polygon fill="#181818" points="1252.5,857.2266,1262.5,861.2266,1252.5,865.2266,1256.5,861.2266" style="stroke:#181818;stroke-width:1.0;"/><line style="stroke:#181818;stroke-width:1.0;" x1="502.5" x2="1258.5" y1="861.2266" y2="861.2266"/><text fill="#000000" font-family="sans-serif" font-size="13" font-weight="bold" lengthAdjust="spacing" textLength="14" x="509.5" y="855.9639">23</text><text fill="#000000" font-family="sans-serif" font-size="13" lengthAdjust="spacing" textLength="147" x="527.5" y="855.9639">sendNotificationToClient()</text><polygon fill="#181818" points="513.5,888.5176,503.5,892.5176,513.5,896.5176,509.5,892.5176" style="stroke:#181818;stroke-width:1.0;"/><line style="stroke:#181818;stroke-width:1.0;stroke-dasharray:2.0,2.0;" x1="507.5" x2="1268.5" y1="892.5176" y2="892.5176"/><text fill="#000000" font-family="sans-serif" font-size="13" font-weight="bold" lengthAdjust="spacing" textLength="14" x="519.5" y="887.2549">24</text><text fill="#000000" font-family="sans-serif" font-size="13" lengthAdjust="spacing" textLength="89" x="537.5" y="887.2549">operation result</text><polygon fill="#181818" points="904,919.8086,914,923.8086,904,927.8086,908,923.8086" style="stroke:#181818;stroke-width:1.0;"/><line style="stroke:#181818;stroke-width:1.0;" x1="502.5" x2="910" y1="923.8086" y2="923.8086"/><text fill="#000000" font-family="sans-serif" font-size="13" font-weight="bold" lengthAdjust="spacing" textLength="14" x="509.5" y="918.5459">25</text><text fill="#000000" font-family="sans-serif" font-size="13" lengthAdjust="spacing" textLength="167" x="527.5" y="918.5459">removeAllPurchaseRequest()</text><polygon fill="#181818" points="513.5,951.0996,503.5,955.0996,513.5,959.0996,509.5,955.0996" style="stroke:#181818;stroke-width:1.0;"/><line style="stroke:#181818;stroke-width:1.0;stroke-dasharray:2.0,2.0;" x1="507.5" x2="920" y1="955.0996" y2="955.0996"/><text fill="#000000" font-family="sans-serif" font-size="13" font-weight="bold" lengthAdjust="spacing" textLength="14" x="519.5" y="949.8369">26</text><text fill="#000000" font-family="sans-serif" font-size="13" lengthAdjust="spacing" textLength="89" x="537.5" y="949.8369">operation result</text><polygon fill="#181818" points="277.5,982.3906,267.5,986.3906,277.5,990.3906,273.5,986.3906" style="stroke:#181818;stroke-width:1.0;"/><line style="stroke:#181818;stroke-width:1.0;stroke-dasharray:2.0,2.0;" x1="271.5" x2="496.5" y1="986.3906" y2="986.3906"/><text fill="#000000" font-family="sans-serif" font-size="13" font-weight="bold" lengthAdjust="spacing" textLength="14" x="283.5" y="981.1279">27</text><text fill="#000000" font-family="sans-serif" font-size="13" lengthAdjust="spacing" textLength="89" x="301.5" y="981.1279">operation result</text><line style="stroke:#000000;stroke-width:1.0;stroke-dasharray:2.0,2.0;" x1="180" x2="1340.5" y1="995.3906" y2="995.3906"/><text fill="#000000" font-family="sans-serif" font-size="11" font-weight="bold" lengthAdjust="spacing" textLength="115" x="185" y="1007.2607">[request is Declined]</text><polygon fill="#181818" points="480.5,1030.3125,490.5,1034.3125,480.5,1038.3125,484.5,1034.3125" style="stroke:#181818;stroke-width:1.0;"/><line style="stroke:#181818;stroke-width:1.0;" x1="266.5" x2="486.5" y1="1034.3125" y2="1034.3125"/><text fill="#000000" font-family="sans-serif" font-size="13" font-weight="bold" lengthAdjust="spacing" textLength="14" x="273.5" y="1029.0498">28</text><text fill="#000000" font-family="sans-serif" font-size="13" lengthAdjust="spacing" textLength="189" x="291.5" y="1029.0498">declineRequest() : send decision</text><polygon fill="#181818" points="904,1061.6035,914,1065.6035,904,1069.6035,908,1065.6035" style="stroke:#181818;stroke-width:1.0;"/><line style="stroke:#181818;stroke-width:1.0;" x1="502.5" x2="910" y1="1065.6035" y2="1065.6035"/><text fill="#000000" font-family="sans-serif" font-size="13" font-weight="bold" lengthAdjust="spacing" textLength="14" x="509.5" y="1060.3408">29</text><text fill="#000000" font-family="sans-serif" font-size="13" lengthAdjust="spacing" textLength="152" x="527.5" y="1060.3408">removePurchaseRequest()</text><polygon fill="#181818" points="513.5,1092.8945,503.5,1096.8945,513.5,1100.8945,509.5,1096.8945" style="stroke:#181818;stroke-width:1.0;"/><line style="stroke:#181818;stroke-width:1.0;stroke-dasharray:2.0,2.0;" x1="507.5" x2="920" y1="1096.8945" y2="1096.8945"/><text fill="#000000" font-family="sans-serif" font-size="13" font-weight="bold" lengthAdjust="spacing" textLength="14" x="519.5" y="1091.6318">30</text><text fill="#000000" font-family="sans-serif" font-size="13" lengthAdjust="spacing" textLength="89" x="537.5" y="1091.6318">operation result</text><polygon fill="#181818" points="1252.5,1124.1855,1262.5,1128.1855,1252.5,1132.1855,1256.5,1128.1855" style="stroke:#181818;stroke-width:1.0;"/><line style="stroke:#181818;stroke-width:1.0;" x1="502.5" x2="1258.5" y1="1128.1855" y2="1128.1855"/><text fill="#000000" font-family="sans-serif" font-size="13" font-weight="bold" lengthAdjust="spacing" textLength="14" x="509.5" y="1122.9229">31</text><text fill="#000000" font-family="sans-serif" font-size="13" lengthAdjust="spacing" textLength="147" x="527.5" y="1122.9229">sendNotificationToClient()</text><polygon fill="#181818" points="513.5,1155.4766,503.5,1159.4766,513.5,1163.4766,509.5,1159.4766" style="stroke:#181818;stroke-width:1.0;"/><line style="stroke:#181818;stroke-width:1.0;stroke-dasharray:2.0,2.0;" x1="507.5" x2="1268.5" y1="1159.4766" y2="1159.4766"/><text fill="#000000" font-family="sans-serif" font-size="13" font-weight="bold" lengthAdjust="spacing" textLength="14" x="519.5" y="1154.2139">32</text><text fill="#000000" font-family="sans-serif" font-size="13" lengthAdjust="spacing" textLength="89" x="537.5" y="1154.2139">operation result</text><polygon fill="#181818" points="277.5,1186.7676,267.5,1190.7676,277.5,1194.7676,273.5,1190.7676" style="stroke:#181818;stroke-width:1.0;"/><line style="stroke:#181818;stroke-width:1.0;stroke-dasharray:2.0,2.0;" x1="271.5" x2="496.5" y1="1190.7676" y2="1190.7676"/><text fill="#000000" font-family="sans-serif" font-size="13" font-weight="bold" lengthAdjust="spacing" textLength="14" x="283.5" y="1185.5049">33</text><text fill="#000000" font-family="sans-serif" font-size="13" lengthAdjust="spacing" textLength="89" x="301.5" y="1185.5049">operation result</text><polygon fill="#181818" points="37.5,1225.0586,27.5,1229.0586,37.5,1233.0586,33.5,1229.0586" style="stroke:#181818;stroke-width:1.0;"/><line style="stroke:#181818;stroke-width:1.0;stroke-dasharray:2.0,2.0;" x1="31.5" x2="260.5" y1="1229.0586" y2="1229.0586"/><text fill="#000000" font-family="sans-serif" font-size="13" font-weight="bold" lengthAdjust="spacing" textLength="14" x="43.5" y="1223.7959">34</text><text fill="#000000" font-family="sans-serif" font-size="13" lengthAdjust="spacing" textLength="89" x="61.5" y="1223.7959">operation result</text><!--SRC=[tLV9RkCm3BthAuHUkg31t7Ce4BIN0frEqUKmG2-gp2H25SaZoUtqxuUIbrZoKhlBPNnAJFAHr2EVRViiLCuCsz6TLfflZTu1TQO0OXjBplWpsy2TUvD03N37r4Qs7UoMPVfLg0rTCsc145OuhOhT4nX23hSY0xhMsZtfluHnfmqzM6r0kGFAB0s_2E8umKNEbAC7ovl2y2spS0j_2h3kuJ9uFbmcRbV2kXkZSp3kxPV9mDXphPpHKe894UVtjrT9p2tasWgiGO0DFisDjplXsyB2un3JYdXKNO2RgzLz796Kly-mV5I3jX9ho9eag9g-On9Yz5v32TrhYd7FfK0o8iJqLdckoKtYQHKlp4559w7L5VxInHcIHvSO-cofqrGYSJIl2g8wKBUFQR2GS798MnU2B11hTV4JmKnvHfPcp35wP60D1XI7Kvg1vKRaJcXrIgbGQsrsJD975LiSyAqI72tHxQmmhFp5jNN7f5t08JVWAmk3bLPs5cwVd61jfHiPS4673IIJUnGdQiuWP8fC_WeeYDOpl2NufRAufHmIs0YwR_8xtlxgoxAeUl4yx1UY4vx1l7HrOuEBK9tTa7cit-7bwkrwk8J5diSy8j4BqjWHpAYWF8XwSTv9qqhHdPTwQS8cBb6hzQjDbozi9Eu7Krcpf1OaIZtL2aXF7h-RtGKlOonbIGBIsUlEHlWAalEfoEpfhHcJNb7hdH5_Q2dWW2O6fm7eHLmnPBKVIRaUmOx97SU92UqbCmYW0OdkcMVERPbhdNiFQmbCe1nL4bsviAXzzEZtZ-jZCebpnZdao7aPBeMgPA0JfdDNYpOL-E0FSP1rPp-QYnA-cOWmP3YbTQN3wpwkd8EJOs2dNw1j7jMK4POZCNbtchmzF7Um0bl8SHsPc7MAcbRzzcxUPsLqaeJEQdokW9vrtbMg0RhMJgpnuUyJt-lIQQphxYjF9s6Qw8CzJiWqcTQLbFyhixNyp3hQHX80FrFQOdHHAbVM_oeG2L8bSjCLQO8gVVMoVljxpxkd_d5wlsvvPoxmfvTuzY9_O9g79zg_kaatFC2jv_tSBFu9tlfRVkFz0m00]--></g></svg>