<?xml version="1.0" encoding="us-ascii" standalone="no"?><svg xmlns="http://www.w3.org/2000/svg" xmlns:xlink="http://www.w3.org/1999/xlink" contentStyleType="text/css" height="1107px" preserveAspectRatio="none" style="width:979px;height:1107px;background:#FFFFFF;" version="1.1" viewBox="0 0 979 1107" width="979px" zoomAndPan="magnify"><defs/><g><!--class User--><g id="elem_User"><rect codeLine="11" fill="#F1F1F1" height="159.7266" id="User" rx="2.5" ry="2.5" style="stroke:#181818;stroke-width:0.5;" width="163" x="809.5" y="448"/><ellipse cx="872.25" cy="464" fill="#ADD1B2" rx="11" ry="11" style="stroke:#181818;stroke-width:1.0;"/><path d="M875.0156,459.875 Q875.1719,459.6563 875.3594,459.5469 Q875.5469,459.4375 875.7656,459.4375 Q876.1406,459.4375 876.375,459.7031 Q876.6094,459.9531 876.6094,460.5625 L876.6094,462.0156 Q876.6094,462.625 876.375,462.8906 Q876.1406,463.1563 875.7656,463.1563 Q875.4219,463.1563 875.2188,462.9531 Q875.0156,462.7656 874.9063,462.25 Q874.8594,461.8906 874.6719,461.7031 Q874.3438,461.3281 873.7344,461.1094 Q873.125,460.8906 872.5,460.8906 Q871.7344,460.8906 871.0938,461.2188 Q870.4688,461.5469 869.9688,462.2969 Q869.4844,463.0469 869.4844,464.0781 L869.4844,465.1719 Q869.4844,466.4063 870.375,467.2344 Q871.2656,468.0469 872.8594,468.0469 Q873.7969,468.0469 874.4531,467.7969 Q874.8438,467.6406 875.2656,467.2031 Q875.5313,466.9375 875.6719,466.8594 Q875.8281,466.7813 876.0313,466.7813 Q876.3594,466.7813 876.6094,467.0469 Q876.875,467.2969 876.875,467.6406 Q876.875,467.9844 876.5313,468.3906 Q876.0313,468.9688 875.2344,469.2969 Q874.1563,469.75 872.8594,469.75 Q871.3438,469.75 870.1406,469.125 Q869.1563,468.625 868.4688,467.5625 Q867.7813,466.4844 867.7813,465.2031 L867.7813,464.0469 Q867.7813,462.7188 868.3906,461.5781 Q869.0156,460.4219 870.1094,459.8125 Q871.2031,459.1875 872.4375,459.1875 Q873.1719,459.1875 873.8125,459.3594 Q874.4688,459.5156 875.0156,459.875 Z " fill="#000000"/><text fill="#000000" font-family="sans-serif" font-size="14" lengthAdjust="spacing" textLength="29" x="892.75" y="469.7969">User</text><line style="stroke:#181818;stroke-width:0.5;" x1="810.5" x2="971.5" y1="480" y2="480"/><text fill="#000000" font-family="sans-serif" font-size="14" lengthAdjust="spacing" textLength="89" x="815.5" y="499.1074">-name : String</text><text fill="#000000" font-family="sans-serif" font-size="14" lengthAdjust="spacing" textLength="139" x="815.5" y="517.7285">-emailAddress : String</text><text fill="#000000" font-family="sans-serif" font-size="14" lengthAdjust="spacing" textLength="144" x="815.5" y="536.3496">-telephoneNumber : int</text><text fill="#000000" font-family="sans-serif" font-size="14" lengthAdjust="spacing" textLength="151" x="815.5" y="554.9707">-citizenCardNumber : int</text><text fill="#000000" font-family="sans-serif" font-size="14" lengthAdjust="spacing" textLength="99" x="815.5" y="573.5918">-taxNumber : int</text><text fill="#000000" font-family="sans-serif" font-size="14" lengthAdjust="spacing" textLength="120" x="815.5" y="592.2129">-address : Address</text><line style="stroke:#181818;stroke-width:0.5;" x1="810.5" x2="971.5" y1="599.7266" y2="599.7266"/></g><!--class Store--><g id="elem_Store"><rect codeLine="20" fill="#F1F1F1" height="48" id="Store" rx="2.5" ry="2.5" style="stroke:#181818;stroke-width:0.5;" width="66" x="684" y="870"/><ellipse cx="699" cy="886" fill="#ADD1B2" rx="11" ry="11" style="stroke:#181818;stroke-width:1.0;"/><path d="M701.7656,881.875 Q701.9219,881.6563 702.1094,881.5469 Q702.2969,881.4375 702.5156,881.4375 Q702.8906,881.4375 703.125,881.7031 Q703.3594,881.9531 703.3594,882.5625 L703.3594,884.0156 Q703.3594,884.625 703.125,884.8906 Q702.8906,885.1563 702.5156,885.1563 Q702.1719,885.1563 701.9688,884.9531 Q701.7656,884.7656 701.6563,884.25 Q701.6094,883.8906 701.4219,883.7031 Q701.0938,883.3281 700.4844,883.1094 Q699.875,882.8906 699.25,882.8906 Q698.4844,882.8906 697.8438,883.2188 Q697.2188,883.5469 696.7188,884.2969 Q696.2344,885.0469 696.2344,886.0781 L696.2344,887.1719 Q696.2344,888.4063 697.125,889.2344 Q698.0156,890.0469 699.6094,890.0469 Q700.5469,890.0469 701.2031,889.7969 Q701.5938,889.6406 702.0156,889.2031 Q702.2813,888.9375 702.4219,888.8594 Q702.5781,888.7813 702.7813,888.7813 Q703.1094,888.7813 703.3594,889.0469 Q703.625,889.2969 703.625,889.6406 Q703.625,889.9844 703.2813,890.3906 Q702.7813,890.9688 701.9844,891.2969 Q700.9063,891.75 699.6094,891.75 Q698.0938,891.75 696.8906,891.125 Q695.9063,890.625 695.2188,889.5625 Q694.5313,888.4844 694.5313,887.2031 L694.5313,886.0469 Q694.5313,884.7188 695.1406,883.5781 Q695.7656,882.4219 696.8594,881.8125 Q697.9531,881.1875 699.1875,881.1875 Q699.9219,881.1875 700.5625,881.3594 Q701.2188,881.5156 701.7656,881.875 Z " fill="#000000"/><text fill="#000000" font-family="sans-serif" font-size="14" lengthAdjust="spacing" textLength="34" x="713" y="891.7969">Store</text><line style="stroke:#181818;stroke-width:0.5;" x1="685" x2="749" y1="902" y2="902"/><line style="stroke:#181818;stroke-width:0.5;" x1="685" x2="749" y1="910" y2="910"/></g><!--class Employee--><g id="elem_Employee"><rect codeLine="24" fill="#F1F1F1" height="85.2422" id="Employee" rx="2.5" ry="2.5" style="stroke:#181818;stroke-width:0.5;" width="112" x="661" y="669"/><ellipse cx="684.1" cy="685" fill="#ADD1B2" rx="11" ry="11" style="stroke:#181818;stroke-width:1.0;"/><path d="M686.8656,680.875 Q687.0219,680.6563 687.2094,680.5469 Q687.3969,680.4375 687.6156,680.4375 Q687.9906,680.4375 688.225,680.7031 Q688.4594,680.9531 688.4594,681.5625 L688.4594,683.0156 Q688.4594,683.625 688.225,683.8906 Q687.9906,684.1563 687.6156,684.1563 Q687.2719,684.1563 687.0688,683.9531 Q686.8656,683.7656 686.7563,683.25 Q686.7094,682.8906 686.5219,682.7031 Q686.1938,682.3281 685.5844,682.1094 Q684.975,681.8906 684.35,681.8906 Q683.5844,681.8906 682.9438,682.2188 Q682.3188,682.5469 681.8188,683.2969 Q681.3344,684.0469 681.3344,685.0781 L681.3344,686.1719 Q681.3344,687.4063 682.225,688.2344 Q683.1156,689.0469 684.7094,689.0469 Q685.6469,689.0469 686.3031,688.7969 Q686.6938,688.6406 687.1156,688.2031 Q687.3813,687.9375 687.5219,687.8594 Q687.6781,687.7813 687.8813,687.7813 Q688.2094,687.7813 688.4594,688.0469 Q688.725,688.2969 688.725,688.6406 Q688.725,688.9844 688.3813,689.3906 Q687.8813,689.9688 687.0844,690.2969 Q686.0063,690.75 684.7094,690.75 Q683.1938,690.75 681.9906,690.125 Q681.0063,689.625 680.3188,688.5625 Q679.6313,687.4844 679.6313,686.2031 L679.6313,685.0469 Q679.6313,683.7188 680.2406,682.5781 Q680.8656,681.4219 681.9594,680.8125 Q683.0531,680.1875 684.2875,680.1875 Q685.0219,680.1875 685.6625,680.3594 Q686.3188,680.5156 686.8656,680.875 Z " fill="#000000"/><text fill="#000000" font-family="sans-serif" font-size="14" lengthAdjust="spacing" textLength="62" x="699.9" y="690.7969">Employee</text><line style="stroke:#181818;stroke-width:0.5;" x1="662" x2="772" y1="701" y2="701"/><text fill="#000000" font-family="sans-serif" font-size="14" lengthAdjust="spacing" textLength="100" x="667" y="720.1074">-agency : String</text><text fill="#000000" font-family="sans-serif" font-size="14" lengthAdjust="spacing" textLength="78" x="667" y="738.7285">-role : String</text><line style="stroke:#181818;stroke-width:0.5;" x1="662" x2="772" y1="746.2422" y2="746.2422"/></g><!--class Agent--><g id="elem_Agent"><rect codeLine="29" fill="#F1F1F1" height="48" id="Agent" rx="2.5" ry="2.5" style="stroke:#181818;stroke-width:0.5;" width="69" x="560.5" y="870"/><ellipse cx="575.5" cy="886" fill="#ADD1B2" rx="11" ry="11" style="stroke:#181818;stroke-width:1.0;"/><path d="M578.2656,881.875 Q578.4219,881.6563 578.6094,881.5469 Q578.7969,881.4375 579.0156,881.4375 Q579.3906,881.4375 579.625,881.7031 Q579.8594,881.9531 579.8594,882.5625 L579.8594,884.0156 Q579.8594,884.625 579.625,884.8906 Q579.3906,885.1563 579.0156,885.1563 Q578.6719,885.1563 578.4688,884.9531 Q578.2656,884.7656 578.1563,884.25 Q578.1094,883.8906 577.9219,883.7031 Q577.5938,883.3281 576.9844,883.1094 Q576.375,882.8906 575.75,882.8906 Q574.9844,882.8906 574.3438,883.2188 Q573.7188,883.5469 573.2188,884.2969 Q572.7344,885.0469 572.7344,886.0781 L572.7344,887.1719 Q572.7344,888.4063 573.625,889.2344 Q574.5156,890.0469 576.1094,890.0469 Q577.0469,890.0469 577.7031,889.7969 Q578.0938,889.6406 578.5156,889.2031 Q578.7813,888.9375 578.9219,888.8594 Q579.0781,888.7813 579.2813,888.7813 Q579.6094,888.7813 579.8594,889.0469 Q580.125,889.2969 580.125,889.6406 Q580.125,889.9844 579.7813,890.3906 Q579.2813,890.9688 578.4844,891.2969 Q577.4063,891.75 576.1094,891.75 Q574.5938,891.75 573.3906,891.125 Q572.4063,890.625 571.7188,889.5625 Q571.0313,888.4844 571.0313,887.2031 L571.0313,886.0469 Q571.0313,884.7188 571.6406,883.5781 Q572.2656,882.4219 573.3594,881.8125 Q574.4531,881.1875 575.6875,881.1875 Q576.4219,881.1875 577.0625,881.3594 Q577.7188,881.5156 578.2656,881.875 Z " fill="#000000"/><text fill="#000000" font-family="sans-serif" font-size="14" lengthAdjust="spacing" textLength="37" x="589.5" y="891.7969">Agent</text><line style="stroke:#181818;stroke-width:0.5;" x1="561.5" x2="628.5" y1="902" y2="902"/><line style="stroke:#181818;stroke-width:0.5;" x1="561.5" x2="628.5" y1="910" y2="910"/></g><!--class Client--><g id="elem_Client"><rect codeLine="33" fill="#F1F1F1" height="48" id="Client" rx="2.5" ry="2.5" style="stroke:#181818;stroke-width:0.5;" width="68" x="857" y="687.5"/><ellipse cx="872" cy="703.5" fill="#ADD1B2" rx="11" ry="11" style="stroke:#181818;stroke-width:1.0;"/><path d="M874.7656,699.375 Q874.9219,699.1563 875.1094,699.0469 Q875.2969,698.9375 875.5156,698.9375 Q875.8906,698.9375 876.125,699.2031 Q876.3594,699.4531 876.3594,700.0625 L876.3594,701.5156 Q876.3594,702.125 876.125,702.3906 Q875.8906,702.6563 875.5156,702.6563 Q875.1719,702.6563 874.9688,702.4531 Q874.7656,702.2656 874.6563,701.75 Q874.6094,701.3906 874.4219,701.2031 Q874.0938,700.8281 873.4844,700.6094 Q872.875,700.3906 872.25,700.3906 Q871.4844,700.3906 870.8438,700.7188 Q870.2188,701.0469 869.7188,701.7969 Q869.2344,702.5469 869.2344,703.5781 L869.2344,704.6719 Q869.2344,705.9063 870.125,706.7344 Q871.0156,707.5469 872.6094,707.5469 Q873.5469,707.5469 874.2031,707.2969 Q874.5938,707.1406 875.0156,706.7031 Q875.2813,706.4375 875.4219,706.3594 Q875.5781,706.2813 875.7813,706.2813 Q876.1094,706.2813 876.3594,706.5469 Q876.625,706.7969 876.625,707.1406 Q876.625,707.4844 876.2813,707.8906 Q875.7813,708.4688 874.9844,708.7969 Q873.9063,709.25 872.6094,709.25 Q871.0938,709.25 869.8906,708.625 Q868.9063,708.125 868.2188,707.0625 Q867.5313,705.9844 867.5313,704.7031 L867.5313,703.5469 Q867.5313,702.2188 868.1406,701.0781 Q868.7656,699.9219 869.8594,699.3125 Q870.9531,698.6875 872.1875,698.6875 Q872.9219,698.6875 873.5625,698.8594 Q874.2188,699.0156 874.7656,699.375 Z " fill="#000000"/><text fill="#000000" font-family="sans-serif" font-size="14" lengthAdjust="spacing" textLength="36" x="886" y="709.2969">Client</text><line style="stroke:#181818;stroke-width:0.5;" x1="858" x2="924" y1="719.5" y2="719.5"/><line style="stroke:#181818;stroke-width:0.5;" x1="858" x2="924" y1="727.5" y2="727.5"/></g><!--class PurchaseRequest--><g id="elem_PurchaseRequest"><rect codeLine="37" fill="#F1F1F1" height="103.8633" id="PurchaseRequest" rx="2.5" ry="2.5" style="stroke:#181818;stroke-width:0.5;" width="177" x="419.5" y="265"/><ellipse cx="448.9" cy="281" fill="#ADD1B2" rx="11" ry="11" style="stroke:#181818;stroke-width:1.0;"/><path d="M451.6656,276.875 Q451.8219,276.6563 452.0094,276.5469 Q452.1969,276.4375 452.4156,276.4375 Q452.7906,276.4375 453.025,276.7031 Q453.2594,276.9531 453.2594,277.5625 L453.2594,279.0156 Q453.2594,279.625 453.025,279.8906 Q452.7906,280.1563 452.4156,280.1563 Q452.0719,280.1563 451.8688,279.9531 Q451.6656,279.7656 451.5563,279.25 Q451.5094,278.8906 451.3219,278.7031 Q450.9938,278.3281 450.3844,278.1094 Q449.775,277.8906 449.15,277.8906 Q448.3844,277.8906 447.7438,278.2188 Q447.1188,278.5469 446.6188,279.2969 Q446.1344,280.0469 446.1344,281.0781 L446.1344,282.1719 Q446.1344,283.4063 447.025,284.2344 Q447.9156,285.0469 449.5094,285.0469 Q450.4469,285.0469 451.1031,284.7969 Q451.4938,284.6406 451.9156,284.2031 Q452.1813,283.9375 452.3219,283.8594 Q452.4781,283.7813 452.6813,283.7813 Q453.0094,283.7813 453.2594,284.0469 Q453.525,284.2969 453.525,284.6406 Q453.525,284.9844 453.1813,285.3906 Q452.6813,285.9688 451.8844,286.2969 Q450.8063,286.75 449.5094,286.75 Q447.9938,286.75 446.7906,286.125 Q445.8063,285.625 445.1188,284.5625 Q444.4313,283.4844 444.4313,282.2031 L444.4313,281.0469 Q444.4313,279.7188 445.0406,278.5781 Q445.6656,277.4219 446.7594,276.8125 Q447.8531,276.1875 449.0875,276.1875 Q449.8219,276.1875 450.4625,276.3594 Q451.1188,276.5156 451.6656,276.875 Z " fill="#000000"/><text fill="#000000" font-family="sans-serif" font-size="14" lengthAdjust="spacing" textLength="113" x="466.1" y="286.7969">PurchaseRequest</text><line style="stroke:#181818;stroke-width:0.5;" x1="420.5" x2="595.5" y1="297" y2="297"/><text fill="#000000" font-family="sans-serif" font-size="14" lengthAdjust="spacing" textLength="153" x="425.5" y="316.1074">-typeOfBusiness : String</text><text fill="#000000" font-family="sans-serif" font-size="14" lengthAdjust="spacing" textLength="140" x="425.5" y="334.7285">-requestedPrice : float</text><line style="stroke:#181818;stroke-width:0.5;" x1="420.5" x2="595.5" y1="342.2422" y2="342.2422"/><text fill="#000000" font-family="sans-serif" font-size="14" lengthAdjust="spacing" textLength="165" x="425.5" y="361.3496">+sortByPriceComparator()</text></g><!--class PropertySaleRepository--><g id="elem_PropertySaleRepository"><rect codeLine="44" fill="#F1F1F1" height="122.4844" id="PropertySaleRepository" rx="2.5" ry="2.5" style="stroke:#181818;stroke-width:0.5;" width="212" x="313" y="833"/><ellipse cx="341.5" cy="849" fill="#ADD1B2" rx="11" ry="11" style="stroke:#181818;stroke-width:1.0;"/><path d="M344.2656,844.875 Q344.4219,844.6563 344.6094,844.5469 Q344.7969,844.4375 345.0156,844.4375 Q345.3906,844.4375 345.625,844.7031 Q345.8594,844.9531 345.8594,845.5625 L345.8594,847.0156 Q345.8594,847.625 345.625,847.8906 Q345.3906,848.1563 345.0156,848.1563 Q344.6719,848.1563 344.4688,847.9531 Q344.2656,847.7656 344.1563,847.25 Q344.1094,846.8906 343.9219,846.7031 Q343.5938,846.3281 342.9844,846.1094 Q342.375,845.8906 341.75,845.8906 Q340.9844,845.8906 340.3438,846.2188 Q339.7188,846.5469 339.2188,847.2969 Q338.7344,848.0469 338.7344,849.0781 L338.7344,850.1719 Q338.7344,851.4063 339.625,852.2344 Q340.5156,853.0469 342.1094,853.0469 Q343.0469,853.0469 343.7031,852.7969 Q344.0938,852.6406 344.5156,852.2031 Q344.7813,851.9375 344.9219,851.8594 Q345.0781,851.7813 345.2813,851.7813 Q345.6094,851.7813 345.8594,852.0469 Q346.125,852.2969 346.125,852.6406 Q346.125,852.9844 345.7813,853.3906 Q345.2813,853.9688 344.4844,854.2969 Q343.4063,854.75 342.1094,854.75 Q340.5938,854.75 339.3906,854.125 Q338.4063,853.625 337.7188,852.5625 Q337.0313,851.4844 337.0313,850.2031 L337.0313,849.0469 Q337.0313,847.7188 337.6406,846.5781 Q338.2656,845.4219 339.3594,844.8125 Q340.4531,844.1875 341.6875,844.1875 Q342.4219,844.1875 343.0625,844.3594 Q343.7188,844.5156 344.2656,844.875 Z " fill="#000000"/><text fill="#000000" font-family="sans-serif" font-size="14" lengthAdjust="spacing" textLength="150" x="358.5" y="854.7969">PropertySaleRepository</text><line style="stroke:#181818;stroke-width:0.5;" x1="314" x2="524" y1="865" y2="865"/><text fill="#000000" font-family="sans-serif" font-size="14" lengthAdjust="spacing" textLength="117" x="319" y="884.1074">-commission : float</text><text fill="#000000" font-family="sans-serif" font-size="14" lengthAdjust="spacing" textLength="172" x="319" y="902.7285">-typeOfCommission : String</text><line style="stroke:#181818;stroke-width:0.5;" x1="314" x2="524" y1="910.2422" y2="910.2422"/><text fill="#000000" font-family="sans-serif" font-size="14" lengthAdjust="spacing" textLength="200" x="319" y="929.3496">+removePropertySaleRequest()</text><text fill="#000000" font-family="sans-serif" font-size="14" lengthAdjust="spacing" textLength="141" x="319" y="947.9707">+getPropertiesListed()</text></g><!--class PurchaseRequestRepository--><g id="elem_PurchaseRequestRepository"><rect codeLine="52" fill="#F1F1F1" height="159.7266" id="PurchaseRequestRepository" rx="2.5" ry="2.5" style="stroke:#181818;stroke-width:0.5;" width="213" x="561.5" y="448"/><ellipse cx="576.5" cy="464" fill="#ADD1B2" rx="11" ry="11" style="stroke:#181818;stroke-width:1.0;"/><path d="M579.2656,459.875 Q579.4219,459.6563 579.6094,459.5469 Q579.7969,459.4375 580.0156,459.4375 Q580.3906,459.4375 580.625,459.7031 Q580.8594,459.9531 580.8594,460.5625 L580.8594,462.0156 Q580.8594,462.625 580.625,462.8906 Q580.3906,463.1563 580.0156,463.1563 Q579.6719,463.1563 579.4688,462.9531 Q579.2656,462.7656 579.1563,462.25 Q579.1094,461.8906 578.9219,461.7031 Q578.5938,461.3281 577.9844,461.1094 Q577.375,460.8906 576.75,460.8906 Q575.9844,460.8906 575.3438,461.2188 Q574.7188,461.5469 574.2188,462.2969 Q573.7344,463.0469 573.7344,464.0781 L573.7344,465.1719 Q573.7344,466.4063 574.625,467.2344 Q575.5156,468.0469 577.1094,468.0469 Q578.0469,468.0469 578.7031,467.7969 Q579.0938,467.6406 579.5156,467.2031 Q579.7813,466.9375 579.9219,466.8594 Q580.0781,466.7813 580.2813,466.7813 Q580.6094,466.7813 580.8594,467.0469 Q581.125,467.2969 581.125,467.6406 Q581.125,467.9844 580.7813,468.3906 Q580.2813,468.9688 579.4844,469.2969 Q578.4063,469.75 577.1094,469.75 Q575.5938,469.75 574.3906,469.125 Q573.4063,468.625 572.7188,467.5625 Q572.0313,466.4844 572.0313,465.2031 L572.0313,464.0469 Q572.0313,462.7188 572.6406,461.5781 Q573.2656,460.4219 574.3594,459.8125 Q575.4531,459.1875 576.6875,459.1875 Q577.4219,459.1875 578.0625,459.3594 Q578.7188,459.5156 579.2656,459.875 Z " fill="#000000"/><text fill="#000000" font-family="sans-serif" font-size="14" lengthAdjust="spacing" textLength="181" x="590.5" y="469.7969">PurchaseRequestRepository</text><line style="stroke:#181818;stroke-width:0.5;" x1="562.5" x2="773.5" y1="480" y2="480"/><line style="stroke:#181818;stroke-width:0.5;" x1="562.5" x2="773.5" y1="488" y2="488"/><text fill="#000000" font-family="sans-serif" font-size="14" lengthAdjust="spacing" textLength="152" x="567.5" y="507.1074">-addPurchaseRequest()</text><text fill="#000000" font-family="sans-serif" font-size="14" lengthAdjust="spacing" textLength="171" x="567.5" y="525.7285">+createPurchaseRequest()</text><text fill="#000000" font-family="sans-serif" font-size="14" lengthAdjust="spacing" textLength="178" x="567.5" y="544.3496">+removePurchaseRequest()</text><text fill="#000000" font-family="sans-serif" font-size="14" lengthAdjust="spacing" textLength="193" x="567.5" y="562.9707">+removeAllPurchaseRequest()</text><text fill="#000000" font-family="sans-serif" font-size="14" lengthAdjust="spacing" textLength="104" x="567.5" y="581.5918">+listProperties();</text><text fill="#000000" font-family="sans-serif" font-size="14" lengthAdjust="spacing" textLength="155" x="567.5" y="600.2129">+listPurchaseRequests()</text></g><!--class ClientRepository--><g id="elem_ClientRepository"><rect codeLine="61" fill="#F1F1F1" height="66.6211" id="ClientRepository" rx="2.5" ry="2.5" style="stroke:#181818;stroke-width:0.5;" width="136" x="221" y="1034"/><ellipse cx="236" cy="1050" fill="#ADD1B2" rx="11" ry="11" style="stroke:#181818;stroke-width:1.0;"/><path d="M238.7656,1045.875 Q238.9219,1045.6563 239.1094,1045.5469 Q239.2969,1045.4375 239.5156,1045.4375 Q239.8906,1045.4375 240.125,1045.7031 Q240.3594,1045.9531 240.3594,1046.5625 L240.3594,1048.0156 Q240.3594,1048.625 240.125,1048.8906 Q239.8906,1049.1563 239.5156,1049.1563 Q239.1719,1049.1563 238.9688,1048.9531 Q238.7656,1048.7656 238.6563,1048.25 Q238.6094,1047.8906 238.4219,1047.7031 Q238.0938,1047.3281 237.4844,1047.1094 Q236.875,1046.8906 236.25,1046.8906 Q235.4844,1046.8906 234.8438,1047.2188 Q234.2188,1047.5469 233.7188,1048.2969 Q233.2344,1049.0469 233.2344,1050.0781 L233.2344,1051.1719 Q233.2344,1052.4063 234.125,1053.2344 Q235.0156,1054.0469 236.6094,1054.0469 Q237.5469,1054.0469 238.2031,1053.7969 Q238.5938,1053.6406 239.0156,1053.2031 Q239.2813,1052.9375 239.4219,1052.8594 Q239.5781,1052.7813 239.7813,1052.7813 Q240.1094,1052.7813 240.3594,1053.0469 Q240.625,1053.2969 240.625,1053.6406 Q240.625,1053.9844 240.2813,1054.3906 Q239.7813,1054.9688 238.9844,1055.2969 Q237.9063,1055.75 236.6094,1055.75 Q235.0938,1055.75 233.8906,1055.125 Q232.9063,1054.625 232.2188,1053.5625 Q231.5313,1052.4844 231.5313,1051.2031 L231.5313,1050.0469 Q231.5313,1048.7188 232.1406,1047.5781 Q232.7656,1046.4219 233.8594,1045.8125 Q234.9531,1045.1875 236.1875,1045.1875 Q236.9219,1045.1875 237.5625,1045.3594 Q238.2188,1045.5156 238.7656,1045.875 Z " fill="#000000"/><text fill="#000000" font-family="sans-serif" font-size="14" lengthAdjust="spacing" textLength="104" x="250" y="1055.7969">ClientRepository</text><line style="stroke:#181818;stroke-width:0.5;" x1="222" x2="356" y1="1066" y2="1066"/><line style="stroke:#181818;stroke-width:0.5;" x1="222" x2="356" y1="1074" y2="1074"/><text fill="#000000" font-family="sans-serif" font-size="14" lengthAdjust="spacing" textLength="88" x="227" y="1093.1074">+notifyClient()</text></g><!--class Repositories--><g id="elem_Repositories"><rect codeLine="65" fill="#F1F1F1" height="103.8633" id="Repositories" rx="2.5" ry="2.5" style="stroke:#181818;stroke-width:0.5;" width="231" x="144.5" y="476"/><ellipse cx="216.25" cy="492" fill="#ADD1B2" rx="11" ry="11" style="stroke:#181818;stroke-width:1.0;"/><path d="M219.0156,487.875 Q219.1719,487.6563 219.3594,487.5469 Q219.5469,487.4375 219.7656,487.4375 Q220.1406,487.4375 220.375,487.7031 Q220.6094,487.9531 220.6094,488.5625 L220.6094,490.0156 Q220.6094,490.625 220.375,490.8906 Q220.1406,491.1563 219.7656,491.1563 Q219.4219,491.1563 219.2188,490.9531 Q219.0156,490.7656 218.9063,490.25 Q218.8594,489.8906 218.6719,489.7031 Q218.3438,489.3281 217.7344,489.1094 Q217.125,488.8906 216.5,488.8906 Q215.7344,488.8906 215.0938,489.2188 Q214.4688,489.5469 213.9688,490.2969 Q213.4844,491.0469 213.4844,492.0781 L213.4844,493.1719 Q213.4844,494.4063 214.375,495.2344 Q215.2656,496.0469 216.8594,496.0469 Q217.7969,496.0469 218.4531,495.7969 Q218.8438,495.6406 219.2656,495.2031 Q219.5313,494.9375 219.6719,494.8594 Q219.8281,494.7813 220.0313,494.7813 Q220.3594,494.7813 220.6094,495.0469 Q220.875,495.2969 220.875,495.6406 Q220.875,495.9844 220.5313,496.3906 Q220.0313,496.9688 219.2344,497.2969 Q218.1563,497.75 216.8594,497.75 Q215.3438,497.75 214.1406,497.125 Q213.1563,496.625 212.4688,495.5625 Q211.7813,494.4844 211.7813,493.2031 L211.7813,492.0469 Q211.7813,490.7188 212.3906,489.5781 Q213.0156,488.4219 214.1094,487.8125 Q215.2031,487.1875 216.4375,487.1875 Q217.1719,487.1875 217.8125,487.3594 Q218.4688,487.5156 219.0156,487.875 Z " fill="#000000"/><text fill="#000000" font-family="sans-serif" font-size="14" lengthAdjust="spacing" textLength="79" x="236.75" y="497.7969">Repositories</text><line style="stroke:#181818;stroke-width:0.5;" x1="145.5" x2="374.5" y1="508" y2="508"/><line style="stroke:#181818;stroke-width:0.5;" x1="145.5" x2="374.5" y1="516" y2="516"/><text fill="#000000" font-family="sans-serif" font-size="14" lengthAdjust="spacing" textLength="94" x="150.5" y="535.1074">-Repositories()</text><text fill="#000000" font-family="sans-serif" font-size="14" lengthAdjust="spacing" textLength="182" x="150.5" y="553.7285">+getInstance() : Repositories</text><text fill="#000000" font-family="sans-serif" font-size="14" lengthAdjust="spacing" textLength="219" x="150.5" y="572.3496">+getPurchaseRequestRepository()</text></g><!--class ListPurchaseRequestsUI--><g id="elem_ListPurchaseRequestsUI"><rect codeLine="72" fill="#F1F1F1" height="48" id="ListPurchaseRequestsUI" rx="2.5" ry="2.5" style="stroke:#181818;stroke-width:0.5;" width="186" x="7" y="81.5"/><ellipse cx="22" cy="97.5" fill="#ADD1B2" rx="11" ry="11" style="stroke:#181818;stroke-width:1.0;"/><path d="M24.7656,93.375 Q24.9219,93.1563 25.1094,93.0469 Q25.2969,92.9375 25.5156,92.9375 Q25.8906,92.9375 26.125,93.2031 Q26.3594,93.4531 26.3594,94.0625 L26.3594,95.5156 Q26.3594,96.125 26.125,96.3906 Q25.8906,96.6563 25.5156,96.6563 Q25.1719,96.6563 24.9688,96.4531 Q24.7656,96.2656 24.6563,95.75 Q24.6094,95.3906 24.4219,95.2031 Q24.0938,94.8281 23.4844,94.6094 Q22.875,94.3906 22.25,94.3906 Q21.4844,94.3906 20.8438,94.7188 Q20.2188,95.0469 19.7188,95.7969 Q19.2344,96.5469 19.2344,97.5781 L19.2344,98.6719 Q19.2344,99.9063 20.125,100.7344 Q21.0156,101.5469 22.6094,101.5469 Q23.5469,101.5469 24.2031,101.2969 Q24.5938,101.1406 25.0156,100.7031 Q25.2813,100.4375 25.4219,100.3594 Q25.5781,100.2813 25.7813,100.2813 Q26.1094,100.2813 26.3594,100.5469 Q26.625,100.7969 26.625,101.1406 Q26.625,101.4844 26.2813,101.8906 Q25.7813,102.4688 24.9844,102.7969 Q23.9063,103.25 22.6094,103.25 Q21.0938,103.25 19.8906,102.625 Q18.9063,102.125 18.2188,101.0625 Q17.5313,99.9844 17.5313,98.7031 L17.5313,97.5469 Q17.5313,96.2188 18.1406,95.0781 Q18.7656,93.9219 19.8594,93.3125 Q20.9531,92.6875 22.1875,92.6875 Q22.9219,92.6875 23.5625,92.8594 Q24.2188,93.0156 24.7656,93.375 Z " fill="#000000"/><text fill="#000000" font-family="sans-serif" font-size="14" lengthAdjust="spacing" textLength="154" x="36" y="103.2969">ListPurchaseRequestsUI</text><line style="stroke:#181818;stroke-width:0.5;" x1="8" x2="192" y1="113.5" y2="113.5"/><line style="stroke:#181818;stroke-width:0.5;" x1="8" x2="192" y1="121.5" y2="121.5"/></g><!--class ListPurchaseRequestsController--><g id="elem_ListPurchaseRequestsController"><rect codeLine="75" fill="#F1F1F1" height="196.9688" id="ListPurchaseRequestsController" rx="2.5" ry="2.5" style="stroke:#181818;stroke-width:0.5;" width="236" x="228" y="7"/><ellipse cx="243" cy="23" fill="#ADD1B2" rx="11" ry="11" style="stroke:#181818;stroke-width:1.0;"/><path d="M245.7656,18.875 Q245.9219,18.6563 246.1094,18.5469 Q246.2969,18.4375 246.5156,18.4375 Q246.8906,18.4375 247.125,18.7031 Q247.3594,18.9531 247.3594,19.5625 L247.3594,21.0156 Q247.3594,21.625 247.125,21.8906 Q246.8906,22.1563 246.5156,22.1563 Q246.1719,22.1563 245.9688,21.9531 Q245.7656,21.7656 245.6563,21.25 Q245.6094,20.8906 245.4219,20.7031 Q245.0938,20.3281 244.4844,20.1094 Q243.875,19.8906 243.25,19.8906 Q242.4844,19.8906 241.8438,20.2188 Q241.2188,20.5469 240.7188,21.2969 Q240.2344,22.0469 240.2344,23.0781 L240.2344,24.1719 Q240.2344,25.4063 241.125,26.2344 Q242.0156,27.0469 243.6094,27.0469 Q244.5469,27.0469 245.2031,26.7969 Q245.5938,26.6406 246.0156,26.2031 Q246.2813,25.9375 246.4219,25.8594 Q246.5781,25.7813 246.7813,25.7813 Q247.1094,25.7813 247.3594,26.0469 Q247.625,26.2969 247.625,26.6406 Q247.625,26.9844 247.2813,27.3906 Q246.7813,27.9688 245.9844,28.2969 Q244.9063,28.75 243.6094,28.75 Q242.0938,28.75 240.8906,28.125 Q239.9063,27.625 239.2188,26.5625 Q238.5313,25.4844 238.5313,24.2031 L238.5313,23.0469 Q238.5313,21.7188 239.1406,20.5781 Q239.7656,19.4219 240.8594,18.8125 Q241.9531,18.1875 243.1875,18.1875 Q243.9219,18.1875 244.5625,18.3594 Q245.2188,18.5156 245.7656,18.875 Z " fill="#000000"/><text fill="#000000" font-family="sans-serif" font-size="14" lengthAdjust="spacing" textLength="204" x="257" y="28.7969">ListPurchaseRequestsController</text><line style="stroke:#181818;stroke-width:0.5;" x1="229" x2="463" y1="39" y2="39"/><line style="stroke:#181818;stroke-width:0.5;" x1="229" x2="463" y1="47" y2="47"/><text fill="#000000" font-family="sans-serif" font-size="14" lengthAdjust="spacing" textLength="173" x="234" y="66.1074">+getPurchaseRequestList()</text><text fill="#000000" font-family="sans-serif" font-size="14" lengthAdjust="spacing" textLength="142" x="234" y="84.7285">+getPropertySaleList()</text><text fill="#000000" font-family="sans-serif" font-size="14" lengthAdjust="spacing" textLength="147" x="234" y="103.3496">+removePropertySale()</text><text fill="#000000" font-family="sans-serif" font-size="14" lengthAdjust="spacing" textLength="158" x="234" y="121.9707">+getAgentFromSession()</text><text fill="#000000" font-family="sans-serif" font-size="14" lengthAdjust="spacing" textLength="193" x="234" y="140.5918">+removeAllPurchaseRequest()</text><text fill="#000000" font-family="sans-serif" font-size="14" lengthAdjust="spacing" textLength="113" x="234" y="159.2129">+acceptRequest()</text><text fill="#000000" font-family="sans-serif" font-size="14" lengthAdjust="spacing" textLength="116" x="234" y="177.834">+declineRequest()</text><text fill="#000000" font-family="sans-serif" font-size="14" lengthAdjust="spacing" textLength="171" x="234" y="196.4551">+sendNotificationToClient()</text></g><!--class PropertySale--><g id="elem_PropertySale"><rect fill="#F1F1F1" height="48" id="PropertySale" rx="2.5" ry="2.5" style="stroke:#181818;stroke-width:0.5;" width="114" x="494" y="687.5"/><ellipse cx="509" cy="703.5" fill="#ADD1B2" rx="11" ry="11" style="stroke:#181818;stroke-width:1.0;"/><path d="M511.7656,699.375 Q511.9219,699.1563 512.1094,699.0469 Q512.2969,698.9375 512.5156,698.9375 Q512.8906,698.9375 513.125,699.2031 Q513.3594,699.4531 513.3594,700.0625 L513.3594,701.5156 Q513.3594,702.125 513.125,702.3906 Q512.8906,702.6563 512.5156,702.6563 Q512.1719,702.6563 511.9688,702.4531 Q511.7656,702.2656 511.6563,701.75 Q511.6094,701.3906 511.4219,701.2031 Q511.0938,700.8281 510.4844,700.6094 Q509.875,700.3906 509.25,700.3906 Q508.4844,700.3906 507.8438,700.7188 Q507.2188,701.0469 506.7188,701.7969 Q506.2344,702.5469 506.2344,703.5781 L506.2344,704.6719 Q506.2344,705.9063 507.125,706.7344 Q508.0156,707.5469 509.6094,707.5469 Q510.5469,707.5469 511.2031,707.2969 Q511.5938,707.1406 512.0156,706.7031 Q512.2813,706.4375 512.4219,706.3594 Q512.5781,706.2813 512.7813,706.2813 Q513.1094,706.2813 513.3594,706.5469 Q513.625,706.7969 513.625,707.1406 Q513.625,707.4844 513.2813,707.8906 Q512.7813,708.4688 511.9844,708.7969 Q510.9063,709.25 509.6094,709.25 Q508.0938,709.25 506.8906,708.625 Q505.9063,708.125 505.2188,707.0625 Q504.5313,705.9844 504.5313,704.7031 L504.5313,703.5469 Q504.5313,702.2188 505.1406,701.0781 Q505.7656,699.9219 506.8594,699.3125 Q507.9531,698.6875 509.1875,698.6875 Q509.9219,698.6875 510.5625,698.8594 Q511.2188,699.0156 511.7656,699.375 Z " fill="#000000"/><text fill="#000000" font-family="sans-serif" font-size="14" lengthAdjust="spacing" textLength="82" x="523" y="709.2969">PropertySale</text><line style="stroke:#181818;stroke-width:0.5;" x1="495" x2="607" y1="719.5" y2="719.5"/><line style="stroke:#181818;stroke-width:0.5;" x1="495" x2="607" y1="727.5" y2="727.5"/></g><!--reverse link User to Employee--><g id="link_User_Employee"><path codeLine="86" d="M801.07,622.8 C785.68,638.86 770.41,654.78 757.2,668.57 " fill="none" id="User-backto-Employee" style="stroke:#181818;stroke-width:1.0;"/><polygon fill="none" points="796.29,617.67,815.19,608.08,806.4,627.36,796.29,617.67" style="stroke:#181818;stroke-width:1.0;"/></g><!--reverse link User to Client--><g id="link_User_Client"><path codeLine="87" d="M891,628.34 C891,650.36 891,671.69 891,687.1 " fill="none" id="User-backto-Client" style="stroke:#181818;stroke-width:1.0;"/><polygon fill="none" points="884,628.08,891,608.08,898,628.08,884,628.08" style="stroke:#181818;stroke-width:1.0;"/></g><!--reverse link Employee to Agent--><g id="link_Employee_Agent"><path codeLine="89" d="M677.32,771.21 C654.61,804.8 627.4,845.07 610.65,869.84 " fill="none" id="Employee-backto-Agent" style="stroke:#181818;stroke-width:1.0;"/><polygon fill="none" points="671.7,767.01,688.7,754.36,683.3,774.85,671.7,767.01" style="stroke:#181818;stroke-width:1.0;"/></g><!--link Repositories to Repositories--><g id="link_Repositories_Repositories"><path codeLine="91" d="M375.79,508.62 C396.24,511.18 410.5,517.63 410.5,528 C410.5,537.48 398.59,543.69 380.92,546.63 " fill="none" id="Repositories-to-Repositories" style="stroke:#181818;stroke-width:1.0;"/><polygon fill="#181818" points="375.79,547.38,385.2696,550.0517,380.7386,546.6649,384.1254,542.1339,375.79,547.38" style="stroke:#181818;stroke-width:1.0;"/><text fill="#000000" font-family="sans-serif" font-size="13" lengthAdjust="spacing" textLength="49" x="416.5" y="533.5283">instance</text></g><!--link ListPurchaseRequestsUI to ListPurchaseRequestsController--><g id="link_ListPurchaseRequestsUI_ListPurchaseRequestsController"><path codeLine="93" d="M193.06,105.5 C200.87,105.5 211.86,105.5 222.87,105.5 " fill="none" id="ListPurchaseRequestsUI-to-ListPurchaseRequestsController" style="stroke:#181818;stroke-width:1.0;"/><polygon fill="#181818" points="227.92,105.5,218.92,101.5,222.92,105.5,218.92,109.5,227.92,105.5" style="stroke:#181818;stroke-width:1.0;"/></g><!--link ListPurchaseRequestsController to PurchaseRequest--><g id="link_ListPurchaseRequestsController_PurchaseRequest"><path codeLine="95" d="M421.55,204.2 C436.53,223.57 451.76,243.27 465.18,260.62 " fill="none" id="ListPurchaseRequestsController-to-PurchaseRequest" style="stroke:#181818;stroke-width:1.0;stroke-dasharray:7.0,7.0;"/><polygon fill="#181818" points="468.55,264.98,466.2131,255.4124,465.4932,261.0233,459.8823,260.3033,468.55,264.98" style="stroke:#181818;stroke-width:1.0;"/></g><!--link PurchaseRequest to PropertySale--><g id="link_PurchaseRequest_PropertySale"><path codeLine="97" d="M513.62,369.31 C522.79,452.99 540.66,616.09 547.87,681.92 " fill="none" id="PurchaseRequest-to-PropertySale" style="stroke:#181818;stroke-width:1.0;"/><polygon fill="#181818" points="548.45,687.24,551.4494,677.859,547.9072,682.2695,543.4967,678.7274,548.45,687.24" style="stroke:#181818;stroke-width:1.0;"/></g><!--link PurchaseRequest to PurchaseRequestRepository--><g id="link_PurchaseRequest_PurchaseRequestRepository"><path codeLine="98" d="M547.14,369.13 C564.35,391.61 585.01,418.6 604.35,443.85 " fill="none" id="PurchaseRequest-to-PurchaseRequestRepository" style="stroke:#181818;stroke-width:1.0;"/><polygon fill="#181818" points="607.44,447.89,605.1414,438.3131,604.399,443.921,598.7911,443.1787,607.44,447.89" style="stroke:#181818;stroke-width:1.0;"/><polygon fill="#000000" points="592.0396,412.6155,588.8744,403.6471,584.2074,407.2204,592.0396,412.6155" style="stroke:#000000;stroke-width:1.0;"/><text fill="#000000" font-family="sans-serif" font-size="13" lengthAdjust="spacing" textLength="21" x="598" y="414.0283">has</text><text fill="#000000" font-family="sans-serif" font-size="13" lengthAdjust="spacing" textLength="7" x="544.7064" y="390.9539">1</text><text fill="#000000" font-family="sans-serif" font-size="13" lengthAdjust="spacing" textLength="5" x="596.6267" y="436.7756">*</text></g><!--link ListPurchaseRequestsController to Repositories--><g id="link_ListPurchaseRequestsController_Repositories"><path codeLine="100" d="M326.05,204.03 C309.13,286.79 285.44,402.63 271.51,470.74 " fill="none" id="ListPurchaseRequestsController-to-Repositories" style="stroke:#181818;stroke-width:1.0;stroke-dasharray:7.0,7.0;"/><polygon fill="#181818" points="270.44,475.96,276.1859,467.961,271.4563,471.0644,268.3529,466.3348,270.44,475.96" style="stroke:#181818;stroke-width:1.0;"/><text fill="#000000" font-family="sans-serif" font-size="13" lengthAdjust="spacing" textLength="67" x="314" y="322.5283">repositories</text></g><!--link Repositories to PurchaseRequestRepository--><g id="link_Repositories_PurchaseRequestRepository"><path codeLine="102" d="M375.64,528 C387.89,528 396,528 396,528 C396,528 532,528 532,528 C532,528 541.8,528 556.15,528 " fill="none" id="Repositories-to-PurchaseRequestRepository" style="stroke:#181818;stroke-width:1.0;"/><polygon fill="#181818" points="561.18,528,552.18,524,556.18,528,552.18,532,561.18,528" style="stroke:#181818;stroke-width:1.0;"/><text fill="#000000" font-family="sans-serif" font-size="13" lengthAdjust="spacing" textLength="7" x="546.4231" y="524.4505">1</text></g><!--link Repositories to PropertySaleRepository--><g id="link_Repositories_PropertySaleRepository"><path codeLine="103" d="M282.44,580.38 C310.84,645.39 359.76,757.38 390.69,828.19 " fill="none" id="Repositories-to-PropertySaleRepository" style="stroke:#181818;stroke-width:1.0;"/><polygon fill="#181818" points="392.7,832.8,392.7685,822.9514,390.7012,828.2169,385.4356,826.1495,392.7,832.8" style="stroke:#181818;stroke-width:1.0;"/><text fill="#000000" font-family="sans-serif" font-size="13" lengthAdjust="spacing" textLength="7" x="382.2544" y="821.7581">1</text></g><!--link Repositories to ClientRepository--><g id="link_Repositories_ClientRepository"><path codeLine="104" d="M262.75,580.05 C268.54,687.3 281.85,933.91 286.95,1028.56 " fill="none" id="Repositories-to-ClientRepository" style="stroke:#181818;stroke-width:1.0;"/><polygon fill="#181818" points="287.23,1033.76,290.7348,1024.5559,286.9582,1028.7674,282.7467,1024.9908,287.23,1033.76" style="stroke:#181818;stroke-width:1.0;"/><text fill="#000000" font-family="sans-serif" font-size="13" lengthAdjust="spacing" textLength="7" x="279.2254" y="1022.8002">1</text></g><!--link PurchaseRequestRepository to PropertySale--><g id="link_PurchaseRequestRepository_PropertySale"><path codeLine="106" d="M617.02,608.08 C599.85,634.72 581.79,662.73 568.91,682.71 " fill="none" id="PurchaseRequestRepository-to-PropertySale" style="stroke:#181818;stroke-width:1.0;"/><polygon fill="#181818" points="566.08,687.1,574.3245,681.7122,568.7939,682.9006,567.6055,677.37,566.08,687.1" style="stroke:#181818;stroke-width:1.0;"/><text fill="#000000" font-family="sans-serif" font-size="13" lengthAdjust="spacing" textLength="7" x="605.3381" y="629.7449">1</text><text fill="#000000" font-family="sans-serif" font-size="13" lengthAdjust="spacing" textLength="5" x="564.1464" y="676.1444">*</text></g><!--link Agent to ClientRepository--><g id="link_Agent_ClientRepository"><path codeLine="108" d="M574.66,918.03 C559.71,934.95 542,955 542,955 C542,955 436.74,1001.39 362.01,1034.32 " fill="none" id="Agent-to-ClientRepository" style="stroke:#181818;stroke-width:1.0;"/><polygon fill="#181818" points="357.13,1036.47,366.9788,1036.5015,361.7055,1034.4539,363.7531,1029.1806,357.13,1036.47" style="stroke:#181818;stroke-width:1.0;"/><text fill="#000000" font-family="sans-serif" font-size="13" lengthAdjust="spacing" textLength="101" x="469" y="1000.0283">sends notification</text></g><!--link PropertySale to Agent--><g id="link_PropertySale_Agent"><path codeLine="110" d="M555.89,735.81 C561.52,762.62 570,803 570,803 C570,803 579.8,838.29 587.13,864.68 " fill="none" id="PropertySale-to-Agent" style="stroke:#181818;stroke-width:1.0;"/><polygon fill="#181818" points="588.56,869.82,590.0217,860.0802,587.2299,865.0002,582.3099,862.2084,588.56,869.82" style="stroke:#181818;stroke-width:1.0;"/><text fill="#000000" font-family="sans-serif" font-size="13" lengthAdjust="spacing" textLength="28" x="571" y="799.0283">sees</text></g><!--link PropertySale to PropertySaleRepository--><g id="link_PropertySale_PropertySaleRepository"><path codeLine="111" d="M534.01,735.73 C516.95,759.06 489.89,796.07 466.29,828.33 " fill="none" id="PropertySale-to-PropertySaleRepository" style="stroke:#181818;stroke-width:1.0;"/><polygon fill="#181818" points="463.14,832.65,471.6788,827.742,466.0894,828.6125,465.2189,823.023,463.14,832.65" style="stroke:#181818;stroke-width:1.0;"/><polygon fill="#000000" points="499.0485,797.6814,506.7601,792.1153,502.0156,788.6455,499.0485,797.6814" style="stroke:#000000;stroke-width:1.0;"/><text fill="#000000" font-family="sans-serif" font-size="13" lengthAdjust="spacing" textLength="21" x="511" y="799.0283">has</text><text fill="#000000" font-family="sans-serif" font-size="13" lengthAdjust="spacing" textLength="7" x="522.2717" y="757.3608">1</text><text fill="#000000" font-family="sans-serif" font-size="13" lengthAdjust="spacing" textLength="5" x="462.9546" y="821.5907">*</text></g><!--link Employee to Store--><g id="link_Employee_Store"><path codeLine="114" d="M717,754.36 C717,790.29 717,840.75 717,869.84 " fill="none" id="Employee-Store" style="stroke:#181818;stroke-width:1.0;"/><polygon fill="#000000" points="722,798.6455,724.9389,789.6004,719.0611,789.6004,722,798.6455" style="stroke:#000000;stroke-width:1.0;"/><text fill="#000000" font-family="sans-serif" font-size="13" lengthAdjust="spacing" textLength="49" x="731" y="799.0283">works at</text><text fill="#000000" font-family="sans-serif" font-size="13" lengthAdjust="spacing" textLength="5" x="711.6172" y="776.2566">*</text><text fill="#000000" font-family="sans-serif" font-size="13" lengthAdjust="spacing" textLength="7" x="709.1031" y="858.5365">1</text></g><!--SRC=[ZLNRRjim37tNLmXvIR8YnVQQ3G7IO0C255snh1-WoemZH9OyYLddRVttKRBdo9TaorjuI1sIXwId_gXCAPmeU66DbGTd2-3eJi3EI2daKUImmqe3To1Hc5od3luWClkYJCxtGliKqSe0LYNmqkeg_67J4T0wj2o9abfulqPqwlc4i9NMxDHFu6yPcshO8qVBdSeFo3CLqb7MC1PZ-9C7ntynJhy5Du9gMV8TlMFonWQ5K7gTPGx8kuSXQ2WFri33gNYcTvPS6MmmgP1IC1lXiX4KnOyHgsXf6aBs-ZVF7Le7bEZPyh4ejQq0skofuqPM_HoTrKbDRVIQdB7ptaQhlkdnvEH1UFW2tqxWiMKA6dpUtvqywJ7iYgkz8NjqIWRklRO2MKHlk2Vjxge8RMmHvAFAPlE4rDaI75OxeOcuj5wHGzLoIriKodkIi7qvJMgJmarQ3RE3mdw7xlCnKsAlFNB01bRWxrMeePDPjnqZoP60FQVsRUb085n2czokeckjBpbeolMS-Mp-FhLtOtnQKQtve90RRYogVLN3QK3hIZHjrQanxUNMUDfy2RCvQP4w9Us-rDAQj66z7odZQKlyhzSyDjOWJRzk5toCCGIEw1_7euCDfoSDY-lqYMxX3kBm_RzqGaeeiM_DG8PZrpTxCDb3a4P94QxOLvjA56_PXz-BHNiR4bFjo5XxDg8rvirOHzR5OjNLEPoeMad6BaX18TSb68zC9BgzNVKNZB7-0IAQL841FdatYUbFtaokREkIavsl_ftIe0yk7U9UrrQH_IBhkFVehHjrxQ_ge3b9WPqsfFrYzTaFs63rbt6wVBtwpNmHIH8Uu-eNWZEre8DUOXth_7aCWpSDOWYklt5B_cBTqNE1mV4F]--></g></svg>