<?xml version="1.0" encoding="us-ascii" standalone="no"?><svg xmlns="http://www.w3.org/2000/svg" xmlns:xlink="http://www.w3.org/1999/xlink" contentStyleType="text/css" height="382px" preserveAspectRatio="none" style="width:379px;height:382px;background:#FFFFFF;" version="1.1" viewBox="0 0 379 382" width="379px" zoomAndPan="magnify"><defs/><g><text fill="#000000" font-family="sans-serif" font-size="14" font-weight="bold" lengthAdjust="spacing" textLength="351" x="10" y="30.1074">System Sequence Diagram (SSD) - Alternative One</text><rect fill="#FFFFFF" height="157.4551" style="stroke:#181818;stroke-width:1.0;" width="10" x="24.75" y="133.2422"/><rect fill="#FFFFFF" height="31.291" style="stroke:#181818;stroke-width:1.0;" width="10" x="326.75" y="156.5332"/><rect fill="#FFFFFF" height="31.291" style="stroke:#181818;stroke-width:1.0;" width="10" x="326.75" y="219.1152"/><rect fill="#FFFFFF" height="9" style="stroke:#181818;stroke-width:1.0;" width="10" x="326.75" y="281.6973"/><line style="stroke:#181818;stroke-width:0.5;stroke-dasharray:5.0,5.0;" x1="29.25" x2="29.25" y1="123.2422" y2="299.6973"/><line style="stroke:#181818;stroke-width:0.5;stroke-dasharray:5.0,5.0;" x1="331.75" x2="331.75" y1="123.2422" y2="299.6973"/><text fill="#000000" font-family="sans-serif" font-size="14" lengthAdjust="spacing" textLength="37" x="8.25" y="119.7285">Agent</text><ellipse cx="29.75" cy="53.1211" fill="#E3E3E3" rx="8" ry="8" style="stroke:#181818;stroke-width:0.5;"/><path d="M29.75,61.1211 L29.75,88.1211 M16.75,69.1211 L42.75,69.1211 M29.75,88.1211 L16.75,103.1211 M29.75,88.1211 L42.75,103.1211 " fill="none" style="stroke:#181818;stroke-width:0.5;"/><text fill="#000000" font-family="sans-serif" font-size="14" lengthAdjust="spacing" textLength="37" x="8.25" y="313.8047">Agent</text><ellipse cx="29.75" cy="325.8184" fill="#E3E3E3" rx="8" ry="8" style="stroke:#181818;stroke-width:0.5;"/><path d="M29.75,333.8184 L29.75,360.8184 M16.75,341.8184 L42.75,341.8184 M29.75,360.8184 L16.75,375.8184 M29.75,360.8184 L42.75,375.8184 " fill="none" style="stroke:#181818;stroke-width:0.5;"/><rect fill="#E3E3E3" height="32.6211" rx="2.5" ry="2.5" style="stroke:#181818;stroke-width:0.5;" width="64" x="299.75" y="89.6211"/><text fill="#000000" font-family="sans-serif" font-size="14" lengthAdjust="spacing" textLength="50" x="306.75" y="111.7285">:System</text><rect fill="#E3E3E3" height="32.6211" rx="2.5" ry="2.5" style="stroke:#181818;stroke-width:0.5;" width="64" x="299.75" y="298.6973"/><text fill="#000000" font-family="sans-serif" font-size="14" lengthAdjust="spacing" textLength="50" x="306.75" y="320.8047">:System</text><rect fill="#FFFFFF" height="157.4551" style="stroke:#181818;stroke-width:1.0;" width="10" x="24.75" y="133.2422"/><rect fill="#FFFFFF" height="31.291" style="stroke:#181818;stroke-width:1.0;" width="10" x="326.75" y="156.5332"/><rect fill="#FFFFFF" height="31.291" style="stroke:#181818;stroke-width:1.0;" width="10" x="326.75" y="219.1152"/><rect fill="#FFFFFF" height="9" style="stroke:#181818;stroke-width:1.0;" width="10" x="326.75" y="281.6973"/><polygon fill="#181818" points="45.75,152.5332,35.75,156.5332,45.75,160.5332,41.75,156.5332" style="stroke:#181818;stroke-width:1.0;"/><line style="stroke:#181818;stroke-width:1.0;stroke-dasharray:2.0,2.0;" x1="39.75" x2="325.75" y1="156.5332" y2="156.5332"/><text fill="#000000" font-family="sans-serif" font-size="13" font-weight="bold" lengthAdjust="spacing" textLength="7" x="51.75" y="151.2705">1</text><text fill="#000000" font-family="sans-serif" font-size="13" lengthAdjust="spacing" textLength="209" x="62.75" y="151.2705">requests opinion about the business</text><polygon fill="#181818" points="319.75,183.8242,329.75,187.8242,319.75,191.8242,323.75,187.8242" style="stroke:#181818;stroke-width:1.0;"/><line style="stroke:#181818;stroke-width:1.0;" x1="34.75" x2="325.75" y1="187.8242" y2="187.8242"/><text fill="#000000" font-family="sans-serif" font-size="13" font-weight="bold" lengthAdjust="spacing" textLength="7" x="41.75" y="182.5615">2</text><text fill="#000000" font-family="sans-serif" font-size="13" lengthAdjust="spacing" textLength="175" x="52.75" y="182.5615">types opinion (200 characters)</text><polygon fill="#181818" points="45.75,215.1152,35.75,219.1152,45.75,223.1152,41.75,219.1152" style="stroke:#181818;stroke-width:1.0;"/><line style="stroke:#181818;stroke-width:1.0;stroke-dasharray:2.0,2.0;" x1="39.75" x2="325.75" y1="219.1152" y2="219.1152"/><text fill="#000000" font-family="sans-serif" font-size="13" font-weight="bold" lengthAdjust="spacing" textLength="7" x="51.75" y="213.8525">3</text><text fill="#000000" font-family="sans-serif" font-size="13" lengthAdjust="spacing" textLength="262" x="62.75" y="213.8525">shows classification scale asks to select one</text><polygon fill="#181818" points="319.75,246.4063,329.75,250.4063,319.75,254.4063,323.75,250.4063" style="stroke:#181818;stroke-width:1.0;"/><line style="stroke:#181818;stroke-width:1.0;" x1="34.75" x2="325.75" y1="250.4063" y2="250.4063"/><text fill="#000000" font-family="sans-serif" font-size="13" font-weight="bold" lengthAdjust="spacing" textLength="7" x="41.75" y="245.1436">4</text><text fill="#000000" font-family="sans-serif" font-size="13" lengthAdjust="spacing" textLength="167" x="52.75" y="245.1436">selects a classification scale</text><polygon fill="#181818" points="45.75,277.6973,35.75,281.6973,45.75,285.6973,41.75,281.6973" style="stroke:#181818;stroke-width:1.0;"/><line style="stroke:#181818;stroke-width:1.0;stroke-dasharray:2.0,2.0;" x1="39.75" x2="325.75" y1="281.6973" y2="281.6973"/><text fill="#000000" font-family="sans-serif" font-size="13" font-weight="bold" lengthAdjust="spacing" textLength="7" x="51.75" y="276.4346">5</text><text fill="#000000" font-family="sans-serif" font-size="13" lengthAdjust="spacing" textLength="158" x="62.75" y="276.4346">displays operation success</text><!--SRC=[bP6nRi9038RtF8N510CIwiXG2OczGvx0CIQnkDobPnyeRr-JfBG3L6ecA_R_-VT_Uf4uOCOU-XGJTJdr39OBL_he34WNRBcsCJ1a9iFOXjy3sk4ftIIsSCQWN5KcvgFrgCOzrFnPE1B3KR2zZw_h-hY1BHo2SOveScNuY2x3OYcMlk7iDLdAi3gq76q5g31LbIyq8Ham6gpsyuQfFPUJJgvelCnNi7oBcUtsVUx0taznOseAQP0eAG8sgHXOnz0KbSYga_o1_Dvn_pb3dBQ0zs3Zm3-izTjk1zHvFkHNwcOIdVWfwuK_xT9DWGAgobd8WtAk4dgqg1S5Iw0S_3qWUNh_S3gh5F0f_2-dJroUH8U0u_ropWkc4BqAxmi0]--></g></svg>