<?xml version="1.0" encoding="us-ascii" standalone="no"?><svg xmlns="http://www.w3.org/2000/svg" xmlns:xlink="http://www.w3.org/1999/xlink" contentStyleType="text/css" height="502px" preserveAspectRatio="none" style="width:404px;height:502px;background:#FFFFFF;" version="1.1" viewBox="0 0 404 502" width="404px" zoomAndPan="magnify"><defs/><g><text fill="#000000" font-family="sans-serif" font-size="14" font-weight="bold" lengthAdjust="spacing" textLength="228" x="87" y="27.6738">System Sequence Diagram (SSD)</text><rect fill="#FFFFFF" height="277.2344" style="stroke:#181818;stroke-width:1.0;" width="10" x="21" y="127.2813"/><rect fill="#FFFFFF" height="28.5234" style="stroke:#181818;stroke-width:1.0;" width="10" x="361" y="147.8047"/><rect fill="#FFFFFF" height="28.5234" style="stroke:#181818;stroke-width:1.0;" width="10" x="361" y="204.8516"/><rect fill="#FFFFFF" height="28.5234" style="stroke:#181818;stroke-width:1.0;" width="10" x="361" y="261.8984"/><rect fill="#FFFFFF" height="28.5234" style="stroke:#181818;stroke-width:1.0;" width="10" x="361" y="318.9453"/><rect fill="#FFFFFF" height="28.5234" style="stroke:#181818;stroke-width:1.0;" width="10" x="361" y="375.9922"/><line style="stroke:#181818;stroke-width:0.5;stroke-dasharray:5.0,5.0;" x1="26" x2="26" y1="117.2813" y2="422.5156"/><line style="stroke:#181818;stroke-width:0.5;stroke-dasharray:5.0,5.0;" x1="366" x2="366" y1="117.2813" y2="422.5156"/><text fill="#000000" font-family="sans-serif" font-size="14" lengthAdjust="spacing" textLength="36" x="5" y="114.3145">Client</text><ellipse cx="26" cy="50.1406" fill="#E3E3E3" rx="8" ry="8" style="stroke:#181818;stroke-width:0.5;"/><path d="M26,58.1406 L26,85.1406 M13,66.1406 L39,66.1406 M26,85.1406 L13,100.1406 M26,85.1406 L39,100.1406 " fill="none" style="stroke:#181818;stroke-width:0.5;"/><text fill="#000000" font-family="sans-serif" font-size="14" lengthAdjust="spacing" textLength="36" x="5" y="434.1895">Client</text><ellipse cx="26" cy="445.6563" fill="#E3E3E3" rx="8" ry="8" style="stroke:#181818;stroke-width:0.5;"/><path d="M26,453.6563 L26,480.6563 M13,461.6563 L39,461.6563 M26,480.6563 L13,495.6563 M26,480.6563 L39,495.6563 " fill="none" style="stroke:#181818;stroke-width:0.5;"/><rect fill="#E3E3E3" height="29.6406" rx="2.5" ry="2.5" style="stroke:#181818;stroke-width:0.5;" width="64" x="334" y="86.6406"/><text fill="#000000" font-family="sans-serif" font-size="14" lengthAdjust="spacing" textLength="50" x="341" y="106.3145">:System</text><rect fill="#E3E3E3" height="29.6406" rx="2.5" ry="2.5" style="stroke:#181818;stroke-width:0.5;" width="64" x="334" y="421.5156"/><text fill="#000000" font-family="sans-serif" font-size="14" lengthAdjust="spacing" textLength="50" x="341" y="441.1895">:System</text><rect fill="#FFFFFF" height="277.2344" style="stroke:#181818;stroke-width:1.0;" width="10" x="21" y="127.2813"/><rect fill="#FFFFFF" height="28.5234" style="stroke:#181818;stroke-width:1.0;" width="10" x="361" y="147.8047"/><rect fill="#FFFFFF" height="28.5234" style="stroke:#181818;stroke-width:1.0;" width="10" x="361" y="204.8516"/><rect fill="#FFFFFF" height="28.5234" style="stroke:#181818;stroke-width:1.0;" width="10" x="361" y="261.8984"/><rect fill="#FFFFFF" height="28.5234" style="stroke:#181818;stroke-width:1.0;" width="10" x="361" y="318.9453"/><rect fill="#FFFFFF" height="28.5234" style="stroke:#181818;stroke-width:1.0;" width="10" x="361" y="375.9922"/><polygon fill="#181818" points="349,143.8047,359,147.8047,349,151.8047,353,147.8047" style="stroke:#181818;stroke-width:1.0;"/><line style="stroke:#181818;stroke-width:1.0;" x1="31" x2="355" y1="147.8047" y2="147.8047"/><text fill="#000000" font-family="sans-serif" font-size="13" font-weight="bold" lengthAdjust="spacing" textLength="7" x="38" y="143.0498">1</text><text fill="#000000" font-family="sans-serif" font-size="13" lengthAdjust="spacing" textLength="271" x="49" y="143.0498">Selectes a propertySale (Context ignored later)</text><polygon fill="#181818" points="42,172.3281,32,176.3281,42,180.3281,38,176.3281" style="stroke:#181818;stroke-width:1.0;"/><line style="stroke:#181818;stroke-width:1.0;stroke-dasharray:2.0,2.0;" x1="36" x2="365" y1="176.3281" y2="176.3281"/><text fill="#000000" font-family="sans-serif" font-size="13" font-weight="bold" lengthAdjust="spacing" textLength="7" x="48" y="171.5732">2</text><text fill="#000000" font-family="sans-serif" font-size="13" lengthAdjust="spacing" textLength="217" x="59" y="171.5732">shows Actions (Context ignored later)</text><polygon fill="#181818" points="349,200.8516,359,204.8516,349,208.8516,353,204.8516" style="stroke:#181818;stroke-width:1.0;"/><line style="stroke:#181818;stroke-width:1.0;" x1="31" x2="355" y1="204.8516" y2="204.8516"/><text fill="#000000" font-family="sans-serif" font-size="13" font-weight="bold" lengthAdjust="spacing" textLength="7" x="38" y="200.0967">3</text><text fill="#000000" font-family="sans-serif" font-size="13" lengthAdjust="spacing" textLength="300" x="49" y="200.0967">asks to make a visit Request (Context ignored later)</text><polygon fill="#181818" points="42,229.375,32,233.375,42,237.375,38,233.375" style="stroke:#181818;stroke-width:1.0;"/><line style="stroke:#181818;stroke-width:1.0;stroke-dasharray:2.0,2.0;" x1="36" x2="365" y1="233.375" y2="233.375"/><text fill="#000000" font-family="sans-serif" font-size="13" font-weight="bold" lengthAdjust="spacing" textLength="7" x="48" y="228.6201">4</text><text fill="#000000" font-family="sans-serif" font-size="13" lengthAdjust="spacing" textLength="183" x="59" y="228.6201">Asks for date(year, month, day)</text><polygon fill="#181818" points="349,257.8984,359,261.8984,349,265.8984,353,261.8984" style="stroke:#181818;stroke-width:1.0;"/><line style="stroke:#181818;stroke-width:1.0;" x1="31" x2="355" y1="261.8984" y2="261.8984"/><text fill="#000000" font-family="sans-serif" font-size="13" font-weight="bold" lengthAdjust="spacing" textLength="7" x="38" y="257.1436">5</text><text fill="#000000" font-family="sans-serif" font-size="13" lengthAdjust="spacing" textLength="170" x="49" y="257.1436">Types date(year, month, day)</text><polygon fill="#181818" points="42,286.4219,32,290.4219,42,294.4219,38,290.4219" style="stroke:#181818;stroke-width:1.0;"/><line style="stroke:#181818;stroke-width:1.0;stroke-dasharray:2.0,2.0;" x1="36" x2="365" y1="290.4219" y2="290.4219"/><text fill="#000000" font-family="sans-serif" font-size="13" font-weight="bold" lengthAdjust="spacing" textLength="7" x="48" y="285.667">6</text><text fill="#000000" font-family="sans-serif" font-size="13" lengthAdjust="spacing" textLength="184" x="59" y="285.667">asks for startTime(hour, minute)</text><polygon fill="#181818" points="349,314.9453,359,318.9453,349,322.9453,353,318.9453" style="stroke:#181818;stroke-width:1.0;"/><line style="stroke:#181818;stroke-width:1.0;" x1="31" x2="355" y1="318.9453" y2="318.9453"/><text fill="#000000" font-family="sans-serif" font-size="13" font-weight="bold" lengthAdjust="spacing" textLength="7" x="38" y="314.1904">7</text><text fill="#000000" font-family="sans-serif" font-size="13" lengthAdjust="spacing" textLength="170" x="49" y="314.1904">types startTime(hour, minute)</text><polygon fill="#181818" points="42,343.4688,32,347.4688,42,351.4688,38,347.4688" style="stroke:#181818;stroke-width:1.0;"/><line style="stroke:#181818;stroke-width:1.0;stroke-dasharray:2.0,2.0;" x1="36" x2="365" y1="347.4688" y2="347.4688"/><text fill="#000000" font-family="sans-serif" font-size="13" font-weight="bold" lengthAdjust="spacing" textLength="7" x="48" y="342.7139">8</text><text fill="#000000" font-family="sans-serif" font-size="13" lengthAdjust="spacing" textLength="179" x="59" y="342.7139">asks for endTime(hour, minute)</text><polygon fill="#181818" points="349,371.9922,359,375.9922,349,379.9922,353,375.9922" style="stroke:#181818;stroke-width:1.0;"/><line style="stroke:#181818;stroke-width:1.0;" x1="31" x2="355" y1="375.9922" y2="375.9922"/><text fill="#000000" font-family="sans-serif" font-size="13" font-weight="bold" lengthAdjust="spacing" textLength="7" x="38" y="371.2373">9</text><text fill="#000000" font-family="sans-serif" font-size="13" lengthAdjust="spacing" textLength="165" x="49" y="371.2373">types endTime(hour, minute)</text><polygon fill="#181818" points="37,400.5156,27,404.5156,37,408.5156,33,404.5156" style="stroke:#181818;stroke-width:1.0;"/><line style="stroke:#181818;stroke-width:1.0;stroke-dasharray:2.0,2.0;" x1="31" x2="365" y1="404.5156" y2="404.5156"/><text fill="#000000" font-family="sans-serif" font-size="13" font-weight="bold" lengthAdjust="spacing" textLength="14" x="43" y="399.7607">10</text><text fill="#000000" font-family="sans-serif" font-size="13" lengthAdjust="spacing" textLength="138" x="61" y="399.7607">(In)success of operation</text><!--SRC=[hPFFRi8m3CRlVGgBoue4uyvX4cANNLTUm4jD6xL9kjY5zUtd_fiu018JENrAuk_xnNLVIf66jvjDKwENrjMl9hWDqtTBtj0wjrX4T0bNrZUe2bpmmPGnE0A9BLsSD6WgB2YJhYQ8P0HzKLzUu1BpSBQ-W2FMJ4aYLlHgrh6GWspAXFSn4z8iUryc2ROIVEk-AAes4Y8izhKbBmj0Xb4c6Y3Ms4RV08ljw3YSZp8PIkq9XUQA17ID6jPlCyHMCMf59mQ49eQ6edGPAcMw3rxeHy0MFaJAeLQpk1ni_hpdD9ZMvBhMW2bggrq8PuQTbWJFTsrpkcfy1HgvOf003YjIy9DbA_3PDvJbUUIxFkMe7o3NYhGZZAj-7AHSwKxtAFEXQxJBTwmUOiEPZKL7uM0TfMLeUrVhMw57uMI0k-VrFpho-PFORZizH9P- -2MtnX0pX2Fq0u_zPDvWkjYP_gDV]--></g></svg>