<?xml version="1.0" encoding="us-ascii" standalone="no"?><svg xmlns="http://www.w3.org/2000/svg" xmlns:xlink="http://www.w3.org/1999/xlink" contentStyleType="text/css" height="446px" preserveAspectRatio="none" style="width:661px;height:446px;background:#FFFFFF;" version="1.1" viewBox="0 0 661 446" width="661px" zoomAndPan="magnify"><defs/><g><text fill="#000000" font-family="sans-serif" font-size="14" font-weight="bold" lengthAdjust="spacing" textLength="186" x="239" y="27.6738">System Sequence Diagram</text><rect fill="#FFFFFF" height="230.2344" style="stroke:#181818;stroke-width:1.0;" width="10" x="23.5" y="127.2813"/><rect fill="#FFFFFF" height="28.5234" style="stroke:#181818;stroke-width:1.0;" width="10" x="335.5" y="147.8047"/><rect fill="#FFFFFF" height="28.5234" style="stroke:#181818;stroke-width:1.0;" width="10" x="335.5" y="233.8984"/><rect fill="#FFFFFF" height="43.0469" style="stroke:#181818;stroke-width:1.0;" width="10" x="335.5" y="305.4688"/><rect fill="#FFFFFF" height="43.0469" style="stroke:#181818;stroke-width:1.0;" width="10" x="633.5" y="262.4219"/><line style="stroke:#181818;stroke-width:0.5;stroke-dasharray:5.0,5.0;" x1="28" x2="28" y1="117.2813" y2="366.5156"/><line style="stroke:#181818;stroke-width:0.5;stroke-dasharray:5.0,5.0;" x1="340.5" x2="340.5" y1="117.2813" y2="366.5156"/><line style="stroke:#181818;stroke-width:0.5;stroke-dasharray:5.0,5.0;" x1="638" x2="638" y1="117.2813" y2="366.5156"/><text fill="#000000" font-family="sans-serif" font-size="14" lengthAdjust="spacing" textLength="41" x="5" y="114.3145">Owner</text><ellipse cx="28.5" cy="50.1406" fill="#E3E3E3" rx="8" ry="8" style="stroke:#181818;stroke-width:0.5;"/><path d="M28.5,58.1406 L28.5,85.1406 M15.5,66.1406 L41.5,66.1406 M28.5,85.1406 L15.5,100.1406 M28.5,85.1406 L41.5,100.1406 " fill="none" style="stroke:#181818;stroke-width:0.5;"/><text fill="#000000" font-family="sans-serif" font-size="14" lengthAdjust="spacing" textLength="41" x="5" y="378.1895">Owner</text><ellipse cx="28.5" cy="389.6563" fill="#E3E3E3" rx="8" ry="8" style="stroke:#181818;stroke-width:0.5;"/><path d="M28.5,397.6563 L28.5,424.6563 M15.5,405.6563 L41.5,405.6563 M28.5,424.6563 L15.5,439.6563 M28.5,424.6563 L41.5,439.6563 " fill="none" style="stroke:#181818;stroke-width:0.5;"/><rect fill="#E3E3E3" height="29.6406" rx="2.5" ry="2.5" style="stroke:#181818;stroke-width:0.5;" width="64" x="308.5" y="86.6406"/><text fill="#000000" font-family="sans-serif" font-size="14" lengthAdjust="spacing" textLength="50" x="315.5" y="106.3145">:System</text><rect fill="#E3E3E3" height="29.6406" rx="2.5" ry="2.5" style="stroke:#181818;stroke-width:0.5;" width="64" x="308.5" y="365.5156"/><text fill="#000000" font-family="sans-serif" font-size="14" lengthAdjust="spacing" textLength="50" x="315.5" y="385.1895">:System</text><text fill="#000000" font-family="sans-serif" font-size="14" lengthAdjust="spacing" textLength="37" x="617" y="114.3145">Agent</text><ellipse cx="638.5" cy="50.1406" fill="#E3E3E3" rx="8" ry="8" style="stroke:#181818;stroke-width:0.5;"/><path d="M638.5,58.1406 L638.5,85.1406 M625.5,66.1406 L651.5,66.1406 M638.5,85.1406 L625.5,100.1406 M638.5,85.1406 L651.5,100.1406 " fill="none" style="stroke:#181818;stroke-width:0.5;"/><text fill="#000000" font-family="sans-serif" font-size="14" lengthAdjust="spacing" textLength="37" x="617" y="378.1895">Agent</text><ellipse cx="638.5" cy="389.6563" fill="#E3E3E3" rx="8" ry="8" style="stroke:#181818;stroke-width:0.5;"/><path d="M638.5,397.6563 L638.5,424.6563 M625.5,405.6563 L651.5,405.6563 M638.5,424.6563 L625.5,439.6563 M638.5,424.6563 L651.5,439.6563 " fill="none" style="stroke:#181818;stroke-width:0.5;"/><rect fill="#FFFFFF" height="230.2344" style="stroke:#181818;stroke-width:1.0;" width="10" x="23.5" y="127.2813"/><rect fill="#FFFFFF" height="28.5234" style="stroke:#181818;stroke-width:1.0;" width="10" x="335.5" y="147.8047"/><rect fill="#FFFFFF" height="28.5234" style="stroke:#181818;stroke-width:1.0;" width="10" x="335.5" y="233.8984"/><rect fill="#FFFFFF" height="43.0469" style="stroke:#181818;stroke-width:1.0;" width="10" x="335.5" y="305.4688"/><rect fill="#FFFFFF" height="43.0469" style="stroke:#181818;stroke-width:1.0;" width="10" x="633.5" y="262.4219"/><polygon fill="#181818" points="323.5,143.8047,333.5,147.8047,323.5,151.8047,327.5,147.8047" style="stroke:#181818;stroke-width:1.0;"/><line style="stroke:#181818;stroke-width:1.0;" x1="33.5" x2="329.5" y1="147.8047" y2="147.8047"/><text fill="#000000" font-family="sans-serif" font-size="13" font-weight="bold" lengthAdjust="spacing" textLength="7" x="40.5" y="143.0498">1</text><text fill="#000000" font-family="sans-serif" font-size="13" lengthAdjust="spacing" textLength="154" x="51.5" y="143.0498">asks to start a submission</text><polygon fill="#181818" points="44.5,172.3281,34.5,176.3281,44.5,180.3281,40.5,176.3281" style="stroke:#181818;stroke-width:1.0;"/><line style="stroke:#181818;stroke-width:1.0;stroke-dasharray:2.0,2.0;" x1="38.5" x2="339.5" y1="176.3281" y2="176.3281"/><text fill="#000000" font-family="sans-serif" font-size="13" font-weight="bold" lengthAdjust="spacing" textLength="7" x="50.5" y="171.5732">2</text><text fill="#000000" font-family="sans-serif" font-size="13" lengthAdjust="spacing" textLength="79" x="61.5" y="171.5732">requests data</text><polygon fill="#181818" points="323.5,229.8984,333.5,233.8984,323.5,237.8984,327.5,233.8984" style="stroke:#181818;stroke-width:1.0;"/><line style="stroke:#181818;stroke-width:1.0;" x1="33.5" x2="329.5" y1="233.8984" y2="233.8984"/><text fill="#000000" font-family="sans-serif" font-size="13" font-weight="bold" lengthAdjust="spacing" textLength="7" x="40.5" y="214.6201">3</text><text fill="#000000" font-family="sans-serif" font-size="13" lengthAdjust="spacing" textLength="272" x="51.5" y="200.0967">types requested data (Property characteristics,</text><text fill="#000000" font-family="sans-serif" font-size="13" lengthAdjust="spacing" textLength="194" x="55.5" y="214.6201">Requested price, Preferred agent)</text><text fill="#000000" font-family="sans-serif" font-size="13" lengthAdjust="spacing" textLength="141" x="51.5" y="229.1436">and sucefully submits it.</text><polygon fill="#181818" points="621.5,258.4219,631.5,262.4219,621.5,266.4219,625.5,262.4219" style="stroke:#181818;stroke-width:1.0;"/><line style="stroke:#181818;stroke-width:1.0;" x1="340.5" x2="627.5" y1="262.4219" y2="262.4219"/><text fill="#000000" font-family="sans-serif" font-size="13" font-weight="bold" lengthAdjust="spacing" textLength="7" x="347.5" y="257.667">4</text><text fill="#000000" font-family="sans-serif" font-size="13" lengthAdjust="spacing" textLength="258" x="358.5" y="257.667">informs about the request and puts it in qeue</text><polygon fill="#181818" points="356.5,301.4688,346.5,305.4688,356.5,309.4688,352.5,305.4688" style="stroke:#181818;stroke-width:1.0;"/><line style="stroke:#181818;stroke-width:1.0;stroke-dasharray:2.0,2.0;" x1="350.5" x2="637.5" y1="305.4688" y2="305.4688"/><text fill="#000000" font-family="sans-serif" font-size="13" font-weight="bold" lengthAdjust="spacing" textLength="7" x="362.5" y="293.4521">5</text><text fill="#000000" font-family="sans-serif" font-size="13" lengthAdjust="spacing" textLength="217" x="373.5" y="286.1904">verified and accept a commission is set</text><text fill="#000000" font-family="sans-serif" font-size="13" lengthAdjust="spacing" textLength="163" x="373.5" y="300.7139">and the request is published</text><polygon fill="#181818" points="44.5,344.5156,34.5,348.5156,44.5,352.5156,40.5,348.5156" style="stroke:#181818;stroke-width:1.0;"/><line style="stroke:#181818;stroke-width:1.0;stroke-dasharray:2.0,2.0;" x1="38.5" x2="339.5" y1="348.5156" y2="348.5156"/><text fill="#000000" font-family="sans-serif" font-size="13" font-weight="bold" lengthAdjust="spacing" textLength="7" x="50.5" y="336.499">6</text><text fill="#000000" font-family="sans-serif" font-size="13" lengthAdjust="spacing" textLength="240" x="61.5" y="329.2373">Notifies and displays data about the state</text><text fill="#000000" font-family="sans-serif" font-size="13" lengthAdjust="spacing" textLength="167" x="61.5" y="343.7607">of the requested publishment</text><!--SRC=[VLB1Rjim3BthAuYSLg3P1-HGeC3EMx5SSs5aEXPYIwf8jV3VZvBim5kJ-KIOZu_lFOglpaTCEC4KVB132XE1f4o6Rvs8zeeNEiey4YIoWluoRW4yO1S-dRz0ZoEJCU94eSUPXIOuqdicRmb-EBmKk36O9VWydIbfRIKasFtwz9HsW0orCieiphg8Nc1tQ5IrtSewvpvGQC4RqA-Mi7zPLnzquCeW0LYK3n0udoV7x8Al0pUIbHMMRo7OArSZFQXpzS72qA5W1NPqT_wh2faZyKf0NMM0RsyfH4eoWnqqHYkK7AjdVZvv-7t3nkGiFSDRefvIqXzw2YzF9u- -KpkM-ZoESpEcufnyl-zioVcrJDSWQ_NLyKjhg6hd-v0c1Zo7B203hGwWh8wvRbCKl9E-bmU9_ALbsLwn_-BNNldT5Eot4NveEhqhzdKtMakndDE6vPhW69W4MYnRhTg8-Jmw7gZxtyvxmis3f_0pI173LKpdE8uujtUn2KkVdBATVEYtUif5cvofnFyuDBEUnlm1]--></g></svg>