<?xml version="1.0" encoding="us-ascii" standalone="no"?><svg xmlns="http://www.w3.org/2000/svg" xmlns:xlink="http://www.w3.org/1999/xlink" contentStyleType="text/css" height="888px" preserveAspectRatio="none" style="width:1095px;height:888px;background:#FFFFFF;" version="1.1" viewBox="0 0 1095 888" width="1095px" zoomAndPan="magnify"><defs/><g><!--class CreatePropertySaleRequestController--><g id="elem_CreatePropertySaleRequestController"><rect codeLine="4" fill="#F1F1F1" height="103.8633" id="CreatePropertySaleRequestController" rx="2.5" ry="2.5" style="stroke:#181818;stroke-width:0.5;" width="272" x="264" y="7"/><ellipse cx="279" cy="23" fill="#ADD1B2" rx="11" ry="11" style="stroke:#181818;stroke-width:1.0;"/><path d="M281.7656,18.875 Q281.9219,18.6563 282.1094,18.5469 Q282.2969,18.4375 282.5156,18.4375 Q282.8906,18.4375 283.125,18.7031 Q283.3594,18.9531 283.3594,19.5625 L283.3594,21.0156 Q283.3594,21.625 283.125,21.8906 Q282.8906,22.1563 282.5156,22.1563 Q282.1719,22.1563 281.9688,21.9531 Q281.7656,21.7656 281.6563,21.25 Q281.6094,20.8906 281.4219,20.7031 Q281.0938,20.3281 280.4844,20.1094 Q279.875,19.8906 279.25,19.8906 Q278.4844,19.8906 277.8438,20.2188 Q277.2188,20.5469 276.7188,21.2969 Q276.2344,22.0469 276.2344,23.0781 L276.2344,24.1719 Q276.2344,25.4063 277.125,26.2344 Q278.0156,27.0469 279.6094,27.0469 Q280.5469,27.0469 281.2031,26.7969 Q281.5938,26.6406 282.0156,26.2031 Q282.2813,25.9375 282.4219,25.8594 Q282.5781,25.7813 282.7813,25.7813 Q283.1094,25.7813 283.3594,26.0469 Q283.625,26.2969 283.625,26.6406 Q283.625,26.9844 283.2813,27.3906 Q282.7813,27.9688 281.9844,28.2969 Q280.9063,28.75 279.6094,28.75 Q278.0938,28.75 276.8906,28.125 Q275.9063,27.625 275.2188,26.5625 Q274.5313,25.4844 274.5313,24.2031 L274.5313,23.0469 Q274.5313,21.7188 275.1406,20.5781 Q275.7656,19.4219 276.8594,18.8125 Q277.9531,18.1875 279.1875,18.1875 Q279.9219,18.1875 280.5625,18.3594 Q281.2188,18.5156 281.7656,18.875 Z " fill="#000000"/><text fill="#000000" font-family="sans-serif" font-size="14" lengthAdjust="spacing" textLength="240" x="293" y="28.7969">CreatePropertySaleRequestController</text><line style="stroke:#181818;stroke-width:0.5;" x1="265" x2="535" y1="39" y2="39"/><line style="stroke:#181818;stroke-width:0.5;" x1="265" x2="535" y1="47" y2="47"/><ellipse cx="275" cy="61.8105" fill="#84BE84" rx="3" ry="3" style="stroke:#038048;stroke-width:1.0;"/><text fill="#000000" font-family="sans-serif" font-size="14" lengthAdjust="spacing" textLength="70" x="284" y="66.1074">getStates()</text><ellipse cx="275" cy="80.4316" fill="#84BE84" rx="3" ry="3" style="stroke:#038048;stroke-width:1.0;"/><text fill="#000000" font-family="sans-serif" font-size="14" lengthAdjust="spacing" textLength="113" x="284" y="84.7285">getDistricts(State)</text><ellipse cx="275" cy="99.0527" fill="#84BE84" rx="3" ry="3" style="stroke:#038048;stroke-width:1.0;"/><text fill="#000000" font-family="sans-serif" font-size="14" lengthAdjust="spacing" textLength="108" x="284" y="103.3496">getCities(District)</text></g><!--class CreatePropertySaleRequestUI--><g id="elem_CreatePropertySaleRequestUI"><rect codeLine="10" fill="#F1F1F1" height="48" id="CreatePropertySaleRequestUI" rx="2.5" ry="2.5" style="stroke:#181818;stroke-width:0.5;" width="222" x="7" y="35"/><ellipse cx="22" cy="51" fill="#ADD1B2" rx="11" ry="11" style="stroke:#181818;stroke-width:1.0;"/><path d="M24.7656,46.875 Q24.9219,46.6563 25.1094,46.5469 Q25.2969,46.4375 25.5156,46.4375 Q25.8906,46.4375 26.125,46.7031 Q26.3594,46.9531 26.3594,47.5625 L26.3594,49.0156 Q26.3594,49.625 26.125,49.8906 Q25.8906,50.1563 25.5156,50.1563 Q25.1719,50.1563 24.9688,49.9531 Q24.7656,49.7656 24.6563,49.25 Q24.6094,48.8906 24.4219,48.7031 Q24.0938,48.3281 23.4844,48.1094 Q22.875,47.8906 22.25,47.8906 Q21.4844,47.8906 20.8438,48.2188 Q20.2188,48.5469 19.7188,49.2969 Q19.2344,50.0469 19.2344,51.0781 L19.2344,52.1719 Q19.2344,53.4063 20.125,54.2344 Q21.0156,55.0469 22.6094,55.0469 Q23.5469,55.0469 24.2031,54.7969 Q24.5938,54.6406 25.0156,54.2031 Q25.2813,53.9375 25.4219,53.8594 Q25.5781,53.7813 25.7813,53.7813 Q26.1094,53.7813 26.3594,54.0469 Q26.625,54.2969 26.625,54.6406 Q26.625,54.9844 26.2813,55.3906 Q25.7813,55.9688 24.9844,56.2969 Q23.9063,56.75 22.6094,56.75 Q21.0938,56.75 19.8906,56.125 Q18.9063,55.625 18.2188,54.5625 Q17.5313,53.4844 17.5313,52.2031 L17.5313,51.0469 Q17.5313,49.7188 18.1406,48.5781 Q18.7656,47.4219 19.8594,46.8125 Q20.9531,46.1875 22.1875,46.1875 Q22.9219,46.1875 23.5625,46.3594 Q24.2188,46.5156 24.7656,46.875 Z " fill="#000000"/><text fill="#000000" font-family="sans-serif" font-size="14" lengthAdjust="spacing" textLength="190" x="36" y="56.7969">CreatePropertySaleRequestUI</text><line style="stroke:#181818;stroke-width:0.5;" x1="8" x2="228" y1="67" y2="67"/><line style="stroke:#181818;stroke-width:0.5;" x1="8" x2="228" y1="75" y2="75"/></g><!--class Repositories--><g id="elem_Repositories"><rect codeLine="13" fill="#F1F1F1" height="103.8633" id="Repositories" rx="2.5" ry="2.5" style="stroke:#181818;stroke-width:0.5;" width="270" x="265" y="190"/><ellipse cx="356.25" cy="206" fill="#ADD1B2" rx="11" ry="11" style="stroke:#181818;stroke-width:1.0;"/><path d="M359.0156,201.875 Q359.1719,201.6563 359.3594,201.5469 Q359.5469,201.4375 359.7656,201.4375 Q360.1406,201.4375 360.375,201.7031 Q360.6094,201.9531 360.6094,202.5625 L360.6094,204.0156 Q360.6094,204.625 360.375,204.8906 Q360.1406,205.1563 359.7656,205.1563 Q359.4219,205.1563 359.2188,204.9531 Q359.0156,204.7656 358.9063,204.25 Q358.8594,203.8906 358.6719,203.7031 Q358.3438,203.3281 357.7344,203.1094 Q357.125,202.8906 356.5,202.8906 Q355.7344,202.8906 355.0938,203.2188 Q354.4688,203.5469 353.9688,204.2969 Q353.4844,205.0469 353.4844,206.0781 L353.4844,207.1719 Q353.4844,208.4063 354.375,209.2344 Q355.2656,210.0469 356.8594,210.0469 Q357.7969,210.0469 358.4531,209.7969 Q358.8438,209.6406 359.2656,209.2031 Q359.5313,208.9375 359.6719,208.8594 Q359.8281,208.7813 360.0313,208.7813 Q360.3594,208.7813 360.6094,209.0469 Q360.875,209.2969 360.875,209.6406 Q360.875,209.9844 360.5313,210.3906 Q360.0313,210.9688 359.2344,211.2969 Q358.1563,211.75 356.8594,211.75 Q355.3438,211.75 354.1406,211.125 Q353.1563,210.625 352.4688,209.5625 Q351.7813,208.4844 351.7813,207.2031 L351.7813,206.0469 Q351.7813,204.7188 352.3906,203.5781 Q353.0156,202.4219 354.1094,201.8125 Q355.2031,201.1875 356.4375,201.1875 Q357.1719,201.1875 357.8125,201.3594 Q358.4688,201.5156 359.0156,201.875 Z " fill="#000000"/><text fill="#000000" font-family="sans-serif" font-size="14" lengthAdjust="spacing" textLength="79" x="376.75" y="211.7969">Repositories</text><line style="stroke:#181818;stroke-width:0.5;" x1="266" x2="534" y1="222" y2="222"/><line style="stroke:#181818;stroke-width:0.5;" x1="266" x2="534" y1="230" y2="230"/><ellipse cx="276" cy="244.8105" fill="#84BE84" rx="3" ry="3" style="stroke:#038048;stroke-width:1.0;"/><text fill="#000000" font-family="sans-serif" font-size="14" lengthAdjust="spacing" textLength="83" x="285" y="249.1074">getInstance()</text><ellipse cx="276" cy="263.4316" fill="#84BE84" rx="3" ry="3" style="stroke:#038048;stroke-width:1.0;"/><text fill="#000000" font-family="sans-serif" font-size="14" lengthAdjust="spacing" textLength="163" x="285" y="267.7285">getLocationRepositories()</text><ellipse cx="276" cy="282.0527" fill="#84BE84" rx="3" ry="3" style="stroke:#038048;stroke-width:1.0;"/><text fill="#000000" font-family="sans-serif" font-size="14" lengthAdjust="spacing" textLength="244" x="285" y="286.3496">getPropertySaleRequestRepositories()</text></g><!--class PropertySaleRequestRepositories--><g id="elem_PropertySaleRequestRepositories"><rect codeLine="19" fill="#F1F1F1" height="122.4844" id="PropertySaleRequestRepositories" rx="2.5" ry="2.5" style="stroke:#181818;stroke-width:0.5;" width="344" x="416" y="402"/><ellipse cx="476.75" cy="418" fill="#ADD1B2" rx="11" ry="11" style="stroke:#181818;stroke-width:1.0;"/><path d="M479.5156,413.875 Q479.6719,413.6563 479.8594,413.5469 Q480.0469,413.4375 480.2656,413.4375 Q480.6406,413.4375 480.875,413.7031 Q481.1094,413.9531 481.1094,414.5625 L481.1094,416.0156 Q481.1094,416.625 480.875,416.8906 Q480.6406,417.1563 480.2656,417.1563 Q479.9219,417.1563 479.7188,416.9531 Q479.5156,416.7656 479.4063,416.25 Q479.3594,415.8906 479.1719,415.7031 Q478.8438,415.3281 478.2344,415.1094 Q477.625,414.8906 477,414.8906 Q476.2344,414.8906 475.5938,415.2188 Q474.9688,415.5469 474.4688,416.2969 Q473.9844,417.0469 473.9844,418.0781 L473.9844,419.1719 Q473.9844,420.4063 474.875,421.2344 Q475.7656,422.0469 477.3594,422.0469 Q478.2969,422.0469 478.9531,421.7969 Q479.3438,421.6406 479.7656,421.2031 Q480.0313,420.9375 480.1719,420.8594 Q480.3281,420.7813 480.5313,420.7813 Q480.8594,420.7813 481.1094,421.0469 Q481.375,421.2969 481.375,421.6406 Q481.375,421.9844 481.0313,422.3906 Q480.5313,422.9688 479.7344,423.2969 Q478.6563,423.75 477.3594,423.75 Q475.8438,423.75 474.6406,423.125 Q473.6563,422.625 472.9688,421.5625 Q472.2813,420.4844 472.2813,419.2031 L472.2813,418.0469 Q472.2813,416.7188 472.8906,415.5781 Q473.5156,414.4219 474.6094,413.8125 Q475.7031,413.1875 476.9375,413.1875 Q477.6719,413.1875 478.3125,413.3594 Q478.9688,413.5156 479.5156,413.875 Z " fill="#000000"/><text fill="#000000" font-family="sans-serif" font-size="14" lengthAdjust="spacing" textLength="214" x="497.25" y="423.7969">PropertySaleRequestRepositories</text><line style="stroke:#181818;stroke-width:0.5;" x1="417" x2="759" y1="434" y2="434"/><line style="stroke:#181818;stroke-width:0.5;" x1="417" x2="759" y1="442" y2="442"/><ellipse cx="427" cy="456.8105" fill="#84BE84" rx="3" ry="3" style="stroke:#038048;stroke-width:1.0;"/><text fill="#000000" font-family="sans-serif" font-size="14" lengthAdjust="spacing" textLength="210" x="436" y="461.1074">createSalesResquest(Input Data)</text><ellipse cx="427" cy="475.4316" fill="#84BE84" rx="3" ry="3" style="stroke:#038048;stroke-width:1.0;"/><text fill="#000000" font-family="sans-serif" font-size="14" lengthAdjust="spacing" textLength="318" x="436" y="479.7285">addPropertySalesRequest(PropertySalesRequest)</text><ellipse cx="427" cy="494.0527" fill="#84BE84" rx="3" ry="3" style="stroke:#038048;stroke-width:1.0;"/><text fill="#000000" font-family="sans-serif" font-size="14" lengthAdjust="spacing" textLength="193" x="436" y="498.3496">isValid(PropertySalesRequest)</text><ellipse cx="427" cy="512.6738" fill="#84BE84" rx="3" ry="3" style="stroke:#038048;stroke-width:1.0;"/><text fill="#000000" font-family="sans-serif" font-size="14" lengthAdjust="spacing" textLength="194" x="436" y="516.9707">equals(PropertySalesRequest)</text></g><!--class LocationRepositories--><g id="elem_LocationRepositories"><rect codeLine="26" fill="#F1F1F1" height="66.6211" id="LocationRepositories" rx="2.5" ry="2.5" style="stroke:#181818;stroke-width:0.5;" width="165" x="13.5" y="429.5"/><ellipse cx="28.5" cy="445.5" fill="#ADD1B2" rx="11" ry="11" style="stroke:#181818;stroke-width:1.0;"/><path d="M31.2656,441.375 Q31.4219,441.1563 31.6094,441.0469 Q31.7969,440.9375 32.0156,440.9375 Q32.3906,440.9375 32.625,441.2031 Q32.8594,441.4531 32.8594,442.0625 L32.8594,443.5156 Q32.8594,444.125 32.625,444.3906 Q32.3906,444.6563 32.0156,444.6563 Q31.6719,444.6563 31.4688,444.4531 Q31.2656,444.2656 31.1563,443.75 Q31.1094,443.3906 30.9219,443.2031 Q30.5938,442.8281 29.9844,442.6094 Q29.375,442.3906 28.75,442.3906 Q27.9844,442.3906 27.3438,442.7188 Q26.7188,443.0469 26.2188,443.7969 Q25.7344,444.5469 25.7344,445.5781 L25.7344,446.6719 Q25.7344,447.9063 26.625,448.7344 Q27.5156,449.5469 29.1094,449.5469 Q30.0469,449.5469 30.7031,449.2969 Q31.0938,449.1406 31.5156,448.7031 Q31.7813,448.4375 31.9219,448.3594 Q32.0781,448.2813 32.2813,448.2813 Q32.6094,448.2813 32.8594,448.5469 Q33.125,448.7969 33.125,449.1406 Q33.125,449.4844 32.7813,449.8906 Q32.2813,450.4688 31.4844,450.7969 Q30.4063,451.25 29.1094,451.25 Q27.5938,451.25 26.3906,450.625 Q25.4063,450.125 24.7188,449.0625 Q24.0313,447.9844 24.0313,446.7031 L24.0313,445.5469 Q24.0313,444.2188 24.6406,443.0781 Q25.2656,441.9219 26.3594,441.3125 Q27.4531,440.6875 28.6875,440.6875 Q29.4219,440.6875 30.0625,440.8594 Q30.7188,441.0156 31.2656,441.375 Z " fill="#000000"/><text fill="#000000" font-family="sans-serif" font-size="14" lengthAdjust="spacing" textLength="133" x="42.5" y="451.2969">LocationRepositories</text><line style="stroke:#181818;stroke-width:0.5;" x1="14.5" x2="177.5" y1="461.5" y2="461.5"/><line style="stroke:#181818;stroke-width:0.5;" x1="14.5" x2="177.5" y1="469.5" y2="469.5"/><ellipse cx="24.5" cy="484.3105" fill="#84BE84" rx="3" ry="3" style="stroke:#038048;stroke-width:1.0;"/><text fill="#000000" font-family="sans-serif" font-size="14" lengthAdjust="spacing" textLength="70" x="33.5" y="488.6074">getStates()</text></g><!--class PropertySaleRequest--><g id="elem_PropertySaleRequest"><rect codeLine="30" fill="#F1F1F1" height="215.5898" id="PropertySaleRequest" rx="2.5" ry="2.5" style="stroke:#181818;stroke-width:0.5;" width="167" x="213.5" y="355"/><ellipse cx="228.5" cy="371" fill="#ADD1B2" rx="11" ry="11" style="stroke:#181818;stroke-width:1.0;"/><path d="M231.2656,366.875 Q231.4219,366.6563 231.6094,366.5469 Q231.7969,366.4375 232.0156,366.4375 Q232.3906,366.4375 232.625,366.7031 Q232.8594,366.9531 232.8594,367.5625 L232.8594,369.0156 Q232.8594,369.625 232.625,369.8906 Q232.3906,370.1563 232.0156,370.1563 Q231.6719,370.1563 231.4688,369.9531 Q231.2656,369.7656 231.1563,369.25 Q231.1094,368.8906 230.9219,368.7031 Q230.5938,368.3281 229.9844,368.1094 Q229.375,367.8906 228.75,367.8906 Q227.9844,367.8906 227.3438,368.2188 Q226.7188,368.5469 226.2188,369.2969 Q225.7344,370.0469 225.7344,371.0781 L225.7344,372.1719 Q225.7344,373.4063 226.625,374.2344 Q227.5156,375.0469 229.1094,375.0469 Q230.0469,375.0469 230.7031,374.7969 Q231.0938,374.6406 231.5156,374.2031 Q231.7813,373.9375 231.9219,373.8594 Q232.0781,373.7813 232.2813,373.7813 Q232.6094,373.7813 232.8594,374.0469 Q233.125,374.2969 233.125,374.6406 Q233.125,374.9844 232.7813,375.3906 Q232.2813,375.9688 231.4844,376.2969 Q230.4063,376.75 229.1094,376.75 Q227.5938,376.75 226.3906,376.125 Q225.4063,375.625 224.7188,374.5625 Q224.0313,373.4844 224.0313,372.2031 L224.0313,371.0469 Q224.0313,369.7188 224.6406,368.5781 Q225.2656,367.4219 226.3594,366.8125 Q227.4531,366.1875 228.6875,366.1875 Q229.4219,366.1875 230.0625,366.3594 Q230.7188,366.5156 231.2656,366.875 Z " fill="#000000"/><text fill="#000000" font-family="sans-serif" font-size="14" lengthAdjust="spacing" textLength="135" x="242.5" y="376.7969">PropertySaleRequest</text><line style="stroke:#181818;stroke-width:0.5;" x1="214.5" x2="379.5" y1="387" y2="387"/><rect fill="none" height="6" style="stroke:#C82930;stroke-width:1.0;" width="6" x="221.5" y="398.8105"/><text fill="#000000" font-family="sans-serif" font-size="14" lengthAdjust="spacing" textLength="54" x="233.5" y="406.1074">Property</text><rect fill="none" height="6" style="stroke:#C82930;stroke-width:1.0;" width="6" x="221.5" y="417.4316"/><text fill="#000000" font-family="sans-serif" font-size="14" lengthAdjust="spacing" textLength="41" x="233.5" y="424.7285">Owner</text><rect fill="none" height="6" style="stroke:#C82930;stroke-width:1.0;" width="6" x="221.5" y="436.0527"/><text fill="#000000" font-family="sans-serif" font-size="14" lengthAdjust="spacing" textLength="37" x="233.5" y="443.3496">Agent</text><rect fill="none" height="6" style="stroke:#C82930;stroke-width:1.0;" width="6" x="221.5" y="454.6738"/><text fill="#000000" font-family="sans-serif" font-size="14" lengthAdjust="spacing" textLength="43" x="233.5" y="461.9707">adress</text><rect fill="none" height="6" style="stroke:#C82930;stroke-width:1.0;" width="6" x="221.5" y="473.2949"/><text fill="#000000" font-family="sans-serif" font-size="14" lengthAdjust="spacing" textLength="31" x="233.5" y="480.5918">state</text><rect fill="none" height="6" style="stroke:#C82930;stroke-width:1.0;" width="6" x="221.5" y="491.916"/><text fill="#000000" font-family="sans-serif" font-size="14" lengthAdjust="spacing" textLength="41" x="233.5" y="499.2129">district</text><rect fill="none" height="6" style="stroke:#C82930;stroke-width:1.0;" width="6" x="221.5" y="510.5371"/><text fill="#000000" font-family="sans-serif" font-size="14" lengthAdjust="spacing" textLength="21" x="233.5" y="517.834">city</text><rect fill="none" height="6" style="stroke:#C82930;stroke-width:1.0;" width="6" x="221.5" y="529.1582"/><text fill="#000000" font-family="sans-serif" font-size="14" lengthAdjust="spacing" textLength="96" x="233.5" y="536.4551">requestedPrice</text><line style="stroke:#181818;stroke-width:0.5;" x1="214.5" x2="379.5" y1="543.9688" y2="543.9688"/><ellipse cx="224.5" cy="558.7793" fill="#84BE84" rx="3" ry="3" style="stroke:#038048;stroke-width:1.0;"/><text fill="#000000" font-family="sans-serif" font-size="14" lengthAdjust="spacing" textLength="50" x="233.5" y="563.0762">create()</text></g><!--class State--><g id="elem_State"><rect codeLine="42" fill="#F1F1F1" height="66.6211" id="State" rx="2.5" ry="2.5" style="stroke:#181818;stroke-width:0.5;" width="106" x="43" y="632"/><ellipse cx="76.45" cy="648" fill="#ADD1B2" rx="11" ry="11" style="stroke:#181818;stroke-width:1.0;"/><path d="M79.2156,643.875 Q79.3719,643.6563 79.5594,643.5469 Q79.7469,643.4375 79.9656,643.4375 Q80.3406,643.4375 80.575,643.7031 Q80.8094,643.9531 80.8094,644.5625 L80.8094,646.0156 Q80.8094,646.625 80.575,646.8906 Q80.3406,647.1563 79.9656,647.1563 Q79.6219,647.1563 79.4188,646.9531 Q79.2156,646.7656 79.1063,646.25 Q79.0594,645.8906 78.8719,645.7031 Q78.5438,645.3281 77.9344,645.1094 Q77.325,644.8906 76.7,644.8906 Q75.9344,644.8906 75.2938,645.2188 Q74.6688,645.5469 74.1688,646.2969 Q73.6844,647.0469 73.6844,648.0781 L73.6844,649.1719 Q73.6844,650.4063 74.575,651.2344 Q75.4656,652.0469 77.0594,652.0469 Q77.9969,652.0469 78.6531,651.7969 Q79.0438,651.6406 79.4656,651.2031 Q79.7313,650.9375 79.8719,650.8594 Q80.0281,650.7813 80.2313,650.7813 Q80.5594,650.7813 80.8094,651.0469 Q81.075,651.2969 81.075,651.6406 Q81.075,651.9844 80.7313,652.3906 Q80.2313,652.9688 79.4344,653.2969 Q78.3563,653.75 77.0594,653.75 Q75.5438,653.75 74.3406,653.125 Q73.3563,652.625 72.6688,651.5625 Q71.9813,650.4844 71.9813,649.2031 L71.9813,648.0469 Q71.9813,646.7188 72.5906,645.5781 Q73.2156,644.4219 74.3094,643.8125 Q75.4031,643.1875 76.6375,643.1875 Q77.3719,643.1875 78.0125,643.3594 Q78.6688,643.5156 79.2156,643.875 Z " fill="#000000"/><text fill="#000000" font-family="sans-serif" font-size="14" lengthAdjust="spacing" textLength="33" x="94.55" y="653.7969">State</text><line style="stroke:#181818;stroke-width:0.5;" x1="44" x2="148" y1="664" y2="664"/><line style="stroke:#181818;stroke-width:0.5;" x1="44" x2="148" y1="672" y2="672"/><ellipse cx="54" cy="686.8105" fill="#84BE84" rx="3" ry="3" style="stroke:#038048;stroke-width:1.0;"/><text fill="#000000" font-family="sans-serif" font-size="14" lengthAdjust="spacing" textLength="80" x="63" y="691.1074">getDistricts()</text></g><!--class District--><g id="elem_District"><rect codeLine="45" fill="#F1F1F1" height="66.6211" id="District" rx="2.5" ry="2.5" style="stroke:#181818;stroke-width:0.5;" width="91" x="184.5" y="632"/><ellipse cx="206.7" cy="648" fill="#ADD1B2" rx="11" ry="11" style="stroke:#181818;stroke-width:1.0;"/><path d="M209.4656,643.875 Q209.6219,643.6563 209.8094,643.5469 Q209.9969,643.4375 210.2156,643.4375 Q210.5906,643.4375 210.825,643.7031 Q211.0594,643.9531 211.0594,644.5625 L211.0594,646.0156 Q211.0594,646.625 210.825,646.8906 Q210.5906,647.1563 210.2156,647.1563 Q209.8719,647.1563 209.6688,646.9531 Q209.4656,646.7656 209.3563,646.25 Q209.3094,645.8906 209.1219,645.7031 Q208.7938,645.3281 208.1844,645.1094 Q207.575,644.8906 206.95,644.8906 Q206.1844,644.8906 205.5438,645.2188 Q204.9188,645.5469 204.4188,646.2969 Q203.9344,647.0469 203.9344,648.0781 L203.9344,649.1719 Q203.9344,650.4063 204.825,651.2344 Q205.7156,652.0469 207.3094,652.0469 Q208.2469,652.0469 208.9031,651.7969 Q209.2938,651.6406 209.7156,651.2031 Q209.9813,650.9375 210.1219,650.8594 Q210.2781,650.7813 210.4813,650.7813 Q210.8094,650.7813 211.0594,651.0469 Q211.325,651.2969 211.325,651.6406 Q211.325,651.9844 210.9813,652.3906 Q210.4813,652.9688 209.6844,653.2969 Q208.6063,653.75 207.3094,653.75 Q205.7938,653.75 204.5906,653.125 Q203.6063,652.625 202.9188,651.5625 Q202.2313,650.4844 202.2313,649.2031 L202.2313,648.0469 Q202.2313,646.7188 202.8406,645.5781 Q203.4656,644.4219 204.5594,643.8125 Q205.6531,643.1875 206.8875,643.1875 Q207.6219,643.1875 208.2625,643.3594 Q208.9188,643.5156 209.4656,643.875 Z " fill="#000000"/><text fill="#000000" font-family="sans-serif" font-size="14" lengthAdjust="spacing" textLength="43" x="222.3" y="653.7969">District</text><line style="stroke:#181818;stroke-width:0.5;" x1="185.5" x2="274.5" y1="664" y2="664"/><line style="stroke:#181818;stroke-width:0.5;" x1="185.5" x2="274.5" y1="672" y2="672"/><ellipse cx="195.5" cy="686.8105" fill="#84BE84" rx="3" ry="3" style="stroke:#038048;stroke-width:1.0;"/><text fill="#000000" font-family="sans-serif" font-size="14" lengthAdjust="spacing" textLength="65" x="204.5" y="691.1074">getCities()</text></g><!--class City--><g id="elem_City"><rect codeLine="48" fill="#F1F1F1" height="48" id="City" rx="2.5" ry="2.5" style="stroke:#181818;stroke-width:0.5;" width="56" x="311" y="641.5"/><ellipse cx="326" cy="657.5" fill="#ADD1B2" rx="11" ry="11" style="stroke:#181818;stroke-width:1.0;"/><path d="M328.7656,653.375 Q328.9219,653.1563 329.1094,653.0469 Q329.2969,652.9375 329.5156,652.9375 Q329.8906,652.9375 330.125,653.2031 Q330.3594,653.4531 330.3594,654.0625 L330.3594,655.5156 Q330.3594,656.125 330.125,656.3906 Q329.8906,656.6563 329.5156,656.6563 Q329.1719,656.6563 328.9688,656.4531 Q328.7656,656.2656 328.6563,655.75 Q328.6094,655.3906 328.4219,655.2031 Q328.0938,654.8281 327.4844,654.6094 Q326.875,654.3906 326.25,654.3906 Q325.4844,654.3906 324.8438,654.7188 Q324.2188,655.0469 323.7188,655.7969 Q323.2344,656.5469 323.2344,657.5781 L323.2344,658.6719 Q323.2344,659.9063 324.125,660.7344 Q325.0156,661.5469 326.6094,661.5469 Q327.5469,661.5469 328.2031,661.2969 Q328.5938,661.1406 329.0156,660.7031 Q329.2813,660.4375 329.4219,660.3594 Q329.5781,660.2813 329.7813,660.2813 Q330.1094,660.2813 330.3594,660.5469 Q330.625,660.7969 330.625,661.1406 Q330.625,661.4844 330.2813,661.8906 Q329.7813,662.4688 328.9844,662.7969 Q327.9063,663.25 326.6094,663.25 Q325.0938,663.25 323.8906,662.625 Q322.9063,662.125 322.2188,661.0625 Q321.5313,659.9844 321.5313,658.7031 L321.5313,657.5469 Q321.5313,656.2188 322.1406,655.0781 Q322.7656,653.9219 323.8594,653.3125 Q324.9531,652.6875 326.1875,652.6875 Q326.9219,652.6875 327.5625,652.8594 Q328.2188,653.0156 328.7656,653.375 Z " fill="#000000"/><text fill="#000000" font-family="sans-serif" font-size="14" lengthAdjust="spacing" textLength="24" x="340" y="663.2969">City</text><line style="stroke:#181818;stroke-width:0.5;" x1="312" x2="366" y1="673.5" y2="673.5"/><line style="stroke:#181818;stroke-width:0.5;" x1="312" x2="366" y1="681.5" y2="681.5"/></g><!--class BranchesRepositories--><g id="elem_BranchesRepositories"><rect codeLine="51" fill="#F1F1F1" height="85.2422" id="BranchesRepositories" rx="2.5" ry="2.5" style="stroke:#181818;stroke-width:0.5;" width="171" x="707.5" y="199.5"/><ellipse cx="722.5" cy="215.5" fill="#ADD1B2" rx="11" ry="11" style="stroke:#181818;stroke-width:1.0;"/><path d="M725.2656,211.375 Q725.4219,211.1563 725.6094,211.0469 Q725.7969,210.9375 726.0156,210.9375 Q726.3906,210.9375 726.625,211.2031 Q726.8594,211.4531 726.8594,212.0625 L726.8594,213.5156 Q726.8594,214.125 726.625,214.3906 Q726.3906,214.6563 726.0156,214.6563 Q725.6719,214.6563 725.4688,214.4531 Q725.2656,214.2656 725.1563,213.75 Q725.1094,213.3906 724.9219,213.2031 Q724.5938,212.8281 723.9844,212.6094 Q723.375,212.3906 722.75,212.3906 Q721.9844,212.3906 721.3438,212.7188 Q720.7188,213.0469 720.2188,213.7969 Q719.7344,214.5469 719.7344,215.5781 L719.7344,216.6719 Q719.7344,217.9063 720.625,218.7344 Q721.5156,219.5469 723.1094,219.5469 Q724.0469,219.5469 724.7031,219.2969 Q725.0938,219.1406 725.5156,218.7031 Q725.7813,218.4375 725.9219,218.3594 Q726.0781,218.2813 726.2813,218.2813 Q726.6094,218.2813 726.8594,218.5469 Q727.125,218.7969 727.125,219.1406 Q727.125,219.4844 726.7813,219.8906 Q726.2813,220.4688 725.4844,220.7969 Q724.4063,221.25 723.1094,221.25 Q721.5938,221.25 720.3906,220.625 Q719.4063,220.125 718.7188,219.0625 Q718.0313,217.9844 718.0313,216.7031 L718.0313,215.5469 Q718.0313,214.2188 718.6406,213.0781 Q719.2656,211.9219 720.3594,211.3125 Q721.4531,210.6875 722.6875,210.6875 Q723.4219,210.6875 724.0625,210.8594 Q724.7188,211.0156 725.2656,211.375 Z " fill="#000000"/><text fill="#000000" font-family="sans-serif" font-size="14" lengthAdjust="spacing" textLength="139" x="736.5" y="221.2969">BranchesRepositories</text><line style="stroke:#181818;stroke-width:0.5;" x1="708.5" x2="877.5" y1="231.5" y2="231.5"/><line style="stroke:#181818;stroke-width:0.5;" x1="708.5" x2="877.5" y1="239.5" y2="239.5"/><ellipse cx="718.5" cy="254.3105" fill="#84BE84" rx="3" ry="3" style="stroke:#038048;stroke-width:1.0;"/><text fill="#000000" font-family="sans-serif" font-size="14" lengthAdjust="spacing" textLength="118" x="727.5" y="258.6074">getAgents(storeNetwork)</text><ellipse cx="718.5" cy="272.9316" fill="#84BE84" rx="3" ry="3" style="stroke:#038048;stroke-width:1.0;"/><text fill="#000000" font-family="sans-serif" font-size="14" lengthAdjust="spacing" textLength="90" x="727.5" y="277.2285">getBranches()</text></g><!--class StoreNetwork--><g id="elem_Branch"><rect codeLine="55" fill="#F1F1F1" height="66.6211" id="Branch" rx="2.5" ry="2.5" style="stroke:#181818;stroke-width:0.5;" width="127" x="795.5" y="429.5"/><ellipse cx="833" cy="445.5" fill="#ADD1B2" rx="11" ry="11" style="stroke:#181818;stroke-width:1.0;"/><path d="M835.7656,441.375 Q835.9219,441.1563 836.1094,441.0469 Q836.2969,440.9375 836.5156,440.9375 Q836.8906,440.9375 837.125,441.2031 Q837.3594,441.4531 837.3594,442.0625 L837.3594,443.5156 Q837.3594,444.125 837.125,444.3906 Q836.8906,444.6563 836.5156,444.6563 Q836.1719,444.6563 835.9688,444.4531 Q835.7656,444.2656 835.6563,443.75 Q835.6094,443.3906 835.4219,443.2031 Q835.0938,442.8281 834.4844,442.6094 Q833.875,442.3906 833.25,442.3906 Q832.4844,442.3906 831.8438,442.7188 Q831.2188,443.0469 830.7188,443.7969 Q830.2344,444.5469 830.2344,445.5781 L830.2344,446.6719 Q830.2344,447.9063 831.125,448.7344 Q832.0156,449.5469 833.6094,449.5469 Q834.5469,449.5469 835.2031,449.2969 Q835.5938,449.1406 836.0156,448.7031 Q836.2813,448.4375 836.4219,448.3594 Q836.5781,448.2813 836.7813,448.2813 Q837.1094,448.2813 837.3594,448.5469 Q837.625,448.7969 837.625,449.1406 Q837.625,449.4844 837.2813,449.8906 Q836.7813,450.4688 835.9844,450.7969 Q834.9063,451.25 833.6094,451.25 Q832.0938,451.25 830.8906,450.625 Q829.9063,450.125 829.2188,449.0625 Q828.5313,447.9844 828.5313,446.7031 L828.5313,445.5469 Q828.5313,444.2188 829.1406,443.0781 Q829.7656,441.9219 830.8594,441.3125 Q831.9531,440.6875 833.1875,440.6875 Q833.9219,440.6875 834.5625,440.8594 Q835.2188,441.0156 835.7656,441.375 Z " fill="#000000"/><text fill="#000000" font-family="sans-serif" font-size="14" lengthAdjust="spacing" textLength="45" x="852" y="451.2969">Branch</text><line style="stroke:#181818;stroke-width:0.5;" x1="796.5" x2="921.5" y1="461.5" y2="461.5"/><line style="stroke:#181818;stroke-width:0.5;" x1="796.5" x2="921.5" y1="469.5" y2="469.5"/><text fill="#000000" font-family="sans-serif" font-size="14" lengthAdjust="spacing" textLength="115" x="801.5" y="488.6074">getStores(storeNetwork)</text></g><!--class Store--><g id="elem_Store"><rect codeLine="58" fill="#F1F1F1" height="85.2422" id="Store" rx="2.5" ry="2.5" style="stroke:#181818;stroke-width:0.5;" width="130" x="958" y="420.5"/><ellipse cx="1001.8" cy="436.5" fill="#ADD1B2" rx="11" ry="11" style="stroke:#181818;stroke-width:1.0;"/><path d="M1004.5656,432.375 Q1004.7219,432.1563 1004.9094,432.0469 Q1005.0969,431.9375 1005.3156,431.9375 Q1005.6906,431.9375 1005.925,432.2031 Q1006.1594,432.4531 1006.1594,433.0625 L1006.1594,434.5156 Q1006.1594,435.125 1005.925,435.3906 Q1005.6906,435.6563 1005.3156,435.6563 Q1004.9719,435.6563 1004.7688,435.4531 Q1004.5656,435.2656 1004.4563,434.75 Q1004.4094,434.3906 1004.2219,434.2031 Q1003.8938,433.8281 1003.2844,433.6094 Q1002.675,433.3906 1002.05,433.3906 Q1001.2844,433.3906 1000.6438,433.7188 Q1000.0188,434.0469 999.5188,434.7969 Q999.0344,435.5469 999.0344,436.5781 L999.0344,437.6719 Q999.0344,438.9063 999.925,439.7344 Q1000.8156,440.5469 1002.4094,440.5469 Q1003.3469,440.5469 1004.0031,440.2969 Q1004.3938,440.1406 1004.8156,439.7031 Q1005.0813,439.4375 1005.2219,439.3594 Q1005.3781,439.2813 1005.5813,439.2813 Q1005.9094,439.2813 1006.1594,439.5469 Q1006.425,439.7969 1006.425,440.1406 Q1006.425,440.4844 1006.0813,440.8906 Q1005.5813,441.4688 1004.7844,441.7969 Q1003.7063,442.25 1002.4094,442.25 Q1000.8938,442.25 999.6906,441.625 Q998.7063,441.125 998.0188,440.0625 Q997.3313,438.9844 997.3313,437.7031 L997.3313,436.5469 Q997.3313,435.2188 997.9406,434.0781 Q998.5656,432.9219 999.6594,432.3125 Q1000.7531,431.6875 1001.9875,431.6875 Q1002.7219,431.6875 1003.3625,431.8594 Q1004.0188,432.0156 1004.5656,432.375 Z " fill="#000000"/><text fill="#000000" font-family="sans-serif" font-size="14" lengthAdjust="spacing" textLength="34" x="1022.2" y="442.2969">Store</text><line style="stroke:#181818;stroke-width:0.5;" x1="959" x2="1087" y1="452.5" y2="452.5"/><rect fill="none" height="6" style="stroke:#C82930;stroke-width:1.0;" width="6" x="966" y="464.3105"/><text fill="#000000" font-family="sans-serif" font-size="14" lengthAdjust="spacing" textLength="104" x="978" y="471.6074">ArrayList Agents</text><line style="stroke:#181818;stroke-width:0.5;" x1="959" x2="1087" y1="479.1211" y2="479.1211"/><ellipse cx="969" cy="493.9316" fill="#84BE84" rx="3" ry="3" style="stroke:#038048;stroke-width:1.0;"/><text fill="#000000" font-family="sans-serif" font-size="14" lengthAdjust="spacing" textLength="74" x="978" y="498.2285">getAgents()</text></g><!--class Location--><g id="elem_Location"><rect codeLine="63" fill="#F1F1F1" height="103.8633" id="Location" rx="2.5" ry="2.5" style="stroke:#181818;stroke-width:0.5;" width="117" x="171.5" y="778"/><ellipse cx="200.45" cy="794" fill="#ADD1B2" rx="11" ry="11" style="stroke:#181818;stroke-width:1.0;"/><path d="M203.2156,789.875 Q203.3719,789.6563 203.5594,789.5469 Q203.7469,789.4375 203.9656,789.4375 Q204.3406,789.4375 204.575,789.7031 Q204.8094,789.9531 204.8094,790.5625 L204.8094,792.0156 Q204.8094,792.625 204.575,792.8906 Q204.3406,793.1563 203.9656,793.1563 Q203.6219,793.1563 203.4188,792.9531 Q203.2156,792.7656 203.1063,792.25 Q203.0594,791.8906 202.8719,791.7031 Q202.5438,791.3281 201.9344,791.1094 Q201.325,790.8906 200.7,790.8906 Q199.9344,790.8906 199.2938,791.2188 Q198.6688,791.5469 198.1688,792.2969 Q197.6844,793.0469 197.6844,794.0781 L197.6844,795.1719 Q197.6844,796.4063 198.575,797.2344 Q199.4656,798.0469 201.0594,798.0469 Q201.9969,798.0469 202.6531,797.7969 Q203.0438,797.6406 203.4656,797.2031 Q203.7313,796.9375 203.8719,796.8594 Q204.0281,796.7813 204.2313,796.7813 Q204.5594,796.7813 204.8094,797.0469 Q205.075,797.2969 205.075,797.6406 Q205.075,797.9844 204.7313,798.3906 Q204.2313,798.9688 203.4344,799.2969 Q202.3563,799.75 201.0594,799.75 Q199.5438,799.75 198.3406,799.125 Q197.3563,798.625 196.6688,797.5625 Q195.9813,796.4844 195.9813,795.2031 L195.9813,794.0469 Q195.9813,792.7188 196.5906,791.5781 Q197.2156,790.4219 198.3094,789.8125 Q199.4031,789.1875 200.6375,789.1875 Q201.3719,789.1875 202.0125,789.3594 Q202.6688,789.5156 203.2156,789.875 Z " fill="#000000"/><text fill="#000000" font-family="sans-serif" font-size="14" lengthAdjust="spacing" textLength="54" x="217.55" y="799.7969">Location</text><line style="stroke:#181818;stroke-width:0.5;" x1="172.5" x2="287.5" y1="810" y2="810"/><rect fill="none" height="6" style="stroke:#C82930;stroke-width:1.0;" width="6" x="179.5" y="821.8105"/><text fill="#000000" font-family="sans-serif" font-size="14" lengthAdjust="spacing" textLength="76" x="191.5" y="829.1074">String name</text><line style="stroke:#181818;stroke-width:0.5;" x1="172.5" x2="287.5" y1="836.6211" y2="836.6211"/><ellipse cx="182.5" cy="851.4316" fill="#84BE84" rx="3" ry="3" style="stroke:#038048;stroke-width:1.0;"/><text fill="#000000" font-family="sans-serif" font-size="14" lengthAdjust="spacing" textLength="91" x="191.5" y="855.7285">getLocations()</text><rect fill="#F24D5C" height="6" style="stroke:#C82930;stroke-width:1.0;" width="6" x="179.5" y="867.0527"/><text fill="#000000" font-family="sans-serif" font-size="14" lengthAdjust="spacing" textLength="59" x="191.5" y="874.3496">toString()</text></g><!--link CreatePropertySaleRequestUI to CreatePropertySaleRequestController--><g id="link_CreatePropertySaleRequestUI_CreatePropertySaleRequestController"><path codeLine="70" d="M229.26,59 C239.1,59 248.95,59 258.79,59 " fill="none" id="CreatePropertySaleRequestUI-to-CreatePropertySaleRequestController" style="stroke:#181818;stroke-width:1.0;stroke-dasharray:7.0,7.0;"/><polygon fill="#181818" points="263.94,59,254.94,55,258.94,59,254.94,63,263.94,59" style="stroke:#181818;stroke-width:1.0;"/></g><!--link CreatePropertySaleRequestController to Repositories--><g id="link_CreatePropertySaleRequestController_Repositories"><path codeLine="71" d="M400,111.38 C400,134.22 400,161.17 400,184.56 " fill="none" id="CreatePropertySaleRequestController-to-Repositories" style="stroke:#181818;stroke-width:1.0;stroke-dasharray:7.0,7.0;"/><polygon fill="#181818" points="400,189.8,404,180.8,400,184.8,396,180.8,400,189.8" style="stroke:#181818;stroke-width:1.0;"/><text fill="#000000" font-family="sans-serif" font-size="13" lengthAdjust="spacing" textLength="67" x="401" y="156.0283">repositories</text></g><!--link Repositories to PropertySaleRequestRepositories--><g id="link_Repositories_PropertySaleRequestRepositories"><path codeLine="72" d="M443.84,294.07 C470.43,325.04 504.59,364.83 532.98,397.91 " fill="none" id="Repositories-to-PropertySaleRequestRepositories" style="stroke:#181818;stroke-width:1.0;"/><polygon fill="#181818" points="536.41,401.9,533.5723,392.4688,533.149,398.1098,527.508,397.6864,536.41,401.9" style="stroke:#181818;stroke-width:1.0;"/><text fill="#000000" font-family="sans-serif" font-size="13" lengthAdjust="spacing" textLength="7" x="442.0086" y="315.8863">1</text><text fill="#000000" font-family="sans-serif" font-size="13" lengthAdjust="spacing" textLength="7" x="523.0402" y="390.8696">1</text></g><!--link Repositories to LocationRepositories--><g id="link_Repositories_LocationRepositories"><path codeLine="73" d="M291.98,294.06 C259.76,311.42 225.27,332.25 196,355 C169.54,375.56 143.82,403.31 125.09,425.4 " fill="none" id="Repositories-to-LocationRepositories" style="stroke:#181818;stroke-width:1.0;"/><polygon fill="#181818" points="121.68,429.46,130.5398,425.1584,124.9033,425.6377,124.4241,420.0011,121.68,429.46" style="stroke:#181818;stroke-width:1.0;"/><text fill="#000000" font-family="sans-serif" font-size="13" lengthAdjust="spacing" textLength="7" x="270.6915" y="315.875">1</text><text fill="#000000" font-family="sans-serif" font-size="13" lengthAdjust="spacing" textLength="7" x="119.0467" y="418.2776">1</text></g><!--link LocationRepositories to State--><g id="link_LocationRepositories_State"><path codeLine="74" d="M96,496.66 C96,532.2 96,588.94 96,626.46 " fill="none" id="LocationRepositories-to-State" style="stroke:#181818;stroke-width:1.0;"/><polygon fill="#181818" points="96,631.85,100,622.85,96,626.85,92,622.85,96,631.85" style="stroke:#181818;stroke-width:1.0;"/><text fill="#000000" font-family="sans-serif" font-size="13" lengthAdjust="spacing" textLength="20" x="74.0313" y="620.646">0..*</text></g><!--link State to District--><g id="link_State_District"><path codeLine="75" d="M149.13,665.5 C159.08,665.5 169.04,665.5 178.99,665.5 " fill="none" id="State-to-District" style="stroke:#181818;stroke-width:1.0;"/><polygon fill="#181818" points="184.19,665.5,175.19,661.5,179.19,665.5,175.19,669.5,184.19,665.5" style="stroke:#181818;stroke-width:1.0;"/><text fill="#000000" font-family="sans-serif" font-size="13" lengthAdjust="spacing" textLength="20" x="156.3417" y="661.3801">0..*</text></g><!--link District to City--><g id="link_District_City"><path codeLine="76" d="M275.56,665.5 C285.55,665.5 295.54,665.5 305.53,665.5 " fill="none" id="District-to-City" style="stroke:#181818;stroke-width:1.0;"/><polygon fill="#181818" points="310.75,665.5,301.75,661.5,305.75,665.5,301.75,669.5,310.75,665.5" style="stroke:#181818;stroke-width:1.0;"/><text fill="#000000" font-family="sans-serif" font-size="13" lengthAdjust="spacing" textLength="20" x="282.8609" y="660.8052">0..*</text></g><!--reverse link CreatePropertySaleRequestController to LocationRepositories--><g id="link_CreatePropertySaleRequestController_LocationRepositories"><path codeLine="77" d="M325.34,114.39 C298.67,136.04 269.64,162.38 247,190 C183.49,267.49 132.73,375.49 109.6,429.11 " fill="none" id="CreatePropertySaleRequestController-backto-LocationRepositories" style="stroke:#181818;stroke-width:1.0;stroke-dasharray:7.0,7.0;"/><polygon fill="#181818" points="329.26,111.23,319.7469,113.7798,325.3724,114.3743,324.7779,119.9999,329.26,111.23" style="stroke:#181818;stroke-width:1.0;"/></g><!--reverse link CreatePropertySaleRequestController to PropertySaleRequestRepositories--><g id="link_CreatePropertySaleRequestController_PropertySaleRequestRepositories"><path codeLine="78" d="M484.99,114.31 C510.56,134.92 536.04,160.6 552,190 C587.86,256.04 593.19,343.97 592.01,401.74 " fill="none" id="CreatePropertySaleRequestController-backto-PropertySaleRequestRepositories" style="stroke:#181818;stroke-width:1.0;stroke-dasharray:7.0,7.0;"/><polygon fill="#181818" points="480.89,111.05,485.4424,119.7836,484.8027,114.163,490.4233,113.5233,480.89,111.05" style="stroke:#181818;stroke-width:1.0;"/></g><!--reverse link Repositories to BranchesRepositories--><g id="link_Repositories_BranchesRepositories"><path codeLine="79" d="M548.22,242 C601.27,242 654.32,242 707.37,242 " fill="none" id="Repositories-backto-BranchesRepositories" style="stroke:#181818;stroke-width:1.0;"/><polygon fill="#181818" points="535.09,242,541.09,246,547.09,242,541.09,238,535.09,242" style="stroke:#181818;stroke-width:1.0;"/></g><!--reverse link BranchesRepositories to StoreNetwork--><g id="link_BranchesRepositories_Branch"><path codeLine="80" d="M809.38,297.35 C821.87,338.81 838.67,394.55 849.16,429.36 " fill="none" id="BranchesRepositories-backto-Branch" style="stroke:#181818;stroke-width:1.0;"/><polygon fill="#181818" points="805.57,284.71,803.4729,291.6094,809.0351,296.1988,811.1322,289.2994,805.57,284.71" style="stroke:#181818;stroke-width:1.0;"/></g><!--reverse link StoreNetwork to Store--><g id="link_Branch_Store"><path codeLine="81" d="M942.84,463 C947.89,463 952.94,463 957.99,463 " fill="none" id="Branch-backto-Store" style="stroke:#181818;stroke-width:1.0;"/><polygon fill="none" points="942.74,470,922.74,463,942.74,456,942.74,470" style="stroke:#181818;stroke-width:1.0;"/></g><!--link State to Location--><g id="link_State_Location"><path codeLine="83" d="M123.12,699.38 C138.07,717.52 157.19,740.71 175.12,762.44 " fill="none" id="State-to-Location" style="stroke:#181818;stroke-width:1.0;"/><polygon fill="none" points="180.56,758.04,187.88,777.92,169.76,766.94,180.56,758.04" style="stroke:#181818;stroke-width:1.0;"/><text fill="#000000" font-family="sans-serif" font-size="13" lengthAdjust="spacing" textLength="46" x="164" y="744.0283">extends</text></g><!--link District to Location--><g id="link_District_Location"><path codeLine="84" d="M230,699.38 C230,716.2 230,737.36 230,757.67 " fill="none" id="District-to-Location" style="stroke:#181818;stroke-width:1.0;"/><polygon fill="none" points="237,757.92,230,777.92,223,757.92,237,757.92" style="stroke:#181818;stroke-width:1.0;"/><text fill="#000000" font-family="sans-serif" font-size="13" lengthAdjust="spacing" textLength="46" x="231" y="744.0283">extends</text></g><!--link City to Location--><g id="link_City_Location"><path codeLine="85" d="M324.1,689.8 C313.57,706.16 299.07,728.52 286,748 C283.17,752.22 280.24,756.56 277.27,760.93 " fill="none" id="City-to-Location" style="stroke:#181818;stroke-width:1.0;"/><polygon fill="none" points="282.84,765.18,265.77,777.73,271.29,757.27,282.84,765.18" style="stroke:#181818;stroke-width:1.0;"/><text fill="#000000" font-family="sans-serif" font-size="13" lengthAdjust="spacing" textLength="46" x="299" y="744.0283">extends</text></g><!--link Location to Location--><g id="link_Location_Location"><path codeLine="86" d="M288.89,813.13 C308.16,813.21 323.5,818.84 323.5,830 C323.5,840.12 310.9,845.68 294.2,846.7 " fill="none" id="Location-to-Location" style="stroke:#181818;stroke-width:1.0;"/><polygon fill="#181818" points="288.89,846.87,298.0218,850.5593,293.8871,846.6987,297.7477,842.564,288.89,846.87" style="stroke:#181818;stroke-width:1.0;"/><text fill="#000000" font-family="sans-serif" font-size="13" lengthAdjust="spacing" textLength="20" x="296.4248" y="844.8372">0..*</text></g><!--link PropertySaleRequest to PropertySaleRequestRepositories--><g id="link_PropertySaleRequest_PropertySaleRequestRepositories"><path codeLine="88" d="M380.55,463 C387.89,463 395.24,463 402.58,463 " fill="none" id="PropertySaleRequest-to-PropertySaleRequestRepositories" style="stroke:#181818;stroke-width:1.0;"/><polygon fill="#181818" points="415.8,463,409.8,459,403.8,463,409.8,467,415.8,463" style="stroke:#181818;stroke-width:1.0;"/></g><!--SRC=[bLDDZzem4BtFhx2uR9RAeRsYrKfRzeAqKYjGUtSJYxKKxAndK8lI_lTEx8G4rYdq0l5xRxwUntUlH3Kk5ukwKfOE-oelt7vHL0fHbaRjlDe3G3YBbTUAz5VlQktfk5MLtkYtWqPQEKlULPNsee4FEqrROY5cz-7mR92yAGYp04TmPSYmekVkuS_LAj_MpQ3QwDgX8USvIrTqRP6KBNHNziKLYeopOsL79P9Vg4vrhaYvSX7wRNdSQ0oAR6th0ubdHOeBgh8SPy4kJPO2MMxmkwfCEKNpXwfmWZsrdHh-ucfOF3bY0x97GNxvQRK7-RJJba2gqcj4aDZc0TwHU84W2zEAVKoWUMHJQEZj2PR6Sg61vc8p1hh7cl6Q33G3nsRe_RFd6tzj7RYSCxIBsOyWYDVUYqVf8jH0CCRnPAU0eLs6sOydxzNnXPiJCVEuIC9uZjZo77OdhDhhiuLizP9Sf6Ci_6FfHVvuoyk3MrvdphdENivI-D4HphZPfvcGyZ7yNta6qu6fHOGK62C-vlby5bS4mgyOq7upeFyOSUrQtEJ0GvwdUxer-B-ScClKWa8APAtirh7ZnSDl6TSFJewrc3pKqI6-FVsBj2tn7N-oQ3cbQ1rB9HWyxI60nCn2pgzPyHS0]--></g></svg>