<?xml version="1.0" encoding="us-ascii" standalone="no"?><svg xmlns="http://www.w3.org/2000/svg" xmlns:xlink="http://www.w3.org/1999/xlink" contentStyleType="text/css" height="484px" preserveAspectRatio="none" style="width:331px;height:484px;background:#FFFFFF;" version="1.1" viewBox="0 0 331 484" width="331px" zoomAndPan="magnify"><defs/><g><text fill="#000000" font-family="sans-serif" font-size="14" font-weight="bold" lengthAdjust="spacing" textLength="242" x="45.75" y="30.1074">System Sequence Diagram - US020</text><rect fill="#FFFFFF" height="348.2012" style="stroke:#181818;stroke-width:1.0;" width="10" x="38.5" y="88.2422"/><rect fill="#FFFFFF" height="31.291" style="stroke:#181818;stroke-width:1.0;" width="10" x="279.5" y="111.5332"/><rect fill="#FFFFFF" height="31.291" style="stroke:#181818;stroke-width:1.0;" width="10" x="279.5" y="174.1152"/><rect fill="#FFFFFF" height="31.291" style="stroke:#181818;stroke-width:1.0;" width="10" x="279.5" y="262.9883"/><rect fill="#FFFFFF" height="31.291" style="stroke:#181818;stroke-width:1.0;" width="10" x="279.5" y="327.5703"/><rect fill="#FFFFFF" height="31.291" style="stroke:#181818;stroke-width:1.0;" width="10" x="279.5" y="390.1523"/><rect fill="none" height="209.0371" style="stroke:#000000;stroke-width:1.5;" width="314.5" x="10" y="220.4063"/><line style="stroke:#181818;stroke-width:0.5;stroke-dasharray:5.0,5.0;" x1="43" x2="43" y1="78.2422" y2="446.4434"/><line style="stroke:#181818;stroke-width:0.5;stroke-dasharray:5.0,5.0;" x1="284.5" x2="284.5" y1="78.2422" y2="446.4434"/><rect fill="#E2E2F0" height="32.6211" rx="2.5" ry="2.5" style="stroke:#181818;stroke-width:0.5;" width="47" x="20" y="44.6211"/><text fill="#000000" font-family="sans-serif" font-size="14" lengthAdjust="spacing" textLength="33" x="27" y="66.7285">client</text><rect fill="#E2E2F0" height="32.6211" rx="2.5" ry="2.5" style="stroke:#181818;stroke-width:0.5;" width="47" x="20" y="445.4434"/><text fill="#000000" font-family="sans-serif" font-size="14" lengthAdjust="spacing" textLength="33" x="27" y="467.5508">client</text><rect fill="#E2E2F0" height="32.6211" rx="2.5" ry="2.5" style="stroke:#181818;stroke-width:0.5;" width="60" x="254.5" y="44.6211"/><text fill="#000000" font-family="sans-serif" font-size="14" lengthAdjust="spacing" textLength="46" x="261.5" y="66.7285">System</text><rect fill="#E2E2F0" height="32.6211" rx="2.5" ry="2.5" style="stroke:#181818;stroke-width:0.5;" width="60" x="254.5" y="445.4434"/><text fill="#000000" font-family="sans-serif" font-size="14" lengthAdjust="spacing" textLength="46" x="261.5" y="467.5508">System</text><rect fill="#FFFFFF" height="348.2012" style="stroke:#181818;stroke-width:1.0;" width="10" x="38.5" y="88.2422"/><rect fill="#FFFFFF" height="31.291" style="stroke:#181818;stroke-width:1.0;" width="10" x="279.5" y="111.5332"/><rect fill="#FFFFFF" height="31.291" style="stroke:#181818;stroke-width:1.0;" width="10" x="279.5" y="174.1152"/><rect fill="#FFFFFF" height="31.291" style="stroke:#181818;stroke-width:1.0;" width="10" x="279.5" y="262.9883"/><rect fill="#FFFFFF" height="31.291" style="stroke:#181818;stroke-width:1.0;" width="10" x="279.5" y="327.5703"/><rect fill="#FFFFFF" height="31.291" style="stroke:#181818;stroke-width:1.0;" width="10" x="279.5" y="390.1523"/><polygon fill="#181818" points="267.5,107.5332,277.5,111.5332,267.5,115.5332,271.5,111.5332" style="stroke:#181818;stroke-width:1.0;"/><line style="stroke:#181818;stroke-width:1.0;" x1="48.5" x2="273.5" y1="111.5332" y2="111.5332"/><text fill="#000000" font-family="sans-serif" font-size="13" font-weight="bold" lengthAdjust="spacing" textLength="7" x="55.5" y="106.2705">1</text><text fill="#000000" font-family="sans-serif" font-size="13" lengthAdjust="spacing" textLength="154" x="66.5" y="106.2705">read appointement request</text><polygon fill="#181818" points="59.5,138.8242,49.5,142.8242,59.5,146.8242,55.5,142.8242" style="stroke:#181818;stroke-width:1.0;"/><line style="stroke:#181818;stroke-width:1.0;" x1="53.5" x2="283.5" y1="142.8242" y2="142.8242"/><text fill="#000000" font-family="sans-serif" font-size="13" font-weight="bold" lengthAdjust="spacing" textLength="7" x="65.5" y="137.5615">2</text><text fill="#000000" font-family="sans-serif" font-size="13" lengthAdjust="spacing" textLength="143" x="76.5" y="137.5615">ask to select Notification</text><polygon fill="#181818" points="267.5,170.1152,277.5,174.1152,267.5,178.1152,271.5,174.1152" style="stroke:#181818;stroke-width:1.0;"/><line style="stroke:#181818;stroke-width:1.0;" x1="48.5" x2="273.5" y1="174.1152" y2="174.1152"/><text fill="#000000" font-family="sans-serif" font-size="13" font-weight="bold" lengthAdjust="spacing" textLength="7" x="55.5" y="168.8525">3</text><text fill="#000000" font-family="sans-serif" font-size="13" lengthAdjust="spacing" textLength="101" x="66.5" y="168.8525">select notification</text><polygon fill="#181818" points="59.5,201.4063,49.5,205.4063,59.5,209.4063,55.5,205.4063" style="stroke:#181818;stroke-width:1.0;"/><line style="stroke:#181818;stroke-width:1.0;" x1="53.5" x2="283.5" y1="205.4063" y2="205.4063"/><text fill="#000000" font-family="sans-serif" font-size="13" font-weight="bold" lengthAdjust="spacing" textLength="7" x="65.5" y="200.1436">4</text><text fill="#000000" font-family="sans-serif" font-size="13" lengthAdjust="spacing" textLength="187" x="76.5" y="200.1436">Accept or Decline Appointement</text><path d="M10,220.4063 L71,220.4063 L71,229.6973 L61,239.6973 L10,239.6973 L10,220.4063 " fill="#EEEEEE" style="stroke:#000000;stroke-width:1.5;"/><rect fill="none" height="209.0371" style="stroke:#000000;stroke-width:1.5;" width="314.5" x="10" y="220.4063"/><text fill="#000000" font-family="sans-serif" font-size="13" font-weight="bold" lengthAdjust="spacing" textLength="16" x="25" y="235.4346">alt</text><polygon fill="#181818" points="267.5,258.9883,277.5,262.9883,267.5,266.9883,271.5,262.9883" style="stroke:#181818;stroke-width:1.0;"/><line style="stroke:#181818;stroke-width:1.0;" x1="48.5" x2="273.5" y1="262.9883" y2="262.9883"/><text fill="#000000" font-family="sans-serif" font-size="13" font-weight="bold" lengthAdjust="spacing" textLength="7" x="55.5" y="257.7256">5</text><text fill="#000000" font-family="sans-serif" font-size="13" lengthAdjust="spacing" textLength="121" x="66.5" y="257.7256">aceppt appointement</text><polygon fill="#181818" points="59.5,290.2793,49.5,294.2793,59.5,298.2793,55.5,294.2793" style="stroke:#181818;stroke-width:1.0;"/><line style="stroke:#181818;stroke-width:1.0;" x1="53.5" x2="283.5" y1="294.2793" y2="294.2793"/><text fill="#000000" font-family="sans-serif" font-size="13" font-weight="bold" lengthAdjust="spacing" textLength="7" x="65.5" y="289.0166">6</text><text fill="#000000" font-family="sans-serif" font-size="13" lengthAdjust="spacing" textLength="196" x="76.5" y="289.0166">"Your appointement is scheduled"</text><line style="stroke:#000000;stroke-width:1.0;stroke-dasharray:2.0,2.0;" x1="10" x2="324.5" y1="303.2793" y2="303.2793"/><polygon fill="#181818" points="267.5,323.5703,277.5,327.5703,267.5,331.5703,271.5,327.5703" style="stroke:#181818;stroke-width:1.0;"/><line style="stroke:#181818;stroke-width:1.0;" x1="48.5" x2="273.5" y1="327.5703" y2="327.5703"/><text fill="#000000" font-family="sans-serif" font-size="13" font-weight="bold" lengthAdjust="spacing" textLength="7" x="55.5" y="322.3076">7</text><text fill="#000000" font-family="sans-serif" font-size="13" lengthAdjust="spacing" textLength="123" x="66.5" y="322.3076">decline appointement</text><polygon fill="#181818" points="59.5,354.8613,49.5,358.8613,59.5,362.8613,55.5,358.8613" style="stroke:#181818;stroke-width:1.0;"/><line style="stroke:#181818;stroke-width:1.0;" x1="53.5" x2="283.5" y1="358.8613" y2="358.8613"/><text fill="#000000" font-family="sans-serif" font-size="13" font-weight="bold" lengthAdjust="spacing" textLength="7" x="65.5" y="353.5986">8</text><text fill="#000000" font-family="sans-serif" font-size="13" lengthAdjust="spacing" textLength="161" x="76.5" y="353.5986">write the reason of declining</text><polygon fill="#181818" points="267.5,386.1523,277.5,390.1523,267.5,394.1523,271.5,390.1523" style="stroke:#181818;stroke-width:1.0;"/><line style="stroke:#181818;stroke-width:1.0;" x1="48.5" x2="273.5" y1="390.1523" y2="390.1523"/><text fill="#000000" font-family="sans-serif" font-size="13" font-weight="bold" lengthAdjust="spacing" textLength="7" x="55.5" y="384.8896">9</text><text fill="#000000" font-family="sans-serif" font-size="13" lengthAdjust="spacing" textLength="39" x="66.5" y="384.8896">reason</text><polygon fill="#181818" points="59.5,417.4434,49.5,421.4434,59.5,425.4434,55.5,421.4434" style="stroke:#181818;stroke-width:1.0;"/><line style="stroke:#181818;stroke-width:1.0;" x1="53.5" x2="283.5" y1="421.4434" y2="421.4434"/><text fill="#000000" font-family="sans-serif" font-size="13" font-weight="bold" lengthAdjust="spacing" textLength="14" x="65.5" y="416.1807">10</text><text fill="#000000" font-family="sans-serif" font-size="13" lengthAdjust="spacing" textLength="114" x="83.5" y="416.1807">"Operation Sucess"</text><!--SRC=[hPAnJWCn38RtF8NLXUbenNW3KgNEC9mO64tYzY9oIOWT46zFZWkqIDUJ2dYA_CTVVjkvwaKYj-jrTEWb3-vQXs7Dz9B9QsgCnKF2GOaLHz2ziz00NLLXDwdGm4EtkTaep19y7fueAOLQx2iAWNQMl2W59QOpDBTVg1OIeG6CCLXV4gEQHZpNYZ6-KLFHKHYZWWgombj0VWO9mEH82zm5iNkhKMpmnr93izGPWnNZPp6NMjjgJL4W9DXHINg2xKdhY_RGdHyY5ch1uYphKe-hnv3JpvLO1jOzcUp8h1PTacCwQzFKdl_7vrkovRBqDFuX3Xx2lhvW_U4tcvumVnZSVQJq-K6WovgO5qT5tgYJx4Jv0000]--></g></svg>