<?xml version="1.0" encoding="us-ascii" standalone="no"?><svg xmlns="http://www.w3.org/2000/svg" xmlns:xlink="http://www.w3.org/1999/xlink" contentStyleType="text/css" height="622px" preserveAspectRatio="none" style="width:569px;height:622px;background:#FFFFFF;" version="1.1" viewBox="0 0 569 622" width="569px" zoomAndPan="magnify"><defs/><g><text fill="#000000" font-family="sans-serif" font-size="14" font-weight="bold" lengthAdjust="spacing" textLength="186" x="193.25" y="30.1074">System Sequence Diagram</text><rect fill="#FFFFFF" height="397.123" style="stroke:#181818;stroke-width:1.0;" width="10" x="46.5" y="133.2422"/><rect fill="#FFFFFF" height="373.832" style="stroke:#181818;stroke-width:1.0;" width="10" x="392.5" y="156.5332"/><rect fill="#FFFFFF" height="397.123" style="stroke:#181818;stroke-width:1.0;" width="10" x="527.5" y="133.2422"/><rect fill="none" height="319.541" style="stroke:#000000;stroke-width:1.5;" width="553.5" x="10" y="202.8242"/><rect fill="none" height="161.0859" style="stroke:#000000;stroke-width:1.5;" width="419.5" x="20" y="291.6973"/><line style="stroke:#181818;stroke-width:0.5;stroke-dasharray:5.0,5.0;" x1="51" x2="51" y1="123.2422" y2="539.3652"/><line style="stroke:#181818;stroke-width:0.5;stroke-dasharray:5.0,5.0;" x1="397.5" x2="397.5" y1="123.2422" y2="539.3652"/><line style="stroke:#181818;stroke-width:0.5;stroke-dasharray:5.0,5.0;" x1="532.5" x2="532.5" y1="123.2422" y2="539.3652"/><text fill="#000000" font-family="sans-serif" font-size="14" lengthAdjust="spacing" textLength="37" x="30" y="119.7285">Agent</text><ellipse cx="51.5" cy="53.1211" fill="#E3E3E3" rx="8" ry="8" style="stroke:#181818;stroke-width:0.5;"/><path d="M51.5,61.1211 L51.5,88.1211 M38.5,69.1211 L64.5,69.1211 M51.5,88.1211 L38.5,103.1211 M51.5,88.1211 L64.5,103.1211 " fill="none" style="stroke:#181818;stroke-width:0.5;"/><text fill="#000000" font-family="sans-serif" font-size="14" lengthAdjust="spacing" textLength="37" x="30" y="553.4727">Agent</text><ellipse cx="51.5" cy="565.4863" fill="#E3E3E3" rx="8" ry="8" style="stroke:#181818;stroke-width:0.5;"/><path d="M51.5,573.4863 L51.5,600.4863 M38.5,581.4863 L64.5,581.4863 M51.5,600.4863 L38.5,615.4863 M51.5,600.4863 L64.5,615.4863 " fill="none" style="stroke:#181818;stroke-width:0.5;"/><rect fill="#E3E3E3" height="32.6211" rx="2.5" ry="2.5" style="stroke:#181818;stroke-width:0.5;" width="64" x="365.5" y="89.6211"/><text fill="#000000" font-family="sans-serif" font-size="14" lengthAdjust="spacing" textLength="50" x="372.5" y="111.7285">:System</text><rect fill="#E3E3E3" height="32.6211" rx="2.5" ry="2.5" style="stroke:#181818;stroke-width:0.5;" width="64" x="365.5" y="538.3652"/><text fill="#000000" font-family="sans-serif" font-size="14" lengthAdjust="spacing" textLength="50" x="372.5" y="560.4727">:System</text><text fill="#000000" font-family="sans-serif" font-size="14" lengthAdjust="spacing" textLength="36" x="511.5" y="119.7285">Client</text><ellipse cx="532.5" cy="53.1211" fill="#E3E3E3" rx="8" ry="8" style="stroke:#181818;stroke-width:0.5;"/><path d="M532.5,61.1211 L532.5,88.1211 M519.5,69.1211 L545.5,69.1211 M532.5,88.1211 L519.5,103.1211 M532.5,88.1211 L545.5,103.1211 " fill="none" style="stroke:#181818;stroke-width:0.5;"/><text fill="#000000" font-family="sans-serif" font-size="14" lengthAdjust="spacing" textLength="36" x="511.5" y="553.4727">Client</text><ellipse cx="532.5" cy="565.4863" fill="#E3E3E3" rx="8" ry="8" style="stroke:#181818;stroke-width:0.5;"/><path d="M532.5,573.4863 L532.5,600.4863 M519.5,581.4863 L545.5,581.4863 M532.5,600.4863 L519.5,615.4863 M532.5,600.4863 L545.5,615.4863 " fill="none" style="stroke:#181818;stroke-width:0.5;"/><rect fill="#FFFFFF" height="397.123" style="stroke:#181818;stroke-width:1.0;" width="10" x="46.5" y="133.2422"/><rect fill="#FFFFFF" height="373.832" style="stroke:#181818;stroke-width:1.0;" width="10" x="392.5" y="156.5332"/><rect fill="#FFFFFF" height="397.123" style="stroke:#181818;stroke-width:1.0;" width="10" x="527.5" y="133.2422"/><polygon fill="#181818" points="380.5,152.5332,390.5,156.5332,380.5,160.5332,384.5,156.5332" style="stroke:#181818;stroke-width:1.0;"/><line style="stroke:#181818;stroke-width:1.0;" x1="56.5" x2="386.5" y1="156.5332" y2="156.5332"/><text fill="#000000" font-family="sans-serif" font-size="13" font-weight="bold" lengthAdjust="spacing" textLength="7" x="63.5" y="151.2705">1</text><text fill="#000000" font-family="sans-serif" font-size="13" lengthAdjust="spacing" textLength="227" x="74.5" y="151.2705">selects to display the booking requests</text><polygon fill="#181818" points="67.5,183.8242,57.5,187.8242,67.5,191.8242,63.5,187.8242" style="stroke:#181818;stroke-width:1.0;"/><line style="stroke:#181818;stroke-width:1.0;stroke-dasharray:2.0,2.0;" x1="61.5" x2="391.5" y1="187.8242" y2="187.8242"/><text fill="#000000" font-family="sans-serif" font-size="13" font-weight="bold" lengthAdjust="spacing" textLength="7" x="73.5" y="182.5615">2</text><text fill="#000000" font-family="sans-serif" font-size="13" lengthAdjust="spacing" textLength="301" x="84.5" y="182.5615">displays all booking requests assigned to that agent</text><path d="M10,202.8242 L75,202.8242 L75,212.1152 L65,222.1152 L10,222.1152 L10,202.8242 " fill="#EEEEEE" style="stroke:#000000;stroke-width:1.5;"/><rect fill="none" height="319.541" style="stroke:#000000;stroke-width:1.5;" width="553.5" x="10" y="202.8242"/><text fill="#000000" font-family="sans-serif" font-size="13" font-weight="bold" lengthAdjust="spacing" textLength="20" x="25" y="217.8525">opt</text><text fill="#000000" font-family="sans-serif" font-size="11" font-weight="bold" lengthAdjust="spacing" textLength="120" x="90" y="216.6943">[selects one request]</text><polygon fill="#181818" points="380.5,241.4063,390.5,245.4063,380.5,249.4063,384.5,245.4063" style="stroke:#181818;stroke-width:1.0;"/><line style="stroke:#181818;stroke-width:1.0;" x1="56.5" x2="386.5" y1="245.4063" y2="245.4063"/><text fill="#000000" font-family="sans-serif" font-size="13" font-weight="bold" lengthAdjust="spacing" textLength="7" x="63.5" y="240.1436">3</text><text fill="#000000" font-family="sans-serif" font-size="13" lengthAdjust="spacing" textLength="114" x="74.5" y="240.1436">selects one request</text><polygon fill="#181818" points="67.5,272.6973,57.5,276.6973,67.5,280.6973,63.5,276.6973" style="stroke:#181818;stroke-width:1.0;"/><line style="stroke:#181818;stroke-width:1.0;stroke-dasharray:2.0,2.0;" x1="61.5" x2="391.5" y1="276.6973" y2="276.6973"/><text fill="#000000" font-family="sans-serif" font-size="13" font-weight="bold" lengthAdjust="spacing" textLength="7" x="73.5" y="271.4346">4</text><text fill="#000000" font-family="sans-serif" font-size="13" lengthAdjust="spacing" textLength="227" x="84.5" y="271.4346">Requests to select to accept or decline</text><path d="M20,291.6973 L81,291.6973 L81,300.9883 L71,310.9883 L20,310.9883 L20,291.6973 " fill="#EEEEEE" style="stroke:#000000;stroke-width:1.5;"/><rect fill="none" height="161.0859" style="stroke:#000000;stroke-width:1.5;" width="419.5" x="20" y="291.6973"/><text fill="#000000" font-family="sans-serif" font-size="13" font-weight="bold" lengthAdjust="spacing" textLength="16" x="35" y="306.7256">alt</text><text fill="#000000" font-family="sans-serif" font-size="11" font-weight="bold" lengthAdjust="spacing" textLength="106" x="96" y="305.5674">[selects to decline]</text><polygon fill="#181818" points="380.5,330.2793,390.5,334.2793,380.5,338.2793,384.5,334.2793" style="stroke:#181818;stroke-width:1.0;"/><line style="stroke:#181818;stroke-width:1.0;" x1="56.5" x2="386.5" y1="334.2793" y2="334.2793"/><text fill="#000000" font-family="sans-serif" font-size="13" font-weight="bold" lengthAdjust="spacing" textLength="7" x="63.5" y="329.0166">5</text><text fill="#000000" font-family="sans-serif" font-size="13" lengthAdjust="spacing" textLength="102" x="74.5" y="329.0166">selects to decline</text><polygon fill="#181818" points="67.5,361.5703,57.5,365.5703,67.5,369.5703,63.5,365.5703" style="stroke:#181818;stroke-width:1.0;"/><line style="stroke:#181818;stroke-width:1.0;stroke-dasharray:2.0,2.0;" x1="61.5" x2="391.5" y1="365.5703" y2="365.5703"/><text fill="#000000" font-family="sans-serif" font-size="13" font-weight="bold" lengthAdjust="spacing" textLength="7" x="73.5" y="360.3076">6</text><text fill="#000000" font-family="sans-serif" font-size="13" lengthAdjust="spacing" textLength="216" x="84.5" y="360.3076">request the justification for the refusal</text><polygon fill="#181818" points="380.5,392.8613,390.5,396.8613,380.5,400.8613,384.5,396.8613" style="stroke:#181818;stroke-width:1.0;"/><line style="stroke:#181818;stroke-width:1.0;" x1="56.5" x2="386.5" y1="396.8613" y2="396.8613"/><text fill="#000000" font-family="sans-serif" font-size="13" font-weight="bold" lengthAdjust="spacing" textLength="7" x="63.5" y="391.5986">7</text><text fill="#000000" font-family="sans-serif" font-size="13" lengthAdjust="spacing" textLength="126" x="74.5" y="391.5986">Types the justification</text><line style="stroke:#000000;stroke-width:1.0;stroke-dasharray:2.0,2.0;" x1="20" x2="439.5" y1="405.8613" y2="405.8613"/><text fill="#000000" font-family="sans-serif" font-size="11" font-weight="bold" lengthAdjust="spacing" textLength="102" x="25" y="417.7314">[selects to accept]</text><polygon fill="#181818" points="380.5,440.7832,390.5,444.7832,380.5,448.7832,384.5,444.7832" style="stroke:#181818;stroke-width:1.0;"/><line style="stroke:#181818;stroke-width:1.0;" x1="56.5" x2="386.5" y1="444.7832" y2="444.7832"/><text fill="#000000" font-family="sans-serif" font-size="13" font-weight="bold" lengthAdjust="spacing" textLength="7" x="63.5" y="439.5205">8</text><text fill="#000000" font-family="sans-serif" font-size="13" lengthAdjust="spacing" textLength="100" x="74.5" y="439.5205">selects to accept</text><polygon fill="#181818" points="515.5,479.0742,525.5,483.0742,515.5,487.0742,519.5,483.0742" style="stroke:#181818;stroke-width:1.0;"/><line style="stroke:#181818;stroke-width:1.0;stroke-dasharray:2.0,2.0;" x1="402.5" x2="521.5" y1="483.0742" y2="483.0742"/><text fill="#000000" font-family="sans-serif" font-size="13" font-weight="bold" lengthAdjust="spacing" textLength="7" x="409.5" y="477.8115">9</text><text fill="#000000" font-family="sans-serif" font-size="13" lengthAdjust="spacing" textLength="90" x="420.5" y="477.8115">Email the client</text><polygon fill="#181818" points="67.5,510.3652,57.5,514.3652,67.5,518.3652,63.5,514.3652" style="stroke:#181818;stroke-width:1.0;"/><line style="stroke:#181818;stroke-width:1.0;stroke-dasharray:2.0,2.0;" x1="61.5" x2="391.5" y1="514.3652" y2="514.3652"/><text fill="#000000" font-family="sans-serif" font-size="13" font-weight="bold" lengthAdjust="spacing" textLength="14" x="73.5" y="509.1025">10</text><text fill="#000000" font-family="sans-serif" font-size="13" lengthAdjust="spacing" textLength="140" x="91.5" y="509.1025">In(Success) of operation</text><!--SRC=[RLBDJiCm3BxdAQoTuB0Ns06fAXou4bx0IzqsB4rAx8BwzhZTiXLjEKNnzsSxVF9nn8m332acr-Sq44YUoF2rCg8xOKTMva2GoGd6Bcm1t6EJVdtieCN0P8nuKQYTMMW0IzyJHKVmwh5Jk34uIOhJSAIiToSfmwxgACeEaA4oAYhU-H6ZmEvmLbbBjg3hu0kyNYNy3mefrLImVm4B1s0AcfH14ZIUnu0pI4zmJEcq1CrBA1Q-aQqn5lRAhfHzeJ1W27SSjMNVHMeMSUbH09VqngHHhhufKY7SXzeMDwuVnK1rpz3bXiwH2clV3RdWeyuNW_nhyFB-iFd2kTbSdDTvV4qillKEnQS8hPeihvdQYJ5inlavZyJt36D85xxrEwTzl8XIezW0hH_bElsw1AoLyZQW3wkPMnUz3VyUd-oaEipFa5f88-MIH5NJ8g_d3m00]--></g></svg>