<?xml version="1.0" encoding="us-ascii" standalone="no"?><svg xmlns="http://www.w3.org/2000/svg" xmlns:xlink="http://www.w3.org/1999/xlink" contentStyleType="text/css" height="905px" preserveAspectRatio="none" style="width:987px;height:905px;background:#FFFFFF;" version="1.1" viewBox="0 0 987 905" width="987px" zoomAndPan="magnify"><defs/><g><text fill="#000000" font-family="sans-serif" font-size="14" font-weight="bold" lengthAdjust="spacing" textLength="228" x="381.25" y="27.6738">System Sequence Diagram (SSD)</text><rect fill="#FFFFFF" height="689.5625" style="stroke:#181818;stroke-width:1.0;" width="10" x="52.5" y="127.2813"/><rect fill="#FFFFFF" height="660.0391" style="stroke:#181818;stroke-width:1.0;" width="10" x="322.5" y="147.8047"/><rect fill="#FFFFFF" height="28.5234" style="stroke:#181818;stroke-width:1.0;" width="10" x="924.5" y="176.3281"/><rect fill="#FFFFFF" height="28.5234" style="stroke:#181818;stroke-width:1.0;" width="10" x="924.5" y="233.375"/><rect fill="#FFFFFF" height="28.5234" style="stroke:#181818;stroke-width:1.0;" width="10" x="924.5" y="290.4219"/><rect fill="#FFFFFF" height="52.0469" style="stroke:#181818;stroke-width:1.0;" width="10" x="924.5" y="347.4688"/><rect fill="#FFFFFF" height="52.0469" style="stroke:#181818;stroke-width:1.0;" width="10" x="924.5" y="428.0391"/><rect fill="#FFFFFF" height="42.5234" style="stroke:#181818;stroke-width:1.0;" width="10" x="924.5" y="508.6094"/><rect fill="#FFFFFF" height="28.5234" style="stroke:#181818;stroke-width:1.0;" width="10" x="924.5" y="579.6563"/><rect fill="#FFFFFF" height="28.5234" style="stroke:#181818;stroke-width:1.0;" width="10" x="924.5" y="636.7031"/><rect fill="#FFFFFF" height="28.5234" style="stroke:#181818;stroke-width:1.0;" width="10" x="924.5" y="693.75"/><rect fill="#FFFFFF" height="28.5234" style="stroke:#181818;stroke-width:1.0;" width="10" x="924.5" y="750.7969"/><rect fill="none" height="161.1406" style="stroke:#000000;stroke-width:1.5;" width="695.5" x="286" y="362.4688"/><rect fill="none" height="73.5703" style="stroke:#000000;stroke-width:1.5;" width="675.5" x="296" y="443.0391"/><line style="stroke:#181818;stroke-width:0.5;stroke-dasharray:5.0,5.0;" x1="57" x2="57" y1="117.2813" y2="825.8438"/><line style="stroke:#181818;stroke-width:0.5;stroke-dasharray:5.0,5.0;" x1="327" x2="327" y1="117.2813" y2="825.8438"/><line style="stroke:#181818;stroke-width:0.5;stroke-dasharray:5.0,5.0;" x1="929.5" x2="929.5" y1="117.2813" y2="825.8438"/><text fill="#000000" font-family="sans-serif" font-size="14" lengthAdjust="spacing" textLength="99" x="5" y="114.3145">Property Owner</text><ellipse cx="57.5" cy="50.1406" fill="#E3E3E3" rx="8" ry="8" style="stroke:#181818;stroke-width:0.5;"/><path d="M57.5,58.1406 L57.5,85.1406 M44.5,66.1406 L70.5,66.1406 M57.5,85.1406 L44.5,100.1406 M57.5,85.1406 L70.5,100.1406 " fill="none" style="stroke:#181818;stroke-width:0.5;"/><text fill="#000000" font-family="sans-serif" font-size="14" lengthAdjust="spacing" textLength="99" x="5" y="837.5176">Property Owner</text><ellipse cx="57.5" cy="848.9844" fill="#E3E3E3" rx="8" ry="8" style="stroke:#181818;stroke-width:0.5;"/><path d="M57.5,856.9844 L57.5,883.9844 M44.5,864.9844 L70.5,864.9844 M57.5,883.9844 L44.5,898.9844 M57.5,883.9844 L70.5,898.9844 " fill="none" style="stroke:#181818;stroke-width:0.5;"/><text fill="#000000" font-family="sans-serif" font-size="14" lengthAdjust="spacing" textLength="37" x="306" y="114.3145">Agent</text><ellipse cx="327.5" cy="50.1406" fill="#E3E3E3" rx="8" ry="8" style="stroke:#181818;stroke-width:0.5;"/><path d="M327.5,58.1406 L327.5,85.1406 M314.5,66.1406 L340.5,66.1406 M327.5,85.1406 L314.5,100.1406 M327.5,85.1406 L340.5,100.1406 " fill="none" style="stroke:#181818;stroke-width:0.5;"/><text fill="#000000" font-family="sans-serif" font-size="14" lengthAdjust="spacing" textLength="37" x="306" y="837.5176">Agent</text><ellipse cx="327.5" cy="848.9844" fill="#E3E3E3" rx="8" ry="8" style="stroke:#181818;stroke-width:0.5;"/><path d="M327.5,856.9844 L327.5,883.9844 M314.5,864.9844 L340.5,864.9844 M327.5,883.9844 L314.5,898.9844 M327.5,883.9844 L340.5,898.9844 " fill="none" style="stroke:#181818;stroke-width:0.5;"/><rect fill="#E3E3E3" height="29.6406" rx="2.5" ry="2.5" style="stroke:#181818;stroke-width:0.5;" width="64" x="897.5" y="86.6406"/><text fill="#000000" font-family="sans-serif" font-size="14" lengthAdjust="spacing" textLength="50" x="904.5" y="106.3145">:System</text><rect fill="#E3E3E3" height="29.6406" rx="2.5" ry="2.5" style="stroke:#181818;stroke-width:0.5;" width="64" x="897.5" y="824.8438"/><text fill="#000000" font-family="sans-serif" font-size="14" lengthAdjust="spacing" textLength="50" x="904.5" y="844.5176">:System</text><rect fill="#FFFFFF" height="689.5625" style="stroke:#181818;stroke-width:1.0;" width="10" x="52.5" y="127.2813"/><rect fill="#FFFFFF" height="660.0391" style="stroke:#181818;stroke-width:1.0;" width="10" x="322.5" y="147.8047"/><rect fill="#FFFFFF" height="28.5234" style="stroke:#181818;stroke-width:1.0;" width="10" x="924.5" y="176.3281"/><rect fill="#FFFFFF" height="28.5234" style="stroke:#181818;stroke-width:1.0;" width="10" x="924.5" y="233.375"/><rect fill="#FFFFFF" height="28.5234" style="stroke:#181818;stroke-width:1.0;" width="10" x="924.5" y="290.4219"/><rect fill="#FFFFFF" height="52.0469" style="stroke:#181818;stroke-width:1.0;" width="10" x="924.5" y="347.4688"/><rect fill="#FFFFFF" height="52.0469" style="stroke:#181818;stroke-width:1.0;" width="10" x="924.5" y="428.0391"/><rect fill="#FFFFFF" height="42.5234" style="stroke:#181818;stroke-width:1.0;" width="10" x="924.5" y="508.6094"/><rect fill="#FFFFFF" height="28.5234" style="stroke:#181818;stroke-width:1.0;" width="10" x="924.5" y="579.6563"/><rect fill="#FFFFFF" height="28.5234" style="stroke:#181818;stroke-width:1.0;" width="10" x="924.5" y="636.7031"/><rect fill="#FFFFFF" height="28.5234" style="stroke:#181818;stroke-width:1.0;" width="10" x="924.5" y="693.75"/><rect fill="#FFFFFF" height="28.5234" style="stroke:#181818;stroke-width:1.0;" width="10" x="924.5" y="750.7969"/><polygon fill="#181818" points="310.5,143.8047,320.5,147.8047,310.5,151.8047,314.5,147.8047" style="stroke:#181818;stroke-width:1.0;"/><line style="stroke:#181818;stroke-width:1.0;" x1="62.5" x2="316.5" y1="147.8047" y2="147.8047"/><text fill="#000000" font-family="sans-serif" font-size="13" font-weight="bold" lengthAdjust="spacing" textLength="7" x="69.5" y="143.0498">1</text><text fill="#000000" font-family="sans-serif" font-size="13" lengthAdjust="spacing" textLength="230" x="80.5" y="143.0498">contacts agent to list a property for sale</text><polygon fill="#181818" points="912.5,172.3281,922.5,176.3281,912.5,180.3281,916.5,176.3281" style="stroke:#181818;stroke-width:1.0;"/><line style="stroke:#181818;stroke-width:1.0;" x1="332.5" x2="918.5" y1="176.3281" y2="176.3281"/><text fill="#000000" font-family="sans-serif" font-size="13" font-weight="bold" lengthAdjust="spacing" textLength="7" x="339.5" y="171.5732">2</text><text fill="#000000" font-family="sans-serif" font-size="13" lengthAdjust="spacing" textLength="200" x="350.5" y="171.5732">asks to create a new property sale</text><polygon fill="#181818" points="343.5,200.8516,333.5,204.8516,343.5,208.8516,339.5,204.8516" style="stroke:#181818;stroke-width:1.0;"/><line style="stroke:#181818;stroke-width:1.0;stroke-dasharray:2.0,2.0;" x1="337.5" x2="928.5" y1="204.8516" y2="204.8516"/><text fill="#000000" font-family="sans-serif" font-size="13" font-weight="bold" lengthAdjust="spacing" textLength="7" x="349.5" y="200.0967">3</text><text fill="#000000" font-family="sans-serif" font-size="13" lengthAdjust="spacing" textLength="79" x="360.5" y="200.0967">requests data</text><polygon fill="#181818" points="912.5,229.375,922.5,233.375,912.5,237.375,916.5,233.375" style="stroke:#181818;stroke-width:1.0;"/><line style="stroke:#181818;stroke-width:1.0;" x1="332.5" x2="918.5" y1="233.375" y2="233.375"/><text fill="#000000" font-family="sans-serif" font-size="13" font-weight="bold" lengthAdjust="spacing" textLength="7" x="339.5" y="228.6201">4</text><text fill="#000000" font-family="sans-serif" font-size="13" lengthAdjust="spacing" textLength="272" x="350.5" y="228.6201">selects data(property of type, type of business)</text><polygon fill="#181818" points="343.5,257.8984,333.5,261.8984,343.5,265.8984,339.5,261.8984" style="stroke:#181818;stroke-width:1.0;"/><line style="stroke:#181818;stroke-width:1.0;stroke-dasharray:2.0,2.0;" x1="337.5" x2="928.5" y1="261.8984" y2="261.8984"/><text fill="#000000" font-family="sans-serif" font-size="13" font-weight="bold" lengthAdjust="spacing" textLength="7" x="349.5" y="257.1436">5</text><text fill="#000000" font-family="sans-serif" font-size="13" lengthAdjust="spacing" textLength="79" x="360.5" y="257.1436">requests data</text><polygon fill="#181818" points="912.5,286.4219,922.5,290.4219,912.5,294.4219,916.5,290.4219" style="stroke:#181818;stroke-width:1.0;"/><line style="stroke:#181818;stroke-width:1.0;" x1="332.5" x2="918.5" y1="290.4219" y2="290.4219"/><text fill="#000000" font-family="sans-serif" font-size="13" font-weight="bold" lengthAdjust="spacing" textLength="7" x="339.5" y="285.667">6</text><text fill="#000000" font-family="sans-serif" font-size="13" lengthAdjust="spacing" textLength="184" x="350.5" y="285.667">selects data(state, district, city)</text><polygon fill="#181818" points="343.5,314.9453,333.5,318.9453,343.5,322.9453,339.5,318.9453" style="stroke:#181818;stroke-width:1.0;"/><line style="stroke:#181818;stroke-width:1.0;stroke-dasharray:2.0,2.0;" x1="337.5" x2="928.5" y1="318.9453" y2="318.9453"/><text fill="#000000" font-family="sans-serif" font-size="13" font-weight="bold" lengthAdjust="spacing" textLength="7" x="349.5" y="314.1904">7</text><text fill="#000000" font-family="sans-serif" font-size="13" lengthAdjust="spacing" textLength="79" x="360.5" y="314.1904">requests data</text><polygon fill="#181818" points="912.5,343.4688,922.5,347.4688,912.5,351.4688,916.5,347.4688" style="stroke:#181818;stroke-width:1.0;"/><line style="stroke:#181818;stroke-width:1.0;" x1="332.5" x2="918.5" y1="347.4688" y2="347.4688"/><text fill="#000000" font-family="sans-serif" font-size="13" font-weight="bold" lengthAdjust="spacing" textLength="7" x="339.5" y="342.7139">8</text><text fill="#000000" font-family="sans-serif" font-size="13" lengthAdjust="spacing" textLength="434" x="350.5" y="342.7139">types data(area, street, zipCode, distance from city center, requesed price)</text><path d="M286,362.4688 L347,362.4688 L347,368.9922 L337,378.9922 L286,378.9922 L286,362.4688 " fill="#EEEEEE" style="stroke:#000000;stroke-width:1.5;"/><rect fill="none" height="161.1406" style="stroke:#000000;stroke-width:1.5;" width="695.5" x="286" y="362.4688"/><text fill="#000000" font-family="sans-serif" font-size="13" font-weight="bold" lengthAdjust="spacing" textLength="16" x="301" y="375.2373">alt</text><text fill="#000000" font-family="sans-serif" font-size="11" font-weight="bold" lengthAdjust="spacing" textLength="216" x="362" y="374.4268">[Property Type == House or Apartment]</text><polygon fill="#181818" points="343.5,395.5156,333.5,399.5156,343.5,403.5156,339.5,399.5156" style="stroke:#181818;stroke-width:1.0;"/><line style="stroke:#181818;stroke-width:1.0;stroke-dasharray:2.0,2.0;" x1="337.5" x2="928.5" y1="399.5156" y2="399.5156"/><text fill="#000000" font-family="sans-serif" font-size="13" font-weight="bold" lengthAdjust="spacing" textLength="7" x="349.5" y="394.7607">9</text><text fill="#000000" font-family="sans-serif" font-size="13" lengthAdjust="spacing" textLength="79" x="360.5" y="394.7607">requests data</text><polygon fill="#181818" points="912.5,424.0391,922.5,428.0391,912.5,432.0391,916.5,428.0391" style="stroke:#181818;stroke-width:1.0;"/><line style="stroke:#181818;stroke-width:1.0;" x1="332.5" x2="918.5" y1="428.0391" y2="428.0391"/><text fill="#000000" font-family="sans-serif" font-size="13" font-weight="bold" lengthAdjust="spacing" textLength="14" x="339.5" y="423.2842">10</text><text fill="#000000" font-family="sans-serif" font-size="13" lengthAdjust="spacing" textLength="555" x="357.5" y="423.2842">types requested data(number of bedrooms, bathrooms, parking spaces and available equipment)</text><path d="M296,443.0391 L357,443.0391 L357,449.5625 L347,459.5625 L296,459.5625 L296,443.0391 " fill="#EEEEEE" style="stroke:#000000;stroke-width:1.5;"/><rect fill="none" height="73.5703" style="stroke:#000000;stroke-width:1.5;" width="675.5" x="296" y="443.0391"/><text fill="#000000" font-family="sans-serif" font-size="13" font-weight="bold" lengthAdjust="spacing" textLength="16" x="311" y="455.8076">alt</text><text fill="#000000" font-family="sans-serif" font-size="11" font-weight="bold" lengthAdjust="spacing" textLength="139" x="372" y="454.9971">[Property Type == House]</text><polygon fill="#181818" points="343.5,476.0859,333.5,480.0859,343.5,484.0859,339.5,480.0859" style="stroke:#181818;stroke-width:1.0;"/><line style="stroke:#181818;stroke-width:1.0;stroke-dasharray:2.0,2.0;" x1="337.5" x2="928.5" y1="480.0859" y2="480.0859"/><text fill="#000000" font-family="sans-serif" font-size="13" font-weight="bold" lengthAdjust="spacing" textLength="14" x="349.5" y="475.3311">11</text><text fill="#000000" font-family="sans-serif" font-size="13" lengthAdjust="spacing" textLength="79" x="367.5" y="475.3311">requests data</text><polygon fill="#181818" points="912.5,504.6094,922.5,508.6094,912.5,512.6094,916.5,508.6094" style="stroke:#181818;stroke-width:1.0;"/><line style="stroke:#181818;stroke-width:1.0;" x1="332.5" x2="918.5" y1="508.6094" y2="508.6094"/><text fill="#000000" font-family="sans-serif" font-size="13" font-weight="bold" lengthAdjust="spacing" textLength="14" x="339.5" y="503.8545">12</text><text fill="#000000" font-family="sans-serif" font-size="13" lengthAdjust="spacing" textLength="335" x="357.5" y="503.8545">selects data(existace of loft, basement and sun exposure)</text><polygon fill="#181818" points="343.5,547.1328,333.5,551.1328,343.5,555.1328,339.5,551.1328" style="stroke:#181818;stroke-width:1.0;"/><line style="stroke:#181818;stroke-width:1.0;stroke-dasharray:2.0,2.0;" x1="337.5" x2="928.5" y1="551.1328" y2="551.1328"/><text fill="#000000" font-family="sans-serif" font-size="13" font-weight="bold" lengthAdjust="spacing" textLength="14" x="349.5" y="546.3779">13</text><text fill="#000000" font-family="sans-serif" font-size="13" lengthAdjust="spacing" textLength="79" x="367.5" y="546.3779">requests data</text><polygon fill="#181818" points="912.5,575.6563,922.5,579.6563,912.5,583.6563,916.5,579.6563" style="stroke:#181818;stroke-width:1.0;"/><line style="stroke:#181818;stroke-width:1.0;" x1="332.5" x2="918.5" y1="579.6563" y2="579.6563"/><text fill="#000000" font-family="sans-serif" font-size="13" font-weight="bold" lengthAdjust="spacing" textLength="14" x="339.5" y="574.9014">14</text><text fill="#000000" font-family="sans-serif" font-size="13" lengthAdjust="spacing" textLength="139" x="357.5" y="574.9014">import's property photos</text><polygon fill="#181818" points="343.5,604.1797,333.5,608.1797,343.5,612.1797,339.5,608.1797" style="stroke:#181818;stroke-width:1.0;"/><line style="stroke:#181818;stroke-width:1.0;stroke-dasharray:2.0,2.0;" x1="337.5" x2="928.5" y1="608.1797" y2="608.1797"/><text fill="#000000" font-family="sans-serif" font-size="13" font-weight="bold" lengthAdjust="spacing" textLength="14" x="349.5" y="603.4248">15</text><text fill="#000000" font-family="sans-serif" font-size="13" lengthAdjust="spacing" textLength="79" x="367.5" y="603.4248">requests data</text><polygon fill="#181818" points="912.5,632.7031,922.5,636.7031,912.5,640.7031,916.5,636.7031" style="stroke:#181818;stroke-width:1.0;"/><line style="stroke:#181818;stroke-width:1.0;" x1="332.5" x2="918.5" y1="636.7031" y2="636.7031"/><text fill="#000000" font-family="sans-serif" font-size="13" font-weight="bold" lengthAdjust="spacing" textLength="14" x="339.5" y="631.9482">16</text><text fill="#000000" font-family="sans-serif" font-size="13" lengthAdjust="spacing" textLength="100" x="357.5" y="631.9482">types data(email)</text><polygon fill="#181818" points="343.5,661.2266,333.5,665.2266,343.5,669.2266,339.5,665.2266" style="stroke:#181818;stroke-width:1.0;"/><line style="stroke:#181818;stroke-width:1.0;stroke-dasharray:2.0,2.0;" x1="337.5" x2="928.5" y1="665.2266" y2="665.2266"/><text fill="#000000" font-family="sans-serif" font-size="13" font-weight="bold" lengthAdjust="spacing" textLength="14" x="349.5" y="660.4717">17</text><text fill="#000000" font-family="sans-serif" font-size="13" lengthAdjust="spacing" textLength="79" x="367.5" y="660.4717">requests data</text><polygon fill="#181818" points="912.5,689.75,922.5,693.75,912.5,697.75,916.5,693.75" style="stroke:#181818;stroke-width:1.0;"/><line style="stroke:#181818;stroke-width:1.0;" x1="332.5" x2="918.5" y1="693.75" y2="693.75"/><text fill="#000000" font-family="sans-serif" font-size="13" font-weight="bold" lengthAdjust="spacing" textLength="14" x="339.5" y="688.9951">18</text><text fill="#000000" font-family="sans-serif" font-size="13" lengthAdjust="spacing" textLength="181" x="357.5" y="688.9951">selects data(type of commission)</text><polygon fill="#181818" points="343.5,718.2734,333.5,722.2734,343.5,726.2734,339.5,722.2734" style="stroke:#181818;stroke-width:1.0;"/><line style="stroke:#181818;stroke-width:1.0;stroke-dasharray:2.0,2.0;" x1="337.5" x2="928.5" y1="722.2734" y2="722.2734"/><text fill="#000000" font-family="sans-serif" font-size="13" font-weight="bold" lengthAdjust="spacing" textLength="14" x="349.5" y="717.5186">19</text><text fill="#000000" font-family="sans-serif" font-size="13" lengthAdjust="spacing" textLength="79" x="367.5" y="717.5186">requests data</text><polygon fill="#181818" points="912.5,746.7969,922.5,750.7969,912.5,754.7969,916.5,750.7969" style="stroke:#181818;stroke-width:1.0;"/><line style="stroke:#181818;stroke-width:1.0;" x1="332.5" x2="918.5" y1="750.7969" y2="750.7969"/><text fill="#000000" font-family="sans-serif" font-size="13" font-weight="bold" lengthAdjust="spacing" textLength="14" x="339.5" y="746.042">20</text><text fill="#000000" font-family="sans-serif" font-size="13" lengthAdjust="spacing" textLength="174" x="357.5" y="746.042">types data(agent comissision)</text><polygon fill="#181818" points="343.5,775.3203,333.5,779.3203,343.5,783.3203,339.5,779.3203" style="stroke:#181818;stroke-width:1.0;"/><line style="stroke:#181818;stroke-width:1.0;stroke-dasharray:2.0,2.0;" x1="337.5" x2="928.5" y1="779.3203" y2="779.3203"/><text fill="#000000" font-family="sans-serif" font-size="13" font-weight="bold" lengthAdjust="spacing" textLength="14" x="349.5" y="774.5654">21</text><text fill="#000000" font-family="sans-serif" font-size="13" lengthAdjust="spacing" textLength="169" x="367.5" y="774.5654">(In)Sucesses of the operation</text><polygon fill="#181818" points="73.5,803.8438,63.5,807.8438,73.5,811.8438,69.5,807.8438" style="stroke:#181818;stroke-width:1.0;"/><line style="stroke:#181818;stroke-width:1.0;stroke-dasharray:2.0,2.0;" x1="67.5" x2="326.5" y1="807.8438" y2="807.8438"/><text fill="#000000" font-family="sans-serif" font-size="13" font-weight="bold" lengthAdjust="spacing" textLength="14" x="79.5" y="803.0889">22</text><text fill="#000000" font-family="sans-serif" font-size="13" lengthAdjust="spacing" textLength="76" x="97.5" y="803.0889">(In)Sucesses</text><!--SRC=[pLNDRjim3BxxAOXScW3ESW_G0SLws4uRuBq08pE945lIHBffzlIZPETlxTAV3LXqC6YH-lYH8gcRjKZW-MmM6dJIjSq7uziPqu-EdA5fRN4LiIruOrr0bQ3rpfjrz2s1n8vED07D1bTKoQuXY6G4tQevDU0rrdvhtGgMs30LXLXHqsh7GYrKWq-uxtt2kAhk9qM1dNZNjGkAAXln4KRVeWyKPGTVjuxY291xQQ-_Mv6Jl9sbGjsBDJPeX32Qz_wokXSphdr0eG6c05rPXEd77WFcOBmJDMJ0l24U6ii2265FPwdE6JNcTFw0sNF8UsdrS8exn3rN8XjES2PIiaTmj3s27W3FGFVCuMGDWDCJpZ4bbPLpZO87uvh-YFEK7LD3Pa0O7rZv9SWkK9c_wM_HiNN4FBaQhYnwg8HQBobQ8oKOAxl_IY_bQY27UjSbA3CYPVRJXa- -7iXYQeAbTbWc34PHA9Q3VwgrCgoX2t4SDOt0eLM-ftkwlONFlcEzi0XtgIlQiz9yS_GlPE1I5WP0ZIVde-_mN4XKH-zRBc61iXv4vRf9WuDroEXXT3NW0ze65pf05Cc65CdapFD5MfVpyzJsNQbvPOfUMS_qc8h3v6vh_59IWfXIt3aVt3cWn-2vYpHv5lz54kJgu-RPp_EX_uEMi6tmKMxuEE_2seldAsbJQhN8hcUaxOUjlj6MsNftDUCiAmTQVqTi_CLDgawxd1KyFJDh3LbB0qLXtq1K8Vid_1oo-Erqjlu5]--></g></svg>