<?xml version="1.0" encoding="us-ascii" standalone="no"?><svg xmlns="http://www.w3.org/2000/svg" xmlns:xlink="http://www.w3.org/1999/xlink" contentStyleType="text/css" height="482px" preserveAspectRatio="none" style="width:1095px;height:482px;background:#FFFFFF;" version="1.1" viewBox="0 0 1095 482" width="1095px" zoomAndPan="magnify"><defs/><g><!--class SpecifyLocationsUI--><g id="elem_SpecifyLocationsUI"><rect codeLine="9" fill="#F1F1F1" height="48" id="SpecifyLocationsUI" rx="2.5" ry="2.5" style="stroke:#181818;stroke-width:0.5;" width="151" x="7" y="22.5"/><ellipse cx="22" cy="38.5" fill="#ADD1B2" rx="11" ry="11" style="stroke:#181818;stroke-width:1.0;"/><path d="M24.7656,34.375 Q24.9219,34.1563 25.1094,34.0469 Q25.2969,33.9375 25.5156,33.9375 Q25.8906,33.9375 26.125,34.2031 Q26.3594,34.4531 26.3594,35.0625 L26.3594,36.5156 Q26.3594,37.125 26.125,37.3906 Q25.8906,37.6563 25.5156,37.6563 Q25.1719,37.6563 24.9688,37.4531 Q24.7656,37.2656 24.6563,36.75 Q24.6094,36.3906 24.4219,36.2031 Q24.0938,35.8281 23.4844,35.6094 Q22.875,35.3906 22.25,35.3906 Q21.4844,35.3906 20.8438,35.7188 Q20.2188,36.0469 19.7188,36.7969 Q19.2344,37.5469 19.2344,38.5781 L19.2344,39.6719 Q19.2344,40.9063 20.125,41.7344 Q21.0156,42.5469 22.6094,42.5469 Q23.5469,42.5469 24.2031,42.2969 Q24.5938,42.1406 25.0156,41.7031 Q25.2813,41.4375 25.4219,41.3594 Q25.5781,41.2813 25.7813,41.2813 Q26.1094,41.2813 26.3594,41.5469 Q26.625,41.7969 26.625,42.1406 Q26.625,42.4844 26.2813,42.8906 Q25.7813,43.4688 24.9844,43.7969 Q23.9063,44.25 22.6094,44.25 Q21.0938,44.25 19.8906,43.625 Q18.9063,43.125 18.2188,42.0625 Q17.5313,40.9844 17.5313,39.7031 L17.5313,38.5469 Q17.5313,37.2188 18.1406,36.0781 Q18.7656,34.9219 19.8594,34.3125 Q20.9531,33.6875 22.1875,33.6875 Q22.9219,33.6875 23.5625,33.8594 Q24.2188,34.0156 24.7656,34.375 Z " fill="#000000"/><text fill="#000000" font-family="sans-serif" font-size="14" lengthAdjust="spacing" textLength="119" x="36" y="43.3535">SpecifyLocationsUI</text><line style="stroke:#181818;stroke-width:0.5;" x1="8" x2="157" y1="54.5" y2="54.5"/><line style="stroke:#181818;stroke-width:0.5;" x1="8" x2="157" y1="62.5" y2="62.5"/></g><!--class SpecifyLocationsController--><g id="elem_SpecifyLocationsController"><rect codeLine="13" fill="#F1F1F1" height="79.2813" id="SpecifyLocationsController" rx="2.5" ry="2.5" style="stroke:#181818;stroke-width:0.5;" width="400" x="193.5" y="7"/><ellipse cx="304.75" cy="23" fill="#ADD1B2" rx="11" ry="11" style="stroke:#181818;stroke-width:1.0;"/><path d="M307.5156,18.875 Q307.6719,18.6563 307.8594,18.5469 Q308.0469,18.4375 308.2656,18.4375 Q308.6406,18.4375 308.875,18.7031 Q309.1094,18.9531 309.1094,19.5625 L309.1094,21.0156 Q309.1094,21.625 308.875,21.8906 Q308.6406,22.1563 308.2656,22.1563 Q307.9219,22.1563 307.7188,21.9531 Q307.5156,21.7656 307.4063,21.25 Q307.3594,20.8906 307.1719,20.7031 Q306.8438,20.3281 306.2344,20.1094 Q305.625,19.8906 305,19.8906 Q304.2344,19.8906 303.5938,20.2188 Q302.9688,20.5469 302.4688,21.2969 Q301.9844,22.0469 301.9844,23.0781 L301.9844,24.1719 Q301.9844,25.4063 302.875,26.2344 Q303.7656,27.0469 305.3594,27.0469 Q306.2969,27.0469 306.9531,26.7969 Q307.3438,26.6406 307.7656,26.2031 Q308.0313,25.9375 308.1719,25.8594 Q308.3281,25.7813 308.5313,25.7813 Q308.8594,25.7813 309.1094,26.0469 Q309.375,26.2969 309.375,26.6406 Q309.375,26.9844 309.0313,27.3906 Q308.5313,27.9688 307.7344,28.2969 Q306.6563,28.75 305.3594,28.75 Q303.8438,28.75 302.6406,28.125 Q301.6563,27.625 300.9688,26.5625 Q300.2813,25.4844 300.2813,24.2031 L300.2813,23.0469 Q300.2813,21.7188 300.8906,20.5781 Q301.5156,19.4219 302.6094,18.8125 Q303.7031,18.1875 304.9375,18.1875 Q305.6719,18.1875 306.3125,18.3594 Q306.9688,18.5156 307.5156,18.875 Z " fill="#000000"/><text fill="#000000" font-family="sans-serif" font-size="14" lengthAdjust="spacing" textLength="169" x="325.25" y="27.8535">SpecifyLocationsController</text><line style="stroke:#181818;stroke-width:0.5;" x1="194.5" x2="592.5" y1="39" y2="39"/><line style="stroke:#181818;stroke-width:0.5;" x1="194.5" x2="592.5" y1="47" y2="47"/><ellipse cx="204.5" cy="60.3203" fill="#84BE84" rx="3" ry="3" style="stroke:#038048;stroke-width:1.0;"/><text fill="#000000" font-family="sans-serif" font-size="14" lengthAdjust="spacing" textLength="179" x="213.5" y="63.6738">SpecifyLocationsController()</text><ellipse cx="204.5" cy="75.9609" fill="#84BE84" rx="3" ry="3" style="stroke:#038048;stroke-width:1.0;"/><text fill="#000000" font-family="sans-serif" font-size="14" lengthAdjust="spacing" textLength="374" x="213.5" y="79.3145">createState(stateName, districtsNameList, citiesNameArray)</text></g><!--class Repositories--><g id="elem_Repositories"><rect codeLine="19" fill="#F1F1F1" height="79.2813" id="Repositories" rx="2.5" ry="2.5" style="stroke:#181818;stroke-width:0.5;" width="177" x="117" y="178"/><ellipse cx="161.75" cy="194" fill="#ADD1B2" rx="11" ry="11" style="stroke:#181818;stroke-width:1.0;"/><path d="M164.5156,189.875 Q164.6719,189.6563 164.8594,189.5469 Q165.0469,189.4375 165.2656,189.4375 Q165.6406,189.4375 165.875,189.7031 Q166.1094,189.9531 166.1094,190.5625 L166.1094,192.0156 Q166.1094,192.625 165.875,192.8906 Q165.6406,193.1563 165.2656,193.1563 Q164.9219,193.1563 164.7188,192.9531 Q164.5156,192.7656 164.4063,192.25 Q164.3594,191.8906 164.1719,191.7031 Q163.8438,191.3281 163.2344,191.1094 Q162.625,190.8906 162,190.8906 Q161.2344,190.8906 160.5938,191.2188 Q159.9688,191.5469 159.4688,192.2969 Q158.9844,193.0469 158.9844,194.0781 L158.9844,195.1719 Q158.9844,196.4063 159.875,197.2344 Q160.7656,198.0469 162.3594,198.0469 Q163.2969,198.0469 163.9531,197.7969 Q164.3438,197.6406 164.7656,197.2031 Q165.0313,196.9375 165.1719,196.8594 Q165.3281,196.7813 165.5313,196.7813 Q165.8594,196.7813 166.1094,197.0469 Q166.375,197.2969 166.375,197.6406 Q166.375,197.9844 166.0313,198.3906 Q165.5313,198.9688 164.7344,199.2969 Q163.6563,199.75 162.3594,199.75 Q160.8438,199.75 159.6406,199.125 Q158.6563,198.625 157.9688,197.5625 Q157.2813,196.4844 157.2813,195.2031 L157.2813,194.0469 Q157.2813,192.7188 157.8906,191.5781 Q158.5156,190.4219 159.6094,189.8125 Q160.7031,189.1875 161.9375,189.1875 Q162.6719,189.1875 163.3125,189.3594 Q163.9688,189.5156 164.5156,189.875 Z " fill="#000000"/><text fill="#000000" font-family="sans-serif" font-size="14" lengthAdjust="spacing" textLength="79" x="182.25" y="198.8535">Repositories</text><line style="stroke:#181818;stroke-width:0.5;" x1="118" x2="293" y1="210" y2="210"/><line style="stroke:#181818;stroke-width:0.5;" x1="118" x2="293" y1="218" y2="218"/><ellipse cx="128" cy="231.3203" fill="#84BE84" rx="3" ry="3" style="stroke:#038048;stroke-width:1.0;"/><text fill="#000000" font-family="sans-serif" font-size="14" lengthAdjust="spacing" textLength="83" x="137" y="234.6738">getInstance()</text><ellipse cx="128" cy="246.9609" fill="#84BE84" rx="3" ry="3" style="stroke:#038048;stroke-width:1.0;"/><text fill="#000000" font-family="sans-serif" font-size="14" lengthAdjust="spacing" textLength="151" x="137" y="250.3145">getLocationsRepsitory()</text></g><!--class LocationsRepository--><g id="elem_LocationsRepository"><rect codeLine="25" fill="#F1F1F1" height="110.5625" id="LocationsRepository" rx="2.5" ry="2.5" style="stroke:#181818;stroke-width:0.5;" width="400" x="329.5" y="162"/><ellipse cx="460.75" cy="178" fill="#ADD1B2" rx="11" ry="11" style="stroke:#181818;stroke-width:1.0;"/><path d="M463.5156,173.875 Q463.6719,173.6563 463.8594,173.5469 Q464.0469,173.4375 464.2656,173.4375 Q464.6406,173.4375 464.875,173.7031 Q465.1094,173.9531 465.1094,174.5625 L465.1094,176.0156 Q465.1094,176.625 464.875,176.8906 Q464.6406,177.1563 464.2656,177.1563 Q463.9219,177.1563 463.7188,176.9531 Q463.5156,176.7656 463.4063,176.25 Q463.3594,175.8906 463.1719,175.7031 Q462.8438,175.3281 462.2344,175.1094 Q461.625,174.8906 461,174.8906 Q460.2344,174.8906 459.5938,175.2188 Q458.9688,175.5469 458.4688,176.2969 Q457.9844,177.0469 457.9844,178.0781 L457.9844,179.1719 Q457.9844,180.4063 458.875,181.2344 Q459.7656,182.0469 461.3594,182.0469 Q462.2969,182.0469 462.9531,181.7969 Q463.3438,181.6406 463.7656,181.2031 Q464.0313,180.9375 464.1719,180.8594 Q464.3281,180.7813 464.5313,180.7813 Q464.8594,180.7813 465.1094,181.0469 Q465.375,181.2969 465.375,181.6406 Q465.375,181.9844 465.0313,182.3906 Q464.5313,182.9688 463.7344,183.2969 Q462.6563,183.75 461.3594,183.75 Q459.8438,183.75 458.6406,183.125 Q457.6563,182.625 456.9688,181.5625 Q456.2813,180.4844 456.2813,179.2031 L456.2813,178.0469 Q456.2813,176.7188 456.8906,175.5781 Q457.5156,174.4219 458.6094,173.8125 Q459.7031,173.1875 460.9375,173.1875 Q461.6719,173.1875 462.3125,173.3594 Q462.9688,173.5156 463.5156,173.875 Z " fill="#000000"/><text fill="#000000" font-family="sans-serif" font-size="14" lengthAdjust="spacing" textLength="129" x="481.25" y="182.8535">LocationsRepository</text><line style="stroke:#181818;stroke-width:0.5;" x1="330.5" x2="728.5" y1="194" y2="194"/><line style="stroke:#181818;stroke-width:0.5;" x1="330.5" x2="728.5" y1="202" y2="202"/><ellipse cx="340.5" cy="215.3203" fill="#84BE84" rx="3" ry="3" style="stroke:#038048;stroke-width:1.0;"/><text fill="#000000" font-family="sans-serif" font-size="14" lengthAdjust="spacing" textLength="374" x="349.5" y="218.6738">createState(stateName, districtsNameList, citiesNameArray)</text><ellipse cx="340.5" cy="230.9609" fill="#84BE84" rx="3" ry="3" style="stroke:#038048;stroke-width:1.0;"/><text fill="#000000" font-family="sans-serif" font-size="14" lengthAdjust="spacing" textLength="100" x="349.5" y="234.3145">addState(State)</text><rect fill="#F24D5C" height="6" style="stroke:#C82930;stroke-width:1.0;" width="6" x="337.5" y="243.6016"/><text fill="#000000" font-family="sans-serif" font-size="14" lengthAdjust="spacing" textLength="84" x="349.5" y="249.9551">isValid(State)</text><rect fill="#F24D5C" height="6" style="stroke:#C82930;stroke-width:1.0;" width="6" x="337.5" y="259.2422"/><text fill="#000000" font-family="sans-serif" font-size="14" lengthAdjust="spacing" textLength="93" x="349.5" y="265.5957">equals(Object)</text></g><!--class State--><g id="elem_State"><rect codeLine="33" fill="#F1F1F1" height="63.6406" id="State" rx="2.5" ry="2.5" style="stroke:#181818;stroke-width:0.5;" width="106" x="764.5" y="185.5"/><ellipse cx="797.95" cy="201.5" fill="#ADD1B2" rx="11" ry="11" style="stroke:#181818;stroke-width:1.0;"/><path d="M800.7156,197.375 Q800.8719,197.1563 801.0594,197.0469 Q801.2469,196.9375 801.4656,196.9375 Q801.8406,196.9375 802.075,197.2031 Q802.3094,197.4531 802.3094,198.0625 L802.3094,199.5156 Q802.3094,200.125 802.075,200.3906 Q801.8406,200.6563 801.4656,200.6563 Q801.1219,200.6563 800.9188,200.4531 Q800.7156,200.2656 800.6063,199.75 Q800.5594,199.3906 800.3719,199.2031 Q800.0438,198.8281 799.4344,198.6094 Q798.825,198.3906 798.2,198.3906 Q797.4344,198.3906 796.7938,198.7188 Q796.1688,199.0469 795.6688,199.7969 Q795.1844,200.5469 795.1844,201.5781 L795.1844,202.6719 Q795.1844,203.9063 796.075,204.7344 Q796.9656,205.5469 798.5594,205.5469 Q799.4969,205.5469 800.1531,205.2969 Q800.5438,205.1406 800.9656,204.7031 Q801.2313,204.4375 801.3719,204.3594 Q801.5281,204.2813 801.7313,204.2813 Q802.0594,204.2813 802.3094,204.5469 Q802.575,204.7969 802.575,205.1406 Q802.575,205.4844 802.2313,205.8906 Q801.7313,206.4688 800.9344,206.7969 Q799.8563,207.25 798.5594,207.25 Q797.0438,207.25 795.8406,206.625 Q794.8563,206.125 794.1688,205.0625 Q793.4813,203.9844 793.4813,202.7031 L793.4813,201.5469 Q793.4813,200.2188 794.0906,199.0781 Q794.7156,197.9219 795.8094,197.3125 Q796.9031,196.6875 798.1375,196.6875 Q798.8719,196.6875 799.5125,196.8594 Q800.1688,197.0156 800.7156,197.375 Z " fill="#000000"/><text fill="#000000" font-family="sans-serif" font-size="14" lengthAdjust="spacing" textLength="33" x="816.05" y="206.3535">State</text><line style="stroke:#181818;stroke-width:0.5;" x1="765.5" x2="869.5" y1="217.5" y2="217.5"/><line style="stroke:#181818;stroke-width:0.5;" x1="765.5" x2="869.5" y1="225.5" y2="225.5"/><ellipse cx="775.5" cy="238.8203" fill="#84BE84" rx="3" ry="3" style="stroke:#038048;stroke-width:1.0;"/><text fill="#000000" font-family="sans-serif" font-size="14" lengthAdjust="spacing" textLength="80" x="784.5" y="242.1738">getDistricts()</text></g><!--class District--><g id="elem_District"><rect codeLine="37" fill="#F1F1F1" height="63.6406" id="District" rx="2.5" ry="2.5" style="stroke:#181818;stroke-width:0.5;" width="91" x="906" y="185.5"/><ellipse cx="928.2" cy="201.5" fill="#ADD1B2" rx="11" ry="11" style="stroke:#181818;stroke-width:1.0;"/><path d="M930.9656,197.375 Q931.1219,197.1563 931.3094,197.0469 Q931.4969,196.9375 931.7156,196.9375 Q932.0906,196.9375 932.325,197.2031 Q932.5594,197.4531 932.5594,198.0625 L932.5594,199.5156 Q932.5594,200.125 932.325,200.3906 Q932.0906,200.6563 931.7156,200.6563 Q931.3719,200.6563 931.1688,200.4531 Q930.9656,200.2656 930.8563,199.75 Q930.8094,199.3906 930.6219,199.2031 Q930.2938,198.8281 929.6844,198.6094 Q929.075,198.3906 928.45,198.3906 Q927.6844,198.3906 927.0438,198.7188 Q926.4188,199.0469 925.9188,199.7969 Q925.4344,200.5469 925.4344,201.5781 L925.4344,202.6719 Q925.4344,203.9063 926.325,204.7344 Q927.2156,205.5469 928.8094,205.5469 Q929.7469,205.5469 930.4031,205.2969 Q930.7938,205.1406 931.2156,204.7031 Q931.4813,204.4375 931.6219,204.3594 Q931.7781,204.2813 931.9813,204.2813 Q932.3094,204.2813 932.5594,204.5469 Q932.825,204.7969 932.825,205.1406 Q932.825,205.4844 932.4813,205.8906 Q931.9813,206.4688 931.1844,206.7969 Q930.1063,207.25 928.8094,207.25 Q927.2938,207.25 926.0906,206.625 Q925.1063,206.125 924.4188,205.0625 Q923.7313,203.9844 923.7313,202.7031 L923.7313,201.5469 Q923.7313,200.2188 924.3406,199.0781 Q924.9656,197.9219 926.0594,197.3125 Q927.1531,196.6875 928.3875,196.6875 Q929.1219,196.6875 929.7625,196.8594 Q930.4188,197.0156 930.9656,197.375 Z " fill="#000000"/><text fill="#000000" font-family="sans-serif" font-size="14" lengthAdjust="spacing" textLength="43" x="943.8" y="206.3535">District</text><line style="stroke:#181818;stroke-width:0.5;" x1="907" x2="996" y1="217.5" y2="217.5"/><line style="stroke:#181818;stroke-width:0.5;" x1="907" x2="996" y1="225.5" y2="225.5"/><ellipse cx="917" cy="238.8203" fill="#84BE84" rx="3" ry="3" style="stroke:#038048;stroke-width:1.0;"/><text fill="#000000" font-family="sans-serif" font-size="14" lengthAdjust="spacing" textLength="65" x="926" y="242.1738">getCities()</text></g><!--class City--><g id="elem_City"><rect codeLine="41" fill="#F1F1F1" height="48" id="City" rx="2.5" ry="2.5" style="stroke:#181818;stroke-width:0.5;" width="56" x="1032.5" y="193.5"/><ellipse cx="1047.5" cy="209.5" fill="#ADD1B2" rx="11" ry="11" style="stroke:#181818;stroke-width:1.0;"/><path d="M1050.2656,205.375 Q1050.4219,205.1563 1050.6094,205.0469 Q1050.7969,204.9375 1051.0156,204.9375 Q1051.3906,204.9375 1051.625,205.2031 Q1051.8594,205.4531 1051.8594,206.0625 L1051.8594,207.5156 Q1051.8594,208.125 1051.625,208.3906 Q1051.3906,208.6563 1051.0156,208.6563 Q1050.6719,208.6563 1050.4688,208.4531 Q1050.2656,208.2656 1050.1563,207.75 Q1050.1094,207.3906 1049.9219,207.2031 Q1049.5938,206.8281 1048.9844,206.6094 Q1048.375,206.3906 1047.75,206.3906 Q1046.9844,206.3906 1046.3438,206.7188 Q1045.7188,207.0469 1045.2188,207.7969 Q1044.7344,208.5469 1044.7344,209.5781 L1044.7344,210.6719 Q1044.7344,211.9063 1045.625,212.7344 Q1046.5156,213.5469 1048.1094,213.5469 Q1049.0469,213.5469 1049.7031,213.2969 Q1050.0938,213.1406 1050.5156,212.7031 Q1050.7813,212.4375 1050.9219,212.3594 Q1051.0781,212.2813 1051.2813,212.2813 Q1051.6094,212.2813 1051.8594,212.5469 Q1052.125,212.7969 1052.125,213.1406 Q1052.125,213.4844 1051.7813,213.8906 Q1051.2813,214.4688 1050.4844,214.7969 Q1049.4063,215.25 1048.1094,215.25 Q1046.5938,215.25 1045.3906,214.625 Q1044.4063,214.125 1043.7188,213.0625 Q1043.0313,211.9844 1043.0313,210.7031 L1043.0313,209.5469 Q1043.0313,208.2188 1043.6406,207.0781 Q1044.2656,205.9219 1045.3594,205.3125 Q1046.4531,204.6875 1047.6875,204.6875 Q1048.4219,204.6875 1049.0625,204.8594 Q1049.7188,205.0156 1050.2656,205.375 Z " fill="#000000"/><text fill="#000000" font-family="sans-serif" font-size="14" lengthAdjust="spacing" textLength="24" x="1061.5" y="214.3535">City</text><line style="stroke:#181818;stroke-width:0.5;" x1="1033.5" x2="1087.5" y1="225.5" y2="225.5"/><line style="stroke:#181818;stroke-width:0.5;" x1="1033.5" x2="1087.5" y1="233.5" y2="233.5"/></g><!--class Location--><g id="elem_Location"><rect codeLine="45" fill="#F1F1F1" height="126.2031" id="Location" rx="2.5" ry="2.5" style="stroke:#181818;stroke-width:0.5;" width="117" x="893" y="349"/><ellipse cx="921.95" cy="365" fill="#ADD1B2" rx="11" ry="11" style="stroke:#181818;stroke-width:1.0;"/><path d="M924.7156,360.875 Q924.8719,360.6563 925.0594,360.5469 Q925.2469,360.4375 925.4656,360.4375 Q925.8406,360.4375 926.075,360.7031 Q926.3094,360.9531 926.3094,361.5625 L926.3094,363.0156 Q926.3094,363.625 926.075,363.8906 Q925.8406,364.1563 925.4656,364.1563 Q925.1219,364.1563 924.9188,363.9531 Q924.7156,363.7656 924.6063,363.25 Q924.5594,362.8906 924.3719,362.7031 Q924.0438,362.3281 923.4344,362.1094 Q922.825,361.8906 922.2,361.8906 Q921.4344,361.8906 920.7938,362.2188 Q920.1688,362.5469 919.6688,363.2969 Q919.1844,364.0469 919.1844,365.0781 L919.1844,366.1719 Q919.1844,367.4063 920.075,368.2344 Q920.9656,369.0469 922.5594,369.0469 Q923.4969,369.0469 924.1531,368.7969 Q924.5438,368.6406 924.9656,368.2031 Q925.2313,367.9375 925.3719,367.8594 Q925.5281,367.7813 925.7313,367.7813 Q926.0594,367.7813 926.3094,368.0469 Q926.575,368.2969 926.575,368.6406 Q926.575,368.9844 926.2313,369.3906 Q925.7313,369.9688 924.9344,370.2969 Q923.8563,370.75 922.5594,370.75 Q921.0438,370.75 919.8406,370.125 Q918.8563,369.625 918.1688,368.5625 Q917.4813,367.4844 917.4813,366.2031 L917.4813,365.0469 Q917.4813,363.7188 918.0906,362.5781 Q918.7156,361.4219 919.8094,360.8125 Q920.9031,360.1875 922.1375,360.1875 Q922.8719,360.1875 923.5125,360.3594 Q924.1688,360.5156 924.7156,360.875 Z " fill="#000000"/><text fill="#000000" font-family="sans-serif" font-size="14" lengthAdjust="spacing" textLength="54" x="939.05" y="369.8535">Location</text><line style="stroke:#181818;stroke-width:0.5;" x1="894" x2="1009" y1="381" y2="381"/><rect fill="none" height="6" style="stroke:#C82930;stroke-width:1.0;" width="6" x="901" y="391.3203"/><text fill="#000000" font-family="sans-serif" font-size="14" lengthAdjust="spacing" textLength="76" x="913" y="397.6738">String name</text><line style="stroke:#181818;stroke-width:0.5;" x1="894" x2="1009" y1="404.6406" y2="404.6406"/><ellipse cx="904" cy="417.9609" fill="#84BE84" rx="3" ry="3" style="stroke:#038048;stroke-width:1.0;"/><text fill="#000000" font-family="sans-serif" font-size="14" lengthAdjust="spacing" textLength="91" x="913" y="421.3145">getLocations()</text><ellipse cx="904" cy="433.6016" fill="#84BE84" rx="3" ry="3" style="stroke:#038048;stroke-width:1.0;"/><text fill="#000000" font-family="sans-serif" font-size="14" lengthAdjust="spacing" textLength="51" x="913" y="436.9551">isValid()</text><rect fill="#F24D5C" height="6" style="stroke:#C82930;stroke-width:1.0;" width="6" x="901" y="446.2422"/><text fill="#000000" font-family="sans-serif" font-size="14" lengthAdjust="spacing" textLength="87" x="913" y="452.5957">isNameValid()</text><ellipse cx="904" cy="464.8828" fill="#84BE84" rx="3" ry="3" style="stroke:#038048;stroke-width:1.0;"/><text fill="#000000" font-family="sans-serif" font-size="14" lengthAdjust="spacing" textLength="59" x="913" y="468.2363">toString()</text></g><!--link SpecifyLocationsUI to SpecifyLocationsController--><g id="link_SpecifyLocationsUI_SpecifyLocationsController"><path codeLine="55" d="M158.11,46.5 C174.06,46.5 186.17,46.5 186.17,46.5 C186.17,46.5 186.92,46.5 188.29,46.5 " fill="none" id="SpecifyLocationsUI-to-SpecifyLocationsController" style="stroke:#181818;stroke-width:1.0;stroke-dasharray:7.0,7.0;"/><polygon fill="#181818" points="193.29,46.5,184.29,42.5,188.29,46.5,184.29,50.5,193.29,46.5" style="stroke:#181818;stroke-width:1.0;"/></g><!--link Repositories to LocationsRepository--><g id="link_Repositories_LocationsRepository"><path codeLine="57" d="M294.19,217.5 C305.65,217.5 313.5,217.5 313.5,217.5 C313.5,217.5 317.68,217.5 324.4,217.5 " fill="none" id="Repositories-to-LocationsRepository" style="stroke:#181818;stroke-width:1.0;"/><polygon fill="#181818" points="329.44,217.5,320.44,213.5,324.44,217.5,320.44,221.5,329.44,217.5" style="stroke:#181818;stroke-width:1.0;"/><text fill="#000000" font-family="sans-serif" font-size="13" lengthAdjust="spacing" textLength="7" x="314.4884" y="215.0139">1</text></g><!--link LocationsRepository to State--><g id="link_LocationsRepository_State"><path codeLine="59" d="M729.68,217.5 C736.75,217.5 747.64,217.5 759.38,217.5 " fill="none" id="LocationsRepository-to-State" style="stroke:#181818;stroke-width:1.0;"/><polygon fill="#181818" points="764.45,217.5,755.45,213.5,759.45,217.5,755.45,221.5,764.45,217.5" style="stroke:#181818;stroke-width:1.0;"/><text fill="#000000" font-family="sans-serif" font-size="13" lengthAdjust="spacing" textLength="20" x="736.3717" y="214.4282">0..*</text></g><!--link State to District--><g id="link_State_District"><path codeLine="60" d="M870.78,217.5 C879.47,217.5 892.7,217.5 900.48,217.5 " fill="none" id="State-to-District" style="stroke:#181818;stroke-width:1.0;"/><polygon fill="#181818" points="905.82,217.5,896.82,213.5,900.82,217.5,896.82,221.5,905.82,217.5" style="stroke:#181818;stroke-width:1.0;"/><text fill="#000000" font-family="sans-serif" font-size="13" lengthAdjust="spacing" textLength="20" x="877.99" y="214.3463">0..*</text></g><!--link District to City--><g id="link_District_City"><path codeLine="61" d="M997,217.5 C1007.77,217.5 1024.17,217.5 1024.17,217.5 C1024.17,217.5 1025.23,217.5 1027,217.5 " fill="none" id="District-to-City" style="stroke:#181818;stroke-width:1.0;"/><polygon fill="#181818" points="1032.23,217.5,1023.23,213.5,1027.23,217.5,1023.23,221.5,1032.23,217.5" style="stroke:#181818;stroke-width:1.0;"/><text fill="#000000" font-family="sans-serif" font-size="13" lengthAdjust="spacing" textLength="20" x="1004.3368" y="213.8788">0..*</text></g><!--link State to Location--><g id="link_State_Location"><path codeLine="63" d="M839.33,249.86 C854.89,272.21 876.53,303.31 896.66,332.22 " fill="none" id="State-to-Location" style="stroke:#181818;stroke-width:1.0;"/><polygon fill="none" points="902.6,328.5,908.28,348.91,891.11,336.5,902.6,328.5" style="stroke:#181818;stroke-width:1.0;"/><text fill="#000000" font-family="sans-serif" font-size="13" lengthAdjust="spacing" textLength="46" x="885.5" y="315.7686">extends</text></g><!--link District to Location--><g id="link_District_Location"><path codeLine="64" d="M951.5,249.86 C951.5,271.27 951.5,300.71 951.5,328.56 " fill="none" id="District-to-Location" style="stroke:#181818;stroke-width:1.0;"/><polygon fill="none" points="958.5,328.92,951.5,348.91,944.5,328.91,958.5,328.92" style="stroke:#181818;stroke-width:1.0;"/><text fill="#000000" font-family="sans-serif" font-size="13" lengthAdjust="spacing" textLength="46" x="952.5" y="315.7686">extends</text></g><!--link City to Location--><g id="link_City_Location"><path codeLine="65" d="M1048.34,241.56 C1032.69,271.23 1007.5,319 1007.5,319 C1007.5,319 1004.48,323.96 999.85,331.57 " fill="none" id="City-to-Location" style="stroke:#181818;stroke-width:1.0;"/><polygon fill="none" points="1005.7,335.43,989.32,348.87,993.74,328.15,1005.7,335.43" style="stroke:#181818;stroke-width:1.0;"/><text fill="#000000" font-family="sans-serif" font-size="13" lengthAdjust="spacing" textLength="46" x="1016.5" y="315.7686">extends</text></g><!--link Location to Location--><g id="link_Location_Location"><path codeLine="67" d="M1010.39,393.25 C1029.66,393.35 1045,399.6 1045,412 C1045,423.24 1032.4,429.43 1015.7,430.56 " fill="none" id="Location-to-Location" style="stroke:#181818;stroke-width:1.0;"/><polygon fill="#181818" points="1010.39,430.75,1019.5218,434.4393,1015.3871,430.5787,1019.2477,426.444,1010.39,430.75" style="stroke:#181818;stroke-width:1.0;"/><text fill="#000000" font-family="sans-serif" font-size="13" lengthAdjust="spacing" textLength="20" x="1017.9248" y="429.8212">0..*</text></g><!--link SpecifyLocationsController to Repositories--><g id="link_SpecifyLocationsController_Repositories"><path codeLine="69" d="M350.37,86.27 C321.11,112.57 282.45,147.33 252.42,174.32 " fill="none" id="SpecifyLocationsController-to-Repositories" style="stroke:#181818;stroke-width:1.0;stroke-dasharray:7.0,7.0;"/><polygon fill="#181818" points="248.43,177.91,257.8013,174.8804,252.1528,174.5723,252.4609,168.9238,248.43,177.91" style="stroke:#181818;stroke-width:1.0;"/><text fill="#000000" font-family="sans-serif" font-size="13" lengthAdjust="spacing" textLength="67" x="317.5" y="128.7686">repositories</text></g><!--link SpecifyLocationsController to LocationsRepository--><g id="link_SpecifyLocationsController_LocationsRepository"><path codeLine="70" d="M424.7,86.27 C441.75,107.46 463.22,134.14 482.28,157.82 " fill="none" id="SpecifyLocationsController-to-LocationsRepository" style="stroke:#181818;stroke-width:1.0;stroke-dasharray:7.0,7.0;"/><polygon fill="#181818" points="485.56,161.9,483.0485,152.3768,482.4313,157.9998,476.8082,157.3827,485.56,161.9" style="stroke:#181818;stroke-width:1.0;"/><text fill="#000000" font-family="sans-serif" font-size="13" lengthAdjust="spacing" textLength="114" x="462.5" y="128.7686">locationsRepository</text></g><!--SRC=[fLDDJm8n4BtFhsYu0F8HlN8WCNWX8Pf8z6fgTrWgfLtR4jse_zrfDzrTme87BqrctfkPrpTjt-saBhZbUxOtseYjDNjatXuG6gJWOiTpNFjI8RCeFDUvQXFSbcVcG-gSRRXoRKH9ZRuia1L6bI60VWTeh3S0VOKRpxnXLkPRpp8PHacZ0OJYph5rWK9kofKHFAJTqv9z0VoSWnT6UskKGakqbnSONM0CXWGBYzpJBUaOk73UypsEIOVpLWhlGhYYOCo4z19ZV6ijBuUDY4SiZ9FUMCBJs1pzKbD3BJ3EeRYMGFn8BmUj9csqwbQcNl_GE68yowhAU0vXmgHxvafcJGBV3xJ1mSFh6tdVaXG992AglqlJsg9JCf4MSNwRGPdoQ6FfdfISq0GR7f0cmRLjjH7HjoIs4Xvkbk8HlPgglfe77KzbEh-mVu2ZnKtch7VJwze3GDTo0lzwEhtgLJv1vLQJJTv0RLA31LSWLKo-vuqhCuQV7dNcwh9pU7Js75Wh9aOzDULEhMfzcobvTkJBZ7v_4_vLskNKZAdJx2y0]--></g></svg>