<?xml version="1.0" encoding="us-ascii" standalone="no"?><svg xmlns="http://www.w3.org/2000/svg" xmlns:xlink="http://www.w3.org/1999/xlink" contentStyleType="text/css" height="1121px" preserveAspectRatio="none" style="width:1646px;height:1121px;background:#FFFFFF;" version="1.1" viewBox="0 0 1646 1121" width="1646px" zoomAndPan="magnify"><defs/><g><rect fill="#FFFFFF" height="897.0605" style="stroke:#181818;stroke-width:1.0;" width="10" x="58.5" y="112.2422"/><rect fill="#FFFFFF" height="610.1504" style="stroke:#181818;stroke-width:1.0;" width="10" x="559.5" y="135.5332"/><rect fill="#FFFFFF" height="191.0371" style="stroke:#181818;stroke-width:1.0;" width="10" x="559.5" y="803.2656"/><rect fill="#FFFFFF" height="344.2012" style="stroke:#181818;stroke-width:1.0;" width="10" x="878.5" y="210.4453"/><rect fill="#FFFFFF" height="93.873" style="stroke:#181818;stroke-width:1.0;" width="10" x="878.5" y="585.9375"/><rect fill="#FFFFFF" height="93.873" style="stroke:#181818;stroke-width:1.0;" width="10" x="878.5" y="834.5566"/><rect fill="#FFFFFF" height="31.291" style="stroke:#181818;stroke-width:1.0;" width="10" x="1081.5" y="241.7363"/><rect fill="#FFFFFF" height="93.873" style="stroke:#181818;stroke-width:1.0;" width="10" x="1081.5" y="304.3184"/><rect fill="#FFFFFF" height="31.291" style="stroke:#181818;stroke-width:1.0;" width="10" x="1284.5" y="335.6094"/><rect fill="#FFFFFF" height="93.873" style="stroke:#181818;stroke-width:1.0;" width="10" x="1427" y="429.4824"/><rect fill="#FFFFFF" height="31.291" style="stroke:#181818;stroke-width:1.0;" width="10" x="1427" y="617.2285"/><rect fill="#FFFFFF" height="31.291" style="stroke:#181818;stroke-width:1.0;" width="10" x="1427" y="865.8477"/><rect fill="#FFFFFF" height="31.291" style="stroke:#181818;stroke-width:1.0;" width="10" x="1585" y="460.7734"/><rect fill="none" height="241.6191" style="stroke:#000000;stroke-width:1.5;" width="1516" x="10" y="760.6836"/><line style="stroke:#181818;stroke-width:0.5;stroke-dasharray:5.0,5.0;" x1="63" x2="63" y1="102.2422" y2="1019.3027"/><line style="stroke:#181818;stroke-width:0.5;stroke-dasharray:5.0,5.0;" x1="564" x2="564" y1="102.2422" y2="1019.3027"/><line style="stroke:#181818;stroke-width:0.5;stroke-dasharray:5.0,5.0;" x1="883" x2="883" y1="175.3438" y2="1019.3027"/><line style="stroke:#181818;stroke-width:0.5;stroke-dasharray:5.0,5.0;" x1="1086" x2="1086" y1="102.2422" y2="1019.3027"/><line style="stroke:#181818;stroke-width:0.5;stroke-dasharray:5.0,5.0;" x1="1289" x2="1289" y1="102.2422" y2="1019.3027"/><line style="stroke:#181818;stroke-width:0.5;stroke-dasharray:5.0,5.0;" x1="1432" x2="1432" y1="102.2422" y2="1019.3027"/><line style="stroke:#181818;stroke-width:0.5;stroke-dasharray:5.0,5.0;" x1="1590" x2="1590" y1="102.2422" y2="1019.3027"/><text fill="#000000" font-family="sans-serif" font-size="14" lengthAdjust="spacing" textLength="81" x="20" y="80.1074">Unregistered</text><text fill="#000000" font-family="sans-serif" font-size="14" lengthAdjust="spacing" textLength="29" x="46" y="98.7285">User</text><ellipse cx="63.5" cy="13.5" fill="#E3E3E3" rx="8" ry="8" style="stroke:#181818;stroke-width:0.5;"/><path d="M63.5,21.5 L63.5,48.5 M50.5,29.5 L76.5,29.5 M63.5,48.5 L50.5,63.5 M63.5,48.5 L76.5,63.5 " fill="none" style="stroke:#181818;stroke-width:0.5;"/><text fill="#000000" font-family="sans-serif" font-size="14" lengthAdjust="spacing" textLength="81" x="20" y="1033.4102">Unregistered</text><text fill="#000000" font-family="sans-serif" font-size="14" lengthAdjust="spacing" textLength="29" x="46" y="1052.0313">User</text><ellipse cx="63.5" cy="1064.0449" fill="#E3E3E3" rx="8" ry="8" style="stroke:#181818;stroke-width:0.5;"/><path d="M63.5,1072.0449 L63.5,1099.0449 M50.5,1080.0449 L76.5,1080.0449 M63.5,1099.0449 L50.5,1114.0449 M63.5,1099.0449 L76.5,1114.0449 " fill="none" style="stroke:#181818;stroke-width:0.5;"/><rect fill="#E3E3E3" height="32.6211" rx="2.5" ry="2.5" style="stroke:#181818;stroke-width:0.5;" width="117" x="506" y="68.6211"/><text fill="#000000" font-family="sans-serif" font-size="14" lengthAdjust="spacing" textLength="103" x="513" y="90.7285">:ListPropertiesUI</text><rect fill="#E3E3E3" height="32.6211" rx="2.5" ry="2.5" style="stroke:#181818;stroke-width:0.5;" width="117" x="506" y="1018.3027"/><text fill="#000000" font-family="sans-serif" font-size="14" lengthAdjust="spacing" textLength="103" x="513" y="1040.4102">:ListPropertiesUI</text><rect fill="#E3E3E3" height="32.6211" rx="2.5" ry="2.5" style="stroke:#181818;stroke-width:0.5;" width="167" x="800" y="1018.3027"/><text fill="#000000" font-family="sans-serif" font-size="14" lengthAdjust="spacing" textLength="153" x="807" y="1040.4102">:ListPropertiesController</text><rect fill="#E3E3E3" height="32.6211" rx="2.5" ry="2.5" style="stroke:#181818;stroke-width:0.5;" width="97" x="1038" y="68.6211"/><text fill="#000000" font-family="sans-serif" font-size="14" lengthAdjust="spacing" textLength="83" x="1045" y="90.7285">:Repositories</text><rect fill="#E3E3E3" height="32.6211" rx="2.5" ry="2.5" style="stroke:#181818;stroke-width:0.5;" width="97" x="1038" y="1018.3027"/><text fill="#000000" font-family="sans-serif" font-size="14" lengthAdjust="spacing" textLength="83" x="1045" y="1040.4102">:Repositories</text><rect fill="#E3E3E3" height="51.2422" rx="2.5" ry="2.5" style="stroke:#181818;stroke-width:0.5;" width="97" x="1241" y="50"/><text fill="#000000" font-family="sans-serif" font-size="14" lengthAdjust="spacing" textLength="74" x="1252.5" y="72.1074">repositories</text><text fill="#000000" font-family="sans-serif" font-size="14" lengthAdjust="spacing" textLength="83" x="1248" y="90.7285">:Repositories</text><rect fill="#E3E3E3" height="51.2422" rx="2.5" ry="2.5" style="stroke:#181818;stroke-width:0.5;" width="97" x="1241" y="1018.3027"/><text fill="#000000" font-family="sans-serif" font-size="14" lengthAdjust="spacing" textLength="74" x="1252.5" y="1040.4102">repositories</text><text fill="#000000" font-family="sans-serif" font-size="14" lengthAdjust="spacing" textLength="83" x="1248" y="1059.0313">:Repositories</text><rect fill="#E3E3E3" height="51.2422" rx="2.5" ry="2.5" style="stroke:#181818;stroke-width:0.5;" width="168" x="1348" y="50"/><text fill="#000000" font-family="sans-serif" font-size="14" lengthAdjust="spacing" textLength="153" x="1355.5" y="72.1074">propertySaleRepository:</text><text fill="#000000" font-family="sans-serif" font-size="14" lengthAdjust="spacing" textLength="154" x="1355" y="90.7285">:PropertySaleRepository</text><rect fill="#E3E3E3" height="51.2422" rx="2.5" ry="2.5" style="stroke:#181818;stroke-width:0.5;" width="168" x="1348" y="1018.3027"/><text fill="#000000" font-family="sans-serif" font-size="14" lengthAdjust="spacing" textLength="153" x="1355.5" y="1040.4102">propertySaleRepository:</text><text fill="#000000" font-family="sans-serif" font-size="14" lengthAdjust="spacing" textLength="154" x="1355" y="1059.0313">:PropertySaleRepository</text><rect fill="#E3E3E3" height="51.2422" rx="2.5" ry="2.5" style="stroke:#181818;stroke-width:0.5;" width="100" x="1540" y="50"/><text fill="#000000" font-family="sans-serif" font-size="14" lengthAdjust="spacing" textLength="81" x="1549.5" y="72.1074">propertySale</text><text fill="#000000" font-family="sans-serif" font-size="14" lengthAdjust="spacing" textLength="86" x="1547" y="90.7285">:PropertySale</text><rect fill="#E3E3E3" height="51.2422" rx="2.5" ry="2.5" style="stroke:#181818;stroke-width:0.5;" width="100" x="1540" y="1018.3027"/><text fill="#000000" font-family="sans-serif" font-size="14" lengthAdjust="spacing" textLength="81" x="1549.5" y="1040.4102">propertySale</text><text fill="#000000" font-family="sans-serif" font-size="14" lengthAdjust="spacing" textLength="86" x="1547" y="1059.0313">:PropertySale</text><rect fill="#FFFFFF" height="897.0605" style="stroke:#181818;stroke-width:1.0;" width="10" x="58.5" y="112.2422"/><rect fill="#FFFFFF" height="610.1504" style="stroke:#181818;stroke-width:1.0;" width="10" x="559.5" y="135.5332"/><rect fill="#FFFFFF" height="191.0371" style="stroke:#181818;stroke-width:1.0;" width="10" x="559.5" y="803.2656"/><rect fill="#FFFFFF" height="344.2012" style="stroke:#181818;stroke-width:1.0;" width="10" x="878.5" y="210.4453"/><rect fill="#FFFFFF" height="93.873" style="stroke:#181818;stroke-width:1.0;" width="10" x="878.5" y="585.9375"/><rect fill="#FFFFFF" height="93.873" style="stroke:#181818;stroke-width:1.0;" width="10" x="878.5" y="834.5566"/><rect fill="#FFFFFF" height="31.291" style="stroke:#181818;stroke-width:1.0;" width="10" x="1081.5" y="241.7363"/><rect fill="#FFFFFF" height="93.873" style="stroke:#181818;stroke-width:1.0;" width="10" x="1081.5" y="304.3184"/><rect fill="#FFFFFF" height="31.291" style="stroke:#181818;stroke-width:1.0;" width="10" x="1284.5" y="335.6094"/><rect fill="#FFFFFF" height="93.873" style="stroke:#181818;stroke-width:1.0;" width="10" x="1427" y="429.4824"/><rect fill="#FFFFFF" height="31.291" style="stroke:#181818;stroke-width:1.0;" width="10" x="1427" y="617.2285"/><rect fill="#FFFFFF" height="31.291" style="stroke:#181818;stroke-width:1.0;" width="10" x="1427" y="865.8477"/><rect fill="#FFFFFF" height="31.291" style="stroke:#181818;stroke-width:1.0;" width="10" x="1585" y="460.7734"/><polygon fill="#181818" points="547.5,131.5332,557.5,135.5332,547.5,139.5332,551.5,135.5332" style="stroke:#181818;stroke-width:1.0;"/><line style="stroke:#181818;stroke-width:1.0;" x1="68.5" x2="553.5" y1="135.5332" y2="135.5332"/><text fill="#000000" font-family="sans-serif" font-size="13" font-weight="bold" lengthAdjust="spacing" textLength="7" x="75.5" y="130.2705">1</text><text fill="#000000" font-family="sans-serif" font-size="13" lengthAdjust="spacing" textLength="220" x="86.5" y="130.2705">selects to display the listed properties</text><polygon fill="#181818" points="788,162.8242,798,166.8242,788,170.8242,792,166.8242" style="stroke:#181818;stroke-width:1.0;"/><line style="stroke:#181818;stroke-width:1.0;" x1="569.5" x2="794" y1="166.8242" y2="166.8242"/><text fill="#000000" font-family="sans-serif" font-size="13" font-weight="bold" lengthAdjust="spacing" textLength="7" x="576.5" y="161.5615">2</text><text fill="#000000" font-family="sans-serif" font-size="13" lengthAdjust="spacing" textLength="36" x="587.5" y="161.5615">create</text><rect fill="#E3E3E3" height="32.6211" rx="2.5" ry="2.5" style="stroke:#181818;stroke-width:0.5;" width="167" x="800" y="143.5332"/><text fill="#000000" font-family="sans-serif" font-size="14" lengthAdjust="spacing" textLength="153" x="807" y="165.6406">:ListPropertiesController</text><polygon fill="#181818" points="866.5,206.4453,876.5,210.4453,866.5,214.4453,870.5,210.4453" style="stroke:#181818;stroke-width:1.0;"/><line style="stroke:#181818;stroke-width:1.0;" x1="569.5" x2="872.5" y1="210.4453" y2="210.4453"/><text fill="#000000" font-family="sans-serif" font-size="13" font-weight="bold" lengthAdjust="spacing" textLength="7" x="576.5" y="205.1826">3</text><text fill="#000000" font-family="sans-serif" font-size="13" lengthAdjust="spacing" textLength="134" x="587.5" y="205.1826">GetPropertyAttributes()</text><polygon fill="#181818" points="1069.5,237.7363,1079.5,241.7363,1069.5,245.7363,1073.5,241.7363" style="stroke:#181818;stroke-width:1.0;"/><line style="stroke:#181818;stroke-width:1.0;" x1="888.5" x2="1075.5" y1="241.7363" y2="241.7363"/><text fill="#000000" font-family="sans-serif" font-size="13" font-weight="bold" lengthAdjust="spacing" textLength="7" x="895.5" y="236.4736">4</text><text fill="#000000" font-family="sans-serif" font-size="13" lengthAdjust="spacing" textLength="75" x="906.5" y="236.4736">getInstance()</text><polygon fill="#181818" points="899.5,269.0273,889.5,273.0273,899.5,277.0273,895.5,273.0273" style="stroke:#181818;stroke-width:1.0;"/><line style="stroke:#181818;stroke-width:1.0;stroke-dasharray:2.0,2.0;" x1="893.5" x2="1085.5" y1="273.0273" y2="273.0273"/><text fill="#000000" font-family="sans-serif" font-size="13" font-weight="bold" lengthAdjust="spacing" textLength="7" x="905.5" y="267.7646">5</text><text fill="#000000" font-family="sans-serif" font-size="13" lengthAdjust="spacing" textLength="67" x="916.5" y="267.7646">repositories</text><polygon fill="#181818" points="1069.5,300.3184,1079.5,304.3184,1069.5,308.3184,1073.5,304.3184" style="stroke:#181818;stroke-width:1.0;"/><line style="stroke:#181818;stroke-width:1.0;" x1="888.5" x2="1075.5" y1="304.3184" y2="304.3184"/><text fill="#000000" font-family="sans-serif" font-size="13" font-weight="bold" lengthAdjust="spacing" textLength="7" x="895.5" y="299.0557">6</text><text fill="#000000" font-family="sans-serif" font-size="13" lengthAdjust="spacing" textLength="163" x="906.5" y="299.0557">getPropertySaleRepository()</text><polygon fill="#181818" points="1272.5,331.6094,1282.5,335.6094,1272.5,339.6094,1276.5,335.6094" style="stroke:#181818;stroke-width:1.0;"/><line style="stroke:#181818;stroke-width:1.0;" x1="1091.5" x2="1278.5" y1="335.6094" y2="335.6094"/><text fill="#000000" font-family="sans-serif" font-size="13" font-weight="bold" lengthAdjust="spacing" textLength="7" x="1098.5" y="330.3467">7</text><text fill="#000000" font-family="sans-serif" font-size="13" lengthAdjust="spacing" textLength="163" x="1109.5" y="330.3467">getPropertySaleRepository()</text><polygon fill="#181818" points="1102.5,362.9004,1092.5,366.9004,1102.5,370.9004,1098.5,366.9004" style="stroke:#181818;stroke-width:1.0;"/><line style="stroke:#181818;stroke-width:1.0;stroke-dasharray:2.0,2.0;" x1="1096.5" x2="1288.5" y1="366.9004" y2="366.9004"/><text fill="#000000" font-family="sans-serif" font-size="13" font-weight="bold" lengthAdjust="spacing" textLength="7" x="1108.5" y="361.6377">8</text><text fill="#000000" font-family="sans-serif" font-size="13" lengthAdjust="spacing" textLength="137" x="1119.5" y="361.6377">PropertySaleRepository</text><polygon fill="#181818" points="899.5,394.1914,889.5,398.1914,899.5,402.1914,895.5,398.1914" style="stroke:#181818;stroke-width:1.0;"/><line style="stroke:#181818;stroke-width:1.0;stroke-dasharray:2.0,2.0;" x1="893.5" x2="1085.5" y1="398.1914" y2="398.1914"/><text fill="#000000" font-family="sans-serif" font-size="13" font-weight="bold" lengthAdjust="spacing" textLength="7" x="905.5" y="392.9287">9</text><text fill="#000000" font-family="sans-serif" font-size="13" lengthAdjust="spacing" textLength="137" x="916.5" y="392.9287">PropertySaleRepository</text><polygon fill="#181818" points="1415,425.4824,1425,429.4824,1415,433.4824,1419,429.4824" style="stroke:#181818;stroke-width:1.0;"/><line style="stroke:#181818;stroke-width:1.0;" x1="888.5" x2="1421" y1="429.4824" y2="429.4824"/><text fill="#000000" font-family="sans-serif" font-size="13" font-weight="bold" lengthAdjust="spacing" textLength="14" x="895.5" y="424.2197">10</text><text fill="#000000" font-family="sans-serif" font-size="13" lengthAdjust="spacing" textLength="177" x="913.5" y="424.2197">getMaxAttributes(PropertyList)</text><polygon fill="#181818" points="1573,456.7734,1583,460.7734,1573,464.7734,1577,460.7734" style="stroke:#181818;stroke-width:1.0;"/><line style="stroke:#181818;stroke-width:1.0;" x1="1437" x2="1579" y1="460.7734" y2="460.7734"/><text fill="#000000" font-family="sans-serif" font-size="13" font-weight="bold" lengthAdjust="spacing" textLength="14" x="1444" y="455.5107">11</text><text fill="#000000" font-family="sans-serif" font-size="13" lengthAdjust="spacing" textLength="111" x="1462" y="455.5107">getFilterAttributes()</text><polygon fill="#181818" points="1448,488.0645,1438,492.0645,1448,496.0645,1444,492.0645" style="stroke:#181818;stroke-width:1.0;"/><line style="stroke:#181818;stroke-width:1.0;stroke-dasharray:2.0,2.0;" x1="1442" x2="1589" y1="492.0645" y2="492.0645"/><text fill="#000000" font-family="sans-serif" font-size="13" font-weight="bold" lengthAdjust="spacing" textLength="14" x="1454" y="486.8018">12</text><text fill="#000000" font-family="sans-serif" font-size="13" lengthAdjust="spacing" textLength="54" x="1472" y="486.8018">attributes</text><polygon fill="#181818" points="899.5,519.3555,889.5,523.3555,899.5,527.3555,895.5,523.3555" style="stroke:#181818;stroke-width:1.0;"/><line style="stroke:#181818;stroke-width:1.0;stroke-dasharray:2.0,2.0;" x1="893.5" x2="1431" y1="523.3555" y2="523.3555"/><text fill="#000000" font-family="sans-serif" font-size="13" font-weight="bold" lengthAdjust="spacing" textLength="14" x="905.5" y="518.0928">13</text><text fill="#000000" font-family="sans-serif" font-size="13" lengthAdjust="spacing" textLength="81" x="923.5" y="518.0928">maxAttributes</text><polygon fill="#181818" points="580.5,550.6465,570.5,554.6465,580.5,558.6465,576.5,554.6465" style="stroke:#181818;stroke-width:1.0;"/><line style="stroke:#181818;stroke-width:1.0;stroke-dasharray:2.0,2.0;" x1="574.5" x2="882.5" y1="554.6465" y2="554.6465"/><text fill="#000000" font-family="sans-serif" font-size="13" font-weight="bold" lengthAdjust="spacing" textLength="14" x="586.5" y="549.3838">14</text><text fill="#000000" font-family="sans-serif" font-size="13" lengthAdjust="spacing" textLength="81" x="604.5" y="549.3838">maxAttributes</text><polygon fill="#181818" points="866.5,581.9375,876.5,585.9375,866.5,589.9375,870.5,585.9375" style="stroke:#181818;stroke-width:1.0;"/><line style="stroke:#181818;stroke-width:1.0;" x1="569.5" x2="872.5" y1="585.9375" y2="585.9375"/><text fill="#000000" font-family="sans-serif" font-size="13" font-weight="bold" lengthAdjust="spacing" textLength="14" x="576.5" y="580.6748">15</text><text fill="#000000" font-family="sans-serif" font-size="13" lengthAdjust="spacing" textLength="245" x="594.5" y="580.6748">ListProperties(propertyList, maxAttributes)</text><polygon fill="#181818" points="1415,613.2285,1425,617.2285,1415,621.2285,1419,617.2285" style="stroke:#181818;stroke-width:1.0;"/><line style="stroke:#181818;stroke-width:1.0;" x1="888.5" x2="1421" y1="617.2285" y2="617.2285"/><text fill="#000000" font-family="sans-serif" font-size="13" font-weight="bold" lengthAdjust="spacing" textLength="14" x="895.5" y="611.9658">16</text><text fill="#000000" font-family="sans-serif" font-size="13" lengthAdjust="spacing" textLength="91" x="913.5" y="611.9658">SortProperties()</text><polygon fill="#181818" points="899.5,644.5195,889.5,648.5195,899.5,652.5195,895.5,648.5195" style="stroke:#181818;stroke-width:1.0;"/><line style="stroke:#181818;stroke-width:1.0;stroke-dasharray:2.0,2.0;" x1="893.5" x2="1431" y1="648.5195" y2="648.5195"/><text fill="#000000" font-family="sans-serif" font-size="13" font-weight="bold" lengthAdjust="spacing" textLength="14" x="905.5" y="643.2568">17</text><text fill="#000000" font-family="sans-serif" font-size="13" lengthAdjust="spacing" textLength="68" x="923.5" y="643.2568">propertyList</text><polygon fill="#181818" points="580.5,675.8105,570.5,679.8105,580.5,683.8105,576.5,679.8105" style="stroke:#181818;stroke-width:1.0;"/><line style="stroke:#181818;stroke-width:1.0;stroke-dasharray:2.0,2.0;" x1="574.5" x2="882.5" y1="679.8105" y2="679.8105"/><text fill="#000000" font-family="sans-serif" font-size="13" font-weight="bold" lengthAdjust="spacing" textLength="14" x="586.5" y="674.5479">18</text><text fill="#000000" font-family="sans-serif" font-size="13" lengthAdjust="spacing" textLength="68" x="604.5" y="674.5479">propertyList</text><polygon fill="#181818" points="79.5,741.6836,69.5,745.6836,79.5,749.6836,75.5,745.6836" style="stroke:#181818;stroke-width:1.0;"/><line style="stroke:#181818;stroke-width:1.0;stroke-dasharray:2.0,2.0;" x1="73.5" x2="563.5" y1="745.6836" y2="745.6836"/><text fill="#000000" font-family="sans-serif" font-size="13" font-weight="bold" lengthAdjust="spacing" textLength="14" x="85.5" y="723.1299">19</text><text fill="#000000" font-family="sans-serif" font-size="13" lengthAdjust="spacing" textLength="303" x="103.5" y="705.8389">display the listed properties by most recently added,</text><text fill="#000000" font-family="sans-serif" font-size="13" lengthAdjust="spacing" textLength="324" x="107.5" y="723.1299">the existing options of type of business, type of property</text><text fill="#000000" font-family="sans-serif" font-size="13" lengthAdjust="spacing" textLength="408" x="103.5" y="740.4209">and number of rooms and the sort options(by price, by city or by state)</text><path d="M10,760.6836 L75,760.6836 L75,769.9746 L65,779.9746 L10,779.9746 L10,760.6836 " fill="#EEEEEE" style="stroke:#000000;stroke-width:1.5;"/><rect fill="none" height="241.6191" style="stroke:#000000;stroke-width:1.5;" width="1516" x="10" y="760.6836"/><text fill="#000000" font-family="sans-serif" font-size="13" font-weight="bold" lengthAdjust="spacing" textLength="20" x="25" y="775.7119">opt</text><text fill="#000000" font-family="sans-serif" font-size="11" font-weight="bold" lengthAdjust="spacing" textLength="333" x="90" y="774.5537">[selects at least one of the property options or sort options]</text><polygon fill="#181818" points="547.5,799.2656,557.5,803.2656,547.5,807.2656,551.5,803.2656" style="stroke:#181818;stroke-width:1.0;"/><line style="stroke:#181818;stroke-width:1.0;" x1="68.5" x2="553.5" y1="803.2656" y2="803.2656"/><text fill="#000000" font-family="sans-serif" font-size="13" font-weight="bold" lengthAdjust="spacing" textLength="14" x="75.5" y="798.0029">20</text><text fill="#000000" font-family="sans-serif" font-size="13" lengthAdjust="spacing" textLength="73" x="93.5" y="798.0029">Selects data</text><polygon fill="#181818" points="866.5,830.5566,876.5,834.5566,866.5,838.5566,870.5,834.5566" style="stroke:#181818;stroke-width:1.0;"/><line style="stroke:#181818;stroke-width:1.0;" x1="569.5" x2="872.5" y1="834.5566" y2="834.5566"/><text fill="#000000" font-family="sans-serif" font-size="13" font-weight="bold" lengthAdjust="spacing" textLength="14" x="576.5" y="829.2939">21</text><text fill="#000000" font-family="sans-serif" font-size="13" lengthAdjust="spacing" textLength="272" x="594.5" y="829.2939">ListProperties(propertyList, attributes, criterion)</text><polygon fill="#181818" points="1415,861.8477,1425,865.8477,1415,869.8477,1419,865.8477" style="stroke:#181818;stroke-width:1.0;"/><line style="stroke:#181818;stroke-width:1.0;" x1="888.5" x2="1421" y1="865.8477" y2="865.8477"/><text fill="#000000" font-family="sans-serif" font-size="13" font-weight="bold" lengthAdjust="spacing" textLength="14" x="895.5" y="860.585">22</text><text fill="#000000" font-family="sans-serif" font-size="13" lengthAdjust="spacing" textLength="139" x="913.5" y="860.585">SortProperties(Criterion)</text><polygon fill="#181818" points="899.5,893.1387,889.5,897.1387,899.5,901.1387,895.5,897.1387" style="stroke:#181818;stroke-width:1.0;"/><line style="stroke:#181818;stroke-width:1.0;stroke-dasharray:2.0,2.0;" x1="893.5" x2="1431" y1="897.1387" y2="897.1387"/><text fill="#000000" font-family="sans-serif" font-size="13" font-weight="bold" lengthAdjust="spacing" textLength="14" x="905.5" y="891.876">23</text><text fill="#000000" font-family="sans-serif" font-size="13" lengthAdjust="spacing" textLength="68" x="923.5" y="891.876">propertyList</text><polygon fill="#181818" points="580.5,924.4297,570.5,928.4297,580.5,932.4297,576.5,928.4297" style="stroke:#181818;stroke-width:1.0;"/><line style="stroke:#181818;stroke-width:1.0;stroke-dasharray:2.0,2.0;" x1="574.5" x2="882.5" y1="928.4297" y2="928.4297"/><text fill="#000000" font-family="sans-serif" font-size="13" font-weight="bold" lengthAdjust="spacing" textLength="14" x="586.5" y="923.167">24</text><text fill="#000000" font-family="sans-serif" font-size="13" lengthAdjust="spacing" textLength="68" x="604.5" y="923.167">propertyList</text><polygon fill="#181818" points="79.5,990.3027,69.5,994.3027,79.5,998.3027,75.5,994.3027" style="stroke:#181818;stroke-width:1.0;"/><line style="stroke:#181818;stroke-width:1.0;stroke-dasharray:2.0,2.0;" x1="73.5" x2="563.5" y1="994.3027" y2="994.3027"/><text fill="#000000" font-family="sans-serif" font-size="13" font-weight="bold" lengthAdjust="spacing" textLength="14" x="85.5" y="971.749">25</text><text fill="#000000" font-family="sans-serif" font-size="13" lengthAdjust="spacing" textLength="442" x="103.5" y="954.458">Shows the listed properties matching the porperty options or the sort options</text><text fill="#000000" font-family="sans-serif" font-size="13" lengthAdjust="spacing" textLength="449" x="103.5" y="971.749">selected, the existing options of type ofbusiness, type of property and number</text><text fill="#000000" font-family="sans-serif" font-size="13" lengthAdjust="spacing" textLength="340" x="107.5" y="989.04">of rooms and the sort options(by price, by city or by state).</text><!--SRC=[jLPDR-8m4BtxLunwAQte_W0EbQfkTuNKQb6ptBYOP02hYPsrpRRvzpisv1Cdf5IR2yWUlpTVpnxp9cJEDSyWKrB5Ewqo1Alto4ora_FuZMyniaMAe36sN6xJfe7PyKIz2xc53KyDCiRtLibzjaRDsFLE90WRfUnQVJ0UMwNXQYarReMng35PoQL1VGNSm39YX6X5B78kBLpDdibceLMEj8XcEJzOpGUj7fMqMgNf4VFnz-jpn_uLSsK4EKBMtgPQA2BXOYFlsqTquyHA1W2U5kq3-S6T8k8frkWpEhi8xdYKy5O_S0VjWF7wQy5SciLVRj5bbC7nMqPmTq_PWnaOJAcE1go2H9WyvGNO7KBgIf90NkMoFbmZpgccqFW8y8vm7xw_4B36FtiqX9nmos6YSKCbbZ5E8K4JQv5ReUGKGCYDqXbFOINREnRZdHGnxRIMaxtcXt-nClQ6DHsuZZKwptobkvxT- -NRM_BjOCPwJCZW9vPjL3nOgyLwRz5CscHL7ZnRQyjz7eaG0nr515kqSsb8Fp5sO5lGeNOyiNPVYENk68-hHTsb9ySJ_1pTG60-hd3l_hyexvtcFiVSPYV5XjcU5Zw7mK1x53gKt13FSDqk81cPohA8OGQVpHV-qUZzqj3TiC64LYxqE1qw4pRrVj7bvRtu8L9w6tf5U4BkBxqG5MtupFP5p2kAqF56YlifUgAfofarCtgEfIUBVNeix_Cs1-j1Fxsowkjl1krNT98tIZzj4uIbDU9s7D-B55EaTDEVcq6qI_fmR0d9bsOo1g56rF9yKiggjbZP2ChXh1yVQXe3PiElFgmB6WUDTSCUIfiMm9C4aoczrSuUF-Y0c_QKVvmDg0tO8aVtkzuR8T6OQRLI1h6IN2Pmc0hTkbOgC-3M7AQXOfTu4wBFjN130_sBXIs0PaRwIo-dnPinYN13IfyPiLJp3xUG8gT8bVJEEbTAX-lmTCkzhXeROrLqX7N3JtXgw3esMe3rHKKZa1PqEv8l5uqcOmNt66QvI6rVLDW5gXghfBFNOwcOQAVUJOzUCcxZdLE4xn-bJ_gds-8hUUX04jKvIVKh2cf1aJA_8gblRAIEK2QCTGNGj8_-0G00]--></g></svg>