<?xml version="1.0" encoding="us-ascii" standalone="no"?><svg xmlns="http://www.w3.org/2000/svg" xmlns:xlink="http://www.w3.org/1999/xlink" contentStyleType="text/css" height="873px" preserveAspectRatio="none" style="width:928px;height:873px;background:#FFFFFF;" version="1.1" viewBox="0 0 928 873" width="928px" zoomAndPan="magnify"><defs/><g><!--class SimpleRegression--><g id="elem_SimpleRegression"><rect codeLine="11" fill="#F1F1F1" height="63.6406" id="SimpleRegression" rx="2.5" ry="2.5" style="stroke:#181818;stroke-width:0.5;" width="191" x="7" y="186.5"/><ellipse cx="42.25" cy="202.5" fill="#ADD1B2" rx="11" ry="11" style="stroke:#181818;stroke-width:1.0;"/><path d="M45.0156,198.375 Q45.1719,198.1563 45.3594,198.0469 Q45.5469,197.9375 45.7656,197.9375 Q46.1406,197.9375 46.375,198.2031 Q46.6094,198.4531 46.6094,199.0625 L46.6094,200.5156 Q46.6094,201.125 46.375,201.3906 Q46.1406,201.6563 45.7656,201.6563 Q45.4219,201.6563 45.2188,201.4531 Q45.0156,201.2656 44.9063,200.75 Q44.8594,200.3906 44.6719,200.2031 Q44.3438,199.8281 43.7344,199.6094 Q43.125,199.3906 42.5,199.3906 Q41.7344,199.3906 41.0938,199.7188 Q40.4688,200.0469 39.9688,200.7969 Q39.4844,201.5469 39.4844,202.5781 L39.4844,203.6719 Q39.4844,204.9063 40.375,205.7344 Q41.2656,206.5469 42.8594,206.5469 Q43.7969,206.5469 44.4531,206.2969 Q44.8438,206.1406 45.2656,205.7031 Q45.5313,205.4375 45.6719,205.3594 Q45.8281,205.2813 46.0313,205.2813 Q46.3594,205.2813 46.6094,205.5469 Q46.875,205.7969 46.875,206.1406 Q46.875,206.4844 46.5313,206.8906 Q46.0313,207.4688 45.2344,207.7969 Q44.1563,208.25 42.8594,208.25 Q41.3438,208.25 40.1406,207.625 Q39.1563,207.125 38.4688,206.0625 Q37.7813,204.9844 37.7813,203.7031 L37.7813,202.5469 Q37.7813,201.2188 38.3906,200.0781 Q39.0156,198.9219 40.1094,198.3125 Q41.2031,197.6875 42.4375,197.6875 Q43.1719,197.6875 43.8125,197.8594 Q44.4688,198.0156 45.0156,198.375 Z " fill="#000000"/><text fill="#000000" font-family="sans-serif" font-size="14" lengthAdjust="spacing" textLength="114" x="60.75" y="207.3535">SimpleRegression</text><line style="stroke:#181818;stroke-width:0.5;" x1="8" x2="197" y1="218.5" y2="218.5"/><rect fill="none" height="6" style="stroke:#C82930;stroke-width:1.0;" width="6" x="15" y="228.8203"/><text fill="#000000" font-family="sans-serif" font-size="14" lengthAdjust="spacing" textLength="165" x="27" y="235.1738">apache.SimpleRegression</text><line style="stroke:#181818;stroke-width:0.5;" x1="8" x2="197" y1="242.1406" y2="242.1406"/></g><!--class MultiLinearRegression--><g id="elem_MultiLinearRegression"><rect codeLine="15" fill="#F1F1F1" height="63.6406" id="MultiLinearRegression" rx="2.5" ry="2.5" style="stroke:#181818;stroke-width:0.5;" width="214" x="233.5" y="186.5"/><ellipse cx="266.95" cy="202.5" fill="#ADD1B2" rx="11" ry="11" style="stroke:#181818;stroke-width:1.0;"/><path d="M269.7156,198.375 Q269.8719,198.1563 270.0594,198.0469 Q270.2469,197.9375 270.4656,197.9375 Q270.8406,197.9375 271.075,198.2031 Q271.3094,198.4531 271.3094,199.0625 L271.3094,200.5156 Q271.3094,201.125 271.075,201.3906 Q270.8406,201.6563 270.4656,201.6563 Q270.1219,201.6563 269.9188,201.4531 Q269.7156,201.2656 269.6063,200.75 Q269.5594,200.3906 269.3719,200.2031 Q269.0438,199.8281 268.4344,199.6094 Q267.825,199.3906 267.2,199.3906 Q266.4344,199.3906 265.7938,199.7188 Q265.1688,200.0469 264.6688,200.7969 Q264.1844,201.5469 264.1844,202.5781 L264.1844,203.6719 Q264.1844,204.9063 265.075,205.7344 Q265.9656,206.5469 267.5594,206.5469 Q268.4969,206.5469 269.1531,206.2969 Q269.5438,206.1406 269.9656,205.7031 Q270.2313,205.4375 270.3719,205.3594 Q270.5281,205.2813 270.7313,205.2813 Q271.0594,205.2813 271.3094,205.5469 Q271.575,205.7969 271.575,206.1406 Q271.575,206.4844 271.2313,206.8906 Q270.7313,207.4688 269.9344,207.7969 Q268.8563,208.25 267.5594,208.25 Q266.0438,208.25 264.8406,207.625 Q263.8563,207.125 263.1688,206.0625 Q262.4813,204.9844 262.4813,203.7031 L262.4813,202.5469 Q262.4813,201.2188 263.0906,200.0781 Q263.7156,198.9219 264.8094,198.3125 Q265.9031,197.6875 267.1375,197.6875 Q267.8719,197.6875 268.5125,197.8594 Q269.1688,198.0156 269.7156,198.375 Z " fill="#000000"/><text fill="#000000" font-family="sans-serif" font-size="14" lengthAdjust="spacing" textLength="141" x="285.05" y="207.3535">MultiLinearRegression</text><line style="stroke:#181818;stroke-width:0.5;" x1="234.5" x2="446.5" y1="218.5" y2="218.5"/><rect fill="none" height="6" style="stroke:#C82930;stroke-width:1.0;" width="6" x="241.5" y="228.8203"/><text fill="#000000" font-family="sans-serif" font-size="14" lengthAdjust="spacing" textLength="188" x="253.5" y="235.1738">OLSMultipleLinearRegression</text><line style="stroke:#181818;stroke-width:0.5;" x1="234.5" x2="446.5" y1="242.1406" y2="242.1406"/></g><!--class PropertySold--><g id="elem_PropertySold"><rect codeLine="21" fill="#F1F1F1" height="79.2813" id="PropertySold" rx="2.5" ry="2.5" style="stroke:#181818;stroke-width:0.5;" width="137" x="504" y="787"/><ellipse cx="529.35" cy="803" fill="#ADD1B2" rx="11" ry="11" style="stroke:#181818;stroke-width:1.0;"/><path d="M532.1156,798.875 Q532.2719,798.6563 532.4594,798.5469 Q532.6469,798.4375 532.8656,798.4375 Q533.2406,798.4375 533.475,798.7031 Q533.7094,798.9531 533.7094,799.5625 L533.7094,801.0156 Q533.7094,801.625 533.475,801.8906 Q533.2406,802.1563 532.8656,802.1563 Q532.5219,802.1563 532.3188,801.9531 Q532.1156,801.7656 532.0063,801.25 Q531.9594,800.8906 531.7719,800.7031 Q531.4438,800.3281 530.8344,800.1094 Q530.225,799.8906 529.6,799.8906 Q528.8344,799.8906 528.1938,800.2188 Q527.5688,800.5469 527.0688,801.2969 Q526.5844,802.0469 526.5844,803.0781 L526.5844,804.1719 Q526.5844,805.4063 527.475,806.2344 Q528.3656,807.0469 529.9594,807.0469 Q530.8969,807.0469 531.5531,806.7969 Q531.9438,806.6406 532.3656,806.2031 Q532.6313,805.9375 532.7719,805.8594 Q532.9281,805.7813 533.1313,805.7813 Q533.4594,805.7813 533.7094,806.0469 Q533.975,806.2969 533.975,806.6406 Q533.975,806.9844 533.6313,807.3906 Q533.1313,807.9688 532.3344,808.2969 Q531.2563,808.75 529.9594,808.75 Q528.4438,808.75 527.2406,808.125 Q526.2563,807.625 525.5688,806.5625 Q524.8813,805.4844 524.8813,804.2031 L524.8813,803.0469 Q524.8813,801.7188 525.4906,800.5781 Q526.1156,799.4219 527.2094,798.8125 Q528.3031,798.1875 529.5375,798.1875 Q530.2719,798.1875 530.9125,798.3594 Q531.5688,798.5156 532.1156,798.875 Z " fill="#000000"/><text fill="#000000" font-family="sans-serif" font-size="14" lengthAdjust="spacing" textLength="82" x="545.65" y="807.8535">PropertySold</text><line style="stroke:#181818;stroke-width:0.5;" x1="505" x2="640" y1="819" y2="819"/><rect fill="none" height="6" style="stroke:#C82930;stroke-width:1.0;" width="6" x="512" y="829.3203"/><text fill="#000000" font-family="sans-serif" font-size="14" lengthAdjust="spacing" textLength="86" x="524" y="835.6738">int paidAmout</text><rect fill="none" height="6" style="stroke:#C82930;stroke-width:1.0;" width="6" x="512" y="844.9609"/><text fill="#000000" font-family="sans-serif" font-size="14" lengthAdjust="spacing" textLength="111" x="524" y="851.3145">Property property</text><line style="stroke:#181818;stroke-width:0.5;" x1="505" x2="640" y1="858.2813" y2="858.2813"/></g><!--class Repositories--><g id="elem_Repositories"><rect codeLine="27" fill="#F1F1F1" height="94.9219" id="Repositories" rx="2.5" ry="2.5" style="stroke:#181818;stroke-width:0.5;" width="206" x="362.5" y="366"/><ellipse cx="421.75" cy="382" fill="#ADD1B2" rx="11" ry="11" style="stroke:#181818;stroke-width:1.0;"/><path d="M424.5156,377.875 Q424.6719,377.6563 424.8594,377.5469 Q425.0469,377.4375 425.2656,377.4375 Q425.6406,377.4375 425.875,377.7031 Q426.1094,377.9531 426.1094,378.5625 L426.1094,380.0156 Q426.1094,380.625 425.875,380.8906 Q425.6406,381.1563 425.2656,381.1563 Q424.9219,381.1563 424.7188,380.9531 Q424.5156,380.7656 424.4063,380.25 Q424.3594,379.8906 424.1719,379.7031 Q423.8438,379.3281 423.2344,379.1094 Q422.625,378.8906 422,378.8906 Q421.2344,378.8906 420.5938,379.2188 Q419.9688,379.5469 419.4688,380.2969 Q418.9844,381.0469 418.9844,382.0781 L418.9844,383.1719 Q418.9844,384.4063 419.875,385.2344 Q420.7656,386.0469 422.3594,386.0469 Q423.2969,386.0469 423.9531,385.7969 Q424.3438,385.6406 424.7656,385.2031 Q425.0313,384.9375 425.1719,384.8594 Q425.3281,384.7813 425.5313,384.7813 Q425.8594,384.7813 426.1094,385.0469 Q426.375,385.2969 426.375,385.6406 Q426.375,385.9844 426.0313,386.3906 Q425.5313,386.9688 424.7344,387.2969 Q423.6563,387.75 422.3594,387.75 Q420.8438,387.75 419.6406,387.125 Q418.6563,386.625 417.9688,385.5625 Q417.2813,384.4844 417.2813,383.2031 L417.2813,382.0469 Q417.2813,380.7188 417.8906,379.5781 Q418.5156,378.4219 419.6094,377.8125 Q420.7031,377.1875 421.9375,377.1875 Q422.6719,377.1875 423.3125,377.3594 Q423.9688,377.5156 424.5156,377.875 Z " fill="#000000"/><text fill="#000000" font-family="sans-serif" font-size="14" lengthAdjust="spacing" textLength="79" x="442.25" y="386.8535">Repositories</text><line style="stroke:#181818;stroke-width:0.5;" x1="363.5" x2="567.5" y1="398" y2="398"/><line style="stroke:#181818;stroke-width:0.5;" x1="363.5" x2="567.5" y1="406" y2="406"/><rect fill="#F24D5C" height="6" style="stroke:#C82930;stroke-width:1.0;" width="6" x="370.5" y="416.3203"/><text fill="#000000" font-family="sans-serif" font-size="14" lengthAdjust="spacing" textLength="89" x="382.5" y="422.6738">Repositories()</text><ellipse cx="373.5" cy="434.9609" fill="#84BE84" rx="3" ry="3" style="stroke:#038048;stroke-width:1.0;"/><text fill="#000000" font-family="sans-serif" font-size="14" lengthAdjust="spacing" textLength="174" x="382.5" y="438.3145">getInstance() : Repositories</text><ellipse cx="373.5" cy="450.6016" fill="#84BE84" rx="3" ry="3" style="stroke:#038048;stroke-width:1.0;"/><text fill="#000000" font-family="sans-serif" font-size="14" lengthAdjust="spacing" textLength="180" x="382.5" y="453.9551">getPropertySoldRepository()</text></g><!--class RegressionController--><g id="elem_RegressionController"><rect codeLine="33" fill="#F1F1F1" height="63.6406" id="RegressionController" rx="2.5" ry="2.5" style="stroke:#181818;stroke-width:0.5;" width="166" x="257.5" y="7"/><ellipse cx="272.5" cy="23" fill="#ADD1B2" rx="11" ry="11" style="stroke:#181818;stroke-width:1.0;"/><path d="M275.2656,18.875 Q275.4219,18.6563 275.6094,18.5469 Q275.7969,18.4375 276.0156,18.4375 Q276.3906,18.4375 276.625,18.7031 Q276.8594,18.9531 276.8594,19.5625 L276.8594,21.0156 Q276.8594,21.625 276.625,21.8906 Q276.3906,22.1563 276.0156,22.1563 Q275.6719,22.1563 275.4688,21.9531 Q275.2656,21.7656 275.1563,21.25 Q275.1094,20.8906 274.9219,20.7031 Q274.5938,20.3281 273.9844,20.1094 Q273.375,19.8906 272.75,19.8906 Q271.9844,19.8906 271.3438,20.2188 Q270.7188,20.5469 270.2188,21.2969 Q269.7344,22.0469 269.7344,23.0781 L269.7344,24.1719 Q269.7344,25.4063 270.625,26.2344 Q271.5156,27.0469 273.1094,27.0469 Q274.0469,27.0469 274.7031,26.7969 Q275.0938,26.6406 275.5156,26.2031 Q275.7813,25.9375 275.9219,25.8594 Q276.0781,25.7813 276.2813,25.7813 Q276.6094,25.7813 276.8594,26.0469 Q277.125,26.2969 277.125,26.6406 Q277.125,26.9844 276.7813,27.3906 Q276.2813,27.9688 275.4844,28.2969 Q274.4063,28.75 273.1094,28.75 Q271.5938,28.75 270.3906,28.125 Q269.4063,27.625 268.7188,26.5625 Q268.0313,25.4844 268.0313,24.2031 L268.0313,23.0469 Q268.0313,21.7188 268.6406,20.5781 Q269.2656,19.4219 270.3594,18.8125 Q271.4531,18.1875 272.6875,18.1875 Q273.4219,18.1875 274.0625,18.3594 Q274.7188,18.5156 275.2656,18.875 Z " fill="#000000"/><text fill="#000000" font-family="sans-serif" font-size="14" lengthAdjust="spacing" textLength="134" x="286.5" y="27.8535">RegressionController</text><line style="stroke:#181818;stroke-width:0.5;" x1="258.5" x2="422.5" y1="39" y2="39"/><line style="stroke:#181818;stroke-width:0.5;" x1="258.5" x2="422.5" y1="47" y2="47"/><ellipse cx="268.5" cy="60.3203" fill="#84BE84" rx="3" ry="3" style="stroke:#038048;stroke-width:1.0;"/><text fill="#000000" font-family="sans-serif" font-size="14" lengthAdjust="spacing" textLength="72" x="277.5" y="63.6738">Controller()</text></g><!--class RegressionUI--><g id="elem_RegressionUI"><rect codeLine="38" fill="#F1F1F1" height="48" id="RegressionUI" rx="2.5" ry="2.5" style="stroke:#181818;stroke-width:0.5;" width="116" x="106.5" y="15"/><ellipse cx="121.5" cy="31" fill="#ADD1B2" rx="11" ry="11" style="stroke:#181818;stroke-width:1.0;"/><path d="M124.2656,26.875 Q124.4219,26.6563 124.6094,26.5469 Q124.7969,26.4375 125.0156,26.4375 Q125.3906,26.4375 125.625,26.7031 Q125.8594,26.9531 125.8594,27.5625 L125.8594,29.0156 Q125.8594,29.625 125.625,29.8906 Q125.3906,30.1563 125.0156,30.1563 Q124.6719,30.1563 124.4688,29.9531 Q124.2656,29.7656 124.1563,29.25 Q124.1094,28.8906 123.9219,28.7031 Q123.5938,28.3281 122.9844,28.1094 Q122.375,27.8906 121.75,27.8906 Q120.9844,27.8906 120.3438,28.2188 Q119.7188,28.5469 119.2188,29.2969 Q118.7344,30.0469 118.7344,31.0781 L118.7344,32.1719 Q118.7344,33.4063 119.625,34.2344 Q120.5156,35.0469 122.1094,35.0469 Q123.0469,35.0469 123.7031,34.7969 Q124.0938,34.6406 124.5156,34.2031 Q124.7813,33.9375 124.9219,33.8594 Q125.0781,33.7813 125.2813,33.7813 Q125.6094,33.7813 125.8594,34.0469 Q126.125,34.2969 126.125,34.6406 Q126.125,34.9844 125.7813,35.3906 Q125.2813,35.9688 124.4844,36.2969 Q123.4063,36.75 122.1094,36.75 Q120.5938,36.75 119.3906,36.125 Q118.4063,35.625 117.7188,34.5625 Q117.0313,33.4844 117.0313,32.2031 L117.0313,31.0469 Q117.0313,29.7188 117.6406,28.5781 Q118.2656,27.4219 119.3594,26.8125 Q120.4531,26.1875 121.6875,26.1875 Q122.4219,26.1875 123.0625,26.3594 Q123.7188,26.5156 124.2656,26.875 Z " fill="#000000"/><text fill="#000000" font-family="sans-serif" font-size="14" lengthAdjust="spacing" textLength="84" x="135.5" y="35.8535">RegressionUI</text><line style="stroke:#181818;stroke-width:0.5;" x1="107.5" x2="221.5" y1="47" y2="47"/><line style="stroke:#181818;stroke-width:0.5;" x1="107.5" x2="221.5" y1="55" y2="55"/></g><!--class PropertySoldMapper--><g id="elem_PropertySoldMapper"><rect codeLine="42" fill="#F1F1F1" height="79.2813" id="PropertySoldMapper" rx="2.5" ry="2.5" style="stroke:#181818;stroke-width:0.5;" width="306" x="615.5" y="647"/><ellipse cx="699.25" cy="663" fill="#ADD1B2" rx="11" ry="11" style="stroke:#181818;stroke-width:1.0;"/><path d="M702.0156,658.875 Q702.1719,658.6563 702.3594,658.5469 Q702.5469,658.4375 702.7656,658.4375 Q703.1406,658.4375 703.375,658.7031 Q703.6094,658.9531 703.6094,659.5625 L703.6094,661.0156 Q703.6094,661.625 703.375,661.8906 Q703.1406,662.1563 702.7656,662.1563 Q702.4219,662.1563 702.2188,661.9531 Q702.0156,661.7656 701.9063,661.25 Q701.8594,660.8906 701.6719,660.7031 Q701.3438,660.3281 700.7344,660.1094 Q700.125,659.8906 699.5,659.8906 Q698.7344,659.8906 698.0938,660.2188 Q697.4688,660.5469 696.9688,661.2969 Q696.4844,662.0469 696.4844,663.0781 L696.4844,664.1719 Q696.4844,665.4063 697.375,666.2344 Q698.2656,667.0469 699.8594,667.0469 Q700.7969,667.0469 701.4531,666.7969 Q701.8438,666.6406 702.2656,666.2031 Q702.5313,665.9375 702.6719,665.8594 Q702.8281,665.7813 703.0313,665.7813 Q703.3594,665.7813 703.6094,666.0469 Q703.875,666.2969 703.875,666.6406 Q703.875,666.9844 703.5313,667.3906 Q703.0313,667.9688 702.2344,668.2969 Q701.1563,668.75 699.8594,668.75 Q698.3438,668.75 697.1406,668.125 Q696.1563,667.625 695.4688,666.5625 Q694.7813,665.4844 694.7813,664.2031 L694.7813,663.0469 Q694.7813,661.7188 695.3906,660.5781 Q696.0156,659.4219 697.1094,658.8125 Q698.2031,658.1875 699.4375,658.1875 Q700.1719,658.1875 700.8125,658.3594 Q701.4688,658.5156 702.0156,658.875 Z " fill="#000000"/><text fill="#000000" font-family="sans-serif" font-size="14" lengthAdjust="spacing" textLength="130" x="719.75" y="667.8535">PropertySoldMapper</text><line style="stroke:#181818;stroke-width:0.5;" x1="616.5" x2="920.5" y1="679" y2="679"/><line style="stroke:#181818;stroke-width:0.5;" x1="616.5" x2="920.5" y1="687" y2="687"/><ellipse cx="626.5" cy="700.3203" fill="#84BE84" rx="3" ry="3" style="stroke:#038048;stroke-width:1.0;"/><text fill="#000000" font-family="sans-serif" font-size="14" lengthAdjust="spacing" textLength="257" x="635.5" y="703.6738">toDTO(propertySold) : PropertySoldDTO</text><ellipse cx="626.5" cy="715.9609" fill="#84BE84" rx="3" ry="3" style="stroke:#038048;stroke-width:1.0;"/><text fill="#000000" font-family="sans-serif" font-size="14" lengthAdjust="spacing" textLength="280" x="635.5" y="719.3145">toDomain((propertySoldDTO) : PropertySold</text></g><!--class PropertySoldDTO--><g id="elem_PropertySoldDTO"><rect codeLine="47" fill="#F1F1F1" height="79.2813" id="PropertySoldDTO" rx="2.5" ry="2.5" style="stroke:#181818;stroke-width:0.5;" width="167" x="685" y="787"/><ellipse cx="710.35" cy="803" fill="#ADD1B2" rx="11" ry="11" style="stroke:#181818;stroke-width:1.0;"/><path d="M713.1156,798.875 Q713.2719,798.6563 713.4594,798.5469 Q713.6469,798.4375 713.8656,798.4375 Q714.2406,798.4375 714.475,798.7031 Q714.7094,798.9531 714.7094,799.5625 L714.7094,801.0156 Q714.7094,801.625 714.475,801.8906 Q714.2406,802.1563 713.8656,802.1563 Q713.5219,802.1563 713.3188,801.9531 Q713.1156,801.7656 713.0063,801.25 Q712.9594,800.8906 712.7719,800.7031 Q712.4438,800.3281 711.8344,800.1094 Q711.225,799.8906 710.6,799.8906 Q709.8344,799.8906 709.1938,800.2188 Q708.5688,800.5469 708.0688,801.2969 Q707.5844,802.0469 707.5844,803.0781 L707.5844,804.1719 Q707.5844,805.4063 708.475,806.2344 Q709.3656,807.0469 710.9594,807.0469 Q711.8969,807.0469 712.5531,806.7969 Q712.9438,806.6406 713.3656,806.2031 Q713.6313,805.9375 713.7719,805.8594 Q713.9281,805.7813 714.1313,805.7813 Q714.4594,805.7813 714.7094,806.0469 Q714.975,806.2969 714.975,806.6406 Q714.975,806.9844 714.6313,807.3906 Q714.1313,807.9688 713.3344,808.2969 Q712.2563,808.75 710.9594,808.75 Q709.4438,808.75 708.2406,808.125 Q707.2563,807.625 706.5688,806.5625 Q705.8813,805.4844 705.8813,804.2031 L705.8813,803.0469 Q705.8813,801.7188 706.4906,800.5781 Q707.1156,799.4219 708.2094,798.8125 Q709.3031,798.1875 710.5375,798.1875 Q711.2719,798.1875 711.9125,798.3594 Q712.5688,798.5156 713.1156,798.875 Z " fill="#000000"/><text fill="#000000" font-family="sans-serif" font-size="14" lengthAdjust="spacing" textLength="112" x="726.65" y="807.8535">PropertySoldDTO</text><line style="stroke:#181818;stroke-width:0.5;" x1="686" x2="851" y1="819" y2="819"/><ellipse cx="696" cy="832.3203" fill="none" rx="3" ry="3" style="stroke:#038048;stroke-width:1.0;"/><text fill="#000000" font-family="sans-serif" font-size="14" lengthAdjust="spacing" textLength="86" x="705" y="835.6738">int paidAmout</text><ellipse cx="696" cy="847.9609" fill="none" rx="3" ry="3" style="stroke:#038048;stroke-width:1.0;"/><text fill="#000000" font-family="sans-serif" font-size="14" lengthAdjust="spacing" textLength="141" x="705" y="851.3145">PropertyDTO property</text><line style="stroke:#181818;stroke-width:0.5;" x1="686" x2="851" y1="858.2813" y2="858.2813"/></g><!--class PropertySoldRepository--><g id="elem_PropertySoldRepository"><rect codeLine="52" fill="#F1F1F1" height="63.6406" id="PropertySoldRepository" rx="2.5" ry="2.5" style="stroke:#181818;stroke-width:0.5;" width="347" x="409" y="522"/><ellipse cx="503.25" cy="538" fill="#ADD1B2" rx="11" ry="11" style="stroke:#181818;stroke-width:1.0;"/><path d="M506.0156,533.875 Q506.1719,533.6563 506.3594,533.5469 Q506.5469,533.4375 506.7656,533.4375 Q507.1406,533.4375 507.375,533.7031 Q507.6094,533.9531 507.6094,534.5625 L507.6094,536.0156 Q507.6094,536.625 507.375,536.8906 Q507.1406,537.1563 506.7656,537.1563 Q506.4219,537.1563 506.2188,536.9531 Q506.0156,536.7656 505.9063,536.25 Q505.8594,535.8906 505.6719,535.7031 Q505.3438,535.3281 504.7344,535.1094 Q504.125,534.8906 503.5,534.8906 Q502.7344,534.8906 502.0938,535.2188 Q501.4688,535.5469 500.9688,536.2969 Q500.4844,537.0469 500.4844,538.0781 L500.4844,539.1719 Q500.4844,540.4063 501.375,541.2344 Q502.2656,542.0469 503.8594,542.0469 Q504.7969,542.0469 505.4531,541.7969 Q505.8438,541.6406 506.2656,541.2031 Q506.5313,540.9375 506.6719,540.8594 Q506.8281,540.7813 507.0313,540.7813 Q507.3594,540.7813 507.6094,541.0469 Q507.875,541.2969 507.875,541.6406 Q507.875,541.9844 507.5313,542.3906 Q507.0313,542.9688 506.2344,543.2969 Q505.1563,543.75 503.8594,543.75 Q502.3438,543.75 501.1406,543.125 Q500.1563,542.625 499.4688,541.5625 Q498.7813,540.4844 498.7813,539.2031 L498.7813,538.0469 Q498.7813,536.7188 499.3906,535.5781 Q500.0156,534.4219 501.1094,533.8125 Q502.2031,533.1875 503.4375,533.1875 Q504.1719,533.1875 504.8125,533.3594 Q505.4688,533.5156 506.0156,533.875 Z " fill="#000000"/><text fill="#000000" font-family="sans-serif" font-size="14" lengthAdjust="spacing" textLength="150" x="523.75" y="542.8535">PropertySoldRepository</text><line style="stroke:#181818;stroke-width:0.5;" x1="410" x2="755" y1="554" y2="554"/><line style="stroke:#181818;stroke-width:0.5;" x1="410" x2="755" y1="562" y2="562"/><ellipse cx="420" cy="575.3203" fill="#84BE84" rx="3" ry="3" style="stroke:#038048;stroke-width:1.0;"/><text fill="#000000" font-family="sans-serif" font-size="14" lengthAdjust="spacing" textLength="321" x="429" y="578.6738">getPropertySoldDTOlist() : List&lt;PropertySoldDTO&gt;</text></g><!--class DataColector--><g id="elem_DataColector"><rect codeLine="56" fill="#F1F1F1" height="173.125" id="DataColector" rx="2.5" ry="2.5" style="stroke:#181818;stroke-width:0.5;" width="297" x="483" y="132"/><ellipse cx="585.75" cy="148" fill="#ADD1B2" rx="11" ry="11" style="stroke:#181818;stroke-width:1.0;"/><path d="M588.5156,143.875 Q588.6719,143.6563 588.8594,143.5469 Q589.0469,143.4375 589.2656,143.4375 Q589.6406,143.4375 589.875,143.7031 Q590.1094,143.9531 590.1094,144.5625 L590.1094,146.0156 Q590.1094,146.625 589.875,146.8906 Q589.6406,147.1563 589.2656,147.1563 Q588.9219,147.1563 588.7188,146.9531 Q588.5156,146.7656 588.4063,146.25 Q588.3594,145.8906 588.1719,145.7031 Q587.8438,145.3281 587.2344,145.1094 Q586.625,144.8906 586,144.8906 Q585.2344,144.8906 584.5938,145.2188 Q583.9688,145.5469 583.4688,146.2969 Q582.9844,147.0469 582.9844,148.0781 L582.9844,149.1719 Q582.9844,150.4063 583.875,151.2344 Q584.7656,152.0469 586.3594,152.0469 Q587.2969,152.0469 587.9531,151.7969 Q588.3438,151.6406 588.7656,151.2031 Q589.0313,150.9375 589.1719,150.8594 Q589.3281,150.7813 589.5313,150.7813 Q589.8594,150.7813 590.1094,151.0469 Q590.375,151.2969 590.375,151.6406 Q590.375,151.9844 590.0313,152.3906 Q589.5313,152.9688 588.7344,153.2969 Q587.6563,153.75 586.3594,153.75 Q584.8438,153.75 583.6406,153.125 Q582.6563,152.625 581.9688,151.5625 Q581.2813,150.4844 581.2813,149.2031 L581.2813,148.0469 Q581.2813,146.7188 581.8906,145.5781 Q582.5156,144.4219 583.6094,143.8125 Q584.7031,143.1875 585.9375,143.1875 Q586.6719,143.1875 587.3125,143.3594 Q587.9688,143.5156 588.5156,143.875 Z " fill="#000000"/><text fill="#000000" font-family="sans-serif" font-size="14" lengthAdjust="spacing" textLength="83" x="606.25" y="152.8535">DataColector</text><line style="stroke:#181818;stroke-width:0.5;" x1="484" x2="779" y1="164" y2="164"/><line style="stroke:#181818;stroke-width:0.5;" x1="484" x2="779" y1="172" y2="172"/><ellipse cx="494" cy="185.3203" fill="#84BE84" rx="3" ry="3" style="stroke:#038048;stroke-width:1.0;"/><text fill="#000000" font-family="sans-serif" font-size="14" lengthAdjust="spacing" textLength="161" x="503" y="188.6738">getAreaData() : double[][]</text><ellipse cx="494" cy="200.9609" fill="#84BE84" rx="3" ry="3" style="stroke:#038048;stroke-width:1.0;"/><text fill="#000000" font-family="sans-serif" font-size="14" lengthAdjust="spacing" textLength="186" x="503" y="204.3145">getDistanceData() : double[][]</text><ellipse cx="494" cy="216.6016" fill="#84BE84" rx="3" ry="3" style="stroke:#038048;stroke-width:1.0;"/><text fill="#000000" font-family="sans-serif" font-size="14" lengthAdjust="spacing" textLength="188" x="503" y="219.9551">getBedroomData() : double[][]</text><ellipse cx="494" cy="232.2422" fill="#84BE84" rx="3" ry="3" style="stroke:#038048;stroke-width:1.0;"/><text fill="#000000" font-family="sans-serif" font-size="14" lengthAdjust="spacing" textLength="192" x="503" y="235.5957">getBathroomData() : double[][]</text><ellipse cx="494" cy="247.8828" fill="#84BE84" rx="3" ry="3" style="stroke:#038048;stroke-width:1.0;"/><text fill="#000000" font-family="sans-serif" font-size="14" lengthAdjust="spacing" textLength="179" x="503" y="251.2363">getParkingData() : double[][]</text><ellipse cx="494" cy="263.5234" fill="#84BE84" rx="3" ry="3" style="stroke:#038048;stroke-width:1.0;"/><text fill="#000000" font-family="sans-serif" font-size="14" lengthAdjust="spacing" textLength="210" x="503" y="266.877">getIndependentData() : double[][]</text><ellipse cx="494" cy="279.1641" fill="#84BE84" rx="3" ry="3" style="stroke:#038048;stroke-width:1.0;"/><text fill="#000000" font-family="sans-serif" font-size="14" lengthAdjust="spacing" textLength="193" x="503" y="282.5176">getDependentData() : double[]</text><rect fill="#F24D5C" height="6" style="stroke:#C82930;stroke-width:1.0;" width="6" x="491" y="291.8047"/><text fill="#000000" font-family="sans-serif" font-size="14" lengthAdjust="spacing" textLength="271" x="503" y="298.1582">getListAndFilter() : List&lt;PropertySoldDTO&gt;</text></g><!--link RegressionUI to RegressionController--><g id="link_RegressionUI_RegressionController"><path codeLine="67" d="M222.51,39 C222.94,39 223.17,39 223.17,39 C223.17,39 237.48,39 251.97,39 " fill="none" id="RegressionUI-to-RegressionController" style="stroke:#181818;stroke-width:1.0;"/><polygon fill="#181818" points="257.29,39,248.29,35,252.29,39,248.29,43,257.29,39" style="stroke:#181818;stroke-width:1.0;"/></g><!--link RegressionController to DataColector--><g id="link_RegressionController_DataColector"><path codeLine="68" d="M391.52,71.12 C418.2,87.39 452.34,108.22 486.45,129.02 " fill="none" id="RegressionController-to-DataColector" style="stroke:#181818;stroke-width:1.0;stroke-dasharray:7.0,7.0;"/><polygon fill="#181818" points="491.04,131.82,485.4441,123.7153,486.7729,129.2139,481.2743,130.5427,491.04,131.82" style="stroke:#181818;stroke-width:1.0;"/></g><!--link RegressionController to SimpleRegression--><g id="link_RegressionController_SimpleRegression"><path codeLine="69" d="M298.18,71.15 C261.92,97.84 215.5,132 215.5,132 C215.5,132 179.25,159.43 147.82,183.21 " fill="none" id="RegressionController-to-SimpleRegression" style="stroke:#181818;stroke-width:1.0;stroke-dasharray:7.0,7.0;"/><polygon fill="#181818" points="143.62,186.39,153.2111,184.1516,147.608,183.374,148.3855,177.7709,143.62,186.39" style="stroke:#181818;stroke-width:1.0;"/></g><!--link RegressionController to MultiLinearRegression--><g id="link_RegressionController_MultiLinearRegression"><path codeLine="70" d="M340.5,71.32 C340.5,102.12 340.5,149.09 340.5,181.43 " fill="none" id="RegressionController-to-MultiLinearRegression" style="stroke:#181818;stroke-width:1.0;stroke-dasharray:7.0,7.0;"/><polygon fill="#181818" points="340.5,186.49,344.5,177.49,340.5,181.49,336.5,177.49,340.5,186.49" style="stroke:#181818;stroke-width:1.0;"/></g><!--link DataColector to Repositories--><g id="link_DataColector_Repositories"><path codeLine="72" d="M557.72,305.28 C541.06,324.65 523.89,344.61 508.96,361.98 " fill="none" id="DataColector-to-Repositories" style="stroke:#181818;stroke-width:1.0;stroke-dasharray:7.0,7.0;"/><polygon fill="#181818" points="505.61,365.87,514.512,361.6564,508.871,362.0798,508.4477,356.4388,505.61,365.87" style="stroke:#181818;stroke-width:1.0;"/></g><!--link DataColector to PropertySoldRepository--><g id="link_DataColector_PropertySoldRepository"><path codeLine="73" d="M650.79,305.14 C658.01,337.2 664.5,366 664.5,366 C664.5,366 664.5,461 664.5,461 C664.5,461 636.84,492.04 613.65,518.05 " fill="none" id="DataColector-to-PropertySoldRepository" style="stroke:#181818;stroke-width:1.0;stroke-dasharray:7.0,7.0;"/><polygon fill="#181818" points="610.26,521.85,619.2289,517.7808,613.5818,518.113,613.2496,512.4659,610.26,521.85" style="stroke:#181818;stroke-width:1.0;"/></g><!--link Repositories to Repositories--><g id="link_Repositories_Repositories"><path codeLine="76" d="M568.71,399.5 C589.04,401.1 603.5,405.77 603.5,413.5 C603.5,420.57 591.42,425.07 573.82,427.02 " fill="none" id="Repositories-to-Repositories" style="stroke:#181818;stroke-width:1.0;"/><polygon fill="#181818" points="568.71,427.5,578.0474,430.6325,573.6877,427.028,577.2922,422.6682,568.71,427.5" style="stroke:#181818;stroke-width:1.0;"/><text fill="#000000" font-family="sans-serif" font-size="13" lengthAdjust="spacing" textLength="49" x="609.5" y="418.2686">instance</text></g><!--link Repositories to PropertySoldRepository--><g id="link_Repositories_PropertySoldRepository"><path codeLine="77" d="M504.78,461 C520.46,479.56 538.21,500.57 552.78,517.82 " fill="none" id="Repositories-to-PropertySoldRepository" style="stroke:#181818;stroke-width:1.0;"/><polygon fill="#181818" points="556.03,521.67,553.2685,512.2162,552.7996,517.8536,547.1623,517.3848,556.03,521.67" style="stroke:#181818;stroke-width:1.0;"/><text fill="#000000" font-family="sans-serif" font-size="13" lengthAdjust="spacing" textLength="7" x="542.8487" y="511.4178">1</text></g><!--link PropertySoldRepository to PropertySold--><g id="link_PropertySoldRepository_PropertySold"><path codeLine="79" d="M581.35,586.03 C579.58,634.02 576.16,726.44 574.13,781.37 " fill="none" id="PropertySoldRepository-to-PropertySold" style="stroke:#181818;stroke-width:1.0;"/><polygon fill="#181818" points="573.94,786.57,578.2722,777.7251,574.1261,781.5735,570.2778,777.4273,573.94,786.57" style="stroke:#181818;stroke-width:1.0;"/><text fill="#000000" font-family="sans-serif" font-size="13" lengthAdjust="spacing" textLength="20" x="552.4688" y="776.2933">0..*</text></g><!--link PropertySoldRepository to PropertySoldMapper--><g id="link_PropertySoldRepository_PropertySoldMapper"><path codeLine="80" d="M627.05,586.26 C651.64,603.51 682.49,625.15 709.1,643.83 " fill="none" id="PropertySoldRepository-to-PropertySoldMapper" style="stroke:#181818;stroke-width:1.0;stroke-dasharray:7.0,7.0;"/><polygon fill="#181818" points="713.34,646.8,708.2627,638.3607,709.2445,643.9317,703.6735,644.9135,713.34,646.8" style="stroke:#181818;stroke-width:1.0;"/></g><!--link PropertySoldMapper to PropertySold--><g id="link_PropertySoldMapper_PropertySold"><path codeLine="81" d="M713.64,726.12 C688.06,744.14 657.57,765.6 631.49,783.97 " fill="none" id="PropertySoldMapper-to-PropertySold" style="stroke:#181818;stroke-width:1.0;stroke-dasharray:7.0,7.0;"/><polygon fill="#181818" points="627.34,786.89,637.0034,784.9876,631.4308,784.015,632.4034,778.4424,627.34,786.89" style="stroke:#181818;stroke-width:1.0;"/></g><!--link PropertySoldMapper to PropertySoldDTO--><g id="link_PropertySoldMapper_PropertySoldDTO"><path codeLine="82" d="M768.5,726.31 C768.5,743.5 768.5,763.81 768.5,781.56 " fill="none" id="PropertySoldMapper-to-PropertySoldDTO" style="stroke:#181818;stroke-width:1.0;stroke-dasharray:7.0,7.0;"/><polygon fill="#181818" points="768.5,786.98,772.5,777.98,768.5,781.98,764.5,777.98,768.5,786.98" style="stroke:#181818;stroke-width:1.0;"/></g><!--SRC=[ZLDBQ-Cm4BxhLuXUacw8sRqkIo3Ri118QMbsJwK7rPxQeh96I0gBAVtlEvBZ-X6hR0x1rlUOyQUPXNkLsWWhQbwZnhooM0FtzWIiHup8NqK9Hzyeu1PoBtIfXWHNYGB_Ibto5w7S455IWsyCS8Eg2IziCGEYzSWOMoXuyTmZjxAiF2zag2LH4vGhuHm_ojeeU83IWdC4y3UsveBQgo2ROkozKzsUb9S7gYNiH7ftE4QGX5Cyo3k3Uui6h6-Eg8geazfJABBOrdZozDuHk3a_H7KhVW23Jdgq4Xo9EVtMeyFbTJnSyHByNZiADuVbDVy-8lMKOJCVZ8PCtlkAtKVSeFOMbG9xhhpY_L4hkT3ysRyDpeVLReKnqMb5TxJxVRSq0p0qF2GJtlAm5b8lHrp2flI- -ub9B3VEU_N12VWmyak7Fg5eDCcFz4ew7zC-qCEF2RZfJNV2YnjKD91eEwkj1H7Eexx0qxE2nwV7fnRSoVOgauIVK5Z4EeqBNtrAk1UMLgbCudjTW07wqpxTPP91OqruI6MhYrzI-J0nd-Kq726-tioE8PkTpIpRZF9DiowMFCcSNNh6HjSOUACbkq3dHuc5ZnrizNfiGo79ynvFU4Iy-dQLT4qCRfHzpR8lOsMAFksxNLisiybJvlzmmbx_0m00]--></g></svg>