<?xml version="1.0" encoding="us-ascii" standalone="no"?><svg xmlns="http://www.w3.org/2000/svg" xmlns:xlink="http://www.w3.org/1999/xlink" contentStyleType="text/css" height="939px" preserveAspectRatio="none" style="width:560px;height:939px;background:#FFFFFF;" version="1.1" viewBox="0 0 560 939" width="560px" zoomAndPan="magnify"><defs/><g><text fill="#000000" font-family="sans-serif" font-size="14" font-weight="bold" lengthAdjust="spacing" textLength="189" x="178.98" y="25.1074">US012 - Import Legacy Data</text><g id="elem_adm"><rect fill="#F1F1F1" height="38.6211" style="stroke:#181818;stroke-width:0.5;" width="97" x="51.46" y="212.6211"/><text fill="#000000" font-family="sans-serif" font-size="14" lengthAdjust="spacing" textLength="83" x="58.46" y="229.7285">Administrator</text><line style="stroke:#181818;stroke-width:0.5;" x1="52.46" x2="147.46" y1="235.2422" y2="235.2422"/></g><g id="elem_ap"><rect fill="#F1F1F1" height="38.6211" style="stroke:#181818;stroke-width:0.5;" width="79" x="303.46" y="869.1211"/><text fill="#000000" font-family="sans-serif" font-size="14" lengthAdjust="spacing" textLength="65" x="310.46" y="886.2285">Apartment</text><line style="stroke:#181818;stroke-width:0.5;" x1="304.46" x2="381.46" y1="891.7422" y2="891.7422"/></g><g id="elem_prop"><rect fill="#F1F1F1" height="105.1055" style="stroke:#181818;stroke-width:0.5;" width="165" x="344.46" y="477.1211"/><text fill="#000000" font-family="sans-serif" font-size="14" lengthAdjust="spacing" textLength="54" x="399.96" y="494.2285">Property</text><line style="stroke:#181818;stroke-width:0.5;" x1="345.46" x2="508.46" y1="499.7422" y2="499.7422"/><text fill="#000000" font-family="sans-serif" font-size="14" lengthAdjust="spacing" textLength="29" x="350.46" y="518.8496">area</text><text fill="#000000" font-family="sans-serif" font-size="14" lengthAdjust="spacing" textLength="96" x="350.46" y="537.4707">requestedPrice</text><text fill="#000000" font-family="sans-serif" font-size="14" lengthAdjust="spacing" textLength="80" x="350.46" y="556.0918">photographs</text><text fill="#000000" font-family="sans-serif" font-size="14" lengthAdjust="spacing" textLength="153" x="350.46" y="574.7129">distanceFromCityCenter</text></g><g id="elem_House"><rect fill="#F1F1F1" height="86.4844" style="stroke:#181818;stroke-width:0.5;" width="105" x="417.46" y="845.6211"/><text fill="#000000" font-family="sans-serif" font-size="14" lengthAdjust="spacing" textLength="40" x="449.96" y="862.7285">House</text><line style="stroke:#181818;stroke-width:0.5;" x1="418.46" x2="521.46" y1="868.2422" y2="868.2422"/><text fill="#000000" font-family="sans-serif" font-size="14" lengthAdjust="spacing" textLength="86" x="423.46" y="887.3496">hasBasement</text><text fill="#000000" font-family="sans-serif" font-size="14" lengthAdjust="spacing" textLength="93" x="423.46" y="905.9707">inhabitableLoft</text><text fill="#000000" font-family="sans-serif" font-size="14" lengthAdjust="spacing" textLength="82" x="423.46" y="924.5918">sunExposure</text></g><g id="elem_us"><rect fill="#F1F1F1" height="142.3477" style="stroke:#181818;stroke-width:0.5;" width="131" x="178.46" y="458.6211"/><text fill="#000000" font-family="sans-serif" font-size="14" lengthAdjust="spacing" textLength="29" x="229.46" y="475.7285">User</text><line style="stroke:#181818;stroke-width:0.5;" x1="179.46" x2="308.46" y1="481.2422" y2="481.2422"/><text fill="#000000" font-family="sans-serif" font-size="14" lengthAdjust="spacing" textLength="33" x="184.46" y="500.3496">email</text><text fill="#000000" font-family="sans-serif" font-size="14" lengthAdjust="spacing" textLength="60" x="184.46" y="518.9707">password</text><text fill="#000000" font-family="sans-serif" font-size="14" lengthAdjust="spacing" textLength="35" x="184.46" y="537.5918">name</text><text fill="#000000" font-family="sans-serif" font-size="14" lengthAdjust="spacing" textLength="67" x="184.46" y="556.2129">taxNumber</text><text fill="#000000" font-family="sans-serif" font-size="14" lengthAdjust="spacing" textLength="119" x="184.46" y="574.834">citizenCardNumber</text><text fill="#000000" font-family="sans-serif" font-size="14" lengthAdjust="spacing" textLength="112" x="184.46" y="593.4551">telephoneNumber</text></g><g id="elem_add"><rect fill="#F1F1F1" height="86.4844" style="stroke:#181818;stroke-width:0.5;" width="84" x="201.96" y="689.1211"/><text fill="#000000" font-family="sans-serif" font-size="14" lengthAdjust="spacing" textLength="52" x="217.96" y="706.2285">Address</text><line style="stroke:#181818;stroke-width:0.5;" x1="202.96" x2="284.96" y1="711.7422" y2="711.7422"/><text fill="#000000" font-family="sans-serif" font-size="14" lengthAdjust="spacing" textLength="36" x="207.96" y="730.8496">street</text><text fill="#000000" font-family="sans-serif" font-size="14" lengthAdjust="spacing" textLength="72" x="207.96" y="749.4707">postalCode</text><text fill="#000000" font-family="sans-serif" font-size="14" lengthAdjust="spacing" textLength="21" x="207.96" y="768.0918">city</text></g><g id="elem_res"><rect fill="#F1F1F1" height="105.1055" style="stroke:#181818;stroke-width:0.5;" width="134" x="339.96" y="679.6211"/><text fill="#000000" font-family="sans-serif" font-size="14" lengthAdjust="spacing" textLength="67" x="373.46" y="696.7285">Residence</text><line style="stroke:#181818;stroke-width:0.5;" x1="340.96" x2="472.96" y1="702.2422" y2="702.2422"/><text fill="#000000" font-family="sans-serif" font-size="14" lengthAdjust="spacing" textLength="91" x="345.96" y="721.3496">numBedrooms</text><text fill="#000000" font-family="sans-serif" font-size="14" lengthAdjust="spacing" textLength="95" x="345.96" y="739.9707">numBathrooms</text><text fill="#000000" font-family="sans-serif" font-size="14" lengthAdjust="spacing" textLength="122" x="345.96" y="758.5918">numParkingSpaces</text><text fill="#000000" font-family="sans-serif" font-size="14" lengthAdjust="spacing" textLength="66" x="345.96" y="777.2129">equipment</text></g><g id="elem_emp"><rect fill="#F1F1F1" height="49.2422" style="stroke:#181818;stroke-width:0.5;" width="76" x="183.96" y="330.6211"/><text fill="#000000" font-family="sans-serif" font-size="14" lengthAdjust="spacing" textLength="62" x="190.96" y="347.7285">Employee</text><line style="stroke:#181818;stroke-width:0.5;" x1="184.96" x2="258.96" y1="353.2422" y2="353.2422"/><text fill="#000000" font-family="sans-serif" font-size="14" lengthAdjust="spacing" textLength="46" x="189.96" y="372.3496">agency</text></g><g id="elem_st"><rect fill="#F1F1F1" height="86.4844" style="stroke:#181818;stroke-width:0.5;" width="124" x="18.96" y="486.6211"/><text fill="#000000" font-family="sans-serif" font-size="14" lengthAdjust="spacing" textLength="34" x="63.96" y="503.7285">Store</text><line style="stroke:#181818;stroke-width:0.5;" x1="19.96" x2="141.96" y1="509.2422" y2="509.2422"/><text fill="#000000" font-family="sans-serif" font-size="14" lengthAdjust="spacing" textLength="11" x="24.96" y="528.3496">id</text><text fill="#000000" font-family="sans-serif" font-size="14" lengthAdjust="spacing" textLength="33" x="24.96" y="546.9707">email</text><text fill="#000000" font-family="sans-serif" font-size="14" lengthAdjust="spacing" textLength="112" x="24.96" y="565.5918">telephoneNumber</text></g><g id="elem_comp"><rect fill="#F1F1F1" height="105.1055" style="stroke:#181818;stroke-width:0.5;" width="124" x="43.96" y="46.6211"/><text fill="#000000" font-family="sans-serif" font-size="14" lengthAdjust="spacing" textLength="60" x="75.96" y="63.7285">Company</text><line style="stroke:#181818;stroke-width:0.5;" x1="44.96" x2="166.96" y1="69.2422" y2="69.2422"/><text fill="#000000" font-family="sans-serif" font-size="14" lengthAdjust="spacing" textLength="35" x="49.96" y="88.3496">name</text><text fill="#000000" font-family="sans-serif" font-size="14" lengthAdjust="spacing" textLength="68" x="49.96" y="106.9707">vatNumber</text><text fill="#000000" font-family="sans-serif" font-size="14" lengthAdjust="spacing" textLength="112" x="49.96" y="125.5918">telephoneNumber</text><text fill="#000000" font-family="sans-serif" font-size="14" lengthAdjust="spacing" textLength="33" x="49.96" y="144.2129">email</text></g><g id="elem_land"><rect fill="#F1F1F1" height="38.6211" style="stroke:#181818;stroke-width:0.5;" width="46" x="508.96" y="712.6211"/><text fill="#000000" font-family="sans-serif" font-size="14" lengthAdjust="spacing" textLength="32" x="515.96" y="729.7285">Land</text><line style="stroke:#181818;stroke-width:0.5;" x1="509.96" x2="553.96" y1="735.2422" y2="735.2422"/></g><!--reverse link prop to land--><g id="link_prop_land"><path codeLine="63" d="M463.29,599.9811 C484.19,639.9111 508.9,687.0811 522.23,712.5511 " fill="none" id="prop-backto-land" style="stroke:#181818;stroke-width:1.0;"/><polygon fill="none" points="457.08,603.2211,454,582.2511,469.48,596.7211,457.08,603.2211" style="stroke:#181818;stroke-width:1.0;"/></g><!--reverse link prop to res--><g id="link_prop_res"><path codeLine="64" d="M419.8,602.3711 C417.27,627.7911 414.47,655.8811 412.13,679.3111 " fill="none" id="prop-backto-res" style="stroke:#181818;stroke-width:1.0;"/><polygon fill="none" points="412.86,601.4611,421.81,582.2511,426.79,602.8511,412.86,601.4611" style="stroke:#181818;stroke-width:1.0;"/></g><!--link prop to add--><g id="link_prop_add"><path codeLine="65" d="M379.37,582.1911 C365.07,597.7311 349.35,614.8511 334.96,630.6211 C317.51,649.7411 298.25,670.9911 281.96,689.0011 " fill="none" id="prop-add" style="stroke:#181818;stroke-width:1.0;"/><polygon fill="#000000" points="336.5908,643.961,344.8573,639.2582,340.5143,635.2974,336.5908,643.961" style="stroke:#000000;stroke-width:1.0;"/><text fill="#000000" font-family="sans-serif" font-size="13" lengthAdjust="spacing" textLength="57" x="348.96" y="645.6494">located at</text><text fill="#000000" font-family="sans-serif" font-size="13" lengthAdjust="spacing" textLength="7" x="365.5048" y="604.4382">1</text><text fill="#000000" font-family="sans-serif" font-size="13" lengthAdjust="spacing" textLength="7" x="280.4584" y="677.7871">1</text></g><!--reverse link res to House--><g id="link_res_House"><path codeLine="66" d="M435.84,803.9511 C441.61,818.1111 447.51,832.5611 452.73,845.3811 " fill="none" id="res-backto-House" style="stroke:#181818;stroke-width:1.0;"/><polygon fill="none" points="429.18,806.1611,428.11,785.0011,442.15,800.8711,429.18,806.1611" style="stroke:#181818;stroke-width:1.0;"/></g><!--reverse link res to ap--><g id="link_res_ap"><path codeLine="67" d="M377.81,803.4811 C367.85,827.5311 357.52,852.4811 350.71,868.9011 " fill="none" id="res-backto-ap" style="stroke:#181818;stroke-width:1.0;"/><polygon fill="none" points="371.35,800.7911,385.47,785.0011,384.28,806.1511,371.35,800.7911" style="stroke:#181818;stroke-width:1.0;"/></g><!--link comp to st--><g id="link_comp_st"><path codeLine="68" d="M64.26,151.7011 C52.02,169.8711 40.24,191.1411 33.96,212.6211 C6,308.1711 40.36,425.0911 63.39,486.4311 " fill="none" id="comp-st" style="stroke:#181818;stroke-width:1.0;"/><polygon fill="#000000" points="28.947,296.2666,31.9094,287.2292,26.0316,287.2139,28.947,296.2666" style="stroke:#000000;stroke-width:1.0;"/><text fill="#000000" font-family="sans-serif" font-size="13" lengthAdjust="spacing" textLength="21" x="37.96" y="296.6494">has</text><text fill="#000000" font-family="sans-serif" font-size="13" lengthAdjust="spacing" textLength="7" x="51.4688" y="173.5672">1</text><text fill="#000000" font-family="sans-serif" font-size="13" lengthAdjust="spacing" textLength="5" x="55.1913" y="475.2059">*</text></g><!--link comp to emp--><g id="link_comp_emp"><path codeLine="69" d="M135.14,151.8711 C145.36,170.7511 156.62,192.4311 165.96,212.6211 C184.77,253.2611 203.22,302.1211 213.54,330.4911 " fill="none" id="comp-emp" style="stroke:#181818;stroke-width:1.0;"/><polygon fill="#000000" points="188.9696,236.845,188.0254,227.3814,182.6431,229.7438,188.9696,236.845" style="stroke:#000000;stroke-width:1.0;"/><text fill="#000000" font-family="sans-serif" font-size="13" lengthAdjust="spacing" textLength="21" x="195.96" y="237.6494">has</text><text fill="#000000" font-family="sans-serif" font-size="13" lengthAdjust="spacing" textLength="7" x="131.4303" y="173.759">1</text><text fill="#000000" font-family="sans-serif" font-size="13" lengthAdjust="spacing" textLength="5" x="205.8783" y="319.4499">*</text></g><!--link st to add--><g id="link_st_add"><path codeLine="70" d="M107.94,572.9011 C123.43,596.2211 143.78,625.2911 163.96,649.6211 C175.61,663.6611 189.21,678.1311 201.87,690.9211 " fill="none" id="st-add" style="stroke:#181818;stroke-width:1.0;"/><polygon fill="#000000" points="172.0736,644.1788,168.7405,635.2714,164.1415,638.9317,172.0736,644.1788" style="stroke:#000000;stroke-width:1.0;"/><text fill="#000000" font-family="sans-serif" font-size="13" lengthAdjust="spacing" textLength="57" x="177.96" y="645.6494">located at</text><text fill="#000000" font-family="sans-serif" font-size="13" lengthAdjust="spacing" textLength="7" x="104.6821" y="595.1664">1</text><text fill="#000000" font-family="sans-serif" font-size="13" lengthAdjust="spacing" textLength="7" x="187.0342" y="679.3906">1</text></g><!--link adm to st--><g id="link_adm_st"><path codeLine="71" d="M98.74,252.0511 C95.73,298.9311 87.86,421.3011 83.67,486.4211 " fill="none" id="adm-st" style="stroke:#181818;stroke-width:1.0;"/><polygon fill="#000000" points="98.6392,360.2563,102.1524,351.4184,96.2867,351.0413,98.6392,360.2563" style="stroke:#000000;stroke-width:1.0;"/><text fill="#000000" font-family="sans-serif" font-size="13" lengthAdjust="spacing" textLength="50" x="107.96" y="360.6494">registers</text></g><!--link adm to emp--><g id="link_adm_emp"><path codeLine="72" d="M118.76,251.7611 C135.94,268.8111 161.9,294.5511 183.48,315.9511 " fill="none" id="adm-to-emp" style="stroke:#181818;stroke-width:1.0;"/><polygon fill="none" points="188.62,311.2011,197.89,330.2511,178.76,321.1411,188.62,311.2011" style="stroke:#181818;stroke-width:1.0;"/></g><!--link us to add--><g id="link_us_add"><path codeLine="73" d="M243.96,600.7511 C243.96,630.2211 243.96,663.5211 243.96,689.0911 " fill="none" id="us-add" style="stroke:#181818;stroke-width:1.0;"/><polygon fill="#000000" points="248.96,645.2666,251.8989,636.2215,246.0211,636.2215,248.96,645.2666" style="stroke:#000000;stroke-width:1.0;"/><text fill="#000000" font-family="sans-serif" font-size="13" lengthAdjust="spacing" textLength="21" x="257.96" y="645.6494">has</text><text fill="#000000" font-family="sans-serif" font-size="13" lengthAdjust="spacing" textLength="5" x="238.7022" y="622.9883">*</text><text fill="#000000" font-family="sans-serif" font-size="13" lengthAdjust="spacing" textLength="7" x="236.4022" y="677.8914">1</text></g><!--link emp to us--><g id="link_emp_us"><path codeLine="74" d="M224.97,379.7411 C226.96,395.2911 229.69,416.7111 232.46,438.4711 " fill="none" id="emp-to-us" style="stroke:#181818;stroke-width:1.0;"/><polygon fill="none" points="239.42,437.6711,235,458.3911,225.53,439.4411,239.42,437.6711" style="stroke:#181818;stroke-width:1.0;"/></g><!--link emp to st--><g id="link_emp_st"><path codeLine="75" d="M189.1,379.8511 C178.21,388.5511 166.46,398.9011 156.96,409.6211 C136.23,433.0111 117.3,462.6211 103.51,486.4511 " fill="none" id="emp-st" style="stroke:#181818;stroke-width:1.0;"/><polygon fill="#000000" points="158.8296,423.1654,166.7842,417.9524,162.2009,414.2724,158.8296,423.1654" style="stroke:#000000;stroke-width:1.0;"/><text fill="#000000" font-family="sans-serif" font-size="13" lengthAdjust="spacing" textLength="49" x="170.96" y="424.6494">works at</text><text fill="#000000" font-family="sans-serif" font-size="13" lengthAdjust="spacing" textLength="5" x="175.481" y="401.9852">*</text><text fill="#000000" font-family="sans-serif" font-size="13" lengthAdjust="spacing" textLength="7" x="99.5461" y="475.2291">1</text></g><!--SRC=[VL9TRnCn47pVNs7T2n9I2EKnGfLeA08fGX5LVy3clEHCpnzuzw21zh-pjjFa-a2VpklTcLdFpQj19F5gkKmZ1fdy-AQFVXbtFwYNXNMup-W1nCb8vlRcxSKxip1VV8fPp8Rss1_CHnG4Q0ZJVR3U1SUIKMBk3B91wsVjX5ay1McjTEviSqoKvL0RIGlp5p0JGgQV4x6GtMRN4wGXIjIjqi1WLGX3Jvzoz6idXxKIKuR74-ldE34fqO1yXKn565mOSES4ToDjudS1diBrVOeyPPeXkrkcjl_4Ia0UtGW9cN_7R26W9n2y_phvdGhsJjmV2clCzdWZD99k6kXOFyuTifcOZzvO9LUtY0Hq1y5n7IqLmiCSyutOMTANLfJ25HKcVqKsn-Yvdb66Kx75VEV2_YPXJmnge4lrxJFAQv_6UA36IBxQlLU9Pxet-XFR18iEE7iqueNdhQDF6Dflr2WLtkhMBvJ_UDCePnGR3BRYDP8Me8RX_SDYqUfpgJwqghleZDRbKnnTcJ7sg8anAEOIYbrrlgRXN6hwwe8LRRhNNNdaocXM57JkB5glMFJKrBcN9JNpfLlvCkqrffJvTFzmMTX0WrM8dx4q_g9LnoQkvzbOfTGCtd5JWdy0]--></g></svg>