<?xml version="1.0" encoding="us-ascii" standalone="no"?><svg xmlns="http://www.w3.org/2000/svg" xmlns:xlink="http://www.w3.org/1999/xlink" contentStyleType="text/css" height="906px" preserveAspectRatio="none" style="width:1062px;height:906px;background:#FFFFFF;" version="1.1" viewBox="0 0 1062 906" width="1062px" zoomAndPan="magnify"><defs/><g><!--class CreatePropertySaleRequestController--><g id="elem_CreatePropertySaleRequestController"><rect codeLine="4" fill="#F1F1F1" height="103.8633" id="CreatePropertySaleRequestController" rx="2.5" ry="2.5" style="stroke:#181818;stroke-width:0.5;" width="272" x="310" y="7"/><ellipse cx="325" cy="23" fill="#ADD1B2" rx="11" ry="11" style="stroke:#181818;stroke-width:1.0;"/><path d="M327.7656,18.875 Q327.9219,18.6563 328.1094,18.5469 Q328.2969,18.4375 328.5156,18.4375 Q328.8906,18.4375 329.125,18.7031 Q329.3594,18.9531 329.3594,19.5625 L329.3594,21.0156 Q329.3594,21.625 329.125,21.8906 Q328.8906,22.1563 328.5156,22.1563 Q328.1719,22.1563 327.9688,21.9531 Q327.7656,21.7656 327.6563,21.25 Q327.6094,20.8906 327.4219,20.7031 Q327.0938,20.3281 326.4844,20.1094 Q325.875,19.8906 325.25,19.8906 Q324.4844,19.8906 323.8438,20.2188 Q323.2188,20.5469 322.7188,21.2969 Q322.2344,22.0469 322.2344,23.0781 L322.2344,24.1719 Q322.2344,25.4063 323.125,26.2344 Q324.0156,27.0469 325.6094,27.0469 Q326.5469,27.0469 327.2031,26.7969 Q327.5938,26.6406 328.0156,26.2031 Q328.2813,25.9375 328.4219,25.8594 Q328.5781,25.7813 328.7813,25.7813 Q329.1094,25.7813 329.3594,26.0469 Q329.625,26.2969 329.625,26.6406 Q329.625,26.9844 329.2813,27.3906 Q328.7813,27.9688 327.9844,28.2969 Q326.9063,28.75 325.6094,28.75 Q324.0938,28.75 322.8906,28.125 Q321.9063,27.625 321.2188,26.5625 Q320.5313,25.4844 320.5313,24.2031 L320.5313,23.0469 Q320.5313,21.7188 321.1406,20.5781 Q321.7656,19.4219 322.8594,18.8125 Q323.9531,18.1875 325.1875,18.1875 Q325.9219,18.1875 326.5625,18.3594 Q327.2188,18.5156 327.7656,18.875 Z " fill="#000000"/><text fill="#000000" font-family="sans-serif" font-size="14" lengthAdjust="spacing" textLength="240" x="339" y="28.7969">CreatePropertySaleRequestController</text><line style="stroke:#181818;stroke-width:0.5;" x1="311" x2="581" y1="39" y2="39"/><line style="stroke:#181818;stroke-width:0.5;" x1="311" x2="581" y1="47" y2="47"/><ellipse cx="321" cy="61.8105" fill="#84BE84" rx="3" ry="3" style="stroke:#038048;stroke-width:1.0;"/><text fill="#000000" font-family="sans-serif" font-size="14" lengthAdjust="spacing" textLength="70" x="330" y="66.1074">getStates()</text><ellipse cx="321" cy="80.4316" fill="#84BE84" rx="3" ry="3" style="stroke:#038048;stroke-width:1.0;"/><text fill="#000000" font-family="sans-serif" font-size="14" lengthAdjust="spacing" textLength="113" x="330" y="84.7285">getDistricts(State)</text><ellipse cx="321" cy="99.0527" fill="#84BE84" rx="3" ry="3" style="stroke:#038048;stroke-width:1.0;"/><text fill="#000000" font-family="sans-serif" font-size="14" lengthAdjust="spacing" textLength="108" x="330" y="103.3496">getCities(District)</text></g><!--class CreatePropertySaleRequestUI--><g id="elem_CreatePropertySaleRequestUI"><rect codeLine="10" fill="#F1F1F1" height="48" id="CreatePropertySaleRequestUI" rx="2.5" ry="2.5" style="stroke:#181818;stroke-width:0.5;" width="222" x="53" y="35"/><ellipse cx="68" cy="51" fill="#ADD1B2" rx="11" ry="11" style="stroke:#181818;stroke-width:1.0;"/><path d="M70.7656,46.875 Q70.9219,46.6563 71.1094,46.5469 Q71.2969,46.4375 71.5156,46.4375 Q71.8906,46.4375 72.125,46.7031 Q72.3594,46.9531 72.3594,47.5625 L72.3594,49.0156 Q72.3594,49.625 72.125,49.8906 Q71.8906,50.1563 71.5156,50.1563 Q71.1719,50.1563 70.9688,49.9531 Q70.7656,49.7656 70.6563,49.25 Q70.6094,48.8906 70.4219,48.7031 Q70.0938,48.3281 69.4844,48.1094 Q68.875,47.8906 68.25,47.8906 Q67.4844,47.8906 66.8438,48.2188 Q66.2188,48.5469 65.7188,49.2969 Q65.2344,50.0469 65.2344,51.0781 L65.2344,52.1719 Q65.2344,53.4063 66.125,54.2344 Q67.0156,55.0469 68.6094,55.0469 Q69.5469,55.0469 70.2031,54.7969 Q70.5938,54.6406 71.0156,54.2031 Q71.2813,53.9375 71.4219,53.8594 Q71.5781,53.7813 71.7813,53.7813 Q72.1094,53.7813 72.3594,54.0469 Q72.625,54.2969 72.625,54.6406 Q72.625,54.9844 72.2813,55.3906 Q71.7813,55.9688 70.9844,56.2969 Q69.9063,56.75 68.6094,56.75 Q67.0938,56.75 65.8906,56.125 Q64.9063,55.625 64.2188,54.5625 Q63.5313,53.4844 63.5313,52.2031 L63.5313,51.0469 Q63.5313,49.7188 64.1406,48.5781 Q64.7656,47.4219 65.8594,46.8125 Q66.9531,46.1875 68.1875,46.1875 Q68.9219,46.1875 69.5625,46.3594 Q70.2188,46.5156 70.7656,46.875 Z " fill="#000000"/><text fill="#000000" font-family="sans-serif" font-size="14" lengthAdjust="spacing" textLength="190" x="82" y="56.7969">CreatePropertySaleRequestUI</text><line style="stroke:#181818;stroke-width:0.5;" x1="54" x2="274" y1="67" y2="67"/><line style="stroke:#181818;stroke-width:0.5;" x1="54" x2="274" y1="75" y2="75"/></g><!--class Repositories--><g id="elem_Repositories"><rect codeLine="13" fill="#F1F1F1" height="103.8633" id="Repositories" rx="2.5" ry="2.5" style="stroke:#181818;stroke-width:0.5;" width="270" x="476" y="190"/><ellipse cx="567.25" cy="206" fill="#ADD1B2" rx="11" ry="11" style="stroke:#181818;stroke-width:1.0;"/><path d="M570.0156,201.875 Q570.1719,201.6563 570.3594,201.5469 Q570.5469,201.4375 570.7656,201.4375 Q571.1406,201.4375 571.375,201.7031 Q571.6094,201.9531 571.6094,202.5625 L571.6094,204.0156 Q571.6094,204.625 571.375,204.8906 Q571.1406,205.1563 570.7656,205.1563 Q570.4219,205.1563 570.2188,204.9531 Q570.0156,204.7656 569.9063,204.25 Q569.8594,203.8906 569.6719,203.7031 Q569.3438,203.3281 568.7344,203.1094 Q568.125,202.8906 567.5,202.8906 Q566.7344,202.8906 566.0938,203.2188 Q565.4688,203.5469 564.9688,204.2969 Q564.4844,205.0469 564.4844,206.0781 L564.4844,207.1719 Q564.4844,208.4063 565.375,209.2344 Q566.2656,210.0469 567.8594,210.0469 Q568.7969,210.0469 569.4531,209.7969 Q569.8438,209.6406 570.2656,209.2031 Q570.5313,208.9375 570.6719,208.8594 Q570.8281,208.7813 571.0313,208.7813 Q571.3594,208.7813 571.6094,209.0469 Q571.875,209.2969 571.875,209.6406 Q571.875,209.9844 571.5313,210.3906 Q571.0313,210.9688 570.2344,211.2969 Q569.1563,211.75 567.8594,211.75 Q566.3438,211.75 565.1406,211.125 Q564.1563,210.625 563.4688,209.5625 Q562.7813,208.4844 562.7813,207.2031 L562.7813,206.0469 Q562.7813,204.7188 563.3906,203.5781 Q564.0156,202.4219 565.1094,201.8125 Q566.2031,201.1875 567.4375,201.1875 Q568.1719,201.1875 568.8125,201.3594 Q569.4688,201.5156 570.0156,201.875 Z " fill="#000000"/><text fill="#000000" font-family="sans-serif" font-size="14" lengthAdjust="spacing" textLength="79" x="587.75" y="211.7969">Repositories</text><line style="stroke:#181818;stroke-width:0.5;" x1="477" x2="745" y1="222" y2="222"/><line style="stroke:#181818;stroke-width:0.5;" x1="477" x2="745" y1="230" y2="230"/><ellipse cx="487" cy="244.8105" fill="#84BE84" rx="3" ry="3" style="stroke:#038048;stroke-width:1.0;"/><text fill="#000000" font-family="sans-serif" font-size="14" lengthAdjust="spacing" textLength="83" x="496" y="249.1074">getInstance()</text><ellipse cx="487" cy="263.4316" fill="#84BE84" rx="3" ry="3" style="stroke:#038048;stroke-width:1.0;"/><text fill="#000000" font-family="sans-serif" font-size="14" lengthAdjust="spacing" textLength="163" x="496" y="267.7285">getLocationRepositories()</text><ellipse cx="487" cy="282.0527" fill="#84BE84" rx="3" ry="3" style="stroke:#038048;stroke-width:1.0;"/><text fill="#000000" font-family="sans-serif" font-size="14" lengthAdjust="spacing" textLength="244" x="496" y="286.3496">getPropertySaleRequestRepositories()</text></g><!--class PropertySaleRequestRepositories--><g id="elem_PropertySaleRequestRepositories"><rect codeLine="19" fill="#F1F1F1" height="122.4844" id="PropertySaleRequestRepositories" rx="2.5" ry="2.5" style="stroke:#181818;stroke-width:0.5;" width="344" x="711" y="402"/><ellipse cx="771.75" cy="418" fill="#ADD1B2" rx="11" ry="11" style="stroke:#181818;stroke-width:1.0;"/><path d="M774.5156,413.875 Q774.6719,413.6563 774.8594,413.5469 Q775.0469,413.4375 775.2656,413.4375 Q775.6406,413.4375 775.875,413.7031 Q776.1094,413.9531 776.1094,414.5625 L776.1094,416.0156 Q776.1094,416.625 775.875,416.8906 Q775.6406,417.1563 775.2656,417.1563 Q774.9219,417.1563 774.7188,416.9531 Q774.5156,416.7656 774.4063,416.25 Q774.3594,415.8906 774.1719,415.7031 Q773.8438,415.3281 773.2344,415.1094 Q772.625,414.8906 772,414.8906 Q771.2344,414.8906 770.5938,415.2188 Q769.9688,415.5469 769.4688,416.2969 Q768.9844,417.0469 768.9844,418.0781 L768.9844,419.1719 Q768.9844,420.4063 769.875,421.2344 Q770.7656,422.0469 772.3594,422.0469 Q773.2969,422.0469 773.9531,421.7969 Q774.3438,421.6406 774.7656,421.2031 Q775.0313,420.9375 775.1719,420.8594 Q775.3281,420.7813 775.5313,420.7813 Q775.8594,420.7813 776.1094,421.0469 Q776.375,421.2969 776.375,421.6406 Q776.375,421.9844 776.0313,422.3906 Q775.5313,422.9688 774.7344,423.2969 Q773.6563,423.75 772.3594,423.75 Q770.8438,423.75 769.6406,423.125 Q768.6563,422.625 767.9688,421.5625 Q767.2813,420.4844 767.2813,419.2031 L767.2813,418.0469 Q767.2813,416.7188 767.8906,415.5781 Q768.5156,414.4219 769.6094,413.8125 Q770.7031,413.1875 771.9375,413.1875 Q772.6719,413.1875 773.3125,413.3594 Q773.9688,413.5156 774.5156,413.875 Z " fill="#000000"/><text fill="#000000" font-family="sans-serif" font-size="14" lengthAdjust="spacing" textLength="214" x="792.25" y="423.7969">PropertySaleRequestRepositories</text><line style="stroke:#181818;stroke-width:0.5;" x1="712" x2="1054" y1="434" y2="434"/><line style="stroke:#181818;stroke-width:0.5;" x1="712" x2="1054" y1="442" y2="442"/><ellipse cx="722" cy="456.8105" fill="#84BE84" rx="3" ry="3" style="stroke:#038048;stroke-width:1.0;"/><text fill="#000000" font-family="sans-serif" font-size="14" lengthAdjust="spacing" textLength="210" x="731" y="461.1074">createSalesResquest(Input Data)</text><ellipse cx="722" cy="475.4316" fill="#84BE84" rx="3" ry="3" style="stroke:#038048;stroke-width:1.0;"/><text fill="#000000" font-family="sans-serif" font-size="14" lengthAdjust="spacing" textLength="318" x="731" y="479.7285">addPropertySalesRequest(PropertySalesRequest)</text><ellipse cx="722" cy="494.0527" fill="#84BE84" rx="3" ry="3" style="stroke:#038048;stroke-width:1.0;"/><text fill="#000000" font-family="sans-serif" font-size="14" lengthAdjust="spacing" textLength="193" x="731" y="498.3496">isValid(PropertySalesRequest)</text><ellipse cx="722" cy="512.6738" fill="#84BE84" rx="3" ry="3" style="stroke:#038048;stroke-width:1.0;"/><text fill="#000000" font-family="sans-serif" font-size="14" lengthAdjust="spacing" textLength="194" x="731" y="516.9707">equals(PropertySalesRequest)</text></g><!--class LocationRepositories--><g id="elem_LocationRepositories"><rect codeLine="26" fill="#F1F1F1" height="66.6211" id="LocationRepositories" rx="2.5" ry="2.5" style="stroke:#181818;stroke-width:0.5;" width="165" x="102.5" y="429.5"/><ellipse cx="117.5" cy="445.5" fill="#ADD1B2" rx="11" ry="11" style="stroke:#181818;stroke-width:1.0;"/><path d="M120.2656,441.375 Q120.4219,441.1563 120.6094,441.0469 Q120.7969,440.9375 121.0156,440.9375 Q121.3906,440.9375 121.625,441.2031 Q121.8594,441.4531 121.8594,442.0625 L121.8594,443.5156 Q121.8594,444.125 121.625,444.3906 Q121.3906,444.6563 121.0156,444.6563 Q120.6719,444.6563 120.4688,444.4531 Q120.2656,444.2656 120.1563,443.75 Q120.1094,443.3906 119.9219,443.2031 Q119.5938,442.8281 118.9844,442.6094 Q118.375,442.3906 117.75,442.3906 Q116.9844,442.3906 116.3438,442.7188 Q115.7188,443.0469 115.2188,443.7969 Q114.7344,444.5469 114.7344,445.5781 L114.7344,446.6719 Q114.7344,447.9063 115.625,448.7344 Q116.5156,449.5469 118.1094,449.5469 Q119.0469,449.5469 119.7031,449.2969 Q120.0938,449.1406 120.5156,448.7031 Q120.7813,448.4375 120.9219,448.3594 Q121.0781,448.2813 121.2813,448.2813 Q121.6094,448.2813 121.8594,448.5469 Q122.125,448.7969 122.125,449.1406 Q122.125,449.4844 121.7813,449.8906 Q121.2813,450.4688 120.4844,450.7969 Q119.4063,451.25 118.1094,451.25 Q116.5938,451.25 115.3906,450.625 Q114.4063,450.125 113.7188,449.0625 Q113.0313,447.9844 113.0313,446.7031 L113.0313,445.5469 Q113.0313,444.2188 113.6406,443.0781 Q114.2656,441.9219 115.3594,441.3125 Q116.4531,440.6875 117.6875,440.6875 Q118.4219,440.6875 119.0625,440.8594 Q119.7188,441.0156 120.2656,441.375 Z " fill="#000000"/><text fill="#000000" font-family="sans-serif" font-size="14" lengthAdjust="spacing" textLength="133" x="131.5" y="451.2969">LocationRepositories</text><line style="stroke:#181818;stroke-width:0.5;" x1="103.5" x2="266.5" y1="461.5" y2="461.5"/><line style="stroke:#181818;stroke-width:0.5;" x1="103.5" x2="266.5" y1="469.5" y2="469.5"/><ellipse cx="113.5" cy="484.3105" fill="#84BE84" rx="3" ry="3" style="stroke:#038048;stroke-width:1.0;"/><text fill="#000000" font-family="sans-serif" font-size="14" lengthAdjust="spacing" textLength="70" x="122.5" y="488.6074">getStates()</text></g><!--class PropertySaleRequest--><g id="elem_PropertySaleRequest"><rect codeLine="30" fill="#F1F1F1" height="215.5898" id="PropertySaleRequest" rx="2.5" ry="2.5" style="stroke:#181818;stroke-width:0.5;" width="167" x="508.5" y="355"/><ellipse cx="523.5" cy="371" fill="#ADD1B2" rx="11" ry="11" style="stroke:#181818;stroke-width:1.0;"/><path d="M526.2656,366.875 Q526.4219,366.6563 526.6094,366.5469 Q526.7969,366.4375 527.0156,366.4375 Q527.3906,366.4375 527.625,366.7031 Q527.8594,366.9531 527.8594,367.5625 L527.8594,369.0156 Q527.8594,369.625 527.625,369.8906 Q527.3906,370.1563 527.0156,370.1563 Q526.6719,370.1563 526.4688,369.9531 Q526.2656,369.7656 526.1563,369.25 Q526.1094,368.8906 525.9219,368.7031 Q525.5938,368.3281 524.9844,368.1094 Q524.375,367.8906 523.75,367.8906 Q522.9844,367.8906 522.3438,368.2188 Q521.7188,368.5469 521.2188,369.2969 Q520.7344,370.0469 520.7344,371.0781 L520.7344,372.1719 Q520.7344,373.4063 521.625,374.2344 Q522.5156,375.0469 524.1094,375.0469 Q525.0469,375.0469 525.7031,374.7969 Q526.0938,374.6406 526.5156,374.2031 Q526.7813,373.9375 526.9219,373.8594 Q527.0781,373.7813 527.2813,373.7813 Q527.6094,373.7813 527.8594,374.0469 Q528.125,374.2969 528.125,374.6406 Q528.125,374.9844 527.7813,375.3906 Q527.2813,375.9688 526.4844,376.2969 Q525.4063,376.75 524.1094,376.75 Q522.5938,376.75 521.3906,376.125 Q520.4063,375.625 519.7188,374.5625 Q519.0313,373.4844 519.0313,372.2031 L519.0313,371.0469 Q519.0313,369.7188 519.6406,368.5781 Q520.2656,367.4219 521.3594,366.8125 Q522.4531,366.1875 523.6875,366.1875 Q524.4219,366.1875 525.0625,366.3594 Q525.7188,366.5156 526.2656,366.875 Z " fill="#000000"/><text fill="#000000" font-family="sans-serif" font-size="14" lengthAdjust="spacing" textLength="135" x="537.5" y="376.7969">PropertySaleRequest</text><line style="stroke:#181818;stroke-width:0.5;" x1="509.5" x2="674.5" y1="387" y2="387"/><rect fill="none" height="6" style="stroke:#C82930;stroke-width:1.0;" width="6" x="516.5" y="398.8105"/><text fill="#000000" font-family="sans-serif" font-size="14" lengthAdjust="spacing" textLength="54" x="528.5" y="406.1074">Property</text><rect fill="none" height="6" style="stroke:#C82930;stroke-width:1.0;" width="6" x="516.5" y="417.4316"/><text fill="#000000" font-family="sans-serif" font-size="14" lengthAdjust="spacing" textLength="41" x="528.5" y="424.7285">Owner</text><rect fill="none" height="6" style="stroke:#C82930;stroke-width:1.0;" width="6" x="516.5" y="436.0527"/><text fill="#000000" font-family="sans-serif" font-size="14" lengthAdjust="spacing" textLength="37" x="528.5" y="443.3496">Agent</text><rect fill="none" height="6" style="stroke:#C82930;stroke-width:1.0;" width="6" x="516.5" y="454.6738"/><text fill="#000000" font-family="sans-serif" font-size="14" lengthAdjust="spacing" textLength="43" x="528.5" y="461.9707">adress</text><rect fill="none" height="6" style="stroke:#C82930;stroke-width:1.0;" width="6" x="516.5" y="473.2949"/><text fill="#000000" font-family="sans-serif" font-size="14" lengthAdjust="spacing" textLength="31" x="528.5" y="480.5918">state</text><rect fill="none" height="6" style="stroke:#C82930;stroke-width:1.0;" width="6" x="516.5" y="491.916"/><text fill="#000000" font-family="sans-serif" font-size="14" lengthAdjust="spacing" textLength="41" x="528.5" y="499.2129">district</text><rect fill="none" height="6" style="stroke:#C82930;stroke-width:1.0;" width="6" x="516.5" y="510.5371"/><text fill="#000000" font-family="sans-serif" font-size="14" lengthAdjust="spacing" textLength="21" x="528.5" y="517.834">city</text><rect fill="none" height="6" style="stroke:#C82930;stroke-width:1.0;" width="6" x="516.5" y="529.1582"/><text fill="#000000" font-family="sans-serif" font-size="14" lengthAdjust="spacing" textLength="96" x="528.5" y="536.4551">requestedPrice</text><line style="stroke:#181818;stroke-width:0.5;" x1="509.5" x2="674.5" y1="543.9688" y2="543.9688"/><ellipse cx="519.5" cy="558.7793" fill="#84BE84" rx="3" ry="3" style="stroke:#038048;stroke-width:1.0;"/><text fill="#000000" font-family="sans-serif" font-size="14" lengthAdjust="spacing" textLength="50" x="528.5" y="563.0762">create()</text></g><!--class State--><g id="elem_State"><rect codeLine="42" fill="#F1F1F1" height="66.6211" id="State" rx="2.5" ry="2.5" style="stroke:#181818;stroke-width:0.5;" width="106" x="7" y="641"/><ellipse cx="40.45" cy="657" fill="#ADD1B2" rx="11" ry="11" style="stroke:#181818;stroke-width:1.0;"/><path d="M43.2156,652.875 Q43.3719,652.6563 43.5594,652.5469 Q43.7469,652.4375 43.9656,652.4375 Q44.3406,652.4375 44.575,652.7031 Q44.8094,652.9531 44.8094,653.5625 L44.8094,655.0156 Q44.8094,655.625 44.575,655.8906 Q44.3406,656.1563 43.9656,656.1563 Q43.6219,656.1563 43.4188,655.9531 Q43.2156,655.7656 43.1063,655.25 Q43.0594,654.8906 42.8719,654.7031 Q42.5438,654.3281 41.9344,654.1094 Q41.325,653.8906 40.7,653.8906 Q39.9344,653.8906 39.2938,654.2188 Q38.6688,654.5469 38.1688,655.2969 Q37.6844,656.0469 37.6844,657.0781 L37.6844,658.1719 Q37.6844,659.4063 38.575,660.2344 Q39.4656,661.0469 41.0594,661.0469 Q41.9969,661.0469 42.6531,660.7969 Q43.0438,660.6406 43.4656,660.2031 Q43.7313,659.9375 43.8719,659.8594 Q44.0281,659.7813 44.2313,659.7813 Q44.5594,659.7813 44.8094,660.0469 Q45.075,660.2969 45.075,660.6406 Q45.075,660.9844 44.7313,661.3906 Q44.2313,661.9688 43.4344,662.2969 Q42.3563,662.75 41.0594,662.75 Q39.5438,662.75 38.3406,662.125 Q37.3563,661.625 36.6688,660.5625 Q35.9813,659.4844 35.9813,658.2031 L35.9813,657.0469 Q35.9813,655.7188 36.5906,654.5781 Q37.2156,653.4219 38.3094,652.8125 Q39.4031,652.1875 40.6375,652.1875 Q41.3719,652.1875 42.0125,652.3594 Q42.6688,652.5156 43.2156,652.875 Z " fill="#000000"/><text fill="#000000" font-family="sans-serif" font-size="14" lengthAdjust="spacing" textLength="33" x="58.55" y="662.7969">State</text><line style="stroke:#181818;stroke-width:0.5;" x1="8" x2="112" y1="673" y2="673"/><line style="stroke:#181818;stroke-width:0.5;" x1="8" x2="112" y1="681" y2="681"/><ellipse cx="18" cy="695.8105" fill="#84BE84" rx="3" ry="3" style="stroke:#038048;stroke-width:1.0;"/><text fill="#000000" font-family="sans-serif" font-size="14" lengthAdjust="spacing" textLength="80" x="27" y="700.1074">getDistricts()</text></g><!--class District--><g id="elem_District"><rect codeLine="45" fill="#F1F1F1" height="66.6211" id="District" rx="2.5" ry="2.5" style="stroke:#181818;stroke-width:0.5;" width="91" x="148.5" y="641"/><ellipse cx="170.7" cy="657" fill="#ADD1B2" rx="11" ry="11" style="stroke:#181818;stroke-width:1.0;"/><path d="M173.4656,652.875 Q173.6219,652.6563 173.8094,652.5469 Q173.9969,652.4375 174.2156,652.4375 Q174.5906,652.4375 174.825,652.7031 Q175.0594,652.9531 175.0594,653.5625 L175.0594,655.0156 Q175.0594,655.625 174.825,655.8906 Q174.5906,656.1563 174.2156,656.1563 Q173.8719,656.1563 173.6688,655.9531 Q173.4656,655.7656 173.3563,655.25 Q173.3094,654.8906 173.1219,654.7031 Q172.7938,654.3281 172.1844,654.1094 Q171.575,653.8906 170.95,653.8906 Q170.1844,653.8906 169.5438,654.2188 Q168.9188,654.5469 168.4188,655.2969 Q167.9344,656.0469 167.9344,657.0781 L167.9344,658.1719 Q167.9344,659.4063 168.825,660.2344 Q169.7156,661.0469 171.3094,661.0469 Q172.2469,661.0469 172.9031,660.7969 Q173.2938,660.6406 173.7156,660.2031 Q173.9813,659.9375 174.1219,659.8594 Q174.2781,659.7813 174.4813,659.7813 Q174.8094,659.7813 175.0594,660.0469 Q175.325,660.2969 175.325,660.6406 Q175.325,660.9844 174.9813,661.3906 Q174.4813,661.9688 173.6844,662.2969 Q172.6063,662.75 171.3094,662.75 Q169.7938,662.75 168.5906,662.125 Q167.6063,661.625 166.9188,660.5625 Q166.2313,659.4844 166.2313,658.2031 L166.2313,657.0469 Q166.2313,655.7188 166.8406,654.5781 Q167.4656,653.4219 168.5594,652.8125 Q169.6531,652.1875 170.8875,652.1875 Q171.6219,652.1875 172.2625,652.3594 Q172.9188,652.5156 173.4656,652.875 Z " fill="#000000"/><text fill="#000000" font-family="sans-serif" font-size="14" lengthAdjust="spacing" textLength="43" x="186.3" y="662.7969">District</text><line style="stroke:#181818;stroke-width:0.5;" x1="149.5" x2="238.5" y1="673" y2="673"/><line style="stroke:#181818;stroke-width:0.5;" x1="149.5" x2="238.5" y1="681" y2="681"/><ellipse cx="159.5" cy="695.8105" fill="#84BE84" rx="3" ry="3" style="stroke:#038048;stroke-width:1.0;"/><text fill="#000000" font-family="sans-serif" font-size="14" lengthAdjust="spacing" textLength="65" x="168.5" y="700.1074">getCities()</text></g><!--class City--><g id="elem_City"><rect codeLine="48" fill="#F1F1F1" height="48" id="City" rx="2.5" ry="2.5" style="stroke:#181818;stroke-width:0.5;" width="56" x="275" y="650.5"/><ellipse cx="290" cy="666.5" fill="#ADD1B2" rx="11" ry="11" style="stroke:#181818;stroke-width:1.0;"/><path d="M292.7656,662.375 Q292.9219,662.1563 293.1094,662.0469 Q293.2969,661.9375 293.5156,661.9375 Q293.8906,661.9375 294.125,662.2031 Q294.3594,662.4531 294.3594,663.0625 L294.3594,664.5156 Q294.3594,665.125 294.125,665.3906 Q293.8906,665.6563 293.5156,665.6563 Q293.1719,665.6563 292.9688,665.4531 Q292.7656,665.2656 292.6563,664.75 Q292.6094,664.3906 292.4219,664.2031 Q292.0938,663.8281 291.4844,663.6094 Q290.875,663.3906 290.25,663.3906 Q289.4844,663.3906 288.8438,663.7188 Q288.2188,664.0469 287.7188,664.7969 Q287.2344,665.5469 287.2344,666.5781 L287.2344,667.6719 Q287.2344,668.9063 288.125,669.7344 Q289.0156,670.5469 290.6094,670.5469 Q291.5469,670.5469 292.2031,670.2969 Q292.5938,670.1406 293.0156,669.7031 Q293.2813,669.4375 293.4219,669.3594 Q293.5781,669.2813 293.7813,669.2813 Q294.1094,669.2813 294.3594,669.5469 Q294.625,669.7969 294.625,670.1406 Q294.625,670.4844 294.2813,670.8906 Q293.7813,671.4688 292.9844,671.7969 Q291.9063,672.25 290.6094,672.25 Q289.0938,672.25 287.8906,671.625 Q286.9063,671.125 286.2188,670.0625 Q285.5313,668.9844 285.5313,667.7031 L285.5313,666.5469 Q285.5313,665.2188 286.1406,664.0781 Q286.7656,662.9219 287.8594,662.3125 Q288.9531,661.6875 290.1875,661.6875 Q290.9219,661.6875 291.5625,661.8594 Q292.2188,662.0156 292.7656,662.375 Z " fill="#000000"/><text fill="#000000" font-family="sans-serif" font-size="14" lengthAdjust="spacing" textLength="24" x="304" y="672.2969">City</text><line style="stroke:#181818;stroke-width:0.5;" x1="276" x2="330" y1="682.5" y2="682.5"/><line style="stroke:#181818;stroke-width:0.5;" x1="276" x2="330" y1="690.5" y2="690.5"/></g><!--class BranchesRepositories--><g id="elem_BranchesRepositories"><rect codeLine="51" fill="#F1F1F1" height="85.2422" id="BranchesRepositories" rx="2.5" ry="2.5" style="stroke:#181818;stroke-width:0.5;" width="171" x="302.5" y="420.5"/><ellipse cx="317.5" cy="436.5" fill="#ADD1B2" rx="11" ry="11" style="stroke:#181818;stroke-width:1.0;"/><path d="M320.2656,432.375 Q320.4219,432.1563 320.6094,432.0469 Q320.7969,431.9375 321.0156,431.9375 Q321.3906,431.9375 321.625,432.2031 Q321.8594,432.4531 321.8594,433.0625 L321.8594,434.5156 Q321.8594,435.125 321.625,435.3906 Q321.3906,435.6563 321.0156,435.6563 Q320.6719,435.6563 320.4688,435.4531 Q320.2656,435.2656 320.1563,434.75 Q320.1094,434.3906 319.9219,434.2031 Q319.5938,433.8281 318.9844,433.6094 Q318.375,433.3906 317.75,433.3906 Q316.9844,433.3906 316.3438,433.7188 Q315.7188,434.0469 315.2188,434.7969 Q314.7344,435.5469 314.7344,436.5781 L314.7344,437.6719 Q314.7344,438.9063 315.625,439.7344 Q316.5156,440.5469 318.1094,440.5469 Q319.0469,440.5469 319.7031,440.2969 Q320.0938,440.1406 320.5156,439.7031 Q320.7813,439.4375 320.9219,439.3594 Q321.0781,439.2813 321.2813,439.2813 Q321.6094,439.2813 321.8594,439.5469 Q322.125,439.7969 322.125,440.1406 Q322.125,440.4844 321.7813,440.8906 Q321.2813,441.4688 320.4844,441.7969 Q319.4063,442.25 318.1094,442.25 Q316.5938,442.25 315.3906,441.625 Q314.4063,441.125 313.7188,440.0625 Q313.0313,438.9844 313.0313,437.7031 L313.0313,436.5469 Q313.0313,435.2188 313.6406,434.0781 Q314.2656,432.9219 315.3594,432.3125 Q316.4531,431.6875 317.6875,431.6875 Q318.4219,431.6875 319.0625,431.8594 Q319.7188,432.0156 320.2656,432.375 Z " fill="#000000"/><text fill="#000000" font-family="sans-serif" font-size="14" lengthAdjust="spacing" textLength="139" x="331.5" y="442.2969">BranchesRepositories</text><line style="stroke:#181818;stroke-width:0.5;" x1="303.5" x2="472.5" y1="452.5" y2="452.5"/><line style="stroke:#181818;stroke-width:0.5;" x1="303.5" x2="472.5" y1="460.5" y2="460.5"/><ellipse cx="313.5" cy="475.3105" fill="#84BE84" rx="3" ry="3" style="stroke:#038048;stroke-width:1.0;"/><text fill="#000000" font-family="sans-serif" font-size="14" lengthAdjust="spacing" textLength="118" x="322.5" y="479.6074">getAgents(branch)</text><ellipse cx="313.5" cy="493.9316" fill="#84BE84" rx="3" ry="3" style="stroke:#038048;stroke-width:1.0;"/><text fill="#000000" font-family="sans-serif" font-size="14" lengthAdjust="spacing" textLength="90" x="322.5" y="498.2285">getBranches()</text></g><!--class Branch--><g id="elem_Branch"><rect codeLine="55" fill="#F1F1F1" height="66.6211" id="Branch" rx="2.5" ry="2.5" style="stroke:#181818;stroke-width:0.5;" width="127" x="366.5" y="641"/><ellipse cx="404" cy="657" fill="#ADD1B2" rx="11" ry="11" style="stroke:#181818;stroke-width:1.0;"/><path d="M406.7656,652.875 Q406.9219,652.6563 407.1094,652.5469 Q407.2969,652.4375 407.5156,652.4375 Q407.8906,652.4375 408.125,652.7031 Q408.3594,652.9531 408.3594,653.5625 L408.3594,655.0156 Q408.3594,655.625 408.125,655.8906 Q407.8906,656.1563 407.5156,656.1563 Q407.1719,656.1563 406.9688,655.9531 Q406.7656,655.7656 406.6563,655.25 Q406.6094,654.8906 406.4219,654.7031 Q406.0938,654.3281 405.4844,654.1094 Q404.875,653.8906 404.25,653.8906 Q403.4844,653.8906 402.8438,654.2188 Q402.2188,654.5469 401.7188,655.2969 Q401.2344,656.0469 401.2344,657.0781 L401.2344,658.1719 Q401.2344,659.4063 402.125,660.2344 Q403.0156,661.0469 404.6094,661.0469 Q405.5469,661.0469 406.2031,660.7969 Q406.5938,660.6406 407.0156,660.2031 Q407.2813,659.9375 407.4219,659.8594 Q407.5781,659.7813 407.7813,659.7813 Q408.1094,659.7813 408.3594,660.0469 Q408.625,660.2969 408.625,660.6406 Q408.625,660.9844 408.2813,661.3906 Q407.7813,661.9688 406.9844,662.2969 Q405.9063,662.75 404.6094,662.75 Q403.0938,662.75 401.8906,662.125 Q400.9063,661.625 400.2188,660.5625 Q399.5313,659.4844 399.5313,658.2031 L399.5313,657.0469 Q399.5313,655.7188 400.1406,654.5781 Q400.7656,653.4219 401.8594,652.8125 Q402.9531,652.1875 404.1875,652.1875 Q404.9219,652.1875 405.5625,652.3594 Q406.2188,652.5156 406.7656,652.875 Z " fill="#000000"/><text fill="#000000" font-family="sans-serif" font-size="14" lengthAdjust="spacing" textLength="45" x="423" y="662.7969">Branch</text><line style="stroke:#181818;stroke-width:0.5;" x1="367.5" x2="492.5" y1="673" y2="673"/><line style="stroke:#181818;stroke-width:0.5;" x1="367.5" x2="492.5" y1="681" y2="681"/><text fill="#000000" font-family="sans-serif" font-size="14" lengthAdjust="spacing" textLength="115" x="372.5" y="700.1074">getStores(branch)</text></g><!--class Store--><g id="elem_Store"><rect codeLine="58" fill="#F1F1F1" height="85.2422" id="Store" rx="2.5" ry="2.5" style="stroke:#181818;stroke-width:0.5;" width="130" x="529" y="632"/><ellipse cx="572.8" cy="648" fill="#ADD1B2" rx="11" ry="11" style="stroke:#181818;stroke-width:1.0;"/><path d="M575.5656,643.875 Q575.7219,643.6563 575.9094,643.5469 Q576.0969,643.4375 576.3156,643.4375 Q576.6906,643.4375 576.925,643.7031 Q577.1594,643.9531 577.1594,644.5625 L577.1594,646.0156 Q577.1594,646.625 576.925,646.8906 Q576.6906,647.1563 576.3156,647.1563 Q575.9719,647.1563 575.7688,646.9531 Q575.5656,646.7656 575.4563,646.25 Q575.4094,645.8906 575.2219,645.7031 Q574.8938,645.3281 574.2844,645.1094 Q573.675,644.8906 573.05,644.8906 Q572.2844,644.8906 571.6438,645.2188 Q571.0188,645.5469 570.5188,646.2969 Q570.0344,647.0469 570.0344,648.0781 L570.0344,649.1719 Q570.0344,650.4063 570.925,651.2344 Q571.8156,652.0469 573.4094,652.0469 Q574.3469,652.0469 575.0031,651.7969 Q575.3938,651.6406 575.8156,651.2031 Q576.0813,650.9375 576.2219,650.8594 Q576.3781,650.7813 576.5813,650.7813 Q576.9094,650.7813 577.1594,651.0469 Q577.425,651.2969 577.425,651.6406 Q577.425,651.9844 577.0813,652.3906 Q576.5813,652.9688 575.7844,653.2969 Q574.7063,653.75 573.4094,653.75 Q571.8938,653.75 570.6906,653.125 Q569.7063,652.625 569.0188,651.5625 Q568.3313,650.4844 568.3313,649.2031 L568.3313,648.0469 Q568.3313,646.7188 568.9406,645.5781 Q569.5656,644.4219 570.6594,643.8125 Q571.7531,643.1875 572.9875,643.1875 Q573.7219,643.1875 574.3625,643.3594 Q575.0188,643.5156 575.5656,643.875 Z " fill="#000000"/><text fill="#000000" font-family="sans-serif" font-size="14" lengthAdjust="spacing" textLength="34" x="593.2" y="653.7969">Store</text><line style="stroke:#181818;stroke-width:0.5;" x1="530" x2="658" y1="664" y2="664"/><rect fill="none" height="6" style="stroke:#C82930;stroke-width:1.0;" width="6" x="537" y="675.8105"/><text fill="#000000" font-family="sans-serif" font-size="14" lengthAdjust="spacing" textLength="104" x="549" y="683.1074">ArrayList Agents</text><line style="stroke:#181818;stroke-width:0.5;" x1="530" x2="658" y1="690.6211" y2="690.6211"/><ellipse cx="540" cy="705.4316" fill="#84BE84" rx="3" ry="3" style="stroke:#038048;stroke-width:1.0;"/><text fill="#000000" font-family="sans-serif" font-size="14" lengthAdjust="spacing" textLength="74" x="549" y="709.7285">getAgents()</text></g><!--class Location--><g id="elem_Location"><rect codeLine="63" fill="#F1F1F1" height="103.8633" id="Location" rx="2.5" ry="2.5" style="stroke:#181818;stroke-width:0.5;" width="117" x="135.5" y="796"/><ellipse cx="164.45" cy="812" fill="#ADD1B2" rx="11" ry="11" style="stroke:#181818;stroke-width:1.0;"/><path d="M167.2156,807.875 Q167.3719,807.6563 167.5594,807.5469 Q167.7469,807.4375 167.9656,807.4375 Q168.3406,807.4375 168.575,807.7031 Q168.8094,807.9531 168.8094,808.5625 L168.8094,810.0156 Q168.8094,810.625 168.575,810.8906 Q168.3406,811.1563 167.9656,811.1563 Q167.6219,811.1563 167.4188,810.9531 Q167.2156,810.7656 167.1063,810.25 Q167.0594,809.8906 166.8719,809.7031 Q166.5438,809.3281 165.9344,809.1094 Q165.325,808.8906 164.7,808.8906 Q163.9344,808.8906 163.2938,809.2188 Q162.6688,809.5469 162.1688,810.2969 Q161.6844,811.0469 161.6844,812.0781 L161.6844,813.1719 Q161.6844,814.4063 162.575,815.2344 Q163.4656,816.0469 165.0594,816.0469 Q165.9969,816.0469 166.6531,815.7969 Q167.0438,815.6406 167.4656,815.2031 Q167.7313,814.9375 167.8719,814.8594 Q168.0281,814.7813 168.2313,814.7813 Q168.5594,814.7813 168.8094,815.0469 Q169.075,815.2969 169.075,815.6406 Q169.075,815.9844 168.7313,816.3906 Q168.2313,816.9688 167.4344,817.2969 Q166.3563,817.75 165.0594,817.75 Q163.5438,817.75 162.3406,817.125 Q161.3563,816.625 160.6688,815.5625 Q159.9813,814.4844 159.9813,813.2031 L159.9813,812.0469 Q159.9813,810.7188 160.5906,809.5781 Q161.2156,808.4219 162.3094,807.8125 Q163.4031,807.1875 164.6375,807.1875 Q165.3719,807.1875 166.0125,807.3594 Q166.6688,807.5156 167.2156,807.875 Z " fill="#000000"/><text fill="#000000" font-family="sans-serif" font-size="14" lengthAdjust="spacing" textLength="54" x="181.55" y="817.7969">Location</text><line style="stroke:#181818;stroke-width:0.5;" x1="136.5" x2="251.5" y1="828" y2="828"/><rect fill="none" height="6" style="stroke:#C82930;stroke-width:1.0;" width="6" x="143.5" y="839.8105"/><text fill="#000000" font-family="sans-serif" font-size="14" lengthAdjust="spacing" textLength="76" x="155.5" y="847.1074">String name</text><line style="stroke:#181818;stroke-width:0.5;" x1="136.5" x2="251.5" y1="854.6211" y2="854.6211"/><ellipse cx="146.5" cy="869.4316" fill="#84BE84" rx="3" ry="3" style="stroke:#038048;stroke-width:1.0;"/><text fill="#000000" font-family="sans-serif" font-size="14" lengthAdjust="spacing" textLength="91" x="155.5" y="873.7285">getLocations()</text><rect fill="#F24D5C" height="6" style="stroke:#C82930;stroke-width:1.0;" width="6" x="143.5" y="885.0527"/><text fill="#000000" font-family="sans-serif" font-size="14" lengthAdjust="spacing" textLength="59" x="155.5" y="892.3496">toString()</text></g><!--link CreatePropertySaleRequestUI to CreatePropertySaleRequestController--><g id="link_CreatePropertySaleRequestUI_CreatePropertySaleRequestController"><path codeLine="70" d="M275.26,59 C285.1,59 294.95,59 304.79,59 " fill="none" id="CreatePropertySaleRequestUI-to-CreatePropertySaleRequestController" style="stroke:#181818;stroke-width:1.0;stroke-dasharray:7.0,7.0;"/><polygon fill="#181818" points="309.94,59,300.94,55,304.94,59,300.94,63,309.94,59" style="stroke:#181818;stroke-width:1.0;"/></g><!--link CreatePropertySaleRequestController to Repositories--><g id="link_CreatePropertySaleRequestController_Repositories"><path codeLine="71" d="M492.84,111.38 C514.09,134.7 539.26,162.3 560.89,186.03 " fill="none" id="CreatePropertySaleRequestController-to-Repositories" style="stroke:#181818;stroke-width:1.0;stroke-dasharray:7.0,7.0;"/><polygon fill="#181818" points="564.33,189.8,561.2069,180.4594,560.9553,186.1107,555.304,185.859,564.33,189.8" style="stroke:#181818;stroke-width:1.0;"/><text fill="#000000" font-family="sans-serif" font-size="13" lengthAdjust="spacing" textLength="67" x="534" y="156.0283">repositories</text></g><!--link Repositories to PropertySaleRequestRepositories--><g id="link_Repositories_PropertySaleRequestRepositories"><path codeLine="72" d="M674.43,294.07 C713.21,325.29 763.12,365.48 804.39,398.71 " fill="none" id="Repositories-to-PropertySaleRequestRepositories" style="stroke:#181818;stroke-width:1.0;"/><polygon fill="#181818" points="808.36,401.9,803.8584,393.1401,804.4655,398.7643,798.8413,399.3714,808.36,401.9" style="stroke:#181818;stroke-width:1.0;"/><text fill="#000000" font-family="sans-serif" font-size="13" lengthAdjust="spacing" textLength="7" x="792.3251" y="390.8696">1</text></g><!--link Repositories to LocationRepositories--><g id="link_Repositories_LocationRepositories"><path codeLine="73" d="M475.86,286.02 C394.02,312.67 302.17,343.87 285,355 C256.16,373.69 229.89,402.48 211.52,425.49 " fill="none" id="Repositories-to-LocationRepositories" style="stroke:#181818;stroke-width:1.0;"/><polygon fill="#181818" points="208.42,429.42,217.1352,424.8326,211.5173,425.4949,210.855,419.8769,208.42,429.42" style="stroke:#181818;stroke-width:1.0;"/><text fill="#000000" font-family="sans-serif" font-size="13" lengthAdjust="spacing" textLength="7" x="205.3418" y="418.2298">1</text></g><!--link LocationRepositories to State--><g id="link_LocationRepositories_State"><path codeLine="74" d="M165.47,496.73 C142.9,534.55 105.85,596.65 82.21,636.28 " fill="none" id="LocationRepositories-to-State" style="stroke:#181818;stroke-width:1.0;"/><polygon fill="#181818" points="79.39,641,87.4282,635.309,81.9457,636.7025,80.5522,631.22,79.39,641" style="stroke:#181818;stroke-width:1.0;"/><text fill="#000000" font-family="sans-serif" font-size="13" lengthAdjust="spacing" textLength="20" x="61.2387" y="629.8255">0..*</text></g><!--link State to District--><g id="link_State_District"><path codeLine="75" d="M113.13,674.5 C123.08,674.5 133.04,674.5 142.99,674.5 " fill="none" id="State-to-District" style="stroke:#181818;stroke-width:1.0;"/><polygon fill="#181818" points="148.19,674.5,139.19,670.5,143.19,674.5,139.19,678.5,148.19,674.5" style="stroke:#181818;stroke-width:1.0;"/><text fill="#000000" font-family="sans-serif" font-size="13" lengthAdjust="spacing" textLength="20" x="120.3417" y="670.3801">0..*</text></g><!--link District to City--><g id="link_District_City"><path codeLine="76" d="M239.56,674.5 C249.55,674.5 259.54,674.5 269.53,674.5 " fill="none" id="District-to-City" style="stroke:#181818;stroke-width:1.0;"/><polygon fill="#181818" points="274.75,674.5,265.75,670.5,269.75,674.5,265.75,678.5,274.75,674.5" style="stroke:#181818;stroke-width:1.0;"/><text fill="#000000" font-family="sans-serif" font-size="13" lengthAdjust="spacing" textLength="20" x="246.8609" y="669.8052">0..*</text></g><!--link CreatePropertySaleRequestController to LocationRepositories--><g id="link_CreatePropertySaleRequestController_LocationRepositories"><path codeLine="77" d="M376.86,111.27 C350.58,133.31 321.97,160.73 301,190 C247.18,265.15 211.68,369.16 195.36,424.24 " fill="none" id="CreatePropertySaleRequestController-to-LocationRepositories" style="stroke:#181818;stroke-width:1.0;stroke-dasharray:7.0,7.0;"/><polygon fill="#181818" points="193.93,429.09,200.3106,421.5875,195.3431,424.2939,192.6368,419.3264,193.93,429.09" style="stroke:#181818;stroke-width:1.0;"/><text fill="#000000" font-family="sans-serif" font-size="13" lengthAdjust="spacing" textLength="67" x="302" y="247.5283">repositories</text></g><!--link CreatePropertySaleRequestController to PropertySaleRequestRepositories--><g id="link_CreatePropertySaleRequestController_PropertySaleRequestRepositories"><path codeLine="78" d="M582.07,90.5 C643.95,110.19 714.27,141.47 764,190 C821.94,246.55 853.58,336.11 869.38,396.88 " fill="none" id="CreatePropertySaleRequestController-to-PropertySaleRequestRepositories" style="stroke:#181818;stroke-width:1.0;stroke-dasharray:7.0,7.0;"/><polygon fill="#181818" points="870.68,401.94,872.3172,392.2282,869.4371,397.0969,864.5683,394.2168,870.68,401.94" style="stroke:#181818;stroke-width:1.0;"/><text fill="#000000" font-family="sans-serif" font-size="13" lengthAdjust="spacing" textLength="67" x="834" y="247.5283">repositories</text></g><!--link Repositories to BranchesRepositories--><g id="link_Repositories_BranchesRepositories"><path codeLine="79" d="M554.85,294.25 C534.51,313.11 511.51,334.81 491,355 C470.85,374.84 449.06,397.33 430.73,416.54 " fill="none" id="Repositories-to-BranchesRepositories" style="stroke:#181818;stroke-width:1.0;"/><polygon fill="#181818" points="427.11,420.34,436.2142,416.5832,430.559,416.72,430.4222,411.0648,427.11,420.34" style="stroke:#181818;stroke-width:1.0;"/><text fill="#000000" font-family="sans-serif" font-size="13" lengthAdjust="spacing" textLength="7" x="425.7853" y="409.2186">1</text></g><!--reverse link BranchesRepositories to Branch--><g id="link_BranchesRepositories_Branch"><path codeLine="80" d="M397.4,510.87 C405.32,550.41 416.47,606 423.46,640.87 " fill="none" id="BranchesRepositories-backto-Branch" style="stroke:#181818;stroke-width:1.0;"/><polygon fill="#181818" points="396.35,505.64,394.2035,515.2521,397.3361,510.5418,402.0464,513.6744,396.35,505.64" style="stroke:#181818;stroke-width:1.0;"/></g><!--reverse link Branch to Store--><g id="link_Branch_Store"><path codeLine="81" d="M513.84,674.5 C518.89,674.5 523.94,674.5 528.99,674.5 " fill="none" id="Branch-backto-Store" style="stroke:#181818;stroke-width:1.0;"/><polygon fill="none" points="513.74,681.5,493.74,674.5,513.74,667.5,513.74,681.5" style="stroke:#181818;stroke-width:1.0;"/></g><!--link State to Location--><g id="link_State_Location"><path codeLine="83" d="M85.52,708.16 C101.4,728.49 122.42,755.38 141.71,780.08 " fill="none" id="State-to-Location" style="stroke:#181818;stroke-width:1.0;"/><polygon fill="none" points="147.28,775.84,154.08,795.91,136.25,784.46,147.28,775.84" style="stroke:#181818;stroke-width:1.0;"/><text fill="#000000" font-family="sans-serif" font-size="13" lengthAdjust="spacing" textLength="46" x="128" y="762.0283">extends</text></g><!--link District to Location--><g id="link_District_Location"><path codeLine="84" d="M194,708.16 C194,727.33 194,752.33 194,775.83 " fill="none" id="District-to-Location" style="stroke:#181818;stroke-width:1.0;"/><polygon fill="none" points="201,775.91,194,795.91,187,775.91,201,775.91" style="stroke:#181818;stroke-width:1.0;"/><text fill="#000000" font-family="sans-serif" font-size="13" lengthAdjust="spacing" textLength="46" x="195" y="762.0283">extends</text></g><!--link City to Location--><g id="link_City_Location"><path codeLine="85" d="M289.97,698.85 C279.52,717.3 264.29,743.58 250,766 C247.27,770.29 244.41,774.68 241.5,779.08 " fill="none" id="City-to-Location" style="stroke:#181818;stroke-width:1.0;"/><polygon fill="none" points="247.11,783.28,230.14,795.97,235.49,775.47,247.11,783.28" style="stroke:#181818;stroke-width:1.0;"/><text fill="#000000" font-family="sans-serif" font-size="13" lengthAdjust="spacing" textLength="46" x="262" y="762.0283">extends</text></g><!--link Location to Location--><g id="link_Location_Location"><path codeLine="86" d="M252.89,831.13 C272.16,831.21 287.5,836.84 287.5,848 C287.5,858.12 274.9,863.68 258.2,864.7 " fill="none" id="Location-to-Location" style="stroke:#181818;stroke-width:1.0;"/><polygon fill="#181818" points="252.89,864.87,262.0218,868.5593,257.8871,864.6987,261.7477,860.564,252.89,864.87" style="stroke:#181818;stroke-width:1.0;"/><text fill="#000000" font-family="sans-serif" font-size="13" lengthAdjust="spacing" textLength="20" x="260.4248" y="862.8372">0..*</text></g><!--reverse link PropertySaleRequest to PropertySaleRequestRepositories--><g id="link_PropertySaleRequest_PropertySaleRequestRepositories"><path codeLine="88" d="M680.78,463 C690.79,463 700.79,463 710.8,463 " fill="none" id="PropertySaleRequest-backto-PropertySaleRequestRepositories" style="stroke:#181818;stroke-width:1.0;"/><polygon fill="#181818" points="675.55,463,684.55,467,680.55,463,684.55,459,675.55,463" style="stroke:#181818;stroke-width:1.0;"/><text fill="#000000" font-family="sans-serif" font-size="13" lengthAdjust="spacing" textLength="20" x="683.5895" y="459.328">0..*</text></g><!--link CreatePropertySaleRequestController to BranchesRepositories--><g id="link_CreatePropertySaleRequestController_BranchesRepositories"><path codeLine="89" d="M417.76,111.18 C406.44,134.49 394.74,162.88 389,190 C372.57,267.65 377.29,360.59 382.46,415.27 " fill="none" id="CreatePropertySaleRequestController-to-BranchesRepositories" style="stroke:#181818;stroke-width:1.0;stroke-dasharray:7.0,7.0;"/><polygon fill="#181818" points="382.96,420.44,386.0659,411.0937,382.4738,415.4637,378.1038,411.8716,382.96,420.44" style="stroke:#181818;stroke-width:1.0;"/><text fill="#000000" font-family="sans-serif" font-size="13" lengthAdjust="spacing" textLength="67" x="390" y="247.5283">repositories</text></g><!--SRC=[ZLFBRjim4BplLn2-L6b1kRqQHe3KkHW8aC96UcSbmY4WaogvHcEe_VUiIBsiKf4kXZKptCTm-EaLiNIRzReiXCRBkKWpSrvdXN2EvqgSh3W3WFzcEoi5oX_MbDBYzIWAUP2_BzBXpcYqfYYaPHLyEKay8WbTSkS_7fL3gp9qYOS3k5EeID5oT_1ljilBlkfL1raQfz1Ogj8qtMk7GcUoQVjaCe7AwA6oeIB5HwgkpuoKEcT-tfft1-cy8jdhyeBiKQ2WXYBFXrLSKoQ9WIHNxgSeL3v5qnzHk0cs6pks_EXgI3ovOWMyHO4__z7I0dyuIOt0HMwbSy1TNGSe8-42WMUg5jjGGDBAAfFGskCj3Uty0DKe6JtTOjKm9ZrDmBNgP_zkwSPVQmV6U_fnNVBB2yArj-91kG1Lu8qnj5bte1-NOFBZmLfnVQBXMAWyR18ndauSQGzzObgSvKqWQpr74-Xm5Zu8FKllbxmyMF8wKwfryt8sp0u-uOPZdD-prRVLt1kOE1MB8CJ0SE9hcdvUXN20_sKzscO2sZy3hWx4ujsZxKSUBAqruyg7rjB6jKMnz48CP5lE6tN3i-rV7h89dQarnYzbC97wopUKEdV_yPsBcob5RMgiG6zx2m54V6X4MpuRdQLcHqsvTVWT]--></g></svg>