<?xml version="1.0" encoding="us-ascii" standalone="no"?><svg xmlns="http://www.w3.org/2000/svg" xmlns:xlink="http://www.w3.org/1999/xlink" contentStyleType="text/css" height="436px" preserveAspectRatio="none" style="width:548px;height:436px;background:#FFFFFF;" version="1.1" viewBox="0 0 548 436" width="548px" zoomAndPan="magnify"><defs/><g><text fill="#000000" font-family="sans-serif" font-size="14" font-weight="bold" lengthAdjust="spacing" textLength="228" x="161.75" y="30.1074">System Sequence Diagram (SSD)</text><rect fill="#FFFFFF" height="211.3281" style="stroke:#181818;stroke-width:1.0;" width="10" x="74.5" y="133.2422"/><rect fill="#FFFFFF" height="83.1641" style="stroke:#181818;stroke-width:1.0;" width="10" x="495.5" y="156.5332"/><rect fill="#FFFFFF" height="31.291" style="stroke:#181818;stroke-width:1.0;" width="10" x="495.5" y="297.2793"/><rect fill="none" height="81.873" style="stroke:#000000;stroke-width:1.5;" width="532.5" x="10" y="254.6973"/><line style="stroke:#181818;stroke-width:0.5;stroke-dasharray:5.0,5.0;" x1="79" x2="79" y1="123.2422" y2="353.5703"/><line style="stroke:#181818;stroke-width:0.5;stroke-dasharray:5.0,5.0;" x1="500.5" x2="500.5" y1="123.2422" y2="353.5703"/><text fill="#000000" font-family="sans-serif" font-size="14" lengthAdjust="spacing" textLength="113" x="20" y="119.7285">Unregistered user</text><ellipse cx="79.5" cy="53.1211" fill="#E3E3E3" rx="8" ry="8" style="stroke:#181818;stroke-width:0.5;"/><path d="M79.5,61.1211 L79.5,88.1211 M66.5,69.1211 L92.5,69.1211 M79.5,88.1211 L66.5,103.1211 M79.5,88.1211 L92.5,103.1211 " fill="none" style="stroke:#181818;stroke-width:0.5;"/><text fill="#000000" font-family="sans-serif" font-size="14" lengthAdjust="spacing" textLength="113" x="20" y="367.6777">Unregistered user</text><ellipse cx="79.5" cy="379.6914" fill="#E3E3E3" rx="8" ry="8" style="stroke:#181818;stroke-width:0.5;"/><path d="M79.5,387.6914 L79.5,414.6914 M66.5,395.6914 L92.5,395.6914 M79.5,414.6914 L66.5,429.6914 M79.5,414.6914 L92.5,429.6914 " fill="none" style="stroke:#181818;stroke-width:0.5;"/><rect fill="#E3E3E3" height="32.6211" rx="2.5" ry="2.5" style="stroke:#181818;stroke-width:0.5;" width="64" x="468.5" y="89.6211"/><text fill="#000000" font-family="sans-serif" font-size="14" lengthAdjust="spacing" textLength="50" x="475.5" y="111.7285">:System</text><rect fill="#E3E3E3" height="32.6211" rx="2.5" ry="2.5" style="stroke:#181818;stroke-width:0.5;" width="64" x="468.5" y="352.5703"/><text fill="#000000" font-family="sans-serif" font-size="14" lengthAdjust="spacing" textLength="50" x="475.5" y="374.6777">:System</text><rect fill="#FFFFFF" height="211.3281" style="stroke:#181818;stroke-width:1.0;" width="10" x="74.5" y="133.2422"/><rect fill="#FFFFFF" height="83.1641" style="stroke:#181818;stroke-width:1.0;" width="10" x="495.5" y="156.5332"/><rect fill="#FFFFFF" height="31.291" style="stroke:#181818;stroke-width:1.0;" width="10" x="495.5" y="297.2793"/><polygon fill="#181818" points="483.5,152.5332,493.5,156.5332,483.5,160.5332,487.5,156.5332" style="stroke:#181818;stroke-width:1.0;"/><line style="stroke:#181818;stroke-width:1.0;" x1="84.5" x2="489.5" y1="156.5332" y2="156.5332"/><text fill="#000000" font-family="sans-serif" font-size="13" font-weight="bold" lengthAdjust="spacing" textLength="7" x="91.5" y="151.2705">1</text><text fill="#000000" font-family="sans-serif" font-size="13" lengthAdjust="spacing" textLength="224" x="102.5" y="151.2705">selects to display the listed properties.</text><polygon fill="#181818" points="95.5,235.6973,85.5,239.6973,95.5,243.6973,91.5,239.6973" style="stroke:#181818;stroke-width:1.0;"/><line style="stroke:#181818;stroke-width:1.0;stroke-dasharray:2.0,2.0;" x1="89.5" x2="499.5" y1="239.6973" y2="239.6973"/><text fill="#000000" font-family="sans-serif" font-size="13" font-weight="bold" lengthAdjust="spacing" textLength="7" x="101.5" y="208.498">2</text><text fill="#000000" font-family="sans-serif" font-size="13" lengthAdjust="spacing" textLength="303" x="112.5" y="182.5615">display the listed properties by most recently added,</text><text fill="#000000" font-family="sans-serif" font-size="13" lengthAdjust="spacing" textLength="252" x="112.5" y="199.8525">the existing options for the type of business</text><text fill="#000000" font-family="sans-serif" font-size="13" lengthAdjust="spacing" textLength="372" x="116.5" y="217.1436">(renting or buying), the type of property and the number of rooms</text><text fill="#000000" font-family="sans-serif" font-size="13" lengthAdjust="spacing" textLength="168" x="116.5" y="234.4346">and the sort options available</text><path d="M10,254.6973 L71,254.6973 L71,263.9883 L61,273.9883 L10,273.9883 L10,254.6973 " fill="#EEEEEE" style="stroke:#000000;stroke-width:1.5;"/><rect fill="none" height="81.873" style="stroke:#000000;stroke-width:1.5;" width="532.5" x="10" y="254.6973"/><text fill="#000000" font-family="sans-serif" font-size="13" font-weight="bold" lengthAdjust="spacing" textLength="16" x="25" y="269.7256">alt</text><text fill="#000000" font-family="sans-serif" font-size="11" font-weight="bold" lengthAdjust="spacing" textLength="236" x="86" y="268.5674">[select at least one of the existing options]</text><polygon fill="#181818" points="483.5,293.2793,493.5,297.2793,483.5,301.2793,487.5,297.2793" style="stroke:#181818;stroke-width:1.0;"/><line style="stroke:#181818;stroke-width:1.0;" x1="84.5" x2="489.5" y1="297.2793" y2="297.2793"/><text fill="#000000" font-family="sans-serif" font-size="13" font-weight="bold" lengthAdjust="spacing" textLength="7" x="91.5" y="292.0166">3</text><text fill="#000000" font-family="sans-serif" font-size="13" lengthAdjust="spacing" textLength="75" x="102.5" y="292.0166">selects data.</text><polygon fill="#181818" points="95.5,324.5703,85.5,328.5703,95.5,332.5703,91.5,328.5703" style="stroke:#181818;stroke-width:1.0;"/><line style="stroke:#181818;stroke-width:1.0;stroke-dasharray:2.0,2.0;" x1="89.5" x2="499.5" y1="328.5703" y2="328.5703"/><text fill="#000000" font-family="sans-serif" font-size="13" font-weight="bold" lengthAdjust="spacing" textLength="7" x="101.5" y="323.3076">4</text><text fill="#000000" font-family="sans-serif" font-size="13" lengthAdjust="spacing" textLength="324" x="112.5" y="323.3076">display the listed properties matching the data selected.</text><!--SRC=[bL51Ri8m4Bpd5IjE854UmA4dVX1nuxA9byJ2MRlU3Mr-ttK8g9KeKdrQUMPdF6EvU4wOSO0XScpx70S2pIDLya0IjXVigDOf46Hg5RaBFmdIeukVdZiuOn2gAlLgr7eIfG5g-XY9MuA3nwxGrtLzs5GLZXfv71hADhSQCwoEdAdpjfN9mIYKLu02nxeo7_MjJyWAg_rDUCPkuopWhwXKo1NOETRmzdv_mXw4WZrSG2CuBodW1DeJX6Bc8EMOo1n8TlFoG-qkNouNhJUJDV7zQnre9cjKjFH5h642T8xSziI5Jb_6Btt5f3womDdI5q2dH13Fq8pYcKHE3Eji-pCts_LaqsRxYxkOcWEx6RYLMg0Sur0qxeZ4h0zFlA8FsDXFbdIEdeR6e4jtW0g1q295ddsV1NdPlKF55_t-l-C1jUsBUu6B-c95RlTNffiLiRFf6m00]--></g></svg>