<?xml version="1.0" encoding="us-ascii" standalone="no"?><svg xmlns="http://www.w3.org/2000/svg" xmlns:xlink="http://www.w3.org/1999/xlink" contentStyleType="text/css" height="606px" preserveAspectRatio="none" style="width:566px;height:606px;background:#FFFFFF;" version="1.1" viewBox="0 0 566 606" width="566px" zoomAndPan="magnify"><defs/><g><text fill="#000000" font-family="sans-serif" font-size="14" font-weight="bold" lengthAdjust="spacing" textLength="228" x="170.25" y="30.1074">System Sequence Diagram (SSD)</text><rect fill="#FFFFFF" height="381.123" style="stroke:#181818;stroke-width:1.0;" width="10" x="74.5" y="133.2422"/><rect fill="#FFFFFF" height="48.582" style="stroke:#181818;stroke-width:1.0;" width="10" x="512.5" y="156.5332"/><rect fill="#FFFFFF" height="31.291" style="stroke:#181818;stroke-width:1.0;" width="10" x="512.5" y="262.6973"/><rect fill="#FFFFFF" height="31.291" style="stroke:#181818;stroke-width:1.0;" width="10" x="512.5" y="325.2793"/><rect fill="#FFFFFF" height="31.291" style="stroke:#181818;stroke-width:1.0;" width="10" x="512.5" y="404.4922"/><rect fill="#FFFFFF" height="31.291" style="stroke:#181818;stroke-width:1.0;" width="10" x="512.5" y="467.0742"/><rect fill="none" height="286.25" style="stroke:#000000;stroke-width:1.5;" width="549.5" x="10" y="220.1152"/><line style="stroke:#181818;stroke-width:0.5;stroke-dasharray:5.0,5.0;" x1="79" x2="79" y1="123.2422" y2="523.3652"/><line style="stroke:#181818;stroke-width:0.5;stroke-dasharray:5.0,5.0;" x1="517.5" x2="517.5" y1="123.2422" y2="523.3652"/><text fill="#000000" font-family="sans-serif" font-size="14" lengthAdjust="spacing" textLength="113" x="20" y="119.7285">Unregistered user</text><ellipse cx="79.5" cy="53.1211" fill="#E3E3E3" rx="8" ry="8" style="stroke:#181818;stroke-width:0.5;"/><path d="M79.5,61.1211 L79.5,88.1211 M66.5,69.1211 L92.5,69.1211 M79.5,88.1211 L66.5,103.1211 M79.5,88.1211 L92.5,103.1211 " fill="none" style="stroke:#181818;stroke-width:0.5;"/><text fill="#000000" font-family="sans-serif" font-size="14" lengthAdjust="spacing" textLength="113" x="20" y="537.4727">Unregistered user</text><ellipse cx="79.5" cy="549.4863" fill="#E3E3E3" rx="8" ry="8" style="stroke:#181818;stroke-width:0.5;"/><path d="M79.5,557.4863 L79.5,584.4863 M66.5,565.4863 L92.5,565.4863 M79.5,584.4863 L66.5,599.4863 M79.5,584.4863 L92.5,599.4863 " fill="none" style="stroke:#181818;stroke-width:0.5;"/><rect fill="#E3E3E3" height="32.6211" rx="2.5" ry="2.5" style="stroke:#181818;stroke-width:0.5;" width="64" x="485.5" y="89.6211"/><text fill="#000000" font-family="sans-serif" font-size="14" lengthAdjust="spacing" textLength="50" x="492.5" y="111.7285">:System</text><rect fill="#E3E3E3" height="32.6211" rx="2.5" ry="2.5" style="stroke:#181818;stroke-width:0.5;" width="64" x="485.5" y="522.3652"/><text fill="#000000" font-family="sans-serif" font-size="14" lengthAdjust="spacing" textLength="50" x="492.5" y="544.4727">:System</text><rect fill="#FFFFFF" height="381.123" style="stroke:#181818;stroke-width:1.0;" width="10" x="74.5" y="133.2422"/><rect fill="#FFFFFF" height="48.582" style="stroke:#181818;stroke-width:1.0;" width="10" x="512.5" y="156.5332"/><rect fill="#FFFFFF" height="31.291" style="stroke:#181818;stroke-width:1.0;" width="10" x="512.5" y="262.6973"/><rect fill="#FFFFFF" height="31.291" style="stroke:#181818;stroke-width:1.0;" width="10" x="512.5" y="325.2793"/><rect fill="#FFFFFF" height="31.291" style="stroke:#181818;stroke-width:1.0;" width="10" x="512.5" y="404.4922"/><rect fill="#FFFFFF" height="31.291" style="stroke:#181818;stroke-width:1.0;" width="10" x="512.5" y="467.0742"/><polygon fill="#181818" points="500.5,152.5332,510.5,156.5332,500.5,160.5332,504.5,156.5332" style="stroke:#181818;stroke-width:1.0;"/><line style="stroke:#181818;stroke-width:1.0;" x1="84.5" x2="506.5" y1="156.5332" y2="156.5332"/><text fill="#000000" font-family="sans-serif" font-size="13" font-weight="bold" lengthAdjust="spacing" textLength="7" x="91.5" y="151.2705">1</text><text fill="#000000" font-family="sans-serif" font-size="13" lengthAdjust="spacing" textLength="210" x="102.5" y="151.2705">asks to display the listed properties.</text><polygon fill="#181818" points="95.5,201.1152,85.5,205.1152,95.5,209.1152,91.5,205.1152" style="stroke:#181818;stroke-width:1.0;"/><line style="stroke:#181818;stroke-width:1.0;stroke-dasharray:2.0,2.0;" x1="89.5" x2="516.5" y1="205.1152" y2="205.1152"/><text fill="#000000" font-family="sans-serif" font-size="13" font-weight="bold" lengthAdjust="spacing" textLength="7" x="101.5" y="191.207">2</text><text fill="#000000" font-family="sans-serif" font-size="13" lengthAdjust="spacing" textLength="286" x="112.5" y="182.5615">ask to select type of business (renting or buying),</text><text fill="#000000" font-family="sans-serif" font-size="13" lengthAdjust="spacing" textLength="264" x="112.5" y="199.8525">the type of property and the number of rooms.</text><path d="M10,220.1152 L71,220.1152 L71,229.4063 L61,239.4063 L10,239.4063 L10,220.1152 " fill="#EEEEEE" style="stroke:#000000;stroke-width:1.5;"/><rect fill="none" height="286.25" style="stroke:#000000;stroke-width:1.5;" width="549.5" x="10" y="220.1152"/><text fill="#000000" font-family="sans-serif" font-size="13" font-weight="bold" lengthAdjust="spacing" textLength="16" x="25" y="235.1436">alt</text><text fill="#000000" font-family="sans-serif" font-size="11" font-weight="bold" lengthAdjust="spacing" textLength="203" x="86" y="233.9854">[selects one of each requested data]</text><polygon fill="#181818" points="500.5,258.6973,510.5,262.6973,500.5,266.6973,504.5,262.6973" style="stroke:#181818;stroke-width:1.0;"/><line style="stroke:#181818;stroke-width:1.0;" x1="84.5" x2="506.5" y1="262.6973" y2="262.6973"/><text fill="#000000" font-family="sans-serif" font-size="13" font-weight="bold" lengthAdjust="spacing" textLength="7" x="91.5" y="257.4346">3</text><text fill="#000000" font-family="sans-serif" font-size="13" lengthAdjust="spacing" textLength="136" x="102.5" y="257.4346">selects requested data.</text><polygon fill="#181818" points="95.5,289.9883,85.5,293.9883,95.5,297.9883,91.5,293.9883" style="stroke:#181818;stroke-width:1.0;"/><line style="stroke:#181818;stroke-width:1.0;stroke-dasharray:2.0,2.0;" x1="89.5" x2="516.5" y1="293.9883" y2="293.9883"/><text fill="#000000" font-family="sans-serif" font-size="13" font-weight="bold" lengthAdjust="spacing" textLength="7" x="101.5" y="288.7256">4</text><text fill="#000000" font-family="sans-serif" font-size="13" lengthAdjust="spacing" textLength="277" x="112.5" y="288.7256">ask if wants to sort by price, by city or by state.</text><polygon fill="#181818" points="500.5,321.2793,510.5,325.2793,500.5,329.2793,504.5,325.2793" style="stroke:#181818;stroke-width:1.0;"/><line style="stroke:#181818;stroke-width:1.0;" x1="84.5" x2="506.5" y1="325.2793" y2="325.2793"/><text fill="#000000" font-family="sans-serif" font-size="13" font-weight="bold" lengthAdjust="spacing" textLength="7" x="91.5" y="320.0166">5</text><text fill="#000000" font-family="sans-serif" font-size="13" lengthAdjust="spacing" textLength="71" x="102.5" y="320.0166">selects one.</text><polygon fill="#181818" points="95.5,352.5703,85.5,356.5703,95.5,360.5703,91.5,356.5703" style="stroke:#181818;stroke-width:1.0;"/><line style="stroke:#181818;stroke-width:1.0;stroke-dasharray:2.0,2.0;" x1="89.5" x2="516.5" y1="356.5703" y2="356.5703"/><text fill="#000000" font-family="sans-serif" font-size="13" font-weight="bold" lengthAdjust="spacing" textLength="7" x="101.5" y="351.3076">6</text><text fill="#000000" font-family="sans-serif" font-size="13" lengthAdjust="spacing" textLength="382" x="112.5" y="351.3076">shows the list of the sorted properties matching the selected data.</text><line style="stroke:#000000;stroke-width:1.0;stroke-dasharray:2.0,2.0;" x1="10" x2="559.5" y1="365.5703" y2="365.5703"/><text fill="#000000" font-family="sans-serif" font-size="11" font-weight="bold" lengthAdjust="spacing" textLength="94" x="15" y="377.4404">[selects nothing]</text><polygon fill="#181818" points="500.5,400.4922,510.5,404.4922,500.5,408.4922,504.5,404.4922" style="stroke:#181818;stroke-width:1.0;"/><line style="stroke:#181818;stroke-width:1.0;" x1="84.5" x2="506.5" y1="404.4922" y2="404.4922"/><text fill="#000000" font-family="sans-serif" font-size="13" font-weight="bold" lengthAdjust="spacing" textLength="7" x="91.5" y="399.2295">7</text><text fill="#000000" font-family="sans-serif" font-size="13" lengthAdjust="spacing" textLength="92" x="102.5" y="399.2295">selects nothing.</text><polygon fill="#181818" points="95.5,431.7832,85.5,435.7832,95.5,439.7832,91.5,435.7832" style="stroke:#181818;stroke-width:1.0;"/><line style="stroke:#181818;stroke-width:1.0;stroke-dasharray:2.0,2.0;" x1="89.5" x2="516.5" y1="435.7832" y2="435.7832"/><text fill="#000000" font-family="sans-serif" font-size="13" font-weight="bold" lengthAdjust="spacing" textLength="7" x="101.5" y="430.5205">8</text><text fill="#000000" font-family="sans-serif" font-size="13" lengthAdjust="spacing" textLength="277" x="112.5" y="430.5205">ask if wants to sort by price, by city or by state.</text><polygon fill="#181818" points="500.5,463.0742,510.5,467.0742,500.5,471.0742,504.5,467.0742" style="stroke:#181818;stroke-width:1.0;"/><line style="stroke:#181818;stroke-width:1.0;" x1="84.5" x2="506.5" y1="467.0742" y2="467.0742"/><text fill="#000000" font-family="sans-serif" font-size="13" font-weight="bold" lengthAdjust="spacing" textLength="7" x="91.5" y="461.8115">9</text><text fill="#000000" font-family="sans-serif" font-size="13" lengthAdjust="spacing" textLength="71" x="102.5" y="461.8115">selects one.</text><polygon fill="#181818" points="95.5,494.3652,85.5,498.3652,95.5,502.3652,91.5,498.3652" style="stroke:#181818;stroke-width:1.0;"/><line style="stroke:#181818;stroke-width:1.0;stroke-dasharray:2.0,2.0;" x1="89.5" x2="516.5" y1="498.3652" y2="498.3652"/><text fill="#000000" font-family="sans-serif" font-size="13" font-weight="bold" lengthAdjust="spacing" textLength="14" x="101.5" y="493.1025">10</text><text fill="#000000" font-family="sans-serif" font-size="13" lengthAdjust="spacing" textLength="386" x="119.5" y="493.1025">shows the list of all properties that are on sale or on renting sorted.</text><!--SRC=[hLJDJiCm3BxdAQoTG08UW0CdU8AA6nSlzTfeQL9YboblZvErXGaOQ28dLx4_VpzjUU_2Y0a766A8jazn890qaU7rPaIxnuuQoPuWaHKCdV_Sm3ssyU121plqJCQ84srjCWiDqD3hHC4IF3hiIljLqpnU6uEJn30DMqfQMua9DiyXKUTqAb4B4rFQ038y3QEFcSZeDd7MZHW4DlT7-DfnB2kCUqEXZn43UfOdk7rOIDths9v18hIEHuyPf2VmPNSBOueZwIhYkpg_mYvxO3upsAtYhZigSW5cykeLI1u9uWws4xj0p72LA4WnInLlfwpLzGsyXB9_wPq9PC3GLc97dyfLYd6OQRNqBJ7qCkzcYA7YQMEloMaELL-BWcUSMOPF1owsmktWe8bLipacWMrMWSxIJQciKvd5YGmi2dnMsbcwglKYZjp70w_n5xjANPYUl0emeDY-v5Qlwz8JQtxWh8VqerXfXYW5vG-2viwxbV-Fmlu_WFE2_XZ4XPo_1eBUVqv2UXJ0fAzs04RzqoXzBPVlwXZThpeejCQOTm00]--></g></svg>