<?xml version="1.0" encoding="us-ascii" standalone="no"?><svg xmlns="http://www.w3.org/2000/svg" xmlns:xlink="http://www.w3.org/1999/xlink" contentStyleType="text/css" height="903px" preserveAspectRatio="none" style="width:836px;height:903px;background:#FFFFFF;" version="1.1" viewBox="0 0 836 903" width="836px" zoomAndPan="magnify"><defs/><g><!--class RegisterEmployeeUI--><g id="elem_RegisterEmployeeUI"><rect codeLine="12" fill="#F1F1F1" height="48" id="RegisterEmployeeUI" rx="2.5" ry="2.5" style="stroke:#181818;stroke-width:0.5;" width="159" x="7" y="38.5"/><ellipse cx="22" cy="54.5" fill="#ADD1B2" rx="11" ry="11" style="stroke:#181818;stroke-width:1.0;"/><path d="M24.7656,50.375 Q24.9219,50.1563 25.1094,50.0469 Q25.2969,49.9375 25.5156,49.9375 Q25.8906,49.9375 26.125,50.2031 Q26.3594,50.4531 26.3594,51.0625 L26.3594,52.5156 Q26.3594,53.125 26.125,53.3906 Q25.8906,53.6563 25.5156,53.6563 Q25.1719,53.6563 24.9688,53.4531 Q24.7656,53.2656 24.6563,52.75 Q24.6094,52.3906 24.4219,52.2031 Q24.0938,51.8281 23.4844,51.6094 Q22.875,51.3906 22.25,51.3906 Q21.4844,51.3906 20.8438,51.7188 Q20.2188,52.0469 19.7188,52.7969 Q19.2344,53.5469 19.2344,54.5781 L19.2344,55.6719 Q19.2344,56.9063 20.125,57.7344 Q21.0156,58.5469 22.6094,58.5469 Q23.5469,58.5469 24.2031,58.2969 Q24.5938,58.1406 25.0156,57.7031 Q25.2813,57.4375 25.4219,57.3594 Q25.5781,57.2813 25.7813,57.2813 Q26.1094,57.2813 26.3594,57.5469 Q26.625,57.7969 26.625,58.1406 Q26.625,58.4844 26.2813,58.8906 Q25.7813,59.4688 24.9844,59.7969 Q23.9063,60.25 22.6094,60.25 Q21.0938,60.25 19.8906,59.625 Q18.9063,59.125 18.2188,58.0625 Q17.5313,56.9844 17.5313,55.7031 L17.5313,54.5469 Q17.5313,53.2188 18.1406,52.0781 Q18.7656,50.9219 19.8594,50.3125 Q20.9531,49.6875 22.1875,49.6875 Q22.9219,49.6875 23.5625,49.8594 Q24.2188,50.0156 24.7656,50.375 Z " fill="#000000"/><text fill="#000000" font-family="sans-serif" font-size="14" lengthAdjust="spacing" textLength="127" x="36" y="59.3535">RegisterEmployeeUI</text><line style="stroke:#181818;stroke-width:0.5;" x1="8" x2="165" y1="70.5" y2="70.5"/><line style="stroke:#181818;stroke-width:0.5;" x1="8" x2="165" y1="78.5" y2="78.5"/></g><!--class RegisterPropertySaleController--><g id="elem_RegisterPropertySaleController"><rect codeLine="16" fill="#F1F1F1" height="63.6406" id="RegisterPropertySaleController" rx="2.5" ry="2.5" style="stroke:#181818;stroke-width:0.5;" width="229" x="201" y="30.5"/><ellipse cx="216" cy="46.5" fill="#ADD1B2" rx="11" ry="11" style="stroke:#181818;stroke-width:1.0;"/><path d="M218.7656,42.375 Q218.9219,42.1563 219.1094,42.0469 Q219.2969,41.9375 219.5156,41.9375 Q219.8906,41.9375 220.125,42.2031 Q220.3594,42.4531 220.3594,43.0625 L220.3594,44.5156 Q220.3594,45.125 220.125,45.3906 Q219.8906,45.6563 219.5156,45.6563 Q219.1719,45.6563 218.9688,45.4531 Q218.7656,45.2656 218.6563,44.75 Q218.6094,44.3906 218.4219,44.2031 Q218.0938,43.8281 217.4844,43.6094 Q216.875,43.3906 216.25,43.3906 Q215.4844,43.3906 214.8438,43.7188 Q214.2188,44.0469 213.7188,44.7969 Q213.2344,45.5469 213.2344,46.5781 L213.2344,47.6719 Q213.2344,48.9063 214.125,49.7344 Q215.0156,50.5469 216.6094,50.5469 Q217.5469,50.5469 218.2031,50.2969 Q218.5938,50.1406 219.0156,49.7031 Q219.2813,49.4375 219.4219,49.3594 Q219.5781,49.2813 219.7813,49.2813 Q220.1094,49.2813 220.3594,49.5469 Q220.625,49.7969 220.625,50.1406 Q220.625,50.4844 220.2813,50.8906 Q219.7813,51.4688 218.9844,51.7969 Q217.9063,52.25 216.6094,52.25 Q215.0938,52.25 213.8906,51.625 Q212.9063,51.125 212.2188,50.0625 Q211.5313,48.9844 211.5313,47.7031 L211.5313,46.5469 Q211.5313,45.2188 212.1406,44.0781 Q212.7656,42.9219 213.8594,42.3125 Q214.9531,41.6875 216.1875,41.6875 Q216.9219,41.6875 217.5625,41.8594 Q218.2188,42.0156 218.7656,42.375 Z " fill="#000000"/><text fill="#000000" font-family="sans-serif" font-size="14" lengthAdjust="spacing" textLength="197" x="230" y="51.3535">RegisterPropertySaleController</text><line style="stroke:#181818;stroke-width:0.5;" x1="202" x2="429" y1="62.5" y2="62.5"/><line style="stroke:#181818;stroke-width:0.5;" x1="202" x2="429" y1="70.5" y2="70.5"/><ellipse cx="212" cy="83.8203" fill="#84BE84" rx="3" ry="3" style="stroke:#038048;stroke-width:1.0;"/><text fill="#000000" font-family="sans-serif" font-size="14" lengthAdjust="spacing" textLength="138" x="221" y="87.1738">getStoresBranchList()</text></g><!--class Repositories--><g id="elem_Repositories"><rect codeLine="21" fill="#F1F1F1" height="110.5625" id="Repositories" rx="2.5" ry="2.5" style="stroke:#181818;stroke-width:0.5;" width="200" x="533.5" y="7"/><ellipse cx="589.75" cy="23" fill="#ADD1B2" rx="11" ry="11" style="stroke:#181818;stroke-width:1.0;"/><path d="M592.5156,18.875 Q592.6719,18.6563 592.8594,18.5469 Q593.0469,18.4375 593.2656,18.4375 Q593.6406,18.4375 593.875,18.7031 Q594.1094,18.9531 594.1094,19.5625 L594.1094,21.0156 Q594.1094,21.625 593.875,21.8906 Q593.6406,22.1563 593.2656,22.1563 Q592.9219,22.1563 592.7188,21.9531 Q592.5156,21.7656 592.4063,21.25 Q592.3594,20.8906 592.1719,20.7031 Q591.8438,20.3281 591.2344,20.1094 Q590.625,19.8906 590,19.8906 Q589.2344,19.8906 588.5938,20.2188 Q587.9688,20.5469 587.4688,21.2969 Q586.9844,22.0469 586.9844,23.0781 L586.9844,24.1719 Q586.9844,25.4063 587.875,26.2344 Q588.7656,27.0469 590.3594,27.0469 Q591.2969,27.0469 591.9531,26.7969 Q592.3438,26.6406 592.7656,26.2031 Q593.0313,25.9375 593.1719,25.8594 Q593.3281,25.7813 593.5313,25.7813 Q593.8594,25.7813 594.1094,26.0469 Q594.375,26.2969 594.375,26.6406 Q594.375,26.9844 594.0313,27.3906 Q593.5313,27.9688 592.7344,28.2969 Q591.6563,28.75 590.3594,28.75 Q588.8438,28.75 587.6406,28.125 Q586.6563,27.625 585.9688,26.5625 Q585.2813,25.4844 585.2813,24.2031 L585.2813,23.0469 Q585.2813,21.7188 585.8906,20.5781 Q586.5156,19.4219 587.6094,18.8125 Q588.7031,18.1875 589.9375,18.1875 Q590.6719,18.1875 591.3125,18.3594 Q591.9688,18.5156 592.5156,18.875 Z " fill="#000000"/><text fill="#000000" font-family="sans-serif" font-size="14" lengthAdjust="spacing" textLength="79" x="610.25" y="27.8535">Repositories</text><line style="stroke:#181818;stroke-width:0.5;" x1="534.5" x2="732.5" y1="39" y2="39"/><line style="stroke:#181818;stroke-width:0.5;" x1="534.5" x2="732.5" y1="47" y2="47"/><rect fill="#F24D5C" height="6" style="stroke:#C82930;stroke-width:1.0;" width="6" x="541.5" y="57.3203"/><text fill="#000000" font-family="sans-serif" font-size="14" lengthAdjust="spacing" textLength="89" x="553.5" y="63.6738">Repositories()</text><ellipse cx="544.5" cy="75.9609" fill="#84BE84" rx="3" ry="3" style="stroke:#038048;stroke-width:1.0;"/><text fill="#000000" font-family="sans-serif" font-size="14" lengthAdjust="spacing" textLength="174" x="553.5" y="79.3145">getInstance() : Repositories</text><ellipse cx="544.5" cy="91.6016" fill="#84BE84" rx="3" ry="3" style="stroke:#038048;stroke-width:1.0;"/><text fill="#000000" font-family="sans-serif" font-size="14" lengthAdjust="spacing" textLength="158" x="553.5" y="94.9551">getBranchesRepository()</text><text fill="#000000" font-family="sans-serif" font-size="14" lengthAdjust="spacing" textLength="4" x="553.5" y="110.5957">&#160;</text></g><!--class BranchesRepository--><g id="elem_BranchesRepository"><rect codeLine="33" fill="#F1F1F1" height="79.2813" id="BranchesRepository" rx="2.5" ry="2.5" style="stroke:#181818;stroke-width:0.5;" width="164" x="391.5" y="179"/><ellipse cx="408.3" cy="195" fill="#ADD1B2" rx="11" ry="11" style="stroke:#181818;stroke-width:1.0;"/><path d="M411.0656,190.875 Q411.2219,190.6563 411.4094,190.5469 Q411.5969,190.4375 411.8156,190.4375 Q412.1906,190.4375 412.425,190.7031 Q412.6594,190.9531 412.6594,191.5625 L412.6594,193.0156 Q412.6594,193.625 412.425,193.8906 Q412.1906,194.1563 411.8156,194.1563 Q411.4719,194.1563 411.2688,193.9531 Q411.0656,193.7656 410.9563,193.25 Q410.9094,192.8906 410.7219,192.7031 Q410.3938,192.3281 409.7844,192.1094 Q409.175,191.8906 408.55,191.8906 Q407.7844,191.8906 407.1438,192.2188 Q406.5188,192.5469 406.0188,193.2969 Q405.5344,194.0469 405.5344,195.0781 L405.5344,196.1719 Q405.5344,197.4063 406.425,198.2344 Q407.3156,199.0469 408.9094,199.0469 Q409.8469,199.0469 410.5031,198.7969 Q410.8938,198.6406 411.3156,198.2031 Q411.5813,197.9375 411.7219,197.8594 Q411.8781,197.7813 412.0813,197.7813 Q412.4094,197.7813 412.6594,198.0469 Q412.925,198.2969 412.925,198.6406 Q412.925,198.9844 412.5813,199.3906 Q412.0813,199.9688 411.2844,200.2969 Q410.2063,200.75 408.9094,200.75 Q407.3938,200.75 406.1906,200.125 Q405.2063,199.625 404.5188,198.5625 Q403.8313,197.4844 403.8313,196.2031 L403.8313,195.0469 Q403.8313,193.7188 404.4406,192.5781 Q405.0656,191.4219 406.1594,190.8125 Q407.2531,190.1875 408.4875,190.1875 Q409.2219,190.1875 409.8625,190.3594 Q410.5188,190.5156 411.0656,190.875 Z " fill="#000000"/><text fill="#000000" font-family="sans-serif" font-size="14" lengthAdjust="spacing" textLength="128" x="422.7" y="199.8535">BranchesRepository</text><line style="stroke:#181818;stroke-width:0.5;" x1="392.5" x2="554.5" y1="211" y2="211"/><line style="stroke:#181818;stroke-width:0.5;" x1="392.5" x2="554.5" y1="219" y2="219"/><ellipse cx="402.5" cy="232.3203" fill="#84BE84" rx="3" ry="3" style="stroke:#038048;stroke-width:1.0;"/><text fill="#000000" font-family="sans-serif" font-size="14" lengthAdjust="spacing" textLength="107" x="411.5" y="235.6738">getBrancheslist()</text><ellipse cx="402.5" cy="247.9609" fill="#84BE84" rx="3" ry="3" style="stroke:#038048;stroke-width:1.0;"/><text fill="#000000" font-family="sans-serif" font-size="14" lengthAdjust="spacing" textLength="138" x="411.5" y="251.3145">getStoresBranchList()</text></g><!--class StoreNetwork--><g id="elem_Branch"><rect codeLine="39" fill="#F1F1F1" height="79.2813" id="Branch" rx="2.5" ry="2.5" style="stroke:#181818;stroke-width:0.5;" width="130" x="408.5" y="319"/><ellipse cx="447.35" cy="335" fill="#ADD1B2" rx="11" ry="11" style="stroke:#181818;stroke-width:1.0;"/><path d="M450.1156,330.875 Q450.2719,330.6563 450.4594,330.5469 Q450.6469,330.4375 450.8656,330.4375 Q451.2406,330.4375 451.475,330.7031 Q451.7094,330.9531 451.7094,331.5625 L451.7094,333.0156 Q451.7094,333.625 451.475,333.8906 Q451.2406,334.1563 450.8656,334.1563 Q450.5219,334.1563 450.3188,333.9531 Q450.1156,333.7656 450.0063,333.25 Q449.9594,332.8906 449.7719,332.7031 Q449.4438,332.3281 448.8344,332.1094 Q448.225,331.8906 447.6,331.8906 Q446.8344,331.8906 446.1938,332.2188 Q445.5688,332.5469 445.0688,333.2969 Q444.5844,334.0469 444.5844,335.0781 L444.5844,336.1719 Q444.5844,337.4063 445.475,338.2344 Q446.3656,339.0469 447.9594,339.0469 Q448.8969,339.0469 449.5531,338.7969 Q449.9438,338.6406 450.3656,338.2031 Q450.6313,337.9375 450.7719,337.8594 Q450.9281,337.7813 451.1313,337.7813 Q451.4594,337.7813 451.7094,338.0469 Q451.975,338.2969 451.975,338.6406 Q451.975,338.9844 451.6313,339.3906 Q451.1313,339.9688 450.3344,340.2969 Q449.2563,340.75 447.9594,340.75 Q446.4438,340.75 445.2406,340.125 Q444.2563,339.625 443.5688,338.5625 Q442.8813,337.4844 442.8813,336.2031 L442.8813,335.0469 Q442.8813,333.7188 443.4906,332.5781 Q444.1156,331.4219 445.2094,330.8125 Q446.3031,330.1875 447.5375,330.1875 Q448.2719,330.1875 448.9125,330.3594 Q449.5688,330.5156 450.1156,330.875 Z " fill="#000000"/><text fill="#000000" font-family="sans-serif" font-size="14" lengthAdjust="spacing" textLength="45" x="466.65" y="339.8535">Branch</text><line style="stroke:#181818;stroke-width:0.5;" x1="409.5" x2="537.5" y1="351" y2="351"/><line style="stroke:#181818;stroke-width:0.5;" x1="409.5" x2="537.5" y1="359" y2="359"/><ellipse cx="419.5" cy="372.3203" fill="#84BE84" rx="3" ry="3" style="stroke:#038048;stroke-width:1.0;"/><text fill="#000000" font-family="sans-serif" font-size="14" lengthAdjust="spacing" textLength="75" x="428.5" y="375.6738">getBranch()</text><ellipse cx="419.5" cy="387.9609" fill="#84BE84" rx="3" ry="3" style="stroke:#038048;stroke-width:1.0;"/><text fill="#000000" font-family="sans-serif" font-size="14" lengthAdjust="spacing" textLength="104" x="428.5" y="391.3145">creatEmployee()</text></g><!--class Store--><g id="elem_Store"><rect codeLine="45" fill="#F1F1F1" height="94.9219" id="Store" rx="2.5" ry="2.5" style="stroke:#181818;stroke-width:0.5;" width="164" x="391.5" y="459"/><ellipse cx="452.25" cy="475" fill="#ADD1B2" rx="11" ry="11" style="stroke:#181818;stroke-width:1.0;"/><path d="M455.0156,470.875 Q455.1719,470.6563 455.3594,470.5469 Q455.5469,470.4375 455.7656,470.4375 Q456.1406,470.4375 456.375,470.7031 Q456.6094,470.9531 456.6094,471.5625 L456.6094,473.0156 Q456.6094,473.625 456.375,473.8906 Q456.1406,474.1563 455.7656,474.1563 Q455.4219,474.1563 455.2188,473.9531 Q455.0156,473.7656 454.9063,473.25 Q454.8594,472.8906 454.6719,472.7031 Q454.3438,472.3281 453.7344,472.1094 Q453.125,471.8906 452.5,471.8906 Q451.7344,471.8906 451.0938,472.2188 Q450.4688,472.5469 449.9688,473.2969 Q449.4844,474.0469 449.4844,475.0781 L449.4844,476.1719 Q449.4844,477.4063 450.375,478.2344 Q451.2656,479.0469 452.8594,479.0469 Q453.7969,479.0469 454.4531,478.7969 Q454.8438,478.6406 455.2656,478.2031 Q455.5313,477.9375 455.6719,477.8594 Q455.8281,477.7813 456.0313,477.7813 Q456.3594,477.7813 456.6094,478.0469 Q456.875,478.2969 456.875,478.6406 Q456.875,478.9844 456.5313,479.3906 Q456.0313,479.9688 455.2344,480.2969 Q454.1563,480.75 452.8594,480.75 Q451.3438,480.75 450.1406,480.125 Q449.1563,479.625 448.4688,478.5625 Q447.7813,477.4844 447.7813,476.2031 L447.7813,475.0469 Q447.7813,473.7188 448.3906,472.5781 Q449.0156,471.4219 450.1094,470.8125 Q451.2031,470.1875 452.4375,470.1875 Q453.1719,470.1875 453.8125,470.3594 Q454.4688,470.5156 455.0156,470.875 Z " fill="#000000"/><text fill="#000000" font-family="sans-serif" font-size="14" lengthAdjust="spacing" textLength="34" x="472.75" y="479.8535">Store</text><line style="stroke:#181818;stroke-width:0.5;" x1="392.5" x2="554.5" y1="491" y2="491"/><line style="stroke:#181818;stroke-width:0.5;" x1="392.5" x2="554.5" y1="499" y2="499"/><ellipse cx="402.5" cy="512.3203" fill="#84BE84" rx="3" ry="3" style="stroke:#038048;stroke-width:1.0;"/><text fill="#000000" font-family="sans-serif" font-size="14" lengthAdjust="spacing" textLength="138" x="411.5" y="515.6738">getStoresBranchList()</text><ellipse cx="402.5" cy="527.9609" fill="#84BE84" rx="3" ry="3" style="stroke:#038048;stroke-width:1.0;"/><text fill="#000000" font-family="sans-serif" font-size="14" lengthAdjust="spacing" textLength="93" x="411.5" y="531.3145">getStoresList()</text><ellipse cx="402.5" cy="543.6016" fill="#84BE84" rx="3" ry="3" style="stroke:#038048;stroke-width:1.0;"/><text fill="#000000" font-family="sans-serif" font-size="14" lengthAdjust="spacing" textLength="104" x="411.5" y="546.9551">creatEmployee()</text></g><!--class Employee--><g id="elem_Employee"><rect codeLine="52" fill="#F1F1F1" height="141.8438" id="Employee" rx="2.5" ry="2.5" style="stroke:#181818;stroke-width:0.5;" width="148" x="399.5" y="630"/><ellipse cx="438.8" cy="646" fill="#A9DCDF" rx="11" ry="11" style="stroke:#181818;stroke-width:1.0;"/><path d="M440.9875,647.7656 L436.8469,647.7656 L436.425,648.7969 L436.8469,648.7969 Q437.4563,648.7969 437.7219,649.0313 Q437.9875,649.2656 437.9875,649.6563 Q437.9875,650.0313 437.7219,650.2656 Q437.4563,650.5 436.8469,650.5 L434.55,650.5 Q433.9406,650.5 433.6906,650.2656 Q433.425,650.0313 433.425,649.6406 Q433.425,649.2656 433.7063,649.0313 Q433.9719,648.7813 434.5969,648.7969 L437.2688,642.1406 L436.1594,642.1406 Q435.55,642.1406 435.2844,641.9063 Q435.0188,641.6719 435.0188,641.2813 Q435.0188,640.9063 435.2844,640.6719 Q435.55,640.4375 436.1594,640.4375 L439.8313,640.4375 L443.2219,648.7969 Q443.8156,648.7969 444.0031,648.9375 Q444.3938,649.2031 444.3938,649.6563 Q444.3938,650.0313 444.1281,650.2656 Q443.8781,650.5 443.2688,650.5 L440.9719,650.5 Q440.3625,650.5 440.0969,650.2656 Q439.8313,650.0313 439.8313,649.6406 Q439.8313,649.2656 440.0969,649.0313 Q440.3625,648.7969 440.9719,648.7969 L441.3938,648.7969 L440.9875,647.7656 Z M440.2688,646.0625 L438.9094,642.6875 L437.5344,646.0625 L440.2688,646.0625 Z " fill="#000000"/><text fill="#000000" font-family="sans-serif" font-size="14" font-style="italic" lengthAdjust="spacing" textLength="62" x="458.2" y="650.8535">Employee</text><line style="stroke:#181818;stroke-width:0.5;" x1="400.5" x2="546.5" y1="662" y2="662"/><rect fill="none" height="6" style="stroke:#C82930;stroke-width:1.0;" width="6" x="407.5" y="672.3203"/><text fill="#000000" font-family="sans-serif" font-size="14" lengthAdjust="spacing" textLength="76" x="419.5" y="678.6738">String name</text><rect fill="none" height="6" style="stroke:#C82930;stroke-width:1.0;" width="6" x="407.5" y="687.9609"/><text fill="#000000" font-family="sans-serif" font-size="14" lengthAdjust="spacing" textLength="122" x="419.5" y="694.3145">int civilCardNumber</text><rect fill="none" height="6" style="stroke:#C82930;stroke-width:1.0;" width="6" x="407.5" y="703.6016"/><text fill="#000000" font-family="sans-serif" font-size="14" lengthAdjust="spacing" textLength="86" x="419.5" y="709.9551">int taxNumber</text><rect fill="none" height="6" style="stroke:#C82930;stroke-width:1.0;" width="6" x="407.5" y="719.2422"/><text fill="#000000" font-family="sans-serif" font-size="14" lengthAdjust="spacing" textLength="85" x="419.5" y="725.5957">String Adress</text><rect fill="none" height="6" style="stroke:#C82930;stroke-width:1.0;" width="6" x="407.5" y="734.8828"/><text fill="#000000" font-family="sans-serif" font-size="14" lengthAdjust="spacing" textLength="71" x="419.5" y="741.2363">Email email</text><rect fill="none" height="6" style="stroke:#C82930;stroke-width:1.0;" width="6" x="407.5" y="750.5234"/><text fill="#000000" font-family="sans-serif" font-size="14" lengthAdjust="spacing" textLength="108" x="419.5" y="756.877">int phoneNumber</text><line style="stroke:#181818;stroke-width:0.5;" x1="400.5" x2="546.5" y1="763.8438" y2="763.8438"/></g><!--class NetworkManager--><g id="elem_NetworkManager"><rect codeLine="61" fill="#F1F1F1" height="48" id="NetworkManager" rx="2.5" ry="2.5" style="stroke:#181818;stroke-width:0.5;" width="138" x="144.5" y="848"/><ellipse cx="159.5" cy="864" fill="#ADD1B2" rx="11" ry="11" style="stroke:#181818;stroke-width:1.0;"/><path d="M162.2656,859.875 Q162.4219,859.6563 162.6094,859.5469 Q162.7969,859.4375 163.0156,859.4375 Q163.3906,859.4375 163.625,859.7031 Q163.8594,859.9531 163.8594,860.5625 L163.8594,862.0156 Q163.8594,862.625 163.625,862.8906 Q163.3906,863.1563 163.0156,863.1563 Q162.6719,863.1563 162.4688,862.9531 Q162.2656,862.7656 162.1563,862.25 Q162.1094,861.8906 161.9219,861.7031 Q161.5938,861.3281 160.9844,861.1094 Q160.375,860.8906 159.75,860.8906 Q158.9844,860.8906 158.3438,861.2188 Q157.7188,861.5469 157.2188,862.2969 Q156.7344,863.0469 156.7344,864.0781 L156.7344,865.1719 Q156.7344,866.4063 157.625,867.2344 Q158.5156,868.0469 160.1094,868.0469 Q161.0469,868.0469 161.7031,867.7969 Q162.0938,867.6406 162.5156,867.2031 Q162.7813,866.9375 162.9219,866.8594 Q163.0781,866.7813 163.2813,866.7813 Q163.6094,866.7813 163.8594,867.0469 Q164.125,867.2969 164.125,867.6406 Q164.125,867.9844 163.7813,868.3906 Q163.2813,868.9688 162.4844,869.2969 Q161.4063,869.75 160.1094,869.75 Q158.5938,869.75 157.3906,869.125 Q156.4063,868.625 155.7188,867.5625 Q155.0313,866.4844 155.0313,865.2031 L155.0313,864.0469 Q155.0313,862.7188 155.6406,861.5781 Q156.2656,860.4219 157.3594,859.8125 Q158.4531,859.1875 159.6875,859.1875 Q160.4219,859.1875 161.0625,859.3594 Q161.7188,859.5156 162.2656,859.875 Z " fill="#000000"/><text fill="#000000" font-family="sans-serif" font-size="14" lengthAdjust="spacing" textLength="106" x="173.5" y="868.8535">NetworkManager</text><line style="stroke:#181818;stroke-width:0.5;" x1="145.5" x2="281.5" y1="880" y2="880"/><line style="stroke:#181818;stroke-width:0.5;" x1="145.5" x2="281.5" y1="888" y2="888"/></g><!--class SystemAdministrator--><g id="elem_SystemAdministrator"><rect codeLine="64" fill="#F1F1F1" height="48" id="SystemAdministrator" rx="2.5" ry="2.5" style="stroke:#181818;stroke-width:0.5;" width="161" x="318" y="848"/><ellipse cx="333" cy="864" fill="#ADD1B2" rx="11" ry="11" style="stroke:#181818;stroke-width:1.0;"/><path d="M335.7656,859.875 Q335.9219,859.6563 336.1094,859.5469 Q336.2969,859.4375 336.5156,859.4375 Q336.8906,859.4375 337.125,859.7031 Q337.3594,859.9531 337.3594,860.5625 L337.3594,862.0156 Q337.3594,862.625 337.125,862.8906 Q336.8906,863.1563 336.5156,863.1563 Q336.1719,863.1563 335.9688,862.9531 Q335.7656,862.7656 335.6563,862.25 Q335.6094,861.8906 335.4219,861.7031 Q335.0938,861.3281 334.4844,861.1094 Q333.875,860.8906 333.25,860.8906 Q332.4844,860.8906 331.8438,861.2188 Q331.2188,861.5469 330.7188,862.2969 Q330.2344,863.0469 330.2344,864.0781 L330.2344,865.1719 Q330.2344,866.4063 331.125,867.2344 Q332.0156,868.0469 333.6094,868.0469 Q334.5469,868.0469 335.2031,867.7969 Q335.5938,867.6406 336.0156,867.2031 Q336.2813,866.9375 336.4219,866.8594 Q336.5781,866.7813 336.7813,866.7813 Q337.1094,866.7813 337.3594,867.0469 Q337.625,867.2969 337.625,867.6406 Q337.625,867.9844 337.2813,868.3906 Q336.7813,868.9688 335.9844,869.2969 Q334.9063,869.75 333.6094,869.75 Q332.0938,869.75 330.8906,869.125 Q329.9063,868.625 329.2188,867.5625 Q328.5313,866.4844 328.5313,865.2031 L328.5313,864.0469 Q328.5313,862.7188 329.1406,861.5781 Q329.7656,860.4219 330.8594,859.8125 Q331.9531,859.1875 333.1875,859.1875 Q333.9219,859.1875 334.5625,859.3594 Q335.2188,859.5156 335.7656,859.875 Z " fill="#000000"/><text fill="#000000" font-family="sans-serif" font-size="14" lengthAdjust="spacing" textLength="129" x="347" y="868.8535">SystemAdministrator</text><line style="stroke:#181818;stroke-width:0.5;" x1="319" x2="478" y1="880" y2="880"/><line style="stroke:#181818;stroke-width:0.5;" x1="319" x2="478" y1="888" y2="888"/></g><!--class Agent--><g id="elem_Agent"><rect codeLine="67" fill="#F1F1F1" height="48" id="Agent" rx="2.5" ry="2.5" style="stroke:#181818;stroke-width:0.5;" width="69" x="514" y="848"/><ellipse cx="529" cy="864" fill="#ADD1B2" rx="11" ry="11" style="stroke:#181818;stroke-width:1.0;"/><path d="M531.7656,859.875 Q531.9219,859.6563 532.1094,859.5469 Q532.2969,859.4375 532.5156,859.4375 Q532.8906,859.4375 533.125,859.7031 Q533.3594,859.9531 533.3594,860.5625 L533.3594,862.0156 Q533.3594,862.625 533.125,862.8906 Q532.8906,863.1563 532.5156,863.1563 Q532.1719,863.1563 531.9688,862.9531 Q531.7656,862.7656 531.6563,862.25 Q531.6094,861.8906 531.4219,861.7031 Q531.0938,861.3281 530.4844,861.1094 Q529.875,860.8906 529.25,860.8906 Q528.4844,860.8906 527.8438,861.2188 Q527.2188,861.5469 526.7188,862.2969 Q526.2344,863.0469 526.2344,864.0781 L526.2344,865.1719 Q526.2344,866.4063 527.125,867.2344 Q528.0156,868.0469 529.6094,868.0469 Q530.5469,868.0469 531.2031,867.7969 Q531.5938,867.6406 532.0156,867.2031 Q532.2813,866.9375 532.4219,866.8594 Q532.5781,866.7813 532.7813,866.7813 Q533.1094,866.7813 533.3594,867.0469 Q533.625,867.2969 533.625,867.6406 Q533.625,867.9844 533.2813,868.3906 Q532.7813,868.9688 531.9844,869.2969 Q530.9063,869.75 529.6094,869.75 Q528.0938,869.75 526.8906,869.125 Q525.9063,868.625 525.2188,867.5625 Q524.5313,866.4844 524.5313,865.2031 L524.5313,864.0469 Q524.5313,862.7188 525.1406,861.5781 Q525.7656,860.4219 526.8594,859.8125 Q527.9531,859.1875 529.1875,859.1875 Q529.9219,859.1875 530.5625,859.3594 Q531.2188,859.5156 531.7656,859.875 Z " fill="#000000"/><text fill="#000000" font-family="sans-serif" font-size="14" lengthAdjust="spacing" textLength="37" x="543" y="868.8535">Agent</text><line style="stroke:#181818;stroke-width:0.5;" x1="515" x2="582" y1="880" y2="880"/><line style="stroke:#181818;stroke-width:0.5;" x1="515" x2="582" y1="888" y2="888"/></g><!--class StoreManager--><g id="elem_StoreManager"><rect codeLine="70" fill="#F1F1F1" height="48" id="StoreManager" rx="2.5" ry="2.5" style="stroke:#181818;stroke-width:0.5;" width="122" x="618.5" y="848"/><ellipse cx="633.5" cy="864" fill="#ADD1B2" rx="11" ry="11" style="stroke:#181818;stroke-width:1.0;"/><path d="M636.2656,859.875 Q636.4219,859.6563 636.6094,859.5469 Q636.7969,859.4375 637.0156,859.4375 Q637.3906,859.4375 637.625,859.7031 Q637.8594,859.9531 637.8594,860.5625 L637.8594,862.0156 Q637.8594,862.625 637.625,862.8906 Q637.3906,863.1563 637.0156,863.1563 Q636.6719,863.1563 636.4688,862.9531 Q636.2656,862.7656 636.1563,862.25 Q636.1094,861.8906 635.9219,861.7031 Q635.5938,861.3281 634.9844,861.1094 Q634.375,860.8906 633.75,860.8906 Q632.9844,860.8906 632.3438,861.2188 Q631.7188,861.5469 631.2188,862.2969 Q630.7344,863.0469 630.7344,864.0781 L630.7344,865.1719 Q630.7344,866.4063 631.625,867.2344 Q632.5156,868.0469 634.1094,868.0469 Q635.0469,868.0469 635.7031,867.7969 Q636.0938,867.6406 636.5156,867.2031 Q636.7813,866.9375 636.9219,866.8594 Q637.0781,866.7813 637.2813,866.7813 Q637.6094,866.7813 637.8594,867.0469 Q638.125,867.2969 638.125,867.6406 Q638.125,867.9844 637.7813,868.3906 Q637.2813,868.9688 636.4844,869.2969 Q635.4063,869.75 634.1094,869.75 Q632.5938,869.75 631.3906,869.125 Q630.4063,868.625 629.7188,867.5625 Q629.0313,866.4844 629.0313,865.2031 L629.0313,864.0469 Q629.0313,862.7188 629.6406,861.5781 Q630.2656,860.4219 631.3594,859.8125 Q632.4531,859.1875 633.6875,859.1875 Q634.4219,859.1875 635.0625,859.3594 Q635.7188,859.5156 636.2656,859.875 Z " fill="#000000"/><text fill="#000000" font-family="sans-serif" font-size="14" lengthAdjust="spacing" textLength="90" x="647.5" y="868.8535">StoreManager</text><line style="stroke:#181818;stroke-width:0.5;" x1="619.5" x2="739.5" y1="880" y2="880"/><line style="stroke:#181818;stroke-width:0.5;" x1="619.5" x2="739.5" y1="888" y2="888"/></g><!--link RegisterEmployeeUI to RegisterPropertySaleController--><g id="link_RegisterEmployeeUI_RegisterPropertySaleController"><path codeLine="74" d="M166.11,62.5 C171.56,62.5 183.08,62.5 195.41,62.5 " fill="none" id="RegisterEmployeeUI-to-RegisterPropertySaleController" style="stroke:#181818;stroke-width:1.0;stroke-dasharray:7.0,7.0;"/><polygon fill="#181818" points="200.72,62.5,191.72,58.5,195.72,62.5,191.72,66.5,200.72,62.5" style="stroke:#181818;stroke-width:1.0;"/></g><!--link RegisterPropertySaleController to Repositories--><g id="link_RegisterPropertySaleController_Repositories"><path codeLine="77" d="M430.31,62.5 C462.31,62.5 496.9,62.5 528.32,62.5 " fill="none" id="RegisterPropertySaleController-to-Repositories" style="stroke:#181818;stroke-width:1.0;stroke-dasharray:7.0,7.0;"/><polygon fill="#181818" points="533.33,62.5,524.33,58.5,528.33,62.5,524.33,66.5,533.33,62.5" style="stroke:#181818;stroke-width:1.0;"/><text fill="#000000" font-family="sans-serif" font-size="13" lengthAdjust="spacing" textLength="67" x="448.25" y="56.2686">repositories</text></g><!--link Repositories to Repositories--><g id="link_Repositories_Repositories"><path codeLine="78" d="M733.59,46.99 C753.93,48.68 768.5,53.85 768.5,62.5 C768.5,70.41 756.33,75.41 738.7,77.5 " fill="none" id="Repositories-to-Repositories" style="stroke:#181818;stroke-width:1.0;"/><polygon fill="#181818" points="733.59,78.01,742.9363,81.1159,738.5663,77.5238,742.1584,73.1538,733.59,78.01" style="stroke:#181818;stroke-width:1.0;"/><text fill="#000000" font-family="sans-serif" font-size="13" lengthAdjust="spacing" textLength="49" x="774.5" y="67.2686">instance</text></g><!--link Repositories to BranchesRepository--><g id="link_Repositories_BranchesRepository"><path codeLine="79" d="M576.64,118.23 C557.1,137.03 535.55,157.77 517.22,175.41 " fill="none" id="Repositories-to-BranchesRepository" style="stroke:#181818;stroke-width:1.0;"/><polygon fill="#181818" points="513.6,178.9,522.8551,175.5322,517.1992,175.4293,517.3021,169.7734,513.6,178.9" style="stroke:#181818;stroke-width:1.0;"/><text fill="#000000" font-family="sans-serif" font-size="13" lengthAdjust="spacing" textLength="7" x="513.1194" y="168.3895">1</text></g><!--link BranchesRepository to StoreNetwork--><g id="link_BranchesRepository_Branch"><path codeLine="85" d="M473.5,258.31 C473.5,275.5 473.5,295.81 473.5,313.56 " fill="none" id="BranchesRepository-to-Branch" style="stroke:#181818;stroke-width:1.0;"/><polygon fill="#181818" points="473.5,318.98,477.5,309.98,473.5,313.98,469.5,309.98,473.5,318.98" style="stroke:#181818;stroke-width:1.0;"/><text fill="#000000" font-family="sans-serif" font-size="13" lengthAdjust="spacing" textLength="5" x="468.0391" y="308.1938">*</text></g><!--link StoreNetwork to Store--><g id="link_Branch_Store"><path codeLine="86" d="M473.5,398.24 C473.5,415.23 473.5,435.42 473.5,453.67 " fill="none" id="Branch-to-Store" style="stroke:#181818;stroke-width:1.0;"/><polygon fill="#181818" points="473.5,458.77,477.5,449.77,473.5,453.77,469.5,449.77,473.5,458.77" style="stroke:#181818;stroke-width:1.0;"/><text fill="#000000" font-family="sans-serif" font-size="13" lengthAdjust="spacing" textLength="5" x="468.1172" y="448.2041">*</text></g><!--link Store to Employee--><g id="link_Store_Employee"><path codeLine="87" d="M473.5,554.1 C473.5,575.29 473.5,600.9 473.5,624.72 " fill="none" id="Store-to-Employee" style="stroke:#181818;stroke-width:1.0;"/><polygon fill="#181818" points="473.5,629.77,477.5,620.77,473.5,624.77,469.5,620.77,473.5,629.77" style="stroke:#181818;stroke-width:1.0;"/><text fill="#000000" font-family="sans-serif" font-size="13" lengthAdjust="spacing" textLength="51" x="474.5" y="596.7686">Employs</text><text fill="#000000" font-family="sans-serif" font-size="13" lengthAdjust="spacing" textLength="5" x="468.2266" y="619.0193">*</text></g><!--reverse link Employee to NetworkManager--><g id="link_Employee_NetworkManager"><path codeLine="91" d="M382.46,761.18 C336.51,791.04 283.4,825.56 249.18,847.81 " fill="none" id="Employee-backto-NetworkManager" style="stroke:#181818;stroke-width:1.0;"/><polygon fill="none" points="378.76,755.23,399.34,750.2,386.39,766.97,378.76,755.23" style="stroke:#181818;stroke-width:1.0;"/><text fill="#000000" font-family="sans-serif" font-size="13" lengthAdjust="spacing" textLength="46" x="314.5" y="814.7686">extends</text></g><!--reverse link Employee to SystemAdministrator--><g id="link_Employee_SystemAdministrator"><path codeLine="92" d="M434.12,790.75 C424.73,811.9 415.5,832.69 408.79,847.81 " fill="none" id="Employee-backto-SystemAdministrator" style="stroke:#181818;stroke-width:1.0;"/><polygon fill="none" points="427.83,787.64,442.34,772.2,440.63,793.32,427.83,787.64" style="stroke:#181818;stroke-width:1.0;"/><text fill="#000000" font-family="sans-serif" font-size="13" lengthAdjust="spacing" textLength="46" x="428.5" y="814.7686">extends</text></g><!--reverse link Employee to StoreManager--><g id="link_Employee_StoreManager"><path codeLine="93" d="M563.45,775.79 C595.15,801.8 628.53,829.19 651.31,847.87 " fill="none" id="Employee-backto-StoreManager" style="stroke:#181818;stroke-width:1.0;"/><polygon fill="none" points="558.6,780.87,547.58,762.77,567.48,770.05,558.6,780.87" style="stroke:#181818;stroke-width:1.0;"/><text fill="#000000" font-family="sans-serif" font-size="13" lengthAdjust="spacing" textLength="46" x="613.5" y="814.7686">extends</text></g><!--reverse link Employee to Agent--><g id="link_Employee_Agent"><path codeLine="94" d="M512.88,790.75 C522.27,811.9 531.5,832.69 538.21,847.81 " fill="none" id="Employee-backto-Agent" style="stroke:#181818;stroke-width:1.0;"/><polygon fill="none" points="506.37,793.32,504.66,772.2,519.17,787.64,506.37,793.32" style="stroke:#181818;stroke-width:1.0;"/><text fill="#000000" font-family="sans-serif" font-size="13" lengthAdjust="spacing" textLength="46" x="524.5" y="814.7686">extends</text></g><!--link RegisterPropertySaleController to BranchesRepository--><g id="link_RegisterPropertySaleController_BranchesRepository"><path codeLine="102" d="M347.47,94.66 C371.19,117.78 403.81,149.57 429.92,175.02 " fill="none" id="RegisterPropertySaleController-to-BranchesRepository" style="stroke:#181818;stroke-width:1.0;stroke-dasharray:7.0,7.0;"/><polygon fill="#181818" points="433.72,178.73,430.0548,169.5885,430.1348,175.2448,424.4785,175.3248,433.72,178.73" style="stroke:#181818;stroke-width:1.0;"/></g><!--SRC=[XLDBRzim3BxhLn2zj5tXeRi6mu2qw270MWmBTYuKcRM5w65Gp5elst-V_8pYk8qFWSNl4OhyV1cssbMIf0NhdLSbUOl0j4DnG2gfjhB0DTS6WL2nT8L92Q6KkN_Lhe0NQKAA6EsGwmgXygPk3k9o1lJ4NgI8CZA49JFfpOvnfRnRwpy8jv5ay8M1FP0kIePSD_rexuGGhGX-Og438ptOolWQyTSAzkBV2Vo3V8N4zLeQlFUEoHk3j1VFp-862kGrUy9mHzAfydjKN5qt9eD7vOEE18q1MacMbYArjLYv42UbyEeQ5aUQ3kwyCOn87OLjfsEpfnGuT3Y0fklkRDTTzSIWbIf2oSF4Kb5h21-E9QcFbHa_kGbCKZ4CvUYQHNzgOkEanNZIZa7ftzhSIygVTdQ3r5TPletdNhFCup-6U7wmKXl0vhTdLwLtsFF7gpmXlthQFaeNiqnTAFfBrZ4HTfbRxNJJPBnB2YyBZ9xxoL2EVCHCwZv_EnEsH3PFw2oIh2tYrvV4w0ZBfbpTnsz2YxoBBnSpqUg2DnEvLl9faFICiTeEGtGv6MhZYXVzQsYin-hNlrasNSS2y8tHvM52czlDkznqB- -HkcqUqFuvjucuYjcH_GS0]--></g></svg>