<?xml version="1.0" encoding="us-ascii" standalone="no"?><svg xmlns="http://www.w3.org/2000/svg" xmlns:xlink="http://www.w3.org/1999/xlink" contentStyleType="text/css" height="1155px" preserveAspectRatio="none" style="width:798px;height:1155px;background:#FFFFFF;" version="1.1" viewBox="0 0 798 1155" width="798px" zoomAndPan="magnify"><defs/><g><!--class User--><g id="elem_User"><rect codeLine="18" fill="#F1F1F1" height="148.3477" id="User" rx="2.5" ry="2.5" style="stroke:#181818;stroke-width:0.5;" width="131" x="599.5" y="7"/><text fill="#000000" font-family="sans-serif" font-size="14" lengthAdjust="spacing" textLength="29" x="650.5" y="27.1074">User</text><line style="stroke:#181818;stroke-width:0.5;" x1="600.5" x2="729.5" y1="35.6211" y2="35.6211"/><text fill="#000000" font-family="sans-serif" font-size="14" lengthAdjust="spacing" textLength="35" x="605.5" y="54.7285">name</text><text fill="#000000" font-family="sans-serif" font-size="14" lengthAdjust="spacing" textLength="85" x="605.5" y="73.3496">emailAddress</text><text fill="#000000" font-family="sans-serif" font-size="14" lengthAdjust="spacing" textLength="115" x="605.5" y="91.9707">telephone number</text><text fill="#000000" font-family="sans-serif" font-size="14" lengthAdjust="spacing" textLength="119" x="605.5" y="110.5918">citizenCardNumber</text><text fill="#000000" font-family="sans-serif" font-size="14" lengthAdjust="spacing" textLength="67" x="605.5" y="129.2129">taxNumber</text><text fill="#000000" font-family="sans-serif" font-size="14" lengthAdjust="spacing" textLength="51" x="605.5" y="147.834">address</text></g><!--class Employee--><g id="elem_Employee"><rect codeLine="27" fill="#F1F1F1" height="73.8633" id="Employee" rx="2.5" ry="2.5" style="stroke:#181818;stroke-width:0.5;" width="68" x="587" y="216"/><text fill="#000000" font-family="sans-serif" font-size="14" lengthAdjust="spacing" textLength="62" x="590" y="236.1074">Employee</text><line style="stroke:#181818;stroke-width:0.5;" x1="588" x2="654" y1="244.6211" y2="244.6211"/><text fill="#000000" font-family="sans-serif" font-size="14" lengthAdjust="spacing" textLength="46" x="593" y="263.7285">agency</text><text fill="#000000" font-family="sans-serif" font-size="14" lengthAdjust="spacing" textLength="24" x="593" y="282.3496">role</text></g><!--class Agent--><g id="elem_Agent"><rect codeLine="33" fill="#F1F1F1" height="36.6211" id="Agent" rx="2.5" ry="2.5" style="stroke:#181818;stroke-width:0.5;" width="43" x="596.5" y="387"/><text fill="#000000" font-family="sans-serif" font-size="14" lengthAdjust="spacing" textLength="37" x="599.5" y="407.1074">Agent</text><line style="stroke:#181818;stroke-width:0.5;" x1="597.5" x2="638.5" y1="415.6211" y2="415.6211"/></g><!--class PropertySale--><g id="elem_PropertySale"><rect codeLine="37" fill="#F1F1F1" height="129.7266" id="PropertySale" rx="2.5" ry="2.5" style="stroke:#181818;stroke-width:0.5;" width="157" x="404.5" y="503"/><text fill="#000000" font-family="sans-serif" font-size="14" lengthAdjust="spacing" textLength="82" x="442" y="523.1074">PropertySale</text><line style="stroke:#181818;stroke-width:0.5;" x1="405.5" x2="560.5" y1="531.6211" y2="531.6211"/><text fill="#000000" font-family="sans-serif" font-size="14" lengthAdjust="spacing" textLength="145" x="410.5" y="550.7285">dateAnnounceRequest</text><text fill="#000000" font-family="sans-serif" font-size="14" lengthAdjust="spacing" textLength="73" x="410.5" y="569.3496">commission</text><text fill="#000000" font-family="sans-serif" font-size="14" lengthAdjust="spacing" textLength="118" x="410.5" y="587.9707">typeOfCommission</text><text fill="#000000" font-family="sans-serif" font-size="14" lengthAdjust="spacing" textLength="31" x="410.5" y="606.5918">price</text><text fill="#000000" font-family="sans-serif" font-size="14" lengthAdjust="spacing" textLength="105" x="410.5" y="625.2129">contractDuration</text></g><!--class PurchaseRequest--><g id="elem_PurchaseRequest"><rect codeLine="45" fill="#F1F1F1" height="73.8633" id="PurchaseRequest" rx="2.5" ry="2.5" style="stroke:#181818;stroke-width:0.5;" width="119" x="596.5" y="531"/><text fill="#000000" font-family="sans-serif" font-size="14" lengthAdjust="spacing" textLength="113" x="599.5" y="551.1074">PurchaseRequest</text><line style="stroke:#181818;stroke-width:0.5;" x1="597.5" x2="714.5" y1="559.6211" y2="559.6211"/><text fill="#000000" font-family="sans-serif" font-size="14" lengthAdjust="spacing" textLength="82" x="602.5" y="578.7285">orderAmount</text><text fill="#000000" font-family="sans-serif" font-size="14" lengthAdjust="spacing" textLength="11" x="602.5" y="597.3496">id</text></g><!--class Client--><g id="elem_Client"><rect codeLine="50" fill="#F1F1F1" height="36.6211" id="Client" rx="2.5" ry="2.5" style="stroke:#181818;stroke-width:0.5;" width="42" x="711" y="320"/><text fill="#000000" font-family="sans-serif" font-size="14" lengthAdjust="spacing" textLength="36" x="714" y="340.1074">Client</text><line style="stroke:#181818;stroke-width:0.5;" x1="712" x2="752" y1="348.6211" y2="348.6211"/></g><!--class Property--><g id="elem_Property"><rect codeLine="54" fill="#F1F1F1" height="111.1055" id="Property" rx="2.5" ry="2.5" style="stroke:#181818;stroke-width:0.5;" width="165" x="310.5" y="712"/><text fill="#000000" font-family="sans-serif" font-size="14" lengthAdjust="spacing" textLength="54" x="366" y="732.1074">Property</text><line style="stroke:#181818;stroke-width:0.5;" x1="311.5" x2="474.5" y1="740.6211" y2="740.6211"/><text fill="#000000" font-family="sans-serif" font-size="14" lengthAdjust="spacing" textLength="29" x="316.5" y="759.7285">area</text><text fill="#000000" font-family="sans-serif" font-size="14" lengthAdjust="spacing" textLength="49" x="316.5" y="778.3496">location</text><text fill="#000000" font-family="sans-serif" font-size="14" lengthAdjust="spacing" textLength="153" x="316.5" y="796.9707">distanceFromCityCenter</text><text fill="#000000" font-family="sans-serif" font-size="14" lengthAdjust="spacing" textLength="80" x="316.5" y="815.5918">photographs</text></g><!--class ResidentialProperty--><g id="elem_ResidentialProperty"><rect codeLine="61" fill="#F1F1F1" height="111.1055" id="ResidentialProperty" rx="2.5" ry="2.5" style="stroke:#181818;stroke-width:0.5;" width="170" x="308" y="884"/><text fill="#000000" font-family="sans-serif" font-size="14" lengthAdjust="spacing" textLength="124" x="331" y="904.1074">ResidentialProperty</text><line style="stroke:#181818;stroke-width:0.5;" x1="309" x2="477" y1="912.6211" y2="912.6211"/><text fill="#000000" font-family="sans-serif" font-size="14" lengthAdjust="spacing" textLength="127" x="314" y="931.7285">numberOfBedrooms</text><text fill="#000000" font-family="sans-serif" font-size="14" lengthAdjust="spacing" textLength="131" x="314" y="950.3496">numberOfBathrooms</text><text fill="#000000" font-family="sans-serif" font-size="14" lengthAdjust="spacing" textLength="158" x="314" y="968.9707">numberOfParkingSpaces</text><text fill="#000000" font-family="sans-serif" font-size="14" lengthAdjust="spacing" textLength="123" x="314" y="987.5918">availableEquipment</text></g><!--class House--><g id="elem_House"><rect codeLine="68" fill="#F1F1F1" height="92.4844" id="House" rx="2.5" ry="2.5" style="stroke:#181818;stroke-width:0.5;" width="179" x="303.5" y="1056"/><text fill="#000000" font-family="sans-serif" font-size="14" lengthAdjust="spacing" textLength="40" x="373" y="1076.1074">House</text><line style="stroke:#181818;stroke-width:0.5;" x1="304.5" x2="481.5" y1="1084.6211" y2="1084.6211"/><text fill="#000000" font-family="sans-serif" font-size="14" lengthAdjust="spacing" textLength="82" x="309.5" y="1103.7285">sunExposure</text><text fill="#000000" font-family="sans-serif" font-size="14" lengthAdjust="spacing" textLength="137" x="309.5" y="1122.3496">existenceOfBasement</text><text fill="#000000" font-family="sans-serif" font-size="14" lengthAdjust="spacing" textLength="167" x="309.5" y="1140.9707">existenceOfInhabitableLoft</text></g><!--class State--><g id="elem_State"><rect codeLine="74" fill="#F1F1F1" height="55.2422" id="State" rx="2.5" ry="2.5" style="stroke:#181818;stroke-width:0.5;" width="80" x="132" y="740"/><text fill="#000000" font-family="sans-serif" font-size="14" lengthAdjust="spacing" textLength="33" x="155.5" y="760.1074">State</text><line style="stroke:#181818;stroke-width:0.5;" x1="133" x2="211" y1="768.6211" y2="768.6211"/><text fill="#000000" font-family="sans-serif" font-size="14" lengthAdjust="spacing" textLength="68" x="138" y="787.7285">nameState</text></g><!--class District--><g id="elem_District"><rect codeLine="78" fill="#F1F1F1" height="55.2422" id="District" rx="2.5" ry="2.5" style="stroke:#181818;stroke-width:0.5;" width="90" x="7" y="740"/><text fill="#000000" font-family="sans-serif" font-size="14" lengthAdjust="spacing" textLength="43" x="30.5" y="760.1074">District</text><line style="stroke:#181818;stroke-width:0.5;" x1="8" x2="96" y1="768.6211" y2="768.6211"/><text fill="#000000" font-family="sans-serif" font-size="14" lengthAdjust="spacing" textLength="78" x="13" y="787.7285">nameDistrict</text></g><!--class City--><g id="elem_City"><rect codeLine="82" fill="#F1F1F1" height="55.2422" id="City" rx="2.5" ry="2.5" style="stroke:#181818;stroke-width:0.5;" width="71" x="298.5" y="540.5"/><text fill="#000000" font-family="sans-serif" font-size="14" lengthAdjust="spacing" textLength="24" x="322" y="560.6074">City</text><line style="stroke:#181818;stroke-width:0.5;" x1="299.5" x2="368.5" y1="569.1211" y2="569.1211"/><text fill="#000000" font-family="sans-serif" font-size="14" lengthAdjust="spacing" textLength="59" x="304.5" y="588.2285">nameCity</text></g><!--reverse link User to Client--><g id="link_User_Client"><path codeLine="87" d="M689.32,174.75 C703.3,228.06 719.59,290.17 727.38,319.9 " fill="none" id="User-backto-Client" style="stroke:#181818;stroke-width:1.0;"/><polygon fill="none" points="682.5,176.34,684.2,155.22,696.04,172.79,682.5,176.34" style="stroke:#181818;stroke-width:1.0;"/></g><!--reverse link User to Employee--><g id="link_User_Employee"><path codeLine="88" d="M641.07,174.46 C637.26,189.18 633.53,203.6 630.33,215.93 " fill="none" id="User-backto-Employee" style="stroke:#181818;stroke-width:1.0;"/><polygon fill="none" points="634.3,172.69,646.08,155.08,647.85,176.2,634.3,172.69" style="stroke:#181818;stroke-width:1.0;"/></g><!--reverse link ResidentialProperty to House--><g id="link_ResidentialProperty_House"><path codeLine="90" d="M393,1015.71 C393,1029.41 393,1043.3 393,1055.78 " fill="none" id="ResidentialProperty-backto-House" style="stroke:#181818;stroke-width:1.0;"/><polygon fill="none" points="386,1015.29,393,995.29,400,1015.29,386,1015.29" style="stroke:#181818;stroke-width:1.0;"/></g><!--reverse link Property to ResidentialProperty--><g id="link_Property_ResidentialProperty"><path codeLine="91" d="M393,843.43 C393,857.03 393,870.99 393,883.88 " fill="none" id="Property-backto-ResidentialProperty" style="stroke:#181818;stroke-width:1.0;"/><polygon fill="none" points="386,843.22,393,823.22,400,843.22,386,843.22" style="stroke:#181818;stroke-width:1.0;"/></g><!--link Client to PurchaseRequest--><g id="link_Client_PurchaseRequest"><path codeLine="93" d="M730.45,357.24 C727.79,383.25 721.2,433 707,473 C699.92,492.95 689.03,513.77 679.13,530.73 " fill="none" id="Client-PurchaseRequest" style="stroke:#181818;stroke-width:1.0;"/><polygon fill="#000000" points="729.5817,410.4401,734.9656,402.6002,729.3292,400.9329,729.5817,410.4401" style="stroke:#000000;stroke-width:1.0;"/><text fill="#000000" font-family="sans-serif" font-size="13" lengthAdjust="spacing" textLength="50" x="740" y="411.0283">requests</text></g><!--reverse link Employee to Agent--><g id="link_Employee_Agent"><path codeLine="95" d="M619.88,310.33 C619.34,337.49 618.72,368.17 618.35,386.92 " fill="none" id="Employee-backto-Agent" style="stroke:#181818;stroke-width:1.0;"/><polygon fill="none" points="612.88,309.9,620.28,290.05,626.88,310.18,612.88,309.9" style="stroke:#181818;stroke-width:1.0;"/></g><!--link Agent to PropertySale--><g id="link_Agent_PropertySale"><path codeLine="97" d="M596.17,408.21 C567.9,411.68 519.37,422.21 495,454 C484.38,467.86 479.67,485.64 478.05,502.97 " fill="none" id="Agent-PropertySale" style="stroke:#181818;stroke-width:1.0;stroke-dasharray:7.0,7.0;"/><polygon fill="#000000" points="496.0999,466.7743,504.9943,463.4067,501.3162,458.8219,496.0999,466.7743" style="stroke:#000000;stroke-width:1.0;"/><text fill="#000000" font-family="sans-serif" font-size="13" lengthAdjust="spacing" textLength="50" x="509" y="469.0283">registers</text></g><!--link Agent to PurchaseRequest--><g id="link_Agent_PurchaseRequest"><path codeLine="98" d="M596.37,420.46 C579.81,433.07 561.05,452.7 569,473 C577.6,494.95 593.99,514.83 610.25,530.61 " fill="none" id="Agent-PurchaseRequest" style="stroke:#181818;stroke-width:1.0;stroke-dasharray:7.0,7.0;"/><polygon fill="#000000" points="574.6251,468.6063,576.4101,459.2647,570.5784,459.9996,574.6251,468.6063" style="stroke:#000000;stroke-width:1.0;"/><text fill="#000000" font-family="sans-serif" font-size="13" lengthAdjust="spacing" textLength="44" x="583" y="469.0283">aproves</text></g><!--link Agent to PurchaseRequest--><g id="link_Agent_PurchaseRequest"><path codeLine="99" d="M623.51,424.01 C626.23,432.94 629.47,444 632,454 C638.47,479.57 644.63,508.68 649.08,530.96 " fill="none" id="Agent-PurchaseRequest-1" style="stroke:#181818;stroke-width:1.0;stroke-dasharray:7.0,7.0;"/><polygon fill="#000000" points="640.8373,458.7826,640.0822,468.2631,645.799,466.8963,640.8373,458.7826" style="stroke:#000000;stroke-width:1.0;"/><text fill="#000000" font-family="sans-serif" font-size="13" lengthAdjust="spacing" textLength="47" x="651" y="469.0283">refers to</text></g><!--link PurchaseRequest to Property--><g id="link_PurchaseRequest_Property"><path codeLine="101" d="M613.67,605.09 C602.52,614.35 590.42,624.18 579,633 C544.41,659.74 505.2,688.15 471.73,711.85 " fill="none" id="PurchaseRequest-Property" style="stroke:#181818;stroke-width:1.0;"/><polygon fill="#000000" points="540.0041,675.651,548.9993,672.5627,545.4661,667.8653,540.0041,675.651" style="stroke:#000000;stroke-width:1.0;"/><text fill="#000000" font-family="sans-serif" font-size="13" lengthAdjust="spacing" textLength="49" x="553" y="678.0283">contains</text><text fill="#000000" font-family="sans-serif" font-size="13" lengthAdjust="spacing" textLength="7" x="598.793" y="626.9909">1</text><text fill="#000000" font-family="sans-serif" font-size="13" lengthAdjust="spacing" textLength="7" x="474.3688" y="700.671">1</text></g><!--link State to Property--><g id="link_State_Property"><path codeLine="103" d="M212.02,767.5 C239.39,767.5 276.65,767.5 310.25,767.5 " fill="none" id="State-Property" style="stroke:#181818;stroke-width:1.0;"/><polygon fill="#000000" points="229.25,755.1455,238.2951,758.0844,238.2951,752.2066,229.25,755.1455" style="stroke:#000000;stroke-width:1.0;"/><text fill="#000000" font-family="sans-serif" font-size="13" lengthAdjust="spacing" textLength="49" x="243.25" y="760.5283">contains</text></g><!--link District to Property--><g id="link_District_Property"><path codeLine="104" d="M76.89,739.87 C99.18,717.57 134.13,688.28 172,678 C222.73,664.23 277.52,686.14 319.85,711.73 " fill="none" id="District-Property" style="stroke:#181818;stroke-width:1.0;"/><polygon fill="#000000" points="172.0332,673.2208,181.3564,675.0995,180.6801,669.2607,172.0332,673.2208" style="stroke:#000000;stroke-width:1.0;"/><text fill="#000000" font-family="sans-serif" font-size="13" lengthAdjust="spacing" textLength="49" x="186" y="678.0283">contains</text></g><!--link City to Property--><g id="link_City_Property"><path codeLine="105" d="M341.96,595.64 C350.8,625.22 365.31,673.8 376.6,711.61 " fill="none" id="City-Property" style="stroke:#181818;stroke-width:1.0;"/><polygon fill="#000000" points="371.569,667.8547,371.3417,677.3625,376.9737,675.6803,371.569,667.8547" style="stroke:#000000;stroke-width:1.0;"/><text fill="#000000" font-family="sans-serif" font-size="13" lengthAdjust="spacing" textLength="49" x="382" y="678.0283">contains</text></g><!--link PropertySale to PurchaseRequest--><g id="link_PropertySale_PurchaseRequest"><path codeLine="107" d="M561.73,568 C566.6,568 571.46,568 576.33,568 " fill="none" id="PropertySale-to-PurchaseRequest" style="stroke:#181818;stroke-width:1.0;"/><polygon fill="none" points="576.34,561,596.34,568,576.34,575,576.34,561" style="stroke:#181818;stroke-width:1.0;"/></g><!--SRC=[TLJRRjim37tNLmXzwLE2xRKe1cHfXXNOrgB1Fe2HwLYeBYv5Tysw_ViesR6TjCjBPFBmy7Qaz6X32mHU-nYYQIXwr4mTgZHwMZ2FiCSj7nngGiCGzcuEI0rKyPSDUrs3IwZKfSEQDKTDTj-mhcoEiZ6eMP1naDAAcUokOxmrCMpjRzGVb6fiXTfOCfAad3ro4wial6nPQhY97cpGtsE5Jeo5ITyxu3gIrw_gKkj5XScGRKlMoxzAzQ2V2Ka00Jmg51AtgYh2b1IZmxQ90NNe_0v96SjIJbW3LJzw2yFBS88XQAJT-DR50w9Gow22EIYAKhpu1y1Ah2pUAUIUOel4Xosu7ARbLm7ZAeJO1OCF-DHXuc8tqNkRKkuaV_AXnRjwVMfioHeSq8493Dzq1ANxAML7fe5qv1woHggGLbwozjbiDKMidVrVtKCq448vk6ZwTAKJcqGa1h-8dDQM3sjXaRcLGfl8SK_GDhFvFM2IFGUsu8xyigGoxBlwCrOKeq-J0RWvjTm3YQxsMr4g9WNFibZOETmyTRRrmZjb-XgxXAygTM7pqiRKaUZWHQgLfM5cJbZmCzjjQ61dEVDzY_MCQikohs4CML3bUtBV28CiXMU8esasO3jECWFoPr5DqUdrdyLYMC7CSDIQKkzChI1AZsfSLB6zWrLgMA-upwLn9VUyd9B-fDGexqmbDpteNj1AzRfUBa_bdAFtUO2KmoVCcoJGKdp633htBPTTEzoQp5PdAdbFf9XpvCN7Yzn1_XjRlYgtGDw8KlveNYpAkzGlxWHp3XcNTu8gsyhJUYVFzTlAyhGAstmu_m00]--></g></svg>