<?xml version="1.0" encoding="us-ascii" standalone="no"?><svg xmlns="http://www.w3.org/2000/svg" xmlns:xlink="http://www.w3.org/1999/xlink" contentStyleType="text/css" height="669px" preserveAspectRatio="none" style="width:479px;height:669px;background:#FFFFFF;" version="1.1" viewBox="0 0 479 669" width="479px" zoomAndPan="magnify"><defs/><g><!--entity user--><g id="elem_user"><ellipse cx="71" cy="557" fill="#F1F1F1" rx="8" ry="8" style="stroke:#181818;stroke-width:0.5;"/><path d="M71,565 L71,592 M58,573 L84,573 M71,592 L58,607 M71,592 L84,607 " fill="none" style="stroke:#181818;stroke-width:0.5;"/><text fill="#000000" font-family="sans-serif" font-size="14" lengthAdjust="spacing" textLength="113" x="14.5" y="621.1738">Unregistered user</text></g><!--entity agente--><g id="elem_agente"><ellipse cx="71" cy="417" fill="#F1F1F1" rx="8" ry="8" style="stroke:#181818;stroke-width:0.5;"/><path d="M71,425 L71,452 M58,433 L84,433 M71,452 L58,467 M71,452 L84,467 " fill="none" style="stroke:#181818;stroke-width:0.5;"/><text fill="#000000" font-family="sans-serif" font-size="14" lengthAdjust="spacing" textLength="37" x="52.5" y="481.1738">Agent</text></g><!--entity administrator--><g id="elem_administrator"><ellipse cx="71" cy="259" fill="#F1F1F1" rx="8" ry="8" style="stroke:#181818;stroke-width:0.5;"/><path d="M71,267 L71,294 M58,275 L84,275 M71,294 L58,309 M71,294 L84,309 " fill="none" style="stroke:#181818;stroke-width:0.5;"/><text fill="#000000" font-family="sans-serif" font-size="14" lengthAdjust="spacing" textLength="130" x="6" y="323.1738">system administrator</text></g><!--entity owner--><g id="elem_owner"><ellipse cx="71" cy="125" fill="#F1F1F1" rx="8" ry="8" style="stroke:#181818;stroke-width:0.5;"/><path d="M71,133 L71,160 M58,141 L84,141 M71,160 L58,175 M71,160 L84,175 " fill="none" style="stroke:#181818;stroke-width:0.5;"/><text fill="#000000" font-family="sans-serif" font-size="14" lengthAdjust="spacing" textLength="38" x="52" y="189.1738">owner</text></g><!--entity buyer--><g id="elem_buyer"><ellipse cx="71" cy="14" fill="#F1F1F1" rx="8" ry="8" style="stroke:#181818;stroke-width:0.5;"/><path d="M71,22 L71,49 M58,30 L84,30 M71,49 L58,64 M71,49 L84,64 " fill="none" style="stroke:#181818;stroke-width:0.5;"/><text fill="#000000" font-family="sans-serif" font-size="14" lengthAdjust="spacing" textLength="37" x="52.5" y="78.1738">Buyer</text></g><g id="elem_UC1"><ellipse cx="334.7712" cy="559.2542" fill="#F1F1F1" rx="111.7712" ry="24.7542" style="stroke:#181818;stroke-width:0.5;"/><text fill="#000000" font-family="sans-serif" font-size="14" lengthAdjust="spacing" textLength="191" x="239.2712" y="562.1078">UC1 - Display listed properties</text></g><g id="elem_UC2"><ellipse cx="335.1016" cy="446.3203" fill="#F1F1F1" rx="122.1016" ry="26.8203" style="stroke:#181818;stroke-width:0.5;"/><text fill="#000000" font-family="sans-serif" font-size="14" lengthAdjust="spacing" textLength="213" x="228.6016" y="449.1738">UC2 - Publish sale anouncements</text></g><g id="elem_UC3"><ellipse cx="335.1723" cy="264.5345" fill="#F1F1F1" rx="113.1723" ry="25.0345" style="stroke:#181818;stroke-width:0.5;"/><text fill="#000000" font-family="sans-serif" font-size="14" lengthAdjust="spacing" textLength="194" x="238.1723" y="267.388">UC3 - Register new employees</text></g><g id="elem_UC4"><ellipse cx="334.772" cy="154.2544" fill="#F1F1F1" rx="119.272" ry="26.2544" style="stroke:#181818;stroke-width:0.5;"/><text fill="#000000" font-family="sans-serif" font-size="14" lengthAdjust="spacing" textLength="207" x="231.272" y="157.1079">UC4 - List a property sale or rent</text></g><g id="elem_UC6"><ellipse cx="334.7532" cy="354.6506" fill="#F1F1F1" rx="138.7532" ry="30.1506" style="stroke:#181818;stroke-width:0.5;"/><text fill="#000000" font-family="sans-serif" font-size="14" lengthAdjust="spacing" textLength="248" x="210.7532" y="357.5042">UC6 - Specify states, districts and cities</text></g><g id="elem_UC7"><ellipse cx="334.9272" cy="641.4854" fill="#F1F1F1" rx="97.9272" ry="21.9854" style="stroke:#181818;stroke-width:0.5;"/><text fill="#000000" font-family="sans-serif" font-size="14" lengthAdjust="spacing" textLength="161" x="254.4272" y="644.339">UC7 - Register as a client</text></g><!--link user to UC1--><g id="link_user_UC1"><path d="M127.56,580.77 C156.77,577.76 193.57,573.97 227.97,570.43 " fill="none" id="user-to-UC1" style="stroke:#181818;stroke-width:1.0;"/><polygon fill="#181818" points="233.03,569.91,223.6662,566.8573,228.0565,570.4245,224.4894,574.8149,233.03,569.91" style="stroke:#181818;stroke-width:1.0;"/></g><!--link agente to UC2--><g id="link_agente_UC2"><path d="M89.6,446.5 C114.28,446.5 161.38,446.5 207.7,446.5 " fill="none" id="agente-to-UC2" style="stroke:#181818;stroke-width:1.0;"/><polygon fill="#181818" points="212.76,446.5,203.76,442.5,207.76,446.5,203.76,450.5,212.76,446.5" style="stroke:#181818;stroke-width:1.0;"/></g><!--link administrator to UC3--><g id="link_administrator_UC3"><path d="M136.09,282.63 C162.87,280.18 194.75,277.26 225.02,274.48 " fill="none" id="administrator-to-UC3" style="stroke:#181818;stroke-width:1.0;"/><polygon fill="#181818" points="230.25,274,220.9215,270.8409,225.271,274.4578,221.6541,278.8073,230.25,274" style="stroke:#181818;stroke-width:1.0;"/></g><!--link owner to UC4--><g id="link_owner_UC4"><path d="M90.01,154.5 C115.27,154.5 163.42,154.5 210.32,154.5 " fill="none" id="owner-to-UC4" style="stroke:#181818;stroke-width:1.0;"/><polygon fill="#181818" points="215.44,154.5,206.44,150.5,210.44,154.5,206.44,158.5,215.44,154.5" style="stroke:#181818;stroke-width:1.0;"/></g><!--link administrator to UC6--><g id="link_administrator_UC6"><path d="M136.09,304.65 C166.99,312.43 204.68,321.92 238.85,330.53 " fill="none" id="administrator-to-UC6" style="stroke:#181818;stroke-width:1.0;"/><polygon fill="#181818" points="243.86,331.79,236.1157,325.7052,239.0127,330.5639,234.1539,333.4609,243.86,331.79" style="stroke:#181818;stroke-width:1.0;"/></g><!--link user to UC7--><g id="link_user_UC7"><path d="M127.56,598.16 C165.38,606.1 215.92,616.71 257.53,625.45 " fill="none" id="user-to-UC7" style="stroke:#181818;stroke-width:1.0;"/><polygon fill="#181818" points="262.56,626.5,254.5737,620.7364,257.6666,625.4728,252.9302,628.5658,262.56,626.5" style="stroke:#181818;stroke-width:1.0;"/></g><!--SRC=[TP7FJiCm3CRlUGfhbrtOWMtQRaWmk750J7i0B_NQQ6bIEQbAXNXtdBRhIYLwg2Bx-_dFvsMu6bSXOmcbTruNx4k2o3MfUwP2VSMSZh6r14mweiijgULT4GhCV6DS3XUqWTG47lNV2kHxyPmH7xpr32rPwnlrezGocYYrJu7WWF9xDPWd-EqBoqfQAKkN2D43cxo8a9bKrNYdL5SKTPHoYvDZoas8n9H17OWNWA5xJ5NFERdOPJ2zQ9eBhT0bO5OQ9uKO9TfBfv4fuHitzEbUqzHBtGwfStgf_ai26KcdDHUdmoEiPDjGMMp1fjapgDXNnD5Gw63HpA6rG1_rMVG511JZqFdQQIfbdnkqdaCRWJu7Vy1H0oJM-fR6DfiviHNYNVI0jvdQlfrinpSJHJRdTi8TAzBc8lg8aSA3d4pCCpgAbIu3RIRhxURyVZffCX-qDVT- -z54XjNgQJIeF-SGwjV_SxOXqw_PNMk8RF_LxkQTzkc4lm00]--></g></svg>