<?xml version="1.0" encoding="us-ascii" standalone="no"?><svg xmlns="http://www.w3.org/2000/svg" xmlns:xlink="http://www.w3.org/1999/xlink" contentStyleType="text/css" height="428px" preserveAspectRatio="none" style="width:822px;height:428px;background:#FFFFFF;" version="1.1" viewBox="0 0 822 428" width="822px" zoomAndPan="magnify"><defs/><g><!--class PurchaseRequestController--><g id="elem_PurchaseRequestController"><rect codeLine="4" fill="#F1F1F1" height="85.2422" id="PurchaseRequestController" rx="2.5" ry="2.5" style="stroke:#181818;stroke-width:0.5;" width="356" x="199.5" y="7"/><ellipse cx="285.75" cy="23" fill="#ADD1B2" rx="11" ry="11" style="stroke:#181818;stroke-width:1.0;"/><path d="M288.5156,18.875 Q288.6719,18.6563 288.8594,18.5469 Q289.0469,18.4375 289.2656,18.4375 Q289.6406,18.4375 289.875,18.7031 Q290.1094,18.9531 290.1094,19.5625 L290.1094,21.0156 Q290.1094,21.625 289.875,21.8906 Q289.6406,22.1563 289.2656,22.1563 Q288.9219,22.1563 288.7188,21.9531 Q288.5156,21.7656 288.4063,21.25 Q288.3594,20.8906 288.1719,20.7031 Q287.8438,20.3281 287.2344,20.1094 Q286.625,19.8906 286,19.8906 Q285.2344,19.8906 284.5938,20.2188 Q283.9688,20.5469 283.4688,21.2969 Q282.9844,22.0469 282.9844,23.0781 L282.9844,24.1719 Q282.9844,25.4063 283.875,26.2344 Q284.7656,27.0469 286.3594,27.0469 Q287.2969,27.0469 287.9531,26.7969 Q288.3438,26.6406 288.7656,26.2031 Q289.0313,25.9375 289.1719,25.8594 Q289.3281,25.7813 289.5313,25.7813 Q289.8594,25.7813 290.1094,26.0469 Q290.375,26.2969 290.375,26.6406 Q290.375,26.9844 290.0313,27.3906 Q289.5313,27.9688 288.7344,28.2969 Q287.6563,28.75 286.3594,28.75 Q284.8438,28.75 283.6406,28.125 Q282.6563,27.625 281.9688,26.5625 Q281.2813,25.4844 281.2813,24.2031 L281.2813,23.0469 Q281.2813,21.7188 281.8906,20.5781 Q282.5156,19.4219 283.6094,18.8125 Q284.7031,18.1875 285.9375,18.1875 Q286.6719,18.1875 287.3125,18.3594 Q287.9688,18.5156 288.5156,18.875 Z " fill="#000000"/><text fill="#000000" font-family="sans-serif" font-size="14" lengthAdjust="spacing" textLength="175" x="306.25" y="28.7969">PurchaseRequestController</text><line style="stroke:#181818;stroke-width:0.5;" x1="200.5" x2="554.5" y1="39" y2="39"/><line style="stroke:#181818;stroke-width:0.5;" x1="200.5" x2="554.5" y1="47" y2="47"/><ellipse cx="210.5" cy="61.8105" fill="#84BE84" rx="3" ry="3" style="stroke:#038048;stroke-width:1.0;"/><text fill="#000000" font-family="sans-serif" font-size="14" lengthAdjust="spacing" textLength="330" x="219.5" y="66.1074">createPurchaseRequest(propertySale,orderAmount)</text><ellipse cx="210.5" cy="80.4316" fill="#84BE84" rx="3" ry="3" style="stroke:#038048;stroke-width:1.0;"/><text fill="#000000" font-family="sans-serif" font-size="14" lengthAdjust="spacing" textLength="66" x="219.5" y="84.7285">getClient()</text></g><!--class PurchaseRequestUI--><g id="elem_PurchaseRequestUI"><rect codeLine="9" fill="#F1F1F1" height="48" id="PurchaseRequestUI" rx="2.5" ry="2.5" style="stroke:#181818;stroke-width:0.5;" width="157" x="7" y="25.5"/><ellipse cx="22" cy="41.5" fill="#ADD1B2" rx="11" ry="11" style="stroke:#181818;stroke-width:1.0;"/><path d="M24.7656,37.375 Q24.9219,37.1563 25.1094,37.0469 Q25.2969,36.9375 25.5156,36.9375 Q25.8906,36.9375 26.125,37.2031 Q26.3594,37.4531 26.3594,38.0625 L26.3594,39.5156 Q26.3594,40.125 26.125,40.3906 Q25.8906,40.6563 25.5156,40.6563 Q25.1719,40.6563 24.9688,40.4531 Q24.7656,40.2656 24.6563,39.75 Q24.6094,39.3906 24.4219,39.2031 Q24.0938,38.8281 23.4844,38.6094 Q22.875,38.3906 22.25,38.3906 Q21.4844,38.3906 20.8438,38.7188 Q20.2188,39.0469 19.7188,39.7969 Q19.2344,40.5469 19.2344,41.5781 L19.2344,42.6719 Q19.2344,43.9063 20.125,44.7344 Q21.0156,45.5469 22.6094,45.5469 Q23.5469,45.5469 24.2031,45.2969 Q24.5938,45.1406 25.0156,44.7031 Q25.2813,44.4375 25.4219,44.3594 Q25.5781,44.2813 25.7813,44.2813 Q26.1094,44.2813 26.3594,44.5469 Q26.625,44.7969 26.625,45.1406 Q26.625,45.4844 26.2813,45.8906 Q25.7813,46.4688 24.9844,46.7969 Q23.9063,47.25 22.6094,47.25 Q21.0938,47.25 19.8906,46.625 Q18.9063,46.125 18.2188,45.0625 Q17.5313,43.9844 17.5313,42.7031 L17.5313,41.5469 Q17.5313,40.2188 18.1406,39.0781 Q18.7656,37.9219 19.8594,37.3125 Q20.9531,36.6875 22.1875,36.6875 Q22.9219,36.6875 23.5625,36.8594 Q24.2188,37.0156 24.7656,37.375 Z " fill="#000000"/><text fill="#000000" font-family="sans-serif" font-size="14" lengthAdjust="spacing" textLength="125" x="36" y="47.2969">PurchaseRequestUI</text><line style="stroke:#181818;stroke-width:0.5;" x1="8" x2="163" y1="57.5" y2="57.5"/><line style="stroke:#181818;stroke-width:0.5;" x1="8" x2="163" y1="65.5" y2="65.5"/></g><!--class Repositories--><g id="elem_Repositories"><rect codeLine="12" fill="#F1F1F1" height="66.6211" id="Repositories" rx="2.5" ry="2.5" style="stroke:#181818;stroke-width:0.5;" width="237" x="482" y="171"/><ellipse cx="556.75" cy="187" fill="#ADD1B2" rx="11" ry="11" style="stroke:#181818;stroke-width:1.0;"/><path d="M559.5156,182.875 Q559.6719,182.6563 559.8594,182.5469 Q560.0469,182.4375 560.2656,182.4375 Q560.6406,182.4375 560.875,182.7031 Q561.1094,182.9531 561.1094,183.5625 L561.1094,185.0156 Q561.1094,185.625 560.875,185.8906 Q560.6406,186.1563 560.2656,186.1563 Q559.9219,186.1563 559.7188,185.9531 Q559.5156,185.7656 559.4063,185.25 Q559.3594,184.8906 559.1719,184.7031 Q558.8438,184.3281 558.2344,184.1094 Q557.625,183.8906 557,183.8906 Q556.2344,183.8906 555.5938,184.2188 Q554.9688,184.5469 554.4688,185.2969 Q553.9844,186.0469 553.9844,187.0781 L553.9844,188.1719 Q553.9844,189.4063 554.875,190.2344 Q555.7656,191.0469 557.3594,191.0469 Q558.2969,191.0469 558.9531,190.7969 Q559.3438,190.6406 559.7656,190.2031 Q560.0313,189.9375 560.1719,189.8594 Q560.3281,189.7813 560.5313,189.7813 Q560.8594,189.7813 561.1094,190.0469 Q561.375,190.2969 561.375,190.6406 Q561.375,190.9844 561.0313,191.3906 Q560.5313,191.9688 559.7344,192.2969 Q558.6563,192.75 557.3594,192.75 Q555.8438,192.75 554.6406,192.125 Q553.6563,191.625 552.9688,190.5625 Q552.2813,189.4844 552.2813,188.2031 L552.2813,187.0469 Q552.2813,185.7188 552.8906,184.5781 Q553.5156,183.4219 554.6094,182.8125 Q555.7031,182.1875 556.9375,182.1875 Q557.6719,182.1875 558.3125,182.3594 Q558.9688,182.5156 559.5156,182.875 Z " fill="#000000"/><text fill="#000000" font-family="sans-serif" font-size="14" lengthAdjust="spacing" textLength="79" x="577.25" y="192.7969">Repositories</text><line style="stroke:#181818;stroke-width:0.5;" x1="483" x2="718" y1="203" y2="203"/><line style="stroke:#181818;stroke-width:0.5;" x1="483" x2="718" y1="211" y2="211"/><ellipse cx="493" cy="225.8105" fill="#84BE84" rx="3" ry="3" style="stroke:#038048;stroke-width:1.0;"/><text fill="#000000" font-family="sans-serif" font-size="14" lengthAdjust="spacing" textLength="211" x="502" y="230.1074">getPurchaseRequestRepository()</text></g><!--class AplicationSession--><g id="elem_AplicationSession"><rect codeLine="16" fill="#F1F1F1" height="66.6211" id="AplicationSession" rx="2.5" ry="2.5" style="stroke:#181818;stroke-width:0.5;" width="154" x="65.5" y="171"/><ellipse cx="85.45" cy="187" fill="#ADD1B2" rx="11" ry="11" style="stroke:#181818;stroke-width:1.0;"/><path d="M88.2156,182.875 Q88.3719,182.6563 88.5594,182.5469 Q88.7469,182.4375 88.9656,182.4375 Q89.3406,182.4375 89.575,182.7031 Q89.8094,182.9531 89.8094,183.5625 L89.8094,185.0156 Q89.8094,185.625 89.575,185.8906 Q89.3406,186.1563 88.9656,186.1563 Q88.6219,186.1563 88.4188,185.9531 Q88.2156,185.7656 88.1063,185.25 Q88.0594,184.8906 87.8719,184.7031 Q87.5438,184.3281 86.9344,184.1094 Q86.325,183.8906 85.7,183.8906 Q84.9344,183.8906 84.2938,184.2188 Q83.6688,184.5469 83.1688,185.2969 Q82.6844,186.0469 82.6844,187.0781 L82.6844,188.1719 Q82.6844,189.4063 83.575,190.2344 Q84.4656,191.0469 86.0594,191.0469 Q86.9969,191.0469 87.6531,190.7969 Q88.0438,190.6406 88.4656,190.2031 Q88.7313,189.9375 88.8719,189.8594 Q89.0281,189.7813 89.2313,189.7813 Q89.5594,189.7813 89.8094,190.0469 Q90.075,190.2969 90.075,190.6406 Q90.075,190.9844 89.7313,191.3906 Q89.2313,191.9688 88.4344,192.2969 Q87.3563,192.75 86.0594,192.75 Q84.5438,192.75 83.3406,192.125 Q82.3563,191.625 81.6688,190.5625 Q80.9813,189.4844 80.9813,188.2031 L80.9813,187.0469 Q80.9813,185.7188 81.5906,184.5781 Q82.2156,183.4219 83.3094,182.8125 Q84.4031,182.1875 85.6375,182.1875 Q86.3719,182.1875 87.0125,182.3594 Q87.6688,182.5156 88.2156,182.875 Z " fill="#000000"/><text fill="#000000" font-family="sans-serif" font-size="14" lengthAdjust="spacing" textLength="111" x="100.55" y="192.7969">AplicationSession</text><line style="stroke:#181818;stroke-width:0.5;" x1="66.5" x2="218.5" y1="203" y2="203"/><line style="stroke:#181818;stroke-width:0.5;" x1="66.5" x2="218.5" y1="211" y2="211"/><ellipse cx="76.5" cy="225.8105" fill="#84BE84" rx="3" ry="3" style="stroke:#038048;stroke-width:1.0;"/><text fill="#000000" font-family="sans-serif" font-size="14" lengthAdjust="spacing" textLength="128" x="85.5" y="230.1074">getCurrentSession()</text></g><!--class UserSession--><g id="elem_UserSession"><rect codeLine="20" fill="#F1F1F1" height="66.6211" id="UserSession" rx="2.5" ry="2.5" style="stroke:#181818;stroke-width:0.5;" width="111" x="78" y="326.5"/><ellipse cx="93" cy="342.5" fill="#ADD1B2" rx="11" ry="11" style="stroke:#181818;stroke-width:1.0;"/><path d="M95.7656,338.375 Q95.9219,338.1563 96.1094,338.0469 Q96.2969,337.9375 96.5156,337.9375 Q96.8906,337.9375 97.125,338.2031 Q97.3594,338.4531 97.3594,339.0625 L97.3594,340.5156 Q97.3594,341.125 97.125,341.3906 Q96.8906,341.6563 96.5156,341.6563 Q96.1719,341.6563 95.9688,341.4531 Q95.7656,341.2656 95.6563,340.75 Q95.6094,340.3906 95.4219,340.2031 Q95.0938,339.8281 94.4844,339.6094 Q93.875,339.3906 93.25,339.3906 Q92.4844,339.3906 91.8438,339.7188 Q91.2188,340.0469 90.7188,340.7969 Q90.2344,341.5469 90.2344,342.5781 L90.2344,343.6719 Q90.2344,344.9063 91.125,345.7344 Q92.0156,346.5469 93.6094,346.5469 Q94.5469,346.5469 95.2031,346.2969 Q95.5938,346.1406 96.0156,345.7031 Q96.2813,345.4375 96.4219,345.3594 Q96.5781,345.2813 96.7813,345.2813 Q97.1094,345.2813 97.3594,345.5469 Q97.625,345.7969 97.625,346.1406 Q97.625,346.4844 97.2813,346.8906 Q96.7813,347.4688 95.9844,347.7969 Q94.9063,348.25 93.6094,348.25 Q92.0938,348.25 90.8906,347.625 Q89.9063,347.125 89.2188,346.0625 Q88.5313,344.9844 88.5313,343.7031 L88.5313,342.5469 Q88.5313,341.2188 89.1406,340.0781 Q89.7656,338.9219 90.8594,338.3125 Q91.9531,337.6875 93.1875,337.6875 Q93.9219,337.6875 94.5625,337.8594 Q95.2188,338.0156 95.7656,338.375 Z " fill="#000000"/><text fill="#000000" font-family="sans-serif" font-size="14" lengthAdjust="spacing" textLength="79" x="107" y="348.2969">UserSession</text><line style="stroke:#181818;stroke-width:0.5;" x1="79" x2="188" y1="358.5" y2="358.5"/><line style="stroke:#181818;stroke-width:0.5;" x1="79" x2="188" y1="366.5" y2="366.5"/><ellipse cx="89" cy="381.3105" fill="#84BE84" rx="3" ry="3" style="stroke:#038048;stroke-width:1.0;"/><text fill="#000000" font-family="sans-serif" font-size="14" lengthAdjust="spacing" textLength="72" x="98" y="385.6074">getUserID()</text></g><!--class PurchaseRequestRepositories--><g id="elem_PurchaseRequestRepositories"><rect codeLine="24" fill="#F1F1F1" height="122.4844" id="PurchaseRequestRepositories" rx="2.5" ry="2.5" style="stroke:#181818;stroke-width:0.5;" width="393" x="404" y="299"/><ellipse cx="500.25" cy="315" fill="#ADD1B2" rx="11" ry="11" style="stroke:#181818;stroke-width:1.0;"/><path d="M503.0156,310.875 Q503.1719,310.6563 503.3594,310.5469 Q503.5469,310.4375 503.7656,310.4375 Q504.1406,310.4375 504.375,310.7031 Q504.6094,310.9531 504.6094,311.5625 L504.6094,313.0156 Q504.6094,313.625 504.375,313.8906 Q504.1406,314.1563 503.7656,314.1563 Q503.4219,314.1563 503.2188,313.9531 Q503.0156,313.7656 502.9063,313.25 Q502.8594,312.8906 502.6719,312.7031 Q502.3438,312.3281 501.7344,312.1094 Q501.125,311.8906 500.5,311.8906 Q499.7344,311.8906 499.0938,312.2188 Q498.4688,312.5469 497.9688,313.2969 Q497.4844,314.0469 497.4844,315.0781 L497.4844,316.1719 Q497.4844,317.4063 498.375,318.2344 Q499.2656,319.0469 500.8594,319.0469 Q501.7969,319.0469 502.4531,318.7969 Q502.8438,318.6406 503.2656,318.2031 Q503.5313,317.9375 503.6719,317.8594 Q503.8281,317.7813 504.0313,317.7813 Q504.3594,317.7813 504.6094,318.0469 Q504.875,318.2969 504.875,318.6406 Q504.875,318.9844 504.5313,319.3906 Q504.0313,319.9688 503.2344,320.2969 Q502.1563,320.75 500.8594,320.75 Q499.3438,320.75 498.1406,320.125 Q497.1563,319.625 496.4688,318.5625 Q495.7813,317.4844 495.7813,316.2031 L495.7813,315.0469 Q495.7813,313.7188 496.3906,312.5781 Q497.0156,311.4219 498.1094,310.8125 Q499.2031,310.1875 500.4375,310.1875 Q501.1719,310.1875 501.8125,310.3594 Q502.4688,310.5156 503.0156,310.875 Z " fill="#000000"/><text fill="#000000" font-family="sans-serif" font-size="14" lengthAdjust="spacing" textLength="192" x="520.75" y="320.7969">PurchaseRequestRepositories</text><line style="stroke:#181818;stroke-width:0.5;" x1="405" x2="796" y1="331" y2="331"/><line style="stroke:#181818;stroke-width:0.5;" x1="405" x2="796" y1="339" y2="339"/><ellipse cx="415" cy="353.8105" fill="#84BE84" rx="3" ry="3" style="stroke:#038048;stroke-width:1.0;"/><text fill="#000000" font-family="sans-serif" font-size="14" lengthAdjust="spacing" textLength="367" x="424" y="358.1074">createPurchaseRequest(propertySale,orderAmount,client)</text><ellipse cx="415" cy="372.4316" fill="#84BE84" rx="3" ry="3" style="stroke:#038048;stroke-width:1.0;"/><text fill="#000000" font-family="sans-serif" font-size="14" lengthAdjust="spacing" textLength="147" x="424" y="376.7285">addPurchaseRequest()</text><ellipse cx="415" cy="391.0527" fill="#84BE84" rx="3" ry="3" style="stroke:#038048;stroke-width:1.0;"/><text fill="#000000" font-family="sans-serif" font-size="14" lengthAdjust="spacing" textLength="163" x="424" y="395.3496">isValid(purchaseRequest)</text><ellipse cx="415" cy="409.6738" fill="#84BE84" rx="3" ry="3" style="stroke:#038048;stroke-width:1.0;"/><text fill="#000000" font-family="sans-serif" font-size="14" lengthAdjust="spacing" textLength="164" x="424" y="413.9707">equals(purchaseRequest)</text></g><!--class PurchaseRequest--><g id="elem_PurchaseRequest"><rect codeLine="31" fill="#F1F1F1" height="103.8633" id="PurchaseRequest" rx="2.5" ry="2.5" style="stroke:#181818;stroke-width:0.5;" width="145" x="224" y="308"/><ellipse cx="239" cy="324" fill="#ADD1B2" rx="11" ry="11" style="stroke:#181818;stroke-width:1.0;"/><path d="M241.7656,319.875 Q241.9219,319.6563 242.1094,319.5469 Q242.2969,319.4375 242.5156,319.4375 Q242.8906,319.4375 243.125,319.7031 Q243.3594,319.9531 243.3594,320.5625 L243.3594,322.0156 Q243.3594,322.625 243.125,322.8906 Q242.8906,323.1563 242.5156,323.1563 Q242.1719,323.1563 241.9688,322.9531 Q241.7656,322.7656 241.6563,322.25 Q241.6094,321.8906 241.4219,321.7031 Q241.0938,321.3281 240.4844,321.1094 Q239.875,320.8906 239.25,320.8906 Q238.4844,320.8906 237.8438,321.2188 Q237.2188,321.5469 236.7188,322.2969 Q236.2344,323.0469 236.2344,324.0781 L236.2344,325.1719 Q236.2344,326.4063 237.125,327.2344 Q238.0156,328.0469 239.6094,328.0469 Q240.5469,328.0469 241.2031,327.7969 Q241.5938,327.6406 242.0156,327.2031 Q242.2813,326.9375 242.4219,326.8594 Q242.5781,326.7813 242.7813,326.7813 Q243.1094,326.7813 243.3594,327.0469 Q243.625,327.2969 243.625,327.6406 Q243.625,327.9844 243.2813,328.3906 Q242.7813,328.9688 241.9844,329.2969 Q240.9063,329.75 239.6094,329.75 Q238.0938,329.75 236.8906,329.125 Q235.9063,328.625 235.2188,327.5625 Q234.5313,326.4844 234.5313,325.2031 L234.5313,324.0469 Q234.5313,322.7188 235.1406,321.5781 Q235.7656,320.4219 236.8594,319.8125 Q237.9531,319.1875 239.1875,319.1875 Q239.9219,319.1875 240.5625,319.3594 Q241.2188,319.5156 241.7656,319.875 Z " fill="#000000"/><text fill="#000000" font-family="sans-serif" font-size="14" lengthAdjust="spacing" textLength="113" x="253" y="329.7969">PurchaseRequest</text><line style="stroke:#181818;stroke-width:0.5;" x1="225" x2="368" y1="340" y2="340"/><rect fill="none" height="6" style="stroke:#C82930;stroke-width:1.0;" width="6" x="232" y="351.8105"/><text fill="#000000" font-family="sans-serif" font-size="14" lengthAdjust="spacing" textLength="82" x="244" y="359.1074">PropertySale</text><rect fill="none" height="6" style="stroke:#C82930;stroke-width:1.0;" width="6" x="232" y="370.4316"/><text fill="#000000" font-family="sans-serif" font-size="14" lengthAdjust="spacing" textLength="36" x="244" y="377.7285">Client</text><rect fill="none" height="6" style="stroke:#C82930;stroke-width:1.0;" width="6" x="232" y="389.0527"/><text fill="#000000" font-family="sans-serif" font-size="14" lengthAdjust="spacing" textLength="82" x="244" y="396.3496">orderAmount</text><line style="stroke:#181818;stroke-width:0.5;" x1="225" x2="368" y1="403.8633" y2="403.8633"/></g><!--link PurchaseRequestUI to PurchaseRequestController--><g id="link_PurchaseRequestUI_PurchaseRequestController"><path codeLine="43" d="M164.2,49.5 C174.14,49.5 184.07,49.5 194,49.5 " fill="none" id="PurchaseRequestUI-to-PurchaseRequestController" style="stroke:#181818;stroke-width:1.0;stroke-dasharray:7.0,7.0;"/><polygon fill="#181818" points="199.2,49.5,190.2,45.5,194.2,49.5,190.2,53.5,199.2,49.5" style="stroke:#181818;stroke-width:1.0;"/></g><!--link PurchaseRequestController to Repositories--><g id="link_PurchaseRequestController_Repositories"><path codeLine="44" d="M438.14,92.11 C472.7,115.82 515.56,145.22 548.56,167.87 " fill="none" id="PurchaseRequestController-to-Repositories" style="stroke:#181818;stroke-width:1.0;stroke-dasharray:7.0,7.0;"/><polygon fill="#181818" points="552.95,170.87,547.7862,162.4834,548.8252,168.044,543.2646,169.0831,552.95,170.87" style="stroke:#181818;stroke-width:1.0;"/><text fill="#000000" font-family="sans-serif" font-size="13" lengthAdjust="spacing" textLength="67" x="509.5" y="137.0283">repositories</text></g><!--link Repositories to PurchaseRequestRepositories--><g id="link_Repositories_PurchaseRequestRepositories"><path codeLine="45" d="M600.5,238.05 C600.5,254.22 600.5,274.36 600.5,293.54 " fill="none" id="Repositories-to-PurchaseRequestRepositories" style="stroke:#181818;stroke-width:1.0;"/><polygon fill="#181818" points="600.5,298.92,604.5,289.92,600.5,293.92,596.5,289.92,600.5,298.92" style="stroke:#181818;stroke-width:1.0;"/><text fill="#000000" font-family="sans-serif" font-size="13" lengthAdjust="spacing" textLength="7" x="593.0953" y="287.892">1</text></g><!--link PurchaseRequestController to PurchaseRequestRepositories--><g id="link_PurchaseRequestController_PurchaseRequestRepositories"><path codeLine="46" d="M371.24,92.35 C367.41,132.81 367.68,194.27 395.5,238 C410.12,260.98 430.8,280.14 453.44,295.94 " fill="none" id="PurchaseRequestController-to-PurchaseRequestRepositories" style="stroke:#181818;stroke-width:1.0;stroke-dasharray:7.0,7.0;"/><polygon fill="#181818" points="457.69,298.85,452.5262,290.4634,453.5652,296.024,448.0046,297.0631,457.69,298.85" style="stroke:#181818;stroke-width:1.0;"/><text fill="#000000" font-family="sans-serif" font-size="13" lengthAdjust="spacing" textLength="67" x="396.5" y="210.0283">repositories</text></g><!--link PurchaseRequestController to AplicationSession--><g id="link_PurchaseRequestController_AplicationSession"><path codeLine="47" d="M313.6,92.11 C277.03,115.91 231.64,145.46 196.81,168.14 " fill="none" id="PurchaseRequestController-to-AplicationSession" style="stroke:#181818;stroke-width:1.0;stroke-dasharray:7.0,7.0;"/><polygon fill="#181818" points="192.61,170.87,202.3339,169.3061,196.7986,168.1395,197.9651,162.6043,192.61,170.87" style="stroke:#181818;stroke-width:1.0;"/></g><!--link AplicationSession to AplicationSession--><g id="link_AplicationSession_AplicationSession"><path codeLine="48" d="M219.71,192.63 C239.56,193.39 254.5,197.34 254.5,204.5 C254.5,211.04 242.02,214.91 224.71,216.1 " fill="none" id="AplicationSession-to-AplicationSession" style="stroke:#181818;stroke-width:1.0;"/><polygon fill="#181818" points="219.71,216.37,228.9136,219.8763,224.7026,216.099,228.4799,211.888,219.71,216.37" style="stroke:#181818;stroke-width:1.0;"/><text fill="#000000" font-family="sans-serif" font-size="13" lengthAdjust="spacing" textLength="49" x="260.5" y="210.0283">instance</text></g><!--link AplicationSession to UserSession--><g id="link_AplicationSession_UserSession"><path codeLine="49" d="M140.59,238.05 C139.16,262.47 137.2,295.95 135.7,321.5 " fill="none" id="AplicationSession-to-UserSession" style="stroke:#181818;stroke-width:1.0;"/><polygon fill="#181818" points="135.41,326.49,139.9169,317.7329,135.6952,321.4981,131.93,317.2765,135.41,326.49" style="stroke:#181818;stroke-width:1.0;"/><text fill="#000000" font-family="sans-serif" font-size="13" lengthAdjust="spacing" textLength="7" x="128.097" y="315.3135">1</text></g><!--link Repositories to Repositories--><g id="link_Repositories_Repositories"><path codeLine="50" d="M719.25,193.27 C739.76,194.79 754,198.53 754,204.5 C754,209.96 742.1,213.55 724.39,215.29 " fill="none" id="Repositories-to-Repositories" style="stroke:#181818;stroke-width:1.0;"/><polygon fill="#181818" points="719.25,215.73,728.5603,218.9422,724.2315,215.3006,727.8732,210.9718,719.25,215.73" style="stroke:#181818;stroke-width:1.0;"/><text fill="#000000" font-family="sans-serif" font-size="13" lengthAdjust="spacing" textLength="49" x="760" y="210.0283">instance</text></g><!--reverse link PurchaseRequest to PurchaseRequestRepositories--><g id="link_PurchaseRequest_PurchaseRequestRepositories"><path codeLine="52" d="M374.33,360 C384.07,360 393.82,360 403.56,360 " fill="none" id="PurchaseRequest-backto-PurchaseRequestRepositories" style="stroke:#181818;stroke-width:1.0;"/><polygon fill="#181818" points="369.23,360,378.23,364,374.23,360,378.23,356,369.23,360" style="stroke:#181818;stroke-width:1.0;"/><text fill="#000000" font-family="sans-serif" font-size="13" lengthAdjust="spacing" textLength="20" x="377.1152" y="356.2385">0..*</text></g><!--SRC=[bLBBRi8m4BpxAwnS2WM7zeeG4aelt128tYrd1POSsrrl3WZrt-i4HFCWgPfBujsPdSbuNyv4FYmN2s-afR8mgNB5GXaPWiYrFA4i66FrcUzAL6SPO0zV9GJAd2LqnW3oAvif14dGWKmyEWz8buCqC7UO0suALrgQija9A3CQB4scx7j0uhYz_lRsu5tGv513Y8hrX0x-0RdKGs-yZJTQITBE7Y24-Bfpin8noj-B3S8n03wW5R8gR3z6V3Qj_JkBkQfZY978FE-IObM7JsbqFl7jLkp43sb2lp5ayyh4hc62YTi5CD5mKv5lJ-ykUBeUtW4sl1rfvBKkRycnSMIj7XTYpPFtP2pYFxH6c5tfyK6zpM6z2XTFO555sq3IAdZ6kFzWOytQ4LI0Zkd7kAvZdhobwMko4gDv_G00]--></g></svg>