<?xml version="1.0" encoding="us-ascii" standalone="no"?><svg xmlns="http://www.w3.org/2000/svg" xmlns:xlink="http://www.w3.org/1999/xlink" contentStyleType="text/css" height="1823px" preserveAspectRatio="none" style="width:2522px;height:1823px;background:#FFFFFF;" version="1.1" viewBox="0 0 2522 1823" width="2522px" zoomAndPan="magnify"><defs/><g><rect fill="#FFFFFF" height="1628.959" style="stroke:#181818;stroke-width:1.0;" width="10" x="23.5" y="93.6211"/><rect fill="#FFFFFF" height="92.2031" style="stroke:#181818;stroke-width:1.0;" width="10" x="293.5" y="134.2031"/><rect fill="#FFFFFF" height="156.4551" style="stroke:#181818;stroke-width:1.0;" width="10" x="293.5" y="257.6973"/><rect fill="#FFFFFF" height="1277.1367" style="stroke:#181818;stroke-width:1.0;" width="10" x="293.5" y="445.4434"/><rect fill="#FFFFFF" height="93.873" style="stroke:#181818;stroke-width:1.0;" width="10" x="638.5" y="288.9883"/><rect fill="#FFFFFF" height="1214.5547" style="stroke:#181818;stroke-width:1.0;" width="10" x="638.5" y="476.7344"/><rect fill="#FFFFFF" height="513.6563" style="stroke:#181818;stroke-width:1.0;" width="10" x="643.5" y="516.0254"/><rect fill="#FFFFFF" height="31.291" style="stroke:#181818;stroke-width:1.0;" width="10" x="876.5" y="552.3164"/><rect fill="#FFFFFF" height="31.291" style="stroke:#181818;stroke-width:1.0;" width="10" x="876.5" y="802.6445"/><rect fill="#FFFFFF" height="93.873" style="stroke:#181818;stroke-width:1.0;" width="10" x="876.5" y="1067.9727"/><rect fill="#FFFFFF" height="31.291" style="stroke:#181818;stroke-width:1.0;" width="10" x="1114.5" y="1099.2637"/><rect fill="#FFFFFF" height="466.8613" style="stroke:#181818;stroke-width:1.0;" width="10" x="1272.5" y="1193.1367"/><rect fill="#FFFFFF" height="252.7461" style="stroke:#181818;stroke-width:1.0;" width="10" x="1277.5" y="1368.9609"/><rect fill="#FFFFFF" height="164.1641" style="stroke:#181818;stroke-width:1.0;" width="10" x="1282.5" y="1413.252"/><rect fill="#FFFFFF" height="64.291" style="stroke:#181818;stroke-width:1.0;" width="10" x="1287.5" y="1483.834"/><rect fill="#FFFFFF" height="88.2422" style="stroke:#181818;stroke-width:1.0;" width="10" x="1618" y="1234.4277"/><rect fill="#FFFFFF" height="28" style="stroke:#181818;stroke-width:1.0;" width="10" x="1623" y="1294.6699"/><rect fill="#FFFFFF" height="31.291" style="stroke:#181818;stroke-width:1.0;" width="10" x="1762" y="614.8984"/><rect fill="#FFFFFF" height="31.291" style="stroke:#181818;stroke-width:1.0;" width="10" x="1908.5" y="677.4805"/><rect fill="#FFFFFF" height="31.291" style="stroke:#181818;stroke-width:1.0;" width="10" x="2043" y="740.0625"/><rect fill="#FFFFFF" height="127.1641" style="stroke:#181818;stroke-width:1.0;" width="10" x="2169" y="865.2266"/><rect fill="#FFFFFF" height="31.291" style="stroke:#181818;stroke-width:1.0;" width="10" x="2309" y="922.8086"/><rect fill="#FFFFFF" height="31.291" style="stroke:#181818;stroke-width:1.0;" width="10" x="2428" y="320.2793"/><rect fill="none" height="81.873" style="stroke:#000000;stroke-width:1.5;" width="245" x="2104.5" y="880.2266"/><rect fill="none" height="107.873" style="stroke:#000000;stroke-width:1.5;" width="313.5" x="1168" y="1433.252"/><line style="stroke:#181818;stroke-width:0.5;stroke-dasharray:5.0,5.0;" x1="28" x2="28" y1="83.6211" y2="1740.5801"/><line style="stroke:#181818;stroke-width:0.5;stroke-dasharray:5.0,5.0;" x1="298" x2="298" y1="83.6211" y2="1740.5801"/><line style="stroke:#181818;stroke-width:0.5;stroke-dasharray:5.0,5.0;" x1="643" x2="643" y1="174.0137" y2="1740.5801"/><line style="stroke:#181818;stroke-width:0.5;stroke-dasharray:5.0,5.0;" x1="881" x2="881" y1="83.6211" y2="1740.5801"/><line style="stroke:#181818;stroke-width:0.5;stroke-dasharray:5.0,5.0;" x1="1119" x2="1119" y1="83.6211" y2="1740.5801"/><line style="stroke:#181818;stroke-width:0.5;stroke-dasharray:5.0,5.0;" x1="1277" x2="1277" y1="83.6211" y2="1740.5801"/><line style="stroke:#181818;stroke-width:0.5;stroke-dasharray:5.0,5.0;" x1="1622.5" x2="1622.5" y1="1242.2578" y2="1740.5801"/><line style="stroke:#181818;stroke-width:0.5;stroke-dasharray:5.0,5.0;" x1="1766.5" x2="1766.5" y1="83.6211" y2="1740.5801"/><line style="stroke:#181818;stroke-width:0.5;stroke-dasharray:5.0,5.0;" x1="1913.5" x2="1913.5" y1="83.6211" y2="1740.5801"/><line style="stroke:#181818;stroke-width:0.5;stroke-dasharray:5.0,5.0;" x1="2047.5" x2="2047.5" y1="83.6211" y2="1740.5801"/><line style="stroke:#181818;stroke-width:0.5;stroke-dasharray:5.0,5.0;" x1="2173.5" x2="2173.5" y1="83.6211" y2="1740.5801"/><line style="stroke:#181818;stroke-width:0.5;stroke-dasharray:5.0,5.0;" x1="2313.5" x2="2313.5" y1="83.6211" y2="1740.5801"/><line style="stroke:#181818;stroke-width:0.5;stroke-dasharray:5.0,5.0;" x1="2432.5" x2="2432.5" y1="83.6211" y2="1740.5801"/><text fill="#000000" font-family="sans-serif" font-size="14" lengthAdjust="spacing" textLength="41" x="5" y="80.1074">Owner</text><ellipse cx="28.5" cy="13.5" fill="#E2E2F0" rx="8" ry="8" style="stroke:#181818;stroke-width:0.5;"/><path d="M28.5,21.5 L28.5,48.5 M15.5,29.5 L41.5,29.5 M28.5,48.5 L15.5,63.5 M28.5,48.5 L41.5,63.5 " fill="none" style="stroke:#181818;stroke-width:0.5;"/><text fill="#000000" font-family="sans-serif" font-size="14" lengthAdjust="spacing" textLength="41" x="5" y="1754.6875">Owner</text><ellipse cx="28.5" cy="1766.7012" fill="#E2E2F0" rx="8" ry="8" style="stroke:#181818;stroke-width:0.5;"/><path d="M28.5,1774.7012 L28.5,1801.7012 M15.5,1782.7012 L41.5,1782.7012 M28.5,1801.7012 L15.5,1816.7012 M28.5,1801.7012 L41.5,1816.7012 " fill="none" style="stroke:#181818;stroke-width:0.5;"/><rect fill="#E2E2F0" height="32.6211" rx="2.5" ry="2.5" style="stroke:#181818;stroke-width:0.5;" width="143" x="227" y="50"/><text fill="#000000" font-family="sans-serif" font-size="14" lengthAdjust="spacing" textLength="129" x="234" y="72.1074">:PurchaseRequestUI</text><rect fill="#E2E2F0" height="32.6211" rx="2.5" ry="2.5" style="stroke:#181818;stroke-width:0.5;" width="143" x="227" y="1739.5801"/><text fill="#000000" font-family="sans-serif" font-size="14" lengthAdjust="spacing" textLength="129" x="234" y="1761.6875">:PurchaseRequestUI</text><rect fill="#E2E2F0" height="32.6211" rx="2.5" ry="2.5" style="stroke:#181818;stroke-width:0.5;" width="193" x="547" y="1739.5801"/><text fill="#000000" font-family="sans-serif" font-size="14" lengthAdjust="spacing" textLength="179" x="554" y="1761.6875">:PurchaseRequestController</text><rect fill="#E2E2F0" height="32.6211" rx="2.5" ry="2.5" style="stroke:#181818;stroke-width:0.5;" width="97" x="833" y="50"/><text fill="#000000" font-family="sans-serif" font-size="14" lengthAdjust="spacing" textLength="83" x="840" y="72.1074">:Repositories</text><rect fill="#E2E2F0" height="32.6211" rx="2.5" ry="2.5" style="stroke:#181818;stroke-width:0.5;" width="97" x="833" y="1739.5801"/><text fill="#000000" font-family="sans-serif" font-size="14" lengthAdjust="spacing" textLength="83" x="840" y="1761.6875">:Repositories</text><rect fill="#E2E2F0" height="51.2422" rx="2.5" ry="2.5" style="stroke:#181818;stroke-width:0.5;" width="97" x="1071" y="31.3789"/><text fill="#000000" font-family="sans-serif" font-size="14" lengthAdjust="spacing" textLength="83" x="1078" y="53.4863">:Repositories</text><text fill="#000000" font-family="sans-serif" font-size="14" lengthAdjust="spacing" textLength="74" x="1082.5" y="72.1074">repositories</text><rect fill="#E2E2F0" height="51.2422" rx="2.5" ry="2.5" style="stroke:#181818;stroke-width:0.5;" width="97" x="1071" y="1739.5801"/><text fill="#000000" font-family="sans-serif" font-size="14" lengthAdjust="spacing" textLength="83" x="1078" y="1761.6875">:Repositories</text><text fill="#000000" font-family="sans-serif" font-size="14" lengthAdjust="spacing" textLength="74" x="1082.5" y="1780.3086">repositories</text><rect fill="#E2E2F0" height="51.2422" rx="2.5" ry="2.5" style="stroke:#181818;stroke-width:0.5;" width="199" x="1178" y="31.3789"/><text fill="#000000" font-family="sans-serif" font-size="14" lengthAdjust="spacing" textLength="181" x="1187" y="53.4863">PurchaseRequestRepository</text><text fill="#000000" font-family="sans-serif" font-size="14" lengthAdjust="spacing" textLength="185" x="1185" y="72.1074">:PurchaseRequestRepository</text><rect fill="#E2E2F0" height="51.2422" rx="2.5" ry="2.5" style="stroke:#181818;stroke-width:0.5;" width="199" x="1178" y="1739.5801"/><text fill="#000000" font-family="sans-serif" font-size="14" lengthAdjust="spacing" textLength="181" x="1187" y="1761.6875">PurchaseRequestRepository</text><text fill="#000000" font-family="sans-serif" font-size="14" lengthAdjust="spacing" textLength="185" x="1185" y="1780.3086">:PurchaseRequestRepository</text><rect fill="#E2E2F0" height="51.2422" rx="2.5" ry="2.5" style="stroke:#181818;stroke-width:0.5;" width="131" x="1557.5" y="1739.5801"/><text fill="#000000" font-family="sans-serif" font-size="14" lengthAdjust="spacing" textLength="117" x="1564.5" y="1761.6875">:PurchaseRequest</text><text fill="#000000" font-family="sans-serif" font-size="14" lengthAdjust="spacing" textLength="113" x="1566.5" y="1780.3086">PurchaseRequest</text><rect fill="#E2E2F0" height="32.6211" rx="2.5" ry="2.5" style="stroke:#181818;stroke-width:0.5;" width="137" x="1698.5" y="50"/><text fill="#000000" font-family="sans-serif" font-size="14" lengthAdjust="spacing" textLength="123" x="1705.5" y="72.1074">:ApplicationSession</text><rect fill="#E2E2F0" height="32.6211" rx="2.5" ry="2.5" style="stroke:#181818;stroke-width:0.5;" width="137" x="1698.5" y="1739.5801"/><text fill="#000000" font-family="sans-serif" font-size="14" lengthAdjust="spacing" textLength="123" x="1705.5" y="1761.6875">:ApplicationSession</text><rect fill="#E2E2F0" height="51.2422" rx="2.5" ry="2.5" style="stroke:#181818;stroke-width:0.5;" width="136" x="1845.5" y="31.3789"/><text fill="#000000" font-family="sans-serif" font-size="14" lengthAdjust="spacing" textLength="122" x="1852.5" y="53.4863">:applicationSession</text><text fill="#000000" font-family="sans-serif" font-size="14" lengthAdjust="spacing" textLength="119" x="1854" y="72.1074">ApplicationSession</text><rect fill="#E2E2F0" height="51.2422" rx="2.5" ry="2.5" style="stroke:#181818;stroke-width:0.5;" width="136" x="1845.5" y="1739.5801"/><text fill="#000000" font-family="sans-serif" font-size="14" lengthAdjust="spacing" textLength="122" x="1852.5" y="1761.6875">:applicationSession</text><text fill="#000000" font-family="sans-serif" font-size="14" lengthAdjust="spacing" textLength="119" x="1854" y="1780.3086">ApplicationSession</text><rect fill="#E2E2F0" height="51.2422" rx="2.5" ry="2.5" style="stroke:#181818;stroke-width:0.5;" width="113" x="1991.5" y="31.3789"/><text fill="#000000" font-family="sans-serif" font-size="14" lengthAdjust="spacing" textLength="99" x="1998.5" y="53.4863">:currentSession</text><text fill="#000000" font-family="sans-serif" font-size="14" lengthAdjust="spacing" textLength="79" x="2008.5" y="72.1074">UserSession</text><rect fill="#E2E2F0" height="51.2422" rx="2.5" ry="2.5" style="stroke:#181818;stroke-width:0.5;" width="113" x="1991.5" y="1739.5801"/><text fill="#000000" font-family="sans-serif" font-size="14" lengthAdjust="spacing" textLength="99" x="1998.5" y="1761.6875">:currentSession</text><text fill="#000000" font-family="sans-serif" font-size="14" lengthAdjust="spacing" textLength="79" x="2008.5" y="1780.3086">UserSession</text><rect fill="#E2E2F0" height="51.2422" rx="2.5" ry="2.5" style="stroke:#181818;stroke-width:0.5;" width="119" x="2114.5" y="31.3789"/><text fill="#000000" font-family="sans-serif" font-size="14" lengthAdjust="spacing" textLength="105" x="2121.5" y="53.4863">:clientRepository</text><text fill="#000000" font-family="sans-serif" font-size="14" lengthAdjust="spacing" textLength="104" x="2122" y="72.1074">ClientRepository</text><rect fill="#E2E2F0" height="51.2422" rx="2.5" ry="2.5" style="stroke:#181818;stroke-width:0.5;" width="119" x="2114.5" y="1739.5801"/><text fill="#000000" font-family="sans-serif" font-size="14" lengthAdjust="spacing" textLength="105" x="2121.5" y="1761.6875">:clientRepository</text><text fill="#000000" font-family="sans-serif" font-size="14" lengthAdjust="spacing" textLength="104" x="2122" y="1780.3086">ClientRepository</text><rect fill="#E2E2F0" height="51.2422" rx="2.5" ry="2.5" style="stroke:#181818;stroke-width:0.5;" width="51" x="2288.5" y="31.3789"/><text fill="#000000" font-family="sans-serif" font-size="14" lengthAdjust="spacing" textLength="37" x="2295.5" y="53.4863">:client</text><text fill="#000000" font-family="sans-serif" font-size="14" lengthAdjust="spacing" textLength="36" x="2296" y="72.1074">Client</text><rect fill="#E2E2F0" height="51.2422" rx="2.5" ry="2.5" style="stroke:#181818;stroke-width:0.5;" width="51" x="2288.5" y="1739.5801"/><text fill="#000000" font-family="sans-serif" font-size="14" lengthAdjust="spacing" textLength="37" x="2295.5" y="1761.6875">:client</text><text fill="#000000" font-family="sans-serif" font-size="14" lengthAdjust="spacing" textLength="36" x="2296" y="1780.3086">Client</text><rect fill="#E2E2F0" height="51.2422" rx="2.5" ry="2.5" style="stroke:#181818;stroke-width:0.5;" width="167" x="2349.5" y="31.3789"/><text fill="#000000" font-family="sans-serif" font-size="14" lengthAdjust="spacing" textLength="153" x="2356.5" y="53.4863">:propertySaleRepository</text><text fill="#000000" font-family="sans-serif" font-size="14" lengthAdjust="spacing" textLength="150" x="2358" y="72.1074">PropertySaleRepository</text><rect fill="#E2E2F0" height="51.2422" rx="2.5" ry="2.5" style="stroke:#181818;stroke-width:0.5;" width="167" x="2349.5" y="1739.5801"/><text fill="#000000" font-family="sans-serif" font-size="14" lengthAdjust="spacing" textLength="153" x="2356.5" y="1761.6875">:propertySaleRepository</text><text fill="#000000" font-family="sans-serif" font-size="14" lengthAdjust="spacing" textLength="150" x="2358" y="1780.3086">PropertySaleRepository</text><rect fill="#FFFFFF" height="1628.959" style="stroke:#181818;stroke-width:1.0;" width="10" x="23.5" y="93.6211"/><rect fill="#FFFFFF" height="92.2031" style="stroke:#181818;stroke-width:1.0;" width="10" x="293.5" y="134.2031"/><rect fill="#FFFFFF" height="156.4551" style="stroke:#181818;stroke-width:1.0;" width="10" x="293.5" y="257.6973"/><rect fill="#FFFFFF" height="1277.1367" style="stroke:#181818;stroke-width:1.0;" width="10" x="293.5" y="445.4434"/><rect fill="#FFFFFF" height="93.873" style="stroke:#181818;stroke-width:1.0;" width="10" x="638.5" y="288.9883"/><rect fill="#FFFFFF" height="1214.5547" style="stroke:#181818;stroke-width:1.0;" width="10" x="638.5" y="476.7344"/><rect fill="#FFFFFF" height="513.6563" style="stroke:#181818;stroke-width:1.0;" width="10" x="643.5" y="516.0254"/><rect fill="#FFFFFF" height="31.291" style="stroke:#181818;stroke-width:1.0;" width="10" x="876.5" y="552.3164"/><rect fill="#FFFFFF" height="31.291" style="stroke:#181818;stroke-width:1.0;" width="10" x="876.5" y="802.6445"/><rect fill="#FFFFFF" height="93.873" style="stroke:#181818;stroke-width:1.0;" width="10" x="876.5" y="1067.9727"/><rect fill="#FFFFFF" height="31.291" style="stroke:#181818;stroke-width:1.0;" width="10" x="1114.5" y="1099.2637"/><rect fill="#FFFFFF" height="466.8613" style="stroke:#181818;stroke-width:1.0;" width="10" x="1272.5" y="1193.1367"/><rect fill="#FFFFFF" height="252.7461" style="stroke:#181818;stroke-width:1.0;" width="10" x="1277.5" y="1368.9609"/><rect fill="#FFFFFF" height="164.1641" style="stroke:#181818;stroke-width:1.0;" width="10" x="1282.5" y="1413.252"/><rect fill="#FFFFFF" height="64.291" style="stroke:#181818;stroke-width:1.0;" width="10" x="1287.5" y="1483.834"/><rect fill="#FFFFFF" height="88.2422" style="stroke:#181818;stroke-width:1.0;" width="10" x="1618" y="1234.4277"/><rect fill="#FFFFFF" height="28" style="stroke:#181818;stroke-width:1.0;" width="10" x="1623" y="1294.6699"/><rect fill="#FFFFFF" height="31.291" style="stroke:#181818;stroke-width:1.0;" width="10" x="1762" y="614.8984"/><rect fill="#FFFFFF" height="31.291" style="stroke:#181818;stroke-width:1.0;" width="10" x="1908.5" y="677.4805"/><rect fill="#FFFFFF" height="31.291" style="stroke:#181818;stroke-width:1.0;" width="10" x="2043" y="740.0625"/><rect fill="#FFFFFF" height="127.1641" style="stroke:#181818;stroke-width:1.0;" width="10" x="2169" y="865.2266"/><rect fill="#FFFFFF" height="31.291" style="stroke:#181818;stroke-width:1.0;" width="10" x="2309" y="922.8086"/><rect fill="#FFFFFF" height="31.291" style="stroke:#181818;stroke-width:1.0;" width="10" x="2428" y="320.2793"/><polygon fill="#181818" points="281.5,130.2031,291.5,134.2031,281.5,138.2031,285.5,134.2031" style="stroke:#181818;stroke-width:1.0;"/><line style="stroke:#181818;stroke-width:1.0;" x1="33.5" x2="287.5" y1="134.2031" y2="134.2031"/><text fill="#000000" font-family="sans-serif" font-size="13" font-weight="bold" lengthAdjust="spacing" textLength="7" x="40.5" y="120.2949">1</text><text fill="#000000" font-family="sans-serif" font-size="13" lengthAdjust="spacing" textLength="118" x="51.5" y="111.6494">Selects to Purchase</text><text fill="#000000" font-family="sans-serif" font-size="13" lengthAdjust="spacing" textLength="58" x="55.5" y="128.9404">a property</text><polygon fill="#181818" points="535,161.4941,545,165.4941,535,169.4941,539,165.4941" style="stroke:#181818;stroke-width:1.0;"/><line style="stroke:#181818;stroke-width:1.0;" x1="303.5" x2="541" y1="165.4941" y2="165.4941"/><text fill="#000000" font-family="sans-serif" font-size="13" font-weight="bold" lengthAdjust="spacing" textLength="7" x="310.5" y="160.2314">2</text><text fill="#000000" font-family="sans-serif" font-size="13" lengthAdjust="spacing" textLength="43" x="321.5" y="160.2314">creates</text><rect fill="#E2E2F0" height="32.6211" rx="2.5" ry="2.5" style="stroke:#181818;stroke-width:0.5;" width="193" x="547" y="142.2031"/><text fill="#000000" font-family="sans-serif" font-size="14" lengthAdjust="spacing" textLength="179" x="554" y="164.3105">:PurchaseRequestController</text><polygon fill="#181818" points="44.5,222.4063,34.5,226.4063,44.5,230.4063,40.5,226.4063" style="stroke:#181818;stroke-width:1.0;"/><line style="stroke:#181818;stroke-width:1.0;stroke-dasharray:2.0,2.0;" x1="38.5" x2="297.5" y1="226.4063" y2="226.4063"/><text fill="#000000" font-family="sans-serif" font-size="13" font-weight="bold" lengthAdjust="spacing" textLength="7" x="50.5" y="212.498">3</text><text fill="#000000" font-family="sans-serif" font-size="13" lengthAdjust="spacing" textLength="221" x="61.5" y="203.8525">asks to select which property from the</text><text fill="#000000" font-family="sans-serif" font-size="13" lengthAdjust="spacing" textLength="212" x="65.5" y="221.1436">previous list he pretends to purchase</text><polygon fill="#181818" points="281.5,253.6973,291.5,257.6973,281.5,261.6973,285.5,257.6973" style="stroke:#181818;stroke-width:1.0;"/><line style="stroke:#181818;stroke-width:1.0;" x1="33.5" x2="287.5" y1="257.6973" y2="257.6973"/><text fill="#000000" font-family="sans-serif" font-size="13" font-weight="bold" lengthAdjust="spacing" textLength="7" x="40.5" y="252.4346">4</text><text fill="#000000" font-family="sans-serif" font-size="13" lengthAdjust="spacing" textLength="93" x="51.5" y="252.4346">selects property</text><polygon fill="#181818" points="626.5,284.9883,636.5,288.9883,626.5,292.9883,630.5,288.9883" style="stroke:#181818;stroke-width:1.0;"/><line style="stroke:#181818;stroke-width:1.0;" x1="303.5" x2="632.5" y1="288.9883" y2="288.9883"/><text fill="#000000" font-family="sans-serif" font-size="13" font-weight="bold" lengthAdjust="spacing" textLength="7" x="310.5" y="283.7256">5</text><text fill="#000000" font-family="sans-serif" font-size="13" lengthAdjust="spacing" textLength="185" x="321.5" y="283.7256">getPropertySaleList(sortCriteria)</text><polygon fill="#181818" points="2416,316.2793,2426,320.2793,2416,324.2793,2420,320.2793" style="stroke:#181818;stroke-width:1.0;"/><line style="stroke:#181818;stroke-width:1.0;" x1="648.5" x2="2422" y1="320.2793" y2="320.2793"/><text fill="#000000" font-family="sans-serif" font-size="13" font-weight="bold" lengthAdjust="spacing" textLength="7" x="655.5" y="315.0166">6</text><text fill="#000000" font-family="sans-serif" font-size="13" lengthAdjust="spacing" textLength="147" x="666.5" y="315.0166">listProperties(sortCriteria)</text><polygon fill="#181818" points="659.5,347.5703,649.5,351.5703,659.5,355.5703,655.5,351.5703" style="stroke:#181818;stroke-width:1.0;"/><line style="stroke:#181818;stroke-width:1.0;stroke-dasharray:2.0,2.0;" x1="653.5" x2="2432" y1="351.5703" y2="351.5703"/><text fill="#000000" font-family="sans-serif" font-size="13" font-weight="bold" lengthAdjust="spacing" textLength="7" x="665.5" y="346.3076">7</text><text fill="#000000" font-family="sans-serif" font-size="13" lengthAdjust="spacing" textLength="96" x="676.5" y="346.3076">PropertySaleList</text><polygon fill="#181818" points="314.5,378.8613,304.5,382.8613,314.5,386.8613,310.5,382.8613" style="stroke:#181818;stroke-width:1.0;"/><line style="stroke:#181818;stroke-width:1.0;stroke-dasharray:2.0,2.0;" x1="308.5" x2="642.5" y1="382.8613" y2="382.8613"/><text fill="#000000" font-family="sans-serif" font-size="13" font-weight="bold" lengthAdjust="spacing" textLength="7" x="320.5" y="377.5986">8</text><text fill="#000000" font-family="sans-serif" font-size="13" lengthAdjust="spacing" textLength="96" x="331.5" y="377.5986">PropertySaleList</text><polygon fill="#181818" points="44.5,410.1523,34.5,414.1523,44.5,418.1523,40.5,414.1523" style="stroke:#181818;stroke-width:1.0;"/><line style="stroke:#181818;stroke-width:1.0;stroke-dasharray:2.0,2.0;" x1="38.5" x2="297.5" y1="414.1523" y2="414.1523"/><text fill="#000000" font-family="sans-serif" font-size="13" font-weight="bold" lengthAdjust="spacing" textLength="7" x="50.5" y="408.8896">9</text><text fill="#000000" font-family="sans-serif" font-size="13" lengthAdjust="spacing" textLength="108" x="61.5" y="408.8896">asks order amount</text><polygon fill="#181818" points="281.5,441.4434,291.5,445.4434,281.5,449.4434,285.5,445.4434" style="stroke:#181818;stroke-width:1.0;"/><line style="stroke:#181818;stroke-width:1.0;" x1="33.5" x2="287.5" y1="445.4434" y2="445.4434"/><text fill="#000000" font-family="sans-serif" font-size="13" font-weight="bold" lengthAdjust="spacing" textLength="14" x="40.5" y="440.1807">10</text><text fill="#000000" font-family="sans-serif" font-size="13" lengthAdjust="spacing" textLength="112" x="58.5" y="440.1807">Gives order amount</text><polygon fill="#181818" points="626.5,472.7344,636.5,476.7344,626.5,480.7344,630.5,476.7344" style="stroke:#181818;stroke-width:1.0;"/><line style="stroke:#181818;stroke-width:1.0;" x1="303.5" x2="632.5" y1="476.7344" y2="476.7344"/><text fill="#000000" font-family="sans-serif" font-size="13" font-weight="bold" lengthAdjust="spacing" textLength="14" x="310.5" y="471.4717">11</text><text fill="#000000" font-family="sans-serif" font-size="13" lengthAdjust="spacing" textLength="298" x="328.5" y="471.4717">createPurchaseRequest(propertySale,orderAmount)</text><line style="stroke:#181818;stroke-width:1.0;" x1="648.5" x2="695.5" y1="503.0254" y2="503.0254"/><line style="stroke:#181818;stroke-width:1.0;" x1="695.5" x2="695.5" y1="503.0254" y2="516.0254"/><line style="stroke:#181818;stroke-width:1.0;" x1="654.5" x2="695.5" y1="516.0254" y2="516.0254"/><polygon fill="#181818" points="664.5,512.0254,654.5,516.0254,664.5,520.0254,660.5,516.0254" style="stroke:#181818;stroke-width:1.0;"/><text fill="#000000" font-family="sans-serif" font-size="13" font-weight="bold" lengthAdjust="spacing" textLength="14" x="660.5" y="497.7627">12</text><text fill="#000000" font-family="sans-serif" font-size="13" lengthAdjust="spacing" textLength="59" x="678.5" y="497.7627">getClient()</text><polygon fill="#181818" points="864.5,548.3164,874.5,552.3164,864.5,556.3164,868.5,552.3164" style="stroke:#181818;stroke-width:1.0;"/><line style="stroke:#181818;stroke-width:1.0;" x1="653.5" x2="870.5" y1="552.3164" y2="552.3164"/><text fill="#000000" font-family="sans-serif" font-size="13" font-weight="bold" lengthAdjust="spacing" textLength="14" x="660.5" y="547.0537">13</text><text fill="#000000" font-family="sans-serif" font-size="13" lengthAdjust="spacing" textLength="75" x="678.5" y="547.0537">getInstance()</text><polygon fill="#181818" points="664.5,579.6074,654.5,583.6074,664.5,587.6074,660.5,583.6074" style="stroke:#181818;stroke-width:1.0;"/><line style="stroke:#181818;stroke-width:1.0;stroke-dasharray:2.0,2.0;" x1="658.5" x2="880.5" y1="583.6074" y2="583.6074"/><text fill="#000000" font-family="sans-serif" font-size="13" font-weight="bold" lengthAdjust="spacing" textLength="14" x="670.5" y="578.3447">14</text><text fill="#000000" font-family="sans-serif" font-size="13" lengthAdjust="spacing" textLength="67" x="688.5" y="578.3447">repositories</text><polygon fill="#181818" points="1750,610.8984,1760,614.8984,1750,618.8984,1754,614.8984" style="stroke:#181818;stroke-width:1.0;"/><line style="stroke:#181818;stroke-width:1.0;" x1="653.5" x2="1756" y1="614.8984" y2="614.8984"/><text fill="#000000" font-family="sans-serif" font-size="13" font-weight="bold" lengthAdjust="spacing" textLength="14" x="660.5" y="609.6357">15</text><text fill="#000000" font-family="sans-serif" font-size="13" lengthAdjust="spacing" textLength="75" x="678.5" y="609.6357">getInstance()</text><polygon fill="#181818" points="664.5,642.1895,654.5,646.1895,664.5,650.1895,660.5,646.1895" style="stroke:#181818;stroke-width:1.0;"/><line style="stroke:#181818;stroke-width:1.0;stroke-dasharray:2.0,2.0;" x1="658.5" x2="1766" y1="646.1895" y2="646.1895"/><text fill="#000000" font-family="sans-serif" font-size="13" font-weight="bold" lengthAdjust="spacing" textLength="14" x="670.5" y="640.9268">16</text><text fill="#000000" font-family="sans-serif" font-size="13" lengthAdjust="spacing" textLength="68" x="688.5" y="640.9268">appSession</text><polygon fill="#181818" points="1896.5,673.4805,1906.5,677.4805,1896.5,681.4805,1900.5,677.4805" style="stroke:#181818;stroke-width:1.0;"/><line style="stroke:#181818;stroke-width:1.0;" x1="653.5" x2="1902.5" y1="677.4805" y2="677.4805"/><text fill="#000000" font-family="sans-serif" font-size="13" font-weight="bold" lengthAdjust="spacing" textLength="14" x="660.5" y="672.2178">17</text><text fill="#000000" font-family="sans-serif" font-size="13" lengthAdjust="spacing" textLength="115" x="678.5" y="672.2178">getCurrentSession()</text><polygon fill="#181818" points="664.5,704.7715,654.5,708.7715,664.5,712.7715,660.5,708.7715" style="stroke:#181818;stroke-width:1.0;"/><line style="stroke:#181818;stroke-width:1.0;stroke-dasharray:2.0,2.0;" x1="658.5" x2="1912.5" y1="708.7715" y2="708.7715"/><text fill="#000000" font-family="sans-serif" font-size="13" font-weight="bold" lengthAdjust="spacing" textLength="14" x="670.5" y="703.5088">18</text><text fill="#000000" font-family="sans-serif" font-size="13" lengthAdjust="spacing" textLength="87" x="688.5" y="703.5088">currentSession</text><polygon fill="#181818" points="2031,736.0625,2041,740.0625,2031,744.0625,2035,740.0625" style="stroke:#181818;stroke-width:1.0;"/><line style="stroke:#181818;stroke-width:1.0;" x1="653.5" x2="2037" y1="740.0625" y2="740.0625"/><text fill="#000000" font-family="sans-serif" font-size="13" font-weight="bold" lengthAdjust="spacing" textLength="14" x="660.5" y="734.7998">19</text><text fill="#000000" font-family="sans-serif" font-size="13" lengthAdjust="spacing" textLength="65" x="678.5" y="734.7998">getUserID()</text><polygon fill="#181818" points="664.5,767.3535,654.5,771.3535,664.5,775.3535,660.5,771.3535" style="stroke:#181818;stroke-width:1.0;"/><line style="stroke:#181818;stroke-width:1.0;stroke-dasharray:2.0,2.0;" x1="658.5" x2="2047" y1="771.3535" y2="771.3535"/><text fill="#000000" font-family="sans-serif" font-size="13" font-weight="bold" lengthAdjust="spacing" textLength="14" x="670.5" y="766.0908">20</text><text fill="#000000" font-family="sans-serif" font-size="13" lengthAdjust="spacing" textLength="31" x="688.5" y="766.0908">email</text><polygon fill="#181818" points="864.5,798.6445,874.5,802.6445,864.5,806.6445,868.5,802.6445" style="stroke:#181818;stroke-width:1.0;"/><line style="stroke:#181818;stroke-width:1.0;" x1="653.5" x2="870.5" y1="802.6445" y2="802.6445"/><text fill="#000000" font-family="sans-serif" font-size="13" font-weight="bold" lengthAdjust="spacing" textLength="14" x="660.5" y="797.3818">21</text><text fill="#000000" font-family="sans-serif" font-size="13" lengthAdjust="spacing" textLength="113" x="678.5" y="797.3818">getClientRepository</text><polygon fill="#181818" points="664.5,829.9355,654.5,833.9355,664.5,837.9355,660.5,833.9355" style="stroke:#181818;stroke-width:1.0;"/><line style="stroke:#181818;stroke-width:1.0;stroke-dasharray:2.0,2.0;" x1="658.5" x2="880.5" y1="833.9355" y2="833.9355"/><text fill="#000000" font-family="sans-serif" font-size="13" font-weight="bold" lengthAdjust="spacing" textLength="14" x="670.5" y="828.6729">22</text><text fill="#000000" font-family="sans-serif" font-size="13" lengthAdjust="spacing" textLength="103" x="688.5" y="828.6729">clientRepositories</text><polygon fill="#181818" points="2157,861.2266,2167,865.2266,2157,869.2266,2161,865.2266" style="stroke:#181818;stroke-width:1.0;"/><line style="stroke:#181818;stroke-width:1.0;" x1="653.5" x2="2163" y1="865.2266" y2="865.2266"/><text fill="#000000" font-family="sans-serif" font-size="13" font-weight="bold" lengthAdjust="spacing" textLength="14" x="660.5" y="859.9639">23</text><text fill="#000000" font-family="sans-serif" font-size="13" lengthAdjust="spacing" textLength="153" x="678.5" y="859.9639">getClientFromEmail(email)</text><path d="M2104.5,880.2266 L2177.5,880.2266 L2177.5,889.5176 L2167.5,899.5176 L2104.5,899.5176 L2104.5,880.2266 " fill="#EEEEEE" style="stroke:#000000;stroke-width:1.5;"/><rect fill="none" height="81.873" style="stroke:#000000;stroke-width:1.5;" width="245" x="2104.5" y="880.2266"/><text fill="#000000" font-family="sans-serif" font-size="13" font-weight="bold" lengthAdjust="spacing" textLength="28" x="2119.5" y="895.2549">loop</text><text fill="#000000" font-family="sans-serif" font-size="11" font-weight="bold" lengthAdjust="spacing" textLength="86" x="2192.5" y="894.0967">[for each client]</text><polygon fill="#181818" points="2297,918.8086,2307,922.8086,2297,926.8086,2301,922.8086" style="stroke:#181818;stroke-width:1.0;"/><line style="stroke:#181818;stroke-width:1.0;" x1="2179" x2="2303" y1="922.8086" y2="922.8086"/><text fill="#000000" font-family="sans-serif" font-size="13" font-weight="bold" lengthAdjust="spacing" textLength="14" x="2186" y="917.5459">24</text><text fill="#000000" font-family="sans-serif" font-size="13" lengthAdjust="spacing" textLength="93" x="2204" y="917.5459">hasEmail(email)</text><polygon fill="#181818" points="2190,950.0996,2180,954.0996,2190,958.0996,2186,954.0996" style="stroke:#181818;stroke-width:1.0;"/><line style="stroke:#181818;stroke-width:1.0;stroke-dasharray:2.0,2.0;" x1="2184" x2="2313" y1="954.0996" y2="954.0996"/><text fill="#000000" font-family="sans-serif" font-size="13" font-weight="bold" lengthAdjust="spacing" textLength="14" x="2196" y="948.8369">25</text><text fill="#000000" font-family="sans-serif" font-size="13" lengthAdjust="spacing" textLength="53" x="2214" y="948.8369">true/false</text><polygon fill="#181818" points="664.5,988.3906,654.5,992.3906,664.5,996.3906,660.5,992.3906" style="stroke:#181818;stroke-width:1.0;"/><line style="stroke:#181818;stroke-width:1.0;stroke-dasharray:2.0,2.0;" x1="658.5" x2="2173" y1="992.3906" y2="992.3906"/><text fill="#000000" font-family="sans-serif" font-size="13" font-weight="bold" lengthAdjust="spacing" textLength="14" x="670.5" y="987.1279">26</text><text fill="#000000" font-family="sans-serif" font-size="13" lengthAdjust="spacing" textLength="31" x="688.5" y="987.1279">client</text><line style="stroke:#181818;stroke-width:1.0;stroke-dasharray:2.0,2.0;" x1="653.5" x2="695.5" y1="1028.6816" y2="1028.6816"/><line style="stroke:#181818;stroke-width:1.0;stroke-dasharray:2.0,2.0;" x1="695.5" x2="695.5" y1="1028.6816" y2="1041.6816"/><line style="stroke:#181818;stroke-width:1.0;stroke-dasharray:2.0,2.0;" x1="648.5" x2="695.5" y1="1041.6816" y2="1041.6816"/><polygon fill="#181818" points="658.5,1037.6816,648.5,1041.6816,658.5,1045.6816,654.5,1041.6816" style="stroke:#181818;stroke-width:1.0;"/><text fill="#000000" font-family="sans-serif" font-size="13" font-weight="bold" lengthAdjust="spacing" textLength="14" x="660.5" y="1023.4189">27</text><text fill="#000000" font-family="sans-serif" font-size="13" lengthAdjust="spacing" textLength="31" x="678.5" y="1023.4189">client</text><polygon fill="#181818" points="864.5,1063.9727,874.5,1067.9727,864.5,1071.9727,868.5,1067.9727" style="stroke:#181818;stroke-width:1.0;"/><line style="stroke:#181818;stroke-width:1.0;" x1="648.5" x2="870.5" y1="1067.9727" y2="1067.9727"/><text fill="#000000" font-family="sans-serif" font-size="13" font-weight="bold" lengthAdjust="spacing" textLength="14" x="655.5" y="1062.71">28</text><text fill="#000000" font-family="sans-serif" font-size="13" lengthAdjust="spacing" textLength="191" x="673.5" y="1062.71">getPurchaseRequestRepository()</text><polygon fill="#181818" points="1102.5,1095.2637,1112.5,1099.2637,1102.5,1103.2637,1106.5,1099.2637" style="stroke:#181818;stroke-width:1.0;"/><line style="stroke:#181818;stroke-width:1.0;" x1="886.5" x2="1108.5" y1="1099.2637" y2="1099.2637"/><text fill="#000000" font-family="sans-serif" font-size="13" font-weight="bold" lengthAdjust="spacing" textLength="14" x="893.5" y="1094.001">29</text><text fill="#000000" font-family="sans-serif" font-size="13" lengthAdjust="spacing" textLength="191" x="911.5" y="1094.001">getPurchaseRequestRepository()</text><polygon fill="#181818" points="897.5,1126.5547,887.5,1130.5547,897.5,1134.5547,893.5,1130.5547" style="stroke:#181818;stroke-width:1.0;"/><line style="stroke:#181818;stroke-width:1.0;stroke-dasharray:2.0,2.0;" x1="891.5" x2="1118.5" y1="1130.5547" y2="1130.5547"/><text fill="#000000" font-family="sans-serif" font-size="13" font-weight="bold" lengthAdjust="spacing" textLength="14" x="903.5" y="1125.292">30</text><text fill="#000000" font-family="sans-serif" font-size="13" lengthAdjust="spacing" textLength="163" x="921.5" y="1125.292">purchaseRequestRepository</text><polygon fill="#181818" points="659.5,1157.8457,649.5,1161.8457,659.5,1165.8457,655.5,1161.8457" style="stroke:#181818;stroke-width:1.0;"/><line style="stroke:#181818;stroke-width:1.0;stroke-dasharray:2.0,2.0;" x1="653.5" x2="880.5" y1="1161.8457" y2="1161.8457"/><text fill="#000000" font-family="sans-serif" font-size="13" font-weight="bold" lengthAdjust="spacing" textLength="14" x="665.5" y="1156.583">31</text><text fill="#000000" font-family="sans-serif" font-size="13" lengthAdjust="spacing" textLength="163" x="683.5" y="1156.583">purchaseRequestRepository</text><polygon fill="#181818" points="1260.5,1189.1367,1270.5,1193.1367,1260.5,1197.1367,1264.5,1193.1367" style="stroke:#181818;stroke-width:1.0;"/><line style="stroke:#181818;stroke-width:1.0;" x1="648.5" x2="1266.5" y1="1193.1367" y2="1193.1367"/><text fill="#000000" font-family="sans-serif" font-size="13" font-weight="bold" lengthAdjust="spacing" textLength="14" x="655.5" y="1187.874">32</text><text fill="#000000" font-family="sans-serif" font-size="13" lengthAdjust="spacing" textLength="336" x="673.5" y="1187.874">createPurchaseRequest(propertySale,OrderAmount,client)</text><polygon fill="#181818" points="1545.5,1220.4277,1555.5,1224.4277,1545.5,1228.4277,1549.5,1224.4277" style="stroke:#181818;stroke-width:1.0;"/><line style="stroke:#181818;stroke-width:1.0;" x1="1282.5" x2="1551.5" y1="1224.4277" y2="1224.4277"/><text fill="#000000" font-family="sans-serif" font-size="13" font-weight="bold" lengthAdjust="spacing" textLength="14" x="1289.5" y="1219.165">33</text><text fill="#000000" font-family="sans-serif" font-size="13" lengthAdjust="spacing" textLength="233" x="1307.5" y="1219.165">create(propertySale,OrderAmount,client)</text><rect fill="#E2E2F0" height="51.2422" rx="2.5" ry="2.5" style="stroke:#181818;stroke-width:0.5;" width="131" x="1557.5" y="1201.1367"/><text fill="#000000" font-family="sans-serif" font-size="14" lengthAdjust="spacing" textLength="117" x="1564.5" y="1223.2441">:PurchaseRequest</text><text fill="#000000" font-family="sans-serif" font-size="14" lengthAdjust="spacing" textLength="113" x="1566.5" y="1241.8652">PurchaseRequest</text><line style="stroke:#181818;stroke-width:1.0;" x1="1633" x2="1675" y1="1286.6699" y2="1286.6699"/><line style="stroke:#181818;stroke-width:1.0;" x1="1675" x2="1675" y1="1286.6699" y2="1299.6699"/><line style="stroke:#181818;stroke-width:1.0;" x1="1634" x2="1675" y1="1299.6699" y2="1299.6699"/><polygon fill="#181818" points="1644,1295.6699,1634,1299.6699,1644,1303.6699,1640,1299.6699" style="stroke:#181818;stroke-width:1.0;"/><text fill="#000000" font-family="sans-serif" font-size="13" font-weight="bold" lengthAdjust="spacing" textLength="14" x="1640" y="1281.4072">34</text><text fill="#000000" font-family="sans-serif" font-size="13" lengthAdjust="spacing" textLength="47" x="1658" y="1281.4072">isValid()</text><line style="stroke:#181818;stroke-width:1.0;" x1="1282.5" x2="1329.5" y1="1355.9609" y2="1355.9609"/><line style="stroke:#181818;stroke-width:1.0;" x1="1329.5" x2="1329.5" y1="1355.9609" y2="1368.9609"/><line style="stroke:#181818;stroke-width:1.0;" x1="1288.5" x2="1329.5" y1="1368.9609" y2="1368.9609"/><polygon fill="#181818" points="1298.5,1364.9609,1288.5,1368.9609,1298.5,1372.9609,1294.5,1368.9609" style="stroke:#181818;stroke-width:1.0;"/><text fill="#000000" font-family="sans-serif" font-size="13" font-weight="bold" lengthAdjust="spacing" textLength="14" x="1294.5" y="1350.6982">35</text><text fill="#000000" font-family="sans-serif" font-size="13" lengthAdjust="spacing" textLength="132" x="1312.5" y="1350.6982">addPurchaseRequest()</text><line style="stroke:#181818;stroke-width:1.0;" x1="1287.5" x2="1334.5" y1="1400.252" y2="1400.252"/><line style="stroke:#181818;stroke-width:1.0;" x1="1334.5" x2="1334.5" y1="1400.252" y2="1413.252"/><line style="stroke:#181818;stroke-width:1.0;" x1="1293.5" x2="1334.5" y1="1413.252" y2="1413.252"/><polygon fill="#181818" points="1303.5,1409.252,1293.5,1413.252,1303.5,1417.252,1299.5,1413.252" style="stroke:#181818;stroke-width:1.0;"/><text fill="#000000" font-family="sans-serif" font-size="13" font-weight="bold" lengthAdjust="spacing" textLength="14" x="1299.5" y="1394.9893">36</text><text fill="#000000" font-family="sans-serif" font-size="13" lengthAdjust="spacing" textLength="148" x="1317.5" y="1394.9893">isValid(purchaseRequest)</text><path d="M1168,1433.252 L1241,1433.252 L1241,1442.543 L1231,1452.543 L1168,1452.543 L1168,1433.252 " fill="#EEEEEE" style="stroke:#000000;stroke-width:1.5;"/><rect fill="none" height="107.873" style="stroke:#000000;stroke-width:1.5;" width="313.5" x="1168" y="1433.252"/><text fill="#000000" font-family="sans-serif" font-size="13" font-weight="bold" lengthAdjust="spacing" textLength="28" x="1183" y="1448.2803">loop</text><text fill="#000000" font-family="sans-serif" font-size="11" font-weight="bold" lengthAdjust="spacing" textLength="155" x="1256" y="1447.1221">[for each purchase request]</text><line style="stroke:#181818;stroke-width:1.0;" x1="1292.5" x2="1339.5" y1="1470.834" y2="1470.834"/><line style="stroke:#181818;stroke-width:1.0;" x1="1339.5" x2="1339.5" y1="1470.834" y2="1483.834"/><line style="stroke:#181818;stroke-width:1.0;" x1="1298.5" x2="1339.5" y1="1483.834" y2="1483.834"/><polygon fill="#181818" points="1308.5,1479.834,1298.5,1483.834,1308.5,1487.834,1304.5,1483.834" style="stroke:#181818;stroke-width:1.0;"/><text fill="#000000" font-family="sans-serif" font-size="13" font-weight="bold" lengthAdjust="spacing" textLength="14" x="1304.5" y="1465.5713">37</text><text fill="#000000" font-family="sans-serif" font-size="13" lengthAdjust="spacing" textLength="147" x="1322.5" y="1465.5713">equals(purchaseRequest)</text><line style="stroke:#181818;stroke-width:1.0;stroke-dasharray:2.0,2.0;" x1="1297.5" x2="1339.5" y1="1520.125" y2="1520.125"/><line style="stroke:#181818;stroke-width:1.0;stroke-dasharray:2.0,2.0;" x1="1339.5" x2="1339.5" y1="1520.125" y2="1533.125"/><line style="stroke:#181818;stroke-width:1.0;stroke-dasharray:2.0,2.0;" x1="1298.5" x2="1339.5" y1="1533.125" y2="1533.125"/><polygon fill="#181818" points="1308.5,1529.125,1298.5,1533.125,1308.5,1537.125,1304.5,1533.125" style="stroke:#181818;stroke-width:1.0;"/><text fill="#000000" font-family="sans-serif" font-size="13" font-weight="bold" lengthAdjust="spacing" textLength="14" x="1304.5" y="1514.8623">38</text><text fill="#000000" font-family="sans-serif" font-size="13" lengthAdjust="spacing" textLength="53" x="1322.5" y="1514.8623">true/false</text><line style="stroke:#181818;stroke-width:1.0;stroke-dasharray:2.0,2.0;" x1="1292.5" x2="1334.5" y1="1576.416" y2="1576.416"/><line style="stroke:#181818;stroke-width:1.0;stroke-dasharray:2.0,2.0;" x1="1334.5" x2="1334.5" y1="1576.416" y2="1589.416"/><line style="stroke:#181818;stroke-width:1.0;stroke-dasharray:2.0,2.0;" x1="1287.5" x2="1334.5" y1="1589.416" y2="1589.416"/><polygon fill="#181818" points="1297.5,1585.416,1287.5,1589.416,1297.5,1593.416,1293.5,1589.416" style="stroke:#181818;stroke-width:1.0;"/><text fill="#000000" font-family="sans-serif" font-size="13" font-weight="bold" lengthAdjust="spacing" textLength="14" x="1299.5" y="1571.1533">39</text><text fill="#000000" font-family="sans-serif" font-size="13" lengthAdjust="spacing" textLength="53" x="1317.5" y="1571.1533">true/false</text><line style="stroke:#181818;stroke-width:1.0;stroke-dasharray:2.0,2.0;" x1="1287.5" x2="1329.5" y1="1620.707" y2="1620.707"/><line style="stroke:#181818;stroke-width:1.0;stroke-dasharray:2.0,2.0;" x1="1329.5" x2="1329.5" y1="1620.707" y2="1633.707"/><line style="stroke:#181818;stroke-width:1.0;stroke-dasharray:2.0,2.0;" x1="1282.5" x2="1329.5" y1="1633.707" y2="1633.707"/><polygon fill="#181818" points="1292.5,1629.707,1282.5,1633.707,1292.5,1637.707,1288.5,1633.707" style="stroke:#181818;stroke-width:1.0;"/><text fill="#000000" font-family="sans-serif" font-size="13" font-weight="bold" lengthAdjust="spacing" textLength="14" x="1294.5" y="1615.4443">40</text><text fill="#000000" font-family="sans-serif" font-size="13" lengthAdjust="spacing" textLength="53" x="1312.5" y="1615.4443">true/false</text><polygon fill="#181818" points="659.5,1655.998,649.5,1659.998,659.5,1663.998,655.5,1659.998" style="stroke:#181818;stroke-width:1.0;"/><line style="stroke:#181818;stroke-width:1.0;stroke-dasharray:2.0,2.0;" x1="653.5" x2="1276.5" y1="1659.998" y2="1659.998"/><text fill="#000000" font-family="sans-serif" font-size="13" font-weight="bold" lengthAdjust="spacing" textLength="14" x="665.5" y="1654.7354">41</text><text fill="#000000" font-family="sans-serif" font-size="13" lengthAdjust="spacing" textLength="53" x="683.5" y="1654.7354">true/false</text><polygon fill="#181818" points="314.5,1687.2891,304.5,1691.2891,314.5,1695.2891,310.5,1691.2891" style="stroke:#181818;stroke-width:1.0;"/><line style="stroke:#181818;stroke-width:1.0;stroke-dasharray:2.0,2.0;" x1="308.5" x2="642.5" y1="1691.2891" y2="1691.2891"/><text fill="#000000" font-family="sans-serif" font-size="13" font-weight="bold" lengthAdjust="spacing" textLength="14" x="320.5" y="1686.0264">42</text><text fill="#000000" font-family="sans-serif" font-size="13" lengthAdjust="spacing" textLength="53" x="338.5" y="1686.0264">true/false</text><polygon fill="#181818" points="39.5,1718.5801,29.5,1722.5801,39.5,1726.5801,35.5,1722.5801" style="stroke:#181818;stroke-width:1.0;"/><line style="stroke:#181818;stroke-width:1.0;stroke-dasharray:2.0,2.0;" x1="33.5" x2="297.5" y1="1722.5801" y2="1722.5801"/><text fill="#000000" font-family="sans-serif" font-size="13" font-weight="bold" lengthAdjust="spacing" textLength="14" x="45.5" y="1717.3174">43</text><text fill="#000000" font-family="sans-serif" font-size="13" lengthAdjust="spacing" textLength="143" x="63.5" y="1717.3174">(in)Success of Operation</text><!--SRC=[fLRBRjim4BphAuXSgWHnVTSXGA0-OA2e3GbfBxwm4XqJfKYLf1Baxxka7bdIafgWXo3sQcPsETfT-iFPsjPassqhgBHT8pvMgjaQzgTZicARcjD7JPiaePrLicj-CGsVAwiqkTe_IwQl23La__Dxqb9jUSLRK25NsQ7JrPaQLZWXOnzs7lUmMuVbIbgjX1Xa3ta4BrYh38Vad1cFA5O0HwbZE0H2GfH_ehySPRRuhA-jADRFSfHHOA15hFks5RoYbYjPCcFWdyVTbuS8I2-0Hxb0fYOwPbPrMZDf9-A3OHepyZ8c20vux4SUHNfUCSiRqJt6VunmhLOjq_Qbf8BXB8VPU6zTMVZMuq_KCjzoy4SsTz1L92Cb4wooXbX5Hj_9KH9AnaolLEX2e03na9ER6-1Mca7S-2Y4dMm66NzxDUE5oVEPL-T9Z9oqQeWz-nojPazSTOO8RYo160GiaxMdjqCnISrm0RXqCvG-LJfVQaOUcSN-V8DqgL7QvffRfZczHaoO7U1ixi0rOBhA1YhCGaHwvO333hyP4yRPy24yEFTOVufLR9uaC-ugNJDDQACwQID_0eE-yYSMeHSSwjzaD7WfRhPRBtFlLQulxPgCxhisdOCKFM8dZQMm8rDiUv4Katju_U3ZGHltGZ3a5r8Jocq01vZaO04C8ul57AnNWwaVIW-67MkwnU1WasQu5x2kW_QwUTdBkfsn-uJbO6l0mqcCDPGBh07F0yVY5HBOXeeAOHVk3MK5ebzW7Z-x_Acl0XTP94AfbfpWoWALyo2V0D-f-2-W1Fsom1_WFN0pPhQwOziJ5U5a3s0OVkAIpZpABmuQWAQPMW2uILfnUF7Emg_DcttdslCT97TrEiPcIDOkaN1vZeJE-oRE-7xXWdtRGEzV1_gsDmmFBLpJJiaBuct_BWqOs54Y8zpye8BNQOZ0xoZ-DXNWwBIku-CirOkpHTv5bB33Hopuxy6X8iIWRVyXw1aJ1JNxN6kl4luNbw_3q0sqWCh3coVbyhhigWfM7b4dieScy3-WeWi8VGFUNm00]--></g></svg>