<?xml version="1.0" encoding="us-ascii" standalone="no"?><svg xmlns="http://www.w3.org/2000/svg" xmlns:xlink="http://www.w3.org/1999/xlink" contentStyleType="text/css" height="851px" preserveAspectRatio="none" style="width:549px;height:851px;background:#FFFFFF;" version="1.1" viewBox="0 0 549 851" width="549px" zoomAndPan="magnify"><defs/><g><!--class ListEmployeeUI--><g id="elem_ListEmployeeUI"><rect codeLine="3" fill="#F1F1F1" height="48" id="ListEmployeeUI" rx="2.5" ry="2.5" style="stroke:#181818;stroke-width:0.5;" width="128" x="285" y="7"/><ellipse cx="300" cy="23" fill="#ADD1B2" rx="11" ry="11" style="stroke:#181818;stroke-width:1.0;"/><path d="M302.7656,18.875 Q302.9219,18.6563 303.1094,18.5469 Q303.2969,18.4375 303.5156,18.4375 Q303.8906,18.4375 304.125,18.7031 Q304.3594,18.9531 304.3594,19.5625 L304.3594,21.0156 Q304.3594,21.625 304.125,21.8906 Q303.8906,22.1563 303.5156,22.1563 Q303.1719,22.1563 302.9688,21.9531 Q302.7656,21.7656 302.6563,21.25 Q302.6094,20.8906 302.4219,20.7031 Q302.0938,20.3281 301.4844,20.1094 Q300.875,19.8906 300.25,19.8906 Q299.4844,19.8906 298.8438,20.2188 Q298.2188,20.5469 297.7188,21.2969 Q297.2344,22.0469 297.2344,23.0781 L297.2344,24.1719 Q297.2344,25.4063 298.125,26.2344 Q299.0156,27.0469 300.6094,27.0469 Q301.5469,27.0469 302.2031,26.7969 Q302.5938,26.6406 303.0156,26.2031 Q303.2813,25.9375 303.4219,25.8594 Q303.5781,25.7813 303.7813,25.7813 Q304.1094,25.7813 304.3594,26.0469 Q304.625,26.2969 304.625,26.6406 Q304.625,26.9844 304.2813,27.3906 Q303.7813,27.9688 302.9844,28.2969 Q301.9063,28.75 300.6094,28.75 Q299.0938,28.75 297.8906,28.125 Q296.9063,27.625 296.2188,26.5625 Q295.5313,25.4844 295.5313,24.2031 L295.5313,23.0469 Q295.5313,21.7188 296.1406,20.5781 Q296.7656,19.4219 297.8594,18.8125 Q298.9531,18.1875 300.1875,18.1875 Q300.9219,18.1875 301.5625,18.3594 Q302.2188,18.5156 302.7656,18.875 Z " fill="#000000"/><text fill="#000000" font-family="sans-serif" font-size="14" lengthAdjust="spacing" textLength="96" x="314" y="28.7969">ListEmployeeUI</text><line style="stroke:#181818;stroke-width:0.5;" x1="286" x2="412" y1="39" y2="39"/><line style="stroke:#181818;stroke-width:0.5;" x1="286" x2="412" y1="47" y2="47"/></g><!--class ListEmployeeController--><g id="elem_ListEmployeeController"><rect codeLine="6" fill="#F1F1F1" height="85.2422" id="ListEmployeeController" rx="2.5" ry="2.5" style="stroke:#181818;stroke-width:0.5;" width="178" x="260" y="116"/><ellipse cx="275" cy="132" fill="#ADD1B2" rx="11" ry="11" style="stroke:#181818;stroke-width:1.0;"/><path d="M277.7656,127.875 Q277.9219,127.6563 278.1094,127.5469 Q278.2969,127.4375 278.5156,127.4375 Q278.8906,127.4375 279.125,127.7031 Q279.3594,127.9531 279.3594,128.5625 L279.3594,130.0156 Q279.3594,130.625 279.125,130.8906 Q278.8906,131.1563 278.5156,131.1563 Q278.1719,131.1563 277.9688,130.9531 Q277.7656,130.7656 277.6563,130.25 Q277.6094,129.8906 277.4219,129.7031 Q277.0938,129.3281 276.4844,129.1094 Q275.875,128.8906 275.25,128.8906 Q274.4844,128.8906 273.8438,129.2188 Q273.2188,129.5469 272.7188,130.2969 Q272.2344,131.0469 272.2344,132.0781 L272.2344,133.1719 Q272.2344,134.4063 273.125,135.2344 Q274.0156,136.0469 275.6094,136.0469 Q276.5469,136.0469 277.2031,135.7969 Q277.5938,135.6406 278.0156,135.2031 Q278.2813,134.9375 278.4219,134.8594 Q278.5781,134.7813 278.7813,134.7813 Q279.1094,134.7813 279.3594,135.0469 Q279.625,135.2969 279.625,135.6406 Q279.625,135.9844 279.2813,136.3906 Q278.7813,136.9688 277.9844,137.2969 Q276.9063,137.75 275.6094,137.75 Q274.0938,137.75 272.8906,137.125 Q271.9063,136.625 271.2188,135.5625 Q270.5313,134.4844 270.5313,133.2031 L270.5313,132.0469 Q270.5313,130.7188 271.1406,129.5781 Q271.7656,128.4219 272.8594,127.8125 Q273.9531,127.1875 275.1875,127.1875 Q275.9219,127.1875 276.5625,127.3594 Q277.2188,127.5156 277.7656,127.875 Z " fill="#000000"/><text fill="#000000" font-family="sans-serif" font-size="14" lengthAdjust="spacing" textLength="146" x="289" y="137.7969">ListEmployeeController</text><line style="stroke:#181818;stroke-width:0.5;" x1="261" x2="437" y1="148" y2="148"/><line style="stroke:#181818;stroke-width:0.5;" x1="261" x2="437" y1="156" y2="156"/><text fill="#000000" font-family="sans-serif" font-size="14" lengthAdjust="spacing" textLength="126" x="266" y="175.1074">+sortAllEmployees()</text><text fill="#000000" font-family="sans-serif" font-size="14" lengthAdjust="spacing" textLength="130" x="266" y="193.7285">+getPropertyCount()</text></g><!--class Repositories--><g id="elem_Repositories"><rect codeLine="10" fill="#F1F1F1" height="103.8633" id="Repositories" rx="2.5" ry="2.5" style="stroke:#181818;stroke-width:0.5;" width="207" x="148.5" y="262"/><ellipse cx="208.25" cy="278" fill="#ADD1B2" rx="11" ry="11" style="stroke:#181818;stroke-width:1.0;"/><path d="M211.0156,273.875 Q211.1719,273.6563 211.3594,273.5469 Q211.5469,273.4375 211.7656,273.4375 Q212.1406,273.4375 212.375,273.7031 Q212.6094,273.9531 212.6094,274.5625 L212.6094,276.0156 Q212.6094,276.625 212.375,276.8906 Q212.1406,277.1563 211.7656,277.1563 Q211.4219,277.1563 211.2188,276.9531 Q211.0156,276.7656 210.9063,276.25 Q210.8594,275.8906 210.6719,275.7031 Q210.3438,275.3281 209.7344,275.1094 Q209.125,274.8906 208.5,274.8906 Q207.7344,274.8906 207.0938,275.2188 Q206.4688,275.5469 205.9688,276.2969 Q205.4844,277.0469 205.4844,278.0781 L205.4844,279.1719 Q205.4844,280.4063 206.375,281.2344 Q207.2656,282.0469 208.8594,282.0469 Q209.7969,282.0469 210.4531,281.7969 Q210.8438,281.6406 211.2656,281.2031 Q211.5313,280.9375 211.6719,280.8594 Q211.8281,280.7813 212.0313,280.7813 Q212.3594,280.7813 212.6094,281.0469 Q212.875,281.2969 212.875,281.6406 Q212.875,281.9844 212.5313,282.3906 Q212.0313,282.9688 211.2344,283.2969 Q210.1563,283.75 208.8594,283.75 Q207.3438,283.75 206.1406,283.125 Q205.1563,282.625 204.4688,281.5625 Q203.7813,280.4844 203.7813,279.2031 L203.7813,278.0469 Q203.7813,276.7188 204.3906,275.5781 Q205.0156,274.4219 206.1094,273.8125 Q207.2031,273.1875 208.4375,273.1875 Q209.1719,273.1875 209.8125,273.3594 Q210.4688,273.5156 211.0156,273.875 Z " fill="#000000"/><text fill="#000000" font-family="sans-serif" font-size="14" lengthAdjust="spacing" textLength="79" x="228.75" y="283.7969">Repositories</text><line style="stroke:#181818;stroke-width:0.5;" x1="149.5" x2="354.5" y1="294" y2="294"/><line style="stroke:#181818;stroke-width:0.5;" x1="149.5" x2="354.5" y1="302" y2="302"/><text fill="#000000" font-family="sans-serif" font-size="14" lengthAdjust="spacing" textLength="140" x="154.5" y="321.1074">+getStoreRepository()</text><text fill="#000000" font-family="sans-serif" font-size="14" lengthAdjust="spacing" textLength="195" x="154.5" y="339.7285">+getPropertySalesRepository()</text><text fill="#000000" font-family="sans-serif" font-size="14" lengthAdjust="spacing" textLength="91" x="154.5" y="358.3496">+getInstance()</text></g><!--class StoreRepository--><g id="elem_StoreRepository"><rect codeLine="16" fill="#F1F1F1" height="66.6211" id="StoreRepository" rx="2.5" ry="2.5" style="stroke:#181818;stroke-width:0.5;" width="134" x="10" y="427"/><ellipse cx="25" cy="443" fill="#ADD1B2" rx="11" ry="11" style="stroke:#181818;stroke-width:1.0;"/><path d="M27.7656,438.875 Q27.9219,438.6563 28.1094,438.5469 Q28.2969,438.4375 28.5156,438.4375 Q28.8906,438.4375 29.125,438.7031 Q29.3594,438.9531 29.3594,439.5625 L29.3594,441.0156 Q29.3594,441.625 29.125,441.8906 Q28.8906,442.1563 28.5156,442.1563 Q28.1719,442.1563 27.9688,441.9531 Q27.7656,441.7656 27.6563,441.25 Q27.6094,440.8906 27.4219,440.7031 Q27.0938,440.3281 26.4844,440.1094 Q25.875,439.8906 25.25,439.8906 Q24.4844,439.8906 23.8438,440.2188 Q23.2188,440.5469 22.7188,441.2969 Q22.2344,442.0469 22.2344,443.0781 L22.2344,444.1719 Q22.2344,445.4063 23.125,446.2344 Q24.0156,447.0469 25.6094,447.0469 Q26.5469,447.0469 27.2031,446.7969 Q27.5938,446.6406 28.0156,446.2031 Q28.2813,445.9375 28.4219,445.8594 Q28.5781,445.7813 28.7813,445.7813 Q29.1094,445.7813 29.3594,446.0469 Q29.625,446.2969 29.625,446.6406 Q29.625,446.9844 29.2813,447.3906 Q28.7813,447.9688 27.9844,448.2969 Q26.9063,448.75 25.6094,448.75 Q24.0938,448.75 22.8906,448.125 Q21.9063,447.625 21.2188,446.5625 Q20.5313,445.4844 20.5313,444.2031 L20.5313,443.0469 Q20.5313,441.7188 21.1406,440.5781 Q21.7656,439.4219 22.8594,438.8125 Q23.9531,438.1875 25.1875,438.1875 Q25.9219,438.1875 26.5625,438.3594 Q27.2188,438.5156 27.7656,438.875 Z " fill="#000000"/><text fill="#000000" font-family="sans-serif" font-size="14" lengthAdjust="spacing" textLength="102" x="39" y="448.7969">StoreRepository</text><line style="stroke:#181818;stroke-width:0.5;" x1="11" x2="143" y1="459" y2="459"/><line style="stroke:#181818;stroke-width:0.5;" x1="11" x2="143" y1="467" y2="467"/><text fill="#000000" font-family="sans-serif" font-size="14" lengthAdjust="spacing" textLength="101" x="16" y="486.1074">+getStoresList()</text></g><!--class Store--><g id="elem_Store"><rect codeLine="20" fill="#F1F1F1" height="271.4531" id="Store" rx="2.5" ry="2.5" style="stroke:#181818;stroke-width:0.5;" width="140" x="7" y="573"/><ellipse cx="55.75" cy="589" fill="#ADD1B2" rx="11" ry="11" style="stroke:#181818;stroke-width:1.0;"/><path d="M58.5156,584.875 Q58.6719,584.6563 58.8594,584.5469 Q59.0469,584.4375 59.2656,584.4375 Q59.6406,584.4375 59.875,584.7031 Q60.1094,584.9531 60.1094,585.5625 L60.1094,587.0156 Q60.1094,587.625 59.875,587.8906 Q59.6406,588.1563 59.2656,588.1563 Q58.9219,588.1563 58.7188,587.9531 Q58.5156,587.7656 58.4063,587.25 Q58.3594,586.8906 58.1719,586.7031 Q57.8438,586.3281 57.2344,586.1094 Q56.625,585.8906 56,585.8906 Q55.2344,585.8906 54.5938,586.2188 Q53.9688,586.5469 53.4688,587.2969 Q52.9844,588.0469 52.9844,589.0781 L52.9844,590.1719 Q52.9844,591.4063 53.875,592.2344 Q54.7656,593.0469 56.3594,593.0469 Q57.2969,593.0469 57.9531,592.7969 Q58.3438,592.6406 58.7656,592.2031 Q59.0313,591.9375 59.1719,591.8594 Q59.3281,591.7813 59.5313,591.7813 Q59.8594,591.7813 60.1094,592.0469 Q60.375,592.2969 60.375,592.6406 Q60.375,592.9844 60.0313,593.3906 Q59.5313,593.9688 58.7344,594.2969 Q57.6563,594.75 56.3594,594.75 Q54.8438,594.75 53.6406,594.125 Q52.6563,593.625 51.9688,592.5625 Q51.2813,591.4844 51.2813,590.2031 L51.2813,589.0469 Q51.2813,587.7188 51.8906,586.5781 Q52.5156,585.4219 53.6094,584.8125 Q54.7031,584.1875 55.9375,584.1875 Q56.6719,584.1875 57.3125,584.3594 Q57.9688,584.5156 58.5156,584.875 Z " fill="#000000"/><text fill="#000000" font-family="sans-serif" font-size="14" lengthAdjust="spacing" textLength="34" x="76.25" y="594.7969">Store</text><line style="stroke:#181818;stroke-width:0.5;" x1="8" x2="146" y1="605" y2="605"/><text fill="#000000" font-family="sans-serif" font-size="14" lengthAdjust="spacing" textLength="18" x="13" y="624.1074">-ID</text><text fill="#000000" font-family="sans-serif" font-size="14" lengthAdjust="spacing" textLength="56" x="13" y="642.7285">-address</text><text fill="#000000" font-family="sans-serif" font-size="14" lengthAdjust="spacing" textLength="41" x="13" y="661.3496">-Name</text><text fill="#000000" font-family="sans-serif" font-size="14" lengthAdjust="spacing" textLength="39" x="13" y="679.9707">-Email</text><text fill="#000000" font-family="sans-serif" font-size="14" lengthAdjust="spacing" textLength="95" x="13" y="698.5918">-PhoneNumber</text><text fill="#000000" font-family="sans-serif" font-size="14" lengthAdjust="spacing" textLength="59" x="13" y="717.2129">-Property</text><line style="stroke:#181818;stroke-width:0.5;" x1="8" x2="146" y1="724.7266" y2="724.7266"/><text fill="#000000" font-family="sans-serif" font-size="14" lengthAdjust="spacing" textLength="51" x="13" y="743.834">+getID()</text><text fill="#000000" font-family="sans-serif" font-size="14" lengthAdjust="spacing" textLength="90" x="13" y="762.4551">+getAddress()</text><text fill="#000000" font-family="sans-serif" font-size="14" lengthAdjust="spacing" textLength="74" x="13" y="781.0762">+getName()</text><text fill="#000000" font-family="sans-serif" font-size="14" lengthAdjust="spacing" textLength="72" x="13" y="799.6973">+getEmail()</text><text fill="#000000" font-family="sans-serif" font-size="14" lengthAdjust="spacing" textLength="128" x="13" y="818.3184">+getPhoneNumber()</text><text fill="#000000" font-family="sans-serif" font-size="14" lengthAdjust="spacing" textLength="92" x="13" y="836.9395">+getProperty()</text></g><!--class BranchRepository--><g id="elem_BranchRepository"><rect codeLine="35" fill="#F1F1F1" height="66.6211" id="BranchRepository" rx="2.5" ry="2.5" style="stroke:#181818;stroke-width:0.5;" width="145" x="179.5" y="427"/><ellipse cx="194.5" cy="443" fill="#ADD1B2" rx="11" ry="11" style="stroke:#181818;stroke-width:1.0;"/><path d="M197.2656,438.875 Q197.4219,438.6563 197.6094,438.5469 Q197.7969,438.4375 198.0156,438.4375 Q198.3906,438.4375 198.625,438.7031 Q198.8594,438.9531 198.8594,439.5625 L198.8594,441.0156 Q198.8594,441.625 198.625,441.8906 Q198.3906,442.1563 198.0156,442.1563 Q197.6719,442.1563 197.4688,441.9531 Q197.2656,441.7656 197.1563,441.25 Q197.1094,440.8906 196.9219,440.7031 Q196.5938,440.3281 195.9844,440.1094 Q195.375,439.8906 194.75,439.8906 Q193.9844,439.8906 193.3438,440.2188 Q192.7188,440.5469 192.2188,441.2969 Q191.7344,442.0469 191.7344,443.0781 L191.7344,444.1719 Q191.7344,445.4063 192.625,446.2344 Q193.5156,447.0469 195.1094,447.0469 Q196.0469,447.0469 196.7031,446.7969 Q197.0938,446.6406 197.5156,446.2031 Q197.7813,445.9375 197.9219,445.8594 Q198.0781,445.7813 198.2813,445.7813 Q198.6094,445.7813 198.8594,446.0469 Q199.125,446.2969 199.125,446.6406 Q199.125,446.9844 198.7813,447.3906 Q198.2813,447.9688 197.4844,448.2969 Q196.4063,448.75 195.1094,448.75 Q193.5938,448.75 192.3906,448.125 Q191.4063,447.625 190.7188,446.5625 Q190.0313,445.4844 190.0313,444.2031 L190.0313,443.0469 Q190.0313,441.7188 190.6406,440.5781 Q191.2656,439.4219 192.3594,438.8125 Q193.4531,438.1875 194.6875,438.1875 Q195.4219,438.1875 196.0625,438.3594 Q196.7188,438.5156 197.2656,438.875 Z " fill="#000000"/><text fill="#000000" font-family="sans-serif" font-size="14" lengthAdjust="spacing" textLength="113" x="208.5" y="448.7969">BranchRepository</text><line style="stroke:#181818;stroke-width:0.5;" x1="180.5" x2="323.5" y1="459" y2="459"/><line style="stroke:#181818;stroke-width:0.5;" x1="180.5" x2="323.5" y1="467" y2="467"/><text fill="#000000" font-family="sans-serif" font-size="14" lengthAdjust="spacing" textLength="82" x="185.5" y="486.1074">+getAgents()</text></g><!--class PropertySaleRepository--><g id="elem_PropertySaleRepository"><rect codeLine="39" fill="#F1F1F1" height="66.6211" id="PropertySaleRepository" rx="2.5" ry="2.5" style="stroke:#181818;stroke-width:0.5;" width="182" x="360" y="427"/><ellipse cx="375" cy="443" fill="#ADD1B2" rx="11" ry="11" style="stroke:#181818;stroke-width:1.0;"/><path d="M377.7656,438.875 Q377.9219,438.6563 378.1094,438.5469 Q378.2969,438.4375 378.5156,438.4375 Q378.8906,438.4375 379.125,438.7031 Q379.3594,438.9531 379.3594,439.5625 L379.3594,441.0156 Q379.3594,441.625 379.125,441.8906 Q378.8906,442.1563 378.5156,442.1563 Q378.1719,442.1563 377.9688,441.9531 Q377.7656,441.7656 377.6563,441.25 Q377.6094,440.8906 377.4219,440.7031 Q377.0938,440.3281 376.4844,440.1094 Q375.875,439.8906 375.25,439.8906 Q374.4844,439.8906 373.8438,440.2188 Q373.2188,440.5469 372.7188,441.2969 Q372.2344,442.0469 372.2344,443.0781 L372.2344,444.1719 Q372.2344,445.4063 373.125,446.2344 Q374.0156,447.0469 375.6094,447.0469 Q376.5469,447.0469 377.2031,446.7969 Q377.5938,446.6406 378.0156,446.2031 Q378.2813,445.9375 378.4219,445.8594 Q378.5781,445.7813 378.7813,445.7813 Q379.1094,445.7813 379.3594,446.0469 Q379.625,446.2969 379.625,446.6406 Q379.625,446.9844 379.2813,447.3906 Q378.7813,447.9688 377.9844,448.2969 Q376.9063,448.75 375.6094,448.75 Q374.0938,448.75 372.8906,448.125 Q371.9063,447.625 371.2188,446.5625 Q370.5313,445.4844 370.5313,444.2031 L370.5313,443.0469 Q370.5313,441.7188 371.1406,440.5781 Q371.7656,439.4219 372.8594,438.8125 Q373.9531,438.1875 375.1875,438.1875 Q375.9219,438.1875 376.5625,438.3594 Q377.2188,438.5156 377.7656,438.875 Z " fill="#000000"/><text fill="#000000" font-family="sans-serif" font-size="14" lengthAdjust="spacing" textLength="150" x="389" y="448.7969">PropertySaleRepository</text><line style="stroke:#181818;stroke-width:0.5;" x1="361" x2="541" y1="459" y2="459"/><line style="stroke:#181818;stroke-width:0.5;" x1="361" x2="541" y1="467" y2="467"/><text fill="#000000" font-family="sans-serif" font-size="14" lengthAdjust="spacing" textLength="149" x="366" y="486.1074">+getPropertySalesList()</text></g><!--class UserSession--><g id="elem_UserSession"><rect codeLine="43" fill="#F1F1F1" height="66.6211" id="UserSession" rx="2.5" ry="2.5" style="stroke:#181818;stroke-width:0.5;" width="111" x="390.5" y="280.5"/><ellipse cx="405.5" cy="296.5" fill="#ADD1B2" rx="11" ry="11" style="stroke:#181818;stroke-width:1.0;"/><path d="M408.2656,292.375 Q408.4219,292.1563 408.6094,292.0469 Q408.7969,291.9375 409.0156,291.9375 Q409.3906,291.9375 409.625,292.2031 Q409.8594,292.4531 409.8594,293.0625 L409.8594,294.5156 Q409.8594,295.125 409.625,295.3906 Q409.3906,295.6563 409.0156,295.6563 Q408.6719,295.6563 408.4688,295.4531 Q408.2656,295.2656 408.1563,294.75 Q408.1094,294.3906 407.9219,294.2031 Q407.5938,293.8281 406.9844,293.6094 Q406.375,293.3906 405.75,293.3906 Q404.9844,293.3906 404.3438,293.7188 Q403.7188,294.0469 403.2188,294.7969 Q402.7344,295.5469 402.7344,296.5781 L402.7344,297.6719 Q402.7344,298.9063 403.625,299.7344 Q404.5156,300.5469 406.1094,300.5469 Q407.0469,300.5469 407.7031,300.2969 Q408.0938,300.1406 408.5156,299.7031 Q408.7813,299.4375 408.9219,299.3594 Q409.0781,299.2813 409.2813,299.2813 Q409.6094,299.2813 409.8594,299.5469 Q410.125,299.7969 410.125,300.1406 Q410.125,300.4844 409.7813,300.8906 Q409.2813,301.4688 408.4844,301.7969 Q407.4063,302.25 406.1094,302.25 Q404.5938,302.25 403.3906,301.625 Q402.4063,301.125 401.7188,300.0625 Q401.0313,298.9844 401.0313,297.7031 L401.0313,296.5469 Q401.0313,295.2188 401.6406,294.0781 Q402.2656,292.9219 403.3594,292.3125 Q404.4531,291.6875 405.6875,291.6875 Q406.4219,291.6875 407.0625,291.8594 Q407.7188,292.0156 408.2656,292.375 Z " fill="#000000"/><text fill="#000000" font-family="sans-serif" font-size="14" lengthAdjust="spacing" textLength="79" x="419.5" y="302.2969">UserSession</text><line style="stroke:#181818;stroke-width:0.5;" x1="391.5" x2="500.5" y1="312.5" y2="312.5"/><line style="stroke:#181818;stroke-width:0.5;" x1="391.5" x2="500.5" y1="320.5" y2="320.5"/><text fill="#000000" font-family="sans-serif" font-size="14" lengthAdjust="spacing" textLength="96" x="396.5" y="339.6074">+getUserRole()</text></g><!--link ListEmployeeUI to ListEmployeeController--><g id="link_ListEmployeeUI_ListEmployeeController"><path codeLine="50" d="M349,55.02 C349,70.54 349,91.58 349,110.55 " fill="none" id="ListEmployeeUI-to-ListEmployeeController" style="stroke:#181818;stroke-width:1.0;"/><polygon fill="#181818" points="349,115.84,353,106.84,349,110.84,345,106.84,349,115.84" style="stroke:#181818;stroke-width:1.0;"/></g><!--link ListEmployeeController to Repositories--><g id="link_ListEmployeeController_Repositories"><path codeLine="52" d="M322.75,201.04 C311.84,218.31 299,238.62 287.29,257.16 " fill="none" id="ListEmployeeController-to-Repositories" style="stroke:#181818;stroke-width:1.0;"/><polygon fill="#181818" points="284.33,261.84,292.5186,256.3676,287.0005,257.6129,285.7552,252.0948,284.33,261.84" style="stroke:#181818;stroke-width:1.0;"/></g><!--link StoreRepository to Store--><g id="link_StoreRepository_Store"><path codeLine="54" d="M77,494.17 C77,513.73 77,540.09 77,567.6 " fill="none" id="StoreRepository-to-Store" style="stroke:#181818;stroke-width:1.0;"/><polygon fill="#181818" points="77,572.74,81,563.74,77,567.74,73,563.74,77,572.74" style="stroke:#181818;stroke-width:1.0;"/><polygon fill="#000000" points="82,538.6455,84.9389,529.6004,79.0611,529.6004,82,538.6455" style="stroke:#000000;stroke-width:1.0;"/><text fill="#000000" font-family="sans-serif" font-size="13" lengthAdjust="spacing" textLength="37" x="91" y="539.0283">knows</text></g><!--link Repositories to StoreRepository--><g id="link_Repositories_StoreRepository"><path codeLine="56" d="M189.81,366.35 C166.97,385.21 141.61,406.15 120.73,423.39 " fill="none" id="Repositories-to-StoreRepository" style="stroke:#181818;stroke-width:1.0;"/><polygon fill="#181818" points="116.61,426.79,126.1023,424.1638,120.4721,423.6145,121.0214,417.9843,116.61,426.79" style="stroke:#181818;stroke-width:1.0;"/></g><!--link Repositories to PropertySaleRepository--><g id="link_Repositories_PropertySaleRepository"><path codeLine="57" d="M322.44,366.15 C348.76,385.26 378.05,406.53 402.02,423.93 " fill="none" id="Repositories-to-PropertySaleRepository" style="stroke:#181818;stroke-width:1.0;"/><polygon fill="#181818" points="406.12,426.91,401.1779,418.3909,402.0708,423.9768,396.4848,424.8696,406.12,426.91" style="stroke:#181818;stroke-width:1.0;"/></g><!--link Repositories to BranchRepository--><g id="link_Repositories_BranchRepository"><path codeLine="58" d="M252,366.35 C252,384.58 252,404.76 252,421.66 " fill="none" id="Repositories-to-BranchRepository" style="stroke:#181818;stroke-width:1.0;"/><polygon fill="#181818" points="252,426.79,256,417.79,252,421.79,248,417.79,252,426.79" style="stroke:#181818;stroke-width:1.0;"/></g><!--link ListEmployeeController to UserSession--><g id="link_ListEmployeeController_UserSession"><path codeLine="60" d="M375.25,201.04 C389.98,224.35 408.2,253.18 422.46,275.76 " fill="none" id="ListEmployeeController-to-UserSession" style="stroke:#181818;stroke-width:1.0;stroke-dasharray:7.0,7.0;"/><polygon fill="#181818" points="425.26,280.18,423.8348,270.4348,422.5895,275.9529,417.0714,274.7076,425.26,280.18" style="stroke:#181818;stroke-width:1.0;"/></g><!--SRC=[TLB1Ri8m3BtdAtBSD85stg5I1nmg8OIe-8005aIaSHMdcXZYtvUa7RWjzDBu-Vd5VZ6TjQsLKvNS6qMKU-_qhl5GxD6M-XVafn0f8vUQ_AAg3Lu0jeMyYjkpp0ojTsWCkC2GyeFG-ToO_pIzlKVq27xji0RdBpDih0_ehHFRG8saFJeD52KYjmmXt1ENgC4bIcM0nkd2abTs3qcyKnyeSNsAOuouSGWf9yMy_Ql38J2f3LQgWlQqg9GsxN5zGWkhfjg1wu2konIblkR9X3R8Mq66H5KM9caMCtsETfVm_hzTcFxq65PU7xSUmNhYPExbqvAUsKEhjWIk36DejAmaeXiqtGE4Rx12aqdsOdVwLBPJiOHlY1235qsCXCalURRuGp8JehTKTyQZQanuxiUODpJvPUVJQSPj4dy0]--></g></svg>