<?xml version="1.0" encoding="us-ascii" standalone="no"?><svg xmlns="http://www.w3.org/2000/svg" xmlns:xlink="http://www.w3.org/1999/xlink" contentStyleType="text/css" height="591px" preserveAspectRatio="none" style="width:463px;height:591px;background:#FFFFFF;" version="1.1" viewBox="0 0 463 591" width="463px" zoomAndPan="magnify"><defs/><g><text fill="#000000" font-family="sans-serif" font-size="14" font-weight="bold" lengthAdjust="spacing" textLength="228" x="118.75" y="27.6738">System Sequence Diagram (SSD)</text><rect fill="#FFFFFF" height="374.6172" style="stroke:#181818;stroke-width:1.0;" width="10" x="74.5" y="127.2813"/><rect fill="#FFFFFF" height="43.0469" style="stroke:#181818;stroke-width:1.0;" width="10" x="409.5" y="147.8047"/><rect fill="#FFFFFF" height="28.5234" style="stroke:#181818;stroke-width:1.0;" width="10" x="409.5" y="242.8984"/><rect fill="#FFFFFF" height="43.0469" style="stroke:#181818;stroke-width:1.0;" width="10" x="409.5" y="299.9453"/><rect fill="#FFFFFF" height="28.5234" style="stroke:#181818;stroke-width:1.0;" width="10" x="409.5" y="385.8047"/><rect fill="#FFFFFF" height="43.0469" style="stroke:#181818;stroke-width:1.0;" width="10" x="409.5" y="442.8516"/><rect fill="none" height="288.0469" style="stroke:#000000;stroke-width:1.5;" width="446.5" x="10" y="205.8516"/><line style="stroke:#181818;stroke-width:0.5;stroke-dasharray:5.0,5.0;" x1="79" x2="79" y1="117.2813" y2="510.8984"/><line style="stroke:#181818;stroke-width:0.5;stroke-dasharray:5.0,5.0;" x1="414.5" x2="414.5" y1="117.2813" y2="510.8984"/><text fill="#000000" font-family="sans-serif" font-size="14" lengthAdjust="spacing" textLength="113" x="20" y="114.3145">Unregistered user</text><ellipse cx="79.5" cy="50.1406" fill="#E3E3E3" rx="8" ry="8" style="stroke:#181818;stroke-width:0.5;"/><path d="M79.5,58.1406 L79.5,85.1406 M66.5,66.1406 L92.5,66.1406 M79.5,85.1406 L66.5,100.1406 M79.5,85.1406 L92.5,100.1406 " fill="none" style="stroke:#181818;stroke-width:0.5;"/><text fill="#000000" font-family="sans-serif" font-size="14" lengthAdjust="spacing" textLength="113" x="20" y="522.5723">Unregistered user</text><ellipse cx="79.5" cy="534.0391" fill="#E3E3E3" rx="8" ry="8" style="stroke:#181818;stroke-width:0.5;"/><path d="M79.5,542.0391 L79.5,569.0391 M66.5,550.0391 L92.5,550.0391 M79.5,569.0391 L66.5,584.0391 M79.5,569.0391 L92.5,584.0391 " fill="none" style="stroke:#181818;stroke-width:0.5;"/><rect fill="#E3E3E3" height="29.6406" rx="2.5" ry="2.5" style="stroke:#181818;stroke-width:0.5;" width="64" x="382.5" y="86.6406"/><text fill="#000000" font-family="sans-serif" font-size="14" lengthAdjust="spacing" textLength="50" x="389.5" y="106.3145">:System</text><rect fill="#E3E3E3" height="29.6406" rx="2.5" ry="2.5" style="stroke:#181818;stroke-width:0.5;" width="64" x="382.5" y="509.8984"/><text fill="#000000" font-family="sans-serif" font-size="14" lengthAdjust="spacing" textLength="50" x="389.5" y="529.5723">:System</text><rect fill="#FFFFFF" height="374.6172" style="stroke:#181818;stroke-width:1.0;" width="10" x="74.5" y="127.2813"/><rect fill="#FFFFFF" height="43.0469" style="stroke:#181818;stroke-width:1.0;" width="10" x="409.5" y="147.8047"/><rect fill="#FFFFFF" height="28.5234" style="stroke:#181818;stroke-width:1.0;" width="10" x="409.5" y="242.8984"/><rect fill="#FFFFFF" height="43.0469" style="stroke:#181818;stroke-width:1.0;" width="10" x="409.5" y="299.9453"/><rect fill="#FFFFFF" height="28.5234" style="stroke:#181818;stroke-width:1.0;" width="10" x="409.5" y="385.8047"/><rect fill="#FFFFFF" height="43.0469" style="stroke:#181818;stroke-width:1.0;" width="10" x="409.5" y="442.8516"/><polygon fill="#181818" points="397.5,143.8047,407.5,147.8047,397.5,151.8047,401.5,147.8047" style="stroke:#181818;stroke-width:1.0;"/><line style="stroke:#181818;stroke-width:1.0;" x1="84.5" x2="403.5" y1="147.8047" y2="147.8047"/><text fill="#000000" font-family="sans-serif" font-size="13" font-weight="bold" lengthAdjust="spacing" textLength="7" x="91.5" y="143.0498">1</text><text fill="#000000" font-family="sans-serif" font-size="13" lengthAdjust="spacing" textLength="210" x="102.5" y="143.0498">asks to display the listed properties.</text><polygon fill="#181818" points="95.5,186.8516,85.5,190.8516,95.5,194.8516,91.5,190.8516" style="stroke:#181818;stroke-width:1.0;"/><line style="stroke:#181818;stroke-width:1.0;stroke-dasharray:2.0,2.0;" x1="89.5" x2="413.5" y1="190.8516" y2="190.8516"/><text fill="#000000" font-family="sans-serif" font-size="13" font-weight="bold" lengthAdjust="spacing" textLength="7" x="101.5" y="178.835">2</text><text fill="#000000" font-family="sans-serif" font-size="13" lengthAdjust="spacing" textLength="286" x="112.5" y="171.5732">ask to select type of business (renting or buying),</text><text fill="#000000" font-family="sans-serif" font-size="13" lengthAdjust="spacing" textLength="264" x="112.5" y="186.0967">the type of property and the number of rooms.</text><path d="M10,205.8516 L71,205.8516 L71,212.375 L61,222.375 L10,222.375 L10,205.8516 " fill="#EEEEEE" style="stroke:#000000;stroke-width:1.5;"/><rect fill="none" height="288.0469" style="stroke:#000000;stroke-width:1.5;" width="446.5" x="10" y="205.8516"/><text fill="#000000" font-family="sans-serif" font-size="13" font-weight="bold" lengthAdjust="spacing" textLength="16" x="25" y="218.6201">alt</text><text fill="#000000" font-family="sans-serif" font-size="11" font-weight="bold" lengthAdjust="spacing" textLength="243" x="86" y="217.8096">[selects one or more of the requested data]</text><polygon fill="#181818" points="397.5,238.8984,407.5,242.8984,397.5,246.8984,401.5,242.8984" style="stroke:#181818;stroke-width:1.0;"/><line style="stroke:#181818;stroke-width:1.0;" x1="84.5" x2="403.5" y1="242.8984" y2="242.8984"/><text fill="#000000" font-family="sans-serif" font-size="13" font-weight="bold" lengthAdjust="spacing" textLength="7" x="91.5" y="238.1436">3</text><text fill="#000000" font-family="sans-serif" font-size="13" lengthAdjust="spacing" textLength="136" x="102.5" y="238.1436">selects requested data.</text><polygon fill="#181818" points="95.5,267.4219,85.5,271.4219,95.5,275.4219,91.5,271.4219" style="stroke:#181818;stroke-width:1.0;"/><line style="stroke:#181818;stroke-width:1.0;stroke-dasharray:2.0,2.0;" x1="89.5" x2="413.5" y1="271.4219" y2="271.4219"/><text fill="#000000" font-family="sans-serif" font-size="13" font-weight="bold" lengthAdjust="spacing" textLength="7" x="101.5" y="266.667">4</text><text fill="#000000" font-family="sans-serif" font-size="13" lengthAdjust="spacing" textLength="277" x="112.5" y="266.667">ask if wants to sort by price, by city or by state.</text><polygon fill="#181818" points="397.5,295.9453,407.5,299.9453,397.5,303.9453,401.5,299.9453" style="stroke:#181818;stroke-width:1.0;"/><line style="stroke:#181818;stroke-width:1.0;" x1="84.5" x2="403.5" y1="299.9453" y2="299.9453"/><text fill="#000000" font-family="sans-serif" font-size="13" font-weight="bold" lengthAdjust="spacing" textLength="7" x="91.5" y="295.1904">5</text><text fill="#000000" font-family="sans-serif" font-size="13" lengthAdjust="spacing" textLength="78" x="102.5" y="295.1904">selects none.</text><polygon fill="#181818" points="95.5,338.9922,85.5,342.9922,95.5,346.9922,91.5,342.9922" style="stroke:#181818;stroke-width:1.0;"/><line style="stroke:#181818;stroke-width:1.0;stroke-dasharray:2.0,2.0;" x1="89.5" x2="413.5" y1="342.9922" y2="342.9922"/><text fill="#000000" font-family="sans-serif" font-size="13" font-weight="bold" lengthAdjust="spacing" textLength="7" x="101.5" y="330.9756">6</text><text fill="#000000" font-family="sans-serif" font-size="13" lengthAdjust="spacing" textLength="277" x="112.5" y="323.7139">shows the listed properties corresponding to the</text><text fill="#000000" font-family="sans-serif" font-size="13" lengthAdjust="spacing" textLength="265" x="116.5" y="338.2373">choices made sorted by most recently added.</text><line style="stroke:#000000;stroke-width:1.0;stroke-dasharray:2.0,2.0;" x1="10" x2="456.5" y1="351.9922" y2="351.9922"/><text fill="#000000" font-family="sans-serif" font-size="11" font-weight="bold" lengthAdjust="spacing" textLength="94" x="15" y="361.9502">[selects nothing]</text><polygon fill="#181818" points="397.5,381.8047,407.5,385.8047,397.5,389.8047,401.5,385.8047" style="stroke:#181818;stroke-width:1.0;"/><line style="stroke:#181818;stroke-width:1.0;" x1="84.5" x2="403.5" y1="385.8047" y2="385.8047"/><text fill="#000000" font-family="sans-serif" font-size="13" font-weight="bold" lengthAdjust="spacing" textLength="7" x="91.5" y="381.0498">7</text><text fill="#000000" font-family="sans-serif" font-size="13" lengthAdjust="spacing" textLength="92" x="102.5" y="381.0498">selects nothing.</text><polygon fill="#181818" points="95.5,410.3281,85.5,414.3281,95.5,418.3281,91.5,414.3281" style="stroke:#181818;stroke-width:1.0;"/><line style="stroke:#181818;stroke-width:1.0;stroke-dasharray:2.0,2.0;" x1="89.5" x2="413.5" y1="414.3281" y2="414.3281"/><text fill="#000000" font-family="sans-serif" font-size="13" font-weight="bold" lengthAdjust="spacing" textLength="7" x="101.5" y="409.5732">8</text><text fill="#000000" font-family="sans-serif" font-size="13" lengthAdjust="spacing" textLength="277" x="112.5" y="409.5732">ask if wants to sort by price, by city or by state.</text><polygon fill="#181818" points="397.5,438.8516,407.5,442.8516,397.5,446.8516,401.5,442.8516" style="stroke:#181818;stroke-width:1.0;"/><line style="stroke:#181818;stroke-width:1.0;" x1="84.5" x2="403.5" y1="442.8516" y2="442.8516"/><text fill="#000000" font-family="sans-serif" font-size="13" font-weight="bold" lengthAdjust="spacing" textLength="7" x="91.5" y="438.0967">9</text><text fill="#000000" font-family="sans-serif" font-size="13" lengthAdjust="spacing" textLength="78" x="102.5" y="438.0967">selects none.</text><polygon fill="#181818" points="95.5,481.8984,85.5,485.8984,95.5,489.8984,91.5,485.8984" style="stroke:#181818;stroke-width:1.0;"/><line style="stroke:#181818;stroke-width:1.0;stroke-dasharray:2.0,2.0;" x1="89.5" x2="413.5" y1="485.8984" y2="485.8984"/><text fill="#000000" font-family="sans-serif" font-size="13" font-weight="bold" lengthAdjust="spacing" textLength="14" x="101.5" y="473.8818">10</text><text fill="#000000" font-family="sans-serif" font-size="13" lengthAdjust="spacing" textLength="281" x="119.5" y="466.6201">shows all the listed properties that are on sale or</text><text fill="#000000" font-family="sans-serif" font-size="13" lengthAdjust="spacing" textLength="241" x="123.5" y="481.1436">on renting sorted by most recently added.</text><!--SRC=[hLD1RkCm3Bph5KHEBT3s0JtigVk2O6-zC1PZ2v54hqWtyE-NKkni5sYD85YTA8YSuN14EOKyOi44YJDtG-54e6KY9zUN4RiJzhJNEH8KwXHp7pydo82Upo7tSCGev9m6jTJzB4e9zlHxejmHl0NiQ_h3Vl_sw1nEodbA1oeMTye5ThzoeJvOLI4Far3P0GhyJ6FacSWPcuOkZ9WLTgyN-9Pn2HjC-42bloKExAmtUFwnDlLgPIS1PV11neWpw40GAxU7iV18HaNoqkgli2iFB6S1UpRSAqT3hi12qMO5Eey4V8J3926J23mKobg7POeFqspHunEyvyg_vYuDp83PjyOkSwfFXJajRNdwiZ6Ckd0BSAPAaxWqt0fLgXrDfaV5ZG6j6FyMt3sHS8Ip6TTcBbmK3hFf31qzrQWBfhOEP0PH0zvKkDbkDirtDIa3d-NhRm0Tbq8oSlRLE5DWQUyPke5DW412JqsKLPc2nA9rKSpdQ1vwJtvJZnsolVaaGGVZkKbiotovIljMy_ytPrlGhIRTsVJ5B8pn6yDqG0Milpw3OAnRO7xPPLs-6zpQ44ZPE-V-0000]--></g></svg>