<?xml version="1.0" encoding="us-ascii" standalone="no"?><svg xmlns="http://www.w3.org/2000/svg" xmlns:xlink="http://www.w3.org/1999/xlink" contentStyleType="text/css" height="564.4px" preserveAspectRatio="none" style="width:589px;height:564px;background:#FFFFFF;" version="1.1" viewBox="0 0 589 564" width="589.2px" zoomAndPan="magnify"><defs/><g><!--class Company--><g id="elem_Company"><rect codeLine="10" fill="#F1F1F1" height="13.4563" id="Company" rx="1" ry="1" style="stroke:#181818;stroke-width:0.20000000000000004;" width="26.4" x="297.8" y="2.8"/><text fill="#000000" font-family="sans-serif" font-size="5.6" lengthAdjust="spacing" textLength="24" x="299" y="9.8695">Company</text><line style="stroke:#181818;stroke-width:0.20000000000000004;" x1="298.2" x2="323.8" y1="13.0563" y2="13.0563"/></g><!--class Owner--><g id="elem_Owner"><rect codeLine="14" fill="#F1F1F1" height="13.4563" id="Owner" rx="1" ry="1" style="stroke:#181818;stroke-width:0.20000000000000004;" width="18.8" x="134.8" y="366.4"/><text fill="#000000" font-family="sans-serif" font-size="5.6" lengthAdjust="spacing" textLength="16.4" x="136" y="373.4695">Owner</text><line style="stroke:#181818;stroke-width:0.20000000000000004;" x1="135.2" x2="153.2" y1="376.6563" y2="376.6563"/></g><!--class Property--><g id="elem_Property"><rect codeLine="17" fill="#F1F1F1" height="38.4813" id="Property" rx="1" ry="1" style="stroke:#181818;stroke-width:0.20000000000000004;" width="76" x="88.2" y="392"/><text fill="#000000" font-family="sans-serif" font-size="5.6" lengthAdjust="spacing" textLength="21.6" x="115.4" y="399.0695">Property</text><line style="stroke:#181818;stroke-width:0.20000000000000004;" x1="88.6" x2="163.8" y1="402.2563" y2="402.2563"/><text fill="#000000" font-family="sans-serif" font-size="5.6" lengthAdjust="spacing" textLength="11.6" x="90.6" y="408.9258">area</text><text fill="#000000" font-family="sans-serif" font-size="5.6" lengthAdjust="spacing" textLength="19.6" x="90.6" y="415.182">location</text><text fill="#000000" font-family="sans-serif" font-size="5.6" lengthAdjust="spacing" textLength="71.2" x="90.6" y="421.4383">distance from the city center</text><text fill="#000000" font-family="sans-serif" font-size="5.6" lengthAdjust="spacing" textLength="32" x="90.6" y="427.6945">photographs</text></g><!--class Land--><g id="elem_Land"><rect codeLine="24" fill="#F1F1F1" height="13.4563" id="Land" rx="1" ry="1" style="stroke:#181818;stroke-width:0.20000000000000004;" width="15.2" x="202.6" y="404.4"/><text fill="#000000" font-family="sans-serif" font-size="5.6" lengthAdjust="spacing" textLength="12.8" x="203.8" y="411.4695">Land</text><line style="stroke:#181818;stroke-width:0.20000000000000004;" x1="203" x2="217.4" y1="414.6563" y2="414.6563"/></g><!--class House--><g id="elem_House"><rect codeLine="27" fill="#F1F1F1" height="32.225" id="House" rx="1" ry="1" style="stroke:#181818;stroke-width:0.20000000000000004;" width="70.4" x="59.4" y="529.6"/><text fill="#000000" font-family="sans-serif" font-size="5.6" lengthAdjust="spacing" textLength="16" x="86.6" y="536.6695">House</text><line style="stroke:#181818;stroke-width:0.20000000000000004;" x1="59.8" x2="129.4" y1="539.8563" y2="539.8563"/><text fill="#000000" font-family="sans-serif" font-size="5.6" lengthAdjust="spacing" textLength="56.4" x="61.8" y="546.5258">existance of basement</text><text fill="#000000" font-family="sans-serif" font-size="5.6" lengthAdjust="spacing" textLength="65.6" x="61.8" y="552.782">exitance of inhabitable loft</text><text fill="#000000" font-family="sans-serif" font-size="5.6" lengthAdjust="spacing" textLength="34" x="61.8" y="559.0383">sun exposure</text></g><!--class Apartment--><g id="elem_Apartment"><rect codeLine="33" fill="#F1F1F1" height="13.4563" id="Apartment" rx="1" ry="1" style="stroke:#181818;stroke-width:0.20000000000000004;" width="28.4" x="144" y="539"/><text fill="#000000" font-family="sans-serif" font-size="5.6" lengthAdjust="spacing" textLength="26" x="145.2" y="546.0695">Apartment</text><line style="stroke:#181818;stroke-width:0.20000000000000004;" x1="144.4" x2="172" y1="549.2563" y2="549.2563"/></g><!--class Agent--><g id="elem_Agent"><rect codeLine="36" fill="#F1F1F1" height="13.4563" id="Agent" rx="1" ry="1" style="stroke:#181818;stroke-width:0.20000000000000004;" width="17.2" x="394.4" y="262.6"/><text fill="#000000" font-family="sans-serif" font-size="5.6" lengthAdjust="spacing" textLength="14.8" x="395.6" y="269.6695">Agent</text><line style="stroke:#181818;stroke-width:0.20000000000000004;" x1="394.8" x2="411.2" y1="272.8563" y2="272.8563"/></g><!--class PropertySaleRequest--><g id="elem_PropertySaleRequest"><rect codeLine="39" fill="#F1F1F1" height="25.9688" id="PropertySaleRequest" rx="1" ry="1" style="stroke:#181818;stroke-width:0.20000000000000004;" width="56.4" x="334" y="328.4"/><text fill="#000000" font-family="sans-serif" font-size="5.6" lengthAdjust="spacing" textLength="54" x="335.2" y="335.4695">PropertySaleRequest</text><line style="stroke:#181818;stroke-width:0.20000000000000004;" x1="334.4" x2="390" y1="338.6563" y2="338.6563"/><text fill="#000000" font-family="sans-serif" font-size="5.6" lengthAdjust="spacing" textLength="41.2" x="336.4" y="345.3258">type of business</text><text fill="#000000" font-family="sans-serif" font-size="5.6" lengthAdjust="spacing" textLength="39.6" x="336.4" y="351.582">requested price</text></g><!--class PropertySale--><g id="elem_PropertySale"><rect codeLine="45" fill="#F1F1F1" height="25.9688" id="PropertySale" rx="1" ry="1" style="stroke:#181818;stroke-width:0.20000000000000004;" width="48.4" x="422" y="398.2"/><text fill="#000000" font-family="sans-serif" font-size="5.6" lengthAdjust="spacing" textLength="32.8" x="429.8" y="405.2695">PropertySale</text><line style="stroke:#181818;stroke-width:0.20000000000000004;" x1="422.4" x2="470" y1="408.4563" y2="408.4563"/><text fill="#000000" font-family="sans-serif" font-size="5.6" lengthAdjust="spacing" textLength="24.8" x="424.4" y="415.1258">commission</text><text fill="#000000" font-family="sans-serif" font-size="5.6" lengthAdjust="spacing" textLength="43.6" x="424.4" y="421.382">type of commission</text></g><!--class Client--><g id="elem_Client"><rect codeLine="50" fill="#F1F1F1" height="57.25" id="Client" rx="1" ry="1" style="stroke:#181818;stroke-width:0.20000000000000004;" width="54" x="160" y="240.8"/><text fill="#000000" font-family="sans-serif" font-size="5.6" lengthAdjust="spacing" textLength="14.4" x="179.8" y="247.8695">Client</text><line style="stroke:#181818;stroke-width:0.20000000000000004;" x1="160.4" x2="213.6" y1="251.0563" y2="251.0563"/><text fill="#000000" font-family="sans-serif" font-size="5.6" lengthAdjust="spacing" textLength="14" x="162.4" y="257.7258">name</text><text fill="#000000" font-family="sans-serif" font-size="5.6" lengthAdjust="spacing" textLength="34" x="162.4" y="263.982">emailAddress</text><text fill="#000000" font-family="sans-serif" font-size="5.6" lengthAdjust="spacing" textLength="46" x="162.4" y="270.2383">telephone number</text><text fill="#000000" font-family="sans-serif" font-size="5.6" lengthAdjust="spacing" textLength="49.2" x="162.4" y="276.4945">citizen card number</text><text fill="#000000" font-family="sans-serif" font-size="5.6" lengthAdjust="spacing" textLength="16" x="162.4" y="282.7508">phone</text><text fill="#000000" font-family="sans-serif" font-size="5.6" lengthAdjust="spacing" textLength="28" x="162.4" y="289.007">tax number</text><text fill="#000000" font-family="sans-serif" font-size="5.6" lengthAdjust="spacing" textLength="20.4" x="162.4" y="295.2633">address</text></g><!--class VisitRequest--><g id="elem_VisitRequest"><rect codeLine="60" fill="#F1F1F1" height="19.7125" id="VisitRequest" rx="1" ry="1" style="stroke:#181818;stroke-width:0.20000000000000004;" width="34" x="405.2" y="331.6"/><text fill="#000000" font-family="sans-serif" font-size="5.6" lengthAdjust="spacing" textLength="31.6" x="406.4" y="338.6695">VisitRequest</text><line style="stroke:#181818;stroke-width:0.20000000000000004;" x1="405.6" x2="438.8" y1="341.8563" y2="341.8563"/><text fill="#000000" font-family="sans-serif" font-size="5.6" lengthAdjust="spacing" textLength="11.2" x="407.6" y="348.5258">date</text></g><!--class BuyRequest--><g id="elem_BuyRequest"><rect codeLine="64" fill="#F1F1F1" height="13.4563" id="BuyRequest" rx="1" ry="1" style="stroke:#181818;stroke-width:0.20000000000000004;" width="33.2" x="453.2" y="334.6"/><text fill="#000000" font-family="sans-serif" font-size="5.6" lengthAdjust="spacing" textLength="30.8" x="454.4" y="341.6695">BuyRequest</text><line style="stroke:#181818;stroke-width:0.20000000000000004;" x1="453.6" x2="486" y1="344.8563" y2="344.8563"/></g><!--class Store--><g id="elem_Store"><rect codeLine="67" fill="#F1F1F1" height="13.4563" id="Store" rx="1" ry="1" style="stroke:#181818;stroke-width:0.20000000000000004;" width="16" x="314.2" y="262.6"/><text fill="#000000" font-family="sans-serif" font-size="5.6" lengthAdjust="spacing" textLength="13.6" x="315.4" y="269.6695">Store</text><line style="stroke:#181818;stroke-width:0.20000000000000004;" x1="314.6" x2="329.8" y1="272.8563" y2="272.8563"/></g><!--class StoreManager--><g id="elem_StoreManager"><rect codeLine="70" fill="#F1F1F1" height="13.4563" id="StoreManager" rx="1" ry="1" style="stroke:#181818;stroke-width:0.20000000000000004;" width="38.4" x="277.8" y="473.2"/><text fill="#000000" font-family="sans-serif" font-size="5.6" lengthAdjust="spacing" textLength="36" x="279" y="480.2695">StoreManager</text><line style="stroke:#181818;stroke-width:0.20000000000000004;" x1="278.2" x2="315.8" y1="483.4563" y2="483.4563"/></g><!--class StoreNetwork--><g id="elem_Branch"><rect codeLine="73" fill="#F1F1F1" height="19.7125" id="Branch" rx="1" ry="1" style="stroke:#181818;stroke-width:0.20000000000000004;" width="24.4" x="310" y="190.8"/><text fill="#000000" font-family="sans-serif" font-size="5.6" lengthAdjust="spacing" textLength="18" x="313.2" y="197.8695">Branch</text><line style="stroke:#181818;stroke-width:0.20000000000000004;" x1="310.4" x2="334" y1="201.0563" y2="201.0563"/><text fill="#000000" font-family="sans-serif" font-size="5.6" lengthAdjust="spacing" textLength="19.6" x="312.4" y="207.7258">location</text></g><!--class UnregisteredUser--><g id="elem_UnregisteredUser"><rect codeLine="77" fill="#F1F1F1" height="13.4563" id="UnregisteredUser" rx="1" ry="1" style="stroke:#181818;stroke-width:0.20000000000000004;" width="46.4" x="253.8" y="262.6"/><text fill="#000000" font-family="sans-serif" font-size="5.6" lengthAdjust="spacing" textLength="44" x="255" y="269.6695">UnregisteredUser</text><line style="stroke:#181818;stroke-width:0.20000000000000004;" x1="254.2" x2="299.8" y1="272.8563" y2="272.8563"/></g><!--class ResidentialProperty--><g id="elem_ResidentialProperty"><rect codeLine="80" fill="#F1F1F1" height="38.4813" id="ResidentialProperty" rx="1" ry="1" style="stroke:#181818;stroke-width:0.20000000000000004;" width="70.4" x="91" y="460.8"/><text fill="#000000" font-family="sans-serif" font-size="5.6" lengthAdjust="spacing" textLength="49.6" x="101.4" y="467.8695">ResidentialProperty</text><line style="stroke:#181818;stroke-width:0.20000000000000004;" x1="91.4" x2="161" y1="471.0563" y2="471.0563"/><text fill="#000000" font-family="sans-serif" font-size="5.6" lengthAdjust="spacing" textLength="52.4" x="93.4" y="477.7258">number of bedrooms</text><text fill="#000000" font-family="sans-serif" font-size="5.6" lengthAdjust="spacing" textLength="54" x="93.4" y="483.982">number of bathrooms</text><text fill="#000000" font-family="sans-serif" font-size="5.6" lengthAdjust="spacing" textLength="65.6" x="93.4" y="490.2383">number of parking spaces</text><text fill="#000000" font-family="sans-serif" font-size="5.6" lengthAdjust="spacing" textLength="50.4" x="93.4" y="496.4945">available equipment</text></g><!--class Employee--><g id="elem_Employee"><rect codeLine="87" fill="#F1F1F1" height="63.5063" id="Employee" rx="1" ry="1" style="stroke:#181818;stroke-width:0.20000000000000004;" width="60.4" x="280.8" y="46.8"/><text fill="#000000" font-family="sans-serif" font-size="5.6" lengthAdjust="spacing" textLength="24.8" x="298.6" y="53.8695">Employee</text><line style="stroke:#181818;stroke-width:0.20000000000000004;" x1="281.2" x2="340.8" y1="57.0563" y2="57.0563"/><text fill="#000000" font-family="sans-serif" font-size="5.6" lengthAdjust="spacing" textLength="14" x="283.2" y="63.7258">name</text><text fill="#000000" font-family="sans-serif" font-size="5.6" lengthAdjust="spacing" textLength="55.6" x="283.2" y="69.982">passport card number</text><text fill="#000000" font-family="sans-serif" font-size="5.6" lengthAdjust="spacing" textLength="28" x="283.2" y="76.2383">tax number</text><text fill="#000000" font-family="sans-serif" font-size="5.6" lengthAdjust="spacing" textLength="17.2" x="283.2" y="82.4945">adress</text><text fill="#000000" font-family="sans-serif" font-size="5.6" lengthAdjust="spacing" textLength="32" x="283.2" y="88.7508">email adress</text><text fill="#000000" font-family="sans-serif" font-size="5.6" lengthAdjust="spacing" textLength="36.8" x="283.2" y="95.007">phone number</text><text fill="#000000" font-family="sans-serif" font-size="5.6" lengthAdjust="spacing" textLength="24" x="283.2" y="101.2633">password</text><text fill="#000000" font-family="sans-serif" font-size="5.6" lengthAdjust="spacing" textLength="18.4" x="283.2" y="107.5195">agency</text></g><!--class NetworkManager--><g id="elem_NetworkManager"><rect codeLine="99" fill="#F1F1F1" height="13.4563" id="NetworkManager" rx="1" ry="1" style="stroke:#181818;stroke-width:0.20000000000000004;" width="44.8" x="288.6" y="143.8"/><text fill="#000000" font-family="sans-serif" font-size="5.6" lengthAdjust="spacing" textLength="42.4" x="289.8" y="150.8695">NetworkManager</text><line style="stroke:#181818;stroke-width:0.20000000000000004;" x1="289" x2="333" y1="154.0563" y2="154.0563"/></g><!--class State--><g id="elem_State"><rect codeLine="102" fill="#F1F1F1" height="19.7125" id="State" rx="1" ry="1" style="stroke:#181818;stroke-width:0.20000000000000004;" width="18.8" x="2.8" y="140.8"/><text fill="#000000" font-family="sans-serif" font-size="5.6" lengthAdjust="spacing" textLength="13.2" x="5.6" y="147.8695">State</text><line style="stroke:#181818;stroke-width:0.20000000000000004;" x1="3.2" x2="21.2" y1="151.0563" y2="151.0563"/><text fill="#000000" font-family="sans-serif" font-size="5.6" lengthAdjust="spacing" textLength="14" x="5.2" y="157.7258">name</text></g><!--class District--><g id="elem_District"><rect codeLine="106" fill="#F1F1F1" height="19.7125" id="District" rx="1" ry="1" style="stroke:#181818;stroke-width:0.20000000000000004;" width="19.6" x="61.2" y="140.8"/><text fill="#000000" font-family="sans-serif" font-size="5.6" lengthAdjust="spacing" textLength="17.2" x="62.4" y="147.8695">District</text><line style="stroke:#181818;stroke-width:0.20000000000000004;" x1="61.6" x2="80.4" y1="151.0563" y2="151.0563"/><text fill="#000000" font-family="sans-serif" font-size="5.6" lengthAdjust="spacing" textLength="14" x="63.6" y="157.7258">name</text></g><!--class City--><g id="elem_City"><rect codeLine="110" fill="#F1F1F1" height="19.7125" id="City" rx="1" ry="1" style="stroke:#181818;stroke-width:0.20000000000000004;" width="18.8" x="120.4" y="140.8"/><text fill="#000000" font-family="sans-serif" font-size="5.6" lengthAdjust="spacing" textLength="9.6" x="125" y="147.8695">City</text><line style="stroke:#181818;stroke-width:0.20000000000000004;" x1="120.8" x2="138.8" y1="151.0563" y2="151.0563"/><text fill="#000000" font-family="sans-serif" font-size="5.6" lengthAdjust="spacing" textLength="14" x="122.8" y="157.7258">name</text></g><!--class SystemAdministrator--><g id="elem_SystemAdministrator"><rect fill="#F1F1F1" height="13.4563" id="SystemAdministrator" rx="1" ry="1" style="stroke:#181818;stroke-width:0.20000000000000004;" width="54" x="102.8" y="71.8"/><text fill="#000000" font-family="sans-serif" font-size="5.6" lengthAdjust="spacing" textLength="51.6" x="104" y="78.8695">SystemAdministrator</text><line style="stroke:#181818;stroke-width:0.20000000000000004;" x1="103.2" x2="156.4" y1="82.0563" y2="82.0563"/></g><!--link Company to Employee--><g id="link_Company_Employee"><path codeLine="114" d="M311,16.416 C311,23.444 311,35.248 311,46.664 " fill="none" id="Company-Employee" style="stroke:#181818;stroke-width:0.4000000000000001;"/><polygon fill="#000000" points="313,33.7047,314.1756,30.0867,311.8244,30.0867,313,33.7047" style="stroke:#000000;stroke-width:0.4000000000000001;"/><text fill="#000000" font-family="sans-serif" font-size="5.2" lengthAdjust="spacing" textLength="19.6" x="316.6" y="33.5074">employs</text><text fill="#000000" font-family="sans-serif" font-size="5.2" lengthAdjust="spacing" textLength="2.8" x="307.7713" y="24.1224">1</text><text fill="#000000" font-family="sans-serif" font-size="5.2" lengthAdjust="spacing" textLength="8" x="302.6188" y="42.4751">0..*</text></g><!--link Employee to SystemAdministrator--><g id="link_Employee_SystemAdministrator"><path codeLine="116" d="M280.756,82.756 C259.924,85.14 231.604,87.436 206.6,86.2 C190.072,85.384 171.62,83.588 156.944,81.944 " fill="none" id="Employee-SystemAdministrator" style="stroke:#181818;stroke-width:0.4000000000000001;"/><polygon fill="#000000" points="210.6,83.1178,206.9897,81.9185,206.9743,84.2696,210.6,83.1178" style="stroke:#000000;stroke-width:0.4000000000000001;"/><text fill="#000000" font-family="sans-serif" font-size="5.2" lengthAdjust="spacing" textLength="18.4" x="212.2" y="84.9074">extends</text></g><!--link SystemAdministrator to Employee--><g id="link_SystemAdministrator_Employee"><path codeLine="131" d="M156.928,78.6 C190.1,78.6 246.088,78.6 280.66,78.6 " fill="none" id="SystemAdministrator-Employee" style="stroke:#181818;stroke-width:0.4000000000000001;"/><polygon fill="#000000" points="209.8,74.3047,206.182,73.1291,206.182,75.4803,209.8,74.3047" style="stroke:#000000;stroke-width:0.4000000000000001;"/><text fill="#000000" font-family="sans-serif" font-size="5.2" lengthAdjust="spacing" textLength="20" x="211.4" y="76.1074">registers</text><text fill="#000000" font-family="sans-serif" font-size="5.2" lengthAdjust="spacing" textLength="2.8" x="160.0483" y="77.4205">1</text><text fill="#000000" font-family="sans-serif" font-size="5.2" lengthAdjust="spacing" textLength="8" x="269.6016" y="77.4715">0..*</text></g><!--link Employee to NetworkManager--><g id="link_Employee_NetworkManager"><path codeLine="117" d="M311,110.436 C311,122.952 311,136.168 311,143.772 " fill="none" id="Employee-NetworkManager" style="stroke:#181818;stroke-width:0.4000000000000001;"/><polygon fill="#000000" points="313,123.7047,311.8244,127.3227,314.1756,127.3227,313,123.7047" style="stroke:#000000;stroke-width:0.4000000000000001;"/><text fill="#000000" font-family="sans-serif" font-size="5.2" lengthAdjust="spacing" textLength="18.4" x="316.6" y="127.5074">extends</text></g><!--link Employee to Agent--><g id="link_Employee_Agent"><path codeLine="118" d="M331.768,110.428 C334.164,114.404 336.5,118.46 338.6,122.4 C366.54,174.764 392.668,241.752 400.576,262.548 " fill="none" id="Employee-Agent" style="stroke:#181818;stroke-width:0.4000000000000001;"/><polygon fill="#000000" points="366.9757,173.8824,367.3957,177.6634,369.5379,176.6944,366.9757,173.8824" style="stroke:#000000;stroke-width:0.4000000000000001;"/><text fill="#000000" font-family="sans-serif" font-size="5.2" lengthAdjust="spacing" textLength="18.4" x="371.4" y="177.5074">extends</text></g><!--link Employee to StoreManager--><g id="link_Employee_StoreManager"><path codeLine="119" d="M341.3,81.18 C408.112,86.82 562.2,104.756 562.2,150.2 C562.2,150.2 562.2,150.2 562.2,411.6 C562.2,462.4 377.312,475.776 316.288,478.804 " fill="none" id="Employee-StoreManager" style="stroke:#181818;stroke-width:0.4000000000000001;"/><polygon fill="#000000" points="564.3256,267.5086,562.9252,271.0457,565.2717,271.1933,564.3256,267.5086" style="stroke:#000000;stroke-width:0.4000000000000001;"/><text fill="#000000" font-family="sans-serif" font-size="5.2" lengthAdjust="spacing" textLength="18.4" x="567.8" y="271.3074">extends</text></g><!--link UnregisteredUser to Property--><g id="link_UnregisteredUser_Property"><path codeLine="121" d="M269.48,276.308 C260.344,284.228 244.484,298.028 231,310 C221.868,318.108 219.388,319.924 210.6,328.4 C187.62,350.572 183.62,357.868 160.6,380 C156.496,383.944 152.024,388.072 147.7,391.972 " fill="none" id="UnregisteredUser-Property" style="stroke:#181818;stroke-width:0.4000000000000001;"/><polygon fill="#000000" points="211.1498,342.882,214.5828,341.2428,212.9636,339.538,211.1498,342.882" style="stroke:#000000;stroke-width:0.4000000000000001;"/><text fill="#000000" font-family="sans-serif" font-size="5.2" lengthAdjust="spacing" textLength="15.6" x="216.2" y="343.3074">search</text><text fill="#000000" font-family="sans-serif" font-size="5.2" lengthAdjust="spacing" textLength="2.8" x="264.0598" y="283.919">1</text><text fill="#000000" font-family="sans-serif" font-size="5.2" lengthAdjust="spacing" textLength="8" x="142.3797" y="387.7162">0..*</text></g><!--link Store to StoreManager--><g id="link_Store_StoreManager"><path codeLine="123" d="M318.768,276.264 C314.832,284.032 308.576,297.568 305.8,310 C291.896,372.3 295.216,450.524 296.572,473.184 " fill="none" id="Store-StoreManager" style="stroke:#181818;stroke-width:0.4000000000000001;"/><polygon fill="#000000" points="299.576,375.2921,301.1494,371.8285,298.8131,371.5652,299.576,375.2921" style="stroke:#000000;stroke-width:0.4000000000000001;"/><text fill="#000000" font-family="sans-serif" font-size="5.2" lengthAdjust="spacing" textLength="19.6" x="303.4" y="375.1074">contains</text><text fill="#000000" font-family="sans-serif" font-size="5.2" lengthAdjust="spacing" textLength="2.8" x="314.4882" y="283.9851">1</text><text fill="#000000" font-family="sans-serif" font-size="5.2" lengthAdjust="spacing" textLength="2.8" x="293.1208" y="468.9286">1</text></g><!--link StoreManager to Store--><g id="link_StoreManager_Store"><path codeLine="124" d="M292.124,473.092 C274.536,448.768 217.484,361.94 258.2,310 C271.98,292.42 289.34,311.672 307,298 C314.08,292.52 318.268,282.78 320.4,276.304 " fill="none" id="StoreManager-Store" style="stroke:#181818;stroke-width:0.4000000000000001;stroke-dasharray:7.0,7.0;"/><polygon fill="#000000" points="248.8845,371.325,247.2063,374.7391,249.5335,375.0735,248.8845,371.325" style="stroke:#000000;stroke-width:0.4000000000000001;"/><text fill="#000000" font-family="sans-serif" font-size="5.2" lengthAdjust="spacing" textLength="21.2" x="252.2" y="375.1074">manages</text></g><!--link Store to Agent--><g id="link_Store_Agent"><path codeLine="125" d="M330.244,269.4 C345.532,269.4 378.66,269.4 394.384,269.4 " fill="none" id="Store-Agent" style="stroke:#181818;stroke-width:0.4000000000000001;"/><polygon fill="#000000" points="353.5,265.1047,349.882,263.9291,349.882,266.2803,353.5,265.1047" style="stroke:#000000;stroke-width:0.4000000000000001;"/><text fill="#000000" font-family="sans-serif" font-size="5.2" lengthAdjust="spacing" textLength="19.6" x="355.1" y="266.9074">contains</text><text fill="#000000" font-family="sans-serif" font-size="5.2" lengthAdjust="spacing" textLength="2.8" x="333.3723" y="267.6384">1</text><text fill="#000000" font-family="sans-serif" font-size="5.2" lengthAdjust="spacing" textLength="8" x="383.1512" y="267.8352">0..*</text></g><!--link StoreNetwork to Store--><g id="link_Branch_Store"><path codeLine="127" d="M322.2,210.456 C322.2,224.468 322.2,250.392 322.2,262.48 " fill="none" id="Branch-Store" style="stroke:#181818;stroke-width:0.4000000000000001;"/><polygon fill="#000000" points="324.2,227.7047,325.3756,224.0867,323.0244,224.0867,324.2,227.7047" style="stroke:#000000;stroke-width:0.4000000000000001;"/><text fill="#000000" font-family="sans-serif" font-size="5.2" lengthAdjust="spacing" textLength="19.6" x="327.8" y="227.5074">contains</text><text fill="#000000" font-family="sans-serif" font-size="5.2" lengthAdjust="spacing" textLength="2.8" x="319.0413" y="218.4189">1</text><text fill="#000000" font-family="sans-serif" font-size="5.2" lengthAdjust="spacing" textLength="8" x="312.825" y="258.3069">0..*</text></g><!--link StoreNetwork to NetworkManager--><g id="link_Branch_NetworkManager"><path codeLine="128" d="M320.648,190.764 C319.708,185.364 318.416,178.472 317,172.4 C315.824,167.364 314.236,161.736 312.988,157.516 " fill="none" id="Branch-NetworkManager" style="stroke:#181818;stroke-width:0.4000000000000001;"/><polygon fill="#000000" points="320.151,173.7557,319.8177,177.5453,322.1088,177.0175,320.151,173.7557" style="stroke:#000000;stroke-width:0.4000000000000001;"/><text fill="#000000" font-family="sans-serif" font-size="5.2" lengthAdjust="spacing" textLength="19.6" x="324.2" y="177.5074">contains</text><text fill="#000000" font-family="sans-serif" font-size="5.2" lengthAdjust="spacing" textLength="2.8" x="317.0547" y="186.4885">1</text><text fill="#000000" font-family="sans-serif" font-size="5.2" lengthAdjust="spacing" textLength="2.8" x="310.3607" y="165.1294">1</text></g><!--link NetworkManager to StoreNetwork--><g id="link_NetworkManager_Branch"><path codeLine="129" d="M298.8,157.468 C290.568,162.744 281.984,170.64 286.6,178.8 C291.572,187.588 301.752,193.164 309.956,196.412 " fill="none" id="NetworkManager-Branch" style="stroke:#181818;stroke-width:0.4000000000000001;stroke-dasharray:7.0,7.0;"/><polygon fill="#000000" points="289.1508,177.6274,289.2845,173.8255,287.0243,174.473,289.1508,177.6274" style="stroke:#000000;stroke-width:0.4000000000000001;"/><text fill="#000000" font-family="sans-serif" font-size="5.2" lengthAdjust="spacing" textLength="21.2" x="292.2" y="177.5074">manages</text><text fill="#000000" font-family="sans-serif" font-size="5.2" lengthAdjust="spacing" textLength="2.8" x="291.835" y="165.1903">1</text><text fill="#000000" font-family="sans-serif" font-size="5.2" lengthAdjust="spacing" textLength="2.8" x="304.0008" y="193.9146">1</text></g><!--link Agent to PropertySale--><g id="link_Agent_PropertySale"><path codeLine="133" d="M411.656,271.872 C428.112,276.228 464.16,287.808 485.4,310 C491.564,316.44 491.584,319.668 493.4,328.4 C498.092,350.948 500.912,360.536 488.6,380 C484.004,387.268 477.024,393.364 470.044,398.168 " fill="none" id="Agent-PropertySale" style="stroke:#181818;stroke-width:0.4000000000000001;stroke-dasharray:7.0,7.0;"/><polygon fill="#000000" points="499.8393,343.3201,499.3881,339.5427,497.254,340.5293,499.8393,343.3201" style="stroke:#000000;stroke-width:0.4000000000000001;"/><text fill="#000000" font-family="sans-serif" font-size="5.2" lengthAdjust="spacing" textLength="20" x="502.6" y="343.3074">registers</text></g><!--link Agent to PropertySaleRequest--><g id="link_Agent_PropertySaleRequest"><path codeLine="134" d="M401.848,276.244 C399.956,285.636 395.56,303.392 387.4,316.4 C384.704,320.7 381.108,324.796 377.476,328.372 " fill="none" id="Agent-PropertySaleRequest" style="stroke:#181818;stroke-width:0.4000000000000001;stroke-dasharray:7.0,7.0;"/><polygon fill="#000000" points="391.7529,315.1164,394.3502,312.3368,392.2204,311.341,391.7529,315.1164" style="stroke:#000000;stroke-width:0.4000000000000001;"/><text fill="#000000" font-family="sans-serif" font-size="5.2" lengthAdjust="spacing" textLength="17.6" x="396.2" y="315.1074">aproves</text></g><!--link Agent to PropertySaleRequest--><g id="link_Agent_PropertySaleRequest"><path codeLine="135" d="M394.292,274.704 C383.744,281.208 366.508,293.78 359.4,310 C356.904,315.692 357.216,322.524 358.316,328.328 " fill="none" id="Agent-PropertySaleRequest-1" style="stroke:#181818;stroke-width:0.4000000000000001;stroke-dasharray:7.0,7.0;"/><polygon fill="#000000" points="362.5143,311.6438,359.5223,313.9934,361.4748,315.3033,362.5143,311.6438" style="stroke:#000000;stroke-width:0.4000000000000001;"/><text fill="#000000" font-family="sans-serif" font-size="5.2" lengthAdjust="spacing" textLength="18.8" x="365" y="315.1074">refers to</text></g><!--link Agent to BuyRequest--><g id="link_Agent_BuyRequest"><path codeLine="136" d="M411.656,274.812 C422.78,281.604 442.14,294.664 454.6,310 C460.724,317.536 465.184,327.948 467.632,334.58 " fill="none" id="Agent-BuyRequest" style="stroke:#181818;stroke-width:0.4000000000000001;stroke-dasharray:7.0,7.0;"/><polygon fill="#000000" points="461.9671,314.7645,460.352,311.3201,458.6359,312.9273,461.9671,314.7645" style="stroke:#000000;stroke-width:0.4000000000000001;"/><text fill="#000000" font-family="sans-serif" font-size="5.2" lengthAdjust="spacing" textLength="17.6" x="464.2" y="315.1074">aproves</text></g><!--link Agent to VisitRequest--><g id="link_Agent_VisitRequest"><path codeLine="137" d="M408.376,276.252 C414.276,283.796 423.392,296.916 427,310 C428.956,317.088 427.512,325.32 425.712,331.52 " fill="none" id="Agent-VisitRequest" style="stroke:#181818;stroke-width:0.4000000000000001;stroke-dasharray:7.0,7.0;"/><polygon fill="#000000" points="430.3986,315.213,430.4374,311.409,428.194,312.1127,430.3986,315.213" style="stroke:#000000;stroke-width:0.4000000000000001;"/><text fill="#000000" font-family="sans-serif" font-size="5.2" lengthAdjust="spacing" textLength="17.6" x="433.4" y="315.1074">aproves</text></g><!--link PropertySaleRequest to PropertySale--><g id="link_PropertySaleRequest_PropertySale"><path codeLine="138" d="M372.388,354.464 C379.044,362.312 388.184,372.324 397.4,380 C405.404,386.668 414.96,393.004 423.484,398.172 " fill="none" id="PropertySaleRequest-PropertySale" style="stroke:#181818;stroke-width:0.4000000000000001;"/><polygon fill="#000000" points="397.8802,372.0046,399.8654,375.2498,401.3937,373.4631,397.8802,372.0046" style="stroke:#000000;stroke-width:0.4000000000000001;"/><text fill="#000000" font-family="sans-serif" font-size="5.2" lengthAdjust="spacing" textLength="18.4" x="403" y="375.1074">extends</text></g><!--link Owner to Property--><g id="link_Owner_Property"><path codeLine="140" d="M141.064,380.08 C139.452,383.412 137.396,387.66 135.332,391.928 " fill="none" id="Owner-Property" style="stroke:#181818;stroke-width:0.4000000000000001;"/><polygon fill="#000000" points="121.497,384.3571,124.1309,381.6121,122.0144,380.5882,121.497,384.3571" style="stroke:#000000;stroke-width:0.4000000000000001;"/><text fill="#000000" font-family="sans-serif" font-size="5.2" lengthAdjust="spacing" textLength="12" x="125.968" y="384.3594">owns</text><text fill="#000000" font-family="sans-serif" font-size="5.2" lengthAdjust="spacing" textLength="8" x="128.1178" y="387.6655">0..*</text></g><!--link PropertySaleRequest to Property--><g id="link_PropertySaleRequest_Property"><path codeLine="141" d="M333.992,344.144 C294.72,347.748 225.856,355.404 203.4,366.4 C195.492,370.272 196.232,374.984 189,380 C181.368,385.296 172.688,390.176 164.268,394.416 " fill="none" id="PropertySaleRequest-Property" style="stroke:#181818;stroke-width:0.4000000000000001;"/><polygon fill="#000000" points="203.4824,373.8727,207.2853,373.9723,206.6175,371.718,203.4824,373.8727" style="stroke:#000000;stroke-width:0.4000000000000001;"/><text fill="#000000" font-family="sans-serif" font-size="5.2" lengthAdjust="spacing" textLength="19.6" x="209" y="375.1074">contains</text><text fill="#000000" font-family="sans-serif" font-size="5.2" lengthAdjust="spacing" textLength="2.8" x="327.9536" y="343.2585">1</text><text fill="#000000" font-family="sans-serif" font-size="5.2" lengthAdjust="spacing" textLength="2.8" x="167.4131" y="391.9679">1</text></g><!--link Property to ResidentialProperty--><g id="link_Property_ResidentialProperty"><path codeLine="142" d="M126.2,430.54 C126.2,439.972 126.2,451.344 126.2,460.76 " fill="none" id="Property-ResidentialProperty" style="stroke:#181818;stroke-width:0.4000000000000001;"/><polygon fill="#000000" points="128.2,443.7047,127.0244,447.3227,129.3756,447.3227,128.2,443.7047" style="stroke:#000000;stroke-width:0.4000000000000001;"/><text fill="#000000" font-family="sans-serif" font-size="5.2" lengthAdjust="spacing" textLength="18.4" x="131.8" y="447.5074">extends</text><text fill="#000000" font-family="sans-serif" font-size="5.2" lengthAdjust="spacing" textLength="2.8" x="123.2031" y="438.3699">1</text><text fill="#000000" font-family="sans-serif" font-size="5.2" lengthAdjust="spacing" textLength="2.8" x="123.1856" y="456.5024">1</text></g><!--link Property to Land--><g id="link_Property_Land"><path codeLine="143" d="M164.268,411.2 C178.68,411.2 193.716,411.2 202.504,411.2 " fill="none" id="Property-Land" style="stroke:#181818;stroke-width:0.4000000000000001;"/><polygon fill="#000000" points="171.2,406.9047,174.818,408.0803,174.818,405.7291,171.2,406.9047" style="stroke:#000000;stroke-width:0.4000000000000001;"/><text fill="#000000" font-family="sans-serif" font-size="5.2" lengthAdjust="spacing" textLength="18.4" x="176.8" y="408.7074">extends</text><text fill="#000000" font-family="sans-serif" font-size="5.2" lengthAdjust="spacing" textLength="2.8" x="167.4131" y="410.0894">1</text><text fill="#000000" font-family="sans-serif" font-size="5.2" lengthAdjust="spacing" textLength="2.8" x="196.5773" y="409.4056">1</text></g><!--link ResidentialProperty to House--><g id="link_ResidentialProperty_House"><path codeLine="144" d="M117.06,499.2 C112.392,508.8 106.78,520.348 102.332,529.5 " fill="none" id="ResidentialProperty-House" style="stroke:#181818;stroke-width:0.4000000000000001;"/><polygon fill="#000000" points="113.4743,512.7059,110.8354,515.446,112.9499,516.4738,113.4743,512.7059" style="stroke:#000000;stroke-width:0.4000000000000001;"/><text fill="#000000" font-family="sans-serif" font-size="5.2" lengthAdjust="spacing" textLength="18.4" x="116.2" y="516.3074">extends</text><text fill="#000000" font-family="sans-serif" font-size="5.2" lengthAdjust="spacing" textLength="2.8" x="112.7119" y="507.1481">1</text><text fill="#000000" font-family="sans-serif" font-size="5.2" lengthAdjust="spacing" textLength="2.8" x="100.6599" y="525.2395">1</text></g><!--link ResidentialProperty to Apartment--><g id="link_ResidentialProperty_Apartment"><path codeLine="145" d="M135.456,499.2 C142.028,512.548 150.456,529.672 154.984,538.864 " fill="none" id="ResidentialProperty-Apartment" style="stroke:#181818;stroke-width:0.4000000000000001;"/><polygon fill="#000000" points="145.3166,512.7104,145.86,516.4756,147.9694,515.4371,145.3166,512.7104" style="stroke:#000000;stroke-width:0.4000000000000001;"/><text fill="#000000" font-family="sans-serif" font-size="5.2" lengthAdjust="spacing" textLength="18.4" x="149.8" y="516.3074">extends</text><text fill="#000000" font-family="sans-serif" font-size="5.2" lengthAdjust="spacing" textLength="2.8" x="133.8099" y="507.1481">1</text><text fill="#000000" font-family="sans-serif" font-size="5.2" lengthAdjust="spacing" textLength="2.8" x="150.5973" y="534.6854">1</text></g><!--link Client to UnregisteredUser--><g id="link_Client_UnregisteredUser"><path codeLine="147" d="M214.004,269.4 C226.636,269.4 241.536,269.4 253.672,269.4 " fill="none" id="Client-UnregisteredUser" style="stroke:#181818;stroke-width:0.4000000000000001;"/><polygon fill="#000000" points="220.9,265.1047,224.518,266.2803,224.518,263.9291,220.9,265.1047" style="stroke:#000000;stroke-width:0.4000000000000001;"/><text fill="#000000" font-family="sans-serif" font-size="5.2" lengthAdjust="spacing" textLength="20" x="226.5" y="266.9074">registers</text><text fill="#000000" font-family="sans-serif" font-size="5.2" lengthAdjust="spacing" textLength="2.8" x="217.2882" y="268.1929">1</text><text fill="#000000" font-family="sans-serif" font-size="5.2" lengthAdjust="spacing" textLength="2.8" x="247.8583" y="268.1877">1</text></g><!--link Client to Owner--><g id="link_Client_Owner"><path codeLine="148" d="M175.248,298.08 C165.524,321.488 152.436,352.984 146.876,366.36 " fill="none" id="Client-Owner" style="stroke:#181818;stroke-width:0.4000000000000001;"/><polygon fill="#000000" points="172.9674,311.4578,170.4936,314.3478,172.6647,315.2499,172.9674,311.4578" style="stroke:#000000;stroke-width:0.4000000000000001;"/><text fill="#000000" font-family="sans-serif" font-size="5.2" lengthAdjust="spacing" textLength="18.4" x="175.8" y="315.1074">extends</text></g><!--link VisitRequest to PropertySale--><g id="link_VisitRequest_PropertySale"><path codeLine="150" d="M423.004,351.288 C423.876,359.156 425.628,370.548 429,380 C431.224,386.228 434.632,392.684 437.828,398.068 " fill="none" id="VisitRequest-PropertySale" style="stroke:#181818;stroke-width:0.4000000000000001;stroke-dasharray:7.0,7.0;"/><polygon fill="#000000" points="431.6042,375.2113,431.6319,371.4071,429.3906,372.1174,431.6042,375.2113" style="stroke:#000000;stroke-width:0.4000000000000001;"/><text fill="#000000" font-family="sans-serif" font-size="5.2" lengthAdjust="spacing" textLength="18.8" x="434.6" y="375.1074">refers to</text></g><!--link BuyRequest to PropertySale--><g id="link_BuyRequest_PropertySale"><path codeLine="151" d="M467.58,348.292 C463.688,359.664 455.58,383.38 450.54,398.108 " fill="none" id="BuyRequest-PropertySale" style="stroke:#181818;stroke-width:0.4000000000000001;stroke-dasharray:7.0,7.0;"/><polygon fill="#000000" points="461.9527,375.197,464.236,372.1542,462.0114,371.3933,461.9527,375.197" style="stroke:#000000;stroke-width:0.4000000000000001;"/><text fill="#000000" font-family="sans-serif" font-size="5.2" lengthAdjust="spacing" textLength="18.8" x="466.2" y="375.1074">refers to</text></g><!--link State to District--><g id="link_State_District"><path codeLine="153" d="M21.648,150.6 C32.492,150.6 50.188,150.6 61.184,150.6 " fill="none" id="State-District" style="stroke:#181818;stroke-width:0.4000000000000001;"/><polygon fill="#000000" points="32.6,146.3047,28.982,145.1291,28.982,147.4803,32.6,146.3047" style="stroke:#000000;stroke-width:0.4000000000000001;"/><text fill="#000000" font-family="sans-serif" font-size="5.2" lengthAdjust="spacing" textLength="19.6" x="34.2" y="148.1074">contains</text><text fill="#000000" font-family="sans-serif" font-size="5.2" lengthAdjust="spacing" textLength="2.8" x="24.8346" y="148.8992">1</text><text fill="#000000" font-family="sans-serif" font-size="5.2" lengthAdjust="spacing" textLength="8" x="49.9891" y="155.9661">0..*</text></g><!--link District to City--><g id="link_District_City"><path codeLine="154" d="M80.84,150.6 C91.828,150.6 109.48,150.6 120.316,150.6 " fill="none" id="District-City" style="stroke:#181818;stroke-width:0.4000000000000001;"/><polygon fill="#000000" points="91.8,146.3047,88.182,145.1291,88.182,147.4803,91.8,146.3047" style="stroke:#000000;stroke-width:0.4000000000000001;"/><text fill="#000000" font-family="sans-serif" font-size="5.2" lengthAdjust="spacing" textLength="19.6" x="93.4" y="148.1074">contains</text><text fill="#000000" font-family="sans-serif" font-size="5.2" lengthAdjust="spacing" textLength="2.8" x="84.0013" y="148.9335">1</text><text fill="#000000" font-family="sans-serif" font-size="5.2" lengthAdjust="spacing" textLength="8" x="109.1978" y="155.9661">0..*</text></g><!--link SystemAdministrator to State--><g id="link_SystemAdministrator_State"><path codeLine="156" d="M119.156,85.444 C96.428,99.204 43.456,131.276 21.74,144.424 " fill="none" id="SystemAdministrator-State" style="stroke:#181818;stroke-width:0.4000000000000001;"/><polygon fill="#000000" points="57.6891,126.7405,61.393,125.8723,60.1753,123.8611,57.6891,126.7405" style="stroke:#000000;stroke-width:0.4000000000000001;"/><text fill="#000000" font-family="sans-serif" font-size="5.2" lengthAdjust="spacing" textLength="20" x="63" y="127.5074">registers</text></g><!--link SystemAdministrator to District--><g id="link_SystemAdministrator_District"><path codeLine="157" d="M124.48,85.444 C114.076,98.04 91,125.984 78.844,140.704 " fill="none" id="SystemAdministrator-District" style="stroke:#181818;stroke-width:0.4000000000000001;"/><polygon fill="#000000" points="94.5265,127.2468,97.7367,125.2057,95.9239,123.7085,94.5265,127.2468" style="stroke:#000000;stroke-width:0.4000000000000001;"/><text fill="#000000" font-family="sans-serif" font-size="5.2" lengthAdjust="spacing" textLength="20" x="99.4" y="127.5074">registers</text></g><!--link SystemAdministrator to City--><g id="link_SystemAdministrator_City"><path codeLine="158" d="M129.8,85.444 C129.8,98.04 129.8,125.984 129.8,140.704 " fill="none" id="SystemAdministrator-City" style="stroke:#181818;stroke-width:0.4000000000000001;"/><polygon fill="#000000" points="131.8,127.7047,132.9756,124.0867,130.6244,124.0867,131.8,127.7047" style="stroke:#000000;stroke-width:0.4000000000000001;"/><text fill="#000000" font-family="sans-serif" font-size="5.2" lengthAdjust="spacing" textLength="20" x="135.4" y="127.5074">registers</text></g><!--link State to Property--><g id="link_State_Property"><path codeLine="160" d="M12.2,160.432 C12.2,170.336 12.2,186.364 12.2,200.2 C12.2,200.2 12.2,200.2 12.2,341.8 C12.2,378.064 54.94,395.788 88.08,404.08 " fill="none" id="State-Property" style="stroke:#181818;stroke-width:0.4000000000000001;"/><polygon fill="#000000" points="13.6053,267.5951,13.5587,271.3991,15.8035,270.7,13.6053,267.5951" style="stroke:#000000;stroke-width:0.4000000000000001;"/><text fill="#000000" font-family="sans-serif" font-size="5.2" lengthAdjust="spacing" textLength="19.6" x="17.8" y="271.3074">contains</text></g><!--link District to Property--><g id="link_District_Property"><path codeLine="161" d="M69.412,160.4 C67.884,170.28 65.8,186.284 65.8,200.2 C65.8,200.2 65.8,200.2 65.8,341.8 C65.8,362.336 81.136,379.696 96.352,391.868 " fill="none" id="District-Property" style="stroke:#181818;stroke-width:0.4000000000000001;"/><polygon fill="#000000" points="67.5688,267.5181,66.8194,271.2478,69.1547,270.976,67.5688,267.5181" style="stroke:#000000;stroke-width:0.4000000000000001;"/><text fill="#000000" font-family="sans-serif" font-size="5.2" lengthAdjust="spacing" textLength="19.6" x="71.4" y="271.3074">contains</text></g><!--link City to Property--><g id="link_City_Property"><path codeLine="162" d="M129.488,160.436 C128.956,176.796 127.896,211.484 127.4,240.8 C126.472,295.688 126.26,360.56 126.212,391.932 " fill="none" id="City-Property" style="stroke:#181818;stroke-width:0.4000000000000001;"/><polygon fill="#000000" points="129.4283,267.5049,128.2017,271.1059,130.5526,271.1392,129.4283,267.5049" style="stroke:#000000;stroke-width:0.4000000000000001;"/><text fill="#000000" font-family="sans-serif" font-size="5.2" lengthAdjust="spacing" textLength="19.6" x="133" y="271.3074">contains</text></g><!--link Client to VisitRequest--><g id="link_Client_VisitRequest"><path codeLine="164" d="M214.024,287.24 C231.328,297.516 254.652,309.764 277,316.4 C328.552,331.704 345.788,313.296 397.4,328.4 C400.18,329.212 403.02,330.34 405.74,331.584 " fill="none" id="Client-VisitRequest" style="stroke:#181818;stroke-width:0.4000000000000001;"/><polygon fill="#000000" points="280.9486,313.7554,277.6885,311.7947,277.1587,314.0854,280.9486,313.7554" style="stroke:#000000;stroke-width:0.4000000000000001;"/><text fill="#000000" font-family="sans-serif" font-size="5.2" lengthAdjust="spacing" textLength="20" x="282.6" y="315.1074">requests</text></g><!--link Client to PropertySaleRequest--><g id="link_Client_PropertySaleRequest"><path codeLine="165" d="M200.868,298.012 C205.58,305.016 211.492,311.82 218.6,316.4 C237.232,328.404 297.652,335.5 333.912,338.784 " fill="none" id="Client-PropertySaleRequest" style="stroke:#181818;stroke-width:0.4000000000000001;"/><polygon fill="#000000" points="222.5122,313.8907,219.3974,311.7066,218.7085,313.9546,222.5122,313.8907" style="stroke:#000000;stroke-width:0.4000000000000001;"/><text fill="#000000" font-family="sans-serif" font-size="5.2" lengthAdjust="spacing" textLength="20" x="224.2" y="315.1074">requests</text></g><!--link Client to BuyRequest--><g id="link_Client_BuyRequest"><path codeLine="166" d="M214.032,284.26 C224.048,289.168 235.636,294.332 246.6,298 C271.564,306.356 278.984,303.94 304.6,310 C315.344,312.54 317.74,314.412 328.6,316.4 C380.28,325.864 395.948,313.072 446.2,328.4 C450.908,329.836 455.764,332.244 459.84,334.572 " fill="none" id="Client-BuyRequest" style="stroke:#181818;stroke-width:0.4000000000000001;"/><polygon fill="#000000" points="332.5594,313.7057,329.2506,311.8285,328.7791,314.1319,332.5594,313.7057" style="stroke:#000000;stroke-width:0.4000000000000001;"/><text fill="#000000" font-family="sans-serif" font-size="5.2" lengthAdjust="spacing" textLength="20" x="334.2" y="315.1074">requests</text></g><!--SRC=[bLPDRzim3BthLmYz51YGeBi6mu2q6x01-qA3xgvOJ2p4bZn9RkCL- - -ZP4cMN6VeUh53Ff7YuoDTSnAoOvgrj5LILRLMBL2hUo0cUJfMdTWHTdPeW6geB9F79WUOcd7r9EIH7bXZW5nFhaP8i4C7L6bRAtBTmC5IgwWMnzfIBbmueMGMh6gOCLjhjTZt5ZvNIkx4Rw0tf1OSQ2LqXRdzUmiOaXj2_15wfzgEoU6Pa3_HzFr9WgRFa-67LXreEw2DQM2aKHNp-RamM5O5z80CK5kxJ0YhG5hGfAkLLKVDkjfCiRumoVFOdrHlu9d0EOPI1xfd1bgCuQp9A6JDzlXpZtGswc29wIM5SwTChs6AjqK-h3kS9zaUPuPOqOurS0-_UZ3EFLAE-Nk33J26wD45d7PQL3xBGW0yMQbM6ECeYJ4cIqfwruZn6fArGA1bejbohbqY2mqWNHAexDizSeSyOlyahPZcqUO1nB9pDB1mEcNuAOomKpsSsOoPstwONCcwiqh32yDN9b6xXGXkDNQYHalgVd8zI0r7x1zeu0y6T7Rg7WoAJbh1caWPrk-lxva6hfLgJMvYjfxRiASdDoW6XmeCOOz8dHS2rYCwBvMKyMFRDMe023HtQEjmZ0ec2muzXRuRDFmeEk42F2dD2H8Ygo7Jm3Umw3W5hWeAaVZOvsJzW0oXYkmBnvtmenMDOIBfrTihkbhHgvlr-irLAejkAFXNGzyJago879V3Ri0-j5lU2kdoCUocEtAs8BcXxueJk7xah8fbR826ERe0yN-bV78acQia59WgJ5jcGmqmZLh30aTvHYhmCOkFYyuo8HqPXMSTXBsXhRSam1Whvem5PM5847f9VuoM0MSuVBoWCaFFV0w-Nlj7Y9FVb2nryQ8U8gt-v5WHXYusL0bQnCJTiA6iq-hHtsF9lrxtNU9Dmy65n4zJ5ZLRD7cmv2-srALqMAh_wYrVCSeA2nw_Lad_Sp4X6ALxgPYiUPdyihObQuPSs6c5qcTdmhtmtN_xSkHIf2oH_pR-pu7fu_UQoVFykjVmOIf5ClAwMc6tap-ZlMZYajmcOMHw-3UGZ8kpcD2qDOks96k1zOkq7EQbGV9RoYKg2xu0pIxm2dIuGZ6IgLE1yfXyIMO1ibor3uv9bgIARGvjGi1imiA_CJv4mYmFrYAq6EW9yHS0]--></g></svg>