<?xml version="1.0" encoding="us-ascii" standalone="no"?><svg xmlns="http://www.w3.org/2000/svg" xmlns:xlink="http://www.w3.org/1999/xlink" contentStyleType="text/css" height="881px" preserveAspectRatio="none" style="width:500px;height:881px;background:#FFFFFF;" version="1.1" viewBox="0 0 500 881" width="500px" zoomAndPan="magnify"><defs/><g><g id="elem_Agent"><rect fill="#F1F1F1" height="38.6211" style="stroke:#181818;stroke-width:0.5;" width="51" x="153.5" y="376"/><text fill="#000000" font-family="sans-serif" font-size="14" lengthAdjust="spacing" textLength="37" x="160.5" y="393.1074">Agent</text><line style="stroke:#181818;stroke-width:0.5;" x1="154.5" x2="203.5" y1="398.6211" y2="398.6211"/></g><g id="elem_Client"><rect fill="#F1F1F1" height="38.6211" style="stroke:#181818;stroke-width:0.5;" width="50" x="253" y="376"/><text fill="#000000" font-family="sans-serif" font-size="14" lengthAdjust="spacing" textLength="36" x="260" y="393.1074">Client</text><line style="stroke:#181818;stroke-width:0.5;" x1="254" x2="302" y1="398.6211" y2="398.6211"/></g><g id="elem_Store"><rect fill="#F1F1F1" height="38.6211" style="stroke:#181818;stroke-width:0.5;" width="48" x="7" y="376"/><text fill="#000000" font-family="sans-serif" font-size="14" lengthAdjust="spacing" textLength="34" x="14" y="393.1074">Store</text><line style="stroke:#181818;stroke-width:0.5;" x1="8" x2="54" y1="398.6211" y2="398.6211"/></g><g id="elem_Company"><rect fill="#F1F1F1" height="38.6211" style="stroke:#181818;stroke-width:0.5;" width="74" x="72" y="68"/><text fill="#000000" font-family="sans-serif" font-size="14" lengthAdjust="spacing" textLength="60" x="79" y="85.1074">Company</text><line style="stroke:#181818;stroke-width:0.5;" x1="73" x2="145" y1="90.6211" y2="90.6211"/></g><g id="elem_Employee"><rect fill="#F1F1F1" height="67.8633" style="stroke:#181818;stroke-width:0.5;" width="76" x="141" y="247"/><text fill="#000000" font-family="sans-serif" font-size="14" lengthAdjust="spacing" textLength="62" x="148" y="264.1074">Employee</text><line style="stroke:#181818;stroke-width:0.5;" x1="142" x2="216" y1="269.6211" y2="269.6211"/><text fill="#000000" font-family="sans-serif" font-size="14" lengthAdjust="spacing" textLength="46" x="147" y="288.7285">agency</text><text fill="#000000" font-family="sans-serif" font-size="14" lengthAdjust="spacing" textLength="24" x="147" y="307.3496">role</text></g><g id="elem_User"><rect fill="#F1F1F1" height="160.9688" style="stroke:#181818;stroke-width:0.5;" width="135" x="181.5" y="7"/><text fill="#000000" font-family="sans-serif" font-size="14" lengthAdjust="spacing" textLength="29" x="234.5" y="24.1074">User</text><line style="stroke:#181818;stroke-width:0.5;" x1="182.5" x2="315.5" y1="29.6211" y2="29.6211"/><text fill="#000000" font-family="sans-serif" font-size="14" lengthAdjust="spacing" textLength="35" x="187.5" y="48.7285">name</text><text fill="#000000" font-family="sans-serif" font-size="14" lengthAdjust="spacing" textLength="85" x="187.5" y="67.3496">emailAddress</text><text fill="#000000" font-family="sans-serif" font-size="14" lengthAdjust="spacing" textLength="115" x="187.5" y="85.9707">telephone number</text><text fill="#000000" font-family="sans-serif" font-size="14" lengthAdjust="spacing" textLength="123" x="187.5" y="104.5918">citizen card number</text><text fill="#000000" font-family="sans-serif" font-size="14" lengthAdjust="spacing" textLength="70" x="187.5" y="123.2129">tax number</text><text fill="#000000" font-family="sans-serif" font-size="14" lengthAdjust="spacing" textLength="51" x="187.5" y="141.834">address</text><text fill="#000000" font-family="sans-serif" font-size="14" lengthAdjust="spacing" textLength="60" x="187.5" y="160.4551">password</text></g><g id="elem_VisitRequest"><rect fill="#F1F1F1" height="49.2422" style="stroke:#181818;stroke-width:0.5;" width="93" x="181.5" y="494"/><text fill="#000000" font-family="sans-serif" font-size="14" lengthAdjust="spacing" textLength="79" x="188.5" y="511.1074">VisitRequest</text><line style="stroke:#181818;stroke-width:0.5;" x1="182.5" x2="273.5" y1="516.6211" y2="516.6211"/><text fill="#000000" font-family="sans-serif" font-size="14" lengthAdjust="spacing" textLength="28" x="187.5" y="535.7285">date</text></g><g id="elem_PropertySale"><rect fill="#F1F1F1" height="67.8633" style="stroke:#181818;stroke-width:0.5;" width="121" x="167.5" y="622"/><text fill="#000000" font-family="sans-serif" font-size="14" lengthAdjust="spacing" textLength="82" x="187" y="639.1074">PropertySale</text><line style="stroke:#181818;stroke-width:0.5;" x1="168.5" x2="287.5" y1="644.6211" y2="644.6211"/><text fill="#000000" font-family="sans-serif" font-size="14" lengthAdjust="spacing" textLength="62" x="173.5" y="663.7285">comission</text><text fill="#000000" font-family="sans-serif" font-size="14" lengthAdjust="spacing" textLength="109" x="173.5" y="682.3496">type of comission</text></g><g id="elem_PropertySaleRequest"><rect fill="#F1F1F1" height="67.8633" style="stroke:#181818;stroke-width:0.5;" width="149" x="323.5" y="622"/><text fill="#000000" font-family="sans-serif" font-size="14" lengthAdjust="spacing" textLength="135" x="330.5" y="639.1074">PropertySaleRequest</text><line style="stroke:#181818;stroke-width:0.5;" x1="324.5" x2="471.5" y1="644.6211" y2="644.6211"/><text fill="#000000" font-family="sans-serif" font-size="14" lengthAdjust="spacing" textLength="103" x="329.5" y="663.7285">type of business</text><text fill="#000000" font-family="sans-serif" font-size="14" lengthAdjust="spacing" textLength="99" x="329.5" y="682.3496">requested price</text></g><g id="elem_Property"><rect fill="#F1F1F1" height="105.1055" style="stroke:#181818;stroke-width:0.5;" width="190" x="303" y="769"/><text fill="#000000" font-family="sans-serif" font-size="14" lengthAdjust="spacing" textLength="54" x="371" y="786.1074">Property</text><line style="stroke:#181818;stroke-width:0.5;" x1="304" x2="492" y1="791.6211" y2="791.6211"/><text fill="#000000" font-family="sans-serif" font-size="14" lengthAdjust="spacing" textLength="29" x="309" y="810.7285">area</text><text fill="#000000" font-family="sans-serif" font-size="14" lengthAdjust="spacing" textLength="49" x="309" y="829.3496">location</text><text fill="#000000" font-family="sans-serif" font-size="14" lengthAdjust="spacing" textLength="178" x="309" y="847.9707">distance from the city center</text><text fill="#000000" font-family="sans-serif" font-size="14" lengthAdjust="spacing" textLength="80" x="309" y="866.5918">photographs</text></g><!--reverse link Employee to Agent--><g id="link_Employee_Agent"><path codeLine="46" d="M179,335.22 C179,349.84 179,364.73 179,375.93 " fill="none" id="Employee-backto-Agent" style="stroke:#181818;stroke-width:1.0;"/><polygon fill="none" points="172,335.15,179,315.15,186,335.15,172,335.15" style="stroke:#181818;stroke-width:1.0;"/></g><!--link Store to Agent--><g id="link_Store_Agent"><path codeLine="47" d="M55.11,395.5 C82.14,395.5 125.79,395.5 153.41,395.5 " fill="none" id="Store-Agent" style="stroke:#181818;stroke-width:1.0;"/><polygon fill="#000000" points="82.25,383.1455,73.2049,380.2066,73.2049,386.0844,82.25,383.1455" style="stroke:#000000;stroke-width:1.0;"/><text fill="#000000" font-family="sans-serif" font-size="13" lengthAdjust="spacing" textLength="49" x="86.25" y="388.5283">contains</text><text fill="#000000" font-family="sans-serif" font-size="13" lengthAdjust="spacing" textLength="7" x="62.8753" y="390.2319">1</text><text fill="#000000" font-family="sans-serif" font-size="13" lengthAdjust="spacing" textLength="20" x="125.6247" y="411.461">0..*</text></g><!--link Company to Employee--><g id="link_Company_Employee"><path codeLine="48" d="M115.84,107.21 C127.67,139.59 152.12,206.46 166.88,246.86 " fill="none" id="Company-Employee" style="stroke:#181818;stroke-width:1.0;"/><polygon fill="#000000" points="161.7164,212.3417,161.3718,202.8374,155.8511,204.8551,161.7164,212.3417" style="stroke:#000000;stroke-width:1.0;"/><text fill="#000000" font-family="sans-serif" font-size="13" lengthAdjust="spacing" textLength="49" x="169" y="213.0283">employs</text><text fill="#000000" font-family="sans-serif" font-size="13" lengthAdjust="spacing" textLength="7" x="109.6959" y="128.553">1</text><text fill="#000000" font-family="sans-serif" font-size="13" lengthAdjust="spacing" textLength="20" x="142.6634" y="235.8008">0..*</text></g><!--link Agent to VisitRequest--><g id="link_Agent_VisitRequest"><path codeLine="49" d="M174.07,415.26 C171.37,429.22 169.69,448.46 176,464 C180.58,475.28 188.81,485.49 197.39,493.9 " fill="none" id="Agent-VisitRequest" style="stroke:#181818;stroke-width:1.0;stroke-dasharray:7.0,7.0;"/><polygon fill="#000000" points="182.4215,459.4392,182.6676,449.9318,177.0323,451.6029,182.4215,459.4392" style="stroke:#000000;stroke-width:1.0;"/><text fill="#000000" font-family="sans-serif" font-size="13" lengthAdjust="spacing" textLength="44" x="190" y="460.0283">aproves</text></g><!--reverse link User to Employee--><g id="link_User_Employee"><path codeLine="50" d="M237.04,187.59 C234.35,197.73 231.04,207.7 227,217 C222.45,227.47 215.8,237.77 208.9,246.91 " fill="none" id="User-backto-Employee" style="stroke:#181818;stroke-width:1.0;"/><polygon fill="none" points="230.23,185.98,241.52,168.05,243.88,189.1,230.23,185.98" style="stroke:#181818;stroke-width:1.0;"/></g><!--link Client to VisitRequest--><g id="link_Client_VisitRequest"><path codeLine="51" d="M270.3,415.14 C261.59,436.22 247.38,470.6 237.86,493.63 " fill="none" id="Client-VisitRequest" style="stroke:#181818;stroke-width:1.0;"/><polygon fill="#000000" points="261.0902,459.2664,267.2612,452.0297,261.829,449.7846,261.0902,459.2664" style="stroke:#000000;stroke-width:1.0;"/><text fill="#000000" font-family="sans-serif" font-size="13" lengthAdjust="spacing" textLength="50" x="272" y="460.0283">requests</text></g><!--link PropertySaleRequest to Property--><g id="link_PropertySaleRequest_Property"><path codeLine="52" d="M398,690.09 C398,712.67 398,743.04 398,768.79 " fill="none" id="PropertySaleRequest-Property" style="stroke:#181818;stroke-width:1.0;"/><polygon fill="#000000" points="403,734.6455,405.9389,725.6004,400.0611,725.6004,403,734.6455" style="stroke:#000000;stroke-width:1.0;"/><text fill="#000000" font-family="sans-serif" font-size="13" lengthAdjust="spacing" textLength="49" x="412" y="735.0283">contains</text><text fill="#000000" font-family="sans-serif" font-size="13" lengthAdjust="spacing" textLength="7" x="390.3547" y="712.0103">1</text><text fill="#000000" font-family="sans-serif" font-size="13" lengthAdjust="spacing" textLength="7" x="390.5297" y="757.6057">1</text></g><!--link VisitRequest to PropertySale--><g id="link_VisitRequest_PropertySale"><path codeLine="53" d="M228,543.1 C228,564.86 228,597.39 228,621.77 " fill="none" id="VisitRequest-PropertySale" style="stroke:#181818;stroke-width:1.0;stroke-dasharray:7.0,7.0;"/><polygon fill="#000000" points="233,587.6455,235.9389,578.6004,230.0611,578.6004,233,587.6455" style="stroke:#000000;stroke-width:1.0;"/><text fill="#000000" font-family="sans-serif" font-size="13" lengthAdjust="spacing" textLength="47" x="242" y="588.0283">refers to</text></g><!--link PropertySale to PropertySaleRequest--><g id="link_PropertySale_PropertySaleRequest"><path codeLine="54" d="M288.76,656 C293.53,656 298.3,656 303.07,656 " fill="none" id="PropertySale-to-PropertySaleRequest" style="stroke:#181818;stroke-width:1.0;"/><polygon fill="none" points="303.33,649,323.33,656,303.33,663,303.33,649" style="stroke:#181818;stroke-width:1.0;"/></g><!--SRC=[TLBBJiCm4BpxArQz824rXMk5a2h47O7WlhMthP7jDVOM28L_nswQj44b5pzsPtOyaukDICppsImw3BBrhj7iPzfXpbDZSPtGAyNBLz82YpK5wGztpfwSdeGJ3INs4KCxuEvzTDmIxHGM1jsgn8xKpr1_pfHWfm9wKkJHkeKnYN9MGexYXWD1sFeb9QMjs2yAe36P_axmiz_Y0HUB-WzEvcJ6YyrM7kbjIrdAB8Dogk0XSQGaxHCwAjLYWStPSb3IHW9UmV7cFEZ8t2EMssn35PEw4Xc8oUfpKmiA4w5oh57g36EpOD04gyGUP4DG7jw2BeQNLnP7X4imSPChcLAzlt3pFPqQ_WXmY6gV2aok9p25oLNJN4ww0ipBWuAW3HbkrI6khcze74ZdGFjjRUtGJJEsSmuO4xzJxTXdMNKC1AhxKohr7zJ1cGexvsMlfoo3KoFX8xeYQfHYfLzHoY3y3tzLwMWr3b9rtoy0]--></g></svg>