<?xml version="1.0" encoding="us-ascii" standalone="no"?><svg xmlns="http://www.w3.org/2000/svg" xmlns:xlink="http://www.w3.org/1999/xlink" contentStyleType="text/css" height="1152px" preserveAspectRatio="none" style="width:1636px;height:1152px;background:#FFFFFF;" version="1.1" viewBox="0 0 1636 1152" width="1636px" zoomAndPan="magnify"><defs/><g><!--class RegisterPropertySaleUI--><g id="elem_RegisterPropertySaleUI"><rect codeLine="11" fill="#F1F1F1" height="48" id="RegisterPropertySaleUI" rx="2.5" ry="2.5" style="stroke:#181818;stroke-width:0.5;" width="179" x="56" y="138.2549"/><ellipse cx="71" cy="154.2549" fill="#ADD1B2" rx="11" ry="11" style="stroke:#181818;stroke-width:1.0;"/><path d="M73.7656,150.1299 Q73.9219,149.9111 74.1094,149.8018 Q74.2969,149.6924 74.5156,149.6924 Q74.8906,149.6924 75.125,149.958 Q75.3594,150.208 75.3594,150.8174 L75.3594,152.2705 Q75.3594,152.8799 75.125,153.1455 Q74.8906,153.4111 74.5156,153.4111 Q74.1719,153.4111 73.9688,153.208 Q73.7656,153.0205 73.6563,152.5049 Q73.6094,152.1455 73.4219,151.958 Q73.0938,151.583 72.4844,151.3643 Q71.875,151.1455 71.25,151.1455 Q70.4844,151.1455 69.8438,151.4736 Q69.2188,151.8018 68.7188,152.5518 Q68.2344,153.3018 68.2344,154.333 L68.2344,155.4268 Q68.2344,156.6611 69.125,157.4893 Q70.0156,158.3018 71.6094,158.3018 Q72.5469,158.3018 73.2031,158.0518 Q73.5938,157.8955 74.0156,157.458 Q74.2813,157.1924 74.4219,157.1143 Q74.5781,157.0361 74.7813,157.0361 Q75.1094,157.0361 75.3594,157.3018 Q75.625,157.5518 75.625,157.8955 Q75.625,158.2393 75.2813,158.6455 Q74.7813,159.2236 73.9844,159.5518 Q72.9063,160.0049 71.6094,160.0049 Q70.0938,160.0049 68.8906,159.3799 Q67.9063,158.8799 67.2188,157.8174 Q66.5313,156.7393 66.5313,155.458 L66.5313,154.3018 Q66.5313,152.9736 67.1406,151.833 Q67.7656,150.6768 68.8594,150.0674 Q69.9531,149.4424 71.1875,149.4424 Q71.9219,149.4424 72.5625,149.6143 Q73.2188,149.7705 73.7656,150.1299 Z " fill="#000000"/><text fill="#000000" font-family="sans-serif" font-size="14" lengthAdjust="spacing" textLength="147" x="85" y="159.1084">RegisterPropertySaleUI</text><line style="stroke:#181818;stroke-width:0.5;" x1="57" x2="234" y1="170.2549" y2="170.2549"/><line style="stroke:#181818;stroke-width:0.5;" x1="57" x2="234" y1="178.2549" y2="178.2549"/></g><!--class RegisterPropertySaleController--><g id="elem_RegisterPropertySaleController"><rect codeLine="13" fill="#F1F1F1" height="220.0469" id="RegisterPropertySaleController" rx="2.5" ry="2.5" style="stroke:#181818;stroke-width:0.5;" width="359" x="270" y="52.2549"/><ellipse cx="346.75" cy="68.2549" fill="#ADD1B2" rx="11" ry="11" style="stroke:#181818;stroke-width:1.0;"/><path d="M349.5156,64.1299 Q349.6719,63.9111 349.8594,63.8018 Q350.0469,63.6924 350.2656,63.6924 Q350.6406,63.6924 350.875,63.958 Q351.1094,64.208 351.1094,64.8174 L351.1094,66.2705 Q351.1094,66.8799 350.875,67.1455 Q350.6406,67.4111 350.2656,67.4111 Q349.9219,67.4111 349.7188,67.208 Q349.5156,67.0205 349.4063,66.5049 Q349.3594,66.1455 349.1719,65.958 Q348.8438,65.583 348.2344,65.3643 Q347.625,65.1455 347,65.1455 Q346.2344,65.1455 345.5938,65.4736 Q344.9688,65.8018 344.4688,66.5518 Q343.9844,67.3018 343.9844,68.333 L343.9844,69.4268 Q343.9844,70.6611 344.875,71.4893 Q345.7656,72.3018 347.3594,72.3018 Q348.2969,72.3018 348.9531,72.0518 Q349.3438,71.8955 349.7656,71.458 Q350.0313,71.1924 350.1719,71.1143 Q350.3281,71.0361 350.5313,71.0361 Q350.8594,71.0361 351.1094,71.3018 Q351.375,71.5518 351.375,71.8955 Q351.375,72.2393 351.0313,72.6455 Q350.5313,73.2236 349.7344,73.5518 Q348.6563,74.0049 347.3594,74.0049 Q345.8438,74.0049 344.6406,73.3799 Q343.6563,72.8799 342.9688,71.8174 Q342.2813,70.7393 342.2813,69.458 L342.2813,68.3018 Q342.2813,66.9736 342.8906,65.833 Q343.5156,64.6768 344.6094,64.0674 Q345.7031,63.4424 346.9375,63.4424 Q347.6719,63.4424 348.3125,63.6143 Q348.9688,63.7705 349.5156,64.1299 Z " fill="#000000"/><text fill="#000000" font-family="sans-serif" font-size="14" lengthAdjust="spacing" textLength="197" x="367.25" y="73.1084">RegisterPropertySaleController</text><line style="stroke:#181818;stroke-width:0.5;" x1="271" x2="628" y1="84.2549" y2="84.2549"/><rect fill="none" height="6" style="stroke:#C82930;stroke-width:1.0;" width="6" x="278" y="94.5752"/><text fill="#000000" font-family="sans-serif" font-size="14" lengthAdjust="spacing" textLength="93" x="290" y="100.9287">Repository rep</text><line style="stroke:#181818;stroke-width:0.5;" x1="271" x2="628" y1="107.8955" y2="107.8955"/><ellipse cx="281" cy="121.2158" fill="#84BE84" rx="3" ry="3" style="stroke:#038048;stroke-width:1.0;"/><text fill="#000000" font-family="sans-serif" font-size="14" lengthAdjust="spacing" textLength="207" x="290" y="124.5693">RegisterPropertySaleController()</text><ellipse cx="281" cy="136.8564" fill="#84BE84" rx="3" ry="3" style="stroke:#038048;stroke-width:1.0;"/><text fill="#000000" font-family="sans-serif" font-size="14" lengthAdjust="spacing" textLength="92" x="290" y="140.21">getStatesList()</text><ellipse cx="281" cy="152.4971" fill="#84BE84" rx="3" ry="3" style="stroke:#038048;stroke-width:1.0;"/><text fill="#000000" font-family="sans-serif" font-size="14" lengthAdjust="spacing" textLength="126" x="290" y="155.8506">getDistrictList(state)</text><ellipse cx="281" cy="168.1377" fill="#84BE84" rx="3" ry="3" style="stroke:#038048;stroke-width:1.0;"/><text fill="#000000" font-family="sans-serif" font-size="14" lengthAdjust="spacing" textLength="128" x="290" y="171.4912">getCitiesList(district)</text><ellipse cx="281" cy="207.2393" fill="#84BE84" rx="3" ry="3" style="stroke:#038048;stroke-width:1.0;"/><text fill="#000000" font-family="sans-serif" font-size="14" lengthAdjust="spacing" textLength="323" x="290" y="187.1318">createPropertySale(typeOfBusiness, propertyType,</text><text fill="#000000" font-family="sans-serif" font-size="14" lengthAdjust="spacing" textLength="329" x="290" y="202.7725">area, distaceFromCityCenter, requestedPrice, state,</text><text fill="#000000" font-family="sans-serif" font-size="14" lengthAdjust="spacing" textLength="300" x="290" y="218.4131">district, city, adress, photos, ownerEmailAdress,</text><text fill="#000000" font-family="sans-serif" font-size="14" lengthAdjust="spacing" textLength="221" x="290" y="234.0537">typeOfComission, agentComission)</text><ellipse cx="281" cy="246.3408" fill="#84BE84" rx="3" ry="3" style="stroke:#038048;stroke-width:1.0;"/><text fill="#000000" font-family="sans-serif" font-size="14" lengthAdjust="spacing" textLength="150" x="290" y="249.6943">getAgentFromSession()</text><ellipse cx="281" cy="261.9814" fill="#84BE84" rx="3" ry="3" style="stroke:#038048;stroke-width:1.0;"/><text fill="#000000" font-family="sans-serif" font-size="14" lengthAdjust="spacing" textLength="133" x="290" y="265.335">getClientFromEmail()</text></g><!--class Repositories--><g id="elem_Repositories"><rect codeLine="25" fill="#F1F1F1" height="141.8438" id="Repositories" rx="2.5" ry="2.5" style="stroke:#181818;stroke-width:0.5;" width="206" x="857.5" y="91.2549"/><ellipse cx="916.75" cy="107.2549" fill="#ADD1B2" rx="11" ry="11" style="stroke:#181818;stroke-width:1.0;"/><path d="M919.5156,103.1299 Q919.6719,102.9111 919.8594,102.8018 Q920.0469,102.6924 920.2656,102.6924 Q920.6406,102.6924 920.875,102.958 Q921.1094,103.208 921.1094,103.8174 L921.1094,105.2705 Q921.1094,105.8799 920.875,106.1455 Q920.6406,106.4111 920.2656,106.4111 Q919.9219,106.4111 919.7188,106.208 Q919.5156,106.0205 919.4063,105.5049 Q919.3594,105.1455 919.1719,104.958 Q918.8438,104.583 918.2344,104.3643 Q917.625,104.1455 917,104.1455 Q916.2344,104.1455 915.5938,104.4736 Q914.9688,104.8018 914.4688,105.5518 Q913.9844,106.3018 913.9844,107.333 L913.9844,108.4268 Q913.9844,109.6611 914.875,110.4893 Q915.7656,111.3018 917.3594,111.3018 Q918.2969,111.3018 918.9531,111.0518 Q919.3438,110.8955 919.7656,110.458 Q920.0313,110.1924 920.1719,110.1143 Q920.3281,110.0361 920.5313,110.0361 Q920.8594,110.0361 921.1094,110.3018 Q921.375,110.5518 921.375,110.8955 Q921.375,111.2393 921.0313,111.6455 Q920.5313,112.2236 919.7344,112.5518 Q918.6563,113.0049 917.3594,113.0049 Q915.8438,113.0049 914.6406,112.3799 Q913.6563,111.8799 912.9688,110.8174 Q912.2813,109.7393 912.2813,108.458 L912.2813,107.3018 Q912.2813,105.9736 912.8906,104.833 Q913.5156,103.6768 914.6094,103.0674 Q915.7031,102.4424 916.9375,102.4424 Q917.6719,102.4424 918.3125,102.6143 Q918.9688,102.7705 919.5156,103.1299 Z " fill="#000000"/><text fill="#000000" font-family="sans-serif" font-size="14" lengthAdjust="spacing" textLength="79" x="937.25" y="112.1084">Repositories</text><line style="stroke:#181818;stroke-width:0.5;" x1="858.5" x2="1062.5" y1="123.2549" y2="123.2549"/><line style="stroke:#181818;stroke-width:0.5;" x1="858.5" x2="1062.5" y1="131.2549" y2="131.2549"/><rect fill="#F24D5C" height="6" style="stroke:#C82930;stroke-width:1.0;" width="6" x="865.5" y="141.5752"/><text fill="#000000" font-family="sans-serif" font-size="14" lengthAdjust="spacing" textLength="89" x="877.5" y="147.9287">Repositories()</text><ellipse cx="868.5" cy="160.2158" fill="#84BE84" rx="3" ry="3" style="stroke:#038048;stroke-width:1.0;"/><text fill="#000000" font-family="sans-serif" font-size="14" lengthAdjust="spacing" textLength="174" x="877.5" y="163.5693">getInstance() : Repositories</text><ellipse cx="868.5" cy="175.8564" fill="#84BE84" rx="3" ry="3" style="stroke:#038048;stroke-width:1.0;"/><text fill="#000000" font-family="sans-serif" font-size="14" lengthAdjust="spacing" textLength="159" x="877.5" y="179.21">getLocationsRepository()</text><ellipse cx="868.5" cy="191.4971" fill="#84BE84" rx="3" ry="3" style="stroke:#038048;stroke-width:1.0;"/><text fill="#000000" font-family="sans-serif" font-size="14" lengthAdjust="spacing" textLength="158" x="877.5" y="194.8506">getBranchesRepository()</text><ellipse cx="868.5" cy="207.1377" fill="#84BE84" rx="3" ry="3" style="stroke:#038048;stroke-width:1.0;"/><text fill="#000000" font-family="sans-serif" font-size="14" lengthAdjust="spacing" textLength="134" x="877.5" y="210.4912">getClientRepository()</text><ellipse cx="868.5" cy="222.7783" fill="#84BE84" rx="3" ry="3" style="stroke:#038048;stroke-width:1.0;"/><text fill="#000000" font-family="sans-serif" font-size="14" lengthAdjust="spacing" textLength="180" x="877.5" y="226.1318">getPropertySaleRepository()</text></g><!--class LocationsRepository--><g id="elem_LocationsRepository"><rect codeLine="35" fill="#F1F1F1" height="63.6406" id="LocationsRepository" rx="2.5" ry="2.5" style="stroke:#181818;stroke-width:0.5;" width="161" x="382" y="355.7549"/><ellipse cx="397" cy="371.7549" fill="#ADD1B2" rx="11" ry="11" style="stroke:#181818;stroke-width:1.0;"/><path d="M399.7656,367.6299 Q399.9219,367.4111 400.1094,367.3018 Q400.2969,367.1924 400.5156,367.1924 Q400.8906,367.1924 401.125,367.458 Q401.3594,367.708 401.3594,368.3174 L401.3594,369.7705 Q401.3594,370.3799 401.125,370.6455 Q400.8906,370.9111 400.5156,370.9111 Q400.1719,370.9111 399.9688,370.708 Q399.7656,370.5205 399.6563,370.0049 Q399.6094,369.6455 399.4219,369.458 Q399.0938,369.083 398.4844,368.8643 Q397.875,368.6455 397.25,368.6455 Q396.4844,368.6455 395.8438,368.9736 Q395.2188,369.3018 394.7188,370.0518 Q394.2344,370.8018 394.2344,371.833 L394.2344,372.9268 Q394.2344,374.1611 395.125,374.9893 Q396.0156,375.8018 397.6094,375.8018 Q398.5469,375.8018 399.2031,375.5518 Q399.5938,375.3955 400.0156,374.958 Q400.2813,374.6924 400.4219,374.6143 Q400.5781,374.5361 400.7813,374.5361 Q401.1094,374.5361 401.3594,374.8018 Q401.625,375.0518 401.625,375.3955 Q401.625,375.7393 401.2813,376.1455 Q400.7813,376.7236 399.9844,377.0518 Q398.9063,377.5049 397.6094,377.5049 Q396.0938,377.5049 394.8906,376.8799 Q393.9063,376.3799 393.2188,375.3174 Q392.5313,374.2393 392.5313,372.958 L392.5313,371.8018 Q392.5313,370.4736 393.1406,369.333 Q393.7656,368.1768 394.8594,367.5674 Q395.9531,366.9424 397.1875,366.9424 Q397.9219,366.9424 398.5625,367.1143 Q399.2188,367.2705 399.7656,367.6299 Z " fill="#000000"/><text fill="#000000" font-family="sans-serif" font-size="14" lengthAdjust="spacing" textLength="129" x="411" y="376.6084">LocationsRepository</text><line style="stroke:#181818;stroke-width:0.5;" x1="383" x2="542" y1="387.7549" y2="387.7549"/><line style="stroke:#181818;stroke-width:0.5;" x1="383" x2="542" y1="395.7549" y2="395.7549"/><ellipse cx="393" cy="409.0752" fill="#84BE84" rx="3" ry="3" style="stroke:#038048;stroke-width:1.0;"/><text fill="#000000" font-family="sans-serif" font-size="14" lengthAdjust="spacing" textLength="92" x="402" y="412.4287">getStatesList()</text></g><!--class State--><g id="elem_State"><rect codeLine="40" fill="#F1F1F1" height="63.6406" id="State" rx="2.5" ry="2.5" style="stroke:#181818;stroke-width:0.5;" width="106" x="332.5" y="503.7549"/><ellipse cx="365.95" cy="519.7549" fill="#ADD1B2" rx="11" ry="11" style="stroke:#181818;stroke-width:1.0;"/><path d="M368.7156,515.6299 Q368.8719,515.4111 369.0594,515.3018 Q369.2469,515.1924 369.4656,515.1924 Q369.8406,515.1924 370.075,515.458 Q370.3094,515.708 370.3094,516.3174 L370.3094,517.7705 Q370.3094,518.3799 370.075,518.6455 Q369.8406,518.9111 369.4656,518.9111 Q369.1219,518.9111 368.9188,518.708 Q368.7156,518.5205 368.6063,518.0049 Q368.5594,517.6455 368.3719,517.458 Q368.0438,517.083 367.4344,516.8643 Q366.825,516.6455 366.2,516.6455 Q365.4344,516.6455 364.7938,516.9736 Q364.1688,517.3018 363.6688,518.0518 Q363.1844,518.8018 363.1844,519.833 L363.1844,520.9268 Q363.1844,522.1611 364.075,522.9893 Q364.9656,523.8018 366.5594,523.8018 Q367.4969,523.8018 368.1531,523.5518 Q368.5438,523.3955 368.9656,522.958 Q369.2313,522.6924 369.3719,522.6143 Q369.5281,522.5361 369.7313,522.5361 Q370.0594,522.5361 370.3094,522.8018 Q370.575,523.0518 370.575,523.3955 Q370.575,523.7393 370.2313,524.1455 Q369.7313,524.7236 368.9344,525.0518 Q367.8563,525.5049 366.5594,525.5049 Q365.0438,525.5049 363.8406,524.8799 Q362.8563,524.3799 362.1688,523.3174 Q361.4813,522.2393 361.4813,520.958 L361.4813,519.8018 Q361.4813,518.4736 362.0906,517.333 Q362.7156,516.1768 363.8094,515.5674 Q364.9031,514.9424 366.1375,514.9424 Q366.8719,514.9424 367.5125,515.1143 Q368.1688,515.2705 368.7156,515.6299 Z " fill="#000000"/><text fill="#000000" font-family="sans-serif" font-size="14" lengthAdjust="spacing" textLength="33" x="384.05" y="524.6084">State</text><line style="stroke:#181818;stroke-width:0.5;" x1="333.5" x2="437.5" y1="535.7549" y2="535.7549"/><line style="stroke:#181818;stroke-width:0.5;" x1="333.5" x2="437.5" y1="543.7549" y2="543.7549"/><ellipse cx="343.5" cy="557.0752" fill="#84BE84" rx="3" ry="3" style="stroke:#038048;stroke-width:1.0;"/><text fill="#000000" font-family="sans-serif" font-size="14" lengthAdjust="spacing" textLength="80" x="352.5" y="560.4287">getDistricts()</text></g><!--class District--><g id="elem_District"><rect codeLine="45" fill="#F1F1F1" height="63.6406" id="District" rx="2.5" ry="2.5" style="stroke:#181818;stroke-width:0.5;" width="91" x="276" y="667.7549"/><ellipse cx="298.2" cy="683.7549" fill="#ADD1B2" rx="11" ry="11" style="stroke:#181818;stroke-width:1.0;"/><path d="M300.9656,679.6299 Q301.1219,679.4111 301.3094,679.3018 Q301.4969,679.1924 301.7156,679.1924 Q302.0906,679.1924 302.325,679.458 Q302.5594,679.708 302.5594,680.3174 L302.5594,681.7705 Q302.5594,682.3799 302.325,682.6455 Q302.0906,682.9111 301.7156,682.9111 Q301.3719,682.9111 301.1688,682.708 Q300.9656,682.5205 300.8563,682.0049 Q300.8094,681.6455 300.6219,681.458 Q300.2938,681.083 299.6844,680.8643 Q299.075,680.6455 298.45,680.6455 Q297.6844,680.6455 297.0438,680.9736 Q296.4188,681.3018 295.9188,682.0518 Q295.4344,682.8018 295.4344,683.833 L295.4344,684.9268 Q295.4344,686.1611 296.325,686.9893 Q297.2156,687.8018 298.8094,687.8018 Q299.7469,687.8018 300.4031,687.5518 Q300.7938,687.3955 301.2156,686.958 Q301.4813,686.6924 301.6219,686.6143 Q301.7781,686.5361 301.9813,686.5361 Q302.3094,686.5361 302.5594,686.8018 Q302.825,687.0518 302.825,687.3955 Q302.825,687.7393 302.4813,688.1455 Q301.9813,688.7236 301.1844,689.0518 Q300.1063,689.5049 298.8094,689.5049 Q297.2938,689.5049 296.0906,688.8799 Q295.1063,688.3799 294.4188,687.3174 Q293.7313,686.2393 293.7313,684.958 L293.7313,683.8018 Q293.7313,682.4736 294.3406,681.333 Q294.9656,680.1768 296.0594,679.5674 Q297.1531,678.9424 298.3875,678.9424 Q299.1219,678.9424 299.7625,679.1143 Q300.4188,679.2705 300.9656,679.6299 Z " fill="#000000"/><text fill="#000000" font-family="sans-serif" font-size="14" lengthAdjust="spacing" textLength="43" x="313.8" y="688.6084">District</text><line style="stroke:#181818;stroke-width:0.5;" x1="277" x2="366" y1="699.7549" y2="699.7549"/><line style="stroke:#181818;stroke-width:0.5;" x1="277" x2="366" y1="707.7549" y2="707.7549"/><ellipse cx="287" cy="721.0752" fill="#84BE84" rx="3" ry="3" style="stroke:#038048;stroke-width:1.0;"/><text fill="#000000" font-family="sans-serif" font-size="14" lengthAdjust="spacing" textLength="65" x="296" y="724.4287">getCities()</text></g><!--class City--><g id="elem_City"><rect codeLine="49" fill="#F1F1F1" height="48" id="City" rx="2.5" ry="2.5" style="stroke:#181818;stroke-width:0.5;" width="56" x="311.5" y="862.7549"/><ellipse cx="326.5" cy="878.7549" fill="#ADD1B2" rx="11" ry="11" style="stroke:#181818;stroke-width:1.0;"/><path d="M329.2656,874.6299 Q329.4219,874.4111 329.6094,874.3018 Q329.7969,874.1924 330.0156,874.1924 Q330.3906,874.1924 330.625,874.458 Q330.8594,874.708 330.8594,875.3174 L330.8594,876.7705 Q330.8594,877.3799 330.625,877.6455 Q330.3906,877.9111 330.0156,877.9111 Q329.6719,877.9111 329.4688,877.708 Q329.2656,877.5205 329.1563,877.0049 Q329.1094,876.6455 328.9219,876.458 Q328.5938,876.083 327.9844,875.8643 Q327.375,875.6455 326.75,875.6455 Q325.9844,875.6455 325.3438,875.9736 Q324.7188,876.3018 324.2188,877.0518 Q323.7344,877.8018 323.7344,878.833 L323.7344,879.9268 Q323.7344,881.1611 324.625,881.9893 Q325.5156,882.8018 327.1094,882.8018 Q328.0469,882.8018 328.7031,882.5518 Q329.0938,882.3955 329.5156,881.958 Q329.7813,881.6924 329.9219,881.6143 Q330.0781,881.5361 330.2813,881.5361 Q330.6094,881.5361 330.8594,881.8018 Q331.125,882.0518 331.125,882.3955 Q331.125,882.7393 330.7813,883.1455 Q330.2813,883.7236 329.4844,884.0518 Q328.4063,884.5049 327.1094,884.5049 Q325.5938,884.5049 324.3906,883.8799 Q323.4063,883.3799 322.7188,882.3174 Q322.0313,881.2393 322.0313,879.958 L322.0313,878.8018 Q322.0313,877.4736 322.6406,876.333 Q323.2656,875.1768 324.3594,874.5674 Q325.4531,873.9424 326.6875,873.9424 Q327.4219,873.9424 328.0625,874.1143 Q328.7188,874.2705 329.2656,874.6299 Z " fill="#000000"/><text fill="#000000" font-family="sans-serif" font-size="14" lengthAdjust="spacing" textLength="24" x="340.5" y="883.6084">City</text><line style="stroke:#181818;stroke-width:0.5;" x1="312.5" x2="366.5" y1="894.7549" y2="894.7549"/><line style="stroke:#181818;stroke-width:0.5;" x1="312.5" x2="366.5" y1="902.7549" y2="902.7549"/></g><!--class Location--><g id="elem_Location"><rect codeLine="52" fill="#F1F1F1" height="94.9219" id="Location" rx="2.5" ry="2.5" style="stroke:#181818;stroke-width:0.5;" width="117" x="281" y="1026.7549"/><ellipse cx="309.95" cy="1042.7549" fill="#ADD1B2" rx="11" ry="11" style="stroke:#181818;stroke-width:1.0;"/><path d="M312.7156,1038.6299 Q312.8719,1038.4111 313.0594,1038.3018 Q313.2469,1038.1924 313.4656,1038.1924 Q313.8406,1038.1924 314.075,1038.458 Q314.3094,1038.708 314.3094,1039.3174 L314.3094,1040.7705 Q314.3094,1041.3799 314.075,1041.6455 Q313.8406,1041.9111 313.4656,1041.9111 Q313.1219,1041.9111 312.9188,1041.708 Q312.7156,1041.5205 312.6063,1041.0049 Q312.5594,1040.6455 312.3719,1040.458 Q312.0438,1040.083 311.4344,1039.8643 Q310.825,1039.6455 310.2,1039.6455 Q309.4344,1039.6455 308.7938,1039.9736 Q308.1688,1040.3018 307.6688,1041.0518 Q307.1844,1041.8018 307.1844,1042.833 L307.1844,1043.9268 Q307.1844,1045.1611 308.075,1045.9893 Q308.9656,1046.8018 310.5594,1046.8018 Q311.4969,1046.8018 312.1531,1046.5518 Q312.5438,1046.3955 312.9656,1045.958 Q313.2313,1045.6924 313.3719,1045.6143 Q313.5281,1045.5361 313.7313,1045.5361 Q314.0594,1045.5361 314.3094,1045.8018 Q314.575,1046.0518 314.575,1046.3955 Q314.575,1046.7393 314.2313,1047.1455 Q313.7313,1047.7236 312.9344,1048.0518 Q311.8563,1048.5049 310.5594,1048.5049 Q309.0438,1048.5049 307.8406,1047.8799 Q306.8563,1047.3799 306.1688,1046.3174 Q305.4813,1045.2393 305.4813,1043.958 L305.4813,1042.8018 Q305.4813,1041.4736 306.0906,1040.333 Q306.7156,1039.1768 307.8094,1038.5674 Q308.9031,1037.9424 310.1375,1037.9424 Q310.8719,1037.9424 311.5125,1038.1143 Q312.1688,1038.2705 312.7156,1038.6299 Z " fill="#000000"/><text fill="#000000" font-family="sans-serif" font-size="14" lengthAdjust="spacing" textLength="54" x="327.05" y="1047.6084">Location</text><line style="stroke:#181818;stroke-width:0.5;" x1="282" x2="397" y1="1058.7549" y2="1058.7549"/><rect fill="none" height="6" style="stroke:#C82930;stroke-width:1.0;" width="6" x="289" y="1069.0752"/><text fill="#000000" font-family="sans-serif" font-size="14" lengthAdjust="spacing" textLength="76" x="301" y="1075.4287">String name</text><line style="stroke:#181818;stroke-width:0.5;" x1="282" x2="397" y1="1082.3955" y2="1082.3955"/><ellipse cx="292" cy="1095.7158" fill="#84BE84" rx="3" ry="3" style="stroke:#038048;stroke-width:1.0;"/><text fill="#000000" font-family="sans-serif" font-size="14" lengthAdjust="spacing" textLength="59" x="301" y="1099.0693">toString()</text><ellipse cx="292" cy="1111.3564" fill="#84BE84" rx="3" ry="3" style="stroke:#038048;stroke-width:1.0;"/><text fill="#000000" font-family="sans-serif" font-size="14" lengthAdjust="spacing" textLength="91" x="301" y="1114.71">getLocations()</text></g><!--class AplicationSession--><g id="elem_AplicationSession"><rect codeLine="59" fill="#F1F1F1" height="79.2813" id="AplicationSession" rx="2.5" ry="2.5" style="stroke:#181818;stroke-width:0.5;" width="158" x="109.5" y="348.2549"/><ellipse cx="131.25" cy="364.2549" fill="#ADD1B2" rx="11" ry="11" style="stroke:#181818;stroke-width:1.0;"/><path d="M134.0156,360.1299 Q134.1719,359.9111 134.3594,359.8018 Q134.5469,359.6924 134.7656,359.6924 Q135.1406,359.6924 135.375,359.958 Q135.6094,360.208 135.6094,360.8174 L135.6094,362.2705 Q135.6094,362.8799 135.375,363.1455 Q135.1406,363.4111 134.7656,363.4111 Q134.4219,363.4111 134.2188,363.208 Q134.0156,363.0205 133.9063,362.5049 Q133.8594,362.1455 133.6719,361.958 Q133.3438,361.583 132.7344,361.3643 Q132.125,361.1455 131.5,361.1455 Q130.7344,361.1455 130.0938,361.4736 Q129.4688,361.8018 128.9688,362.5518 Q128.4844,363.3018 128.4844,364.333 L128.4844,365.4268 Q128.4844,366.6611 129.375,367.4893 Q130.2656,368.3018 131.8594,368.3018 Q132.7969,368.3018 133.4531,368.0518 Q133.8438,367.8955 134.2656,367.458 Q134.5313,367.1924 134.6719,367.1143 Q134.8281,367.0361 135.0313,367.0361 Q135.3594,367.0361 135.6094,367.3018 Q135.875,367.5518 135.875,367.8955 Q135.875,368.2393 135.5313,368.6455 Q135.0313,369.2236 134.2344,369.5518 Q133.1563,370.0049 131.8594,370.0049 Q130.3438,370.0049 129.1406,369.3799 Q128.1563,368.8799 127.4688,367.8174 Q126.7813,366.7393 126.7813,365.458 L126.7813,364.3018 Q126.7813,362.9736 127.3906,361.833 Q128.0156,360.6768 129.1094,360.0674 Q130.2031,359.4424 131.4375,359.4424 Q132.1719,359.4424 132.8125,359.6143 Q133.4688,359.7705 134.0156,360.1299 Z " fill="#000000"/><text fill="#000000" font-family="sans-serif" font-size="14" lengthAdjust="spacing" textLength="111" x="146.75" y="369.1084">AplicationSession</text><line style="stroke:#181818;stroke-width:0.5;" x1="110.5" x2="266.5" y1="380.2549" y2="380.2549"/><line style="stroke:#181818;stroke-width:0.5;" x1="110.5" x2="266.5" y1="388.2549" y2="388.2549"/><ellipse cx="120.5" cy="401.5752" fill="#84BE84" rx="3" ry="3" style="stroke:#038048;stroke-width:1.0;"/><text fill="#000000" font-family="sans-serif" font-size="14" lengthAdjust="spacing" textLength="120" x="129.5" y="404.9287">static getInstance()</text><ellipse cx="120.5" cy="417.2158" fill="#84BE84" rx="3" ry="3" style="stroke:#038048;stroke-width:1.0;"/><text fill="#000000" font-family="sans-serif" font-size="14" lengthAdjust="spacing" textLength="132" x="129.5" y="420.5693">get CurrentSession()</text></g><!--class UserSession--><g id="elem_UserSession"><rect codeLine="65" fill="#F1F1F1" height="63.6406" id="UserSession" rx="2.5" ry="2.5" style="stroke:#181818;stroke-width:0.5;" width="111" x="7" y="503.7549"/><ellipse cx="22" cy="519.7549" fill="#ADD1B2" rx="11" ry="11" style="stroke:#181818;stroke-width:1.0;"/><path d="M24.7656,515.6299 Q24.9219,515.4111 25.1094,515.3018 Q25.2969,515.1924 25.5156,515.1924 Q25.8906,515.1924 26.125,515.458 Q26.3594,515.708 26.3594,516.3174 L26.3594,517.7705 Q26.3594,518.3799 26.125,518.6455 Q25.8906,518.9111 25.5156,518.9111 Q25.1719,518.9111 24.9688,518.708 Q24.7656,518.5205 24.6563,518.0049 Q24.6094,517.6455 24.4219,517.458 Q24.0938,517.083 23.4844,516.8643 Q22.875,516.6455 22.25,516.6455 Q21.4844,516.6455 20.8438,516.9736 Q20.2188,517.3018 19.7188,518.0518 Q19.2344,518.8018 19.2344,519.833 L19.2344,520.9268 Q19.2344,522.1611 20.125,522.9893 Q21.0156,523.8018 22.6094,523.8018 Q23.5469,523.8018 24.2031,523.5518 Q24.5938,523.3955 25.0156,522.958 Q25.2813,522.6924 25.4219,522.6143 Q25.5781,522.5361 25.7813,522.5361 Q26.1094,522.5361 26.3594,522.8018 Q26.625,523.0518 26.625,523.3955 Q26.625,523.7393 26.2813,524.1455 Q25.7813,524.7236 24.9844,525.0518 Q23.9063,525.5049 22.6094,525.5049 Q21.0938,525.5049 19.8906,524.8799 Q18.9063,524.3799 18.2188,523.3174 Q17.5313,522.2393 17.5313,520.958 L17.5313,519.8018 Q17.5313,518.4736 18.1406,517.333 Q18.7656,516.1768 19.8594,515.5674 Q20.9531,514.9424 22.1875,514.9424 Q22.9219,514.9424 23.5625,515.1143 Q24.2188,515.2705 24.7656,515.6299 Z " fill="#000000"/><text fill="#000000" font-family="sans-serif" font-size="14" lengthAdjust="spacing" textLength="79" x="36" y="524.6084">UserSession</text><line style="stroke:#181818;stroke-width:0.5;" x1="8" x2="117" y1="535.7549" y2="535.7549"/><line style="stroke:#181818;stroke-width:0.5;" x1="8" x2="117" y1="543.7549" y2="543.7549"/><ellipse cx="18" cy="557.0752" fill="#84BE84" rx="3" ry="3" style="stroke:#038048;stroke-width:1.0;"/><text fill="#000000" font-family="sans-serif" font-size="14" lengthAdjust="spacing" textLength="70" x="27" y="560.4287">getUserId()</text></g><!--class BranchesRepository--><g id="elem_BranchesRepository"><rect codeLine="70" fill="#F1F1F1" height="63.6406" id="BranchesRepository" rx="2.5" ry="2.5" style="stroke:#181818;stroke-width:0.5;" width="193" x="608" y="355.7549"/><ellipse cx="637.85" cy="371.7549" fill="#ADD1B2" rx="11" ry="11" style="stroke:#181818;stroke-width:1.0;"/><path d="M640.6156,367.6299 Q640.7719,367.4111 640.9594,367.3018 Q641.1469,367.1924 641.3656,367.1924 Q641.7406,367.1924 641.975,367.458 Q642.2094,367.708 642.2094,368.3174 L642.2094,369.7705 Q642.2094,370.3799 641.975,370.6455 Q641.7406,370.9111 641.3656,370.9111 Q641.0219,370.9111 640.8188,370.708 Q640.6156,370.5205 640.5063,370.0049 Q640.4594,369.6455 640.2719,369.458 Q639.9438,369.083 639.3344,368.8643 Q638.725,368.6455 638.1,368.6455 Q637.3344,368.6455 636.6938,368.9736 Q636.0688,369.3018 635.5688,370.0518 Q635.0844,370.8018 635.0844,371.833 L635.0844,372.9268 Q635.0844,374.1611 635.975,374.9893 Q636.8656,375.8018 638.4594,375.8018 Q639.3969,375.8018 640.0531,375.5518 Q640.4438,375.3955 640.8656,374.958 Q641.1313,374.6924 641.2719,374.6143 Q641.4281,374.5361 641.6313,374.5361 Q641.9594,374.5361 642.2094,374.8018 Q642.475,375.0518 642.475,375.3955 Q642.475,375.7393 642.1313,376.1455 Q641.6313,376.7236 640.8344,377.0518 Q639.7563,377.5049 638.4594,377.5049 Q636.9438,377.5049 635.7406,376.8799 Q634.7563,376.3799 634.0688,375.3174 Q633.3813,374.2393 633.3813,372.958 L633.3813,371.8018 Q633.3813,370.4736 633.9906,369.333 Q634.6156,368.1768 635.7094,367.5674 Q636.8031,366.9424 638.0375,366.9424 Q638.7719,366.9424 639.4125,367.1143 Q640.0688,367.2705 640.6156,367.6299 Z " fill="#000000"/><text fill="#000000" font-family="sans-serif" font-size="14" lengthAdjust="spacing" textLength="128" x="655.15" y="376.6084">BranchesRepository</text><line style="stroke:#181818;stroke-width:0.5;" x1="609" x2="800" y1="387.7549" y2="387.7549"/><line style="stroke:#181818;stroke-width:0.5;" x1="609" x2="800" y1="395.7549" y2="395.7549"/><ellipse cx="619" cy="409.0752" fill="#84BE84" rx="3" ry="3" style="stroke:#038048;stroke-width:1.0;"/><text fill="#000000" font-family="sans-serif" font-size="14" lengthAdjust="spacing" textLength="167" x="628" y="412.4287">getAgentFromEmail(email)</text></g><!--class StoreNetwork--><g id="elem_Branch"><rect codeLine="75" fill="#F1F1F1" height="63.6406" id="Branch" rx="2.5" ry="2.5" style="stroke:#181818;stroke-width:0.5;" width="193" x="474" y="503.7549"/><ellipse cx="543.75" cy="519.7549" fill="#ADD1B2" rx="11" ry="11" style="stroke:#181818;stroke-width:1.0;"/><path d="M546.5156,515.6299 Q546.6719,515.4111 546.8594,515.3018 Q547.0469,515.1924 547.2656,515.1924 Q547.6406,515.1924 547.875,515.458 Q548.1094,515.708 548.1094,516.3174 L548.1094,517.7705 Q548.1094,518.3799 547.875,518.6455 Q547.6406,518.9111 547.2656,518.9111 Q546.9219,518.9111 546.7188,518.708 Q546.5156,518.5205 546.4063,518.0049 Q546.3594,517.6455 546.1719,517.458 Q545.8438,517.083 545.2344,516.8643 Q544.625,516.6455 544,516.6455 Q543.2344,516.6455 542.5938,516.9736 Q541.9688,517.3018 541.4688,518.0518 Q540.9844,518.8018 540.9844,519.833 L540.9844,520.9268 Q540.9844,522.1611 541.875,522.9893 Q542.7656,523.8018 544.3594,523.8018 Q545.2969,523.8018 545.9531,523.5518 Q546.3438,523.3955 546.7656,522.958 Q547.0313,522.6924 547.1719,522.6143 Q547.3281,522.5361 547.5313,522.5361 Q547.8594,522.5361 548.1094,522.8018 Q548.375,523.0518 548.375,523.3955 Q548.375,523.7393 548.0313,524.1455 Q547.5313,524.7236 546.7344,525.0518 Q545.6563,525.5049 544.3594,525.5049 Q542.8438,525.5049 541.6406,524.8799 Q540.6563,524.3799 539.9688,523.3174 Q539.2813,522.2393 539.2813,520.958 L539.2813,519.8018 Q539.2813,518.4736 539.8906,517.333 Q540.5156,516.1768 541.6094,515.5674 Q542.7031,514.9424 543.9375,514.9424 Q544.6719,514.9424 545.3125,515.1143 Q545.9688,515.2705 546.5156,515.6299 Z " fill="#000000"/><text fill="#000000" font-family="sans-serif" font-size="14" lengthAdjust="spacing" textLength="45" x="564.25" y="524.6084">Branch</text><line style="stroke:#181818;stroke-width:0.5;" x1="475" x2="666" y1="535.7549" y2="535.7549"/><line style="stroke:#181818;stroke-width:0.5;" x1="475" x2="666" y1="543.7549" y2="543.7549"/><ellipse cx="485" cy="557.0752" fill="#84BE84" rx="3" ry="3" style="stroke:#038048;stroke-width:1.0;"/><text fill="#000000" font-family="sans-serif" font-size="14" lengthAdjust="spacing" textLength="167" x="494" y="560.4287">getAgentFromEmail(email)</text></g><!--class Store--><g id="elem_Store"><rect codeLine="80" fill="#F1F1F1" height="63.6406" id="Store" rx="2.5" ry="2.5" style="stroke:#181818;stroke-width:0.5;" width="193" x="670" y="667.7549"/><ellipse cx="745.25" cy="683.7549" fill="#ADD1B2" rx="11" ry="11" style="stroke:#181818;stroke-width:1.0;"/><path d="M748.0156,679.6299 Q748.1719,679.4111 748.3594,679.3018 Q748.5469,679.1924 748.7656,679.1924 Q749.1406,679.1924 749.375,679.458 Q749.6094,679.708 749.6094,680.3174 L749.6094,681.7705 Q749.6094,682.3799 749.375,682.6455 Q749.1406,682.9111 748.7656,682.9111 Q748.4219,682.9111 748.2188,682.708 Q748.0156,682.5205 747.9063,682.0049 Q747.8594,681.6455 747.6719,681.458 Q747.3438,681.083 746.7344,680.8643 Q746.125,680.6455 745.5,680.6455 Q744.7344,680.6455 744.0938,680.9736 Q743.4688,681.3018 742.9688,682.0518 Q742.4844,682.8018 742.4844,683.833 L742.4844,684.9268 Q742.4844,686.1611 743.375,686.9893 Q744.2656,687.8018 745.8594,687.8018 Q746.7969,687.8018 747.4531,687.5518 Q747.8438,687.3955 748.2656,686.958 Q748.5313,686.6924 748.6719,686.6143 Q748.8281,686.5361 749.0313,686.5361 Q749.3594,686.5361 749.6094,686.8018 Q749.875,687.0518 749.875,687.3955 Q749.875,687.7393 749.5313,688.1455 Q749.0313,688.7236 748.2344,689.0518 Q747.1563,689.5049 745.8594,689.5049 Q744.3438,689.5049 743.1406,688.8799 Q742.1563,688.3799 741.4688,687.3174 Q740.7813,686.2393 740.7813,684.958 L740.7813,683.8018 Q740.7813,682.4736 741.3906,681.333 Q742.0156,680.1768 743.1094,679.5674 Q744.2031,678.9424 745.4375,678.9424 Q746.1719,678.9424 746.8125,679.1143 Q747.4688,679.2705 748.0156,679.6299 Z " fill="#000000"/><text fill="#000000" font-family="sans-serif" font-size="14" lengthAdjust="spacing" textLength="34" x="765.75" y="688.6084">Store</text><line style="stroke:#181818;stroke-width:0.5;" x1="671" x2="862" y1="699.7549" y2="699.7549"/><line style="stroke:#181818;stroke-width:0.5;" x1="671" x2="862" y1="707.7549" y2="707.7549"/><ellipse cx="681" cy="721.0752" fill="#84BE84" rx="3" ry="3" style="stroke:#038048;stroke-width:1.0;"/><text fill="#000000" font-family="sans-serif" font-size="14" lengthAdjust="spacing" textLength="167" x="690" y="724.4287">getAgentFromEmail(email)</text></g><!--class Employee--><g id="elem_Employee"><rect codeLine="85" fill="#F1F1F1" height="141.8438" id="Employee" rx="2.5" ry="2.5" style="stroke:#181818;stroke-width:0.5;" width="148" x="723.5" y="1003.2549"/><ellipse cx="762.8" cy="1019.2549" fill="#ADD1B2" rx="11" ry="11" style="stroke:#181818;stroke-width:1.0;"/><path d="M765.5656,1015.1299 Q765.7219,1014.9111 765.9094,1014.8018 Q766.0969,1014.6924 766.3156,1014.6924 Q766.6906,1014.6924 766.925,1014.958 Q767.1594,1015.208 767.1594,1015.8174 L767.1594,1017.2705 Q767.1594,1017.8799 766.925,1018.1455 Q766.6906,1018.4111 766.3156,1018.4111 Q765.9719,1018.4111 765.7688,1018.208 Q765.5656,1018.0205 765.4563,1017.5049 Q765.4094,1017.1455 765.2219,1016.958 Q764.8938,1016.583 764.2844,1016.3643 Q763.675,1016.1455 763.05,1016.1455 Q762.2844,1016.1455 761.6438,1016.4736 Q761.0188,1016.8018 760.5188,1017.5518 Q760.0344,1018.3018 760.0344,1019.333 L760.0344,1020.4268 Q760.0344,1021.6611 760.925,1022.4893 Q761.8156,1023.3018 763.4094,1023.3018 Q764.3469,1023.3018 765.0031,1023.0518 Q765.3938,1022.8955 765.8156,1022.458 Q766.0813,1022.1924 766.2219,1022.1143 Q766.3781,1022.0361 766.5813,1022.0361 Q766.9094,1022.0361 767.1594,1022.3018 Q767.425,1022.5518 767.425,1022.8955 Q767.425,1023.2393 767.0813,1023.6455 Q766.5813,1024.2236 765.7844,1024.5518 Q764.7063,1025.0049 763.4094,1025.0049 Q761.8938,1025.0049 760.6906,1024.3799 Q759.7063,1023.8799 759.0188,1022.8174 Q758.3313,1021.7393 758.3313,1020.458 L758.3313,1019.3018 Q758.3313,1017.9736 758.9406,1016.833 Q759.5656,1015.6768 760.6594,1015.0674 Q761.7531,1014.4424 762.9875,1014.4424 Q763.7219,1014.4424 764.3625,1014.6143 Q765.0188,1014.7705 765.5656,1015.1299 Z " fill="#000000"/><text fill="#000000" font-family="sans-serif" font-size="14" lengthAdjust="spacing" textLength="62" x="782.2" y="1024.1084">Employee</text><line style="stroke:#181818;stroke-width:0.5;" x1="724.5" x2="870.5" y1="1035.2549" y2="1035.2549"/><rect fill="none" height="6" style="stroke:#C82930;stroke-width:1.0;" width="6" x="731.5" y="1045.5752"/><text fill="#000000" font-family="sans-serif" font-size="14" lengthAdjust="spacing" textLength="76" x="743.5" y="1051.9287">String name</text><rect fill="none" height="6" style="stroke:#C82930;stroke-width:1.0;" width="6" x="731.5" y="1061.2158"/><text fill="#000000" font-family="sans-serif" font-size="14" lengthAdjust="spacing" textLength="122" x="743.5" y="1067.5693">int civilCardNumber</text><rect fill="none" height="6" style="stroke:#C82930;stroke-width:1.0;" width="6" x="731.5" y="1076.8564"/><text fill="#000000" font-family="sans-serif" font-size="14" lengthAdjust="spacing" textLength="86" x="743.5" y="1083.21">int taxNumber</text><rect fill="none" height="6" style="stroke:#C82930;stroke-width:1.0;" width="6" x="731.5" y="1092.4971"/><text fill="#000000" font-family="sans-serif" font-size="14" lengthAdjust="spacing" textLength="85" x="743.5" y="1098.8506">String Adress</text><rect fill="none" height="6" style="stroke:#C82930;stroke-width:1.0;" width="6" x="731.5" y="1108.1377"/><text fill="#000000" font-family="sans-serif" font-size="14" lengthAdjust="spacing" textLength="71" x="743.5" y="1114.4912">Email email</text><rect fill="none" height="6" style="stroke:#C82930;stroke-width:1.0;" width="6" x="731.5" y="1123.7783"/><text fill="#000000" font-family="sans-serif" font-size="14" lengthAdjust="spacing" textLength="108" x="743.5" y="1130.1318">int phoneNumber</text><line style="stroke:#181818;stroke-width:0.5;" x1="724.5" x2="870.5" y1="1137.0986" y2="1137.0986"/></g><!--class Agent--><g id="elem_Agent"><rect codeLine="94" fill="#F1F1F1" height="63.6406" id="Agent" rx="2.5" ry="2.5" style="stroke:#181818;stroke-width:0.5;" width="69" x="855" y="854.7549"/><ellipse cx="870" cy="870.7549" fill="#ADD1B2" rx="11" ry="11" style="stroke:#181818;stroke-width:1.0;"/><path d="M872.7656,866.6299 Q872.9219,866.4111 873.1094,866.3018 Q873.2969,866.1924 873.5156,866.1924 Q873.8906,866.1924 874.125,866.458 Q874.3594,866.708 874.3594,867.3174 L874.3594,868.7705 Q874.3594,869.3799 874.125,869.6455 Q873.8906,869.9111 873.5156,869.9111 Q873.1719,869.9111 872.9688,869.708 Q872.7656,869.5205 872.6563,869.0049 Q872.6094,868.6455 872.4219,868.458 Q872.0938,868.083 871.4844,867.8643 Q870.875,867.6455 870.25,867.6455 Q869.4844,867.6455 868.8438,867.9736 Q868.2188,868.3018 867.7188,869.0518 Q867.2344,869.8018 867.2344,870.833 L867.2344,871.9268 Q867.2344,873.1611 868.125,873.9893 Q869.0156,874.8018 870.6094,874.8018 Q871.5469,874.8018 872.2031,874.5518 Q872.5938,874.3955 873.0156,873.958 Q873.2813,873.6924 873.4219,873.6143 Q873.5781,873.5361 873.7813,873.5361 Q874.1094,873.5361 874.3594,873.8018 Q874.625,874.0518 874.625,874.3955 Q874.625,874.7393 874.2813,875.1455 Q873.7813,875.7236 872.9844,876.0518 Q871.9063,876.5049 870.6094,876.5049 Q869.0938,876.5049 867.8906,875.8799 Q866.9063,875.3799 866.2188,874.3174 Q865.5313,873.2393 865.5313,871.958 L865.5313,870.8018 Q865.5313,869.4736 866.1406,868.333 Q866.7656,867.1768 867.8594,866.5674 Q868.9531,865.9424 870.1875,865.9424 Q870.9219,865.9424 871.5625,866.1143 Q872.2188,866.2705 872.7656,866.6299 Z " fill="#000000"/><text fill="#000000" font-family="sans-serif" font-size="14" lengthAdjust="spacing" textLength="37" x="884" y="875.6084">Agent</text><line style="stroke:#181818;stroke-width:0.5;" x1="856" x2="923" y1="886.7549" y2="886.7549"/><line style="stroke:#181818;stroke-width:0.5;" x1="856" x2="923" y1="894.7549" y2="894.7549"/><text fill="#000000" font-family="sans-serif" font-size="14" lengthAdjust="spacing" textLength="4" x="861" y="911.4287">&#160;</text></g><!--class ClientRepository--><g id="elem_ClientRepository"><rect codeLine="100" fill="#F1F1F1" height="48" id="ClientRepository" rx="2.5" ry="2.5" style="stroke:#181818;stroke-width:0.5;" width="136" x="865.5" y="363.7549"/><ellipse cx="880.5" cy="379.7549" fill="#ADD1B2" rx="11" ry="11" style="stroke:#181818;stroke-width:1.0;"/><path d="M883.2656,375.6299 Q883.4219,375.4111 883.6094,375.3018 Q883.7969,375.1924 884.0156,375.1924 Q884.3906,375.1924 884.625,375.458 Q884.8594,375.708 884.8594,376.3174 L884.8594,377.7705 Q884.8594,378.3799 884.625,378.6455 Q884.3906,378.9111 884.0156,378.9111 Q883.6719,378.9111 883.4688,378.708 Q883.2656,378.5205 883.1563,378.0049 Q883.1094,377.6455 882.9219,377.458 Q882.5938,377.083 881.9844,376.8643 Q881.375,376.6455 880.75,376.6455 Q879.9844,376.6455 879.3438,376.9736 Q878.7188,377.3018 878.2188,378.0518 Q877.7344,378.8018 877.7344,379.833 L877.7344,380.9268 Q877.7344,382.1611 878.625,382.9893 Q879.5156,383.8018 881.1094,383.8018 Q882.0469,383.8018 882.7031,383.5518 Q883.0938,383.3955 883.5156,382.958 Q883.7813,382.6924 883.9219,382.6143 Q884.0781,382.5361 884.2813,382.5361 Q884.6094,382.5361 884.8594,382.8018 Q885.125,383.0518 885.125,383.3955 Q885.125,383.7393 884.7813,384.1455 Q884.2813,384.7236 883.4844,385.0518 Q882.4063,385.5049 881.1094,385.5049 Q879.5938,385.5049 878.3906,384.8799 Q877.4063,384.3799 876.7188,383.3174 Q876.0313,382.2393 876.0313,380.958 L876.0313,379.8018 Q876.0313,378.4736 876.6406,377.333 Q877.2656,376.1768 878.3594,375.5674 Q879.4531,374.9424 880.6875,374.9424 Q881.4219,374.9424 882.0625,375.1143 Q882.7188,375.2705 883.2656,375.6299 Z " fill="#000000"/><text fill="#000000" font-family="sans-serif" font-size="14" lengthAdjust="spacing" textLength="104" x="894.5" y="384.6084">ClientRepository</text><line style="stroke:#181818;stroke-width:0.5;" x1="866.5" x2="1000.5" y1="395.7549" y2="395.7549"/><line style="stroke:#181818;stroke-width:0.5;" x1="866.5" x2="1000.5" y1="403.7549" y2="403.7549"/></g><!--class Client--><g id="elem_Client"><rect codeLine="104" fill="#F1F1F1" height="48" id="Client" rx="2.5" ry="2.5" style="stroke:#181818;stroke-width:0.5;" width="68" x="1060.5" y="1050.2549"/><ellipse cx="1075.5" cy="1066.2549" fill="#ADD1B2" rx="11" ry="11" style="stroke:#181818;stroke-width:1.0;"/><path d="M1078.2656,1062.1299 Q1078.4219,1061.9111 1078.6094,1061.8018 Q1078.7969,1061.6924 1079.0156,1061.6924 Q1079.3906,1061.6924 1079.625,1061.958 Q1079.8594,1062.208 1079.8594,1062.8174 L1079.8594,1064.2705 Q1079.8594,1064.8799 1079.625,1065.1455 Q1079.3906,1065.4111 1079.0156,1065.4111 Q1078.6719,1065.4111 1078.4688,1065.208 Q1078.2656,1065.0205 1078.1563,1064.5049 Q1078.1094,1064.1455 1077.9219,1063.958 Q1077.5938,1063.583 1076.9844,1063.3643 Q1076.375,1063.1455 1075.75,1063.1455 Q1074.9844,1063.1455 1074.3438,1063.4736 Q1073.7188,1063.8018 1073.2188,1064.5518 Q1072.7344,1065.3018 1072.7344,1066.333 L1072.7344,1067.4268 Q1072.7344,1068.6611 1073.625,1069.4893 Q1074.5156,1070.3018 1076.1094,1070.3018 Q1077.0469,1070.3018 1077.7031,1070.0518 Q1078.0938,1069.8955 1078.5156,1069.458 Q1078.7813,1069.1924 1078.9219,1069.1143 Q1079.0781,1069.0361 1079.2813,1069.0361 Q1079.6094,1069.0361 1079.8594,1069.3018 Q1080.125,1069.5518 1080.125,1069.8955 Q1080.125,1070.2393 1079.7813,1070.6455 Q1079.2813,1071.2236 1078.4844,1071.5518 Q1077.4063,1072.0049 1076.1094,1072.0049 Q1074.5938,1072.0049 1073.3906,1071.3799 Q1072.4063,1070.8799 1071.7188,1069.8174 Q1071.0313,1068.7393 1071.0313,1067.458 L1071.0313,1066.3018 Q1071.0313,1064.9736 1071.6406,1063.833 Q1072.2656,1062.6768 1073.3594,1062.0674 Q1074.4531,1061.4424 1075.6875,1061.4424 Q1076.4219,1061.4424 1077.0625,1061.6143 Q1077.7188,1061.7705 1078.2656,1062.1299 Z " fill="#000000"/><text fill="#000000" font-family="sans-serif" font-size="14" lengthAdjust="spacing" textLength="36" x="1089.5" y="1071.1084">Client</text><line style="stroke:#181818;stroke-width:0.5;" x1="1061.5" x2="1127.5" y1="1082.2549" y2="1082.2549"/><line style="stroke:#181818;stroke-width:0.5;" x1="1061.5" x2="1127.5" y1="1090.2549" y2="1090.2549"/></g><!--class PropertySaleRepository--><g id="elem_PropertySaleRepository"><rect codeLine="108" fill="#F1F1F1" height="48" id="PropertySaleRepository" rx="2.5" ry="2.5" style="stroke:#181818;stroke-width:0.5;" width="182" x="1078.5" y="363.7549"/><ellipse cx="1093.5" cy="379.7549" fill="#ADD1B2" rx="11" ry="11" style="stroke:#181818;stroke-width:1.0;"/><path d="M1096.2656,375.6299 Q1096.4219,375.4111 1096.6094,375.3018 Q1096.7969,375.1924 1097.0156,375.1924 Q1097.3906,375.1924 1097.625,375.458 Q1097.8594,375.708 1097.8594,376.3174 L1097.8594,377.7705 Q1097.8594,378.3799 1097.625,378.6455 Q1097.3906,378.9111 1097.0156,378.9111 Q1096.6719,378.9111 1096.4688,378.708 Q1096.2656,378.5205 1096.1563,378.0049 Q1096.1094,377.6455 1095.9219,377.458 Q1095.5938,377.083 1094.9844,376.8643 Q1094.375,376.6455 1093.75,376.6455 Q1092.9844,376.6455 1092.3438,376.9736 Q1091.7188,377.3018 1091.2188,378.0518 Q1090.7344,378.8018 1090.7344,379.833 L1090.7344,380.9268 Q1090.7344,382.1611 1091.625,382.9893 Q1092.5156,383.8018 1094.1094,383.8018 Q1095.0469,383.8018 1095.7031,383.5518 Q1096.0938,383.3955 1096.5156,382.958 Q1096.7813,382.6924 1096.9219,382.6143 Q1097.0781,382.5361 1097.2813,382.5361 Q1097.6094,382.5361 1097.8594,382.8018 Q1098.125,383.0518 1098.125,383.3955 Q1098.125,383.7393 1097.7813,384.1455 Q1097.2813,384.7236 1096.4844,385.0518 Q1095.4063,385.5049 1094.1094,385.5049 Q1092.5938,385.5049 1091.3906,384.8799 Q1090.4063,384.3799 1089.7188,383.3174 Q1089.0313,382.2393 1089.0313,380.958 L1089.0313,379.8018 Q1089.0313,378.4736 1089.6406,377.333 Q1090.2656,376.1768 1091.3594,375.5674 Q1092.4531,374.9424 1093.6875,374.9424 Q1094.4219,374.9424 1095.0625,375.1143 Q1095.7188,375.2705 1096.2656,375.6299 Z " fill="#000000"/><text fill="#000000" font-family="sans-serif" font-size="14" lengthAdjust="spacing" textLength="150" x="1107.5" y="384.6084">PropertySaleRepository</text><line style="stroke:#181818;stroke-width:0.5;" x1="1079.5" x2="1259.5" y1="395.7549" y2="395.7549"/><line style="stroke:#181818;stroke-width:0.5;" x1="1079.5" x2="1259.5" y1="403.7549" y2="403.7549"/></g><!--class PropertySale--><g id="elem_PropertySale"><rect codeLine="112" fill="#F1F1F1" height="94.9219" id="PropertySale" rx="2.5" ry="2.5" style="stroke:#181818;stroke-width:0.5;" width="152" x="1114.5" y="488.2549"/><ellipse cx="1146.6" cy="504.2549" fill="#ADD1B2" rx="11" ry="11" style="stroke:#181818;stroke-width:1.0;"/><path d="M1149.3656,500.1299 Q1149.5219,499.9111 1149.7094,499.8018 Q1149.8969,499.6924 1150.1156,499.6924 Q1150.4906,499.6924 1150.725,499.958 Q1150.9594,500.208 1150.9594,500.8174 L1150.9594,502.2705 Q1150.9594,502.8799 1150.725,503.1455 Q1150.4906,503.4111 1150.1156,503.4111 Q1149.7719,503.4111 1149.5688,503.208 Q1149.3656,503.0205 1149.2563,502.5049 Q1149.2094,502.1455 1149.0219,501.958 Q1148.6938,501.583 1148.0844,501.3643 Q1147.475,501.1455 1146.85,501.1455 Q1146.0844,501.1455 1145.4438,501.4736 Q1144.8188,501.8018 1144.3188,502.5518 Q1143.8344,503.3018 1143.8344,504.333 L1143.8344,505.4268 Q1143.8344,506.6611 1144.725,507.4893 Q1145.6156,508.3018 1147.2094,508.3018 Q1148.1469,508.3018 1148.8031,508.0518 Q1149.1938,507.8955 1149.6156,507.458 Q1149.8813,507.1924 1150.0219,507.1143 Q1150.1781,507.0361 1150.3813,507.0361 Q1150.7094,507.0361 1150.9594,507.3018 Q1151.225,507.5518 1151.225,507.8955 Q1151.225,508.2393 1150.8813,508.6455 Q1150.3813,509.2236 1149.5844,509.5518 Q1148.5063,510.0049 1147.2094,510.0049 Q1145.6938,510.0049 1144.4906,509.3799 Q1143.5063,508.8799 1142.8188,507.8174 Q1142.1313,506.7393 1142.1313,505.458 L1142.1313,504.3018 Q1142.1313,502.9736 1142.7406,501.833 Q1143.3656,500.6768 1144.4594,500.0674 Q1145.5531,499.4424 1146.7875,499.4424 Q1147.5219,499.4424 1148.1625,499.6143 Q1148.8188,499.7705 1149.3656,500.1299 Z " fill="#000000"/><text fill="#000000" font-family="sans-serif" font-size="14" lengthAdjust="spacing" textLength="82" x="1164.4" y="509.1084">PropertySale</text><line style="stroke:#181818;stroke-width:0.5;" x1="1115.5" x2="1265.5" y1="520.2549" y2="520.2549"/><rect fill="none" height="6" style="stroke:#C82930;stroke-width:1.0;" width="6" x="1122.5" y="530.5752"/><text fill="#000000" font-family="sans-serif" font-size="14" lengthAdjust="spacing" textLength="126" x="1134.5" y="536.9287">int typeOfComission</text><rect fill="none" height="6" style="stroke:#C82930;stroke-width:1.0;" width="6" x="1122.5" y="546.2158"/><text fill="#000000" font-family="sans-serif" font-size="14" lengthAdjust="spacing" textLength="104" x="1134.5" y="552.5693">float commission</text><line style="stroke:#181818;stroke-width:0.5;" x1="1115.5" x2="1265.5" y1="559.5361" y2="559.5361"/><ellipse cx="1125.5" cy="572.8564" fill="#84BE84" rx="3" ry="3" style="stroke:#038048;stroke-width:1.0;"/><text fill="#000000" font-family="sans-serif" font-size="14" lengthAdjust="spacing" textLength="98" x="1134.5" y="576.21">calculatePrice()</text></g><!--class Property--><g id="elem_Property"><rect codeLine="119" fill="#F1F1F1" height="110.5625" id="Property" rx="2.5" ry="2.5" style="stroke:#181818;stroke-width:0.5;" width="210" x="1114.5" y="644.2549"/><ellipse cx="1188.25" cy="660.2549" fill="#A9DCDF" rx="11" ry="11" style="stroke:#181818;stroke-width:1.0;"/><path d="M1190.4375,662.0205 L1186.2969,662.0205 L1185.875,663.0518 L1186.2969,663.0518 Q1186.9063,663.0518 1187.1719,663.2861 Q1187.4375,663.5205 1187.4375,663.9111 Q1187.4375,664.2861 1187.1719,664.5205 Q1186.9063,664.7549 1186.2969,664.7549 L1184,664.7549 Q1183.3906,664.7549 1183.1406,664.5205 Q1182.875,664.2861 1182.875,663.8955 Q1182.875,663.5205 1183.1563,663.2861 Q1183.4219,663.0361 1184.0469,663.0518 L1186.7188,656.3955 L1185.6094,656.3955 Q1185,656.3955 1184.7344,656.1611 Q1184.4688,655.9268 1184.4688,655.5361 Q1184.4688,655.1611 1184.7344,654.9268 Q1185,654.6924 1185.6094,654.6924 L1189.2813,654.6924 L1192.6719,663.0518 Q1193.2656,663.0518 1193.4531,663.1924 Q1193.8438,663.458 1193.8438,663.9111 Q1193.8438,664.2861 1193.5781,664.5205 Q1193.3281,664.7549 1192.7188,664.7549 L1190.4219,664.7549 Q1189.8125,664.7549 1189.5469,664.5205 Q1189.2813,664.2861 1189.2813,663.8955 Q1189.2813,663.5205 1189.5469,663.2861 Q1189.8125,663.0518 1190.4219,663.0518 L1190.8438,663.0518 L1190.4375,662.0205 Z M1189.7188,660.3174 L1188.3594,656.9424 L1186.9844,660.3174 L1189.7188,660.3174 Z " fill="#000000"/><text fill="#000000" font-family="sans-serif" font-size="14" font-style="italic" lengthAdjust="spacing" textLength="54" x="1208.75" y="665.1084">Property</text><line style="stroke:#181818;stroke-width:0.5;" x1="1115.5" x2="1323.5" y1="676.2549" y2="676.2549"/><rect fill="none" height="6" style="stroke:#C82930;stroke-width:1.0;" width="6" x="1122.5" y="686.5752"/><text fill="#000000" font-family="sans-serif" font-size="14" lengthAdjust="spacing" textLength="60" x="1134.5" y="692.9287">float area</text><rect fill="none" height="6" style="stroke:#C82930;stroke-width:1.0;" width="6" x="1122.5" y="702.2158"/><text fill="#000000" font-family="sans-serif" font-size="14" lengthAdjust="spacing" textLength="77" x="1134.5" y="708.5693">String street</text><rect fill="none" height="6" style="stroke:#C82930;stroke-width:1.0;" width="6" x="1122.5" y="717.8564"/><text fill="#000000" font-family="sans-serif" font-size="14" lengthAdjust="spacing" textLength="92" x="1134.5" y="724.21">String zipCode</text><rect fill="none" height="6" style="stroke:#C82930;stroke-width:1.0;" width="6" x="1122.5" y="733.4971"/><text fill="#000000" font-family="sans-serif" font-size="14" lengthAdjust="spacing" textLength="184" x="1134.5" y="739.8506">float distanceFromCityCenter</text><line style="stroke:#181818;stroke-width:0.5;" x1="1115.5" x2="1323.5" y1="746.8174" y2="746.8174"/></g><!--class Land--><g id="elem_Land"><rect codeLine="127" fill="#F1F1F1" height="48" id="Land" rx="2.5" ry="2.5" style="stroke:#181818;stroke-width:0.5;" width="64" x="1223.5" y="862.7549"/><ellipse cx="1238.5" cy="878.7549" fill="#ADD1B2" rx="11" ry="11" style="stroke:#181818;stroke-width:1.0;"/><path d="M1241.2656,874.6299 Q1241.4219,874.4111 1241.6094,874.3018 Q1241.7969,874.1924 1242.0156,874.1924 Q1242.3906,874.1924 1242.625,874.458 Q1242.8594,874.708 1242.8594,875.3174 L1242.8594,876.7705 Q1242.8594,877.3799 1242.625,877.6455 Q1242.3906,877.9111 1242.0156,877.9111 Q1241.6719,877.9111 1241.4688,877.708 Q1241.2656,877.5205 1241.1563,877.0049 Q1241.1094,876.6455 1240.9219,876.458 Q1240.5938,876.083 1239.9844,875.8643 Q1239.375,875.6455 1238.75,875.6455 Q1237.9844,875.6455 1237.3438,875.9736 Q1236.7188,876.3018 1236.2188,877.0518 Q1235.7344,877.8018 1235.7344,878.833 L1235.7344,879.9268 Q1235.7344,881.1611 1236.625,881.9893 Q1237.5156,882.8018 1239.1094,882.8018 Q1240.0469,882.8018 1240.7031,882.5518 Q1241.0938,882.3955 1241.5156,881.958 Q1241.7813,881.6924 1241.9219,881.6143 Q1242.0781,881.5361 1242.2813,881.5361 Q1242.6094,881.5361 1242.8594,881.8018 Q1243.125,882.0518 1243.125,882.3955 Q1243.125,882.7393 1242.7813,883.1455 Q1242.2813,883.7236 1241.4844,884.0518 Q1240.4063,884.5049 1239.1094,884.5049 Q1237.5938,884.5049 1236.3906,883.8799 Q1235.4063,883.3799 1234.7188,882.3174 Q1234.0313,881.2393 1234.0313,879.958 L1234.0313,878.8018 Q1234.0313,877.4736 1234.6406,876.333 Q1235.2656,875.1768 1236.3594,874.5674 Q1237.4531,873.9424 1238.6875,873.9424 Q1239.4219,873.9424 1240.0625,874.1143 Q1240.7188,874.2705 1241.2656,874.6299 Z " fill="#000000"/><text fill="#000000" font-family="sans-serif" font-size="14" lengthAdjust="spacing" textLength="32" x="1252.5" y="883.6084">Land</text><line style="stroke:#181818;stroke-width:0.5;" x1="1224.5" x2="1286.5" y1="894.7549" y2="894.7549"/><line style="stroke:#181818;stroke-width:0.5;" x1="1224.5" x2="1286.5" y1="902.7549" y2="902.7549"/></g><!--class ResidentialProperty--><g id="elem_ResidentialProperty"><rect codeLine="131" fill="#F1F1F1" height="110.5625" id="ResidentialProperty" rx="2.5" ry="2.5" style="stroke:#181818;stroke-width:0.5;" width="203" x="1323" y="831.2549"/><ellipse cx="1359.15" cy="847.2549" fill="#A9DCDF" rx="11" ry="11" style="stroke:#181818;stroke-width:1.0;"/><path d="M1361.3375,849.0205 L1357.1969,849.0205 L1356.775,850.0518 L1357.1969,850.0518 Q1357.8063,850.0518 1358.0719,850.2861 Q1358.3375,850.5205 1358.3375,850.9111 Q1358.3375,851.2861 1358.0719,851.5205 Q1357.8063,851.7549 1357.1969,851.7549 L1354.9,851.7549 Q1354.2906,851.7549 1354.0406,851.5205 Q1353.775,851.2861 1353.775,850.8955 Q1353.775,850.5205 1354.0563,850.2861 Q1354.3219,850.0361 1354.9469,850.0518 L1357.6188,843.3955 L1356.5094,843.3955 Q1355.9,843.3955 1355.6344,843.1611 Q1355.3688,842.9268 1355.3688,842.5361 Q1355.3688,842.1611 1355.6344,841.9268 Q1355.9,841.6924 1356.5094,841.6924 L1360.1813,841.6924 L1363.5719,850.0518 Q1364.1656,850.0518 1364.3531,850.1924 Q1364.7438,850.458 1364.7438,850.9111 Q1364.7438,851.2861 1364.4781,851.5205 Q1364.2281,851.7549 1363.6188,851.7549 L1361.3219,851.7549 Q1360.7125,851.7549 1360.4469,851.5205 Q1360.1813,851.2861 1360.1813,850.8955 Q1360.1813,850.5205 1360.4469,850.2861 Q1360.7125,850.0518 1361.3219,850.0518 L1361.7438,850.0518 L1361.3375,849.0205 Z M1360.6188,847.3174 L1359.2594,843.9424 L1357.8844,847.3174 L1360.6188,847.3174 Z " fill="#000000"/><text fill="#000000" font-family="sans-serif" font-size="14" font-style="italic" lengthAdjust="spacing" textLength="124" x="1377.85" y="852.1084">ResidentialProperty</text><line style="stroke:#181818;stroke-width:0.5;" x1="1324" x2="1525" y1="863.2549" y2="863.2549"/><rect fill="none" height="6" style="stroke:#C82930;stroke-width:1.0;" width="6" x="1331" y="873.5752"/><text fill="#000000" font-family="sans-serif" font-size="14" lengthAdjust="spacing" textLength="146" x="1343" y="879.9287">int numberOfBedrooms</text><rect fill="none" height="6" style="stroke:#C82930;stroke-width:1.0;" width="6" x="1331" y="889.2158"/><text fill="#000000" font-family="sans-serif" font-size="14" lengthAdjust="spacing" textLength="150" x="1343" y="895.5693">int numberOfBathrooms</text><rect fill="none" height="6" style="stroke:#C82930;stroke-width:1.0;" width="6" x="1331" y="904.8564"/><text fill="#000000" font-family="sans-serif" font-size="14" lengthAdjust="spacing" textLength="177" x="1343" y="911.21">int numberOfParkingSpaces</text><rect fill="none" height="6" style="stroke:#C82930;stroke-width:1.0;" width="6" x="1331" y="920.4971"/><text fill="#000000" font-family="sans-serif" font-size="14" lengthAdjust="spacing" textLength="164" x="1343" y="926.8506">String availableEquipment</text><line style="stroke:#181818;stroke-width:0.5;" x1="1324" x2="1525" y1="933.8174" y2="933.8174"/></g><!--class Apartment--><g id="elem_Apartment"><rect codeLine="138" fill="#F1F1F1" height="48" id="Apartment" rx="2.5" ry="2.5" style="stroke:#181818;stroke-width:0.5;" width="97" x="1532" y="1050.2549"/><ellipse cx="1547" cy="1066.2549" fill="#ADD1B2" rx="11" ry="11" style="stroke:#181818;stroke-width:1.0;"/><path d="M1549.7656,1062.1299 Q1549.9219,1061.9111 1550.1094,1061.8018 Q1550.2969,1061.6924 1550.5156,1061.6924 Q1550.8906,1061.6924 1551.125,1061.958 Q1551.3594,1062.208 1551.3594,1062.8174 L1551.3594,1064.2705 Q1551.3594,1064.8799 1551.125,1065.1455 Q1550.8906,1065.4111 1550.5156,1065.4111 Q1550.1719,1065.4111 1549.9688,1065.208 Q1549.7656,1065.0205 1549.6563,1064.5049 Q1549.6094,1064.1455 1549.4219,1063.958 Q1549.0938,1063.583 1548.4844,1063.3643 Q1547.875,1063.1455 1547.25,1063.1455 Q1546.4844,1063.1455 1545.8438,1063.4736 Q1545.2188,1063.8018 1544.7188,1064.5518 Q1544.2344,1065.3018 1544.2344,1066.333 L1544.2344,1067.4268 Q1544.2344,1068.6611 1545.125,1069.4893 Q1546.0156,1070.3018 1547.6094,1070.3018 Q1548.5469,1070.3018 1549.2031,1070.0518 Q1549.5938,1069.8955 1550.0156,1069.458 Q1550.2813,1069.1924 1550.4219,1069.1143 Q1550.5781,1069.0361 1550.7813,1069.0361 Q1551.1094,1069.0361 1551.3594,1069.3018 Q1551.625,1069.5518 1551.625,1069.8955 Q1551.625,1070.2393 1551.2813,1070.6455 Q1550.7813,1071.2236 1549.9844,1071.5518 Q1548.9063,1072.0049 1547.6094,1072.0049 Q1546.0938,1072.0049 1544.8906,1071.3799 Q1543.9063,1070.8799 1543.2188,1069.8174 Q1542.5313,1068.7393 1542.5313,1067.458 L1542.5313,1066.3018 Q1542.5313,1064.9736 1543.1406,1063.833 Q1543.7656,1062.6768 1544.8594,1062.0674 Q1545.9531,1061.4424 1547.1875,1061.4424 Q1547.9219,1061.4424 1548.5625,1061.6143 Q1549.2188,1061.7705 1549.7656,1062.1299 Z " fill="#000000"/><text fill="#000000" font-family="sans-serif" font-size="14" lengthAdjust="spacing" textLength="65" x="1561" y="1071.1084">Apartment</text><line style="stroke:#181818;stroke-width:0.5;" x1="1533" x2="1628" y1="1082.2549" y2="1082.2549"/><line style="stroke:#181818;stroke-width:0.5;" x1="1533" x2="1628" y1="1090.2549" y2="1090.2549"/></g><!--class House--><g id="elem_House"><rect codeLine="142" fill="#F1F1F1" height="94.9219" id="House" rx="2.5" ry="2.5" style="stroke:#181818;stroke-width:0.5;" width="248" x="1248.5" y="1026.7549"/><ellipse cx="1348.25" cy="1042.7549" fill="#ADD1B2" rx="11" ry="11" style="stroke:#181818;stroke-width:1.0;"/><path d="M1351.0156,1038.6299 Q1351.1719,1038.4111 1351.3594,1038.3018 Q1351.5469,1038.1924 1351.7656,1038.1924 Q1352.1406,1038.1924 1352.375,1038.458 Q1352.6094,1038.708 1352.6094,1039.3174 L1352.6094,1040.7705 Q1352.6094,1041.3799 1352.375,1041.6455 Q1352.1406,1041.9111 1351.7656,1041.9111 Q1351.4219,1041.9111 1351.2188,1041.708 Q1351.0156,1041.5205 1350.9063,1041.0049 Q1350.8594,1040.6455 1350.6719,1040.458 Q1350.3438,1040.083 1349.7344,1039.8643 Q1349.125,1039.6455 1348.5,1039.6455 Q1347.7344,1039.6455 1347.0938,1039.9736 Q1346.4688,1040.3018 1345.9688,1041.0518 Q1345.4844,1041.8018 1345.4844,1042.833 L1345.4844,1043.9268 Q1345.4844,1045.1611 1346.375,1045.9893 Q1347.2656,1046.8018 1348.8594,1046.8018 Q1349.7969,1046.8018 1350.4531,1046.5518 Q1350.8438,1046.3955 1351.2656,1045.958 Q1351.5313,1045.6924 1351.6719,1045.6143 Q1351.8281,1045.5361 1352.0313,1045.5361 Q1352.3594,1045.5361 1352.6094,1045.8018 Q1352.875,1046.0518 1352.875,1046.3955 Q1352.875,1046.7393 1352.5313,1047.1455 Q1352.0313,1047.7236 1351.2344,1048.0518 Q1350.1563,1048.5049 1348.8594,1048.5049 Q1347.3438,1048.5049 1346.1406,1047.8799 Q1345.1563,1047.3799 1344.4688,1046.3174 Q1343.7813,1045.2393 1343.7813,1043.958 L1343.7813,1042.8018 Q1343.7813,1041.4736 1344.3906,1040.333 Q1345.0156,1039.1768 1346.1094,1038.5674 Q1347.2031,1037.9424 1348.4375,1037.9424 Q1349.1719,1037.9424 1349.8125,1038.1143 Q1350.4688,1038.2705 1351.0156,1038.6299 Z " fill="#000000"/><text fill="#000000" font-family="sans-serif" font-size="14" lengthAdjust="spacing" textLength="40" x="1368.75" y="1047.6084">House</text><line style="stroke:#181818;stroke-width:0.5;" x1="1249.5" x2="1495.5" y1="1058.7549" y2="1058.7549"/><rect fill="none" height="6" style="stroke:#C82930;stroke-width:1.0;" width="6" x="1256.5" y="1069.0752"/><text fill="#000000" font-family="sans-serif" font-size="14" lengthAdjust="spacing" textLength="192" x="1268.5" y="1075.4287">boolean existanceOfBasement</text><rect fill="none" height="6" style="stroke:#C82930;stroke-width:1.0;" width="6" x="1256.5" y="1084.7158"/><text fill="#000000" font-family="sans-serif" font-size="14" lengthAdjust="spacing" textLength="222" x="1268.5" y="1091.0693">boolean existanceOfInhabitableLoft</text><rect fill="none" height="6" style="stroke:#C82930;stroke-width:1.0;" width="6" x="1256.5" y="1100.3564"/><text fill="#000000" font-family="sans-serif" font-size="14" lengthAdjust="spacing" textLength="101" x="1268.5" y="1106.71">int sunExposure</text><line style="stroke:#181818;stroke-width:0.5;" x1="1249.5" x2="1495.5" y1="1113.6768" y2="1113.6768"/></g><!--class Owner--><g id="elem_Owner"><rect codeLine="148" fill="#F1F1F1" height="48" id="Owner" rx="2.5" ry="2.5" style="stroke:#181818;stroke-width:0.5;" width="73" x="1115" y="862.7549"/><ellipse cx="1130" cy="878.7549" fill="#ADD1B2" rx="11" ry="11" style="stroke:#181818;stroke-width:1.0;"/><path d="M1132.7656,874.6299 Q1132.9219,874.4111 1133.1094,874.3018 Q1133.2969,874.1924 1133.5156,874.1924 Q1133.8906,874.1924 1134.125,874.458 Q1134.3594,874.708 1134.3594,875.3174 L1134.3594,876.7705 Q1134.3594,877.3799 1134.125,877.6455 Q1133.8906,877.9111 1133.5156,877.9111 Q1133.1719,877.9111 1132.9688,877.708 Q1132.7656,877.5205 1132.6563,877.0049 Q1132.6094,876.6455 1132.4219,876.458 Q1132.0938,876.083 1131.4844,875.8643 Q1130.875,875.6455 1130.25,875.6455 Q1129.4844,875.6455 1128.8438,875.9736 Q1128.2188,876.3018 1127.7188,877.0518 Q1127.2344,877.8018 1127.2344,878.833 L1127.2344,879.9268 Q1127.2344,881.1611 1128.125,881.9893 Q1129.0156,882.8018 1130.6094,882.8018 Q1131.5469,882.8018 1132.2031,882.5518 Q1132.5938,882.3955 1133.0156,881.958 Q1133.2813,881.6924 1133.4219,881.6143 Q1133.5781,881.5361 1133.7813,881.5361 Q1134.1094,881.5361 1134.3594,881.8018 Q1134.625,882.0518 1134.625,882.3955 Q1134.625,882.7393 1134.2813,883.1455 Q1133.7813,883.7236 1132.9844,884.0518 Q1131.9063,884.5049 1130.6094,884.5049 Q1129.0938,884.5049 1127.8906,883.8799 Q1126.9063,883.3799 1126.2188,882.3174 Q1125.5313,881.2393 1125.5313,879.958 L1125.5313,878.8018 Q1125.5313,877.4736 1126.1406,876.333 Q1126.7656,875.1768 1127.8594,874.5674 Q1128.9531,873.9424 1130.1875,873.9424 Q1130.9219,873.9424 1131.5625,874.1143 Q1132.2188,874.2705 1132.7656,874.6299 Z " fill="#000000"/><text fill="#000000" font-family="sans-serif" font-size="14" lengthAdjust="spacing" textLength="41" x="1144" y="883.6084">Owner</text><line style="stroke:#181818;stroke-width:0.5;" x1="1116" x2="1187" y1="894.7549" y2="894.7549"/><line style="stroke:#181818;stroke-width:0.5;" x1="1116" x2="1187" y1="902.7549" y2="902.7549"/></g><g id="elem_GMN27"><path d="M664.5,142.7549 L664.5,181.8018 L822.5,181.8018 L822.5,152.7549 L812.5,142.7549 L664.5,142.7549 " fill="#FEFFDD" style="stroke:#181818;stroke-width:0.5;"/><path d="M812.5,142.7549 L812.5,152.7549 L822.5,152.7549 L812.5,142.7549 " fill="#FEFFDD" style="stroke:#181818;stroke-width:1.0;"/><text fill="#000000" font-family="sans-serif" font-size="13" lengthAdjust="spacing" textLength="137" x="670.5" y="159.5234">-  userEmail is obtanied</text><text fill="#000000" font-family="sans-serif" font-size="13" lengthAdjust="spacing" textLength="125" x="670.5" y="174.0469">from the user session</text></g><g id="elem_GMN68"><path d="M856.5,516.2549 L856.5,555.3018 A0,0 0 0 0 856.5,555.3018 L1008.5,555.3018 A0,0 0 0 0 1008.5,555.3018 L1008.5,526.2549 L998.5,516.2549 L936.63,516.2549 L933.34,411.8849 L928.63,516.2549 L856.5,516.2549 A0,0 0 0 0 856.5,516.2549 " fill="#FEFFDD" style="stroke:#181818;stroke-width:0.5;"/><path d="M998.5,516.2549 L998.5,526.2549 L1008.5,526.2549 L998.5,516.2549 " fill="#FEFFDD" style="stroke:#181818;stroke-width:0.5;"/><text fill="#000000" font-family="sans-serif" font-size="13" lengthAdjust="spacing" textLength="108" x="862.5" y="533.0234">- used to get client</text><text fill="#000000" font-family="sans-serif" font-size="13" lengthAdjust="spacing" textLength="131" x="862.5" y="547.5469">account from his email</text></g><g id="elem_GMN72"><path d="M1301.5,523.2549 L1301.5,547.7783 A0,0 0 0 0 1301.5,547.7783 L1541.5,547.7783 A0,0 0 0 0 1541.5,547.7783 L1541.5,533.2549 L1531.5,523.2549 L1405.61,523.2549 L1209.43,411.8849 L1397.61,523.2549 L1301.5,523.2549 A0,0 0 0 0 1301.5,523.2549 " fill="#FEFFDD" style="stroke:#181818;stroke-width:0.5;"/><path d="M1531.5,523.2549 L1531.5,533.2549 L1541.5,533.2549 L1531.5,523.2549 " fill="#FEFFDD" style="stroke:#181818;stroke-width:0.5;"/><text fill="#000000" font-family="sans-serif" font-size="13" lengthAdjust="spacing" textLength="219" x="1307.5" y="540.0234">- used to create the new PropertySale</text></g><g id="elem_GMN76"><path d="M156,494.2549 L156,576.8721 A0,0 0 0 0 156,576.8721 L297,576.8721 A0,0 0 0 0 297,576.8721 L297,504.2549 L287,494.2549 L295,494.2549 L412.16,419.8949 L287,494.2549 L156,494.2549 A0,0 0 0 0 156,494.2549 " fill="#FEFFDD" style="stroke:#181818;stroke-width:0.5;"/><path d="M287,494.2549 L287,504.2549 L297,504.2549 L287,494.2549 " fill="#FEFFDD" style="stroke:#181818;stroke-width:0.5;"/><text fill="#000000" font-family="sans-serif" font-size="13" lengthAdjust="spacing" textLength="95" x="162" y="511.0234">- used to get the</text><text fill="#000000" font-family="sans-serif" font-size="13" lengthAdjust="spacing" textLength="90" x="162" y="525.5469">states, districts</text><text fill="#000000" font-family="sans-serif" font-size="13" lengthAdjust="spacing" textLength="71" x="162" y="540.0703">and cities to</text><text fill="#000000" font-family="sans-serif" font-size="13" lengthAdjust="spacing" textLength="120" x="162" y="554.5938">describe the location</text><text fill="#000000" font-family="sans-serif" font-size="13" lengthAdjust="spacing" textLength="83" x="162" y="569.1172">of the property</text></g><g id="elem_GMN80"><path d="M702,501.7549 L702,569.8486 A0,0 0 0 0 702,569.8486 L821,569.8486 A0,0 0 0 0 821,569.8486 L821,511.7549 L811,501.7549 L752.6,501.7549 L716.73,420.0749 L744.6,501.7549 L702,501.7549 A0,0 0 0 0 702,501.7549 " fill="#FEFFDD" style="stroke:#181818;stroke-width:0.5;"/><path d="M811,501.7549 L811,511.7549 L821,511.7549 L811,501.7549 " fill="#FEFFDD" style="stroke:#181818;stroke-width:0.5;"/><text fill="#000000" font-family="sans-serif" font-size="13" lengthAdjust="spacing" textLength="73" x="708" y="518.5234">- used to get</text><text fill="#000000" font-family="sans-serif" font-size="13" lengthAdjust="spacing" textLength="96" x="708" y="533.0469">the agent logged</text><text fill="#000000" font-family="sans-serif" font-size="13" lengthAdjust="spacing" textLength="98" x="708" y="547.5703">int to the system</text><text fill="#000000" font-family="sans-serif" font-size="13" lengthAdjust="spacing" textLength="78" x="708" y="562.0938">from its email</text></g><!--link RegisterPropertySaleController to GMN27--><g id="link_RegisterPropertySaleController_GMN27"><path d="M629.32,162.2549 C638.99,162.2549 645.5,162.2549 645.5,162.2549 C645.5,162.2549 653.25,162.2549 664.4,162.2549 " fill="none" id="RegisterPropertySaleController-GMN27" style="stroke:#181818;stroke-width:1.0;stroke-dasharray:7.0,7.0;"/></g><!--link RegisterPropertySaleUI to RegisterPropertySaleController--><g id="link_RegisterPropertySaleUI_RegisterPropertySaleController"><path codeLine="160" d="M235.21,162.2549 C242.32,162.2549 246.83,162.2549 246.83,162.2549 C246.83,162.2549 254.09,162.2549 264.72,162.2549 " fill="none" id="RegisterPropertySaleUI-to-RegisterPropertySaleController" style="stroke:#181818;stroke-width:1.0;stroke-dasharray:7.0,7.0;"/><polygon fill="#181818" points="269.83,162.2549,260.83,158.2549,264.83,162.2549,260.83,166.2549,269.83,162.2549" style="stroke:#181818;stroke-width:1.0;"/></g><!--link RegisterPropertySaleController to Repositories--><g id="link_RegisterPropertySaleController_Repositories"><path codeLine="162" d="M629.02,62.0149 C639.86,55.9649 646.5,52.2549 646.5,52.2549 C646.5,52.2549 709,30.2549 709,30.2549 C709,30.2549 778,30.2549 778,30.2549 C778,30.2549 839.5,52.2549 839.5,52.2549 C839.5,52.2549 856.83,68.0149 878.38,87.6049 " fill="none" id="RegisterPropertySaleController-to-Repositories" style="stroke:#181818;stroke-width:1.0;stroke-dasharray:7.0,7.0;"/><polygon fill="#181818" points="882.16,91.0349,878.2016,82.0165,878.4642,87.6673,872.8134,87.9298,882.16,91.0349" style="stroke:#181818;stroke-width:1.0;"/><text fill="#000000" font-family="sans-serif" font-size="13" lengthAdjust="spacing" textLength="67" x="710" y="19.0234">repositories</text></g><!--link Repositories to Repositories--><g id="link_Repositories_Repositories"><path codeLine="163" d="M1063.71,135.6949 C1084.04,138.7349 1098.5,147.5849 1098.5,162.2549 C1098.5,175.6649 1086.42,184.2149 1068.82,187.9049 " fill="none" id="Repositories-to-Repositories" style="stroke:#181818;stroke-width:1.0;"/><polygon fill="#181818" points="1063.71,188.8149,1073.2702,191.182,1068.6332,187.9419,1071.8733,183.3049,1063.71,188.8149" style="stroke:#181818;stroke-width:1.0;"/><text fill="#000000" font-family="sans-serif" font-size="13" lengthAdjust="spacing" textLength="49" x="1104.5" y="167.0234">instance</text></g><!--link Repositories to LocationsRepository--><g id="link_Repositories_LocationsRepository"><path codeLine="164" d="M897.96,233.4949 C861.45,274.5049 822.5,318.2549 822.5,318.2549 C822.5,318.2549 590.5,348.2549 590.5,348.2549 C590.5,348.2549 571.55,353.9549 548.24,360.9649 " fill="none" id="Repositories-to-LocationsRepository" style="stroke:#181818;stroke-width:1.0;"/><polygon fill="#181818" points="543.2,362.4849,552.9681,363.7434,547.9911,361.0547,550.6798,356.0777,543.2,362.4849" style="stroke:#181818;stroke-width:1.0;"/><text fill="#000000" font-family="sans-serif" font-size="13" lengthAdjust="spacing" textLength="7" x="550.9622" y="357.3192">1</text></g><!--link Repositories to BranchesRepository--><g id="link_Repositories_BranchesRepository"><path codeLine="165" d="M919.26,233.4949 C895.18,274.5049 869.5,318.2549 869.5,318.2549 C869.5,318.2549 826.32,336.1749 784.15,353.6949 " fill="none" id="Repositories-to-BranchesRepository" style="stroke:#181818;stroke-width:1.0;"/><polygon fill="#181818" points="779.28,355.7149,789.1255,355.9716,783.9004,353.804,786.068,348.5789,779.28,355.7149" style="stroke:#181818;stroke-width:1.0;"/><text fill="#000000" font-family="sans-serif" font-size="13" lengthAdjust="spacing" textLength="7" x="787.8725" y="345.04">1</text></g><!--link Repositories to ClientRepository--><g id="link_Repositories_ClientRepository"><path codeLine="166" d="M952.03,233.3549 C946.93,275.5949 940.71,327.0949 936.93,358.3749 " fill="none" id="Repositories-to-ClientRepository" style="stroke:#181818;stroke-width:1.0;"/><polygon fill="#181818" points="936.3,363.5949,941.3525,355.1407,936.9008,358.6311,933.4104,354.1795,936.3,363.5949" style="stroke:#181818;stroke-width:1.0;"/><text fill="#000000" font-family="sans-serif" font-size="13" lengthAdjust="spacing" textLength="7" x="929.1119" y="353.0595">1</text></g><!--link Repositories to PropertySaleRepository--><g id="link_Repositories_PropertySaleRepository"><path codeLine="167" d="M1050.79,233.3649 C1095.27,267.9149 1139.5,302.2549 1139.5,302.2549 C1139.5,302.2549 1150.86,334.2349 1159.59,358.8549 " fill="none" id="Repositories-to-PropertySaleRepository" style="stroke:#181818;stroke-width:1.0;"/><polygon fill="#181818" points="1161.3,363.6649,1162.0626,353.8456,1159.6292,358.9523,1154.5225,356.5189,1161.3,363.6649" style="stroke:#181818;stroke-width:1.0;"/><text fill="#000000" font-family="sans-serif" font-size="13" lengthAdjust="spacing" textLength="7" x="1151.1556" y="353.1483">1</text></g><!--link LocationsRepository to State--><g id="link_LocationsRepository_State"><path codeLine="170" d="M445.98,420.0749 C433.71,443.3449 416.96,475.1149 404.19,499.3149 " fill="none" id="LocationsRepository-to-State" style="stroke:#181818;stroke-width:1.0;"/><polygon fill="#181818" points="401.86,503.7349,409.6043,497.65,404.1981,499.3152,402.5329,493.909,401.86,503.7349" style="stroke:#181818;stroke-width:1.0;"/><text fill="#000000" font-family="sans-serif" font-size="13" lengthAdjust="spacing" textLength="20" x="383.2513" y="493.0644">1..*</text></g><!--link State to District--><g id="link_State_District"><path codeLine="171" d="M373.16,567.9949 C362.45,595.1049 346.93,634.3749 335.71,662.7949 " fill="none" id="State-to-District" style="stroke:#181818;stroke-width:1.0;"/><polygon fill="#181818" points="333.8,667.6149,340.8126,660.6994,335.6274,662.9608,333.366,657.7756,333.8,667.6149" style="stroke:#181818;stroke-width:1.0;"/><text fill="#000000" font-family="sans-serif" font-size="13" lengthAdjust="spacing" textLength="20" x="314.3031" y="656.9181">1..*</text></g><!--link District to City--><g id="link_District_City"><path codeLine="172" d="M324.55,732.1349 C327.97,767.2649 333.46,823.6849 336.75,857.4849 " fill="none" id="District-to-City" style="stroke:#181818;stroke-width:1.0;"/><polygon fill="#181818" points="337.26,862.7149,340.3685,853.3694,336.7752,857.7384,332.4062,854.1451,337.26,862.7149" style="stroke:#181818;stroke-width:1.0;"/><text fill="#000000" font-family="sans-serif" font-size="13" lengthAdjust="spacing" textLength="20" x="313.8175" y="851.827">1..*</text></g><!--link State to Location--><g id="link_State_Location"><path codeLine="173" d="M385.42,567.9049 C385.19,662.8549 384.5,942.2549 384.5,942.2549 C384.5,942.2549 373.27,974.9549 362.03,1007.6749 " fill="none" id="State-to-Location" style="stroke:#181818;stroke-width:1.0;"/><polygon fill="none" points="368.61,1010.0549,355.49,1026.7049,355.37,1005.5149,368.61,1010.0549" style="stroke:#181818;stroke-width:1.0;"/></g><!--link District to Location--><g id="link_District_Location"><path codeLine="174" d="M314.79,732.0149 C306.51,770.6249 293.5,831.2549 293.5,831.2549 C293.5,831.2549 293.5,942.2549 293.5,942.2549 C293.5,942.2549 304.98,974.9549 316.47,1007.6749 " fill="none" id="District-to-Location" style="stroke:#181818;stroke-width:1.0;"/><polygon fill="none" points="323.13,1005.5149,323.15,1026.7049,309.92,1010.1449,323.13,1005.5149" style="stroke:#181818;stroke-width:1.0;"/></g><!--link City to Location--><g id="link_City_Location"><path codeLine="175" d="M339.5,910.8749 C339.5,934.7649 339.5,973.1749 339.5,1006.6349 " fill="none" id="City-to-Location" style="stroke:#181818;stroke-width:1.0;"/><polygon fill="none" points="346.5,1006.6649,339.5,1026.6649,332.5,1006.6649,346.5,1006.6649" style="stroke:#181818;stroke-width:1.0;"/></g><!--link Location to Location--><g id="link_Location_Location"><path codeLine="176" d="M398.39,1055.5049 C417.66,1055.6049 433,1061.8549 433,1074.2549 C433,1085.4949 420.4,1091.6849 403.7,1092.8149 " fill="none" id="Location-to-Location" style="stroke:#181818;stroke-width:1.0;"/><polygon fill="#181818" points="398.39,1093.0049,407.5218,1096.6941,403.3871,1092.8336,407.2477,1088.6988,398.39,1093.0049" style="stroke:#181818;stroke-width:1.0;"/></g><!--link BranchesRepository to StoreNetwork--><g id="link_BranchesRepository_Branch"><path codeLine="178" d="M675.75,420.0749 C654.22,443.5349 624.76,475.6349 602.48,499.9149 " fill="none" id="BranchesRepository-to-Branch" style="stroke:#181818;stroke-width:1.0;"/><polygon fill="#181818" points="598.97,503.7349,607.996,499.7939,602.3447,500.0456,602.0931,494.3943,598.97,503.7349" style="stroke:#181818;stroke-width:1.0;"/><text fill="#000000" font-family="sans-serif" font-size="13" lengthAdjust="spacing" textLength="5" x="599.6509" y="493.0644">*</text></g><!--link StoreNetwork to Store--><g id="link_Branch_Store"><path codeLine="179" d="M608.29,567.9949 C641.64,595.5549 690.18,635.6749 724.69,664.1949 " fill="none" id="Branch-to-Store" style="stroke:#181818;stroke-width:1.0;"/><polygon fill="#181818" points="728.83,667.6149,724.4541,658.7915,724.9807,664.4238,719.3484,664.9504,728.83,667.6149" style="stroke:#181818;stroke-width:1.0;"/><text fill="#000000" font-family="sans-serif" font-size="13" lengthAdjust="spacing" textLength="5" x="715.0428" y="656.9181">*</text></g><!--link Store to Employee--><g id="link_Store_Employee"><path codeLine="180" d="M768.82,731.8349 C773.68,797.0549 784.5,942.2549 784.5,942.2549 C784.5,942.2549 787.14,968.8449 790.04,998.0649 " fill="none" id="Store-to-Employee" style="stroke:#181818;stroke-width:1.0;"/><polygon fill="#181818" points="790.54,1003.1549,793.6193,993.7998,790.0397,998.18,785.6594,994.6003,790.54,1003.1549" style="stroke:#181818;stroke-width:1.0;"/><text fill="#000000" font-family="sans-serif" font-size="13" lengthAdjust="spacing" textLength="51" x="785.5" y="891.5234">Employs</text><text fill="#000000" font-family="sans-serif" font-size="13" lengthAdjust="spacing" textLength="5" x="784.5053" y="992.4184">*</text></g><!--link Agent to Employee--><g id="link_Agent_Employee"><path codeLine="181" d="M874.1,918.8049 C865.01,937.1349 853,961.3449 841.2,985.1449 " fill="none" id="Agent-to-Employee" style="stroke:#181818;stroke-width:1.0;"/><polygon fill="none" points="847.42,988.3549,832.26,1003.1649,834.88,982.1349,847.42,988.3549" style="stroke:#181818;stroke-width:1.0;"/></g><!--link Store to Agent--><g id="link_Store_Agent"><path codeLine="182" d="M787.37,732.1349 C809.08,764.7949 843.02,815.8449 865.75,850.0249 " fill="none" id="Store-to-Agent" style="stroke:#181818;stroke-width:1.0;stroke-dasharray:7.0,7.0;"/><polygon fill="#181818" points="868.74,854.5249,867.0913,844.815,865.9731,850.3602,860.4278,849.2421,868.74,854.5249" style="stroke:#181818;stroke-width:1.0;"/><text fill="#000000" font-family="sans-serif" font-size="13" lengthAdjust="spacing" textLength="39" x="833.5" y="798.0234">search</text></g><!--link ClientRepository to Client--><g id="link_ClientRepository_Client"><path codeLine="184" d="M954.84,411.8349 C982.02,441.2249 1025.5,488.2549 1025.5,488.2549 C1025.5,488.2549 1061.5,534.7549 1061.5,534.7549 C1061.5,534.7549 1061.5,534.7549 1061.5,887.7549 C1061.5,887.7549 1080.23,993.0549 1089.47,1044.9849 " fill="none" id="ClientRepository-to-Client" style="stroke:#181818;stroke-width:1.0;"/><polygon fill="#181818" points="1090.39,1050.1349,1092.7302,1040.5681,1089.5031,1045.2142,1084.8571,1041.9871,1090.39,1050.1349" style="stroke:#181818;stroke-width:1.0;"/><text fill="#000000" font-family="sans-serif" font-size="13" lengthAdjust="spacing" textLength="5" x="1083.6136" y="1039.6103">*</text></g><!--link Owner to Client--><g id="link_Owner_Client"><path codeLine="185" d="M1144.4,910.8749 C1135.2,940.8049 1118.99,993.5449 1107.55,1030.7849 " fill="none" id="Owner-to-Client" style="stroke:#181818;stroke-width:1.0;"/><polygon fill="none" points="1114.17,1033.0749,1101.6,1050.1349,1100.79,1028.9649,1114.17,1033.0749" style="stroke:#181818;stroke-width:1.0;"/></g><!--link PropertySaleRepository to PropertySale--><g id="link_PropertySaleRepository_PropertySale"><path codeLine="187" d="M1172.83,411.8849 C1175.57,430.9549 1179.56,458.7149 1183.06,483.0249 " fill="none" id="PropertySaleRepository-to-PropertySale" style="stroke:#181818;stroke-width:1.0;"/><polygon fill="#181818" points="1183.8,488.1549,1186.5023,478.684,1183.1009,483.204,1178.5809,479.8026,1183.8,488.1549" style="stroke:#181818;stroke-width:1.0;"/><text fill="#000000" font-family="sans-serif" font-size="13" lengthAdjust="spacing" textLength="20" x="1161.2428" y="477.6089">0..*</text></g><!--link PropertySale to Property--><g id="link_PropertySale_Property"><path codeLine="189" d="M1198.89,583.6149 C1201.98,600.8649 1205.52,620.6549 1208.78,638.8949 " fill="none" id="PropertySale-to-Property" style="stroke:#181818;stroke-width:1.0;"/><polygon fill="#181818" points="1209.7,643.9949,1212.045,634.4293,1208.8156,639.0737,1204.1712,635.8443,1209.7,643.9949" style="stroke:#181818;stroke-width:1.0;"/><text fill="#000000" font-family="sans-serif" font-size="13" lengthAdjust="spacing" textLength="7" x="1200.9128" y="633.3946">1</text></g><!--reverse link Property to ResidentialProperty--><g id="link_Property_ResidentialProperty"><path codeLine="190" d="M1294.87,768.7749 C1317.58,789.2649 1342.2,811.4849 1363.83,830.9949 " fill="none" id="Property-backto-ResidentialProperty" style="stroke:#181818;stroke-width:1.0;"/><polygon fill="none" points="1290.06,773.8549,1279.9,755.2649,1299.44,763.4649,1290.06,773.8549" style="stroke:#181818;stroke-width:1.0;"/></g><!--reverse link ResidentialProperty to Apartment--><g id="link_ResidentialProperty_Apartment"><path codeLine="191" d="M1483.6,958.0249 C1511.03,990.6449 1541.78,1027.2149 1561.14,1050.2249 " fill="none" id="ResidentialProperty-backto-Apartment" style="stroke:#181818;stroke-width:1.0;"/><polygon fill="none" points="1477.98,962.2249,1470.46,942.4049,1488.69,953.2049,1477.98,962.2249" style="stroke:#181818;stroke-width:1.0;"/></g><!--reverse link ResidentialProperty to House--><g id="link_ResidentialProperty_House"><path codeLine="192" d="M1403.72,961.8849 C1397.6,983.6949 1391.09,1006.9449 1385.6,1026.5249 " fill="none" id="ResidentialProperty-backto-House" style="stroke:#181818;stroke-width:1.0;"/><polygon fill="none" points="1397.04,959.7749,1409.18,942.4049,1410.52,963.5549,1397.04,959.7749" style="stroke:#181818;stroke-width:1.0;"/></g><!--reverse link Property to Land--><g id="link_Property_Land"><path codeLine="193" d="M1233.98,775.1749 C1240.05,806.3349 1246.67,840.3549 1250.94,862.3149 " fill="none" id="Property-backto-Land" style="stroke:#181818;stroke-width:1.0;"/><polygon fill="none" points="1227.06,776.2249,1230.11,755.2649,1240.8,773.5549,1227.06,776.2249" style="stroke:#181818;stroke-width:1.0;"/></g><!--link Property to Owner--><g id="link_Property_Owner"><path codeLine="195" d="M1199.47,755.2649 C1188.22,785.8549 1174.51,823.1549 1164.63,850.0349 " fill="none" id="Property-to-Owner" style="stroke:#181818;stroke-width:1.0;"/><polygon fill="none" points="1160.12,862.3149,1165.9448,858.0639,1164.2611,851.0521,1158.4363,855.3031,1160.12,862.3149" style="stroke:#181818;stroke-width:1.0;"/><text fill="#000000" font-family="sans-serif" font-size="13" lengthAdjust="spacing" textLength="7" x="1154.432" y="852.094">1</text></g><!--link Property to Agent--><g id="link_Property_Agent"><path codeLine="196" d="M1122.27,755.2649 C1060.76,789.7449 984.02,832.7649 935.88,859.7549 " fill="none" id="Property-to-Agent" style="stroke:#181818;stroke-width:1.0;"/><polygon fill="none" points="924.28,866.2549,931.4699,866.8069,934.7449,860.3824,927.555,859.8303,924.28,866.2549" style="stroke:#181818;stroke-width:1.0;"/><text fill="#000000" font-family="sans-serif" font-size="13" lengthAdjust="spacing" textLength="7" x="932.1753" y="858.4426">1</text></g><!--link RegisterPropertySaleController to AplicationSession--><g id="link_RegisterPropertySaleController_AplicationSession"><path codeLine="198" d="M322.06,272.3849 C291.97,298.1549 261.65,324.1149 237.53,344.7649 " fill="none" id="RegisterPropertySaleController-to-AplicationSession" style="stroke:#181818;stroke-width:1.0;stroke-dasharray:7.0,7.0;"/><polygon fill="#181818" points="233.72,348.0349,243.1626,345.2353,237.5233,344.7892,237.9694,339.1499,233.72,348.0349" style="stroke:#181818;stroke-width:1.0;"/></g><!--link AplicationSession to AplicationSession--><g id="link_AplicationSession_AplicationSession"><path codeLine="199" d="M267.62,374.7949 C287.56,375.6749 302.5,379.9949 302.5,387.7549 C302.5,394.8449 290.02,399.0649 272.64,400.4049 " fill="none" id="AplicationSession-to-AplicationSession" style="stroke:#181818;stroke-width:1.0;"/><polygon fill="#181818" points="267.62,400.7149,276.844,404.1671,272.611,400.4146,276.3635,396.1815,267.62,400.7149" style="stroke:#181818;stroke-width:1.0;"/><text fill="#000000" font-family="sans-serif" font-size="13" lengthAdjust="spacing" textLength="49" x="308.5" y="392.5234">instance</text></g><!--link AplicationSession to UserSession--><g id="link_AplicationSession_UserSession"><path codeLine="200" d="M155.07,427.4949 C135.71,449.9249 111.54,477.9349 92.75,499.7049 " fill="none" id="AplicationSession-to-UserSession" style="stroke:#181818;stroke-width:1.0;"/><polygon fill="#181818" points="89.31,503.6949,98.212,499.4813,92.571,499.9047,92.1477,494.2637,89.31,503.6949" style="stroke:#181818;stroke-width:1.0;"/><text fill="#000000" font-family="sans-serif" font-size="13" lengthAdjust="spacing" textLength="7" x="87.4091" y="493.0156">1</text></g><!--link RegisterPropertySaleController to UserSession--><g id="link_RegisterPropertySaleController_UserSession"><path codeLine="201" d="M269.98,262.5849 C259.14,268.5849 252.5,272.2549 252.5,272.2549 C252.5,272.2549 91.5,348.2549 91.5,348.2549 C91.5,348.2549 76.59,444.1549 68.15,498.4249 " fill="none" id="RegisterPropertySaleController-to-UserSession" style="stroke:#181818;stroke-width:1.0;stroke-dasharray:7.0,7.0;"/><polygon fill="#181818" points="67.35,503.5349,72.69,495.2593,68.121,498.5947,64.7857,494.0257,67.35,503.5349" style="stroke:#181818;stroke-width:1.0;"/></g><!--link RegisterPropertySaleController to ClientRepository--><g id="link_RegisterPropertySaleController_ClientRepository"><path codeLine="203" d="M629.02,262.5849 C639.86,268.5849 646.5,272.2549 646.5,272.2549 C646.5,272.2549 786.61,328.1549 871.04,361.8349 " fill="none" id="RegisterPropertySaleController-to-ClientRepository" style="stroke:#181818;stroke-width:1.0;stroke-dasharray:7.0,7.0;"/><polygon fill="#181818" points="875.77,363.7249,868.8993,356.6685,871.1276,361.8679,865.9281,364.0963,875.77,363.7249" style="stroke:#181818;stroke-width:1.0;"/><text fill="#000000" font-family="sans-serif" font-size="13" lengthAdjust="spacing" textLength="93" x="757.5" y="315.0234">clientRepository</text></g><!--link RegisterPropertySaleController to PropertySaleRepository--><g id="link_RegisterPropertySaleController_PropertySaleRepository"><path codeLine="209" d="M629.02,262.5849 C639.86,268.5849 646.5,272.2549 646.5,272.2549 C646.5,272.2549 859.5,302.2549 859.5,302.2549 C859.5,302.2549 988.35,337.3749 1079.91,362.3349 " fill="none" id="RegisterPropertySaleController-to-PropertySaleRepository" style="stroke:#181818;stroke-width:1.0;stroke-dasharray:7.0,7.0;"/><polygon fill="#181818" points="1084.79,363.6649,1077.1612,357.4359,1079.9665,362.3481,1075.0543,365.1534,1084.79,363.6649" style="stroke:#181818;stroke-width:1.0;"/><text fill="#000000" font-family="sans-serif" font-size="13" lengthAdjust="spacing" textLength="135" x="912.5" y="315.0234">propertySaleRepository</text></g><!--link RegisterPropertySaleController to LocationsRepository--><g id="link_RegisterPropertySaleController_LocationsRepository"><path codeLine="214" d="M455.85,272.3849 C457.49,300.6949 459.15,329.2349 460.4,350.7249 " fill="none" id="RegisterPropertySaleController-to-LocationsRepository" style="stroke:#181818;stroke-width:1.0;stroke-dasharray:7.0,7.0;"/><polygon fill="#181818" points="460.7,355.7549,464.1522,346.5309,460.3997,350.7639,456.1667,347.0114,460.7,355.7549" style="stroke:#181818;stroke-width:1.0;"/><text fill="#000000" font-family="sans-serif" font-size="13" lengthAdjust="spacing" textLength="114" x="459.5" y="315.0234">locationsRepository</text></g><!--link RegisterPropertySaleController to BranchesRepository--><g id="link_RegisterPropertySaleController_BranchesRepository"><path codeLine="223" d="M574.01,272.3849 C607.13,301.4149 640.52,330.6849 665.24,352.3449 " fill="none" id="RegisterPropertySaleController-to-BranchesRepository" style="stroke:#181818;stroke-width:1.0;stroke-dasharray:7.0,7.0;"/><polygon fill="#181818" points="669.13,355.7549,664.9908,346.818,665.3671,352.4624,659.7228,352.8386,669.13,355.7549" style="stroke:#181818;stroke-width:1.0;"/></g><!--SRC=[bLTDRnit4BtpLn2-n4ab8RtgOC1HNLI0qHXHSmiGKBiZYGYNt93Ss8hR_zxXaFjDVyG7splpPkPnE7pSVUE-ILqBAofU6MsAapKLS6yROBsd5iKtSOITFolW5Welz54D0UuaIdClzP4VX793Zv8Q_Ba6NXjr3W_iJSPfh3Tiw2cKSExQUoltZOTjOVHE_WJ-7a4A3fvxmwqydZmlPU0ZZMQCOlWdE4hdmTvPKuFrvvrGy7dx-Dzp_etHtXgbm3wo9I9guwGtzenhhTdNh-ot5w8ktoBa27xdXGTtYyZMyWV-RsNXoUQ2Epasqii4BHCcU0eBY1bMkGmD-dZuq3XibdCBNYVdFsXVy2zQOCY2XoIYW3zn-p3rUGCQsIvm0TyRGEBb7LP0E548KMtH1IyGlk2Yj37xoNY3Vysz1djJ2Qcka-UBZamsffBEOSSnw8XbkkUqikjW33nsGEQs5HibauFIedcm9wdZs1B-63g-79hQ35kDz7K1bs_vUXGJtRUc464INB-1RUG7Yt4do7WYgxbzk0KZRqSwK-un3ijq4heGik82HwFX8Y91MckBYdCoJ1As5xqp7ZpCxWw3yHHgKK7auaqqjUlgM0zJNjTAHdFQixIGC2so6BS-fk6RnbfiNB_7NRBF3kmu3UA3SLiEOVCjuJsycw4uAX1-ps9VZzzXUdWz_AQgbJa3p3gwv59xF30_fDe8M_xTL7kmoUh5G_USOkB9mMSgmwbCGkCnqv3m_JO4Mf7cO2Ac4ug0mJ2GSsJAJ-wJ45eaBM1ykj5wK4RWSatLcgX_XL15eqYb90q4fXLxd5g1KzjcfgmnFkXJtnF40VZ- -QUiDwQ43aqwfgT25Yht0ozqcPRJrVq4JfO8bKADA8I5QMepIYYKrfZAJSt2dtBsEs7nEZhkyF83rnCMFt0NnLx1pVT6rXNM79uZONqrtP2_JEDYc_V6A12QmqDQPQZkW99alLjz4dlfGxbRS_29eMlqpGDkR6EXh_8n27QgovWsA3JnXZG7_iBrnJZ-B3b7cb7okNJSx963X9AS1zmDxaz04ExYwMQ0-n0AORtyhSlvQaKahbvYm9xtyzNL-99OXwkvr_-HRpd5oYHU4nZYBdw_oEbu7ZXNh3nkUc3pgFmnnLPc-AIWrUhTHRn3MBn91kRstc3T1J9mXeFKXlnxrQruY1sQwOOPcxfB9cJjh2mZubJsNTkjXEYifCGiwd5hw-HsdVvrB2eXKMYzAMY5an2zQvn3OR44cobacpawM3mQb2rPs1CYIO7lgMT3n1YFA7pPrUDjP3a5MYwR6ejsc5uVaYSJnA9SF0CW_PkcPeEYXfZHgkTcQjxBvosqUVfMm6QMSDRcnZNlJbmc8it_u3NXDMI6yDVWPpEnnc-AoRaaaTmRxr7SK2LdvpRA8kv66RutmbjFJ44EKHIcmPqaQJoXOCRhlTV4Lv1yOWhNtJl-H1mcX9-Ga37j-4L1ugtXVZpMlqGsfqjhhZBgEQ6P4zXvQv4WMUaBnSKF6dezZjr6fWMz2YEUB2Mu0hyEuyfQ5kJ1ai7Mzl3NLfaH-SboCeZPQiWIID0N4j8x7jDDIczQXdpkZ5og_dwLVZv4_mC0]--></g></svg>