<?xml version="1.0" encoding="us-ascii" standalone="no"?><svg xmlns="http://www.w3.org/2000/svg" xmlns:xlink="http://www.w3.org/1999/xlink" contentStyleType="text/css" height="517px" preserveAspectRatio="none" style="width:531px;height:517px;background:#FFFFFF;" version="1.1" viewBox="0 0 531 517" width="531px" zoomAndPan="magnify"><defs/><g><text fill="#000000" font-family="sans-serif" font-size="14" font-weight="bold" lengthAdjust="spacing" textLength="351" x="89" y="27.6738">System Sequence Diagram (SSD) - Alternative One</text><rect fill="#FFFFFF" height="300.7578" style="stroke:#181818;stroke-width:1.0;" width="10" x="74" y="127.2813"/><rect fill="#FFFFFF" height="28.5234" style="stroke:#181818;stroke-width:1.0;" width="10" x="488" y="147.8047"/><rect fill="#FFFFFF" height="28.5234" style="stroke:#181818;stroke-width:1.0;" width="10" x="488" y="219.375"/><rect fill="#FFFFFF" height="28.5234" style="stroke:#181818;stroke-width:1.0;" width="10" x="488" y="276.4219"/><rect fill="#FFFFFF" height="28.5234" style="stroke:#181818;stroke-width:1.0;" width="10" x="488" y="333.4688"/><rect fill="#FFFFFF" height="28.5234" style="stroke:#181818;stroke-width:1.0;" width="10" x="488" y="390.5156"/><line style="stroke:#181818;stroke-width:0.5;stroke-dasharray:5.0,5.0;" x1="79" x2="79" y1="117.2813" y2="437.0391"/><line style="stroke:#181818;stroke-width:0.5;stroke-dasharray:5.0,5.0;" x1="493" x2="493" y1="117.2813" y2="437.0391"/><text fill="#000000" font-family="sans-serif" font-size="14" lengthAdjust="spacing" textLength="142" x="5" y="114.3145">System's administrator</text><ellipse cx="79" cy="50.1406" fill="#E3E3E3" rx="8" ry="8" style="stroke:#181818;stroke-width:0.5;"/><path d="M79,58.1406 L79,85.1406 M66,66.1406 L92,66.1406 M79,85.1406 L66,100.1406 M79,85.1406 L92,100.1406 " fill="none" style="stroke:#181818;stroke-width:0.5;"/><text fill="#000000" font-family="sans-serif" font-size="14" lengthAdjust="spacing" textLength="142" x="5" y="448.7129">System's administrator</text><ellipse cx="79" cy="460.1797" fill="#E3E3E3" rx="8" ry="8" style="stroke:#181818;stroke-width:0.5;"/><path d="M79,468.1797 L79,495.1797 M66,476.1797 L92,476.1797 M79,495.1797 L66,510.1797 M79,495.1797 L92,510.1797 " fill="none" style="stroke:#181818;stroke-width:0.5;"/><rect fill="#E3E3E3" height="29.6406" rx="2.5" ry="2.5" style="stroke:#181818;stroke-width:0.5;" width="64" x="461" y="86.6406"/><text fill="#000000" font-family="sans-serif" font-size="14" lengthAdjust="spacing" textLength="50" x="468" y="106.3145">:System</text><rect fill="#E3E3E3" height="29.6406" rx="2.5" ry="2.5" style="stroke:#181818;stroke-width:0.5;" width="64" x="461" y="436.0391"/><text fill="#000000" font-family="sans-serif" font-size="14" lengthAdjust="spacing" textLength="50" x="468" y="455.7129">:System</text><rect fill="#FFFFFF" height="300.7578" style="stroke:#181818;stroke-width:1.0;" width="10" x="74" y="127.2813"/><rect fill="#FFFFFF" height="28.5234" style="stroke:#181818;stroke-width:1.0;" width="10" x="488" y="147.8047"/><rect fill="#FFFFFF" height="28.5234" style="stroke:#181818;stroke-width:1.0;" width="10" x="488" y="219.375"/><rect fill="#FFFFFF" height="28.5234" style="stroke:#181818;stroke-width:1.0;" width="10" x="488" y="276.4219"/><rect fill="#FFFFFF" height="28.5234" style="stroke:#181818;stroke-width:1.0;" width="10" x="488" y="333.4688"/><rect fill="#FFFFFF" height="28.5234" style="stroke:#181818;stroke-width:1.0;" width="10" x="488" y="390.5156"/><polygon fill="#181818" points="476,143.8047,486,147.8047,476,151.8047,480,147.8047" style="stroke:#181818;stroke-width:1.0;"/><line style="stroke:#181818;stroke-width:1.0;" x1="84" x2="482" y1="147.8047" y2="147.8047"/><text fill="#000000" font-family="sans-serif" font-size="13" font-weight="bold" lengthAdjust="spacing" textLength="7" x="91" y="143.0498">1</text><text fill="#000000" font-family="sans-serif" font-size="13" lengthAdjust="spacing" textLength="188" x="102" y="143.0498">asks to register a new employee</text><polygon fill="#181818" points="95,172.3281,85,176.3281,95,180.3281,91,176.3281" style="stroke:#181818;stroke-width:1.0;"/><line style="stroke:#181818;stroke-width:1.0;stroke-dasharray:2.0,2.0;" x1="89" x2="492" y1="176.3281" y2="176.3281"/><text fill="#000000" font-family="sans-serif" font-size="13" font-weight="bold" lengthAdjust="spacing" textLength="7" x="101" y="171.5732">2</text><text fill="#000000" font-family="sans-serif" font-size="13" lengthAdjust="spacing" textLength="79" x="112" y="171.5732">requests data</text><polygon fill="#181818" points="476,215.375,486,219.375,476,223.375,480,219.375" style="stroke:#181818;stroke-width:1.0;"/><line style="stroke:#181818;stroke-width:1.0;" x1="84" x2="482" y1="219.375" y2="219.375"/><text fill="#000000" font-family="sans-serif" font-size="13" font-weight="bold" lengthAdjust="spacing" textLength="7" x="91" y="207.3584">3</text><text fill="#000000" font-family="sans-serif" font-size="13" lengthAdjust="spacing" textLength="370" x="102" y="200.0967">types requested data (name, citizen's card number, tax number,</text><text fill="#000000" font-family="sans-serif" font-size="13" lengthAdjust="spacing" textLength="271" x="102" y="214.6201">address, email address and telephone number)</text><polygon fill="#181818" points="95,243.8984,85,247.8984,95,251.8984,91,247.8984" style="stroke:#181818;stroke-width:1.0;"/><line style="stroke:#181818;stroke-width:1.0;stroke-dasharray:2.0,2.0;" x1="89" x2="492" y1="247.8984" y2="247.8984"/><text fill="#000000" font-family="sans-serif" font-size="13" font-weight="bold" lengthAdjust="spacing" textLength="7" x="101" y="243.1436">4</text><text fill="#000000" font-family="sans-serif" font-size="13" lengthAdjust="spacing" textLength="146" x="112" y="243.1436">asks to select an agency</text><polygon fill="#181818" points="476,272.4219,486,276.4219,476,280.4219,480,276.4219" style="stroke:#181818;stroke-width:1.0;"/><line style="stroke:#181818;stroke-width:1.0;" x1="84" x2="482" y1="276.4219" y2="276.4219"/><text fill="#000000" font-family="sans-serif" font-size="13" font-weight="bold" lengthAdjust="spacing" textLength="7" x="91" y="271.667">5</text><text fill="#000000" font-family="sans-serif" font-size="13" lengthAdjust="spacing" textLength="67" x="102" y="271.667">selects one</text><polygon fill="#181818" points="95,300.9453,85,304.9453,95,308.9453,91,304.9453" style="stroke:#181818;stroke-width:1.0;"/><line style="stroke:#181818;stroke-width:1.0;stroke-dasharray:2.0,2.0;" x1="89" x2="492" y1="304.9453" y2="304.9453"/><text fill="#000000" font-family="sans-serif" font-size="13" font-weight="bold" lengthAdjust="spacing" textLength="7" x="101" y="300.1904">6</text><text fill="#000000" font-family="sans-serif" font-size="13" lengthAdjust="spacing" textLength="196" x="112" y="300.1904">asks to select a type of employee</text><polygon fill="#181818" points="476,329.4688,486,333.4688,476,337.4688,480,333.4688" style="stroke:#181818;stroke-width:1.0;"/><line style="stroke:#181818;stroke-width:1.0;" x1="84" x2="482" y1="333.4688" y2="333.4688"/><text fill="#000000" font-family="sans-serif" font-size="13" font-weight="bold" lengthAdjust="spacing" textLength="7" x="91" y="328.7139">7</text><text fill="#000000" font-family="sans-serif" font-size="13" lengthAdjust="spacing" textLength="67" x="102" y="328.7139">selects one</text><polygon fill="#181818" points="95,357.9922,85,361.9922,95,365.9922,91,361.9922" style="stroke:#181818;stroke-width:1.0;"/><line style="stroke:#181818;stroke-width:1.0;stroke-dasharray:2.0,2.0;" x1="89" x2="492" y1="361.9922" y2="361.9922"/><text fill="#000000" font-family="sans-serif" font-size="13" font-weight="bold" lengthAdjust="spacing" textLength="7" x="101" y="357.2373">8</text><text fill="#000000" font-family="sans-serif" font-size="13" lengthAdjust="spacing" textLength="319" x="112" y="357.2373">displays the given information and asks for confirmation</text><polygon fill="#181818" points="476,386.5156,486,390.5156,476,394.5156,480,390.5156" style="stroke:#181818;stroke-width:1.0;"/><line style="stroke:#181818;stroke-width:1.0;" x1="84" x2="482" y1="390.5156" y2="390.5156"/><text fill="#000000" font-family="sans-serif" font-size="13" font-weight="bold" lengthAdjust="spacing" textLength="7" x="91" y="385.7607">9</text><text fill="#000000" font-family="sans-serif" font-size="13" lengthAdjust="spacing" textLength="99" x="102" y="385.7607">gives confimation</text><polygon fill="#181818" points="95,415.0391,85,419.0391,95,423.0391,91,419.0391" style="stroke:#181818;stroke-width:1.0;"/><line style="stroke:#181818;stroke-width:1.0;stroke-dasharray:2.0,2.0;" x1="89" x2="492" y1="419.0391" y2="419.0391"/><text fill="#000000" font-family="sans-serif" font-size="13" font-weight="bold" lengthAdjust="spacing" textLength="14" x="101" y="414.2842">10</text><text fill="#000000" font-family="sans-serif" font-size="13" lengthAdjust="spacing" textLength="158" x="119" y="414.2842">displays operation success</text><!--SRC=[hPDDRzim38Rl_XKlSbaB97yWXm43Uj_1rrrOYN64s9GdqktSNr_M7y4Ih06MJIU97mzVKfAUalHKg4EN9OTZoHt3oi2LdZqzXHCrNDlOCWe78sdQtmFqI36_9cbme5QvgYoPXzQZ6dUe-UV04XXFYPgFy8UwVdh43jzQuo9awONnNJoD1iioTCzSV1yi5sncnXS5nIv9KYlazWteobAv4aiXzII6pNvEcyBcxGHCBsHybLV1ruK9kw-hzBq3JWhBtdRZVYuW2B-2kxxD8_ESlPBNKbZMGjavyBB2tda-53L59ACf8V8VEPzBix5dNK4S9n8UX3hU8YHBRom-jq0bOXxg5aQ_pliVGZ4MLjrwDvHQB4UGH1Ytt1-py1B-U7UZwm3LYS4S3dzA4iRxUfuf2bTsBlwfgh-HDKqJ-N1vi_zDumsHjtN6f7rBesizCXh_AO8aXrmw_pPPfhkQMd4JGfP3MZpto_yeeZFh2lNFFUIUownRXn3yhTrI-Gu0]--></g></svg>