<?xml version="1.0" encoding="us-ascii" standalone="no"?><svg xmlns="http://www.w3.org/2000/svg" xmlns:xlink="http://www.w3.org/1999/xlink" contentStyleType="text/css" height="647px" preserveAspectRatio="none" style="width:441px;height:647px;background:#FFFFFF;" version="1.1" viewBox="0 0 441 647" width="441px" zoomAndPan="magnify"><defs/><g><text fill="#000000" font-family="sans-serif" font-size="14" font-weight="bold" lengthAdjust="spacing" textLength="100" x="163.68" y="22.6738">Domain Model</text><!--class VisitRequest--><g id="elem_VisitRequest"><rect codeLine="16" fill="#F1F1F1" height="64.9219" id="VisitRequest" rx="2.5" ry="2.5" style="stroke:#181818;stroke-width:0.5;" width="85" x="202.86" y="184.6406"/><text fill="#000000" font-family="sans-serif" font-size="14" lengthAdjust="spacing" textLength="79" x="205.86" y="202.3145">VisitRequest</text><line style="stroke:#181818;stroke-width:0.5;" x1="203.86" x2="286.86" y1="210.2813" y2="210.2813"/><text fill="#000000" font-family="sans-serif" font-size="14" lengthAdjust="spacing" textLength="54" x="208.86" y="226.9551">visitStart</text><text fill="#000000" font-family="sans-serif" font-size="14" lengthAdjust="spacing" textLength="49" x="208.86" y="242.5957">visitEnd</text></g><!--class Client--><g id="elem_Client"><rect codeLine="21" fill="#F1F1F1" height="33.6406" id="Client" rx="2.5" ry="2.5" style="stroke:#181818;stroke-width:0.5;" width="42" x="52.36" y="43.6406"/><text fill="#000000" font-family="sans-serif" font-size="14" lengthAdjust="spacing" textLength="36" x="55.36" y="61.3145">Client</text><line style="stroke:#181818;stroke-width:0.5;" x1="53.36" x2="93.36" y1="69.2813" y2="69.2813"/></g><!--class Agent--><g id="elem_Agent"><rect codeLine="25" fill="#F1F1F1" height="33.6406" id="Agent" rx="2.5" ry="2.5" style="stroke:#181818;stroke-width:0.5;" width="43" x="264.86" y="43.6406"/><text fill="#000000" font-family="sans-serif" font-size="14" lengthAdjust="spacing" textLength="37" x="267.86" y="61.3145">Agent</text><line style="stroke:#181818;stroke-width:0.5;" x1="265.86" x2="306.86" y1="69.2813" y2="69.2813"/></g><!--class User--><g id="elem_User"><rect codeLine="29" fill="#F1F1F1" height="127.4844" id="User" rx="2.5" ry="2.5" style="stroke:#181818;stroke-width:0.5;" width="115" x="12.86" y="153.6406"/><text fill="#000000" font-family="sans-serif" font-size="14" lengthAdjust="spacing" textLength="29" x="55.86" y="171.3145">User</text><line style="stroke:#181818;stroke-width:0.5;" x1="13.86" x2="126.86" y1="179.2813" y2="179.2813"/><text fill="#000000" font-family="sans-serif" font-size="14" lengthAdjust="spacing" textLength="35" x="18.86" y="195.9551">name</text><text fill="#000000" font-family="sans-serif" font-size="14" lengthAdjust="spacing" textLength="33" x="18.86" y="211.5957">email</text><text fill="#000000" font-family="sans-serif" font-size="14" lengthAdjust="spacing" textLength="92" x="18.86" y="227.2363">phone number</text><text fill="#000000" font-family="sans-serif" font-size="14" lengthAdjust="spacing" textLength="66" x="18.86" y="242.877">taxnumber</text><text fill="#000000" font-family="sans-serif" font-size="14" lengthAdjust="spacing" textLength="103" x="18.86" y="258.5176">passportnumber</text><text fill="#000000" font-family="sans-serif" font-size="14" lengthAdjust="spacing" textLength="43" x="18.86" y="274.1582">adress</text></g><!--class PropertySale--><g id="elem_PropertySale"><rect codeLine="39" fill="#F1F1F1" height="96.2031" id="PropertySale" rx="2.5" ry="2.5" style="stroke:#181818;stroke-width:0.5;" width="129" x="247.86" y="356.6406"/><text fill="#000000" font-family="sans-serif" font-size="14" lengthAdjust="spacing" textLength="82" x="271.36" y="374.3145">PropertySale</text><line style="stroke:#181818;stroke-width:0.5;" x1="248.86" x2="375.86" y1="382.2813" y2="382.2813"/><text fill="#000000" font-family="sans-serif" font-size="14" lengthAdjust="spacing" textLength="91" x="253.86" y="398.9551">requeste price</text><text fill="#000000" font-family="sans-serif" font-size="14" lengthAdjust="spacing" textLength="31" x="253.86" y="414.5957">price</text><text fill="#000000" font-family="sans-serif" font-size="14" lengthAdjust="spacing" textLength="117" x="253.86" y="430.2363">Type of Comission</text><text fill="#000000" font-family="sans-serif" font-size="14" lengthAdjust="spacing" textLength="76" x="253.86" y="445.877">Commission</text></g><!--class Property--><g id="elem_Property"><rect codeLine="46" fill="#F1F1F1" height="111.8438" id="Property" rx="2.5" ry="2.5" style="stroke:#181818;stroke-width:0.5;" width="190" x="217.36" y="528.6406"/><text fill="#000000" font-family="sans-serif" font-size="14" lengthAdjust="spacing" textLength="54" x="285.36" y="546.3145">Property</text><line style="stroke:#181818;stroke-width:0.5;" x1="218.36" x2="406.36" y1="554.2813" y2="554.2813"/><text fill="#000000" font-family="sans-serif" font-size="14" lengthAdjust="spacing" textLength="29" x="223.36" y="570.9551">area</text><text fill="#000000" font-family="sans-serif" font-size="14" lengthAdjust="spacing" textLength="43" x="223.36" y="586.5957">adress</text><text fill="#000000" font-family="sans-serif" font-size="14" lengthAdjust="spacing" textLength="51" x="223.36" y="602.2363">zipCode</text><text fill="#000000" font-family="sans-serif" font-size="14" lengthAdjust="spacing" textLength="178" x="223.36" y="617.877">distance from the city center</text><text fill="#000000" font-family="sans-serif" font-size="14" lengthAdjust="spacing" textLength="80" x="223.36" y="633.5176">photographs</text></g><g id="elem_GMN8"><path d="M22.86,550.6406 L22.86,618.7344 A0,0 0 0 0 22.86,618.7344 L181.86,618.7344 A0,0 0 0 0 181.86,618.7344 L181.86,588.6406 L217.34,584.6406 L181.86,580.6406 L181.86,560.6406 L171.86,550.6406 L22.86,550.6406 A0,0 0 0 0 22.86,550.6406 " fill="#FAFAFA" style="stroke:#181818;stroke-width:0.5;"/><path d="M171.86,550.6406 L171.86,560.6406 L181.86,560.6406 L171.86,550.6406 " fill="#FAFAFA" style="stroke:#181818;stroke-width:0.5;"/><text fill="#000000" font-family="sans-serif" font-size="13" lengthAdjust="spacing" textLength="108" x="28.86" y="567.4092">hiden for simplicity</text><text fill="#000000" font-family="sans-serif" font-size="13" lengthAdjust="spacing" textLength="138" x="28.86" y="581.9326">check US002 or Project</text><text fill="#000000" font-family="sans-serif" font-size="13" lengthAdjust="spacing" textLength="134" x="28.86" y="596.4561">Domain model for more</text><text fill="#000000" font-family="sans-serif" font-size="13" lengthAdjust="spacing" textLength="42" x="28.86" y="610.9795">details.</text></g><g id="elem_GMN11"><path d="M53.86,370.6406 L53.86,438.7344 A0,0 0 0 0 53.86,438.7344 L212.86,438.7344 A0,0 0 0 0 212.86,438.7344 L212.86,408.6406 L247.59,404.6406 L212.86,400.6406 L212.86,380.6406 L202.86,370.6406 L53.86,370.6406 A0,0 0 0 0 53.86,370.6406 " fill="#FAFAFA" style="stroke:#181818;stroke-width:0.5;"/><path d="M202.86,370.6406 L202.86,380.6406 L212.86,380.6406 L202.86,370.6406 " fill="#FAFAFA" style="stroke:#181818;stroke-width:0.5;"/><text fill="#000000" font-family="sans-serif" font-size="13" lengthAdjust="spacing" textLength="108" x="59.86" y="387.4092">hiden for simplicity</text><text fill="#000000" font-family="sans-serif" font-size="13" lengthAdjust="spacing" textLength="138" x="59.86" y="401.9326">check US002 or Project</text><text fill="#000000" font-family="sans-serif" font-size="13" lengthAdjust="spacing" textLength="134" x="59.86" y="416.4561">Domain model for more</text><text fill="#000000" font-family="sans-serif" font-size="13" lengthAdjust="spacing" textLength="42" x="59.86" y="430.9795">details.</text></g><!--link Client to User--><g id="link_Client_User"><path codeLine="69" d="M52.16,76.1006 C42.33,84.1106 31.67,95.0106 26.36,107.6406 C22.81,116.0806 21.87,124.9106 22.74,133.7406 " fill="none" id="Client-to-User" style="stroke:#181818;stroke-width:1.0;"/><polygon fill="none" points="29.62,132.4106,27.42,153.4906,16,135.6406,29.62,132.4106" style="stroke:#181818;stroke-width:1.0;"/><text fill="#000000" font-family="sans-serif" font-size="13" lengthAdjust="spacing" textLength="46" x="27.36" y="120.4092">extends</text></g><!--link Agent to User--><g id="link_Agent_User"><path codeLine="70" d="M264.65,74.9006 C250.21,83.8706 230.93,96.1306 214.36,107.6406 C191.2,123.7306 166.51,141.9306 144.23,158.7606 " fill="none" id="Agent-to-User" style="stroke:#181818;stroke-width:1.0;"/><polygon fill="none" points="148.27,164.4906,128.11,171.0206,139.79,153.3406,148.27,164.4906" style="stroke:#181818;stroke-width:1.0;"/><text fill="#000000" font-family="sans-serif" font-size="13" lengthAdjust="spacing" textLength="46" x="215.36" y="120.4092">extends</text></g><!--link PropertySale to Property--><g id="link_PropertySale_Property"><path codeLine="71" d="M312.36,452.8706 C312.36,474.5106 312.36,500.4106 312.36,523.4306 " fill="none" id="PropertySale-to-Property" style="stroke:#181818;stroke-width:1.0;"/><polygon fill="#181818" points="312.36,528.6106,316.36,519.6106,312.36,523.6106,308.36,519.6106,312.36,528.6106" style="stroke:#181818;stroke-width:1.0;"/><text fill="#000000" font-family="sans-serif" font-size="13" lengthAdjust="spacing" textLength="47" x="313.36" y="495.4092">refers to</text><text fill="#000000" font-family="sans-serif" font-size="13" lengthAdjust="spacing" textLength="7" x="304.8897" y="517.9552">1</text></g><!--link Agent to PropertySale--><g id="link_Agent_PropertySale"><path codeLine="72" d="M306.97,77.7706 C315.54,85.7506 324.59,96.1306 329.36,107.6406 C366.66,197.6006 351.02,230.3706 336.36,326.6406 C335.12,334.7806 333.19,343.2406 330.94,351.4506 " fill="none" id="Agent-to-PropertySale" style="stroke:#181818;stroke-width:1.0;"/><polygon fill="#181818" points="329.5,356.5206,335.8127,348.9608,330.8698,351.7119,328.1187,346.7691,329.5,356.5206" style="stroke:#181818;stroke-width:1.0;"/><text fill="#000000" font-family="sans-serif" font-size="13" lengthAdjust="spacing" textLength="80" x="353.36" y="221.9092">is responsible</text><text fill="#000000" font-family="sans-serif" font-size="13" lengthAdjust="spacing" textLength="7" x="324.5886" y="345.8735">1</text></g><!--link VisitRequest to PropertySale--><g id="link_VisitRequest_PropertySale"><path codeLine="73" d="M256.31,250.0206 C263.8,271.6706 274.02,300.9406 283.36,326.6406 C286.27,334.6506 289.4,343.1006 292.48,351.3606 " fill="none" id="VisitRequest-to-PropertySale" style="stroke:#181818;stroke-width:1.0;"/><polygon fill="#181818" points="294.4,356.4706,294.9852,346.6392,292.6444,351.789,287.4946,349.4482,294.4,356.4706" style="stroke:#181818;stroke-width:1.0;"/><text fill="#000000" font-family="sans-serif" font-size="13" lengthAdjust="spacing" textLength="47" x="284.36" y="323.4092">refers to</text><text fill="#000000" font-family="sans-serif" font-size="13" lengthAdjust="spacing" textLength="7" x="284.1139" y="345.8158">1</text></g><!--link Client to VisitRequest--><g id="link_Client_VisitRequest"><path codeLine="75" d="M81.84,77.8506 C89.28,91.1006 100.97,109.8406 114.36,123.6406 C139.1,149.1406 171.73,172.2106 198.23,188.9306 " fill="none" id="Client-to-VisitRequest" style="stroke:#181818;stroke-width:1.0;"/><polygon fill="#181818" points="202.77,191.7606,197.258,183.5986,198.53,189.1106,193.018,190.3826,202.77,191.7606" style="stroke:#181818;stroke-width:1.0;"/><text fill="#000000" font-family="sans-serif" font-size="13" lengthAdjust="spacing" textLength="39" x="115.36" y="120.4092">makes</text></g><!--link Agent to VisitRequest--><g id="link_Agent_VisitRequest"><path codeLine="76" d="M282.05,77.8806 C275.71,101.7806 263.69,147.0806 255.14,179.3006 " fill="none" id="Agent-to-VisitRequest" style="stroke:#181818;stroke-width:1.0;"/><polygon fill="#181818" points="253.79,184.3606,259.9655,176.6884,255.073,179.528,252.2333,174.6356,253.79,184.3606" style="stroke:#181818;stroke-width:1.0;"/><text fill="#000000" font-family="sans-serif" font-size="13" lengthAdjust="spacing" textLength="47" x="273.36" y="120.4092">refers to</text></g><!--SRC=[lLCzSzim3DtnAt1PCZbsEthmNSxjq25tkRhfJfEGX5hyA0ctSTpyzuAo7TbfibQ33k837XxneEjE99NvT9fw4sJh-niR_RJGpoq5InF7fit60vGDXsGqH1z3j5sEdb3obiwGPEp6jBIINK-OoOe9RN-UK3hZucyEBJQcBmHmtLCZA14pjvsWurh5CPptixqfvLOaytehzCN6iE8dmXb0nuxGShRQP8WzIHTT0H0MbV0fUiC1xwAZ7c3WmUzSMBxMwnNPmw_wjHAJvH1-3WwUJwdBdYa8xc4ykcrVdpmKodeGZ2SWRTT3wc8W35k_fWnY7ezHqkmKinm_ZSjKIkKv4jtdc2ZBRcLK-HxoGI9Xocm93kzlkqGO6rn6pwNKEMbq2fzVCocBoMHEhPuuBNKIuBYeCPQmKGzHkZf2JRPwiogpYnBLyjGDua9K2OD9slQ56L2VEl60JSnOsAUUAyi0s8xi1XzMizb7L5IBVgYh0tHqn5T7Xb8VCms88z7XbHkWuB1sXVUQrm7z7m771PXC_YmEFi-H7aNn0eT5U0kvy74oMLnzk1eTcUjlqL0kkl8l51SPGzKSkMYYhaielDRRdY_jEnKZxoXxSR7jckJDXaRj_y0Znry0]--></g></svg>