<?xml version="1.0" encoding="us-ascii" standalone="no"?><svg xmlns="http://www.w3.org/2000/svg" xmlns:xlink="http://www.w3.org/1999/xlink" contentStyleType="text/css" height="1390px" preserveAspectRatio="none" style="width:1531px;height:1390px;background:#FFFFFF;" version="1.1" viewBox="0 0 1531 1390" width="1531px" zoomAndPan="magnify"><defs/><g><rect fill="#FFFFFF" height="1202.1016" style="stroke:#181818;stroke-width:1.0;" width="10" x="69.5" y="90.6406"/><rect fill="#FFFFFF" height="83.6875" style="stroke:#181818;stroke-width:1.0;" width="10" x="431.5" y="111.1641"/><rect fill="#FFFFFF" height="415.8516" style="stroke:#181818;stroke-width:1.0;" width="10" x="431.5" y="223.375"/><rect fill="#FFFFFF" height="28.5234" style="stroke:#181818;stroke-width:1.0;" width="10" x="431.5" y="667.75"/><rect fill="#FFFFFF" height="28.5234" style="stroke:#181818;stroke-width:1.0;" width="10" x="431.5" y="724.7969"/><rect fill="#FFFFFF" height="510.8984" style="stroke:#181818;stroke-width:1.0;" width="10" x="431.5" y="781.8438"/><rect fill="#FFFFFF" height="344.2813" style="stroke:#181818;stroke-width:1.0;" width="10" x="783.5" y="251.8984"/><rect fill="#FFFFFF" height="462.3281" style="stroke:#181818;stroke-width:1.0;" width="10" x="788.5" y="839.4141"/><rect fill="#FFFFFF" height="424.8047" style="stroke:#181818;stroke-width:1.0;" width="10" x="788.5" y="839.4141"/><rect fill="#FFFFFF" height="28.5234" style="stroke:#181818;stroke-width:1.0;" width="10" x="939.5" y="280.4219"/><rect fill="#FFFFFF" height="28.5234" style="stroke:#181818;stroke-width:1.0;" width="10" x="939.5" y="867.9375"/><rect fill="#FFFFFF" height="28.5234" style="stroke:#181818;stroke-width:1.0;" width="10" x="1046.5" y="337.4688"/><rect fill="#FFFFFF" height="28.5234" style="stroke:#181818;stroke-width:1.0;" width="10" x="1046.5" y="924.9844"/><rect fill="#FFFFFF" height="173.1406" style="stroke:#181818;stroke-width:1.0;" width="10" x="1178" y="394.5156"/><rect fill="#FFFFFF" height="228.6641" style="stroke:#181818;stroke-width:1.0;" width="10" x="1178" y="982.0313"/><rect fill="#FFFFFF" height="28.5234" style="stroke:#181818;stroke-width:1.0;" width="10" x="1327" y="446.5625"/><rect fill="#FFFFFF" height="28.5234" style="stroke:#181818;stroke-width:1.0;" width="10" x="1327" y="1111.125"/><rect fill="#FFFFFF" height="28.5234" style="stroke:#181818;stroke-width:1.0;" width="10" x="1394.5" y="503.6094"/><rect fill="none" height="130.6172" style="stroke:#000000;stroke-width:1.5;" width="335.5" x="1100" y="409.5156"/><rect fill="none" height="161.1406" style="stroke:#000000;stroke-width:1.5;" width="435" x="1090" y="1022.0313"/><rect fill="none" height="102.0938" style="stroke:#000000;stroke-width:1.5;" width="335.5" x="1100" y="1074.0781"/><line style="stroke:#181818;stroke-width:0.5;stroke-dasharray:5.0,5.0;" x1="74" x2="74" y1="80.6406" y2="1310.7422"/><line style="stroke:#181818;stroke-width:0.5;stroke-dasharray:5.0,5.0;" x1="436" x2="436" y1="80.6406" y2="1310.7422"/><line style="stroke:#181818;stroke-width:0.5;stroke-dasharray:5.0,5.0;" x1="788" x2="788" y1="149.4844" y2="1310.7422"/><line style="stroke:#181818;stroke-width:0.5;stroke-dasharray:5.0,5.0;" x1="944" x2="944" y1="80.6406" y2="1310.7422"/><line style="stroke:#181818;stroke-width:0.5;stroke-dasharray:5.0,5.0;" x1="1051" x2="1051" y1="80.6406" y2="1310.7422"/><line style="stroke:#181818;stroke-width:0.5;stroke-dasharray:5.0,5.0;" x1="1183" x2="1183" y1="80.6406" y2="1310.7422"/><line style="stroke:#181818;stroke-width:0.5;stroke-dasharray:5.0,5.0;" x1="1331.5" x2="1331.5" y1="80.6406" y2="1310.7422"/><line style="stroke:#181818;stroke-width:0.5;stroke-dasharray:5.0,5.0;" x1="1399.5" x2="1399.5" y1="80.6406" y2="1310.7422"/><text fill="#000000" font-family="sans-serif" font-size="14" lengthAdjust="spacing" textLength="133" x="5" y="77.6738">System Administrator</text><ellipse cx="74.5" cy="13.5" fill="#E3E3E3" rx="8" ry="8" style="stroke:#181818;stroke-width:0.5;"/><path d="M74.5,21.5 L74.5,48.5 M61.5,29.5 L87.5,29.5 M74.5,48.5 L61.5,63.5 M74.5,48.5 L87.5,63.5 " fill="none" style="stroke:#181818;stroke-width:0.5;"/><text fill="#000000" font-family="sans-serif" font-size="14" lengthAdjust="spacing" textLength="133" x="5" y="1322.416">System Administrator</text><ellipse cx="74.5" cy="1333.8828" fill="#E3E3E3" rx="8" ry="8" style="stroke:#181818;stroke-width:0.5;"/><path d="M74.5,1341.8828 L74.5,1368.8828 M61.5,1349.8828 L87.5,1349.8828 M74.5,1368.8828 L61.5,1383.8828 M74.5,1368.8828 L87.5,1383.8828 " fill="none" style="stroke:#181818;stroke-width:0.5;"/><rect fill="#E3E3E3" height="29.6406" rx="2.5" ry="2.5" style="stroke:#181818;stroke-width:0.5;" width="145" x="364" y="50"/><text fill="#000000" font-family="sans-serif" font-size="14" lengthAdjust="spacing" textLength="131" x="371" y="69.6738">:RegisterEmployeeUI</text><rect fill="#E3E3E3" height="29.6406" rx="2.5" ry="2.5" style="stroke:#181818;stroke-width:0.5;" width="145" x="364" y="1309.7422"/><text fill="#000000" font-family="sans-serif" font-size="14" lengthAdjust="spacing" textLength="131" x="371" y="1329.416">:RegisterEmployeeUI</text><rect fill="#E3E3E3" height="29.6406" rx="2.5" ry="2.5" style="stroke:#181818;stroke-width:0.5;" width="195" x="691" y="1309.7422"/><text fill="#000000" font-family="sans-serif" font-size="14" lengthAdjust="spacing" textLength="181" x="698" y="1329.416">:RegisterEmployeeController</text><rect fill="#E3E3E3" height="29.6406" rx="2.5" ry="2.5" style="stroke:#181818;stroke-width:0.5;" width="97" x="896" y="50"/><text fill="#000000" font-family="sans-serif" font-size="14" lengthAdjust="spacing" textLength="83" x="903" y="69.6738">:Repositories</text><rect fill="#E3E3E3" height="29.6406" rx="2.5" ry="2.5" style="stroke:#181818;stroke-width:0.5;" width="97" x="896" y="1309.7422"/><text fill="#000000" font-family="sans-serif" font-size="14" lengthAdjust="spacing" textLength="83" x="903" y="1329.416">:Repositories</text><rect fill="#E3E3E3" height="45.2813" rx="2.5" ry="2.5" style="stroke:#181818;stroke-width:0.5;" width="97" x="1003" y="34.3594"/><text fill="#000000" font-family="sans-serif" font-size="14" lengthAdjust="spacing" textLength="74" x="1014.5" y="54.0332">repositories</text><text fill="#000000" font-family="sans-serif" font-size="14" lengthAdjust="spacing" textLength="83" x="1010" y="69.6738">:Repositories</text><rect fill="#E3E3E3" height="45.2813" rx="2.5" ry="2.5" style="stroke:#181818;stroke-width:0.5;" width="97" x="1003" y="1309.7422"/><text fill="#000000" font-family="sans-serif" font-size="14" lengthAdjust="spacing" textLength="74" x="1014.5" y="1329.416">repositories</text><text fill="#000000" font-family="sans-serif" font-size="14" lengthAdjust="spacing" textLength="83" x="1010" y="1345.0566">:Repositories</text><rect fill="#E3E3E3" height="45.2813" rx="2.5" ry="2.5" style="stroke:#181818;stroke-width:0.5;" width="146" x="1110" y="34.3594"/><text fill="#000000" font-family="sans-serif" font-size="14" lengthAdjust="spacing" textLength="132" x="1117" y="54.0332">BranchesRepository:</text><text fill="#000000" font-family="sans-serif" font-size="14" lengthAdjust="spacing" textLength="128" x="1119" y="69.6738">BranchesRepository</text><rect fill="#E3E3E3" height="45.2813" rx="2.5" ry="2.5" style="stroke:#181818;stroke-width:0.5;" width="146" x="1110" y="1309.7422"/><text fill="#000000" font-family="sans-serif" font-size="14" lengthAdjust="spacing" textLength="132" x="1117" y="1329.416">BranchesRepository:</text><text fill="#000000" font-family="sans-serif" font-size="14" lengthAdjust="spacing" textLength="128" x="1119" y="1345.0566">BranchesRepository</text><rect fill="#E3E3E3" height="45.2813" rx="2.5" ry="2.5" style="stroke:#181818;stroke-width:0.5;" width="63" x="1300.5" y="34.3594"/><text fill="#000000" font-family="sans-serif" font-size="14" lengthAdjust="spacing" textLength="49" x="1307.5" y="54.0332">Branch:</text><text fill="#000000" font-family="sans-serif" font-size="14" lengthAdjust="spacing" textLength="45" x="1309.5" y="69.6738">Branch</text><rect fill="#E3E3E3" height="45.2813" rx="2.5" ry="2.5" style="stroke:#181818;stroke-width:0.5;" width="63" x="1300.5" y="1309.7422"/><text fill="#000000" font-family="sans-serif" font-size="14" lengthAdjust="spacing" textLength="49" x="1307.5" y="1329.416">Branch:</text><text fill="#000000" font-family="sans-serif" font-size="14" lengthAdjust="spacing" textLength="45" x="1309.5" y="1345.0566">Branch</text><rect fill="#E3E3E3" height="45.2813" rx="2.5" ry="2.5" style="stroke:#181818;stroke-width:0.5;" width="52" x="1373.5" y="34.3594"/><text fill="#000000" font-family="sans-serif" font-size="14" lengthAdjust="spacing" textLength="38" x="1380.5" y="54.0332">Store:</text><text fill="#000000" font-family="sans-serif" font-size="14" lengthAdjust="spacing" textLength="34" x="1382.5" y="69.6738">Store</text><rect fill="#E3E3E3" height="45.2813" rx="2.5" ry="2.5" style="stroke:#181818;stroke-width:0.5;" width="52" x="1373.5" y="1309.7422"/><text fill="#000000" font-family="sans-serif" font-size="14" lengthAdjust="spacing" textLength="38" x="1380.5" y="1329.416">Store:</text><text fill="#000000" font-family="sans-serif" font-size="14" lengthAdjust="spacing" textLength="34" x="1382.5" y="1345.0566">Store</text><rect fill="#FFFFFF" height="1202.1016" style="stroke:#181818;stroke-width:1.0;" width="10" x="69.5" y="90.6406"/><rect fill="#FFFFFF" height="83.6875" style="stroke:#181818;stroke-width:1.0;" width="10" x="431.5" y="111.1641"/><rect fill="#FFFFFF" height="415.8516" style="stroke:#181818;stroke-width:1.0;" width="10" x="431.5" y="223.375"/><rect fill="#FFFFFF" height="28.5234" style="stroke:#181818;stroke-width:1.0;" width="10" x="431.5" y="667.75"/><rect fill="#FFFFFF" height="28.5234" style="stroke:#181818;stroke-width:1.0;" width="10" x="431.5" y="724.7969"/><rect fill="#FFFFFF" height="510.8984" style="stroke:#181818;stroke-width:1.0;" width="10" x="431.5" y="781.8438"/><rect fill="#FFFFFF" height="344.2813" style="stroke:#181818;stroke-width:1.0;" width="10" x="783.5" y="251.8984"/><rect fill="#FFFFFF" height="462.3281" style="stroke:#181818;stroke-width:1.0;" width="10" x="788.5" y="839.4141"/><rect fill="#FFFFFF" height="424.8047" style="stroke:#181818;stroke-width:1.0;" width="10" x="788.5" y="839.4141"/><rect fill="#FFFFFF" height="28.5234" style="stroke:#181818;stroke-width:1.0;" width="10" x="939.5" y="280.4219"/><rect fill="#FFFFFF" height="28.5234" style="stroke:#181818;stroke-width:1.0;" width="10" x="939.5" y="867.9375"/><rect fill="#FFFFFF" height="28.5234" style="stroke:#181818;stroke-width:1.0;" width="10" x="1046.5" y="337.4688"/><rect fill="#FFFFFF" height="28.5234" style="stroke:#181818;stroke-width:1.0;" width="10" x="1046.5" y="924.9844"/><rect fill="#FFFFFF" height="173.1406" style="stroke:#181818;stroke-width:1.0;" width="10" x="1178" y="394.5156"/><rect fill="#FFFFFF" height="228.6641" style="stroke:#181818;stroke-width:1.0;" width="10" x="1178" y="982.0313"/><rect fill="#FFFFFF" height="28.5234" style="stroke:#181818;stroke-width:1.0;" width="10" x="1327" y="446.5625"/><rect fill="#FFFFFF" height="28.5234" style="stroke:#181818;stroke-width:1.0;" width="10" x="1327" y="1111.125"/><rect fill="#FFFFFF" height="28.5234" style="stroke:#181818;stroke-width:1.0;" width="10" x="1394.5" y="503.6094"/><polygon fill="#181818" points="419.5,107.1641,429.5,111.1641,419.5,115.1641,423.5,111.1641" style="stroke:#181818;stroke-width:1.0;"/><line style="stroke:#181818;stroke-width:1.0;" x1="79.5" x2="425.5" y1="111.1641" y2="111.1641"/><text fill="#000000" font-family="sans-serif" font-size="13" font-weight="bold" lengthAdjust="spacing" textLength="7" x="86.5" y="106.4092">1</text><text fill="#000000" font-family="sans-serif" font-size="13" lengthAdjust="spacing" textLength="188" x="97.5" y="106.4092">select to create a new employee</text><polygon fill="#181818" points="679,135.6875,689,139.6875,679,143.6875,683,139.6875" style="stroke:#181818;stroke-width:1.0;"/><line style="stroke:#181818;stroke-width:1.0;" x1="441.5" x2="685" y1="139.6875" y2="139.6875"/><text fill="#000000" font-family="sans-serif" font-size="13" font-weight="bold" lengthAdjust="spacing" textLength="7" x="448.5" y="134.9326">2</text><text fill="#000000" font-family="sans-serif" font-size="13" lengthAdjust="spacing" textLength="36" x="459.5" y="134.9326">create</text><rect fill="#E3E3E3" height="29.6406" rx="2.5" ry="2.5" style="stroke:#181818;stroke-width:0.5;" width="195" x="691" y="119.1641"/><text fill="#000000" font-family="sans-serif" font-size="14" lengthAdjust="spacing" textLength="181" x="698" y="138.8379">:RegisterEmployeeController</text><polygon fill="#181818" points="90.5,190.8516,80.5,194.8516,90.5,198.8516,86.5,194.8516" style="stroke:#181818;stroke-width:1.0;"/><line style="stroke:#181818;stroke-width:1.0;" x1="84.5" x2="435.5" y1="194.8516" y2="194.8516"/><text fill="#000000" font-family="sans-serif" font-size="13" font-weight="bold" lengthAdjust="spacing" textLength="7" x="96.5" y="182.835">3</text><text fill="#000000" font-family="sans-serif" font-size="13" lengthAdjust="spacing" textLength="313" x="107.5" y="175.5732">requests employee data (name,passport card number,</text><text fill="#000000" font-family="sans-serif" font-size="13" lengthAdjust="spacing" textLength="305" x="107.5" y="190.0967">tax number, adress,email adress, telephone number)</text><polygon fill="#181818" points="419.5,219.375,429.5,223.375,419.5,227.375,423.5,223.375" style="stroke:#181818;stroke-width:1.0;"/><line style="stroke:#181818;stroke-width:1.0;" x1="79.5" x2="425.5" y1="223.375" y2="223.375"/><text fill="#000000" font-family="sans-serif" font-size="13" font-weight="bold" lengthAdjust="spacing" textLength="7" x="86.5" y="218.6201">4</text><text fill="#000000" font-family="sans-serif" font-size="13" lengthAdjust="spacing" textLength="122" x="97.5" y="218.6201">types requested data</text><polygon fill="#181818" points="771.5,247.8984,781.5,251.8984,771.5,255.8984,775.5,251.8984" style="stroke:#181818;stroke-width:1.0;"/><line style="stroke:#181818;stroke-width:1.0;" x1="441.5" x2="777.5" y1="251.8984" y2="251.8984"/><text fill="#000000" font-family="sans-serif" font-size="13" font-weight="bold" lengthAdjust="spacing" textLength="7" x="448.5" y="247.1436">5</text><text fill="#000000" font-family="sans-serif" font-size="13" lengthAdjust="spacing" textLength="133" x="459.5" y="247.1436">getStoresBranchsList()</text><polygon fill="#181818" points="927.5,276.4219,937.5,280.4219,927.5,284.4219,931.5,280.4219" style="stroke:#181818;stroke-width:1.0;"/><line style="stroke:#181818;stroke-width:1.0;" x1="793.5" x2="933.5" y1="280.4219" y2="280.4219"/><text fill="#000000" font-family="sans-serif" font-size="13" font-weight="bold" lengthAdjust="spacing" textLength="7" x="800.5" y="275.667">6</text><text fill="#000000" font-family="sans-serif" font-size="13" lengthAdjust="spacing" textLength="75" x="811.5" y="275.667">getInstance()</text><polygon fill="#181818" points="804.5,304.9453,794.5,308.9453,804.5,312.9453,800.5,308.9453" style="stroke:#181818;stroke-width:1.0;"/><line style="stroke:#181818;stroke-width:1.0;stroke-dasharray:2.0,2.0;" x1="798.5" x2="943.5" y1="308.9453" y2="308.9453"/><text fill="#000000" font-family="sans-serif" font-size="13" font-weight="bold" lengthAdjust="spacing" textLength="7" x="810.5" y="304.1904">7</text><text fill="#000000" font-family="sans-serif" font-size="13" lengthAdjust="spacing" textLength="67" x="821.5" y="304.1904">repositories</text><polygon fill="#181818" points="1034.5,333.4688,1044.5,337.4688,1034.5,341.4688,1038.5,337.4688" style="stroke:#181818;stroke-width:1.0;"/><line style="stroke:#181818;stroke-width:1.0;" x1="793.5" x2="1040.5" y1="337.4688" y2="337.4688"/><text fill="#000000" font-family="sans-serif" font-size="13" font-weight="bold" lengthAdjust="spacing" textLength="7" x="800.5" y="332.7139">8</text><text fill="#000000" font-family="sans-serif" font-size="13" lengthAdjust="spacing" textLength="143" x="811.5" y="332.7139">getBranchesRepository()</text><polygon fill="#181818" points="804.5,361.9922,794.5,365.9922,804.5,369.9922,800.5,365.9922" style="stroke:#181818;stroke-width:1.0;"/><line style="stroke:#181818;stroke-width:1.0;stroke-dasharray:2.0,2.0;" x1="798.5" x2="1050.5" y1="365.9922" y2="365.9922"/><text fill="#000000" font-family="sans-serif" font-size="13" font-weight="bold" lengthAdjust="spacing" textLength="7" x="810.5" y="361.2373">9</text><text fill="#000000" font-family="sans-serif" font-size="13" lengthAdjust="spacing" textLength="117" x="821.5" y="361.2373">BranchesRepository</text><polygon fill="#181818" points="1166,390.5156,1176,394.5156,1166,398.5156,1170,394.5156" style="stroke:#181818;stroke-width:1.0;"/><line style="stroke:#181818;stroke-width:1.0;" x1="793.5" x2="1172" y1="394.5156" y2="394.5156"/><text fill="#000000" font-family="sans-serif" font-size="13" font-weight="bold" lengthAdjust="spacing" textLength="14" x="800.5" y="389.7607">10</text><text fill="#000000" font-family="sans-serif" font-size="13" lengthAdjust="spacing" textLength="126" x="818.5" y="389.7607">getStoresBranchList()</text><path d="M1100,409.5156 L1173,409.5156 L1173,416.0391 L1163,426.0391 L1100,426.0391 L1100,409.5156 " fill="#EEEEEE" style="stroke:#000000;stroke-width:1.5;"/><rect fill="none" height="130.6172" style="stroke:#000000;stroke-width:1.5;" width="335.5" x="1100" y="409.5156"/><text fill="#000000" font-family="sans-serif" font-size="13" font-weight="bold" lengthAdjust="spacing" textLength="28" x="1115" y="422.2842">loop</text><text fill="#000000" font-family="sans-serif" font-size="11" font-weight="bold" lengthAdjust="spacing" textLength="87" x="1188" y="421.4736">[for each brach]</text><polygon fill="#181818" points="1315,442.5625,1325,446.5625,1315,450.5625,1319,446.5625" style="stroke:#181818;stroke-width:1.0;"/><line style="stroke:#181818;stroke-width:1.0;" x1="1188" x2="1321" y1="446.5625" y2="446.5625"/><text fill="#000000" font-family="sans-serif" font-size="13" font-weight="bold" lengthAdjust="spacing" textLength="14" x="1195" y="441.8076">11</text><text fill="#000000" font-family="sans-serif" font-size="13" lengthAdjust="spacing" textLength="65" x="1213" y="441.8076">getbranch()</text><polygon fill="#181818" points="1199,471.0859,1189,475.0859,1199,479.0859,1195,475.0859" style="stroke:#181818;stroke-width:1.0;"/><line style="stroke:#181818;stroke-width:1.0;" x1="1193" x2="1331" y1="475.0859" y2="475.0859"/><text fill="#000000" font-family="sans-serif" font-size="13" font-weight="bold" lengthAdjust="spacing" textLength="14" x="1205" y="470.3311">12</text><text fill="#000000" font-family="sans-serif" font-size="13" lengthAdjust="spacing" textLength="39" x="1223" y="470.3311">storeNetwork</text><polygon fill="#181818" points="1382.5,499.6094,1392.5,503.6094,1382.5,507.6094,1386.5,503.6094" style="stroke:#181818;stroke-width:1.0;"/><line style="stroke:#181818;stroke-width:1.0;" x1="1188" x2="1388.5" y1="503.6094" y2="503.6094"/><text fill="#000000" font-family="sans-serif" font-size="13" font-weight="bold" lengthAdjust="spacing" textLength="14" x="1195" y="498.8545">13</text><text fill="#000000" font-family="sans-serif" font-size="13" lengthAdjust="spacing" textLength="126" x="1213" y="498.8545">getStoresBranchList()</text><polygon fill="#181818" points="1199,528.1328,1189,532.1328,1199,536.1328,1195,532.1328" style="stroke:#181818;stroke-width:1.0;"/><line style="stroke:#181818;stroke-width:1.0;" x1="1193" x2="1398.5" y1="532.1328" y2="532.1328"/><text fill="#000000" font-family="sans-serif" font-size="13" font-weight="bold" lengthAdjust="spacing" textLength="14" x="1205" y="527.3779">14</text><text fill="#000000" font-family="sans-serif" font-size="13" lengthAdjust="spacing" textLength="59" x="1223" y="527.3779">StoresList</text><polygon fill="#181818" points="804.5,563.6563,794.5,567.6563,804.5,571.6563,800.5,567.6563" style="stroke:#181818;stroke-width:1.0;"/><line style="stroke:#181818;stroke-width:1.0;stroke-dasharray:2.0,2.0;" x1="798.5" x2="1182" y1="567.6563" y2="567.6563"/><text fill="#000000" font-family="sans-serif" font-size="13" font-weight="bold" lengthAdjust="spacing" textLength="14" x="810.5" y="562.9014">15</text><text fill="#000000" font-family="sans-serif" font-size="13" lengthAdjust="spacing" textLength="59" x="828.5" y="562.9014">StoresList</text><polygon fill="#181818" points="452.5,592.1797,442.5,596.1797,452.5,600.1797,448.5,596.1797" style="stroke:#181818;stroke-width:1.0;"/><line style="stroke:#181818;stroke-width:1.0;stroke-dasharray:2.0,2.0;" x1="446.5" x2="787.5" y1="596.1797" y2="596.1797"/><text fill="#000000" font-family="sans-serif" font-size="13" font-weight="bold" lengthAdjust="spacing" textLength="14" x="458.5" y="591.4248">16</text><text fill="#000000" font-family="sans-serif" font-size="13" lengthAdjust="spacing" textLength="100" x="476.5" y="591.4248">StoreBranchsList</text><polygon fill="#181818" points="90.5,635.2266,80.5,639.2266,90.5,643.2266,86.5,639.2266" style="stroke:#181818;stroke-width:1.0;"/><line style="stroke:#181818;stroke-width:1.0;stroke-dasharray:2.0,2.0;" x1="84.5" x2="435.5" y1="639.2266" y2="639.2266"/><text fill="#000000" font-family="sans-serif" font-size="13" font-weight="bold" lengthAdjust="spacing" textLength="14" x="96.5" y="627.21">17</text><text fill="#000000" font-family="sans-serif" font-size="13" lengthAdjust="spacing" textLength="202" x="114.5" y="619.9482">shows a list of Branchs and Stores</text><text fill="#000000" font-family="sans-serif" font-size="13" lengthAdjust="spacing" textLength="79" x="114.5" y="634.4717">requests data</text><polygon fill="#181818" points="419.5,663.75,429.5,667.75,419.5,671.75,423.5,667.75" style="stroke:#181818;stroke-width:1.0;"/><line style="stroke:#181818;stroke-width:1.0;" x1="79.5" x2="425.5" y1="667.75" y2="667.75"/><text fill="#000000" font-family="sans-serif" font-size="13" font-weight="bold" lengthAdjust="spacing" textLength="14" x="86.5" y="662.9951">18</text><text fill="#000000" font-family="sans-serif" font-size="13" lengthAdjust="spacing" textLength="162" x="104.5" y="662.9951">selects one(storeNetwork or store)</text><polygon fill="#181818" points="90.5,692.2734,80.5,696.2734,90.5,700.2734,86.5,696.2734" style="stroke:#181818;stroke-width:1.0;"/><line style="stroke:#181818;stroke-width:1.0;stroke-dasharray:2.0,2.0;" x1="84.5" x2="435.5" y1="696.2734" y2="696.2734"/><text fill="#000000" font-family="sans-serif" font-size="13" font-weight="bold" lengthAdjust="spacing" textLength="14" x="96.5" y="691.5186">19</text><text fill="#000000" font-family="sans-serif" font-size="13" lengthAdjust="spacing" textLength="164" x="114.5" y="691.5186">requests a type of employee</text><polygon fill="#181818" points="419.5,720.7969,429.5,724.7969,419.5,728.7969,423.5,724.7969" style="stroke:#181818;stroke-width:1.0;"/><line style="stroke:#181818;stroke-width:1.0;" x1="79.5" x2="425.5" y1="724.7969" y2="724.7969"/><text fill="#000000" font-family="sans-serif" font-size="13" font-weight="bold" lengthAdjust="spacing" textLength="14" x="86.5" y="720.042">20</text><text fill="#000000" font-family="sans-serif" font-size="13" lengthAdjust="spacing" textLength="67" x="104.5" y="720.042">selects one</text><polygon fill="#181818" points="90.5,749.3203,80.5,753.3203,90.5,757.3203,86.5,753.3203" style="stroke:#181818;stroke-width:1.0;"/><line style="stroke:#181818;stroke-width:1.0;stroke-dasharray:2.0,2.0;" x1="84.5" x2="435.5" y1="753.3203" y2="753.3203"/><text fill="#000000" font-family="sans-serif" font-size="13" font-weight="bold" lengthAdjust="spacing" textLength="14" x="96.5" y="748.5654">21</text><text fill="#000000" font-family="sans-serif" font-size="13" lengthAdjust="spacing" textLength="151" x="114.5" y="748.5654">displays data confirmation</text><polygon fill="#181818" points="419.5,777.8438,429.5,781.8438,419.5,785.8438,423.5,781.8438" style="stroke:#181818;stroke-width:1.0;"/><line style="stroke:#181818;stroke-width:1.0;" x1="79.5" x2="425.5" y1="781.8438" y2="781.8438"/><text fill="#000000" font-family="sans-serif" font-size="13" font-weight="bold" lengthAdjust="spacing" textLength="14" x="86.5" y="777.0889">22</text><text fill="#000000" font-family="sans-serif" font-size="13" lengthAdjust="spacing" textLength="103" x="104.5" y="777.0889">gives confirmation</text><polygon fill="#181818" points="776.5,835.4141,786.5,839.4141,776.5,843.4141,780.5,839.4141" style="stroke:#181818;stroke-width:1.0;"/><line style="stroke:#181818;stroke-width:1.0;" x1="441.5" x2="782.5" y1="839.4141" y2="839.4141"/><text fill="#000000" font-family="sans-serif" font-size="13" font-weight="bold" lengthAdjust="spacing" textLength="14" x="448.5" y="820.1357">23</text><text fill="#000000" font-family="sans-serif" font-size="13" lengthAdjust="spacing" textLength="268" x="466.5" y="805.6123">createEmployee(name, passport card number,</text><text fill="#000000" font-family="sans-serif" font-size="13" lengthAdjust="spacing" textLength="305" x="466.5" y="820.1357">tax number, adress,email adress, telephone number,</text><text fill="#000000" font-family="sans-serif" font-size="13" lengthAdjust="spacing" textLength="205" x="466.5" y="834.6592">Branch Or Store, type of employee)</text><polygon fill="#181818" points="927.5,863.9375,937.5,867.9375,927.5,871.9375,931.5,867.9375" style="stroke:#181818;stroke-width:1.0;"/><line style="stroke:#181818;stroke-width:1.0;" x1="798.5" x2="933.5" y1="867.9375" y2="867.9375"/><text fill="#000000" font-family="sans-serif" font-size="13" font-weight="bold" lengthAdjust="spacing" textLength="14" x="805.5" y="863.1826">24</text><text fill="#000000" font-family="sans-serif" font-size="13" lengthAdjust="spacing" textLength="75" x="823.5" y="863.1826">getInstance()</text><polygon fill="#181818" points="809.5,892.4609,799.5,896.4609,809.5,900.4609,805.5,896.4609" style="stroke:#181818;stroke-width:1.0;"/><line style="stroke:#181818;stroke-width:1.0;stroke-dasharray:2.0,2.0;" x1="803.5" x2="943.5" y1="896.4609" y2="896.4609"/><text fill="#000000" font-family="sans-serif" font-size="13" font-weight="bold" lengthAdjust="spacing" textLength="14" x="815.5" y="891.7061">25</text><text fill="#000000" font-family="sans-serif" font-size="13" lengthAdjust="spacing" textLength="67" x="833.5" y="891.7061">repositories</text><polygon fill="#181818" points="1034.5,920.9844,1044.5,924.9844,1034.5,928.9844,1038.5,924.9844" style="stroke:#181818;stroke-width:1.0;"/><line style="stroke:#181818;stroke-width:1.0;" x1="798.5" x2="1040.5" y1="924.9844" y2="924.9844"/><text fill="#000000" font-family="sans-serif" font-size="13" font-weight="bold" lengthAdjust="spacing" textLength="14" x="805.5" y="920.2295">26</text><text fill="#000000" font-family="sans-serif" font-size="13" lengthAdjust="spacing" textLength="143" x="823.5" y="920.2295">getBranchesRepository()</text><polygon fill="#181818" points="809.5,949.5078,799.5,953.5078,809.5,957.5078,805.5,953.5078" style="stroke:#181818;stroke-width:1.0;"/><line style="stroke:#181818;stroke-width:1.0;" x1="803.5" x2="1050.5" y1="953.5078" y2="953.5078"/><text fill="#000000" font-family="sans-serif" font-size="13" font-weight="bold" lengthAdjust="spacing" textLength="14" x="815.5" y="948.7529">27</text><text fill="#000000" font-family="sans-serif" font-size="13" lengthAdjust="spacing" textLength="117" x="833.5" y="948.7529">BranchesRepository</text><polygon fill="#181818" points="1166,978.0313,1176,982.0313,1166,986.0313,1170,982.0313" style="stroke:#181818;stroke-width:1.0;"/><line style="stroke:#181818;stroke-width:1.0;" x1="798.5" x2="1172" y1="982.0313" y2="982.0313"/><text fill="#000000" font-family="sans-serif" font-size="13" font-weight="bold" lengthAdjust="spacing" textLength="14" x="805.5" y="977.2764">28</text><text fill="#000000" font-family="sans-serif" font-size="13" lengthAdjust="spacing" textLength="102" x="823.5" y="977.2764">getBranchesList()</text><path d="M1090,1022.0313 L1151,1022.0313 L1151,1028.5547 L1141,1038.5547 L1090,1038.5547 L1090,1022.0313 " fill="#EEEEEE" style="stroke:#000000;stroke-width:1.5;"/><rect fill="none" height="161.1406" style="stroke:#000000;stroke-width:1.5;" width="435" x="1090" y="1022.0313"/><text fill="#000000" font-family="sans-serif" font-size="13" font-weight="bold" lengthAdjust="spacing" textLength="16" x="1105" y="1034.7998">alt</text><text fill="#000000" font-family="sans-serif" font-size="11" font-weight="bold" lengthAdjust="spacing" textLength="354" x="1166" y="1033.9893">[typeOfEmployee == System Administrator or Network Manager]</text><polygon fill="#181818" points="1320,1055.0781,1330,1059.0781,1320,1063.0781,1324,1059.0781" style="stroke:#181818;stroke-width:1.0;"/><line style="stroke:#181818;stroke-width:1.0;stroke-dasharray:2.0,2.0;" x1="1188" x2="1326" y1="1059.0781" y2="1059.0781"/><text fill="#000000" font-family="sans-serif" font-size="13" font-weight="bold" lengthAdjust="spacing" textLength="14" x="1195" y="1054.3232">29</text><text fill="#000000" font-family="sans-serif" font-size="13" lengthAdjust="spacing" textLength="102" x="1213" y="1054.3232">createEmployee()</text><path d="M1100,1074.0781 L1161,1074.0781 L1161,1080.6016 L1151,1090.6016 L1100,1090.6016 L1100,1074.0781 " fill="#EEEEEE" style="stroke:#000000;stroke-width:1.5;"/><rect fill="none" height="102.0938" style="stroke:#000000;stroke-width:1.5;" width="335.5" x="1100" y="1074.0781"/><text fill="#000000" font-family="sans-serif" font-size="13" font-weight="bold" lengthAdjust="spacing" textLength="16" x="1115" y="1086.8467">alt</text><text fill="#000000" font-family="sans-serif" font-size="11" font-weight="bold" lengthAdjust="spacing" textLength="245" x="1176" y="1086.0361">[typeOfEmployee == StoreManager or Agent]</text><polygon fill="#181818" points="1315,1107.125,1325,1111.125,1315,1115.125,1319,1111.125" style="stroke:#181818;stroke-width:1.0;"/><line style="stroke:#181818;stroke-width:1.0;stroke-dasharray:2.0,2.0;" x1="1188" x2="1321" y1="1111.125" y2="1111.125"/><text fill="#000000" font-family="sans-serif" font-size="13" font-weight="bold" lengthAdjust="spacing" textLength="14" x="1195" y="1106.3701">30</text><text fill="#000000" font-family="sans-serif" font-size="13" lengthAdjust="spacing" textLength="85" x="1213" y="1106.3701">getStoresList()</text><polygon fill="#181818" points="1199,1135.6484,1189,1139.6484,1199,1143.6484,1195,1139.6484" style="stroke:#181818;stroke-width:1.0;"/><line style="stroke:#181818;stroke-width:1.0;stroke-dasharray:2.0,2.0;" x1="1193" x2="1331" y1="1139.6484" y2="1139.6484"/><text fill="#000000" font-family="sans-serif" font-size="13" font-weight="bold" lengthAdjust="spacing" textLength="14" x="1205" y="1134.8936">31</text><text fill="#000000" font-family="sans-serif" font-size="13" lengthAdjust="spacing" textLength="59" x="1223" y="1134.8936">StoresList</text><polygon fill="#181818" points="1387.5,1164.1719,1397.5,1168.1719,1387.5,1172.1719,1391.5,1168.1719" style="stroke:#181818;stroke-width:1.0;"/><line style="stroke:#181818;stroke-width:1.0;stroke-dasharray:2.0,2.0;" x1="1188" x2="1393.5" y1="1168.1719" y2="1168.1719"/><text fill="#000000" font-family="sans-serif" font-size="13" font-weight="bold" lengthAdjust="spacing" textLength="14" x="1195" y="1163.417">32</text><text fill="#000000" font-family="sans-serif" font-size="13" lengthAdjust="spacing" textLength="102" x="1213" y="1163.417">createEmployee()</text><polygon fill="#181818" points="809.5,1206.6953,799.5,1210.6953,809.5,1214.6953,805.5,1210.6953" style="stroke:#181818;stroke-width:1.0;"/><line style="stroke:#181818;stroke-width:1.0;" x1="803.5" x2="1182" y1="1210.6953" y2="1210.6953"/><text fill="#000000" font-family="sans-serif" font-size="13" font-weight="bold" lengthAdjust="spacing" textLength="14" x="815.5" y="1205.9404">33</text><text fill="#000000" font-family="sans-serif" font-size="13" lengthAdjust="spacing" textLength="56" x="833.5" y="1205.9404">employee</text><polygon fill="#181818" points="452.5,1260.2188,442.5,1264.2188,452.5,1268.2188,448.5,1264.2188" style="stroke:#181818;stroke-width:1.0;"/><line style="stroke:#181818;stroke-width:1.0;stroke-dasharray:2.0,2.0;" x1="446.5" x2="782.5" y1="1264.2188" y2="1264.2188"/><text fill="#000000" font-family="sans-serif" font-size="13" font-weight="bold" lengthAdjust="spacing" textLength="14" x="458.5" y="1259.4639">34</text><text fill="#000000" font-family="sans-serif" font-size="13" lengthAdjust="spacing" textLength="56" x="476.5" y="1259.4639">employee</text><polygon fill="#181818" points="85.5,1288.7422,75.5,1292.7422,85.5,1296.7422,81.5,1292.7422" style="stroke:#181818;stroke-width:1.0;"/><line style="stroke:#181818;stroke-width:1.0;stroke-dasharray:2.0,2.0;" x1="79.5" x2="435.5" y1="1292.7422" y2="1292.7422"/><text fill="#000000" font-family="sans-serif" font-size="13" font-weight="bold" lengthAdjust="spacing" textLength="14" x="91.5" y="1287.9873">35</text><text fill="#000000" font-family="sans-serif" font-size="13" lengthAdjust="spacing" textLength="158" x="109.5" y="1287.9873">displays operation success</text><!--SRC=[lLZDJjmm4BxxAKPSW6fv0QHMehG792XLeJSknfdTjKZirFQMhiJ3TsmdsMJjB0bKpMKJnpFppOzdlgnzaghcXbTGQQN5skWAmPaDCjkzgRbuuYkySziImQ1mNAtA_WQxveL-bce5IrvQP8nld5QRwX4DOyThMI0ijNQF-W_Zmca3HtTRwx22YwAIIbfdEAqU0RTmyUM6aL8dXQovSd1q_WDNj0FDrwekzHRnvrNO-FFgbNsNMZcZonAZuilx7zU9HAsj9CiIRTZJBMplf7UHd1YAc9x4WqeLVB- -k1zAV3PSYJNQdUhp1vKk1kbxRfykkSCLBUnUvVHrEeBSOxWTxhiZKQHjuJViilwECPy1-PkiX50pQ2vwWBDF55Ku1uib9HcS1c7Gx-IWy1cm2MmdqscYNFZh67eNQJeZXLxlEHNDhmrQPw7WZiE9mIKQL08NKA0LHjPEQhK0a6gfJSLBU533Dmx5Mab1RmRBnOOg9zm9RTqfwmCuRi27nEyZ-nIMFtmWR75RS80Dj-nXR_rld52ymaNDhQsrSI2uAI2M_8BGE_wdU-A5GMiNM75PjW_aK8drMYjijWsn-wl0Vdptt_RpvROrsXOd5W5V8Z18LZuSf6g5BbICZULbh-b8dGonTOf2O1CxGH4fp9obgFzAMMeW0azIbmzTdTdS8PsboLyvT6TD67pAT-TwbkfUpYR1R8Fb-qQCJjeQ9iIfCnhwpoJ4mUBEuzGic-5htcphNBwjfSMMgRM1SoFjCGkqrBgccME0GAvzWwJ-E3M98tZ9azXe8_9uFwE8Ep-QTZrLhZ5wA90pDVOoDrVqS7p2Y9cSs4d1YbDhZcW4SIXS4Pj7zTR3tSvIDbDkHhHH5Q_e7yl3hfjFTBG7SEICvOzsEt-2cTx0O2FAqu4n80bshPyjSOsIL81UDZs9LbJHUFAW1aI2vKTbD94I6WiqRa-QuqIj8IGnbcKo7FFiXOTHwx4bN6WFmZYj2YZOw5GU62wahKk-RMYJq6efYHrvmiD6RFRjhUHleWM9L1RdW0H4HjJow4Xqu9yndKNBNU7MnBmkah2UiX6syR-Oo7osyGv6yPzOmmIM45b1LmWJMC4_OG6jdRSoW874oylBNfcKBXJOxR8jQVZu4N9VeBuhV4FthCqJt715txmc7wS3hRVZ27kdw7JuXV4AE7yi6WGUrCKAbNixb6uU7vZ4KsPKIqNUCLpJOJZNgvPavEAR7QA7f-eucsaEGTBgfutCN5MoaHdQCt9mTkP7PszEw1hZ1p7OZH3KVdDpelVe_mBu2m00]--></g></svg>