<?xml version="1.0" encoding="us-ascii" standalone="no"?><svg xmlns="http://www.w3.org/2000/svg" xmlns:xlink="http://www.w3.org/1999/xlink" contentStyleType="text/css" height="1170px" preserveAspectRatio="none" style="width:1641px;height:1170px;background:#FFFFFF;" version="1.1" viewBox="0 0 1641 1170" width="1641px" zoomAndPan="magnify"><defs/><g><rect fill="#FFFFFF" height="975.7695" style="stroke:#181818;stroke-width:1.0;" width="10" x="21.5" y="93.6211"/><rect fill="#FFFFFF" height="106.2031" style="stroke:#181818;stroke-width:1.0;" width="10" x="285.5" y="116.9121"/><rect fill="#FFFFFF" height="31.291" style="stroke:#181818;stroke-width:1.0;" width="10" x="285.5" y="254.4063"/><rect fill="#FFFFFF" height="752.4023" style="stroke:#181818;stroke-width:1.0;" width="10" x="285.5" y="316.9883"/><rect fill="#FFFFFF" height="33.6211" style="stroke:#181818;stroke-width:1.0;" width="10" x="522.5" y="158.2031"/><rect fill="#FFFFFF" height="689.8203" style="stroke:#181818;stroke-width:1.0;" width="10" x="522.5" y="348.2793"/><rect fill="#FFFFFF" height="31.291" style="stroke:#181818;stroke-width:1.0;" width="10" x="701.5" y="379.5703"/><rect fill="#FFFFFF" height="31.291" style="stroke:#181818;stroke-width:1.0;" width="10" x="808.5" y="442.1523"/><rect fill="#FFFFFF" height="31.291" style="stroke:#181818;stroke-width:1.0;" width="10" x="948.5" y="504.7344"/><rect fill="#FFFFFF" height="31.291" style="stroke:#181818;stroke-width:1.0;" width="10" x="948.5" y="944.2266"/><rect fill="#FFFFFF" height="31.291" style="stroke:#181818;stroke-width:1.0;" width="10" x="1108.5" y="674.1895"/><rect fill="#FFFFFF" height="511.0742" style="stroke:#181818;stroke-width:1.0;" width="10" x="1246" y="567.3164"/><rect fill="#FFFFFF" height="440.4922" style="stroke:#181818;stroke-width:1.0;" width="10" x="1251" y="637.8984"/><rect fill="#FFFFFF" height="31.291" style="stroke:#181818;stroke-width:1.0;" width="10" x="1256" y="736.7715"/><rect fill="#FFFFFF" height="182.4551" style="stroke:#181818;stroke-width:1.0;" width="10" x="1375" y="824.3535"/><rect fill="#FFFFFF" height="42.291" style="stroke:#181818;stroke-width:1.0;" width="10" x="1380" y="863.6445"/><line style="stroke:#181818;stroke-width:0.5;stroke-dasharray:5.0,5.0;" x1="26" x2="26" y1="83.6211" y2="1087.3906"/><line style="stroke:#181818;stroke-width:0.5;stroke-dasharray:5.0,5.0;" x1="290.5" x2="290.5" y1="83.6211" y2="1087.3906"/><line style="stroke:#181818;stroke-width:0.5;stroke-dasharray:5.0,5.0;" x1="527.5" x2="527.5" y1="156.7227" y2="1087.3906"/><line style="stroke:#181818;stroke-width:0.5;stroke-dasharray:5.0,5.0;" x1="706" x2="706" y1="83.6211" y2="1087.3906"/><line style="stroke:#181818;stroke-width:0.5;stroke-dasharray:5.0,5.0;" x1="813" x2="813" y1="83.6211" y2="1087.3906"/><line style="stroke:#181818;stroke-width:0.5;stroke-dasharray:5.0,5.0;" x1="953" x2="953" y1="83.6211" y2="1087.3906"/><line style="stroke:#181818;stroke-width:0.5;stroke-dasharray:5.0,5.0;" x1="1113" x2="1113" y1="83.6211" y2="1087.3906"/><line style="stroke:#181818;stroke-width:0.5;stroke-dasharray:5.0,5.0;" x1="1251" x2="1251" y1="83.6211" y2="1087.3906"/><line style="stroke:#181818;stroke-width:0.5;stroke-dasharray:5.0,5.0;" x1="1380" x2="1380" y1="83.6211" y2="1087.3906"/><text fill="#000000" font-family="sans-serif" font-size="14" lengthAdjust="spacing" textLength="37" x="5" y="80.1074">Agent</text><ellipse cx="26.5" cy="13.5" fill="#E3E3E3" rx="8" ry="8" style="stroke:#181818;stroke-width:0.5;"/><path d="M26.5,21.5 L26.5,48.5 M13.5,29.5 L39.5,29.5 M26.5,48.5 L13.5,63.5 M26.5,48.5 L39.5,63.5 " fill="none" style="stroke:#181818;stroke-width:0.5;"/><text fill="#000000" font-family="sans-serif" font-size="14" lengthAdjust="spacing" textLength="37" x="5" y="1101.498">Agent</text><ellipse cx="26.5" cy="1113.5117" fill="#E3E3E3" rx="8" ry="8" style="stroke:#181818;stroke-width:0.5;"/><path d="M26.5,1121.5117 L26.5,1148.5117 M13.5,1129.5117 L39.5,1129.5117 M26.5,1148.5117 L13.5,1163.5117 M26.5,1148.5117 L39.5,1163.5117 " fill="none" style="stroke:#181818;stroke-width:0.5;"/><rect fill="#E3E3E3" height="32.6211" rx="2.5" ry="2.5" style="stroke:#181818;stroke-width:0.5;" width="132" x="224.5" y="50"/><text fill="#000000" font-family="sans-serif" font-size="14" lengthAdjust="spacing" textLength="118" x="231.5" y="72.1074">:RegisterOpinionUI</text><rect fill="#E3E3E3" height="32.6211" rx="2.5" ry="2.5" style="stroke:#181818;stroke-width:0.5;" width="132" x="224.5" y="1086.3906"/><text fill="#000000" font-family="sans-serif" font-size="14" lengthAdjust="spacing" textLength="118" x="231.5" y="1108.498">:RegisterOpinionUI</text><rect fill="#E3E3E3" height="32.6211" rx="2.5" ry="2.5" style="stroke:#181818;stroke-width:0.5;" width="182" x="436.5" y="1086.3906"/><text fill="#000000" font-family="sans-serif" font-size="14" lengthAdjust="spacing" textLength="168" x="443.5" y="1108.498">:RegisterOpinionController</text><rect fill="#E3E3E3" height="32.6211" rx="2.5" ry="2.5" style="stroke:#181818;stroke-width:0.5;" width="97" x="658" y="50"/><text fill="#000000" font-family="sans-serif" font-size="14" lengthAdjust="spacing" textLength="83" x="665" y="72.1074">:Repositories</text><rect fill="#E3E3E3" height="32.6211" rx="2.5" ry="2.5" style="stroke:#181818;stroke-width:0.5;" width="97" x="658" y="1086.3906"/><text fill="#000000" font-family="sans-serif" font-size="14" lengthAdjust="spacing" textLength="83" x="665" y="1108.498">:Repositories</text><rect fill="#E3E3E3" height="51.2422" rx="2.5" ry="2.5" style="stroke:#181818;stroke-width:0.5;" width="97" x="765" y="31.3789"/><text fill="#000000" font-family="sans-serif" font-size="14" lengthAdjust="spacing" textLength="74" x="776.5" y="53.4863">repositories</text><text fill="#000000" font-family="sans-serif" font-size="14" lengthAdjust="spacing" textLength="83" x="772" y="72.1074">:Repositories</text><rect fill="#E3E3E3" height="51.2422" rx="2.5" ry="2.5" style="stroke:#181818;stroke-width:0.5;" width="97" x="765" y="1086.3906"/><text fill="#000000" font-family="sans-serif" font-size="14" lengthAdjust="spacing" textLength="74" x="776.5" y="1108.498">repositories</text><text fill="#000000" font-family="sans-serif" font-size="14" lengthAdjust="spacing" textLength="83" x="772" y="1127.1191">:Repositories</text><rect fill="#E3E3E3" height="51.2422" rx="2.5" ry="2.5" style="stroke:#181818;stroke-width:0.5;" width="163" x="872" y="31.3789"/><text fill="#000000" font-family="sans-serif" font-size="14" lengthAdjust="spacing" textLength="149" x="879" y="53.4863">visitRequestRepository:</text><text fill="#000000" font-family="sans-serif" font-size="14" lengthAdjust="spacing" textLength="147" x="880" y="72.1074">VisitRequestRepository</text><rect fill="#E3E3E3" height="51.2422" rx="2.5" ry="2.5" style="stroke:#181818;stroke-width:0.5;" width="163" x="872" y="1086.3906"/><text fill="#000000" font-family="sans-serif" font-size="14" lengthAdjust="spacing" textLength="149" x="879" y="1108.498">visitRequestRepository:</text><text fill="#000000" font-family="sans-serif" font-size="14" lengthAdjust="spacing" textLength="147" x="880" y="1127.1191">VisitRequestRepository</text><rect fill="#E3E3E3" height="51.2422" rx="2.5" ry="2.5" style="stroke:#181818;stroke-width:0.5;" width="137" x="1045" y="31.3789"/><text fill="#000000" font-family="sans-serif" font-size="14" lengthAdjust="spacing" textLength="74" x="1076.5" y="53.4863">appSession</text><text fill="#000000" font-family="sans-serif" font-size="14" lengthAdjust="spacing" textLength="123" x="1052" y="72.1074">:ApplicationSession</text><rect fill="#E3E3E3" height="51.2422" rx="2.5" ry="2.5" style="stroke:#181818;stroke-width:0.5;" width="137" x="1045" y="1086.3906"/><text fill="#000000" font-family="sans-serif" font-size="14" lengthAdjust="spacing" textLength="74" x="1076.5" y="1108.498">appSession</text><text fill="#000000" font-family="sans-serif" font-size="14" lengthAdjust="spacing" textLength="123" x="1052" y="1127.1191">:ApplicationSession</text><rect fill="#E3E3E3" height="51.2422" rx="2.5" ry="2.5" style="stroke:#181818;stroke-width:0.5;" width="118" x="1192" y="31.3789"/><text fill="#000000" font-family="sans-serif" font-size="14" lengthAdjust="spacing" textLength="104" x="1199" y="53.4863">storeRepository:</text><text fill="#000000" font-family="sans-serif" font-size="14" lengthAdjust="spacing" textLength="102" x="1200" y="72.1074">StoreRepository</text><rect fill="#E3E3E3" height="51.2422" rx="2.5" ry="2.5" style="stroke:#181818;stroke-width:0.5;" width="118" x="1192" y="1086.3906"/><text fill="#000000" font-family="sans-serif" font-size="14" lengthAdjust="spacing" textLength="104" x="1199" y="1108.498">storeRepository:</text><text fill="#000000" font-family="sans-serif" font-size="14" lengthAdjust="spacing" textLength="102" x="1200" y="1127.1191">StoreRepository</text><rect fill="#E3E3E3" height="51.2422" rx="2.5" ry="2.5" style="stroke:#181818;stroke-width:0.5;" width="120" x="1320" y="31.3789"/><text fill="#000000" font-family="sans-serif" font-size="14" lengthAdjust="spacing" textLength="102" x="1329" y="53.4863">RegisterOpinion</text><text fill="#000000" font-family="sans-serif" font-size="14" lengthAdjust="spacing" textLength="106" x="1327" y="72.1074">:RegisterOpinion</text><rect fill="#E3E3E3" height="51.2422" rx="2.5" ry="2.5" style="stroke:#181818;stroke-width:0.5;" width="120" x="1320" y="1086.3906"/><text fill="#000000" font-family="sans-serif" font-size="14" lengthAdjust="spacing" textLength="102" x="1329" y="1108.498">RegisterOpinion</text><text fill="#000000" font-family="sans-serif" font-size="14" lengthAdjust="spacing" textLength="106" x="1327" y="1127.1191">:RegisterOpinion</text><rect fill="#FFFFFF" height="975.7695" style="stroke:#181818;stroke-width:1.0;" width="10" x="21.5" y="93.6211"/><rect fill="#FFFFFF" height="106.2031" style="stroke:#181818;stroke-width:1.0;" width="10" x="285.5" y="116.9121"/><rect fill="#FFFFFF" height="31.291" style="stroke:#181818;stroke-width:1.0;" width="10" x="285.5" y="254.4063"/><rect fill="#FFFFFF" height="752.4023" style="stroke:#181818;stroke-width:1.0;" width="10" x="285.5" y="316.9883"/><rect fill="#FFFFFF" height="33.6211" style="stroke:#181818;stroke-width:1.0;" width="10" x="522.5" y="158.2031"/><rect fill="#FFFFFF" height="689.8203" style="stroke:#181818;stroke-width:1.0;" width="10" x="522.5" y="348.2793"/><rect fill="#FFFFFF" height="31.291" style="stroke:#181818;stroke-width:1.0;" width="10" x="701.5" y="379.5703"/><rect fill="#FFFFFF" height="31.291" style="stroke:#181818;stroke-width:1.0;" width="10" x="808.5" y="442.1523"/><rect fill="#FFFFFF" height="31.291" style="stroke:#181818;stroke-width:1.0;" width="10" x="948.5" y="504.7344"/><rect fill="#FFFFFF" height="31.291" style="stroke:#181818;stroke-width:1.0;" width="10" x="948.5" y="944.2266"/><rect fill="#FFFFFF" height="31.291" style="stroke:#181818;stroke-width:1.0;" width="10" x="1108.5" y="674.1895"/><rect fill="#FFFFFF" height="511.0742" style="stroke:#181818;stroke-width:1.0;" width="10" x="1246" y="567.3164"/><rect fill="#FFFFFF" height="440.4922" style="stroke:#181818;stroke-width:1.0;" width="10" x="1251" y="637.8984"/><rect fill="#FFFFFF" height="31.291" style="stroke:#181818;stroke-width:1.0;" width="10" x="1256" y="736.7715"/><rect fill="#FFFFFF" height="182.4551" style="stroke:#181818;stroke-width:1.0;" width="10" x="1375" y="824.3535"/><rect fill="#FFFFFF" height="42.291" style="stroke:#181818;stroke-width:1.0;" width="10" x="1380" y="863.6445"/><polygon fill="#181818" points="273.5,112.9121,283.5,116.9121,273.5,120.9121,277.5,116.9121" style="stroke:#181818;stroke-width:1.0;"/><line style="stroke:#181818;stroke-width:1.0;" x1="31.5" x2="279.5" y1="116.9121" y2="116.9121"/><text fill="#000000" font-family="sans-serif" font-size="13" font-weight="bold" lengthAdjust="spacing" textLength="7" x="38.5" y="111.6494">1</text><text fill="#000000" font-family="sans-serif" font-size="13" lengthAdjust="spacing" textLength="173" x="49.5" y="111.6494">asks to register a new opinion</text><polygon fill="#181818" points="424.5,144.2031,434.5,148.2031,424.5,152.2031,428.5,148.2031" style="stroke:#181818;stroke-width:1.0;"/><line style="stroke:#181818;stroke-width:1.0;" x1="295.5" x2="430.5" y1="148.2031" y2="148.2031"/><text fill="#000000" font-family="sans-serif" font-size="13" font-weight="bold" lengthAdjust="spacing" textLength="7" x="302.5" y="142.9404">2</text><text fill="#000000" font-family="sans-serif" font-size="13" lengthAdjust="spacing" textLength="36" x="313.5" y="142.9404">create</text><rect fill="#E3E3E3" height="32.6211" rx="2.5" ry="2.5" style="stroke:#181818;stroke-width:0.5;" width="182" x="436.5" y="124.9121"/><text fill="#000000" font-family="sans-serif" font-size="14" lengthAdjust="spacing" textLength="168" x="443.5" y="147.0195">:RegisterOpinionController</text><polygon fill="#181818" points="306.5,187.8242,296.5,191.8242,306.5,195.8242,302.5,191.8242" style="stroke:#181818;stroke-width:1.0;"/><line style="stroke:#181818;stroke-width:1.0;stroke-dasharray:2.0,2.0;" x1="300.5" x2="526.5" y1="191.8242" y2="191.8242"/><text fill="#000000" font-family="sans-serif" font-size="13" font-weight="bold" lengthAdjust="spacing" textLength="7" x="312.5" y="186.5615">3</text><text fill="#000000" font-family="sans-serif" font-size="13" lengthAdjust="spacing" textLength="53" x="323.5" y="186.5615">controller</text><polygon fill="#181818" points="42.5,219.1152,32.5,223.1152,42.5,227.1152,38.5,223.1152" style="stroke:#181818;stroke-width:1.0;"/><line style="stroke:#181818;stroke-width:1.0;stroke-dasharray:2.0,2.0;" x1="36.5" x2="526.5" y1="223.1152" y2="223.1152"/><text fill="#000000" font-family="sans-serif" font-size="13" font-weight="bold" lengthAdjust="spacing" textLength="7" x="48.5" y="217.8525">4</text><text fill="#000000" font-family="sans-serif" font-size="13" lengthAdjust="spacing" textLength="244" x="59.5" y="217.8525">asks to type opinion (max 200 characters)</text><polygon fill="#181818" points="273.5,250.4063,283.5,254.4063,273.5,258.4063,277.5,254.4063" style="stroke:#181818;stroke-width:1.0;"/><line style="stroke:#181818;stroke-width:1.0;" x1="31.5" x2="279.5" y1="254.4063" y2="254.4063"/><text fill="#000000" font-family="sans-serif" font-size="13" font-weight="bold" lengthAdjust="spacing" textLength="7" x="38.5" y="249.1436">5</text><text fill="#000000" font-family="sans-serif" font-size="13" lengthAdjust="spacing" textLength="77" x="49.5" y="249.1436">types opinion</text><polygon fill="#181818" points="42.5,281.6973,32.5,285.6973,42.5,289.6973,38.5,285.6973" style="stroke:#181818;stroke-width:1.0;"/><line style="stroke:#181818;stroke-width:1.0;stroke-dasharray:2.0,2.0;" x1="36.5" x2="289.5" y1="285.6973" y2="285.6973"/><text fill="#000000" font-family="sans-serif" font-size="13" font-weight="bold" lengthAdjust="spacing" textLength="7" x="48.5" y="280.4346">6</text><text fill="#000000" font-family="sans-serif" font-size="13" lengthAdjust="spacing" textLength="219" x="59.5" y="280.4346">requests selected data (classification)</text><polygon fill="#181818" points="273.5,312.9883,283.5,316.9883,273.5,320.9883,277.5,316.9883" style="stroke:#181818;stroke-width:1.0;"/><line style="stroke:#181818;stroke-width:1.0;" x1="31.5" x2="279.5" y1="316.9883" y2="316.9883"/><text fill="#000000" font-family="sans-serif" font-size="13" font-weight="bold" lengthAdjust="spacing" textLength="7" x="38.5" y="311.7256">7</text><text fill="#000000" font-family="sans-serif" font-size="13" lengthAdjust="spacing" textLength="179" x="49.5" y="311.7256">selects the data and submits it</text><polygon fill="#181818" points="510.5,344.2793,520.5,348.2793,510.5,352.2793,514.5,348.2793" style="stroke:#181818;stroke-width:1.0;"/><line style="stroke:#181818;stroke-width:1.0;" x1="295.5" x2="516.5" y1="348.2793" y2="348.2793"/><text fill="#000000" font-family="sans-serif" font-size="13" font-weight="bold" lengthAdjust="spacing" textLength="7" x="302.5" y="343.0166">8</text><text fill="#000000" font-family="sans-serif" font-size="13" lengthAdjust="spacing" textLength="197" x="313.5" y="343.0166">addOpinion(opinion, classification)</text><polygon fill="#181818" points="689.5,375.5703,699.5,379.5703,689.5,383.5703,693.5,379.5703" style="stroke:#181818;stroke-width:1.0;"/><line style="stroke:#181818;stroke-width:1.0;" x1="532.5" x2="695.5" y1="379.5703" y2="379.5703"/><text fill="#000000" font-family="sans-serif" font-size="13" font-weight="bold" lengthAdjust="spacing" textLength="7" x="539.5" y="374.3076">9</text><text fill="#000000" font-family="sans-serif" font-size="13" lengthAdjust="spacing" textLength="75" x="550.5" y="374.3076">getInstance()</text><polygon fill="#181818" points="543.5,406.8613,533.5,410.8613,543.5,414.8613,539.5,410.8613" style="stroke:#181818;stroke-width:1.0;"/><line style="stroke:#181818;stroke-width:1.0;stroke-dasharray:2.0,2.0;" x1="537.5" x2="705.5" y1="410.8613" y2="410.8613"/><text fill="#000000" font-family="sans-serif" font-size="13" font-weight="bold" lengthAdjust="spacing" textLength="14" x="549.5" y="405.5986">10</text><text fill="#000000" font-family="sans-serif" font-size="13" lengthAdjust="spacing" textLength="67" x="567.5" y="405.5986">repositories</text><polygon fill="#181818" points="796.5,438.1523,806.5,442.1523,796.5,446.1523,800.5,442.1523" style="stroke:#181818;stroke-width:1.0;"/><line style="stroke:#181818;stroke-width:1.0;" x1="532.5" x2="802.5" y1="442.1523" y2="442.1523"/><text fill="#000000" font-family="sans-serif" font-size="13" font-weight="bold" lengthAdjust="spacing" textLength="14" x="539.5" y="436.8896">11</text><text fill="#000000" font-family="sans-serif" font-size="13" lengthAdjust="spacing" textLength="162" x="557.5" y="436.8896">getVisitRequestRepository()</text><polygon fill="#181818" points="543.5,469.4434,533.5,473.4434,543.5,477.4434,539.5,473.4434" style="stroke:#181818;stroke-width:1.0;"/><line style="stroke:#181818;stroke-width:1.0;" x1="537.5" x2="812.5" y1="473.4434" y2="473.4434"/><text fill="#000000" font-family="sans-serif" font-size="13" font-weight="bold" lengthAdjust="spacing" textLength="14" x="549.5" y="468.1807">12</text><text fill="#000000" font-family="sans-serif" font-size="13" lengthAdjust="spacing" textLength="132" x="567.5" y="468.1807">visitRequestRepository</text><polygon fill="#181818" points="936.5,500.7344,946.5,504.7344,936.5,508.7344,940.5,504.7344" style="stroke:#181818;stroke-width:1.0;"/><line style="stroke:#181818;stroke-width:1.0;" x1="532.5" x2="942.5" y1="504.7344" y2="504.7344"/><text fill="#000000" font-family="sans-serif" font-size="13" font-weight="bold" lengthAdjust="spacing" textLength="14" x="539.5" y="499.4717">13</text><text fill="#000000" font-family="sans-serif" font-size="13" lengthAdjust="spacing" textLength="121" x="557.5" y="499.4717">getVisitRequestList()</text><polygon fill="#181818" points="543.5,532.0254,533.5,536.0254,543.5,540.0254,539.5,536.0254" style="stroke:#181818;stroke-width:1.0;"/><line style="stroke:#181818;stroke-width:1.0;stroke-dasharray:2.0,2.0;" x1="537.5" x2="952.5" y1="536.0254" y2="536.0254"/><text fill="#000000" font-family="sans-serif" font-size="13" font-weight="bold" lengthAdjust="spacing" textLength="14" x="549.5" y="530.7627">14</text><text fill="#000000" font-family="sans-serif" font-size="13" lengthAdjust="spacing" textLength="91" x="567.5" y="530.7627">visitRequestList</text><polygon fill="#181818" points="1234,563.3164,1244,567.3164,1234,571.3164,1238,567.3164" style="stroke:#181818;stroke-width:1.0;"/><line style="stroke:#181818;stroke-width:1.0;" x1="532.5" x2="1240" y1="567.3164" y2="567.3164"/><text fill="#000000" font-family="sans-serif" font-size="13" font-weight="bold" lengthAdjust="spacing" textLength="14" x="539.5" y="562.0537">15</text><text fill="#000000" font-family="sans-serif" font-size="13" lengthAdjust="spacing" textLength="119" x="557.5" y="562.0537">getStoreRepository()</text><polygon fill="#181818" points="543.5,594.6074,533.5,598.6074,543.5,602.6074,539.5,598.6074" style="stroke:#181818;stroke-width:1.0;"/><line style="stroke:#181818;stroke-width:1.0;stroke-dasharray:2.0,2.0;" x1="537.5" x2="1245" y1="598.6074" y2="598.6074"/><text fill="#000000" font-family="sans-serif" font-size="13" font-weight="bold" lengthAdjust="spacing" textLength="14" x="549.5" y="593.3447">16</text><text fill="#000000" font-family="sans-serif" font-size="13" lengthAdjust="spacing" textLength="91" x="567.5" y="593.3447">storeRepository</text><line style="stroke:#181818;stroke-width:1.0;" x1="532.5" x2="579.5" y1="624.8984" y2="624.8984"/><line style="stroke:#181818;stroke-width:1.0;" x1="579.5" x2="579.5" y1="624.8984" y2="637.8984"/><line style="stroke:#181818;stroke-width:1.0;" x1="538.5" x2="579.5" y1="637.8984" y2="637.8984"/><polygon fill="#181818" points="548.5,633.8984,538.5,637.8984,548.5,641.8984,544.5,637.8984" style="stroke:#181818;stroke-width:1.0;"/><text fill="#000000" font-family="sans-serif" font-size="13" font-weight="bold" lengthAdjust="spacing" textLength="14" x="544.5" y="619.6357">17</text><text fill="#000000" font-family="sans-serif" font-size="13" lengthAdjust="spacing" textLength="137" x="562.5" y="619.6357">getAgentFromSession()</text><polygon fill="#181818" points="1096.5,670.1895,1106.5,674.1895,1096.5,678.1895,1100.5,674.1895" style="stroke:#181818;stroke-width:1.0;"/><line style="stroke:#181818;stroke-width:1.0;" x1="532.5" x2="1102.5" y1="674.1895" y2="674.1895"/><text fill="#000000" font-family="sans-serif" font-size="13" font-weight="bold" lengthAdjust="spacing" textLength="14" x="539.5" y="668.9268">18</text><text fill="#000000" font-family="sans-serif" font-size="13" lengthAdjust="spacing" textLength="115" x="557.5" y="668.9268">getCurrentSession()</text><polygon fill="#181818" points="543.5,701.4805,533.5,705.4805,543.5,709.4805,539.5,705.4805" style="stroke:#181818;stroke-width:1.0;"/><line style="stroke:#181818;stroke-width:1.0;stroke-dasharray:2.0,2.0;" x1="537.5" x2="1112.5" y1="705.4805" y2="705.4805"/><text fill="#000000" font-family="sans-serif" font-size="13" font-weight="bold" lengthAdjust="spacing" textLength="14" x="549.5" y="700.2178">19</text><text fill="#000000" font-family="sans-serif" font-size="13" lengthAdjust="spacing" textLength="87" x="567.5" y="700.2178">currentSession</text><polygon fill="#181818" points="1244,732.7715,1254,736.7715,1244,740.7715,1248,736.7715" style="stroke:#181818;stroke-width:1.0;"/><line style="stroke:#181818;stroke-width:1.0;" x1="532.5" x2="1250" y1="736.7715" y2="736.7715"/><text fill="#000000" font-family="sans-serif" font-size="13" font-weight="bold" lengthAdjust="spacing" textLength="14" x="539.5" y="731.5088">20</text><text fill="#000000" font-family="sans-serif" font-size="13" lengthAdjust="spacing" textLength="123" x="557.5" y="731.5088">getAgentFromEmail()</text><polygon fill="#181818" points="543.5,764.0625,533.5,768.0625,543.5,772.0625,539.5,768.0625" style="stroke:#181818;stroke-width:1.0;"/><line style="stroke:#181818;stroke-width:1.0;stroke-dasharray:2.0,2.0;" x1="537.5" x2="1250" y1="768.0625" y2="768.0625"/><text fill="#000000" font-family="sans-serif" font-size="13" font-weight="bold" lengthAdjust="spacing" textLength="14" x="549.5" y="762.7998">21</text><text fill="#000000" font-family="sans-serif" font-size="13" lengthAdjust="spacing" textLength="32" x="567.5" y="762.7998">agent</text><polygon fill="#181818" points="1363,820.3535,1373,824.3535,1363,828.3535,1367,824.3535" style="stroke:#181818;stroke-width:1.0;"/><line style="stroke:#181818;stroke-width:1.0;" x1="532.5" x2="1369" y1="824.3535" y2="824.3535"/><text fill="#000000" font-family="sans-serif" font-size="13" font-weight="bold" lengthAdjust="spacing" textLength="14" x="539.5" y="819.0908">22</text><text fill="#000000" font-family="sans-serif" font-size="13" lengthAdjust="spacing" textLength="197" x="557.5" y="819.0908">addOpinion(opinion, classification)</text><line style="stroke:#181818;stroke-width:1.0;" x1="1385" x2="1432" y1="850.6445" y2="850.6445"/><line style="stroke:#181818;stroke-width:1.0;" x1="1432" x2="1432" y1="850.6445" y2="863.6445"/><line style="stroke:#181818;stroke-width:1.0;" x1="1391" x2="1432" y1="863.6445" y2="863.6445"/><polygon fill="#181818" points="1401,859.6445,1391,863.6445,1401,867.6445,1397,863.6445" style="stroke:#181818;stroke-width:1.0;"/><text fill="#000000" font-family="sans-serif" font-size="13" font-weight="bold" lengthAdjust="spacing" textLength="14" x="1397" y="845.3818">23</text><text fill="#000000" font-family="sans-serif" font-size="13" lengthAdjust="spacing" textLength="219" x="1415" y="845.3818">validateOpinion(opinion, classification)</text><line style="stroke:#181818;stroke-width:1.0;stroke-dasharray:2.0,2.0;" x1="1390" x2="1432" y1="904.9355" y2="904.9355"/><line style="stroke:#181818;stroke-width:1.0;stroke-dasharray:2.0,2.0;" x1="1432" x2="1432" y1="904.9355" y2="917.9355"/><line style="stroke:#181818;stroke-width:1.0;stroke-dasharray:2.0,2.0;" x1="1385" x2="1432" y1="917.9355" y2="917.9355"/><polygon fill="#181818" points="1395,913.9355,1385,917.9355,1395,921.9355,1391,917.9355" style="stroke:#181818;stroke-width:1.0;"/><text fill="#000000" font-family="sans-serif" font-size="13" font-weight="bold" lengthAdjust="spacing" textLength="14" x="1397" y="899.6729">24</text><text fill="#000000" font-family="sans-serif" font-size="13" lengthAdjust="spacing" textLength="94" x="1415" y="899.6729">validatedOpinion</text><polygon fill="#181818" points="969.5,940.2266,959.5,944.2266,969.5,948.2266,965.5,944.2266" style="stroke:#181818;stroke-width:1.0;"/><line style="stroke:#181818;stroke-width:1.0;" x1="963.5" x2="1374" y1="944.2266" y2="944.2266"/><text fill="#000000" font-family="sans-serif" font-size="13" font-weight="bold" lengthAdjust="spacing" textLength="14" x="975.5" y="938.9639">25</text><text fill="#000000" font-family="sans-serif" font-size="13" lengthAdjust="spacing" textLength="201" x="993.5" y="938.9639">addOpinion (opinion, classification)</text><polygon fill="#181818" points="1363,971.5176,1373,975.5176,1363,979.5176,1367,975.5176" style="stroke:#181818;stroke-width:1.0;"/><line style="stroke:#181818;stroke-width:1.0;stroke-dasharray:2.0,2.0;" x1="953.5" x2="1369" y1="975.5176" y2="975.5176"/><text fill="#000000" font-family="sans-serif" font-size="13" font-weight="bold" lengthAdjust="spacing" textLength="14" x="960.5" y="970.2549">26</text><text fill="#000000" font-family="sans-serif" font-size="13" lengthAdjust="spacing" textLength="115" x="978.5" y="970.2549">added with success</text><polygon fill="#181818" points="543.5,1002.8086,533.5,1006.8086,543.5,1010.8086,539.5,1006.8086" style="stroke:#181818;stroke-width:1.0;"/><line style="stroke:#181818;stroke-width:1.0;stroke-dasharray:2.0,2.0;" x1="537.5" x2="1379" y1="1006.8086" y2="1006.8086"/><text fill="#000000" font-family="sans-serif" font-size="13" font-weight="bold" lengthAdjust="spacing" textLength="14" x="549.5" y="1001.5459">27</text><text fill="#000000" font-family="sans-serif" font-size="13" lengthAdjust="spacing" textLength="115" x="567.5" y="1001.5459">added with success</text><polygon fill="#181818" points="306.5,1034.0996,296.5,1038.0996,306.5,1042.0996,302.5,1038.0996" style="stroke:#181818;stroke-width:1.0;"/><line style="stroke:#181818;stroke-width:1.0;stroke-dasharray:2.0,2.0;" x1="300.5" x2="526.5" y1="1038.0996" y2="1038.0996"/><text fill="#000000" font-family="sans-serif" font-size="13" font-weight="bold" lengthAdjust="spacing" textLength="14" x="312.5" y="1032.8369">28</text><text fill="#000000" font-family="sans-serif" font-size="13" lengthAdjust="spacing" textLength="115" x="330.5" y="1032.8369">added with success</text><polygon fill="#181818" points="37.5,1065.3906,27.5,1069.3906,37.5,1073.3906,33.5,1069.3906" style="stroke:#181818;stroke-width:1.0;"/><line style="stroke:#181818;stroke-width:1.0;stroke-dasharray:2.0,2.0;" x1="31.5" x2="289.5" y1="1069.3906" y2="1069.3906"/><text fill="#000000" font-family="sans-serif" font-size="13" font-weight="bold" lengthAdjust="spacing" textLength="14" x="43.5" y="1064.1279">29</text><text fill="#000000" font-family="sans-serif" font-size="13" lengthAdjust="spacing" textLength="158" x="61.5" y="1064.1279">displays operation success</text><!--SRC=[jLPDJoCn3BtFhx2uKD1MGdli0GaXLgfKQH65FN496TD6p2IpIGfKuiUla_bC9WmKiNDg7VlbFJknOvw4h9Xc9PHAAhxLgaImUeUPwLOgnf_O1jTsNo1ev9R9JJ5qC5kMgnSXD_382eDPndPMoLtvW3hBZhSYHtXKoZwerunngpGSNMnGsYDW1lolZ72iuA9YqiBHuWOtmbZKloiXXP9tI-zvjvnskrJIQbKKgBtxvUtDQXHGAIE8W43ZVJh3VYsS9c8TXkX1nBqS0rolBcx3Y6T13ZVuTuV6zl2BU_adkU1HqaiXBgkgDHf3Eed7HLKLWZDB_nfZdSlhwp3840u6BDQXnOT5jX0YIh9FGc1f4XdOCbTdySmiDlNDeFdyNvYVKpLXGP5F1goYGrM70mE9Bw0Qb3Qe0wCZa1rtPlSH386vMf-U4Y3NI7w1HnVi3qImv2mmRydmxlm4JZcc4RhWMb8lnkuhR2N0h6IlyFFi3FYMhWedZUOa6oCxOTauFmxA1Ea88eP9613HzKaoOB2WsuevvCmocF62qLbvR0vEJIFYCAPGOv2mBTOmJEPWTW-b8AEmqwJgohZSv7bpD6QDcX-GelD1mVgydwVkBcsqGRkKXZeKnzd9ABQ3JbtyaRVxKhlC6rqkqtq_68KFKlkfxLfXhgVKIj9zOKgNxqT98HwrBqYwJKrfI4EtfDDKnp9MTC-d1BpJ2fEItjbpdbRfTfxIzzcTMyLHrwobHiOffN7N7Nd66mnqcJWsrTSwR-Bbx_Gl6kxDk8Y8VPvK2qsZnWDVxhGcw3Hi0Es6KxACj32uKZm0d2fO4d2oEbqMhaecYlzL7EOdtWJnIV2tjxSitUw22NjOIurwNpIhqtqlS4emSDUB5O9c0Xx4uvluJ19gCvE42lhorrBnRhVhYm9VpCOtDS1nReWQlGHUXDtI-EQSxjT7sJc4Ige-_Um_SEF9iWmURHzYns-t-ENOFfeMa0jJ5Mpl7bkeVPq2mEYPDEn2_hR_0m00]--></g></svg>