<?xml version="1.0" encoding="us-ascii" standalone="no"?><svg xmlns="http://www.w3.org/2000/svg" xmlns:xlink="http://www.w3.org/1999/xlink" contentStyleType="text/css" height="860px" preserveAspectRatio="none" style="width:1210px;height:860px;background:#FFFFFF;" version="1.1" viewBox="0 0 1210 860" width="1210px" zoomAndPan="magnify"><defs/><g><!--class ApplicationSession--><g id="elem_ApplicationSession"><rect codeLine="11" fill="#F1F1F1" height="85.2422" id="ApplicationSession" rx="2.5" ry="2.5" style="stroke:#181818;stroke-width:0.5;" width="151" x="336.5" y="256.7627"/><ellipse cx="351.5" cy="272.7627" fill="#ADD1B2" rx="11" ry="11" style="stroke:#181818;stroke-width:1.0;"/><path d="M354.2656,268.6377 Q354.4219,268.4189 354.6094,268.3096 Q354.7969,268.2002 355.0156,268.2002 Q355.3906,268.2002 355.625,268.4658 Q355.8594,268.7158 355.8594,269.3252 L355.8594,270.7783 Q355.8594,271.3877 355.625,271.6533 Q355.3906,271.9189 355.0156,271.9189 Q354.6719,271.9189 354.4688,271.7158 Q354.2656,271.5283 354.1563,271.0127 Q354.1094,270.6533 353.9219,270.4658 Q353.5938,270.0908 352.9844,269.8721 Q352.375,269.6533 351.75,269.6533 Q350.9844,269.6533 350.3438,269.9814 Q349.7188,270.3096 349.2188,271.0596 Q348.7344,271.8096 348.7344,272.8408 L348.7344,273.9346 Q348.7344,275.1689 349.625,275.9971 Q350.5156,276.8096 352.1094,276.8096 Q353.0469,276.8096 353.7031,276.5596 Q354.0938,276.4033 354.5156,275.9658 Q354.7813,275.7002 354.9219,275.6221 Q355.0781,275.5439 355.2813,275.5439 Q355.6094,275.5439 355.8594,275.8096 Q356.125,276.0596 356.125,276.4033 Q356.125,276.7471 355.7813,277.1533 Q355.2813,277.7314 354.4844,278.0596 Q353.4063,278.5127 352.1094,278.5127 Q350.5938,278.5127 349.3906,277.8877 Q348.4063,277.3877 347.7188,276.3252 Q347.0313,275.2471 347.0313,273.9658 L347.0313,272.8096 Q347.0313,271.4814 347.6406,270.3408 Q348.2656,269.1846 349.3594,268.5752 Q350.4531,267.9502 351.6875,267.9502 Q352.4219,267.9502 353.0625,268.1221 Q353.7188,268.2783 354.2656,268.6377 Z " fill="#000000"/><text fill="#000000" font-family="sans-serif" font-size="14" lengthAdjust="spacing" textLength="119" x="365.5" y="278.5596">ApplicationSession</text><line style="stroke:#181818;stroke-width:0.5;" x1="337.5" x2="486.5" y1="288.7627" y2="288.7627"/><line style="stroke:#181818;stroke-width:0.5;" x1="337.5" x2="486.5" y1="296.7627" y2="296.7627"/><text fill="#000000" font-family="sans-serif" font-size="14" lengthAdjust="spacing" textLength="128" x="342.5" y="315.8701">+static getInstance()</text><text fill="#000000" font-family="sans-serif" font-size="14" lengthAdjust="spacing" textLength="136" x="342.5" y="334.4912">+getCurrentSession()</text></g><!--class StoreRepository--><g id="elem_StoreRepository"><rect codeLine="17" fill="#F1F1F1" height="85.2422" id="StoreRepository" rx="2.5" ry="2.5" style="stroke:#181818;stroke-width:0.5;" width="154" x="922" y="256.7627"/><ellipse cx="946" cy="272.7627" fill="#ADD1B2" rx="11" ry="11" style="stroke:#181818;stroke-width:1.0;"/><path d="M948.7656,268.6377 Q948.9219,268.4189 949.1094,268.3096 Q949.2969,268.2002 949.5156,268.2002 Q949.8906,268.2002 950.125,268.4658 Q950.3594,268.7158 950.3594,269.3252 L950.3594,270.7783 Q950.3594,271.3877 950.125,271.6533 Q949.8906,271.9189 949.5156,271.9189 Q949.1719,271.9189 948.9688,271.7158 Q948.7656,271.5283 948.6563,271.0127 Q948.6094,270.6533 948.4219,270.4658 Q948.0938,270.0908 947.4844,269.8721 Q946.875,269.6533 946.25,269.6533 Q945.4844,269.6533 944.8438,269.9814 Q944.2188,270.3096 943.7188,271.0596 Q943.2344,271.8096 943.2344,272.8408 L943.2344,273.9346 Q943.2344,275.1689 944.125,275.9971 Q945.0156,276.8096 946.6094,276.8096 Q947.5469,276.8096 948.2031,276.5596 Q948.5938,276.4033 949.0156,275.9658 Q949.2813,275.7002 949.4219,275.6221 Q949.5781,275.5439 949.7813,275.5439 Q950.1094,275.5439 950.3594,275.8096 Q950.625,276.0596 950.625,276.4033 Q950.625,276.7471 950.2813,277.1533 Q949.7813,277.7314 948.9844,278.0596 Q947.9063,278.5127 946.6094,278.5127 Q945.0938,278.5127 943.8906,277.8877 Q942.9063,277.3877 942.2188,276.3252 Q941.5313,275.2471 941.5313,273.9658 L941.5313,272.8096 Q941.5313,271.4814 942.1406,270.3408 Q942.7656,269.1846 943.8594,268.5752 Q944.9531,267.9502 946.1875,267.9502 Q946.9219,267.9502 947.5625,268.1221 Q948.2188,268.2783 948.7656,268.6377 Z " fill="#000000"/><text fill="#000000" font-family="sans-serif" font-size="14" lengthAdjust="spacing" textLength="102" x="962" y="278.5596">StoreRepository</text><line style="stroke:#181818;stroke-width:0.5;" x1="923" x2="1075" y1="288.7627" y2="288.7627"/><line style="stroke:#181818;stroke-width:0.5;" x1="923" x2="1075" y1="296.7627" y2="296.7627"/><text fill="#000000" font-family="sans-serif" font-size="14" lengthAdjust="spacing" textLength="142" x="928" y="315.8701">+getAgentFromEmail()</text><text fill="#000000" font-family="sans-serif" font-size="14" lengthAdjust="spacing" textLength="72" x="928" y="334.4912">+getStore()</text></g><!--class Store--><g id="elem_Store"><rect codeLine="23" fill="#F1F1F1" height="48" id="Store" rx="2.5" ry="2.5" style="stroke:#181818;stroke-width:0.5;" width="66" x="1007" y="476.7627"/><ellipse cx="1022" cy="492.7627" fill="#ADD1B2" rx="11" ry="11" style="stroke:#181818;stroke-width:1.0;"/><path d="M1024.7656,488.6377 Q1024.9219,488.4189 1025.1094,488.3096 Q1025.2969,488.2002 1025.5156,488.2002 Q1025.8906,488.2002 1026.125,488.4658 Q1026.3594,488.7158 1026.3594,489.3252 L1026.3594,490.7783 Q1026.3594,491.3877 1026.125,491.6533 Q1025.8906,491.9189 1025.5156,491.9189 Q1025.1719,491.9189 1024.9688,491.7158 Q1024.7656,491.5283 1024.6563,491.0127 Q1024.6094,490.6533 1024.4219,490.4658 Q1024.0938,490.0908 1023.4844,489.8721 Q1022.875,489.6533 1022.25,489.6533 Q1021.4844,489.6533 1020.8438,489.9814 Q1020.2188,490.3096 1019.7188,491.0596 Q1019.2344,491.8096 1019.2344,492.8408 L1019.2344,493.9346 Q1019.2344,495.1689 1020.125,495.9971 Q1021.0156,496.8096 1022.6094,496.8096 Q1023.5469,496.8096 1024.2031,496.5596 Q1024.5938,496.4033 1025.0156,495.9658 Q1025.2813,495.7002 1025.4219,495.6221 Q1025.5781,495.5439 1025.7813,495.5439 Q1026.1094,495.5439 1026.3594,495.8096 Q1026.625,496.0596 1026.625,496.4033 Q1026.625,496.7471 1026.2813,497.1533 Q1025.7813,497.7314 1024.9844,498.0596 Q1023.9063,498.5127 1022.6094,498.5127 Q1021.0938,498.5127 1019.8906,497.8877 Q1018.9063,497.3877 1018.2188,496.3252 Q1017.5313,495.2471 1017.5313,493.9658 L1017.5313,492.8096 Q1017.5313,491.4814 1018.1406,490.3408 Q1018.7656,489.1846 1019.8594,488.5752 Q1020.9531,487.9502 1022.1875,487.9502 Q1022.9219,487.9502 1023.5625,488.1221 Q1024.2188,488.2783 1024.7656,488.6377 Z " fill="#000000"/><text fill="#000000" font-family="sans-serif" font-size="14" lengthAdjust="spacing" textLength="34" x="1036" y="498.5596">Store</text><line style="stroke:#181818;stroke-width:0.5;" x1="1008" x2="1072" y1="508.7627" y2="508.7627"/><line style="stroke:#181818;stroke-width:0.5;" x1="1008" x2="1072" y1="516.7627" y2="516.7627"/></g><!--class Company--><g id="elem_Company"><rect codeLine="26" fill="#F1F1F1" height="48" id="Company" rx="2.5" ry="2.5" style="stroke:#181818;stroke-width:0.5;" width="92" x="1111" y="275.2627"/><ellipse cx="1126" cy="291.2627" fill="#ADD1B2" rx="11" ry="11" style="stroke:#181818;stroke-width:1.0;"/><path d="M1128.7656,287.1377 Q1128.9219,286.9189 1129.1094,286.8096 Q1129.2969,286.7002 1129.5156,286.7002 Q1129.8906,286.7002 1130.125,286.9658 Q1130.3594,287.2158 1130.3594,287.8252 L1130.3594,289.2783 Q1130.3594,289.8877 1130.125,290.1533 Q1129.8906,290.4189 1129.5156,290.4189 Q1129.1719,290.4189 1128.9688,290.2158 Q1128.7656,290.0283 1128.6563,289.5127 Q1128.6094,289.1533 1128.4219,288.9658 Q1128.0938,288.5908 1127.4844,288.3721 Q1126.875,288.1533 1126.25,288.1533 Q1125.4844,288.1533 1124.8438,288.4814 Q1124.2188,288.8096 1123.7188,289.5596 Q1123.2344,290.3096 1123.2344,291.3408 L1123.2344,292.4346 Q1123.2344,293.6689 1124.125,294.4971 Q1125.0156,295.3096 1126.6094,295.3096 Q1127.5469,295.3096 1128.2031,295.0596 Q1128.5938,294.9033 1129.0156,294.4658 Q1129.2813,294.2002 1129.4219,294.1221 Q1129.5781,294.0439 1129.7813,294.0439 Q1130.1094,294.0439 1130.3594,294.3096 Q1130.625,294.5596 1130.625,294.9033 Q1130.625,295.2471 1130.2813,295.6533 Q1129.7813,296.2314 1128.9844,296.5596 Q1127.9063,297.0127 1126.6094,297.0127 Q1125.0938,297.0127 1123.8906,296.3877 Q1122.9063,295.8877 1122.2188,294.8252 Q1121.5313,293.7471 1121.5313,292.4658 L1121.5313,291.3096 Q1121.5313,289.9814 1122.1406,288.8408 Q1122.7656,287.6846 1123.8594,287.0752 Q1124.9531,286.4502 1126.1875,286.4502 Q1126.9219,286.4502 1127.5625,286.6221 Q1128.2188,286.7783 1128.7656,287.1377 Z " fill="#000000"/><text fill="#000000" font-family="sans-serif" font-size="14" lengthAdjust="spacing" textLength="60" x="1140" y="297.0596">Company</text><line style="stroke:#181818;stroke-width:0.5;" x1="1112" x2="1202" y1="307.2627" y2="307.2627"/><line style="stroke:#181818;stroke-width:0.5;" x1="1112" x2="1202" y1="315.2627" y2="315.2627"/></g><!--class User--><g id="elem_User"><rect codeLine="29" fill="#F1F1F1" height="159.7266" id="User" rx="2.5" ry="2.5" style="stroke:#181818;stroke-width:0.5;" width="163" x="808.5" y="420.7627"/><ellipse cx="871.25" cy="436.7627" fill="#ADD1B2" rx="11" ry="11" style="stroke:#181818;stroke-width:1.0;"/><path d="M874.0156,432.6377 Q874.1719,432.4189 874.3594,432.3096 Q874.5469,432.2002 874.7656,432.2002 Q875.1406,432.2002 875.375,432.4658 Q875.6094,432.7158 875.6094,433.3252 L875.6094,434.7783 Q875.6094,435.3877 875.375,435.6533 Q875.1406,435.9189 874.7656,435.9189 Q874.4219,435.9189 874.2188,435.7158 Q874.0156,435.5283 873.9063,435.0127 Q873.8594,434.6533 873.6719,434.4658 Q873.3438,434.0908 872.7344,433.8721 Q872.125,433.6533 871.5,433.6533 Q870.7344,433.6533 870.0938,433.9814 Q869.4688,434.3096 868.9688,435.0596 Q868.4844,435.8096 868.4844,436.8408 L868.4844,437.9346 Q868.4844,439.1689 869.375,439.9971 Q870.2656,440.8096 871.8594,440.8096 Q872.7969,440.8096 873.4531,440.5596 Q873.8438,440.4033 874.2656,439.9658 Q874.5313,439.7002 874.6719,439.6221 Q874.8281,439.5439 875.0313,439.5439 Q875.3594,439.5439 875.6094,439.8096 Q875.875,440.0596 875.875,440.4033 Q875.875,440.7471 875.5313,441.1533 Q875.0313,441.7314 874.2344,442.0596 Q873.1563,442.5127 871.8594,442.5127 Q870.3438,442.5127 869.1406,441.8877 Q868.1563,441.3877 867.4688,440.3252 Q866.7813,439.2471 866.7813,437.9658 L866.7813,436.8096 Q866.7813,435.4814 867.3906,434.3408 Q868.0156,433.1846 869.1094,432.5752 Q870.2031,431.9502 871.4375,431.9502 Q872.1719,431.9502 872.8125,432.1221 Q873.4688,432.2783 874.0156,432.6377 Z " fill="#000000"/><text fill="#000000" font-family="sans-serif" font-size="14" lengthAdjust="spacing" textLength="29" x="891.75" y="442.5596">User</text><line style="stroke:#181818;stroke-width:0.5;" x1="809.5" x2="970.5" y1="452.7627" y2="452.7627"/><text fill="#000000" font-family="sans-serif" font-size="14" lengthAdjust="spacing" textLength="89" x="814.5" y="471.8701">-name : String</text><text fill="#000000" font-family="sans-serif" font-size="14" lengthAdjust="spacing" textLength="139" x="814.5" y="490.4912">-emailAddress : String</text><text fill="#000000" font-family="sans-serif" font-size="14" lengthAdjust="spacing" textLength="144" x="814.5" y="509.1123">-telephoneNumber : int</text><text fill="#000000" font-family="sans-serif" font-size="14" lengthAdjust="spacing" textLength="151" x="814.5" y="527.7334">-citizenCardNumber : int</text><text fill="#000000" font-family="sans-serif" font-size="14" lengthAdjust="spacing" textLength="99" x="814.5" y="546.3545">-taxNumber : int</text><text fill="#000000" font-family="sans-serif" font-size="14" lengthAdjust="spacing" textLength="120" x="814.5" y="564.9756">-address : Address</text><line style="stroke:#181818;stroke-width:0.5;" x1="809.5" x2="970.5" y1="572.4893" y2="572.4893"/></g><!--class Employee--><g id="elem_Employee"><rect codeLine="38" fill="#F1F1F1" height="85.2422" id="Employee" rx="2.5" ry="2.5" style="stroke:#181818;stroke-width:0.5;" width="112" x="834" y="659.7627"/><ellipse cx="857.1" cy="675.7627" fill="#ADD1B2" rx="11" ry="11" style="stroke:#181818;stroke-width:1.0;"/><path d="M859.8656,671.6377 Q860.0219,671.4189 860.2094,671.3096 Q860.3969,671.2002 860.6156,671.2002 Q860.9906,671.2002 861.225,671.4658 Q861.4594,671.7158 861.4594,672.3252 L861.4594,673.7783 Q861.4594,674.3877 861.225,674.6533 Q860.9906,674.9189 860.6156,674.9189 Q860.2719,674.9189 860.0688,674.7158 Q859.8656,674.5283 859.7563,674.0127 Q859.7094,673.6533 859.5219,673.4658 Q859.1938,673.0908 858.5844,672.8721 Q857.975,672.6533 857.35,672.6533 Q856.5844,672.6533 855.9438,672.9814 Q855.3188,673.3096 854.8188,674.0596 Q854.3344,674.8096 854.3344,675.8408 L854.3344,676.9346 Q854.3344,678.1689 855.225,678.9971 Q856.1156,679.8096 857.7094,679.8096 Q858.6469,679.8096 859.3031,679.5596 Q859.6938,679.4033 860.1156,678.9658 Q860.3813,678.7002 860.5219,678.6221 Q860.6781,678.5439 860.8813,678.5439 Q861.2094,678.5439 861.4594,678.8096 Q861.725,679.0596 861.725,679.4033 Q861.725,679.7471 861.3813,680.1533 Q860.8813,680.7314 860.0844,681.0596 Q859.0063,681.5127 857.7094,681.5127 Q856.1938,681.5127 854.9906,680.8877 Q854.0063,680.3877 853.3188,679.3252 Q852.6313,678.2471 852.6313,676.9658 L852.6313,675.8096 Q852.6313,674.4814 853.2406,673.3408 Q853.8656,672.1846 854.9594,671.5752 Q856.0531,670.9502 857.2875,670.9502 Q858.0219,670.9502 858.6625,671.1221 Q859.3188,671.2783 859.8656,671.6377 Z " fill="#000000"/><text fill="#000000" font-family="sans-serif" font-size="14" lengthAdjust="spacing" textLength="62" x="872.9" y="681.5596">Employee</text><line style="stroke:#181818;stroke-width:0.5;" x1="835" x2="945" y1="691.7627" y2="691.7627"/><text fill="#000000" font-family="sans-serif" font-size="14" lengthAdjust="spacing" textLength="100" x="840" y="710.8701">-agency : String</text><text fill="#000000" font-family="sans-serif" font-size="14" lengthAdjust="spacing" textLength="78" x="840" y="729.4912">-role : String</text><line style="stroke:#181818;stroke-width:0.5;" x1="835" x2="945" y1="737.0049" y2="737.0049"/></g><!--class Agent--><g id="elem_Agent"><rect codeLine="43" fill="#F1F1F1" height="48" id="Agent" rx="2.5" ry="2.5" style="stroke:#181818;stroke-width:0.5;" width="69" x="542.5" y="805.7627"/><ellipse cx="557.5" cy="821.7627" fill="#ADD1B2" rx="11" ry="11" style="stroke:#181818;stroke-width:1.0;"/><path d="M560.2656,817.6377 Q560.4219,817.4189 560.6094,817.3096 Q560.7969,817.2002 561.0156,817.2002 Q561.3906,817.2002 561.625,817.4658 Q561.8594,817.7158 561.8594,818.3252 L561.8594,819.7783 Q561.8594,820.3877 561.625,820.6533 Q561.3906,820.9189 561.0156,820.9189 Q560.6719,820.9189 560.4688,820.7158 Q560.2656,820.5283 560.1563,820.0127 Q560.1094,819.6533 559.9219,819.4658 Q559.5938,819.0908 558.9844,818.8721 Q558.375,818.6533 557.75,818.6533 Q556.9844,818.6533 556.3438,818.9814 Q555.7188,819.3096 555.2188,820.0596 Q554.7344,820.8096 554.7344,821.8408 L554.7344,822.9346 Q554.7344,824.1689 555.625,824.9971 Q556.5156,825.8096 558.1094,825.8096 Q559.0469,825.8096 559.7031,825.5596 Q560.0938,825.4033 560.5156,824.9658 Q560.7813,824.7002 560.9219,824.6221 Q561.0781,824.5439 561.2813,824.5439 Q561.6094,824.5439 561.8594,824.8096 Q562.125,825.0596 562.125,825.4033 Q562.125,825.7471 561.7813,826.1533 Q561.2813,826.7314 560.4844,827.0596 Q559.4063,827.5127 558.1094,827.5127 Q556.5938,827.5127 555.3906,826.8877 Q554.4063,826.3877 553.7188,825.3252 Q553.0313,824.2471 553.0313,822.9658 L553.0313,821.8096 Q553.0313,820.4814 553.6406,819.3408 Q554.2656,818.1846 555.3594,817.5752 Q556.4531,816.9502 557.6875,816.9502 Q558.4219,816.9502 559.0625,817.1221 Q559.7188,817.2783 560.2656,817.6377 Z " fill="#000000"/><text fill="#000000" font-family="sans-serif" font-size="14" lengthAdjust="spacing" textLength="37" x="571.5" y="827.5596">Agent</text><line style="stroke:#181818;stroke-width:0.5;" x1="543.5" x2="610.5" y1="837.7627" y2="837.7627"/><line style="stroke:#181818;stroke-width:0.5;" x1="543.5" x2="610.5" y1="845.7627" y2="845.7627"/></g><!--class RegisterOpinion--><g id="elem_RegisterOpinion"><rect codeLine="46" fill="#F1F1F1" height="103.8633" id="RegisterOpinion" rx="2.5" ry="2.5" style="stroke:#181818;stroke-width:0.5;" width="233" x="258.5" y="448.7627"/><ellipse cx="319.75" cy="464.7627" fill="#ADD1B2" rx="11" ry="11" style="stroke:#181818;stroke-width:1.0;"/><path d="M322.5156,460.6377 Q322.6719,460.4189 322.8594,460.3096 Q323.0469,460.2002 323.2656,460.2002 Q323.6406,460.2002 323.875,460.4658 Q324.1094,460.7158 324.1094,461.3252 L324.1094,462.7783 Q324.1094,463.3877 323.875,463.6533 Q323.6406,463.9189 323.2656,463.9189 Q322.9219,463.9189 322.7188,463.7158 Q322.5156,463.5283 322.4063,463.0127 Q322.3594,462.6533 322.1719,462.4658 Q321.8438,462.0908 321.2344,461.8721 Q320.625,461.6533 320,461.6533 Q319.2344,461.6533 318.5938,461.9814 Q317.9688,462.3096 317.4688,463.0596 Q316.9844,463.8096 316.9844,464.8408 L316.9844,465.9346 Q316.9844,467.1689 317.875,467.9971 Q318.7656,468.8096 320.3594,468.8096 Q321.2969,468.8096 321.9531,468.5596 Q322.3438,468.4033 322.7656,467.9658 Q323.0313,467.7002 323.1719,467.6221 Q323.3281,467.5439 323.5313,467.5439 Q323.8594,467.5439 324.1094,467.8096 Q324.375,468.0596 324.375,468.4033 Q324.375,468.7471 324.0313,469.1533 Q323.5313,469.7314 322.7344,470.0596 Q321.6563,470.5127 320.3594,470.5127 Q318.8438,470.5127 317.6406,469.8877 Q316.6563,469.3877 315.9688,468.3252 Q315.2813,467.2471 315.2813,465.9658 L315.2813,464.8096 Q315.2813,463.4814 315.8906,462.3408 Q316.5156,461.1846 317.6094,460.5752 Q318.7031,459.9502 319.9375,459.9502 Q320.6719,459.9502 321.3125,460.1221 Q321.9688,460.2783 322.5156,460.6377 Z " fill="#000000"/><text fill="#000000" font-family="sans-serif" font-size="14" lengthAdjust="spacing" textLength="102" x="340.25" y="470.5596">RegisterOpinion</text><line style="stroke:#181818;stroke-width:0.5;" x1="259.5" x2="490.5" y1="480.7627" y2="480.7627"/><text fill="#000000" font-family="sans-serif" font-size="14" lengthAdjust="spacing" textLength="100" x="264.5" y="499.8701">-opinion : String</text><text fill="#000000" font-family="sans-serif" font-size="14" lengthAdjust="spacing" textLength="134" x="264.5" y="518.4912">-classification : String</text><line style="stroke:#181818;stroke-width:0.5;" x1="259.5" x2="490.5" y1="526.0049" y2="526.0049"/><text fill="#000000" font-family="sans-serif" font-size="14" lengthAdjust="spacing" textLength="221" x="264.5" y="545.1123">addOpinion (opinion, classification)</text></g><!--class VisitRequestRepository--><g id="elem_VisitRequestRepository"><rect codeLine="53" fill="#F1F1F1" height="66.6211" id="VisitRequestRepository" rx="2.5" ry="2.5" style="stroke:#181818;stroke-width:0.5;" width="179" x="601.5" y="265.7627"/><ellipse cx="616.5" cy="281.7627" fill="#ADD1B2" rx="11" ry="11" style="stroke:#181818;stroke-width:1.0;"/><path d="M619.2656,277.6377 Q619.4219,277.4189 619.6094,277.3096 Q619.7969,277.2002 620.0156,277.2002 Q620.3906,277.2002 620.625,277.4658 Q620.8594,277.7158 620.8594,278.3252 L620.8594,279.7783 Q620.8594,280.3877 620.625,280.6533 Q620.3906,280.9189 620.0156,280.9189 Q619.6719,280.9189 619.4688,280.7158 Q619.2656,280.5283 619.1563,280.0127 Q619.1094,279.6533 618.9219,279.4658 Q618.5938,279.0908 617.9844,278.8721 Q617.375,278.6533 616.75,278.6533 Q615.9844,278.6533 615.3438,278.9814 Q614.7188,279.3096 614.2188,280.0596 Q613.7344,280.8096 613.7344,281.8408 L613.7344,282.9346 Q613.7344,284.1689 614.625,284.9971 Q615.5156,285.8096 617.1094,285.8096 Q618.0469,285.8096 618.7031,285.5596 Q619.0938,285.4033 619.5156,284.9658 Q619.7813,284.7002 619.9219,284.6221 Q620.0781,284.5439 620.2813,284.5439 Q620.6094,284.5439 620.8594,284.8096 Q621.125,285.0596 621.125,285.4033 Q621.125,285.7471 620.7813,286.1533 Q620.2813,286.7314 619.4844,287.0596 Q618.4063,287.5127 617.1094,287.5127 Q615.5938,287.5127 614.3906,286.8877 Q613.4063,286.3877 612.7188,285.3252 Q612.0313,284.2471 612.0313,282.9658 L612.0313,281.8096 Q612.0313,280.4814 612.6406,279.3408 Q613.2656,278.1846 614.3594,277.5752 Q615.4531,276.9502 616.6875,276.9502 Q617.4219,276.9502 618.0625,277.1221 Q618.7188,277.2783 619.2656,277.6377 Z " fill="#000000"/><text fill="#000000" font-family="sans-serif" font-size="14" lengthAdjust="spacing" textLength="147" x="630.5" y="287.5596">VisitRequestRepository</text><line style="stroke:#181818;stroke-width:0.5;" x1="602.5" x2="779.5" y1="297.7627" y2="297.7627"/><line style="stroke:#181818;stroke-width:0.5;" x1="602.5" x2="779.5" y1="305.7627" y2="305.7627"/><text fill="#000000" font-family="sans-serif" font-size="14" lengthAdjust="spacing" textLength="139" x="607.5" y="324.8701">+getVisitRequestList()</text></g><!--class Repositories--><g id="elem_Repositories"><rect codeLine="57" fill="#F1F1F1" height="122.4844" id="Repositories" rx="2.5" ry="2.5" style="stroke:#181818;stroke-width:0.5;" width="197" x="900.5" y="55.7627"/><ellipse cx="955.25" cy="71.7627" fill="#ADD1B2" rx="11" ry="11" style="stroke:#181818;stroke-width:1.0;"/><path d="M958.0156,67.6377 Q958.1719,67.4189 958.3594,67.3096 Q958.5469,67.2002 958.7656,67.2002 Q959.1406,67.2002 959.375,67.4658 Q959.6094,67.7158 959.6094,68.3252 L959.6094,69.7783 Q959.6094,70.3877 959.375,70.6533 Q959.1406,70.9189 958.7656,70.9189 Q958.4219,70.9189 958.2188,70.7158 Q958.0156,70.5283 957.9063,70.0127 Q957.8594,69.6533 957.6719,69.4658 Q957.3438,69.0908 956.7344,68.8721 Q956.125,68.6533 955.5,68.6533 Q954.7344,68.6533 954.0938,68.9814 Q953.4688,69.3096 952.9688,70.0596 Q952.4844,70.8096 952.4844,71.8408 L952.4844,72.9346 Q952.4844,74.1689 953.375,74.9971 Q954.2656,75.8096 955.8594,75.8096 Q956.7969,75.8096 957.4531,75.5596 Q957.8438,75.4033 958.2656,74.9658 Q958.5313,74.7002 958.6719,74.6221 Q958.8281,74.5439 959.0313,74.5439 Q959.3594,74.5439 959.6094,74.8096 Q959.875,75.0596 959.875,75.4033 Q959.875,75.7471 959.5313,76.1533 Q959.0313,76.7314 958.2344,77.0596 Q957.1563,77.5127 955.8594,77.5127 Q954.3438,77.5127 953.1406,76.8877 Q952.1563,76.3877 951.4688,75.3252 Q950.7813,74.2471 950.7813,72.9658 L950.7813,71.8096 Q950.7813,70.4814 951.3906,69.3408 Q952.0156,68.1846 953.1094,67.5752 Q954.2031,66.9502 955.4375,66.9502 Q956.1719,66.9502 956.8125,67.1221 Q957.4688,67.2783 958.0156,67.6377 Z " fill="#000000"/><text fill="#000000" font-family="sans-serif" font-size="14" lengthAdjust="spacing" textLength="79" x="975.75" y="77.5596">Repositories</text><line style="stroke:#181818;stroke-width:0.5;" x1="901.5" x2="1096.5" y1="87.7627" y2="87.7627"/><line style="stroke:#181818;stroke-width:0.5;" x1="901.5" x2="1096.5" y1="95.7627" y2="95.7627"/><text fill="#000000" font-family="sans-serif" font-size="14" lengthAdjust="spacing" textLength="94" x="906.5" y="114.8701">-Repositories()</text><text fill="#000000" font-family="sans-serif" font-size="14" lengthAdjust="spacing" textLength="182" x="906.5" y="133.4912">+getInstance() : Repositories</text><text fill="#000000" font-family="sans-serif" font-size="14" lengthAdjust="spacing" textLength="185" x="906.5" y="152.1123">+getVisitRequestRepository()</text><text fill="#000000" font-family="sans-serif" font-size="14" lengthAdjust="spacing" textLength="140" x="906.5" y="170.7334">+getStoreRepository()</text></g><!--class RegisterOpinionController--><g id="elem_RegisterOpinionController"><rect codeLine="64" fill="#F1F1F1" height="122.4844" id="RegisterOpinionController" rx="2.5" ry="2.5" style="stroke:#181818;stroke-width:0.5;" width="447" x="188.5" y="55.7627"/><ellipse cx="325.75" cy="71.7627" fill="#ADD1B2" rx="11" ry="11" style="stroke:#181818;stroke-width:1.0;"/><path d="M328.5156,67.6377 Q328.6719,67.4189 328.8594,67.3096 Q329.0469,67.2002 329.2656,67.2002 Q329.6406,67.2002 329.875,67.4658 Q330.1094,67.7158 330.1094,68.3252 L330.1094,69.7783 Q330.1094,70.3877 329.875,70.6533 Q329.6406,70.9189 329.2656,70.9189 Q328.9219,70.9189 328.7188,70.7158 Q328.5156,70.5283 328.4063,70.0127 Q328.3594,69.6533 328.1719,69.4658 Q327.8438,69.0908 327.2344,68.8721 Q326.625,68.6533 326,68.6533 Q325.2344,68.6533 324.5938,68.9814 Q323.9688,69.3096 323.4688,70.0596 Q322.9844,70.8096 322.9844,71.8408 L322.9844,72.9346 Q322.9844,74.1689 323.875,74.9971 Q324.7656,75.8096 326.3594,75.8096 Q327.2969,75.8096 327.9531,75.5596 Q328.3438,75.4033 328.7656,74.9658 Q329.0313,74.7002 329.1719,74.6221 Q329.3281,74.5439 329.5313,74.5439 Q329.8594,74.5439 330.1094,74.8096 Q330.375,75.0596 330.375,75.4033 Q330.375,75.7471 330.0313,76.1533 Q329.5313,76.7314 328.7344,77.0596 Q327.6563,77.5127 326.3594,77.5127 Q324.8438,77.5127 323.6406,76.8877 Q322.6563,76.3877 321.9688,75.3252 Q321.2813,74.2471 321.2813,72.9658 L321.2813,71.8096 Q321.2813,70.4814 321.8906,69.3408 Q322.5156,68.1846 323.6094,67.5752 Q324.7031,66.9502 325.9375,66.9502 Q326.6719,66.9502 327.3125,67.1221 Q327.9688,67.2783 328.5156,67.6377 Z " fill="#000000"/><text fill="#000000" font-family="sans-serif" font-size="14" lengthAdjust="spacing" textLength="164" x="346.25" y="77.5596">RegisterOpinionController</text><line style="stroke:#181818;stroke-width:0.5;" x1="189.5" x2="634.5" y1="87.7627" y2="87.7627"/><line style="stroke:#181818;stroke-width:0.5;" x1="189.5" x2="634.5" y1="95.7627" y2="95.7627"/><text fill="#000000" font-family="sans-serif" font-size="14" lengthAdjust="spacing" textLength="435" x="194.5" y="114.8701">+RegisterOpinionController(storeRepository, visitRequestRepository)</text><text fill="#000000" font-family="sans-serif" font-size="14" lengthAdjust="spacing" textLength="124" x="194.5" y="133.4912">+getVisitRequests()</text><text fill="#000000" font-family="sans-serif" font-size="14" lengthAdjust="spacing" textLength="225" x="194.5" y="152.1123">+addOpinion(opinion, classification)</text><text fill="#000000" font-family="sans-serif" font-size="14" lengthAdjust="spacing" textLength="155" x="194.5" y="170.7334">-getAgentFromSession()</text></g><!--class RegisterOpinionUI--><g id="elem_RegisterOpinionUI"><rect codeLine="71" fill="#F1F1F1" height="48" id="RegisterOpinionUI" rx="2.5" ry="2.5" style="stroke:#181818;stroke-width:0.5;" width="146" x="7" y="92.7627"/><ellipse cx="22" cy="108.7627" fill="#ADD1B2" rx="11" ry="11" style="stroke:#181818;stroke-width:1.0;"/><path d="M24.7656,104.6377 Q24.9219,104.4189 25.1094,104.3096 Q25.2969,104.2002 25.5156,104.2002 Q25.8906,104.2002 26.125,104.4658 Q26.3594,104.7158 26.3594,105.3252 L26.3594,106.7783 Q26.3594,107.3877 26.125,107.6533 Q25.8906,107.9189 25.5156,107.9189 Q25.1719,107.9189 24.9688,107.7158 Q24.7656,107.5283 24.6563,107.0127 Q24.6094,106.6533 24.4219,106.4658 Q24.0938,106.0908 23.4844,105.8721 Q22.875,105.6533 22.25,105.6533 Q21.4844,105.6533 20.8438,105.9814 Q20.2188,106.3096 19.7188,107.0596 Q19.2344,107.8096 19.2344,108.8408 L19.2344,109.9346 Q19.2344,111.1689 20.125,111.9971 Q21.0156,112.8096 22.6094,112.8096 Q23.5469,112.8096 24.2031,112.5596 Q24.5938,112.4033 25.0156,111.9658 Q25.2813,111.7002 25.4219,111.6221 Q25.5781,111.5439 25.7813,111.5439 Q26.1094,111.5439 26.3594,111.8096 Q26.625,112.0596 26.625,112.4033 Q26.625,112.7471 26.2813,113.1533 Q25.7813,113.7314 24.9844,114.0596 Q23.9063,114.5127 22.6094,114.5127 Q21.0938,114.5127 19.8906,113.8877 Q18.9063,113.3877 18.2188,112.3252 Q17.5313,111.2471 17.5313,109.9658 L17.5313,108.8096 Q17.5313,107.4814 18.1406,106.3408 Q18.7656,105.1846 19.8594,104.5752 Q20.9531,103.9502 22.1875,103.9502 Q22.9219,103.9502 23.5625,104.1221 Q24.2188,104.2783 24.7656,104.6377 Z " fill="#000000"/><text fill="#000000" font-family="sans-serif" font-size="14" lengthAdjust="spacing" textLength="114" x="36" y="114.5596">RegisterOpinionUI</text><line style="stroke:#181818;stroke-width:0.5;" x1="8" x2="152" y1="124.7627" y2="124.7627"/><line style="stroke:#181818;stroke-width:0.5;" x1="8" x2="152" y1="132.7627" y2="132.7627"/></g><g id="elem_GMN14"><path d="M671,94.2627 L671,138.8447 L865,138.8447 L865,104.2627 L855,94.2627 L671,94.2627 " fill="#FEFFDD" style="stroke:#181818;stroke-width:0.5;"/><path d="M855,94.2627 L855,104.2627 L865,104.2627 L855,94.2627 " fill="#FEFFDD" style="stroke:#181818;stroke-width:1.0;"/><text fill="#000000" font-family="sans-serif" font-size="13" lengthAdjust="spacing" textLength="83" x="677" y="113.291">- classification</text><text fill="#000000" font-family="sans-serif" font-size="13" lengthAdjust="spacing" textLength="173" x="677" y="130.582">is retrieved from selected data</text></g><g id="elem_GMN17"><path d="M527,487.2627 L527,514.5537 A0,0 0 0 0 527,514.5537 L773,514.5537 A0,0 0 0 0 773,514.5537 L773,497.2627 L763,487.2627 L656.61,487.2627 L684.23,333.2027 L648.61,487.2627 L527,487.2627 A0,0 0 0 0 527,487.2627 " fill="#FEFFDD" style="stroke:#181818;stroke-width:0.5;"/><path d="M763,487.2627 L763,497.2627 L773,497.2627 L763,487.2627 " fill="#FEFFDD" style="stroke:#181818;stroke-width:0.5;"/><text fill="#000000" font-family="sans-serif" font-size="13" lengthAdjust="spacing" textLength="225" x="533" y="506.291">- used for not allowing duplicate entries</text></g><!--link RegisterOpinionController to GMN14--><g id="link_RegisterOpinionController_GMN14"><path d="M635.72,116.7627 C644.05,116.7627 649.33,116.7627 649.33,116.7627 C649.33,116.7627 658.08,116.7627 670.82,116.7627 " fill="none" id="RegisterOpinionController-GMN14" style="stroke:#181818;stroke-width:1.0;stroke-dasharray:7.0,7.0;"/></g><!--link Repositories to Repositories--><g id="link_Repositories_Repositories"><path codeLine="84" d="M1097.68,98.7027 C1117.95,100.6327 1132.5,106.6527 1132.5,116.7627 C1132.5,126.0027 1120.35,131.8227 1102.77,134.2327 " fill="none" id="Repositories-to-Repositories" style="stroke:#181818;stroke-width:1.0;"/><polygon fill="#181818" points="1097.68,134.8227,1107.0779,137.7688,1102.6473,134.2517,1106.1644,129.8211,1097.68,134.8227" style="stroke:#181818;stroke-width:1.0;"/><text fill="#000000" font-family="sans-serif" font-size="13" lengthAdjust="spacing" textLength="49" x="1138.5" y="122.291">instance</text></g><!--link ApplicationSession to ApplicationSession--><g id="link_ApplicationSession_ApplicationSession"><path codeLine="85" d="M487.66,284.0327 C507.5,284.9327 522.5,290.0127 522.5,299.2627 C522.5,307.7127 509.97,312.6827 492.66,314.1627 " fill="none" id="ApplicationSession-to-ApplicationSession" style="stroke:#181818;stroke-width:1.0;"/><polygon fill="#181818" points="487.66,314.4927,496.9036,317.8922,492.6492,314.1639,496.3775,309.9095,487.66,314.4927" style="stroke:#181818;stroke-width:1.0;"/><text fill="#000000" font-family="sans-serif" font-size="13" lengthAdjust="spacing" textLength="49" x="528.5" y="304.791">instance</text></g><!--link RegisterOpinionUI to RegisterOpinionController--><g id="link_RegisterOpinionUI_RegisterOpinionController"><path codeLine="87" d="M153.2,116.7627 C165.51,116.7627 176.5,116.7627 183.34,116.7627 " fill="none" id="RegisterOpinionUI-to-RegisterOpinionController" style="stroke:#181818;stroke-width:1.0;stroke-dasharray:7.0,7.0;"/><polygon fill="#181818" points="188.38,116.7627,179.38,112.7627,183.38,116.7627,179.38,120.7627,188.38,116.7627" style="stroke:#181818;stroke-width:1.0;"/></g><!--link RegisterOpinionController to Repositories--><g id="link_RegisterOpinionController_Repositories"><path codeLine="89" d="M621.05,55.6427 C682.46,37.6827 733.5,22.7627 733.5,22.7627 C733.5,22.7627 802.5,22.7627 802.5,22.7627 C802.5,22.7627 883,55.7627 883,55.7627 C883,55.7627 887.92,58.3527 895.74,62.4627 " fill="none" id="RegisterOpinionController-to-Repositories" style="stroke:#181818;stroke-width:1.0;stroke-dasharray:7.0,7.0;"/><polygon fill="#181818" points="900.37,64.8927,894.2759,57.1556,895.9476,62.5598,890.5434,64.2315,900.37,64.8927" style="stroke:#181818;stroke-width:1.0;"/><text fill="#000000" font-family="sans-serif" font-size="13" lengthAdjust="spacing" textLength="67" x="734.5" y="21.791">repositories</text></g><!--link Repositories to VisitRequestRepository--><g id="link_Repositories_VisitRequestRepository"><path codeLine="91" d="M900.28,175.6227 C851.21,204.3727 793.52,238.1827 751.15,263.0127 " fill="none" id="Repositories-to-VisitRequestRepository" style="stroke:#181818;stroke-width:1.0;"/><polygon fill="#181818" points="746.58,265.6927,756.3673,264.5928,750.8937,263.1645,752.3221,257.6909,746.58,265.6927" style="stroke:#181818;stroke-width:1.0;"/><text fill="#000000" font-family="sans-serif" font-size="13" lengthAdjust="spacing" textLength="7" x="749.8333" y="254.5044">1</text></g><!--link RegisterOpinionController to RegisterOpinion--><g id="link_RegisterOpinionController_RegisterOpinion"><path codeLine="93" d="M371.75,177.9227 C346.62,215.4927 319,256.7627 319,256.7627 C319,256.7627 319,341.7627 319,341.7627 C319,341.7627 338.98,398.1427 355.08,443.5527 " fill="none" id="RegisterOpinionController-to-RegisterOpinion" style="stroke:#181818;stroke-width:1.0;stroke-dasharray:7.0,7.0;"/><polygon fill="#181818" points="356.82,448.4627,357.5826,438.6434,355.1492,443.7501,350.0425,441.3167,356.82,448.4627" style="stroke:#181818;stroke-width:1.0;"/></g><!--link RegisterOpinionController to VisitRequestRepository--><g id="link_RegisterOpinionController_VisitRequestRepository"><path codeLine="94" d="M504.9,177.8627 C548.47,206.0527 598.88,238.6627 636.24,262.8327 " fill="none" id="RegisterOpinionController-to-VisitRequestRepository" style="stroke:#181818;stroke-width:1.0;stroke-dasharray:7.0,7.0;"/><polygon fill="#181818" points="640.73,265.7427,635.362,257.4853,636.5371,263.0188,631.0037,264.1939,640.73,265.7427" style="stroke:#181818;stroke-width:1.0;"/><text fill="#000000" font-family="sans-serif" font-size="13" lengthAdjust="spacing" textLength="132" x="577" y="222.791">visitRequestRepository</text></g><!--link Repositories to StoreRepository--><g id="link_Repositories_StoreRepository"><path codeLine="96" d="M999,177.8627 C999,201.8927 999,229.1427 999,251.6327 " fill="none" id="Repositories-to-StoreRepository" style="stroke:#181818;stroke-width:1.0;"/><polygon fill="#181818" points="999,256.6427,1003,247.6427,999,251.6427,995,247.6427,999,256.6427" style="stroke:#181818;stroke-width:1.0;"/><text fill="#000000" font-family="sans-serif" font-size="13" lengthAdjust="spacing" textLength="7" x="991.4422" y="245.5277">1</text></g><!--link StoreRepository to Store--><g id="link_StoreRepository_Store"><path codeLine="98" d="M1007.59,342.0827 C1015.57,380.9127 1027.24,437.6627 1034.18,471.4327 " fill="none" id="StoreRepository-to-Store" style="stroke:#181818;stroke-width:1.0;"/><polygon fill="#181818" points="1035.25,476.6527,1037.3696,467.0346,1034.2502,471.7537,1029.5311,468.6343,1035.25,476.6527" style="stroke:#181818;stroke-width:1.0;"/><text fill="#000000" font-family="sans-serif" font-size="13" lengthAdjust="spacing" textLength="5" x="1028.3922" y="465.362">*</text></g><!--link RegisterOpinionController to Store--><g id="link_RegisterOpinionController_Store"><path codeLine="100" d="M616.11,177.7927 C672.24,194.3027 718,207.7627 718,207.7627 C718,207.7627 798,256.7627 798,256.7627 C798,256.7627 874,341.7627 874,341.7627 C874,341.7627 989,420.7627 989,420.7627 C989,420.7627 1007.4,449.2627 1022.09,472.0227 " fill="none" id="RegisterOpinionController-to-Store" style="stroke:#181818;stroke-width:1.0;stroke-dasharray:7.0,7.0;"/><polygon fill="#181818" points="1024.97,476.4827,1023.4445,466.7527,1022.2561,472.2833,1016.7255,471.0949,1024.97,476.4827" style="stroke:#181818;stroke-width:1.0;"/><text fill="#000000" font-family="sans-serif" font-size="13" lengthAdjust="spacing" textLength="29" x="875" y="304.791">store</text><text fill="#000000" font-family="sans-serif" font-size="13" lengthAdjust="spacing" textLength="7" x="1013.4533" y="465.5564">1</text></g><!--link RegisterOpinionController to ApplicationSession--><g id="link_RegisterOpinionController_ApplicationSession"><path codeLine="101" d="M412,177.8627 C412,201.8927 412,229.1427 412,251.6327 " fill="none" id="RegisterOpinionController-to-ApplicationSession" style="stroke:#181818;stroke-width:1.0;stroke-dasharray:7.0,7.0;"/><polygon fill="#181818" points="412,256.6427,416,247.6427,412,251.6427,408,247.6427,412,256.6427" style="stroke:#181818;stroke-width:1.0;"/></g><!--link VisitRequestRepository to RegisterOpinion--><g id="link_VisitRequestRepository_RegisterOpinion"><path codeLine="102" d="M638.09,332.8727 C607.5,351.7327 575,371.7627 575,371.7627 C575,371.7627 513.84,410.9027 459.17,445.8927 " fill="none" id="VisitRequestRepository-to-RegisterOpinion" style="stroke:#181818;stroke-width:1.0;"/><polygon fill="#181818" points="454.91,448.6227,464.6495,447.1591,459.1265,445.9355,460.3501,440.4126,454.91,448.6227" style="stroke:#181818;stroke-width:1.0;"/><text fill="#000000" font-family="sans-serif" font-size="13" lengthAdjust="spacing" textLength="87" x="576" y="386.791">registerOpinion</text><text fill="#000000" font-family="sans-serif" font-size="13" lengthAdjust="spacing" textLength="7" x="621.042" y="354.4615">1</text><text fill="#000000" font-family="sans-serif" font-size="13" lengthAdjust="spacing" textLength="5" x="460.312" y="437.5313">*</text></g><!--link RegisterOpinion to Agent--><g id="link_RegisterOpinion_Agent"><path codeLine="103" d="M406.56,552.8527 C449.84,622.9127 526.09,746.3527 559.96,801.1827 " fill="none" id="RegisterOpinion-to-Agent" style="stroke:#181818;stroke-width:1.0;"/><polygon fill="#181818" points="562.72,805.6427,561.3952,795.8834,560.0931,801.3883,554.5882,800.0863,562.72,805.6427" style="stroke:#181818;stroke-width:1.0;"/><text fill="#000000" font-family="sans-serif" font-size="13" lengthAdjust="spacing" textLength="59" x="525" y="707.791">createdBy</text></g><!--link Company to Store--><g id="link_Company_Store"><path codeLine="104" d="M1143.35,323.5427 C1121.69,360.4827 1079.51,432.3827 1056.3,471.9727 " fill="none" id="Company-to-Store" style="stroke:#181818;stroke-width:1.0;"/><polygon fill="#181818" points="1053.56,476.6327,1061.5618,470.8906,1056.0882,472.319,1054.6599,466.8454,1053.56,476.6327" style="stroke:#181818;stroke-width:1.0;"/><text fill="#000000" font-family="sans-serif" font-size="13" lengthAdjust="spacing" textLength="21" x="1113" y="386.791">has</text><text fill="#000000" font-family="sans-serif" font-size="13" lengthAdjust="spacing" textLength="7" x="1132.3841" y="345.185">1</text><text fill="#000000" font-family="sans-serif" font-size="13" lengthAdjust="spacing" textLength="5" x="1051.3941" y="465.3369">*</text></g><!--reverse link User to Employee--><g id="link_User_Employee"><path codeLine="106" d="M890,600.9927 C890,621.6427 890,642.3327 890,659.5027 " fill="none" id="User-backto-Employee" style="stroke:#181818;stroke-width:1.0;"/><polygon fill="none" points="883,600.8927,890,580.8927,897,600.8927,883,600.8927" style="stroke:#181818;stroke-width:1.0;"/></g><!--reverse link Employee to Agent--><g id="link_Employee_Agent"><path codeLine="107" d="M814.97,733.3427 C750.44,759.2227 660.29,795.3727 611.56,814.9027 " fill="none" id="Employee-backto-Agent" style="stroke:#181818;stroke-width:1.0;"/><polygon fill="none" points="812.51,726.7927,833.68,725.8427,817.72,739.7827,812.51,726.7927" style="stroke:#181818;stroke-width:1.0;"/></g><!--link Store to Employee--><g id="link_Store_Employee"><path codeLine="108" d="M1024.97,525.0427 C1009.93,548.3427 989,580.7627 989,580.7627 C989,580.7627 955.7,621.2927 927.73,655.3427 " fill="none" id="Store-to-Employee" style="stroke:#181818;stroke-width:1.0;"/><polygon fill="#181818" points="924.35,659.4527,933.1557,655.0413,927.5255,655.5906,926.9762,649.9604,924.35,659.4527" style="stroke:#181818;stroke-width:1.0;"/><text fill="#000000" font-family="sans-serif" font-size="13" lengthAdjust="spacing" textLength="49" x="963" y="625.791">employs</text><text fill="#000000" font-family="sans-serif" font-size="13" lengthAdjust="spacing" textLength="5" x="924.227" y="648.6279">*</text></g><!--SRC=[XLLBRzGm4BxxLrXSsj9k1TSLghIiYbG9WTHLkRl9RDQgOmTxKWY5_yxOyJhUFDgSd7byyyt3upFt97KZhAXvRRGf3jRKmD6sm0PD8uedKS4EEmNSGe52LoetS0THcbzILtmlbCirIch0hW7U6DNv7tOsepGM3Sky2YMSso1Q-TWYt1L6x-GVu1yOErEmHuw6MraTa9VIqv56CnPy-APfb2o45-t0EQzvOPo-I-wGn0Ml0EyqdNK1vnTHHR9jQoreZ4wa-NU4tA6nS0-DSP9ENS8Zfqr5Bb-ePBUra2g72quJ5Fuo2BQcReJkSj630yjx-1NNWXgn9ZzBTOqoy64sPMc9vLY7eA0v60tVslgHSDPSQeowGYBLJs-5BMUqA7xFI4KA4mCEF6_hHfaE876buT15DsPaZSeoIDwXQ7dQzr19Xs2_Dr9JxHEgYVyZsE0azx7BWpQeYVKHvZpwNuqyigRyaDJJU_ZPWiEXmu50w6Ak_qeSyuOcUmakKSw5-JWC4qTySwF1P9xBPAPEL4ibt1gDL7sLnkbosUBSdS9UyUTP9XVpL8SqXz8lLxwlKdvpPYxSYEh3NJyisY34Qs_so_dCJaaGIaVBYsO5dg7aUuhD7TsP0kcl52WOw9Bx837Keq4a6uertveOg7KUpLZloeLI_HuistuF0QSyGwC7T7OoEgkRqr7oTx0V5ZPTPjvwHfhvi6drhczUgHPR7fth2JERJ-uaZNSVtosLwhKeKtflM2_SslN2u8w9HgRZjSv6WjxmVJHyAuE4I3J2XNh3VkQTMaZB8n-fZ3UbxyYhbGkU_S9Tyy823MJvkMF7joV7Fh8_26fjU8a-_LsjqgvdQUa7SS3iIvOGaiMQ7Yf_TEm_]--></g></svg>