<?xml version="1.0" encoding="us-ascii" standalone="no"?><svg xmlns="http://www.w3.org/2000/svg" xmlns:xlink="http://www.w3.org/1999/xlink" contentStyleType="text/css" height="585.6px" preserveAspectRatio="none" style="width:989px;height:585px;background:#FFFFFF;" version="1.1" viewBox="0 0 989 585" width="989.4px" zoomAndPan="magnify"><defs/><g><text fill="#000000" font-family="sans-serif" font-size="4.2" font-weight="bold" lengthAdjust="spacing" textLength="56.7" x="466.125" y="9.0322">US012 - Import Legacy Data</text><rect fill="#FFFFFF" height="518.0063" style="stroke:#181818;stroke-width:0.3;" width="3" x="13.35" y="39.9727"/><rect fill="#FFFFFF" height="114.4102" style="stroke:#181818;stroke-width:0.3;" width="3" x="84.15" y="46.96"/><rect fill="#FFFFFF" height="9.3873" style="stroke:#181818;stroke-width:0.3;" width="3" x="84.15" y="170.7574"/><rect fill="#FFFFFF" height="368.4469" style="stroke:#181818;stroke-width:0.3;" width="3" x="84.15" y="189.532"/><rect fill="#FFFFFF" height="92.6355" style="stroke:#181818;stroke-width:0.3;" width="3" x="139.35" y="59.3473"/><rect fill="#FFFFFF" height="345.7723" style="stroke:#181818;stroke-width:0.3;" width="3" x="139.35" y="212.2066"/><rect fill="#FFFFFF" height="9" style="stroke:#181818;stroke-width:0.3;" width="3" x="235.95" y="69.4336"/><rect fill="#FFFFFF" height="9" style="stroke:#181818;stroke-width:0.3;" width="3" x="235.95" y="87.8209"/><rect fill="#FFFFFF" height="9" style="stroke:#181818;stroke-width:0.3;" width="3" x="235.95" y="106.2082"/><rect fill="#FFFFFF" height="9" style="stroke:#181818;stroke-width:0.3;" width="3" x="235.95" y="124.5955"/><rect fill="#FFFFFF" height="9" style="stroke:#181818;stroke-width:0.3;" width="3" x="235.95" y="142.9828"/><rect fill="#FFFFFF" height="9.3873" style="stroke:#181818;stroke-width:0.3;" width="3" x="272.55" y="221.5939"/><rect fill="#FFFFFF" height="22.4736" style="stroke:#181818;stroke-width:0.3;" width="3" x="272.55" y="240.3686"/><rect fill="#FFFFFF" height="22.4736" style="stroke:#181818;stroke-width:0.3;" width="3" x="272.55" y="272.2295"/><rect fill="#FFFFFF" height="22.4736" style="stroke:#181818;stroke-width:0.3;" width="3" x="272.55" y="304.0904"/><rect fill="#FFFFFF" height="22.4736" style="stroke:#181818;stroke-width:0.3;" width="3" x="272.55" y="335.9514"/><rect fill="#FFFFFF" height="22.4736" style="stroke:#181818;stroke-width:0.3;" width="3" x="464.85" y="367.8123"/><rect fill="#FFFFFF" height="31.8609" style="stroke:#181818;stroke-width:0.3;" width="3" x="532.65" y="399.6732"/><rect fill="#FFFFFF" height="9.3873" style="stroke:#181818;stroke-width:0.3;" width="3" x="582.75" y="409.0605"/><rect fill="#FFFFFF" height="31.8609" style="stroke:#181818;stroke-width:0.3;" width="3" x="652.35" y="440.9215"/><rect fill="#FFFFFF" height="9.3873" style="stroke:#181818;stroke-width:0.3;" width="3" x="703.35" y="450.3088"/><rect fill="#FFFFFF" height="54.3346" style="stroke:#181818;stroke-width:0.3;" width="3" x="783.45" y="482.1697"/><rect fill="#FFFFFF" height="9.3873" style="stroke:#181818;stroke-width:0.3;" width="3" x="846.15" y="491.557"/><rect fill="#FFFFFF" height="9.3873" style="stroke:#181818;stroke-width:0.3;" width="3" x="939.75" y="514.0307"/><line style="stroke:#181818;stroke-width:0.15;stroke-dasharray:5.0,5.0;" x1="14.7" x2="14.7" y1="36.9727" y2="560.6789"/><line style="stroke:#181818;stroke-width:0.15;stroke-dasharray:5.0,5.0;" x1="85.5" x2="85.5" y1="36.9727" y2="560.6789"/><line style="stroke:#181818;stroke-width:0.15;stroke-dasharray:5.0,5.0;" x1="140.7" x2="140.7" y1="58.9031" y2="560.6789"/><line style="stroke:#181818;stroke-width:0.15;stroke-dasharray:5.0,5.0;" x1="237.3" x2="237.3" y1="36.9727" y2="560.6789"/><line style="stroke:#181818;stroke-width:0.15;stroke-dasharray:5.0,5.0;" x1="273.9" x2="273.9" y1="36.9727" y2="560.6789"/><line style="stroke:#181818;stroke-width:0.15;stroke-dasharray:5.0,5.0;" x1="311.55" x2="311.55" y1="252.3117" y2="560.6789"/><line style="stroke:#181818;stroke-width:0.15;stroke-dasharray:5.0,5.0;" x1="346.95" x2="346.95" y1="284.1727" y2="560.6789"/><line style="stroke:#181818;stroke-width:0.15;stroke-dasharray:5.0,5.0;" x1="385.05" x2="385.05" y1="316.0336" y2="560.6789"/><line style="stroke:#181818;stroke-width:0.15;stroke-dasharray:5.0,5.0;" x1="422.85" x2="422.85" y1="347.8945" y2="560.6789"/><line style="stroke:#181818;stroke-width:0.15;stroke-dasharray:5.0,5.0;" x1="466.35" x2="466.35" y1="36.9727" y2="560.6789"/><line style="stroke:#181818;stroke-width:0.15;stroke-dasharray:5.0,5.0;" x1="502.05" x2="502.05" y1="379.7555" y2="560.6789"/><line style="stroke:#181818;stroke-width:0.15;stroke-dasharray:5.0,5.0;" x1="534.15" x2="534.15" y1="36.9727" y2="560.6789"/><line style="stroke:#181818;stroke-width:0.15;stroke-dasharray:5.0,5.0;" x1="584.25" x2="584.25" y1="36.9727" y2="560.6789"/><line style="stroke:#181818;stroke-width:0.15;stroke-dasharray:5.0,5.0;" x1="617.25" x2="617.25" y1="421.0037" y2="560.6789"/><line style="stroke:#181818;stroke-width:0.15;stroke-dasharray:5.0,5.0;" x1="653.85" x2="653.85" y1="36.9727" y2="560.6789"/><line style="stroke:#181818;stroke-width:0.15;stroke-dasharray:5.0,5.0;" x1="704.85" x2="704.85" y1="36.9727" y2="560.6789"/><line style="stroke:#181818;stroke-width:0.15;stroke-dasharray:5.0,5.0;" x1="745.65" x2="745.65" y1="462.252" y2="560.6789"/><line style="stroke:#181818;stroke-width:0.15;stroke-dasharray:5.0,5.0;" x1="784.95" x2="784.95" y1="36.9727" y2="560.6789"/><line style="stroke:#181818;stroke-width:0.15;stroke-dasharray:5.0,5.0;" x1="847.65" x2="847.65" y1="36.9727" y2="560.6789"/><line style="stroke:#181818;stroke-width:0.15;stroke-dasharray:5.0,5.0;" x1="887.85" x2="887.85" y1="503.5002" y2="560.6789"/><line style="stroke:#181818;stroke-width:0.15;stroke-dasharray:5.0,5.0;" x1="941.25" x2="941.25" y1="36.9727" y2="560.6789"/><line style="stroke:#181818;stroke-width:0.15;stroke-dasharray:5.0,5.0;" x1="976.95" x2="976.95" y1="525.9738" y2="560.6789"/><text fill="#000000" font-family="sans-serif" font-size="4.2" lengthAdjust="spacing" textLength="24.9" x="1.5" y="35.9186">Administrator</text><ellipse cx="14.85" cy="15.9363" fill="#E2E2F0" rx="2.4" ry="2.4" style="stroke:#181818;stroke-width:0.15;"/><path d="M14.85,18.3363 L14.85,26.4363 M10.95,20.7363 L18.75,20.7363 M14.85,26.4363 L10.95,30.9363 M14.85,26.4363 L18.75,30.9363 " fill="none" style="stroke:#181818;stroke-width:0.15;"/><text fill="#000000" font-family="sans-serif" font-size="4.2" lengthAdjust="spacing" textLength="24.9" x="1.5" y="564.9111">Administrator</text><ellipse cx="14.85" cy="568.5152" fill="#E2E2F0" rx="2.4" ry="2.4" style="stroke:#181818;stroke-width:0.15;"/><path d="M14.85,570.9152 L14.85,579.0152 M10.95,573.3152 L18.75,573.3152 M14.85,579.0152 L10.95,583.5152 M14.85,579.0152 L18.75,583.5152 " fill="none" style="stroke:#181818;stroke-width:0.15;"/><rect fill="#E2E2F0" height="9.7863" rx="0.75" ry="0.75" style="stroke:#181818;stroke-width:0.15;" width="29.7" x="70.8" y="26.8863"/><text fill="#000000" font-family="sans-serif" font-size="4.2" lengthAdjust="spacing" textLength="25.5" x="72.9" y="33.5186">:ImportDataUI</text><rect fill="#E2E2F0" height="9.7863" rx="0.75" ry="0.75" style="stroke:#181818;stroke-width:0.15;" width="29.7" x="70.8" y="560.3789"/><text fill="#000000" font-family="sans-serif" font-size="4.2" lengthAdjust="spacing" textLength="25.5" x="72.9" y="567.0111">:ImportDataUI</text><rect fill="#E2E2F0" height="9.7863" rx="0.75" ry="0.75" style="stroke:#181818;stroke-width:0.15;" width="44.7" x="118.5" y="560.3789"/><text fill="#000000" font-family="sans-serif" font-size="4.2" lengthAdjust="spacing" textLength="40.5" x="120.6" y="567.0111">:ImportDataController</text><rect fill="#E2E2F0" height="9.7863" rx="0.75" ry="0.75" style="stroke:#181818;stroke-width:0.15;" width="29.1" x="222.9" y="26.8863"/><text fill="#000000" font-family="sans-serif" font-size="4.2" lengthAdjust="spacing" textLength="24.9" x="225" y="33.5186">:Repositories</text><rect fill="#E2E2F0" height="9.7863" rx="0.75" ry="0.75" style="stroke:#181818;stroke-width:0.15;" width="29.1" x="222.9" y="560.3789"/><text fill="#000000" font-family="sans-serif" font-size="4.2" lengthAdjust="spacing" textLength="24.9" x="225" y="567.0111">:Repositories</text><rect fill="#E2E2F0" height="9.7863" rx="0.75" ry="0.75" style="stroke:#181818;stroke-width:0.15;" width="38.1" x="255" y="26.8863"/><text fill="#000000" font-family="sans-serif" font-size="4.2" lengthAdjust="spacing" textLength="33.9" x="257.1" y="33.5186">:ImportFileReader</text><rect fill="#E2E2F0" height="9.7863" rx="0.75" ry="0.75" style="stroke:#181818;stroke-width:0.15;" width="38.1" x="255" y="560.3789"/><text fill="#000000" font-family="sans-serif" font-size="4.2" lengthAdjust="spacing" textLength="33.9" x="257.1" y="567.0111">:ImportFileReader</text><rect fill="#E2E2F0" height="9.7863" rx="0.75" ry="0.75" style="stroke:#181818;stroke-width:0.15;" width="25.2" x="298.95" y="560.3789"/><text fill="#000000" font-family="sans-serif" font-size="4.2" lengthAdjust="spacing" textLength="21" x="301.05" y="567.0111">:ClientDTO</text><rect fill="#E2E2F0" height="9.7863" rx="0.75" ry="0.75" style="stroke:#181818;stroke-width:0.15;" width="39.6" x="327.15" y="560.3789"/><text fill="#000000" font-family="sans-serif" font-size="4.2" lengthAdjust="spacing" textLength="35.4" x="329.25" y="567.0111">:StoreNetworkDTO</text><rect fill="#E2E2F0" height="9.7863" rx="0.75" ry="0.75" style="stroke:#181818;stroke-width:0.15;" width="30.6" x="369.75" y="560.3789"/><text fill="#000000" font-family="sans-serif" font-size="4.2" lengthAdjust="spacing" textLength="26.4" x="371.85" y="567.0111">:PropertyDTO</text><rect fill="#E2E2F0" height="9.7863" rx="0.75" ry="0.75" style="stroke:#181818;stroke-width:0.15;" width="39" x="403.35" y="560.3789"/><text fill="#000000" font-family="sans-serif" font-size="4.2" lengthAdjust="spacing" textLength="34.8" x="405.45" y="567.0111">:PropertySoldDTO</text><rect fill="#E2E2F0" height="9.7863" rx="0.75" ry="0.75" style="stroke:#181818;stroke-width:0.15;" width="42" x="445.35" y="26.8863"/><text fill="#000000" font-family="sans-serif" font-size="4.2" lengthAdjust="spacing" textLength="37.8" x="447.45" y="33.5186">:LocationRepository</text><rect fill="#E2E2F0" height="9.7863" rx="0.75" ry="0.75" style="stroke:#181818;stroke-width:0.15;" width="42" x="445.35" y="560.3789"/><text fill="#000000" font-family="sans-serif" font-size="4.2" lengthAdjust="spacing" textLength="37.8" x="447.45" y="567.0111">:LocationRepository</text><rect fill="#E2E2F0" height="9.7863" rx="0.75" ry="0.75" style="stroke:#181818;stroke-width:0.15;" width="21.6" x="491.25" y="560.3789"/><text fill="#000000" font-family="sans-serif" font-size="4.2" lengthAdjust="spacing" textLength="17.4" x="493.35" y="567.0111">:Location</text><rect fill="#E2E2F0" height="9.7863" rx="0.75" ry="0.75" style="stroke:#181818;stroke-width:0.15;" width="36.6" x="515.85" y="26.8863"/><text fill="#000000" font-family="sans-serif" font-size="4.2" lengthAdjust="spacing" textLength="32.4" x="517.95" y="33.5186">:ClientRepository</text><rect fill="#E2E2F0" height="9.7863" rx="0.75" ry="0.75" style="stroke:#181818;stroke-width:0.15;" width="36.6" x="515.85" y="560.3789"/><text fill="#000000" font-family="sans-serif" font-size="4.2" lengthAdjust="spacing" textLength="32.4" x="517.95" y="567.0111">:ClientRepository</text><rect fill="#E2E2F0" height="9.7863" rx="0.75" ry="0.75" style="stroke:#181818;stroke-width:0.15;" width="30.6" x="568.95" y="26.8863"/><text fill="#000000" font-family="sans-serif" font-size="4.2" lengthAdjust="spacing" textLength="26.4" x="571.05" y="33.5186">:ClientMapper</text><rect fill="#E2E2F0" height="9.7863" rx="0.75" ry="0.75" style="stroke:#181818;stroke-width:0.15;" width="30.6" x="568.95" y="560.3789"/><text fill="#000000" font-family="sans-serif" font-size="4.2" lengthAdjust="spacing" textLength="26.4" x="571.05" y="567.0111">:ClientMapper</text><rect fill="#E2E2F0" height="9.7863" rx="0.75" ry="0.75" style="stroke:#181818;stroke-width:0.15;" width="16.2" x="609.15" y="560.3789"/><text fill="#000000" font-family="sans-serif" font-size="4.2" lengthAdjust="spacing" textLength="12" x="611.25" y="567.0111">:Client</text><rect fill="#E2E2F0" height="9.7863" rx="0.75" ry="0.75" style="stroke:#181818;stroke-width:0.15;" width="51" x="628.35" y="26.8863"/><text fill="#000000" font-family="sans-serif" font-size="4.2" lengthAdjust="spacing" textLength="46.8" x="630.45" y="33.5186">:StoreNetworkRepository</text><rect fill="#E2E2F0" height="9.7863" rx="0.75" ry="0.75" style="stroke:#181818;stroke-width:0.15;" width="51" x="628.35" y="560.3789"/><text fill="#000000" font-family="sans-serif" font-size="4.2" lengthAdjust="spacing" textLength="46.8" x="630.45" y="567.0111">:StoreNetworkRepository</text><rect fill="#E2E2F0" height="9.7863" rx="0.75" ry="0.75" style="stroke:#181818;stroke-width:0.15;" width="45" x="682.35" y="26.8863"/><text fill="#000000" font-family="sans-serif" font-size="4.2" lengthAdjust="spacing" textLength="40.8" x="684.45" y="33.5186">:StoreNetworkMapper</text><rect fill="#E2E2F0" height="9.7863" rx="0.75" ry="0.75" style="stroke:#181818;stroke-width:0.15;" width="45" x="682.35" y="560.3789"/><text fill="#000000" font-family="sans-serif" font-size="4.2" lengthAdjust="spacing" textLength="40.8" x="684.45" y="567.0111">:StoreNetworkMapper</text><rect fill="#E2E2F0" height="9.7863" rx="0.75" ry="0.75" style="stroke:#181818;stroke-width:0.15;" width="30.6" x="730.35" y="560.3789"/><text fill="#000000" font-family="sans-serif" font-size="4.2" lengthAdjust="spacing" textLength="26.4" x="732.45" y="567.0111">:StoreNetwork</text><rect fill="#E2E2F0" height="9.7863" rx="0.75" ry="0.75" style="stroke:#181818;stroke-width:0.15;" width="42" x="763.95" y="26.8863"/><text fill="#000000" font-family="sans-serif" font-size="4.2" lengthAdjust="spacing" textLength="37.8" x="766.05" y="33.5186">:PropertyRepository</text><rect fill="#E2E2F0" height="9.7863" rx="0.75" ry="0.75" style="stroke:#181818;stroke-width:0.15;" width="42" x="763.95" y="560.3789"/><text fill="#000000" font-family="sans-serif" font-size="4.2" lengthAdjust="spacing" textLength="37.8" x="766.05" y="567.0111">:PropertyRepository</text><rect fill="#E2E2F0" height="9.7863" rx="0.75" ry="0.75" style="stroke:#181818;stroke-width:0.15;" width="44.4" x="825.45" y="26.8863"/><text fill="#000000" font-family="sans-serif" font-size="4.2" lengthAdjust="spacing" textLength="40.2" x="827.55" y="33.5186">:PropertySoldMapper</text><rect fill="#E2E2F0" height="9.7863" rx="0.75" ry="0.75" style="stroke:#181818;stroke-width:0.15;" width="44.4" x="825.45" y="560.3789"/><text fill="#000000" font-family="sans-serif" font-size="4.2" lengthAdjust="spacing" textLength="40.2" x="827.55" y="567.0111">:PropertySoldMapper</text><rect fill="#E2E2F0" height="9.7863" rx="0.75" ry="0.75" style="stroke:#181818;stroke-width:0.15;" width="30" x="872.85" y="560.3789"/><text fill="#000000" font-family="sans-serif" font-size="4.2" lengthAdjust="spacing" textLength="25.8" x="874.95" y="567.0111">:PropertySold</text><rect fill="#E2E2F0" height="9.7863" rx="0.75" ry="0.75" style="stroke:#181818;stroke-width:0.15;" width="36" x="923.25" y="26.8863"/><text fill="#000000" font-family="sans-serif" font-size="4.2" lengthAdjust="spacing" textLength="31.8" x="925.35" y="33.5186">:PropertyMapper</text><rect fill="#E2E2F0" height="9.7863" rx="0.75" ry="0.75" style="stroke:#181818;stroke-width:0.15;" width="36" x="923.25" y="560.3789"/><text fill="#000000" font-family="sans-serif" font-size="4.2" lengthAdjust="spacing" textLength="31.8" x="925.35" y="567.0111">:PropertyMapper</text><rect fill="#E2E2F0" height="9.7863" rx="0.75" ry="0.75" style="stroke:#181818;stroke-width:0.15;" width="21.6" x="966.15" y="560.3789"/><text fill="#000000" font-family="sans-serif" font-size="4.2" lengthAdjust="spacing" textLength="17.4" x="968.25" y="567.0111">:Property</text><rect fill="#FFFFFF" height="518.0063" style="stroke:#181818;stroke-width:0.3;" width="3" x="13.35" y="39.9727"/><rect fill="#FFFFFF" height="114.4102" style="stroke:#181818;stroke-width:0.3;" width="3" x="84.15" y="46.96"/><rect fill="#FFFFFF" height="9.3873" style="stroke:#181818;stroke-width:0.3;" width="3" x="84.15" y="170.7574"/><rect fill="#FFFFFF" height="368.4469" style="stroke:#181818;stroke-width:0.3;" width="3" x="84.15" y="189.532"/><rect fill="#FFFFFF" height="92.6355" style="stroke:#181818;stroke-width:0.3;" width="3" x="139.35" y="59.3473"/><rect fill="#FFFFFF" height="345.7723" style="stroke:#181818;stroke-width:0.3;" width="3" x="139.35" y="212.2066"/><rect fill="#FFFFFF" height="9" style="stroke:#181818;stroke-width:0.3;" width="3" x="235.95" y="69.4336"/><rect fill="#FFFFFF" height="9" style="stroke:#181818;stroke-width:0.3;" width="3" x="235.95" y="87.8209"/><rect fill="#FFFFFF" height="9" style="stroke:#181818;stroke-width:0.3;" width="3" x="235.95" y="106.2082"/><rect fill="#FFFFFF" height="9" style="stroke:#181818;stroke-width:0.3;" width="3" x="235.95" y="124.5955"/><rect fill="#FFFFFF" height="9" style="stroke:#181818;stroke-width:0.3;" width="3" x="235.95" y="142.9828"/><rect fill="#FFFFFF" height="9.3873" style="stroke:#181818;stroke-width:0.3;" width="3" x="272.55" y="221.5939"/><rect fill="#FFFFFF" height="22.4736" style="stroke:#181818;stroke-width:0.3;" width="3" x="272.55" y="240.3686"/><rect fill="#FFFFFF" height="22.4736" style="stroke:#181818;stroke-width:0.3;" width="3" x="272.55" y="272.2295"/><rect fill="#FFFFFF" height="22.4736" style="stroke:#181818;stroke-width:0.3;" width="3" x="272.55" y="304.0904"/><rect fill="#FFFFFF" height="22.4736" style="stroke:#181818;stroke-width:0.3;" width="3" x="272.55" y="335.9514"/><rect fill="#FFFFFF" height="22.4736" style="stroke:#181818;stroke-width:0.3;" width="3" x="464.85" y="367.8123"/><rect fill="#FFFFFF" height="31.8609" style="stroke:#181818;stroke-width:0.3;" width="3" x="532.65" y="399.6732"/><rect fill="#FFFFFF" height="9.3873" style="stroke:#181818;stroke-width:0.3;" width="3" x="582.75" y="409.0605"/><rect fill="#FFFFFF" height="31.8609" style="stroke:#181818;stroke-width:0.3;" width="3" x="652.35" y="440.9215"/><rect fill="#FFFFFF" height="9.3873" style="stroke:#181818;stroke-width:0.3;" width="3" x="703.35" y="450.3088"/><rect fill="#FFFFFF" height="54.3346" style="stroke:#181818;stroke-width:0.3;" width="3" x="783.45" y="482.1697"/><rect fill="#FFFFFF" height="9.3873" style="stroke:#181818;stroke-width:0.3;" width="3" x="846.15" y="491.557"/><rect fill="#FFFFFF" height="9.3873" style="stroke:#181818;stroke-width:0.3;" width="3" x="939.75" y="514.0307"/><polygon fill="#181818" points="80.55,45.76,83.55,46.96,80.55,48.16,81.75,46.96" style="stroke:#181818;stroke-width:0.3;"/><line style="stroke:#181818;stroke-width:0.3;" x1="16.35" x2="82.35" y1="46.96" y2="46.96"/><text fill="#000000" font-family="sans-serif" font-size="3.9" font-weight="bold" lengthAdjust="spacing" textLength="2.1" x="18.45" y="45.3812">1</text><text fill="#000000" font-family="sans-serif" font-size="3.9" lengthAdjust="spacing" textLength="46.2" x="21.75" y="45.3812">asks to import legacy data</text><polygon fill="#181818" points="114.9,55.1473,117.9,56.3473,114.9,57.5473,116.1,56.3473" style="stroke:#181818;stroke-width:0.3;"/><line style="stroke:#181818;stroke-width:0.3;" x1="87.15" x2="116.7" y1="56.3473" y2="56.3473"/><text fill="#000000" font-family="sans-serif" font-size="3.9" font-weight="bold" lengthAdjust="spacing" textLength="2.1" x="89.25" y="54.7685">2</text><text fill="#000000" font-family="sans-serif" font-size="3.9" lengthAdjust="spacing" textLength="10.8" x="92.55" y="54.7685">create</text><rect fill="#E2E2F0" height="9.7863" rx="0.75" ry="0.75" style="stroke:#181818;stroke-width:0.15;" width="44.7" x="118.5" y="49.36"/><text fill="#000000" font-family="sans-serif" font-size="4.2" lengthAdjust="spacing" textLength="40.5" x="120.6" y="55.9922">:ImportDataController</text><polygon fill="#181818" points="232.35,68.2336,235.35,69.4336,232.35,70.6336,233.55,69.4336" style="stroke:#181818;stroke-width:0.3;"/><line style="stroke:#181818;stroke-width:0.3;" x1="142.35" x2="234.15" y1="69.4336" y2="69.4336"/><text fill="#000000" font-family="sans-serif" font-size="3.9" font-weight="bold" lengthAdjust="spacing" textLength="2.1" x="144.45" y="67.8548">3</text><text fill="#000000" font-family="sans-serif" font-size="3.9" lengthAdjust="spacing" textLength="34.8" x="147.75" y="67.8548">repo = getInstance()</text><polygon fill="#181818" points="232.35,86.6209,235.35,87.8209,232.35,89.0209,233.55,87.8209" style="stroke:#181818;stroke-width:0.3;"/><line style="stroke:#181818;stroke-width:0.3;" x1="142.35" x2="234.15" y1="87.8209" y2="87.8209"/><text fill="#000000" font-family="sans-serif" font-size="3.9" font-weight="bold" lengthAdjust="spacing" textLength="2.1" x="144.45" y="86.2421">4</text><text fill="#000000" font-family="sans-serif" font-size="3.9" lengthAdjust="spacing" textLength="70.5" x="147.75" y="86.2421">locationRepo = getLocationsRepository()</text><polygon fill="#181818" points="232.35,105.0082,235.35,106.2082,232.35,107.4082,233.55,106.2082" style="stroke:#181818;stroke-width:0.3;"/><line style="stroke:#181818;stroke-width:0.3;" x1="142.35" x2="234.15" y1="106.2082" y2="106.2082"/><text fill="#000000" font-family="sans-serif" font-size="3.9" font-weight="bold" lengthAdjust="spacing" textLength="2.1" x="144.45" y="104.6294">5</text><text fill="#000000" font-family="sans-serif" font-size="3.9" lengthAdjust="spacing" textLength="78.3" x="147.75" y="104.6294">storeNetRepo = getStoreNetworkRepository()</text><polygon fill="#181818" points="232.35,123.3955,235.35,124.5955,232.35,125.7955,233.55,124.5955" style="stroke:#181818;stroke-width:0.3;"/><line style="stroke:#181818;stroke-width:0.3;" x1="142.35" x2="234.15" y1="124.5955" y2="124.5955"/><text fill="#000000" font-family="sans-serif" font-size="3.9" font-weight="bold" lengthAdjust="spacing" textLength="2.1" x="144.45" y="123.0167">6</text><text fill="#000000" font-family="sans-serif" font-size="3.9" lengthAdjust="spacing" textLength="84.6" x="147.75" y="123.0167">propertySoldRepo = getPropertySoldRepository()</text><polygon fill="#181818" points="232.35,141.7828,235.35,142.9828,232.35,144.1828,233.55,142.9828" style="stroke:#181818;stroke-width:0.3;"/><line style="stroke:#181818;stroke-width:0.3;" x1="142.35" x2="234.15" y1="142.9828" y2="142.9828"/><text fill="#000000" font-family="sans-serif" font-size="3.9" font-weight="bold" lengthAdjust="spacing" textLength="2.1" x="144.45" y="141.404">7</text><text fill="#000000" font-family="sans-serif" font-size="3.9" lengthAdjust="spacing" textLength="59.4" x="147.75" y="141.404">clientRepo = getClientRepository()</text><polygon fill="#181818" points="19.65,160.1701,16.65,161.3701,19.65,162.5701,18.45,161.3701" style="stroke:#181818;stroke-width:0.3;"/><line style="stroke:#181818;stroke-width:0.3;stroke-dasharray:2.0,2.0;" x1="17.85" x2="85.35" y1="161.3701" y2="161.3701"/><text fill="#000000" font-family="sans-serif" font-size="3.9" font-weight="bold" lengthAdjust="spacing" textLength="2.1" x="21.45" y="159.7913">8</text><text fill="#000000" font-family="sans-serif" font-size="3.9" lengthAdjust="spacing" textLength="28.5" x="24.75" y="159.7913">asks for file path</text><polygon fill="#181818" points="80.55,169.5574,83.55,170.7574,80.55,171.9574,81.75,170.7574" style="stroke:#181818;stroke-width:0.3;"/><line style="stroke:#181818;stroke-width:0.3;" x1="16.35" x2="82.35" y1="170.7574" y2="170.7574"/><text fill="#000000" font-family="sans-serif" font-size="3.9" font-weight="bold" lengthAdjust="spacing" textLength="2.1" x="18.45" y="169.1786">9</text><text fill="#000000" font-family="sans-serif" font-size="3.9" lengthAdjust="spacing" textLength="28.8" x="21.75" y="169.1786">provides file path</text><polygon fill="#181818" points="19.65,178.9447,16.65,180.1447,19.65,181.3447,18.45,180.1447" style="stroke:#181818;stroke-width:0.3;"/><line style="stroke:#181818;stroke-width:0.3;stroke-dasharray:2.0,2.0;" x1="17.85" x2="85.35" y1="180.1447" y2="180.1447"/><text fill="#000000" font-family="sans-serif" font-size="3.9" font-weight="bold" lengthAdjust="spacing" textLength="4.2" x="21.45" y="178.5659">10</text><text fill="#000000" font-family="sans-serif" font-size="3.9" lengthAdjust="spacing" textLength="32.7" x="26.85" y="178.5659">asks to confirm file</text><polygon fill="#181818" points="80.55,188.332,83.55,189.532,80.55,190.732,81.75,189.532" style="stroke:#181818;stroke-width:0.3;"/><line style="stroke:#181818;stroke-width:0.3;" x1="16.35" x2="82.35" y1="189.532" y2="189.532"/><text fill="#000000" font-family="sans-serif" font-size="3.9" font-weight="bold" lengthAdjust="spacing" textLength="4.2" x="18.45" y="187.9532">11</text><text fill="#000000" font-family="sans-serif" font-size="3.9" lengthAdjust="spacing" textLength="20.7" x="23.85" y="187.9532">confirms file</text><line style="stroke:#181818;stroke-width:0.3;" x1="87.15" x2="99.75" y1="198.9193" y2="198.9193"/><line style="stroke:#181818;stroke-width:0.3;" x1="99.75" x2="99.75" y1="198.9193" y2="202.8193"/><line style="stroke:#181818;stroke-width:0.3;" x1="87.45" x2="99.75" y1="202.8193" y2="202.8193"/><polygon fill="#181818" points="90.45,201.6193,87.45,202.8193,90.45,204.0193,89.25,202.8193" style="stroke:#181818;stroke-width:0.3;"/><text fill="#000000" font-family="sans-serif" font-size="3.9" font-weight="bold" lengthAdjust="spacing" textLength="4.2" x="89.25" y="197.3405">12</text><text fill="#000000" font-family="sans-serif" font-size="3.9" lengthAdjust="spacing" textLength="42.6" x="94.65" y="197.3405">validateFilePath(filePath)</text><polygon fill="#181818" points="135.75,211.0066,138.75,212.2066,135.75,213.4066,136.95,212.2066" style="stroke:#181818;stroke-width:0.3;"/><line style="stroke:#181818;stroke-width:0.3;" x1="87.15" x2="137.55" y1="212.2066" y2="212.2066"/><text fill="#000000" font-family="sans-serif" font-size="3.9" font-weight="bold" lengthAdjust="spacing" textLength="4.2" x="89.25" y="210.6278">13</text><text fill="#000000" font-family="sans-serif" font-size="3.9" lengthAdjust="spacing" textLength="34.2" x="94.65" y="210.6278">importData(filePath)</text><polygon fill="#181818" points="268.95,220.3939,271.95,221.5939,268.95,222.7939,270.15,221.5939" style="stroke:#181818;stroke-width:0.3;"/><line style="stroke:#181818;stroke-width:0.3;" x1="142.35" x2="270.75" y1="221.5939" y2="221.5939"/><text fill="#000000" font-family="sans-serif" font-size="3.9" font-weight="bold" lengthAdjust="spacing" textLength="4.2" x="144.45" y="220.0151">14</text><text fill="#000000" font-family="sans-serif" font-size="3.9" lengthAdjust="spacing" textLength="37.5" x="149.85" y="220.0151">readLocation(filePath)</text><polygon fill="#181818" points="145.65,229.7813,142.65,230.9813,145.65,232.1812,144.45,230.9813" style="stroke:#181818;stroke-width:0.3;"/><line style="stroke:#181818;stroke-width:0.3;stroke-dasharray:2.0,2.0;" x1="143.85" x2="273.75" y1="230.9813" y2="230.9813"/><text fill="#000000" font-family="sans-serif" font-size="3.9" font-weight="bold" lengthAdjust="spacing" textLength="4.2" x="147.45" y="229.4024">15</text><text fill="#000000" font-family="sans-serif" font-size="3.9" lengthAdjust="spacing" textLength="19.8" x="152.85" y="229.4024">locationList</text><polygon fill="#181818" points="268.95,239.1686,271.95,240.3686,268.95,241.5686,270.15,240.3686" style="stroke:#181818;stroke-width:0.3;"/><line style="stroke:#181818;stroke-width:0.3;" x1="142.35" x2="270.75" y1="240.3686" y2="240.3686"/><text fill="#000000" font-family="sans-serif" font-size="3.9" font-weight="bold" lengthAdjust="spacing" textLength="4.2" x="144.45" y="238.7897">16</text><text fill="#000000" font-family="sans-serif" font-size="3.9" lengthAdjust="spacing" textLength="40.8" x="149.85" y="238.7897">readClientData(filePath)</text><polygon fill="#181818" points="295.35,248.5559,298.35,249.7559,295.35,250.9559,296.55,249.7559" style="stroke:#181818;stroke-width:0.3;"/><line style="stroke:#181818;stroke-width:0.3;" x1="275.55" x2="297.15" y1="249.7559" y2="249.7559"/><text fill="#000000" font-family="sans-serif" font-size="3.9" font-weight="bold" lengthAdjust="spacing" textLength="4.2" x="277.65" y="248.1771">17</text><text fill="#000000" font-family="sans-serif" font-size="3.9" lengthAdjust="spacing" textLength="10.8" x="283.05" y="248.1771">create</text><rect fill="#E2E2F0" height="9.7863" rx="0.75" ry="0.75" style="stroke:#181818;stroke-width:0.15;" width="25.2" x="298.95" y="242.7686"/><text fill="#000000" font-family="sans-serif" font-size="4.2" lengthAdjust="spacing" textLength="21" x="301.05" y="249.4008">:ClientDTO</text><polygon fill="#181818" points="145.65,261.6422,142.65,262.8422,145.65,264.0422,144.45,262.8422" style="stroke:#181818;stroke-width:0.3;"/><line style="stroke:#181818;stroke-width:0.3;stroke-dasharray:2.0,2.0;" x1="143.85" x2="273.75" y1="262.8422" y2="262.8422"/><text fill="#000000" font-family="sans-serif" font-size="3.9" font-weight="bold" lengthAdjust="spacing" textLength="4.2" x="147.45" y="261.2634">18</text><text fill="#000000" font-family="sans-serif" font-size="3.9" lengthAdjust="spacing" textLength="17.1" x="152.85" y="261.2634">clientDTO</text><polygon fill="#181818" points="268.95,271.0295,271.95,272.2295,268.95,273.4295,270.15,272.2295" style="stroke:#181818;stroke-width:0.3;"/><line style="stroke:#181818;stroke-width:0.3;" x1="142.35" x2="270.75" y1="272.2295" y2="272.2295"/><text fill="#000000" font-family="sans-serif" font-size="3.9" font-weight="bold" lengthAdjust="spacing" textLength="4.2" x="144.45" y="270.6507">19</text><text fill="#000000" font-family="sans-serif" font-size="3.9" lengthAdjust="spacing" textLength="40.2" x="149.85" y="270.6507">readStoreData(filePath)</text><polygon fill="#181818" points="323.55,280.4168,326.55,281.6168,323.55,282.8168,324.75,281.6168" style="stroke:#181818;stroke-width:0.3;"/><line style="stroke:#181818;stroke-width:0.3;" x1="275.55" x2="325.35" y1="281.6168" y2="281.6168"/><text fill="#000000" font-family="sans-serif" font-size="3.9" font-weight="bold" lengthAdjust="spacing" textLength="4.2" x="277.65" y="280.038">20</text><text fill="#000000" font-family="sans-serif" font-size="3.9" lengthAdjust="spacing" textLength="10.8" x="283.05" y="280.038">create</text><rect fill="#E2E2F0" height="9.7863" rx="0.75" ry="0.75" style="stroke:#181818;stroke-width:0.15;" width="39.6" x="327.15" y="274.6295"/><text fill="#000000" font-family="sans-serif" font-size="4.2" lengthAdjust="spacing" textLength="35.4" x="329.25" y="281.2617">:StoreNetworkDTO</text><polygon fill="#181818" points="145.65,293.5031,142.65,294.7031,145.65,295.9031,144.45,294.7031" style="stroke:#181818;stroke-width:0.3;"/><line style="stroke:#181818;stroke-width:0.3;stroke-dasharray:2.0,2.0;" x1="143.85" x2="273.75" y1="294.7031" y2="294.7031"/><text fill="#000000" font-family="sans-serif" font-size="3.9" font-weight="bold" lengthAdjust="spacing" textLength="4.2" x="147.45" y="293.1243">21</text><text fill="#000000" font-family="sans-serif" font-size="3.9" lengthAdjust="spacing" textLength="16.5" x="152.85" y="293.1243">storeDTO</text><polygon fill="#181818" points="268.95,302.8904,271.95,304.0904,268.95,305.2904,270.15,304.0904" style="stroke:#181818;stroke-width:0.3;"/><line style="stroke:#181818;stroke-width:0.3;" x1="142.35" x2="270.75" y1="304.0904" y2="304.0904"/><text fill="#000000" font-family="sans-serif" font-size="3.9" font-weight="bold" lengthAdjust="spacing" textLength="4.2" x="144.45" y="302.5116">22</text><text fill="#000000" font-family="sans-serif" font-size="3.9" lengthAdjust="spacing" textLength="45.6" x="149.85" y="302.5116">readPropertyData(filePath)</text><polygon fill="#181818" points="366.15,312.2777,369.15,313.4777,366.15,314.6777,367.35,313.4777" style="stroke:#181818;stroke-width:0.3;"/><line style="stroke:#181818;stroke-width:0.3;" x1="275.55" x2="367.95" y1="313.4777" y2="313.4777"/><text fill="#000000" font-family="sans-serif" font-size="3.9" font-weight="bold" lengthAdjust="spacing" textLength="4.2" x="277.65" y="311.8989">23</text><text fill="#000000" font-family="sans-serif" font-size="3.9" lengthAdjust="spacing" textLength="10.8" x="283.05" y="311.8989">create</text><rect fill="#E2E2F0" height="9.7863" rx="0.75" ry="0.75" style="stroke:#181818;stroke-width:0.15;" width="30.6" x="369.75" y="306.4904"/><text fill="#000000" font-family="sans-serif" font-size="4.2" lengthAdjust="spacing" textLength="26.4" x="371.85" y="313.1227">:PropertyDTO</text><polygon fill="#181818" points="145.65,325.3641,142.65,326.5641,145.65,327.7641,144.45,326.5641" style="stroke:#181818;stroke-width:0.3;"/><line style="stroke:#181818;stroke-width:0.3;stroke-dasharray:2.0,2.0;" x1="143.85" x2="273.75" y1="326.5641" y2="326.5641"/><text fill="#000000" font-family="sans-serif" font-size="3.9" font-weight="bold" lengthAdjust="spacing" textLength="4.2" x="147.45" y="324.9853">24</text><text fill="#000000" font-family="sans-serif" font-size="3.9" lengthAdjust="spacing" textLength="21.9" x="152.85" y="324.9853">propertyDTO</text><polygon fill="#181818" points="268.95,334.7514,271.95,335.9514,268.95,337.1514,270.15,335.9514" style="stroke:#181818;stroke-width:0.3;"/><line style="stroke:#181818;stroke-width:0.3;" x1="142.35" x2="270.75" y1="335.9514" y2="335.9514"/><text fill="#000000" font-family="sans-serif" font-size="3.9" font-weight="bold" lengthAdjust="spacing" textLength="4.2" x="144.45" y="334.3726">25</text><text fill="#000000" font-family="sans-serif" font-size="3.9" lengthAdjust="spacing" textLength="53.4" x="149.85" y="334.3726">readPropertySoldData(filePath)</text><polygon fill="#181818" points="399.75,344.1387,402.75,345.3387,399.75,346.5387,400.95,345.3387" style="stroke:#181818;stroke-width:0.3;"/><line style="stroke:#181818;stroke-width:0.3;" x1="275.55" x2="401.55" y1="345.3387" y2="345.3387"/><text fill="#000000" font-family="sans-serif" font-size="3.9" font-weight="bold" lengthAdjust="spacing" textLength="4.2" x="277.65" y="343.7599">26</text><text fill="#000000" font-family="sans-serif" font-size="3.9" lengthAdjust="spacing" textLength="10.8" x="283.05" y="343.7599">create</text><rect fill="#E2E2F0" height="9.7863" rx="0.75" ry="0.75" style="stroke:#181818;stroke-width:0.15;" width="39" x="403.35" y="338.3514"/><text fill="#000000" font-family="sans-serif" font-size="4.2" lengthAdjust="spacing" textLength="34.8" x="405.45" y="344.9836">:PropertySoldDTO</text><polygon fill="#181818" points="145.65,357.225,142.65,358.425,145.65,359.625,144.45,358.425" style="stroke:#181818;stroke-width:0.3;"/><line style="stroke:#181818;stroke-width:0.3;stroke-dasharray:2.0,2.0;" x1="143.85" x2="273.75" y1="358.425" y2="358.425"/><text fill="#000000" font-family="sans-serif" font-size="3.9" font-weight="bold" lengthAdjust="spacing" textLength="4.2" x="147.45" y="356.8462">27</text><text fill="#000000" font-family="sans-serif" font-size="3.9" lengthAdjust="spacing" textLength="29.7" x="152.85" y="356.8462">propertySoldDTO</text><polygon fill="#181818" points="461.25,366.6123,464.25,367.8123,461.25,369.0123,462.45,367.8123" style="stroke:#181818;stroke-width:0.3;"/><line style="stroke:#181818;stroke-width:0.3;" x1="142.35" x2="463.05" y1="367.8123" y2="367.8123"/><text fill="#000000" font-family="sans-serif" font-size="3.9" font-weight="bold" lengthAdjust="spacing" textLength="4.2" x="144.45" y="366.2335">28</text><text fill="#000000" font-family="sans-serif" font-size="3.9" lengthAdjust="spacing" textLength="67.2" x="149.85" y="366.2335">addLocationsThroughData(locationList)</text><polygon fill="#181818" points="487.65,375.9996,490.65,377.1996,487.65,378.3996,488.85,377.1996" style="stroke:#181818;stroke-width:0.3;"/><line style="stroke:#181818;stroke-width:0.3;" x1="467.85" x2="489.45" y1="377.1996" y2="377.1996"/><text fill="#000000" font-family="sans-serif" font-size="3.9" font-weight="bold" lengthAdjust="spacing" textLength="4.2" x="469.95" y="375.6208">29</text><text fill="#000000" font-family="sans-serif" font-size="3.9" lengthAdjust="spacing" textLength="10.8" x="475.35" y="375.6208">create</text><rect fill="#E2E2F0" height="9.7863" rx="0.75" ry="0.75" style="stroke:#181818;stroke-width:0.15;" width="21.6" x="491.25" y="370.2123"/><text fill="#000000" font-family="sans-serif" font-size="4.2" lengthAdjust="spacing" textLength="17.4" x="493.35" y="376.8445">:Location</text><polygon fill="#181818" points="145.65,389.0859,142.65,390.2859,145.65,391.4859,144.45,390.2859" style="stroke:#181818;stroke-width:0.3;"/><line style="stroke:#181818;stroke-width:0.3;stroke-dasharray:2.0,2.0;" x1="143.85" x2="466.05" y1="390.2859" y2="390.2859"/><text fill="#000000" font-family="sans-serif" font-size="3.9" font-weight="bold" lengthAdjust="spacing" textLength="4.2" x="147.45" y="388.7071">30</text><text fill="#000000" font-family="sans-serif" font-size="3.9" lengthAdjust="spacing" textLength="19.8" x="152.85" y="388.7071">locationList</text><polygon fill="#181818" points="529.05,398.4732,532.05,399.6732,529.05,400.8732,530.25,399.6732" style="stroke:#181818;stroke-width:0.3;"/><line style="stroke:#181818;stroke-width:0.3;" x1="142.35" x2="530.85" y1="399.6732" y2="399.6732"/><text fill="#000000" font-family="sans-serif" font-size="3.9" font-weight="bold" lengthAdjust="spacing" textLength="4.2" x="144.45" y="398.0944">31</text><text fill="#000000" font-family="sans-serif" font-size="3.9" lengthAdjust="spacing" textLength="59.7" x="149.85" y="398.0944">addClientsThroughData(clientDTO)</text><polygon fill="#181818" points="579.15,407.8605,582.15,409.0605,579.15,410.2605,580.35,409.0605" style="stroke:#181818;stroke-width:0.3;"/><line style="stroke:#181818;stroke-width:0.3;" x1="535.65" x2="580.95" y1="409.0605" y2="409.0605"/><text fill="#000000" font-family="sans-serif" font-size="3.9" font-weight="bold" lengthAdjust="spacing" textLength="4.2" x="537.75" y="407.4817">32</text><text fill="#000000" font-family="sans-serif" font-size="3.9" lengthAdjust="spacing" textLength="36" x="543.15" y="407.4817">toDomain(clientDTO)</text><polygon fill="#181818" points="605.55,417.2479,608.55,418.4479,605.55,419.6479,606.75,418.4479" style="stroke:#181818;stroke-width:0.3;"/><line style="stroke:#181818;stroke-width:0.3;" x1="584.25" x2="607.35" y1="418.4479" y2="418.4479"/><text fill="#000000" font-family="sans-serif" font-size="3.9" font-weight="bold" lengthAdjust="spacing" textLength="4.2" x="586.35" y="416.869">33</text><text fill="#000000" font-family="sans-serif" font-size="3.9" lengthAdjust="spacing" textLength="10.8" x="591.75" y="416.869">create</text><rect fill="#E2E2F0" height="9.7863" rx="0.75" ry="0.75" style="stroke:#181818;stroke-width:0.15;" width="16.2" x="609.15" y="411.4605"/><text fill="#000000" font-family="sans-serif" font-size="4.2" lengthAdjust="spacing" textLength="12" x="611.25" y="418.0928">:Client</text><polygon fill="#181818" points="145.65,430.3342,142.65,431.5342,145.65,432.7342,144.45,431.5342" style="stroke:#181818;stroke-width:0.3;"/><line style="stroke:#181818;stroke-width:0.3;stroke-dasharray:2.0,2.0;" x1="143.85" x2="533.85" y1="431.5342" y2="431.5342"/><text fill="#000000" font-family="sans-serif" font-size="3.9" font-weight="bold" lengthAdjust="spacing" textLength="4.2" x="147.45" y="429.9554">34</text><text fill="#000000" font-family="sans-serif" font-size="3.9" lengthAdjust="spacing" textLength="15.6" x="152.85" y="429.9554">clientList</text><polygon fill="#181818" points="648.75,439.7215,651.75,440.9215,648.75,442.1215,649.95,440.9215" style="stroke:#181818;stroke-width:0.3;"/><line style="stroke:#181818;stroke-width:0.3;" x1="142.35" x2="650.55" y1="440.9215" y2="440.9215"/><text fill="#000000" font-family="sans-serif" font-size="3.9" font-weight="bold" lengthAdjust="spacing" textLength="4.2" x="144.45" y="439.3427">35</text><text fill="#000000" font-family="sans-serif" font-size="3.9" lengthAdjust="spacing" textLength="92.7" x="149.85" y="439.3427">addStoreNetworkThroughData(storeDTO, locationList)</text><polygon fill="#181818" points="699.75,449.1088,702.75,450.3088,699.75,451.5088,700.95,450.3088" style="stroke:#181818;stroke-width:0.3;"/><line style="stroke:#181818;stroke-width:0.3;" x1="655.35" x2="701.55" y1="450.3088" y2="450.3088"/><text fill="#000000" font-family="sans-serif" font-size="3.9" font-weight="bold" lengthAdjust="spacing" textLength="4.2" x="657.45" y="448.73">36</text><text fill="#000000" font-family="sans-serif" font-size="3.9" lengthAdjust="spacing" textLength="35.4" x="662.85" y="448.73">toDomain(storeDTO)</text><polygon fill="#181818" points="726.75,458.4961,729.75,459.6961,726.75,460.8961,727.95,459.6961" style="stroke:#181818;stroke-width:0.3;"/><line style="stroke:#181818;stroke-width:0.3;" x1="704.85" x2="728.55" y1="459.6961" y2="459.6961"/><text fill="#000000" font-family="sans-serif" font-size="3.9" font-weight="bold" lengthAdjust="spacing" textLength="4.2" x="706.95" y="458.1173">37</text><text fill="#000000" font-family="sans-serif" font-size="3.9" lengthAdjust="spacing" textLength="10.8" x="712.35" y="458.1173">create</text><rect fill="#E2E2F0" height="9.7863" rx="0.75" ry="0.75" style="stroke:#181818;stroke-width:0.15;" width="30.6" x="730.35" y="452.7088"/><text fill="#000000" font-family="sans-serif" font-size="4.2" lengthAdjust="spacing" textLength="26.4" x="732.45" y="459.341">:StoreNetwork</text><polygon fill="#181818" points="145.65,471.5824,142.65,472.7824,145.65,473.9824,144.45,472.7824" style="stroke:#181818;stroke-width:0.3;"/><line style="stroke:#181818;stroke-width:0.3;stroke-dasharray:2.0,2.0;" x1="143.85" x2="653.55" y1="472.7824" y2="472.7824"/><text fill="#000000" font-family="sans-serif" font-size="3.9" font-weight="bold" lengthAdjust="spacing" textLength="4.2" x="147.45" y="471.2036">38</text><text fill="#000000" font-family="sans-serif" font-size="3.9" lengthAdjust="spacing" textLength="15" x="152.85" y="471.2036">storeList</text><polygon fill="#181818" points="779.85,480.9697,782.85,482.1697,779.85,483.3697,781.05,482.1697" style="stroke:#181818;stroke-width:0.3;"/><line style="stroke:#181818;stroke-width:0.3;" x1="142.35" x2="781.65" y1="482.1697" y2="482.1697"/><text fill="#000000" font-family="sans-serif" font-size="3.9" font-weight="bold" lengthAdjust="spacing" textLength="4.2" x="144.45" y="480.5909">39</text><text fill="#000000" font-family="sans-serif" font-size="3.9" lengthAdjust="spacing" textLength="128.1" x="149.85" y="480.5909">addPropertiesSoldThroughData(propertySoldDTO, propertyDTO, clientList)</text><polygon fill="#181818" points="842.55,490.357,845.55,491.557,842.55,492.757,843.75,491.557" style="stroke:#181818;stroke-width:0.3;"/><line style="stroke:#181818;stroke-width:0.3;" x1="786.45" x2="844.35" y1="491.557" y2="491.557"/><text fill="#000000" font-family="sans-serif" font-size="3.9" font-weight="bold" lengthAdjust="spacing" textLength="4.2" x="788.55" y="489.9782">40</text><text fill="#000000" font-family="sans-serif" font-size="3.9" lengthAdjust="spacing" textLength="48.6" x="793.95" y="489.9782">toDomain(propertySoldDTO)</text><polygon fill="#181818" points="869.25,499.7443,872.25,500.9443,869.25,502.1443,870.45,500.9443" style="stroke:#181818;stroke-width:0.3;"/><line style="stroke:#181818;stroke-width:0.3;" x1="847.65" x2="871.05" y1="500.9443" y2="500.9443"/><text fill="#000000" font-family="sans-serif" font-size="3.9" font-weight="bold" lengthAdjust="spacing" textLength="4.2" x="849.75" y="499.3655">41</text><text fill="#000000" font-family="sans-serif" font-size="3.9" lengthAdjust="spacing" textLength="10.8" x="855.15" y="499.3655">create</text><rect fill="#E2E2F0" height="9.7863" rx="0.75" ry="0.75" style="stroke:#181818;stroke-width:0.15;" width="30" x="872.85" y="493.957"/><text fill="#000000" font-family="sans-serif" font-size="4.2" lengthAdjust="spacing" textLength="25.8" x="874.95" y="500.5893">:PropertySold</text><polygon fill="#181818" points="936.15,512.8307,939.15,514.0307,936.15,515.2307,937.35,514.0307" style="stroke:#181818;stroke-width:0.3;"/><line style="stroke:#181818;stroke-width:0.3;" x1="887.85" x2="937.95" y1="514.0307" y2="514.0307"/><text fill="#000000" font-family="sans-serif" font-size="3.9" font-weight="bold" lengthAdjust="spacing" textLength="4.2" x="889.95" y="512.4519">42</text><text fill="#000000" font-family="sans-serif" font-size="3.9" lengthAdjust="spacing" textLength="40.8" x="895.35" y="512.4519">toDomain(propertyDTO)</text><polygon fill="#181818" points="962.55,522.218,965.55,523.418,962.55,524.618,963.75,523.418" style="stroke:#181818;stroke-width:0.3;"/><line style="stroke:#181818;stroke-width:0.3;" x1="941.25" x2="964.35" y1="523.418" y2="523.418"/><text fill="#000000" font-family="sans-serif" font-size="3.9" font-weight="bold" lengthAdjust="spacing" textLength="4.2" x="943.35" y="521.8392">43</text><text fill="#000000" font-family="sans-serif" font-size="3.9" lengthAdjust="spacing" textLength="10.8" x="948.75" y="521.8392">create</text><rect fill="#E2E2F0" height="9.7863" rx="0.75" ry="0.75" style="stroke:#181818;stroke-width:0.15;" width="21.6" x="966.15" y="516.4307"/><text fill="#000000" font-family="sans-serif" font-size="4.2" lengthAdjust="spacing" textLength="17.4" x="968.25" y="523.0629">:Property</text><polygon fill="#181818" points="145.65,535.3043,142.65,536.5043,145.65,537.7043,144.45,536.5043" style="stroke:#181818;stroke-width:0.3;"/><line style="stroke:#181818;stroke-width:0.3;stroke-dasharray:2.0,2.0;" x1="143.85" x2="784.65" y1="536.5043" y2="536.5043"/><text fill="#000000" font-family="sans-serif" font-size="3.9" font-weight="bold" lengthAdjust="spacing" textLength="4.2" x="147.45" y="534.9255">44</text><text fill="#000000" font-family="sans-serif" font-size="3.9" lengthAdjust="spacing" textLength="28.2" x="152.85" y="534.9255">propertySoldList</text><polygon fill="#181818" points="90.45,544.6916,87.45,545.8916,90.45,547.0916,89.25,545.8916" style="stroke:#181818;stroke-width:0.3;"/><line style="stroke:#181818;stroke-width:0.3;stroke-dasharray:2.0,2.0;" x1="88.65" x2="139.05" y1="545.8916" y2="545.8916"/><text fill="#000000" font-family="sans-serif" font-size="3.9" font-weight="bold" lengthAdjust="spacing" textLength="4.2" x="92.25" y="544.3128">45</text><text fill="#000000" font-family="sans-serif" font-size="3.9" lengthAdjust="spacing" textLength="31.2" x="97.65" y="544.3128">operationSuccess</text><polygon fill="#181818" points="19.65,554.0789,16.65,555.2789,19.65,556.4789,18.45,555.2789" style="stroke:#181818;stroke-width:0.3;"/><line style="stroke:#181818;stroke-width:0.3;stroke-dasharray:2.0,2.0;" x1="17.85" x2="83.85" y1="555.2789" y2="555.2789"/><text fill="#000000" font-family="sans-serif" font-size="3.9" font-weight="bold" lengthAdjust="spacing" textLength="4.2" x="21.45" y="553.7001">46</text><text fill="#000000" font-family="sans-serif" font-size="3.9" lengthAdjust="spacing" textLength="55.2" x="26.85" y="553.7001">informs of operation (in)success</text><!--SRC=[hLTXJzim4FsUNs7nPO3QiUqZsf0cq2GajY4AFy1ptDR2YJtRPUBVx-B4ySLnGe5MGZJEyxlByxtSzSFMEMtFpywqfBNRLV8ZKzMPvNztl6PyMGgwCRGg2hfpgjvLVxWf2YUSvEHXzUdp5x8arvLMnf4Rlg7icLnHHm7Dd3Baw7jPYLfOPoXS7X5g2IshGbFZ11CQuf6ZytPxi-tXsaDsOX9ngMfdb9Iy9MFEo0HxnxMo0g89RZt6m4AMxuUG_8xJikDQ6_yzWLvAmMjtTV-xZHUk4jGAul5VtFrJvZ5WRRCsXjuQfRbnpm6cu_K4SgLacQAxjMJ7ZMBK2LNt6ZpxJJ8ZGO2s0CMoZvtmi0nF2_n9jGv7KldlMHZIS4R09AhDHCLm5DjcOsDmF9a9iPFWEXCSdmiAhYrSPnF06o9q0eGPPzdwUl1c4q_KSMyk-2FB2p0HEGV4eoLE4T4wLBOEBHk7zdl0RO257OsPJazX5vmpt2W8V7gKTvfVQZxDLREbKGSs-7_Vo8Qxwzew2g-DuvCUsrDuASDgoOVhKzGIbNGR8bIkZKTri6YsAvKOBL-O1mk8_Ho3tYQh1mxAUdEtuLAplpvGxewlcAOOlowNg1hNq1RMyEObchfjWV1GXxXqGPadKNABm2bqI0nbpbIz5gRoMsQeErXBdJ621prHAS0elEaIjn3zUDrzEK5s0PpeUnD2ZAs3Zw7hDDuuj0prd6mVK8JU56u4XcNC8nZb1hfjxZWmHJwHhjMDdsGsbK4w5x53fc-IYRHZHtrJpjwUxqmvDEezC-xx-fiIxjl_-t96KyEUQUCvursP-z7ZCDbtKymhdo3CFZDFCNWCsRtsQDbxpTvlZTfjjluvi7Copo87hxxcqn8sp8hbSk_kx-_D62Bap6BEhIq76VUcoQJBHkcoa6utcW6jKrUgegBECOqPkp4a1GIwtlKvBNAD8U5ZgLmjsvHOR2IMZMBXTeqL2wPTa1TEsuxaiq4-EvOlqCwePoVKir4zpxAdU2cTJSNpP5FQsP5sEchN6Hn-DpKEm-ebpblWbya27LT6JptIKmSzqS2CDKs2pKYB9-uKXCb3h3qbdgBrwvviEkaN4fvA5YKAHFlccR3fj1ImabCLeUEas9P4c7-QhTuegnrZtDfYE7A96WOv6A7KEYB9iQXFR0V_3m00]--></g></svg>