<?xml version="1.0" encoding="us-ascii" standalone="no"?><svg xmlns="http://www.w3.org/2000/svg" xmlns:xlink="http://www.w3.org/1999/xlink" contentStyleType="text/css" height="718.2px" preserveAspectRatio="none" style="width:1152px;height:718px;background:#FFFFFF;" version="1.1" viewBox="0 0 1152 718" width="1152.6px" zoomAndPan="magnify"><defs/><g><text fill="#000000" font-family="sans-serif" font-size="8.4" font-weight="bold" lengthAdjust="spacing" textLength="113.4" x="515.55" y="15.0645">US012 - Import Legacy Data</text><!--class ui--><g id="elem_ui"><rect codeLine="4" fill="#F1F1F1" height="28.8" id="ui" rx="1.5" ry="1.5" style="stroke:#181818;stroke-width:0.3;" width="67.8" x="502.8" y="27.9727"/><ellipse cx="511.8" cy="37.5727" fill="#ADD1B2" rx="6.6" ry="6.6" style="stroke:#181818;stroke-width:0.6;"/><path d="M513.4594,35.0977 Q513.5531,34.9664 513.6656,34.9008 Q513.7781,34.8352 513.9094,34.8352 Q514.1344,34.8352 514.275,34.9945 Q514.4156,35.1445 514.4156,35.5102 L514.4156,36.382 Q514.4156,36.7477 514.275,36.907 Q514.1344,37.0664 513.9094,37.0664 Q513.7031,37.0664 513.5813,36.9445 Q513.4594,36.832 513.3938,36.5227 Q513.3656,36.307 513.2531,36.1945 Q513.0563,35.9695 512.6906,35.8383 Q512.325,35.707 511.95,35.707 Q511.4906,35.707 511.1063,35.9039 Q510.7313,36.1008 510.4313,36.5508 Q510.1406,37.0008 510.1406,37.6195 L510.1406,38.2758 Q510.1406,39.0164 510.675,39.5133 Q511.2094,40.0008 512.1656,40.0008 Q512.7281,40.0008 513.1219,39.8508 Q513.3562,39.757 513.6094,39.4945 Q513.7688,39.3352 513.8531,39.2883 Q513.9469,39.2414 514.0688,39.2414 Q514.2656,39.2414 514.4156,39.4008 Q514.575,39.5508 514.575,39.757 Q514.575,39.9633 514.3688,40.207 Q514.0688,40.5539 513.5906,40.7508 Q512.9438,41.0227 512.1656,41.0227 Q511.2562,41.0227 510.5344,40.6477 Q509.9437,40.3477 509.5313,39.7102 Q509.1188,39.0633 509.1188,38.2945 L509.1188,37.6008 Q509.1188,36.8039 509.4844,36.1195 Q509.8594,35.4258 510.5156,35.0602 Q511.1719,34.6852 511.9125,34.6852 Q512.3531,34.6852 512.7375,34.7883 Q513.1313,34.882 513.4594,35.0977 Z " fill="#000000"/><text fill="#000000" font-family="sans-serif" font-size="8.4" lengthAdjust="spacing" textLength="48.6" x="520.2" y="41.0508">ImportDataUI</text><line style="stroke:#181818;stroke-width:0.3;" x1="503.4" x2="570" y1="47.1727" y2="47.1727"/><line style="stroke:#181818;stroke-width:0.3;" x1="503.4" x2="570" y1="51.9727" y2="51.9727"/></g><!--class ctrl--><g id="elem_ctrl"><rect codeLine="5" fill="#F1F1F1" height="95.8359" id="ctrl" rx="1.5" ry="1.5" style="stroke:#181818;stroke-width:0.3;" width="97.8" x="487.8" y="104.1727"/><ellipse cx="496.8" cy="113.7727" fill="#ADD1B2" rx="6.6" ry="6.6" style="stroke:#181818;stroke-width:0.6;"/><path d="M498.4594,111.2977 Q498.5531,111.1664 498.6656,111.1008 Q498.7781,111.0352 498.9094,111.0352 Q499.1344,111.0352 499.275,111.1945 Q499.4156,111.3445 499.4156,111.7102 L499.4156,112.582 Q499.4156,112.9477 499.275,113.107 Q499.1344,113.2664 498.9094,113.2664 Q498.7031,113.2664 498.5812,113.1445 Q498.4594,113.032 498.3937,112.7227 Q498.3656,112.507 498.2531,112.3945 Q498.0563,112.1695 497.6906,112.0383 Q497.325,111.907 496.95,111.907 Q496.4906,111.907 496.1063,112.1039 Q495.7313,112.3008 495.4313,112.7508 Q495.1406,113.2008 495.1406,113.8195 L495.1406,114.4758 Q495.1406,115.2164 495.675,115.7133 Q496.2094,116.2008 497.1656,116.2008 Q497.7281,116.2008 498.1219,116.0508 Q498.3563,115.957 498.6094,115.6945 Q498.7687,115.5352 498.8531,115.4883 Q498.9469,115.4414 499.0687,115.4414 Q499.2656,115.4414 499.4156,115.6008 Q499.575,115.7508 499.575,115.957 Q499.575,116.1633 499.3688,116.407 Q499.0687,116.7539 498.5906,116.9508 Q497.9437,117.2227 497.1656,117.2227 Q496.2562,117.2227 495.5344,116.8477 Q494.9437,116.5477 494.5313,115.9102 Q494.1188,115.2633 494.1188,114.4945 L494.1188,113.8008 Q494.1188,113.0039 494.4844,112.3195 Q494.8594,111.6258 495.5156,111.2602 Q496.1719,110.8852 496.9125,110.8852 Q497.3531,110.8852 497.7375,110.9883 Q498.1312,111.082 498.4594,111.2977 Z " fill="#000000"/><text fill="#000000" font-family="sans-serif" font-size="8.4" lengthAdjust="spacing" textLength="78.6" x="505.2" y="117.2508">ImportDataController</text><line style="stroke:#181818;stroke-width:0.3;" x1="488.4" x2="585" y1="123.3727" y2="123.3727"/><rect fill="none" height="3.6" style="stroke:#C82930;stroke-width:0.6;" width="3.6" x="492.6" y="130.459"/><text fill="#000000" font-family="sans-serif" font-size="8.4" lengthAdjust="spacing" textLength="49.8" x="499.8" y="134.8371">locationRepo</text><rect fill="none" height="3.6" style="stroke:#C82930;stroke-width:0.6;" width="3.6" x="492.6" y="141.6316"/><text fill="#000000" font-family="sans-serif" font-size="8.4" lengthAdjust="spacing" textLength="52.2" x="499.8" y="146.0098">storeNetRepo</text><rect fill="none" height="3.6" style="stroke:#C82930;stroke-width:0.6;" width="3.6" x="492.6" y="152.8043"/><text fill="#000000" font-family="sans-serif" font-size="8.4" lengthAdjust="spacing" textLength="69" x="499.8" y="157.1824">propertySoldRepo</text><rect fill="none" height="3.6" style="stroke:#C82930;stroke-width:0.6;" width="3.6" x="492.6" y="163.977"/><text fill="#000000" font-family="sans-serif" font-size="8.4" lengthAdjust="spacing" textLength="40.2" x="499.8" y="168.3551">clientRepo</text><rect fill="none" height="3.6" style="stroke:#C82930;stroke-width:0.6;" width="3.6" x="492.6" y="175.1496"/><text fill="#000000" font-family="sans-serif" font-size="8.4" lengthAdjust="spacing" textLength="65.4" x="499.8" y="179.5277">importFileReader</text><line style="stroke:#181818;stroke-width:0.3;" x1="488.4" x2="585" y1="184.0359" y2="184.0359"/><ellipse cx="494.4" cy="192.9223" fill="#84BE84" rx="1.8" ry="1.8" style="stroke:#038048;stroke-width:0.6;"/><text fill="#000000" font-family="sans-serif" font-size="8.4" lengthAdjust="spacing" textLength="75.6" x="499.8" y="195.5004">importData(filePath)</text></g><!--class repo--><g id="elem_repo"><rect codeLine="14" fill="#F1F1F1" height="73.4906" id="repo" rx="1.5" ry="1.5" style="stroke:#181818;stroke-width:0.3;" width="104.4" x="382.5" y="236.7727"/><ellipse cx="408.51" cy="246.3727" fill="#ADD1B2" rx="6.6" ry="6.6" style="stroke:#181818;stroke-width:0.6;"/><path d="M410.1694,243.8977 Q410.2631,243.7664 410.3756,243.7008 Q410.4881,243.6352 410.6194,243.6352 Q410.8444,243.6352 410.985,243.7945 Q411.1256,243.9445 411.1256,244.3102 L411.1256,245.182 Q411.1256,245.5477 410.985,245.707 Q410.8444,245.8664 410.6194,245.8664 Q410.4131,245.8664 410.2913,245.7445 Q410.1694,245.632 410.1038,245.3227 Q410.0756,245.107 409.9631,244.9945 Q409.7663,244.7695 409.4006,244.6383 Q409.035,244.507 408.66,244.507 Q408.2006,244.507 407.8163,244.7039 Q407.4413,244.9008 407.1413,245.3508 Q406.8506,245.8008 406.8506,246.4195 L406.8506,247.0758 Q406.8506,247.8164 407.385,248.3133 Q407.9194,248.8008 408.8756,248.8008 Q409.4381,248.8008 409.8319,248.6508 Q410.0663,248.557 410.3194,248.2945 Q410.4788,248.1352 410.5631,248.0883 Q410.6569,248.0414 410.7788,248.0414 Q410.9756,248.0414 411.1256,248.2008 Q411.285,248.3508 411.285,248.557 Q411.285,248.7633 411.0788,249.007 Q410.7788,249.3539 410.3006,249.5508 Q409.6538,249.8227 408.8756,249.8227 Q407.9663,249.8227 407.2444,249.4477 Q406.6538,249.1477 406.2413,248.5102 Q405.8288,247.8633 405.8288,247.0945 L405.8288,246.4008 Q405.8288,245.6039 406.1944,244.9195 Q406.5694,244.2258 407.2256,243.8602 Q407.8819,243.4852 408.6225,243.4852 Q409.0631,243.4852 409.4475,243.5883 Q409.8413,243.682 410.1694,243.8977 Z " fill="#000000"/><text fill="#000000" font-family="sans-serif" font-size="8.4" lengthAdjust="spacing" textLength="47.4" x="420.69" y="249.8508">Repositories</text><line style="stroke:#181818;stroke-width:0.3;" x1="383.1" x2="486.3" y1="255.9727" y2="255.9727"/><line style="stroke:#181818;stroke-width:0.3;" x1="383.1" x2="486.3" y1="260.7727" y2="260.7727"/><ellipse cx="389.1" cy="269.659" fill="#84BE84" rx="1.8" ry="1.8" style="stroke:#038048;stroke-width:0.6;"/><text fill="#000000" font-family="sans-serif" font-size="8.4" lengthAdjust="spacing" textLength="75" x="394.5" y="272.2371">getLocationsRepo()</text><ellipse cx="389.1" cy="280.8316" fill="#84BE84" rx="1.8" ry="1.8" style="stroke:#038048;stroke-width:0.6;"/><text fill="#000000" font-family="sans-serif" font-size="8.4" lengthAdjust="spacing" textLength="88.8" x="394.5" y="283.4098">getStoreNetworkRepo()</text><ellipse cx="389.1" cy="292.0043" fill="#84BE84" rx="1.8" ry="1.8" style="stroke:#038048;stroke-width:0.6;"/><text fill="#000000" font-family="sans-serif" font-size="8.4" lengthAdjust="spacing" textLength="87.6" x="394.5" y="294.5824">getPropertySoldRepo()</text><ellipse cx="389.1" cy="303.177" fill="#84BE84" rx="1.8" ry="1.8" style="stroke:#038048;stroke-width:0.6;"/><text fill="#000000" font-family="sans-serif" font-size="8.4" lengthAdjust="spacing" textLength="60" x="394.5" y="305.7551">getClientRepo()</text></g><!--class reader--><g id="elem_reader"><rect codeLine="21" fill="#F1F1F1" height="84.6633" id="reader" rx="1.5" ry="1.5" style="stroke:#181818;stroke-width:0.3;" width="134.4" x="854.1" y="109.8727"/><ellipse cx="886.05" cy="119.4727" fill="#ADD1B2" rx="6.6" ry="6.6" style="stroke:#181818;stroke-width:0.6;"/><path d="M887.7094,116.9977 Q887.8031,116.8664 887.9156,116.8008 Q888.0281,116.7352 888.1594,116.7352 Q888.3844,116.7352 888.525,116.8945 Q888.6656,117.0445 888.6656,117.4102 L888.6656,118.282 Q888.6656,118.6477 888.525,118.807 Q888.3844,118.9664 888.1594,118.9664 Q887.9531,118.9664 887.8313,118.8445 Q887.7094,118.732 887.6438,118.4227 Q887.6156,118.207 887.5031,118.0945 Q887.3063,117.8695 886.9406,117.7383 Q886.575,117.607 886.2,117.607 Q885.7406,117.607 885.3562,117.8039 Q884.9812,118.0008 884.6813,118.4508 Q884.3906,118.9008 884.3906,119.5195 L884.3906,120.1758 Q884.3906,120.9164 884.925,121.4133 Q885.4594,121.9008 886.4156,121.9008 Q886.9781,121.9008 887.3719,121.7508 Q887.6062,121.657 887.8594,121.3945 Q888.0188,121.2352 888.1031,121.1883 Q888.1969,121.1414 888.3188,121.1414 Q888.5156,121.1414 888.6656,121.3008 Q888.825,121.4508 888.825,121.657 Q888.825,121.8633 888.6188,122.107 Q888.3188,122.4539 887.8406,122.6508 Q887.1938,122.9227 886.4156,122.9227 Q885.5063,122.9227 884.7844,122.5477 Q884.1938,122.2477 883.7813,121.6102 Q883.3688,120.9633 883.3688,120.1945 L883.3688,119.5008 Q883.3688,118.7039 883.7344,118.0195 Q884.1094,117.3258 884.7656,116.9602 Q885.4219,116.5852 886.1625,116.5852 Q886.6031,116.5852 886.9875,116.6883 Q887.3813,116.782 887.7094,116.9977 Z " fill="#000000"/><text fill="#000000" font-family="sans-serif" font-size="8.4" lengthAdjust="spacing" textLength="65.4" x="898.35" y="122.9508">ImportFileReader</text><line style="stroke:#181818;stroke-width:0.3;" x1="854.7" x2="987.9" y1="129.0727" y2="129.0727"/><line style="stroke:#181818;stroke-width:0.3;" x1="854.7" x2="987.9" y1="133.8727" y2="133.8727"/><ellipse cx="860.7" cy="142.759" fill="#84BE84" rx="1.8" ry="1.8" style="stroke:#038048;stroke-width:0.6;"/><text fill="#000000" font-family="sans-serif" font-size="8.4" lengthAdjust="spacing" textLength="84" x="866.1" y="145.3371">readLocation(filePath)</text><ellipse cx="860.7" cy="153.9316" fill="#84BE84" rx="1.8" ry="1.8" style="stroke:#038048;stroke-width:0.6;"/><text fill="#000000" font-family="sans-serif" font-size="8.4" lengthAdjust="spacing" textLength="90" x="866.1" y="156.5098">readStoreData(filePath)</text><ellipse cx="860.7" cy="165.1043" fill="#84BE84" rx="1.8" ry="1.8" style="stroke:#038048;stroke-width:0.6;"/><text fill="#000000" font-family="sans-serif" font-size="8.4" lengthAdjust="spacing" textLength="118.8" x="866.1" y="167.6824">readPropertySoldData(filePath)</text><ellipse cx="860.7" cy="176.277" fill="#84BE84" rx="1.8" ry="1.8" style="stroke:#038048;stroke-width:0.6;"/><text fill="#000000" font-family="sans-serif" font-size="8.4" lengthAdjust="spacing" textLength="91.2" x="866.1" y="178.8551">readClientData(filePath)</text><ellipse cx="860.7" cy="187.4496" fill="#84BE84" rx="1.8" ry="1.8" style="stroke:#038048;stroke-width:0.6;"/><text fill="#000000" font-family="sans-serif" font-size="8.4" lengthAdjust="spacing" textLength="102" x="866.1" y="190.0277">readPropertyData(filePath)</text></g><!--class lrepo--><g id="elem_lrepo"><rect codeLine="29" fill="#F1F1F1" height="39.9727" id="lrepo" rx="1.5" ry="1.5" style="stroke:#181818;stroke-width:0.3;" width="165.6" x="171.3" y="357.3727"/><ellipse cx="212.85" cy="366.9727" fill="#ADD1B2" rx="6.6" ry="6.6" style="stroke:#181818;stroke-width:0.6;"/><path d="M214.5094,364.4977 Q214.6031,364.3664 214.7156,364.3008 Q214.8281,364.2352 214.9594,364.2352 Q215.1844,364.2352 215.325,364.3945 Q215.4656,364.5445 215.4656,364.9102 L215.4656,365.782 Q215.4656,366.1477 215.325,366.307 Q215.1844,366.4664 214.9594,366.4664 Q214.7531,366.4664 214.6313,366.3445 Q214.5094,366.232 214.4438,365.9227 Q214.4156,365.707 214.3031,365.5945 Q214.1063,365.3695 213.7406,365.2383 Q213.375,365.107 213,365.107 Q212.5406,365.107 212.1563,365.3039 Q211.7813,365.5008 211.4813,365.9508 Q211.1906,366.4008 211.1906,367.0195 L211.1906,367.6758 Q211.1906,368.4164 211.725,368.9133 Q212.2594,369.4008 213.2156,369.4008 Q213.7781,369.4008 214.1719,369.2508 Q214.4063,369.157 214.6594,368.8945 Q214.8188,368.7352 214.9031,368.6883 Q214.9969,368.6414 215.1188,368.6414 Q215.3156,368.6414 215.4656,368.8008 Q215.625,368.9508 215.625,369.157 Q215.625,369.3633 215.4188,369.607 Q215.1188,369.9539 214.6406,370.1508 Q213.9938,370.4227 213.2156,370.4227 Q212.3063,370.4227 211.5844,370.0477 Q210.9938,369.7477 210.5812,369.1102 Q210.1688,368.4633 210.1688,367.6945 L210.1688,367.0008 Q210.1688,366.2039 210.5344,365.5195 Q210.9094,364.8258 211.5656,364.4602 Q212.2219,364.0852 212.9625,364.0852 Q213.4031,364.0852 213.7875,364.1883 Q214.1813,364.282 214.5094,364.4977 Z " fill="#000000"/><text fill="#000000" font-family="sans-serif" font-size="8.4" lengthAdjust="spacing" textLength="77.4" x="225.15" y="370.4508">LocationsRepository</text><line style="stroke:#181818;stroke-width:0.3;" x1="171.9" x2="336.3" y1="376.5727" y2="376.5727"/><line style="stroke:#181818;stroke-width:0.3;" x1="171.9" x2="336.3" y1="381.3727" y2="381.3727"/><ellipse cx="177.9" cy="390.259" fill="#84BE84" rx="1.8" ry="1.8" style="stroke:#038048;stroke-width:0.6;"/><text fill="#000000" font-family="sans-serif" font-size="8.4" lengthAdjust="spacing" textLength="150" x="183.3" y="392.8371">addLocationsThroughData(locationList)</text></g><!--class loc--><g id="elem_loc"><rect codeLine="32" fill="#F1F1F1" height="28.8" id="loc" rx="1.5" ry="1.5" style="stroke:#181818;stroke-width:0.3;" width="51.6" x="228.3" y="450.6727"/><ellipse cx="237.3" cy="460.2727" fill="#ADD1B2" rx="6.6" ry="6.6" style="stroke:#181818;stroke-width:0.6;"/><path d="M238.9594,457.7977 Q239.0531,457.6664 239.1656,457.6008 Q239.2781,457.5352 239.4094,457.5352 Q239.6344,457.5352 239.775,457.6945 Q239.9156,457.8445 239.9156,458.2102 L239.9156,459.082 Q239.9156,459.4477 239.775,459.607 Q239.6344,459.7664 239.4094,459.7664 Q239.2031,459.7664 239.0812,459.6445 Q238.9594,459.532 238.8937,459.2227 Q238.8656,459.007 238.7531,458.8945 Q238.5562,458.6695 238.1906,458.5383 Q237.825,458.407 237.45,458.407 Q236.9906,458.407 236.6063,458.6039 Q236.2313,458.8008 235.9312,459.2508 Q235.6406,459.7008 235.6406,460.3195 L235.6406,460.9758 Q235.6406,461.7164 236.175,462.2133 Q236.7094,462.7008 237.6656,462.7008 Q238.2281,462.7008 238.6219,462.5508 Q238.8563,462.457 239.1094,462.1945 Q239.2687,462.0352 239.3531,461.9883 Q239.4469,461.9414 239.5688,461.9414 Q239.7656,461.9414 239.9156,462.1008 Q240.075,462.2508 240.075,462.457 Q240.075,462.6633 239.8687,462.907 Q239.5688,463.2539 239.0906,463.4508 Q238.4438,463.7227 237.6656,463.7227 Q236.7563,463.7227 236.0344,463.3477 Q235.4438,463.0477 235.0313,462.4102 Q234.6187,461.7633 234.6187,460.9945 L234.6187,460.3008 Q234.6187,459.5039 234.9844,458.8195 Q235.3594,458.1258 236.0156,457.7602 Q236.6719,457.3852 237.4125,457.3852 Q237.8531,457.3852 238.2375,457.4883 Q238.6313,457.582 238.9594,457.7977 Z " fill="#000000"/><text fill="#000000" font-family="sans-serif" font-size="8.4" lengthAdjust="spacing" textLength="32.4" x="245.7" y="463.7508">Location</text><line style="stroke:#181818;stroke-width:0.3;" x1="228.9" x2="279.3" y1="469.8727" y2="469.8727"/><line style="stroke:#181818;stroke-width:0.3;" x1="228.9" x2="279.3" y1="474.6727" y2="474.6727"/></g><!--class snrepo--><g id="elem_snrepo"><rect codeLine="34" fill="#F1F1F1" height="39.9727" id="snrepo" rx="1.5" ry="1.5" style="stroke:#181818;stroke-width:0.3;" width="221.4" x="683.4" y="357.3727"/><ellipse cx="745.95" cy="366.9727" fill="#ADD1B2" rx="6.6" ry="6.6" style="stroke:#181818;stroke-width:0.6;"/><path d="M747.6094,364.4977 Q747.7031,364.3664 747.8156,364.3008 Q747.9281,364.2352 748.0594,364.2352 Q748.2844,364.2352 748.425,364.3945 Q748.5656,364.5445 748.5656,364.9102 L748.5656,365.782 Q748.5656,366.1477 748.425,366.307 Q748.2844,366.4664 748.0594,366.4664 Q747.8531,366.4664 747.7312,366.3445 Q747.6094,366.232 747.5437,365.9227 Q747.5156,365.707 747.4031,365.5945 Q747.2063,365.3695 746.8406,365.2383 Q746.475,365.107 746.1,365.107 Q745.6406,365.107 745.2563,365.3039 Q744.8813,365.5008 744.5813,365.9508 Q744.2906,366.4008 744.2906,367.0195 L744.2906,367.6758 Q744.2906,368.4164 744.825,368.9133 Q745.3594,369.4008 746.3156,369.4008 Q746.8781,369.4008 747.2719,369.2508 Q747.5063,369.157 747.7594,368.8945 Q747.9187,368.7352 748.0031,368.6883 Q748.0969,368.6414 748.2188,368.6414 Q748.4156,368.6414 748.5656,368.8008 Q748.725,368.9508 748.725,369.157 Q748.725,369.3633 748.5188,369.607 Q748.2188,369.9539 747.7406,370.1508 Q747.0938,370.4227 746.3156,370.4227 Q745.4063,370.4227 744.6844,370.0477 Q744.0938,369.7477 743.6813,369.1102 Q743.2688,368.4633 743.2688,367.6945 L743.2688,367.0008 Q743.2688,366.2039 743.6344,365.5195 Q744.0094,364.8258 744.6656,364.4602 Q745.3219,364.0852 746.0625,364.0852 Q746.5031,364.0852 746.8875,364.1883 Q747.2813,364.282 747.6094,364.4977 Z " fill="#000000"/><text fill="#000000" font-family="sans-serif" font-size="8.4" lengthAdjust="spacing" textLength="91.2" x="758.25" y="370.4508">StoreNetworkRepository</text><line style="stroke:#181818;stroke-width:0.3;" x1="684" x2="904.2" y1="376.5727" y2="376.5727"/><line style="stroke:#181818;stroke-width:0.3;" x1="684" x2="904.2" y1="381.3727" y2="381.3727"/><ellipse cx="690" cy="390.259" fill="#84BE84" rx="1.8" ry="1.8" style="stroke:#038048;stroke-width:0.6;"/><text fill="#000000" font-family="sans-serif" font-size="8.4" lengthAdjust="spacing" textLength="205.8" x="695.4" y="392.8371">addStoreNetworkThroughData(storeDTO, locationList)</text></g><!--class sn--><g id="elem_sn"><rect codeLine="38" fill="#F1F1F1" height="28.8" id="sn" rx="1.5" ry="1.5" style="stroke:#181818;stroke-width:0.3;" width="69.6" x="810.9" y="450.6727"/><ellipse cx="819.9" cy="460.2727" fill="#ADD1B2" rx="6.6" ry="6.6" style="stroke:#181818;stroke-width:0.6;"/><path d="M821.5594,457.7977 Q821.6531,457.6664 821.7656,457.6008 Q821.8781,457.5352 822.0094,457.5352 Q822.2344,457.5352 822.375,457.6945 Q822.5156,457.8445 822.5156,458.2102 L822.5156,459.082 Q822.5156,459.4477 822.375,459.607 Q822.2344,459.7664 822.0094,459.7664 Q821.8031,459.7664 821.6813,459.6445 Q821.5594,459.532 821.4938,459.2227 Q821.4656,459.007 821.3531,458.8945 Q821.1563,458.6695 820.7906,458.5383 Q820.425,458.407 820.05,458.407 Q819.5906,458.407 819.2063,458.6039 Q818.8313,458.8008 818.5313,459.2508 Q818.2406,459.7008 818.2406,460.3195 L818.2406,460.9758 Q818.2406,461.7164 818.775,462.2133 Q819.3094,462.7008 820.2656,462.7008 Q820.8281,462.7008 821.2219,462.5508 Q821.4563,462.457 821.7094,462.1945 Q821.8688,462.0352 821.9531,461.9883 Q822.0469,461.9414 822.1687,461.9414 Q822.3656,461.9414 822.5156,462.1008 Q822.675,462.2508 822.675,462.457 Q822.675,462.6633 822.4688,462.907 Q822.1687,463.2539 821.6906,463.4508 Q821.0437,463.7227 820.2656,463.7227 Q819.3562,463.7227 818.6344,463.3477 Q818.0437,463.0477 817.6313,462.4102 Q817.2188,461.7633 817.2188,460.9945 L817.2188,460.3008 Q817.2188,459.5039 817.5844,458.8195 Q817.9594,458.1258 818.6156,457.7602 Q819.2719,457.3852 820.0125,457.3852 Q820.4531,457.3852 820.8375,457.4883 Q821.2312,457.582 821.5594,457.7977 Z " fill="#000000"/><text fill="#000000" font-family="sans-serif" font-size="8.4" lengthAdjust="spacing" textLength="50.4" x="828.3" y="463.7508">StoreNetwork</text><line style="stroke:#181818;stroke-width:0.3;" x1="811.5" x2="879.9" y1="469.8727" y2="469.8727"/><line style="stroke:#181818;stroke-width:0.3;" x1="811.5" x2="879.9" y1="474.6727" y2="474.6727"/></g><!--class psrepo--><g id="elem_psrepo"><rect codeLine="40" fill="#F1F1F1" height="39.9727" id="psrepo" rx="1.5" ry="1.5" style="stroke:#181818;stroke-width:0.3;" width="304.2" x="358.2" y="357.3727"/><ellipse cx="462.75" cy="366.9727" fill="#ADD1B2" rx="6.6" ry="6.6" style="stroke:#181818;stroke-width:0.6;"/><path d="M464.4094,364.4977 Q464.5031,364.3664 464.6156,364.3008 Q464.7281,364.2352 464.8594,364.2352 Q465.0844,364.2352 465.225,364.3945 Q465.3656,364.5445 465.3656,364.9102 L465.3656,365.782 Q465.3656,366.1477 465.225,366.307 Q465.0844,366.4664 464.8594,366.4664 Q464.6531,366.4664 464.5313,366.3445 Q464.4094,366.232 464.3438,365.9227 Q464.3156,365.707 464.2031,365.5945 Q464.0062,365.3695 463.6406,365.2383 Q463.275,365.107 462.9,365.107 Q462.4406,365.107 462.0563,365.3039 Q461.6813,365.5008 461.3812,365.9508 Q461.0906,366.4008 461.0906,367.0195 L461.0906,367.6758 Q461.0906,368.4164 461.625,368.9133 Q462.1594,369.4008 463.1156,369.4008 Q463.6781,369.4008 464.0719,369.2508 Q464.3063,369.157 464.5594,368.8945 Q464.7188,368.7352 464.8031,368.6883 Q464.8969,368.6414 465.0187,368.6414 Q465.2156,368.6414 465.3656,368.8008 Q465.525,368.9508 465.525,369.157 Q465.525,369.3633 465.3187,369.607 Q465.0187,369.9539 464.5406,370.1508 Q463.8937,370.4227 463.1156,370.4227 Q462.2062,370.4227 461.4844,370.0477 Q460.8937,369.7477 460.4813,369.1102 Q460.0687,368.4633 460.0687,367.6945 L460.0687,367.0008 Q460.0687,366.2039 460.4344,365.5195 Q460.8094,364.8258 461.4656,364.4602 Q462.1219,364.0852 462.8625,364.0852 Q463.3031,364.0852 463.6875,364.1883 Q464.0812,364.282 464.4094,364.4977 Z " fill="#000000"/><text fill="#000000" font-family="sans-serif" font-size="8.4" lengthAdjust="spacing" textLength="90" x="475.05" y="370.4508">PropertySoldRepository</text><line style="stroke:#181818;stroke-width:0.3;" x1="358.8" x2="661.8" y1="376.5727" y2="376.5727"/><line style="stroke:#181818;stroke-width:0.3;" x1="358.8" x2="661.8" y1="381.3727" y2="381.3727"/><ellipse cx="364.8" cy="390.259" fill="#84BE84" rx="1.8" ry="1.8" style="stroke:#038048;stroke-width:0.6;"/><text fill="#000000" font-family="sans-serif" font-size="8.4" lengthAdjust="spacing" textLength="288.6" x="370.2" y="392.8371">addPropertySoldThroughData(propertySoldDTO, propertyDTO, locationList)</text></g><!--class ps--><g id="elem_ps"><rect codeLine="44" fill="#F1F1F1" height="28.8" id="ps" rx="1.5" ry="1.5" style="stroke:#181818;stroke-width:0.3;" width="68.4" x="476.1" y="532.5727"/><ellipse cx="485.1" cy="542.1727" fill="#ADD1B2" rx="6.6" ry="6.6" style="stroke:#181818;stroke-width:0.6;"/><path d="M486.7594,539.6977 Q486.8531,539.5664 486.9656,539.5008 Q487.0781,539.4352 487.2094,539.4352 Q487.4344,539.4352 487.575,539.5945 Q487.7156,539.7445 487.7156,540.1102 L487.7156,540.982 Q487.7156,541.3477 487.575,541.507 Q487.4344,541.6664 487.2094,541.6664 Q487.0031,541.6664 486.8812,541.5445 Q486.7594,541.432 486.6937,541.1227 Q486.6656,540.907 486.5531,540.7945 Q486.3563,540.5695 485.9906,540.4383 Q485.625,540.307 485.25,540.307 Q484.7906,540.307 484.4063,540.5039 Q484.0313,540.7008 483.7313,541.1508 Q483.4406,541.6008 483.4406,542.2195 L483.4406,542.8758 Q483.4406,543.6164 483.975,544.1133 Q484.5094,544.6008 485.4656,544.6008 Q486.0281,544.6008 486.4219,544.4508 Q486.6563,544.357 486.9094,544.0945 Q487.0687,543.9352 487.1531,543.8883 Q487.2469,543.8414 487.3688,543.8414 Q487.5656,543.8414 487.7156,544.0008 Q487.875,544.1508 487.875,544.357 Q487.875,544.5633 487.6688,544.807 Q487.3688,545.1539 486.8906,545.3508 Q486.2438,545.6227 485.4656,545.6227 Q484.5563,545.6227 483.8344,545.2477 Q483.2438,544.9477 482.8312,544.3102 Q482.4188,543.6633 482.4188,542.8945 L482.4188,542.2008 Q482.4188,541.4039 482.7844,540.7195 Q483.1594,540.0258 483.8156,539.6602 Q484.4719,539.2852 485.2125,539.2852 Q485.6531,539.2852 486.0375,539.3883 Q486.4313,539.482 486.7594,539.6977 Z " fill="#000000"/><text fill="#000000" font-family="sans-serif" font-size="8.4" lengthAdjust="spacing" textLength="49.2" x="493.5" y="545.6508">PropertySold</text><line style="stroke:#181818;stroke-width:0.3;" x1="476.7" x2="543.9" y1="551.7727" y2="551.7727"/><line style="stroke:#181818;stroke-width:0.3;" x1="476.7" x2="543.9" y1="556.5727" y2="556.5727"/></g><!--class prop--><g id="elem_prop"><rect codeLine="45" fill="#F1F1F1" height="28.8" id="prop" rx="1.5" ry="1.5" style="stroke:#181818;stroke-width:0.3;" width="51.6" x="469.5" y="685.5727"/><ellipse cx="478.5" cy="695.1727" fill="#ADD1B2" rx="6.6" ry="6.6" style="stroke:#181818;stroke-width:0.6;"/><path d="M480.1594,692.6977 Q480.2531,692.5664 480.3656,692.5008 Q480.4781,692.4352 480.6094,692.4352 Q480.8344,692.4352 480.975,692.5945 Q481.1156,692.7445 481.1156,693.1102 L481.1156,693.982 Q481.1156,694.3477 480.975,694.507 Q480.8344,694.6664 480.6094,694.6664 Q480.4031,694.6664 480.2813,694.5445 Q480.1594,694.432 480.0938,694.1227 Q480.0656,693.907 479.9531,693.7945 Q479.7562,693.5695 479.3906,693.4383 Q479.025,693.307 478.65,693.307 Q478.1906,693.307 477.8063,693.5039 Q477.4313,693.7008 477.1312,694.1508 Q476.8406,694.6008 476.8406,695.2195 L476.8406,695.8758 Q476.8406,696.6164 477.375,697.1133 Q477.9094,697.6008 478.8656,697.6008 Q479.4281,697.6008 479.8219,697.4508 Q480.0563,697.357 480.3094,697.0945 Q480.4688,696.9352 480.5531,696.8883 Q480.6469,696.8414 480.7687,696.8414 Q480.9656,696.8414 481.1156,697.0008 Q481.275,697.1508 481.275,697.357 Q481.275,697.5633 481.0687,697.807 Q480.7687,698.1539 480.2906,698.3508 Q479.6437,698.6227 478.8656,698.6227 Q477.9562,698.6227 477.2344,698.2477 Q476.6437,697.9477 476.2313,697.3102 Q475.8187,696.6633 475.8187,695.8945 L475.8187,695.2008 Q475.8187,694.4039 476.1844,693.7195 Q476.5594,693.0258 477.2156,692.6602 Q477.8719,692.2852 478.6125,692.2852 Q479.0531,692.2852 479.4375,692.3883 Q479.8312,692.482 480.1594,692.6977 Z " fill="#000000"/><text fill="#000000" font-family="sans-serif" font-size="8.4" lengthAdjust="spacing" textLength="32.4" x="486.9" y="698.6508">Property</text><line style="stroke:#181818;stroke-width:0.3;" x1="470.1" x2="520.5" y1="704.7727" y2="704.7727"/><line style="stroke:#181818;stroke-width:0.3;" x1="470.1" x2="520.5" y1="709.5727" y2="709.5727"/></g><!--class crepo--><g id="elem_crepo"><rect codeLine="47" fill="#F1F1F1" height="39.9727" id="crepo" rx="1.5" ry="1.5" style="stroke:#181818;stroke-width:0.3;" width="145.8" x="4.2" y="357.3727"/><ellipse cx="43.35" cy="366.9727" fill="#ADD1B2" rx="6.6" ry="6.6" style="stroke:#181818;stroke-width:0.6;"/><path d="M45.0094,364.4977 Q45.1031,364.3664 45.2156,364.3008 Q45.3281,364.2352 45.4594,364.2352 Q45.6844,364.2352 45.825,364.3945 Q45.9656,364.5445 45.9656,364.9102 L45.9656,365.782 Q45.9656,366.1477 45.825,366.307 Q45.6844,366.4664 45.4594,366.4664 Q45.2531,366.4664 45.1313,366.3445 Q45.0094,366.232 44.9438,365.9227 Q44.9156,365.707 44.8031,365.5945 Q44.6062,365.3695 44.2406,365.2383 Q43.875,365.107 43.5,365.107 Q43.0406,365.107 42.6563,365.3039 Q42.2813,365.5008 41.9812,365.9508 Q41.6906,366.4008 41.6906,367.0195 L41.6906,367.6758 Q41.6906,368.4164 42.225,368.9133 Q42.7594,369.4008 43.7156,369.4008 Q44.2781,369.4008 44.6719,369.2508 Q44.9063,369.157 45.1594,368.8945 Q45.3188,368.7352 45.4031,368.6883 Q45.4969,368.6414 45.6188,368.6414 Q45.8156,368.6414 45.9656,368.8008 Q46.125,368.9508 46.125,369.157 Q46.125,369.3633 45.9187,369.607 Q45.6188,369.9539 45.1406,370.1508 Q44.4938,370.4227 43.7156,370.4227 Q42.8063,370.4227 42.0844,370.0477 Q41.4938,369.7477 41.0813,369.1102 Q40.6687,368.4633 40.6687,367.6945 L40.6687,367.0008 Q40.6687,366.2039 41.0344,365.5195 Q41.4094,364.8258 42.0656,364.4602 Q42.7219,364.0852 43.4625,364.0852 Q43.9031,364.0852 44.2875,364.1883 Q44.6813,364.282 45.0094,364.4977 Z " fill="#000000"/><text fill="#000000" font-family="sans-serif" font-size="8.4" lengthAdjust="spacing" textLength="62.4" x="55.65" y="370.4508">ClientRepository</text><line style="stroke:#181818;stroke-width:0.3;" x1="4.8" x2="149.4" y1="376.5727" y2="376.5727"/><line style="stroke:#181818;stroke-width:0.3;" x1="4.8" x2="149.4" y1="381.3727" y2="381.3727"/><ellipse cx="10.8" cy="390.259" fill="#84BE84" rx="1.8" ry="1.8" style="stroke:#038048;stroke-width:0.6;"/><text fill="#000000" font-family="sans-serif" font-size="8.4" lengthAdjust="spacing" textLength="130.2" x="16.2" y="392.8371">addClientThroughData(clientDTO)</text></g><!--class clientDTO--><g id="elem_clientDTO"><rect codeLine="51" fill="#F1F1F1" height="28.8" id="clientDTO" rx="1.5" ry="1.5" style="stroke:#181818;stroke-width:0.3;" width="58.8" x="891.9" y="258.9727"/><ellipse cx="900.9" cy="268.5727" fill="#ADD1B2" rx="6.6" ry="6.6" style="stroke:#181818;stroke-width:0.6;"/><path d="M902.5594,266.0977 Q902.6531,265.9664 902.7656,265.9008 Q902.8781,265.8352 903.0094,265.8352 Q903.2344,265.8352 903.375,265.9945 Q903.5156,266.1445 903.5156,266.5102 L903.5156,267.382 Q903.5156,267.7477 903.375,267.907 Q903.2344,268.0664 903.0094,268.0664 Q902.8031,268.0664 902.6813,267.9445 Q902.5594,267.832 902.4938,267.5227 Q902.4656,267.307 902.3531,267.1945 Q902.1563,266.9695 901.7906,266.8383 Q901.425,266.707 901.05,266.707 Q900.5906,266.707 900.2063,266.9039 Q899.8313,267.1008 899.5313,267.5508 Q899.2406,268.0008 899.2406,268.6195 L899.2406,269.2758 Q899.2406,270.0164 899.775,270.5133 Q900.3094,271.0008 901.2656,271.0008 Q901.8281,271.0008 902.2219,270.8508 Q902.4563,270.757 902.7094,270.4945 Q902.8688,270.3352 902.9531,270.2883 Q903.0469,270.2414 903.1687,270.2414 Q903.3656,270.2414 903.5156,270.4008 Q903.675,270.5508 903.675,270.757 Q903.675,270.9633 903.4688,271.207 Q903.1687,271.5539 902.6906,271.7508 Q902.0437,272.0227 901.2656,272.0227 Q900.3562,272.0227 899.6344,271.6477 Q899.0437,271.3477 898.6313,270.7102 Q898.2188,270.0633 898.2188,269.2945 L898.2188,268.6008 Q898.2188,267.8039 898.5844,267.1195 Q898.9594,266.4258 899.6156,266.0602 Q900.2719,265.6852 901.0125,265.6852 Q901.4531,265.6852 901.8375,265.7883 Q902.2312,265.882 902.5594,266.0977 Z " fill="#000000"/><text fill="#000000" font-family="sans-serif" font-size="8.4" lengthAdjust="spacing" textLength="39.6" x="909.3" y="272.0508">ClientDTO</text><line style="stroke:#181818;stroke-width:0.3;" x1="892.5" x2="950.1" y1="278.1727" y2="278.1727"/><line style="stroke:#181818;stroke-width:0.3;" x1="892.5" x2="950.1" y1="282.9727" y2="282.9727"/></g><!--class propertySoldDTO--><g id="elem_propertySoldDTO"><rect codeLine="52" fill="#F1F1F1" height="28.8" id="propertySoldDTO" rx="1.5" ry="1.5" style="stroke:#181818;stroke-width:0.3;" width="86.4" x="971.7" y="258.9727"/><ellipse cx="980.7" cy="268.5727" fill="#ADD1B2" rx="6.6" ry="6.6" style="stroke:#181818;stroke-width:0.6;"/><path d="M982.3594,266.0977 Q982.4531,265.9664 982.5656,265.9008 Q982.6781,265.8352 982.8094,265.8352 Q983.0344,265.8352 983.175,265.9945 Q983.3156,266.1445 983.3156,266.5102 L983.3156,267.382 Q983.3156,267.7477 983.175,267.907 Q983.0344,268.0664 982.8094,268.0664 Q982.6031,268.0664 982.4812,267.9445 Q982.3594,267.832 982.2937,267.5227 Q982.2656,267.307 982.1531,267.1945 Q981.9563,266.9695 981.5906,266.8383 Q981.225,266.707 980.85,266.707 Q980.3906,266.707 980.0062,266.9039 Q979.6312,267.1008 979.3313,267.5508 Q979.0406,268.0008 979.0406,268.6195 L979.0406,269.2758 Q979.0406,270.0164 979.575,270.5133 Q980.1094,271.0008 981.0656,271.0008 Q981.6281,271.0008 982.0219,270.8508 Q982.2562,270.757 982.5094,270.4945 Q982.6687,270.3352 982.7531,270.2883 Q982.8469,270.2414 982.9688,270.2414 Q983.1656,270.2414 983.3156,270.4008 Q983.475,270.5508 983.475,270.757 Q983.475,270.9633 983.2688,271.207 Q982.9688,271.5539 982.4906,271.7508 Q981.8438,272.0227 981.0656,272.0227 Q980.1563,272.0227 979.4344,271.6477 Q978.8438,271.3477 978.4313,270.7102 Q978.0188,270.0633 978.0188,269.2945 L978.0188,268.6008 Q978.0188,267.8039 978.3844,267.1195 Q978.7594,266.4258 979.4156,266.0602 Q980.0719,265.6852 980.8125,265.6852 Q981.2531,265.6852 981.6375,265.7883 Q982.0313,265.882 982.3594,266.0977 Z " fill="#000000"/><text fill="#000000" font-family="sans-serif" font-size="8.4" lengthAdjust="spacing" textLength="67.2" x="989.1" y="272.0508">PropertySoldDTO</text><line style="stroke:#181818;stroke-width:0.3;" x1="972.3" x2="1057.5" y1="278.1727" y2="278.1727"/><line style="stroke:#181818;stroke-width:0.3;" x1="972.3" x2="1057.5" y1="282.9727" y2="282.9727"/></g><!--class propertyDTO--><g id="elem_propertyDTO"><rect codeLine="53" fill="#F1F1F1" height="28.8" id="propertyDTO" rx="1.5" ry="1.5" style="stroke:#181818;stroke-width:0.3;" width="69.6" x="1079.1" y="258.9727"/><ellipse cx="1088.1" cy="268.5727" fill="#ADD1B2" rx="6.6" ry="6.6" style="stroke:#181818;stroke-width:0.6;"/><path d="M1089.7594,266.0977 Q1089.8531,265.9664 1089.9656,265.9008 Q1090.0781,265.8352 1090.2094,265.8352 Q1090.4344,265.8352 1090.575,265.9945 Q1090.7156,266.1445 1090.7156,266.5102 L1090.7156,267.382 Q1090.7156,267.7477 1090.575,267.907 Q1090.4344,268.0664 1090.2094,268.0664 Q1090.0031,268.0664 1089.8813,267.9445 Q1089.7594,267.832 1089.6938,267.5227 Q1089.6656,267.307 1089.5531,267.1945 Q1089.3563,266.9695 1088.9906,266.8383 Q1088.625,266.707 1088.25,266.707 Q1087.7906,266.707 1087.4063,266.9039 Q1087.0313,267.1008 1086.7313,267.5508 Q1086.4406,268.0008 1086.4406,268.6195 L1086.4406,269.2758 Q1086.4406,270.0164 1086.975,270.5133 Q1087.5094,271.0008 1088.4656,271.0008 Q1089.0281,271.0008 1089.4219,270.8508 Q1089.6563,270.757 1089.9094,270.4945 Q1090.0688,270.3352 1090.1531,270.2883 Q1090.2469,270.2414 1090.3687,270.2414 Q1090.5656,270.2414 1090.7156,270.4008 Q1090.875,270.5508 1090.875,270.757 Q1090.875,270.9633 1090.6688,271.207 Q1090.3687,271.5539 1089.8906,271.7508 Q1089.2437,272.0227 1088.4656,272.0227 Q1087.5562,272.0227 1086.8344,271.6477 Q1086.2437,271.3477 1085.8313,270.7102 Q1085.4188,270.0633 1085.4188,269.2945 L1085.4188,268.6008 Q1085.4188,267.8039 1085.7844,267.1195 Q1086.1594,266.4258 1086.8156,266.0602 Q1087.4719,265.6852 1088.2125,265.6852 Q1088.6531,265.6852 1089.0375,265.7883 Q1089.4312,265.882 1089.7594,266.0977 Z " fill="#000000"/><text fill="#000000" font-family="sans-serif" font-size="8.4" lengthAdjust="spacing" textLength="50.4" x="1096.5" y="272.0508">PropertyDTO</text><line style="stroke:#181818;stroke-width:0.3;" x1="1079.7" x2="1148.1" y1="278.1727" y2="278.1727"/><line style="stroke:#181818;stroke-width:0.3;" x1="1079.7" x2="1148.1" y1="282.9727" y2="282.9727"/></g><!--class storeDTO--><g id="elem_storeDTO"><rect codeLine="54" fill="#F1F1F1" height="28.8" id="storeDTO" rx="1.5" ry="1.5" style="stroke:#181818;stroke-width:0.3;" width="57.6" x="813.3" y="258.9727"/><ellipse cx="822.3" cy="268.5727" fill="#ADD1B2" rx="6.6" ry="6.6" style="stroke:#181818;stroke-width:0.6;"/><path d="M823.9594,266.0977 Q824.0531,265.9664 824.1656,265.9008 Q824.2781,265.8352 824.4094,265.8352 Q824.6344,265.8352 824.775,265.9945 Q824.9156,266.1445 824.9156,266.5102 L824.9156,267.382 Q824.9156,267.7477 824.775,267.907 Q824.6344,268.0664 824.4094,268.0664 Q824.2031,268.0664 824.0813,267.9445 Q823.9594,267.832 823.8938,267.5227 Q823.8656,267.307 823.7531,267.1945 Q823.5563,266.9695 823.1906,266.8383 Q822.825,266.707 822.45,266.707 Q821.9906,266.707 821.6062,266.9039 Q821.2312,267.1008 820.9313,267.5508 Q820.6406,268.0008 820.6406,268.6195 L820.6406,269.2758 Q820.6406,270.0164 821.175,270.5133 Q821.7094,271.0008 822.6656,271.0008 Q823.2281,271.0008 823.6219,270.8508 Q823.8562,270.757 824.1094,270.4945 Q824.2688,270.3352 824.3531,270.2883 Q824.4469,270.2414 824.5688,270.2414 Q824.7656,270.2414 824.9156,270.4008 Q825.075,270.5508 825.075,270.757 Q825.075,270.9633 824.8688,271.207 Q824.5688,271.5539 824.0906,271.7508 Q823.4438,272.0227 822.6656,272.0227 Q821.7563,272.0227 821.0344,271.6477 Q820.4438,271.3477 820.0313,270.7102 Q819.6188,270.0633 819.6188,269.2945 L819.6188,268.6008 Q819.6188,267.8039 819.9844,267.1195 Q820.3594,266.4258 821.0156,266.0602 Q821.6719,265.6852 822.4125,265.6852 Q822.8531,265.6852 823.2375,265.7883 Q823.6313,265.882 823.9594,266.0977 Z " fill="#000000"/><text fill="#000000" font-family="sans-serif" font-size="8.4" lengthAdjust="spacing" textLength="38.4" x="830.7" y="272.0508">StoreDTO</text><line style="stroke:#181818;stroke-width:0.3;" x1="813.9" x2="870.3" y1="278.1727" y2="278.1727"/><line style="stroke:#181818;stroke-width:0.3;" x1="813.9" x2="870.3" y1="282.9727" y2="282.9727"/></g><!--class client--><g id="elem_client"><rect codeLine="55" fill="#F1F1F1" height="28.8" id="client" rx="1.5" ry="1.5" style="stroke:#181818;stroke-width:0.3;" width="40.8" x="95.1" y="532.5727"/><ellipse cx="104.1" cy="542.1727" fill="#ADD1B2" rx="6.6" ry="6.6" style="stroke:#181818;stroke-width:0.6;"/><path d="M105.7594,539.6977 Q105.8531,539.5664 105.9656,539.5008 Q106.0781,539.4352 106.2094,539.4352 Q106.4344,539.4352 106.575,539.5945 Q106.7156,539.7445 106.7156,540.1102 L106.7156,540.982 Q106.7156,541.3477 106.575,541.507 Q106.4344,541.6664 106.2094,541.6664 Q106.0031,541.6664 105.8813,541.5445 Q105.7594,541.432 105.6938,541.1227 Q105.6656,540.907 105.5531,540.7945 Q105.3563,540.5695 104.9906,540.4383 Q104.625,540.307 104.25,540.307 Q103.7906,540.307 103.4063,540.5039 Q103.0313,540.7008 102.7313,541.1508 Q102.4406,541.6008 102.4406,542.2195 L102.4406,542.8758 Q102.4406,543.6164 102.975,544.1133 Q103.5094,544.6008 104.4656,544.6008 Q105.0281,544.6008 105.4219,544.4508 Q105.6563,544.357 105.9094,544.0945 Q106.0688,543.9352 106.1531,543.8883 Q106.2469,543.8414 106.3687,543.8414 Q106.5656,543.8414 106.7156,544.0008 Q106.875,544.1508 106.875,544.357 Q106.875,544.5633 106.6688,544.807 Q106.3687,545.1539 105.8906,545.3508 Q105.2437,545.6227 104.4656,545.6227 Q103.5562,545.6227 102.8344,545.2477 Q102.2437,544.9477 101.8313,544.3102 Q101.4188,543.6633 101.4188,542.8945 L101.4188,542.2008 Q101.4188,541.4039 101.7844,540.7195 Q102.1594,540.0258 102.8156,539.6602 Q103.4719,539.2852 104.2125,539.2852 Q104.6531,539.2852 105.0375,539.3883 Q105.4312,539.482 105.7594,539.6977 Z " fill="#000000"/><text fill="#000000" font-family="sans-serif" font-size="8.4" lengthAdjust="spacing" textLength="21.6" x="112.5" y="545.6508">Client</text><line style="stroke:#181818;stroke-width:0.3;" x1="95.7" x2="135.3" y1="551.7727" y2="551.7727"/><line style="stroke:#181818;stroke-width:0.3;" x1="95.7" x2="135.3" y1="556.5727" y2="556.5727"/></g><!--class clientMapper--><g id="elem_clientMapper"><rect codeLine="57" fill="#F1F1F1" height="39.9727" id="clientMapper" rx="1.5" ry="1.5" style="stroke:#181818;stroke-width:0.3;" width="95.4" x="26.4" y="444.9727"/><ellipse cx="47.01" cy="454.5727" fill="#ADD1B2" rx="6.6" ry="6.6" style="stroke:#181818;stroke-width:0.6;"/><path d="M48.6694,452.0977 Q48.7631,451.9664 48.8756,451.9008 Q48.9881,451.8352 49.1194,451.8352 Q49.3444,451.8352 49.485,451.9945 Q49.6256,452.1445 49.6256,452.5102 L49.6256,453.382 Q49.6256,453.7477 49.485,453.907 Q49.3444,454.0664 49.1194,454.0664 Q48.9131,454.0664 48.7913,453.9445 Q48.6694,453.832 48.6038,453.5227 Q48.5756,453.307 48.4631,453.1945 Q48.2662,452.9695 47.9006,452.8383 Q47.535,452.707 47.16,452.707 Q46.7006,452.707 46.3163,452.9039 Q45.9413,453.1008 45.6412,453.5508 Q45.3506,454.0008 45.3506,454.6195 L45.3506,455.2758 Q45.3506,456.0164 45.885,456.5133 Q46.4194,457.0008 47.3756,457.0008 Q47.9381,457.0008 48.3319,456.8508 Q48.5663,456.757 48.8194,456.4945 Q48.9788,456.3352 49.0631,456.2883 Q49.1569,456.2414 49.2787,456.2414 Q49.4756,456.2414 49.6256,456.4008 Q49.785,456.5508 49.785,456.757 Q49.785,456.9633 49.5787,457.207 Q49.2787,457.5539 48.8006,457.7508 Q48.1537,458.0227 47.3756,458.0227 Q46.4662,458.0227 45.7444,457.6477 Q45.1537,457.3477 44.7412,456.7102 Q44.3287,456.0633 44.3287,455.2945 L44.3287,454.6008 Q44.3287,453.8039 44.6944,453.1195 Q45.0694,452.4258 45.7256,452.0602 Q46.3819,451.6852 47.1225,451.6852 Q47.5631,451.6852 47.9475,451.7883 Q48.3412,451.882 48.6694,452.0977 Z " fill="#000000"/><text fill="#000000" font-family="sans-serif" font-size="8.4" lengthAdjust="spacing" textLength="50.4" x="57.99" y="458.0508">ClientMapper</text><line style="stroke:#181818;stroke-width:0.3;" x1="27" x2="121.2" y1="464.1727" y2="464.1727"/><line style="stroke:#181818;stroke-width:0.3;" x1="27" x2="121.2" y1="468.9727" y2="468.9727"/><ellipse cx="33" cy="477.859" fill="#84BE84" rx="1.8" ry="1.8" style="stroke:#038048;stroke-width:0.6;"/><text fill="#000000" font-family="sans-serif" font-size="8.4" lengthAdjust="spacing" textLength="79.8" x="38.4" y="480.4371">toDomain(clientDTO)</text></g><!--class propertySoldMapper--><g id="elem_propertySoldMapper"><rect codeLine="61" fill="#F1F1F1" height="39.9727" id="propertySoldMapper" rx="1.5" ry="1.5" style="stroke:#181818;stroke-width:0.3;" width="124.2" x="396" y="444.9727"/><ellipse cx="417.15" cy="454.5727" fill="#ADD1B2" rx="6.6" ry="6.6" style="stroke:#181818;stroke-width:0.6;"/><path d="M418.8094,452.0977 Q418.9031,451.9664 419.0156,451.9008 Q419.1281,451.8352 419.2594,451.8352 Q419.4844,451.8352 419.625,451.9945 Q419.7656,452.1445 419.7656,452.5102 L419.7656,453.382 Q419.7656,453.7477 419.625,453.907 Q419.4844,454.0664 419.2594,454.0664 Q419.0531,454.0664 418.9313,453.9445 Q418.8094,453.832 418.7438,453.5227 Q418.7156,453.307 418.6031,453.1945 Q418.4063,452.9695 418.0406,452.8383 Q417.675,452.707 417.3,452.707 Q416.8406,452.707 416.4563,452.9039 Q416.0813,453.1008 415.7813,453.5508 Q415.4906,454.0008 415.4906,454.6195 L415.4906,455.2758 Q415.4906,456.0164 416.025,456.5133 Q416.5594,457.0008 417.5156,457.0008 Q418.0781,457.0008 418.4719,456.8508 Q418.7063,456.757 418.9594,456.4945 Q419.1188,456.3352 419.2031,456.2883 Q419.2969,456.2414 419.4188,456.2414 Q419.6156,456.2414 419.7656,456.4008 Q419.925,456.5508 419.925,456.757 Q419.925,456.9633 419.7188,457.207 Q419.4188,457.5539 418.9406,457.7508 Q418.2938,458.0227 417.5156,458.0227 Q416.6063,458.0227 415.8844,457.6477 Q415.2938,457.3477 414.8812,456.7102 Q414.4688,456.0633 414.4688,455.2945 L414.4688,454.6008 Q414.4688,453.8039 414.8344,453.1195 Q415.2094,452.4258 415.8656,452.0602 Q416.5219,451.6852 417.2625,451.6852 Q417.7031,451.6852 418.0875,451.7883 Q418.4813,451.882 418.8094,452.0977 Z " fill="#000000"/><text fill="#000000" font-family="sans-serif" font-size="8.4" lengthAdjust="spacing" textLength="78" x="428.25" y="458.0508">PropertySoldMapper</text><line style="stroke:#181818;stroke-width:0.3;" x1="396.6" x2="519.6" y1="464.1727" y2="464.1727"/><line style="stroke:#181818;stroke-width:0.3;" x1="396.6" x2="519.6" y1="468.9727" y2="468.9727"/><ellipse cx="402.6" cy="477.859" fill="#84BE84" rx="1.8" ry="1.8" style="stroke:#038048;stroke-width:0.6;"/><text fill="#000000" font-family="sans-serif" font-size="8.4" lengthAdjust="spacing" textLength="108.6" x="408" y="480.4371">toDomain(propertySoldDTO)</text></g><!--class propertyMapper--><g id="elem_propertyMapper"><rect codeLine="65" fill="#F1F1F1" height="39.9727" id="propertyMapper" rx="1.5" ry="1.5" style="stroke:#181818;stroke-width:0.3;" width="107.4" x="528.6" y="597.9727"/><ellipse cx="549.75" cy="607.5727" fill="#ADD1B2" rx="6.6" ry="6.6" style="stroke:#181818;stroke-width:0.6;"/><path d="M551.4094,605.0977 Q551.5031,604.9664 551.6156,604.9008 Q551.7281,604.8352 551.8594,604.8352 Q552.0844,604.8352 552.225,604.9945 Q552.3656,605.1445 552.3656,605.5102 L552.3656,606.382 Q552.3656,606.7477 552.225,606.907 Q552.0844,607.0664 551.8594,607.0664 Q551.6531,607.0664 551.5313,606.9445 Q551.4094,606.832 551.3438,606.5227 Q551.3156,606.307 551.2031,606.1945 Q551.0063,605.9695 550.6406,605.8383 Q550.275,605.707 549.9,605.707 Q549.4406,605.707 549.0563,605.9039 Q548.6813,606.1008 548.3813,606.5508 Q548.0906,607.0008 548.0906,607.6195 L548.0906,608.2758 Q548.0906,609.0164 548.625,609.5133 Q549.1594,610.0008 550.1156,610.0008 Q550.6781,610.0008 551.0719,609.8508 Q551.3063,609.757 551.5594,609.4945 Q551.7188,609.3352 551.8031,609.2883 Q551.8969,609.2414 552.0188,609.2414 Q552.2156,609.2414 552.3656,609.4008 Q552.525,609.5508 552.525,609.757 Q552.525,609.9633 552.3188,610.207 Q552.0188,610.5539 551.5406,610.7508 Q550.8938,611.0227 550.1156,611.0227 Q549.2063,611.0227 548.4844,610.6477 Q547.8938,610.3477 547.4812,609.7102 Q547.0688,609.0633 547.0688,608.2945 L547.0688,607.6008 Q547.0688,606.8039 547.4344,606.1195 Q547.8094,605.4258 548.4656,605.0602 Q549.1219,604.6852 549.8625,604.6852 Q550.3031,604.6852 550.6875,604.7883 Q551.0813,604.882 551.4094,605.0977 Z " fill="#000000"/><text fill="#000000" font-family="sans-serif" font-size="8.4" lengthAdjust="spacing" textLength="61.2" x="560.85" y="611.0508">PropertyMapper</text><line style="stroke:#181818;stroke-width:0.3;" x1="529.2" x2="635.4" y1="617.1727" y2="617.1727"/><line style="stroke:#181818;stroke-width:0.3;" x1="529.2" x2="635.4" y1="621.9727" y2="621.9727"/><ellipse cx="535.2" cy="630.859" fill="#84BE84" rx="1.8" ry="1.8" style="stroke:#038048;stroke-width:0.6;"/><text fill="#000000" font-family="sans-serif" font-size="8.4" lengthAdjust="spacing" textLength="91.8" x="540.6" y="633.4371">toDomain(propertyDTO)</text></g><!--class storeMapper--><g id="elem_storeMapper"><rect codeLine="69" fill="#F1F1F1" height="39.9727" id="storeMapper" rx="1.5" ry="1.5" style="stroke:#181818;stroke-width:0.3;" width="94.8" x="695.1" y="444.9727"/><ellipse cx="715.98" cy="454.5727" fill="#ADD1B2" rx="6.6" ry="6.6" style="stroke:#181818;stroke-width:0.6;"/><path d="M717.6394,452.0977 Q717.7331,451.9664 717.8456,451.9008 Q717.9581,451.8352 718.0894,451.8352 Q718.3144,451.8352 718.455,451.9945 Q718.5956,452.1445 718.5956,452.5102 L718.5956,453.382 Q718.5956,453.7477 718.455,453.907 Q718.3144,454.0664 718.0894,454.0664 Q717.8831,454.0664 717.7612,453.9445 Q717.6394,453.832 717.5737,453.5227 Q717.5456,453.307 717.4331,453.1945 Q717.2362,452.9695 716.8706,452.8383 Q716.505,452.707 716.13,452.707 Q715.6706,452.707 715.2863,452.9039 Q714.9113,453.1008 714.6112,453.5508 Q714.3206,454.0008 714.3206,454.6195 L714.3206,455.2758 Q714.3206,456.0164 714.855,456.5133 Q715.3894,457.0008 716.3456,457.0008 Q716.9081,457.0008 717.3019,456.8508 Q717.5363,456.757 717.7894,456.4945 Q717.9487,456.3352 718.0331,456.2883 Q718.1269,456.2414 718.2488,456.2414 Q718.4456,456.2414 718.5956,456.4008 Q718.755,456.5508 718.755,456.757 Q718.755,456.9633 718.5487,457.207 Q718.2488,457.5539 717.7706,457.7508 Q717.1238,458.0227 716.3456,458.0227 Q715.4363,458.0227 714.7144,457.6477 Q714.1238,457.3477 713.7113,456.7102 Q713.2987,456.0633 713.2987,455.2945 L713.2987,454.6008 Q713.2987,453.8039 713.6644,453.1195 Q714.0394,452.4258 714.6956,452.0602 Q715.3519,451.6852 716.0925,451.6852 Q716.5331,451.6852 716.9175,451.7883 Q717.3113,451.882 717.6394,452.0977 Z " fill="#000000"/><text fill="#000000" font-family="sans-serif" font-size="8.4" lengthAdjust="spacing" textLength="49.2" x="727.02" y="458.0508">StoreMapper</text><line style="stroke:#181818;stroke-width:0.3;" x1="695.7" x2="789.3" y1="464.1727" y2="464.1727"/><line style="stroke:#181818;stroke-width:0.3;" x1="695.7" x2="789.3" y1="468.9727" y2="468.9727"/><ellipse cx="701.7" cy="477.859" fill="#84BE84" rx="1.8" ry="1.8" style="stroke:#038048;stroke-width:0.6;"/><text fill="#000000" font-family="sans-serif" font-size="8.4" lengthAdjust="spacing" textLength="79.2" x="707.1" y="480.4371">toDomain(storeDTO)</text></g><!--class store--><g id="elem_store"><rect codeLine="73" fill="#F1F1F1" height="28.8" id="store" rx="1.5" ry="1.5" style="stroke:#181818;stroke-width:0.3;" width="39.6" x="774.3" y="532.5727"/><ellipse cx="783.3" cy="542.1727" fill="#ADD1B2" rx="6.6" ry="6.6" style="stroke:#181818;stroke-width:0.6;"/><path d="M784.9594,539.6977 Q785.0531,539.5664 785.1656,539.5008 Q785.2781,539.4352 785.4094,539.4352 Q785.6344,539.4352 785.775,539.5945 Q785.9156,539.7445 785.9156,540.1102 L785.9156,540.982 Q785.9156,541.3477 785.775,541.507 Q785.6344,541.6664 785.4094,541.6664 Q785.2031,541.6664 785.0813,541.5445 Q784.9594,541.432 784.8938,541.1227 Q784.8656,540.907 784.7531,540.7945 Q784.5563,540.5695 784.1906,540.4383 Q783.825,540.307 783.45,540.307 Q782.9906,540.307 782.6062,540.5039 Q782.2312,540.7008 781.9313,541.1508 Q781.6406,541.6008 781.6406,542.2195 L781.6406,542.8758 Q781.6406,543.6164 782.175,544.1133 Q782.7094,544.6008 783.6656,544.6008 Q784.2281,544.6008 784.6219,544.4508 Q784.8562,544.357 785.1094,544.0945 Q785.2688,543.9352 785.3531,543.8883 Q785.4469,543.8414 785.5688,543.8414 Q785.7656,543.8414 785.9156,544.0008 Q786.075,544.1508 786.075,544.357 Q786.075,544.5633 785.8688,544.807 Q785.5688,545.1539 785.0906,545.3508 Q784.4438,545.6227 783.6656,545.6227 Q782.7563,545.6227 782.0344,545.2477 Q781.4438,544.9477 781.0313,544.3102 Q780.6188,543.6633 780.6188,542.8945 L780.6188,542.2008 Q780.6188,541.4039 780.9844,540.7195 Q781.3594,540.0258 782.0156,539.6602 Q782.6719,539.2852 783.4125,539.2852 Q783.8531,539.2852 784.2375,539.3883 Q784.6313,539.482 784.9594,539.6977 Z " fill="#000000"/><text fill="#000000" font-family="sans-serif" font-size="8.4" lengthAdjust="spacing" textLength="20.4" x="791.7" y="545.6508">Store</text><line style="stroke:#181818;stroke-width:0.3;" x1="774.9" x2="813.3" y1="551.7727" y2="551.7727"/><line style="stroke:#181818;stroke-width:0.3;" x1="774.9" x2="813.3" y1="556.5727" y2="556.5727"/></g><!--class city--><g id="elem_city"><rect codeLine="75" fill="#F1F1F1" height="28.8" id="city" rx="1.5" ry="1.5" style="stroke:#181818;stroke-width:0.3;" width="33.6" x="237.3" y="532.5727"/><ellipse cx="246.3" cy="542.1727" fill="#ADD1B2" rx="6.6" ry="6.6" style="stroke:#181818;stroke-width:0.6;"/><path d="M247.9594,539.6977 Q248.0531,539.5664 248.1656,539.5008 Q248.2781,539.4352 248.4094,539.4352 Q248.6344,539.4352 248.775,539.5945 Q248.9156,539.7445 248.9156,540.1102 L248.9156,540.982 Q248.9156,541.3477 248.775,541.507 Q248.6344,541.6664 248.4094,541.6664 Q248.2031,541.6664 248.0812,541.5445 Q247.9594,541.432 247.8937,541.1227 Q247.8656,540.907 247.7531,540.7945 Q247.5562,540.5695 247.1906,540.4383 Q246.825,540.307 246.45,540.307 Q245.9906,540.307 245.6063,540.5039 Q245.2313,540.7008 244.9312,541.1508 Q244.6406,541.6008 244.6406,542.2195 L244.6406,542.8758 Q244.6406,543.6164 245.175,544.1133 Q245.7094,544.6008 246.6656,544.6008 Q247.2281,544.6008 247.6219,544.4508 Q247.8563,544.357 248.1094,544.0945 Q248.2687,543.9352 248.3531,543.8883 Q248.4469,543.8414 248.5688,543.8414 Q248.7656,543.8414 248.9156,544.0008 Q249.075,544.1508 249.075,544.357 Q249.075,544.5633 248.8687,544.807 Q248.5688,545.1539 248.0906,545.3508 Q247.4438,545.6227 246.6656,545.6227 Q245.7563,545.6227 245.0344,545.2477 Q244.4438,544.9477 244.0313,544.3102 Q243.6187,543.6633 243.6187,542.8945 L243.6187,542.2008 Q243.6187,541.4039 243.9844,540.7195 Q244.3594,540.0258 245.0156,539.6602 Q245.6719,539.2852 246.4125,539.2852 Q246.8531,539.2852 247.2375,539.3883 Q247.6313,539.482 247.9594,539.6977 Z " fill="#000000"/><text fill="#000000" font-family="sans-serif" font-size="8.4" lengthAdjust="spacing" textLength="14.4" x="254.7" y="545.6508">City</text><line style="stroke:#181818;stroke-width:0.3;" x1="237.9" x2="270.3" y1="551.7727" y2="551.7727"/><line style="stroke:#181818;stroke-width:0.3;" x1="237.9" x2="270.3" y1="556.5727" y2="556.5727"/></g><!--class state--><g id="elem_state"><rect codeLine="76" fill="#F1F1F1" height="28.8" id="state" rx="1.5" ry="1.5" style="stroke:#181818;stroke-width:0.3;" width="39" x="292.2" y="532.5727"/><ellipse cx="301.2" cy="542.1727" fill="#ADD1B2" rx="6.6" ry="6.6" style="stroke:#181818;stroke-width:0.6;"/><path d="M302.8594,539.6977 Q302.9531,539.5664 303.0656,539.5008 Q303.1781,539.4352 303.3094,539.4352 Q303.5344,539.4352 303.675,539.5945 Q303.8156,539.7445 303.8156,540.1102 L303.8156,540.982 Q303.8156,541.3477 303.675,541.507 Q303.5344,541.6664 303.3094,541.6664 Q303.1031,541.6664 302.9813,541.5445 Q302.8594,541.432 302.7938,541.1227 Q302.7656,540.907 302.6531,540.7945 Q302.4563,540.5695 302.0906,540.4383 Q301.725,540.307 301.35,540.307 Q300.8906,540.307 300.5062,540.5039 Q300.1312,540.7008 299.8313,541.1508 Q299.5406,541.6008 299.5406,542.2195 L299.5406,542.8758 Q299.5406,543.6164 300.075,544.1133 Q300.6094,544.6008 301.5656,544.6008 Q302.1281,544.6008 302.5219,544.4508 Q302.7562,544.357 303.0094,544.0945 Q303.1688,543.9352 303.2531,543.8883 Q303.3469,543.8414 303.4688,543.8414 Q303.6656,543.8414 303.8156,544.0008 Q303.975,544.1508 303.975,544.357 Q303.975,544.5633 303.7688,544.807 Q303.4688,545.1539 302.9906,545.3508 Q302.3438,545.6227 301.5656,545.6227 Q300.6563,545.6227 299.9344,545.2477 Q299.3438,544.9477 298.9313,544.3102 Q298.5188,543.6633 298.5188,542.8945 L298.5188,542.2008 Q298.5188,541.4039 298.8844,540.7195 Q299.2594,540.0258 299.9156,539.6602 Q300.5719,539.2852 301.3125,539.2852 Q301.7531,539.2852 302.1375,539.3883 Q302.5313,539.482 302.8594,539.6977 Z " fill="#000000"/><text fill="#000000" font-family="sans-serif" font-size="8.4" lengthAdjust="spacing" textLength="19.8" x="309.6" y="545.6508">State</text><line style="stroke:#181818;stroke-width:0.3;" x1="292.8" x2="330.6" y1="551.7727" y2="551.7727"/><line style="stroke:#181818;stroke-width:0.3;" x1="292.8" x2="330.6" y1="556.5727" y2="556.5727"/></g><!--class district--><g id="elem_district"><rect codeLine="77" fill="#F1F1F1" height="28.8" id="district" rx="1.5" ry="1.5" style="stroke:#181818;stroke-width:0.3;" width="45" x="171" y="532.5727"/><ellipse cx="180" cy="542.1727" fill="#ADD1B2" rx="6.6" ry="6.6" style="stroke:#181818;stroke-width:0.6;"/><path d="M181.6594,539.6977 Q181.7531,539.5664 181.8656,539.5008 Q181.9781,539.4352 182.1094,539.4352 Q182.3344,539.4352 182.475,539.5945 Q182.6156,539.7445 182.6156,540.1102 L182.6156,540.982 Q182.6156,541.3477 182.475,541.507 Q182.3344,541.6664 182.1094,541.6664 Q181.9031,541.6664 181.7813,541.5445 Q181.6594,541.432 181.5938,541.1227 Q181.5656,540.907 181.4531,540.7945 Q181.2563,540.5695 180.8906,540.4383 Q180.525,540.307 180.15,540.307 Q179.6906,540.307 179.3063,540.5039 Q178.9313,540.7008 178.6313,541.1508 Q178.3406,541.6008 178.3406,542.2195 L178.3406,542.8758 Q178.3406,543.6164 178.875,544.1133 Q179.4094,544.6008 180.3656,544.6008 Q180.9281,544.6008 181.3219,544.4508 Q181.5563,544.357 181.8094,544.0945 Q181.9688,543.9352 182.0531,543.8883 Q182.1469,543.8414 182.2687,543.8414 Q182.4656,543.8414 182.6156,544.0008 Q182.775,544.1508 182.775,544.357 Q182.775,544.5633 182.5688,544.807 Q182.2687,545.1539 181.7906,545.3508 Q181.1437,545.6227 180.3656,545.6227 Q179.4562,545.6227 178.7344,545.2477 Q178.1437,544.9477 177.7313,544.3102 Q177.3188,543.6633 177.3188,542.8945 L177.3188,542.2008 Q177.3188,541.4039 177.6844,540.7195 Q178.0594,540.0258 178.7156,539.6602 Q179.3719,539.2852 180.1125,539.2852 Q180.5531,539.2852 180.9375,539.3883 Q181.3312,539.482 181.6594,539.6977 Z " fill="#000000"/><text fill="#000000" font-family="sans-serif" font-size="8.4" lengthAdjust="spacing" textLength="25.8" x="188.4" y="545.6508">District</text><line style="stroke:#181818;stroke-width:0.3;" x1="171.6" x2="215.4" y1="551.7727" y2="551.7727"/><line style="stroke:#181818;stroke-width:0.3;" x1="171.6" x2="215.4" y1="556.5727" y2="556.5727"/></g><!--link ui to ctrl--><g id="link_ui_ctrl"><path codeLine="79" d="M536.7,56.9467 C536.7,68.2207 536.7,84.8047 536.7,100.9507 " fill="none" id="ui-to-ctrl" style="stroke:#181818;stroke-width:0.6;"/><polygon fill="#181818" points="536.7,103.9567,539.1,98.5567,536.7,100.9567,534.3,98.5567,536.7,103.9567" style="stroke:#181818;stroke-width:0.6;"/><text fill="#000000" font-family="sans-serif" font-size="7.8" lengthAdjust="spacing" textLength="10.8" x="537.3" y="83.7896">ctrl</text></g><!--link ctrl to repo--><g id="link_ctrl_repo"><path codeLine="80" d="M496.386,200.2027 C486.81,211.4647 476.706,223.3567 467.508,234.1747 " fill="none" id="ctrl-to-repo" style="stroke:#181818;stroke-width:0.6;stroke-dasharray:7.0,7.0;"/><polygon fill="#181818" points="465.438,236.6107,470.769,234.061,467.3854,234.3287,467.1178,230.9451,465.438,236.6107" style="stroke:#181818;stroke-width:0.6;"/></g><!--link ctrl to reader--><g id="link_ctrl_reader"><path codeLine="81" d="M585.606,152.1727 C652.752,152.1727 773.91,152.1727 850.836,152.1727 " fill="none" id="ctrl-to-reader" style="stroke:#181818;stroke-width:0.6;"/><polygon fill="#181818" points="854.01,152.1727,848.61,149.7727,851.01,152.1727,848.61,154.5727,854.01,152.1727" style="stroke:#181818;stroke-width:0.6;"/><text fill="#000000" font-family="sans-serif" font-size="7.8" lengthAdjust="spacing" textLength="58.8" x="690.45" y="147.9896">importFileReader</text></g><!--link ctrl to lrepo--><g id="link_ctrl_lrepo"><path codeLine="82" d="M487.71,165.3487 C442.806,178.4107 375.852,201.8767 325.5,236.7727 C280.506,267.9607 262.422,276.9007 242.7,327.9727 C239.484,336.3007 240.666,345.7927 243.24,354.1867 " fill="none" id="ctrl-to-lrepo" style="stroke:#181818;stroke-width:0.6;"/><polygon fill="#181818" points="244.248,357.2227,244.8278,351.3419,243.3045,354.3749,240.2714,352.8515,244.248,357.2227" style="stroke:#181818;stroke-width:0.6;"/><text fill="#000000" font-family="sans-serif" font-size="7.8" lengthAdjust="spacing" textLength="45" x="326.1" y="276.6896">locationRepo</text></g><!--link ctrl to snrepo--><g id="link_ctrl_snrepo"><path codeLine="83" d="M585.78,168.9007 C622.05,182.6467 670.986,205.2187 705.9,236.7727 C710.964,241.3507 757.068,316.2607 780.522,354.6127 " fill="none" id="ctrl-to-snrepo" style="stroke:#181818;stroke-width:0.6;"/><polygon fill="#181818" points="782.172,357.3127,781.4001,351.454,780.6059,354.7539,777.306,353.9597,782.172,357.3127" style="stroke:#181818;stroke-width:0.6;"/><text fill="#000000" font-family="sans-serif" font-size="7.8" lengthAdjust="spacing" textLength="47.4" x="753.3" y="276.6896">storeNetRepo</text></g><!--link ctrl to psrepo--><g id="link_ctrl_psrepo"><path codeLine="84" d="M585.678,199.4647 C620.958,238.8667 657.228,295.6807 625.5,339.3727 C620.862,345.7567 615.114,351.0787 608.67,355.5067 " fill="none" id="ctrl-to-psrepo" style="stroke:#181818;stroke-width:0.6;"/><polygon fill="#181818" points="606.072,357.2227,611.9003,356.2473,608.5747,355.5685,609.2535,352.2429,606.072,357.2227" style="stroke:#181818;stroke-width:0.6;"/><text fill="#000000" font-family="sans-serif" font-size="7.8" lengthAdjust="spacing" textLength="61.8" x="638.7" y="276.6896">propertySoldRepo</text></g><!--link ctrl to crepo--><g id="link_ctrl_crepo"><path codeLine="85" d="M487.542,156.7267 C420.354,163.9687 297.984,183.8587 208.5,236.7727 C157.128,267.1507 113.364,323.5267 91.68,354.7027 " fill="none" id="ctrl-to-crepo" style="stroke:#181818;stroke-width:0.6;"/><polygon fill="#181818" points="89.904,357.2707,94.9482,354.1924,91.6094,354.8025,90.9992,351.4637,89.904,357.2707" style="stroke:#181818;stroke-width:0.6;"/><text fill="#000000" font-family="sans-serif" font-size="7.8" lengthAdjust="spacing" textLength="36.6" x="209.1" y="276.6896">clientRepo</text></g><!--link repo to lrepo--><g id="link_repo_lrepo"><path codeLine="86" d="M382.314,304.6387 C363.33,315.6727 341.694,328.1587 321.9,339.3727 C312.378,344.7667 302.064,350.5207 292.416,355.8547 " fill="none" id="repo-to-lrepo" style="stroke:#181818;stroke-width:0.6;"/><polygon fill="#181818" points="289.716,357.3487,295.6033,356.8389,292.3421,355.8983,293.2827,352.6371,289.716,357.3487" style="stroke:#181818;stroke-width:0.6;"/><text fill="#000000" font-family="sans-serif" font-size="7.8" lengthAdjust="spacing" textLength="64.2" x="341.1" y="336.9896">locationRepository</text></g><!--link repo to snrepo--><g id="link_repo_snrepo"><path codeLine="87" d="M486.942,291.2107 C529.158,304.9147 590.202,324.2347 644.1,339.3727 C665.1,345.2707 687.876,351.2047 709.194,356.5507 " fill="none" id="repo-to-snrepo" style="stroke:#181818;stroke-width:0.6;"/><polygon fill="#181818" points="712.326,357.3367,707.6693,353.6986,709.4156,356.609,706.5051,358.3553,712.326,357.3367" style="stroke:#181818;stroke-width:0.6;"/><text fill="#000000" font-family="sans-serif" font-size="7.8" lengthAdjust="spacing" textLength="82.8" x="644.7" y="336.9896">storeNetworkRepository</text></g><!--link repo to psrepo--><g id="link_repo_psrepo"><path codeLine="88" d="M426.558,310.0507 C426.096,320.1727 427.5,330.7567 432.9,339.3727 C436.926,345.7927 442.398,351.1447 448.584,355.5967 " fill="none" id="repo-to-psrepo" style="stroke:#181818;stroke-width:0.6;"/><polygon fill="#181818" points="451.086,357.3187,447.9958,352.2817,448.6139,355.6191,445.2765,356.2371,451.086,357.3187" style="stroke:#181818;stroke-width:0.6;"/><text fill="#000000" font-family="sans-serif" font-size="7.8" lengthAdjust="spacing" textLength="81" x="433.5" y="336.9896">propertySoldRepository</text></g><!--link repo to crepo--><g id="link_repo_crepo"><path codeLine="89" d="M382.32,289.0447 C320.382,306.8647 217.014,336.6127 147.966,356.4787 " fill="none" id="repo-to-crepo" style="stroke:#181818;stroke-width:0.6;"/><polygon fill="#181818" points="144.912,357.3607,150.7652,358.1734,147.795,356.5308,149.4375,353.5606,144.912,357.3607" style="stroke:#181818;stroke-width:0.6;"/><text fill="#000000" font-family="sans-serif" font-size="7.8" lengthAdjust="spacing" textLength="55.8" x="246.3" y="336.9896">clientRepository</text></g><!--link lrepo to loc--><g id="link_lrepo_loc"><path codeLine="90" d="M254.1,397.6807 C254.1,412.6747 254.1,433.1467 254.1,447.4567 " fill="none" id="lrepo-to-loc" style="stroke:#181818;stroke-width:0.6;"/><polygon fill="#181818" points="254.1,450.5947,256.5,445.1947,254.1,447.5947,251.7,445.1947,254.1,450.5947" style="stroke:#181818;stroke-width:0.6;"/><text fill="#000000" font-family="sans-serif" font-size="7.8" lengthAdjust="spacing" textLength="27" x="254.7" y="424.5896">location</text></g><!--link snrepo to sn--><g id="link_snrepo_sn"><path codeLine="91" d="M805.806,397.6807 C814.878,412.8667 827.298,433.6627 835.86,447.9967 " fill="none" id="snrepo-to-sn" style="stroke:#181818;stroke-width:0.6;"/><polygon fill="#181818" points="837.414,450.5947,836.7081,444.7277,835.8768,448.0184,832.5861,447.1871,837.414,450.5947" style="stroke:#181818;stroke-width:0.6;"/><text fill="#000000" font-family="sans-serif" font-size="7.8" lengthAdjust="spacing" textLength="45.6" x="824.1" y="424.5896">storeNetwork</text></g><!--link psrepo to ps--><g id="link_psrepo_ps"><path codeLine="92" d="M521.238,397.6207 C534.852,424.6327 554.52,474.5707 539.1,514.5727 C536.928,520.2007 533.25,525.4507 529.23,529.9987 " fill="none" id="psrepo-to-ps" style="stroke:#181818;stroke-width:0.6;"/><polygon fill="#181818" points="526.974,532.4527,532.3991,530.11,529.0078,530.2473,528.8705,526.8559,526.974,532.4527" style="stroke:#181818;stroke-width:0.6;"/><text fill="#000000" font-family="sans-serif" font-size="7.8" lengthAdjust="spacing" textLength="43.8" x="545.7" y="468.3896">propertySold</text></g><!--link ps to prop--><g id="link_ps_prop"><path codeLine="93" d="M502.554,561.4087 C497.502,571.2667 491.358,585.0127 488.7,597.9727 C482.706,627.1687 487.5,661.9987 491.454,682.3027 " fill="none" id="ps-to-prop" style="stroke:#181818;stroke-width:0.6;"/><polygon fill="#181818" points="492.078,685.4347,493.3853,679.6718,491.4962,682.4916,488.6764,680.6026,492.078,685.4347" style="stroke:#181818;stroke-width:0.6;"/><text fill="#000000" font-family="sans-serif" font-size="7.8" lengthAdjust="spacing" textLength="28.2" x="489.3" y="621.3896">property</text></g><!--link reader to clientDTO--><g id="link_reader_clientDTO"><path codeLine="94" d="M921.3,194.5747 C921.3,215.6287 921.3,239.9827 921.3,255.8467 " fill="none" id="reader-to-clientDTO" style="stroke:#181818;stroke-width:0.6;stroke-dasharray:7.0,7.0;"/><polygon fill="#181818" points="921.3,258.9007,923.7,253.5007,921.3,255.9007,918.9,253.5007,921.3,258.9007" style="stroke:#181818;stroke-width:0.6;"/></g><!--link reader to propertySoldDTO--><g id="link_reader_propertySoldDTO"><path codeLine="95" d="M953.904,194.5747 C970.53,215.8927 989.796,240.5947 1002.156,256.4347 " fill="none" id="reader-to-propertySoldDTO" style="stroke:#181818;stroke-width:0.6;stroke-dasharray:7.0,7.0;"/><polygon fill="#181818" points="1004.082,258.9007,1002.6569,253.1658,1002.2384,256.534,998.8702,256.1155,1004.082,258.9007" style="stroke:#181818;stroke-width:0.6;"/></g><!--link reader to propertyDTO--><g id="link_reader_propertyDTO"><path codeLine="96" d="M988.59,188.1367 C1014.264,202.3867 1043.466,219.5167 1068.9,236.7727 C1077.978,242.9347 1087.536,250.4167 1095.498,256.9687 " fill="none" id="reader-to-propertyDTO" style="stroke:#181818;stroke-width:0.6;stroke-dasharray:7.0,7.0;"/><polygon fill="#181818" points="1097.916,258.9667,1095.2905,253.6726,1095.6064,257.052,1092.227,257.368,1097.916,258.9667" style="stroke:#181818;stroke-width:0.6;"/></g><!--link reader to storeDTO--><g id="link_reader_storeDTO"><path codeLine="97" d="M893.712,194.5747 C879.702,215.8027 863.472,240.3907 853.014,256.2367 " fill="none" id="reader-to-storeDTO" style="stroke:#181818;stroke-width:0.6;stroke-dasharray:7.0,7.0;"/><polygon fill="#181818" points="851.256,258.9007,856.2357,255.7191,852.9102,256.3979,852.2314,253.0724,851.256,258.9007" style="stroke:#181818;stroke-width:0.6;"/></g><!--link crepo to client--><g id="link_crepo_client"><path codeLine="98" d="M99.528,397.6327 C111.768,409.8487 125.73,426.6907 132.3,444.9727 C142.596,473.6227 131.706,509.1247 123.294,529.6147 " fill="none" id="crepo-to-client" style="stroke:#181818;stroke-width:0.6;"/><polygon fill="#181818" points="122.076,532.5307,126.3728,528.4738,123.2329,529.7627,121.944,526.6228,122.076,532.5307" style="stroke:#181818;stroke-width:0.6;"/><text fill="#000000" font-family="sans-serif" font-size="7.8" lengthAdjust="spacing" textLength="18.6" x="137.1" y="468.3896">client</text></g><!--link crepo to clientMapper--><g id="link_crepo_clientMapper"><path codeLine="99" d="M76.422,397.6807 C75.96,410.8267 75.36,428.1727 74.886,441.8947 " fill="none" id="crepo-to-clientMapper" style="stroke:#181818;stroke-width:0.6;stroke-dasharray:7.0,7.0;"/><polygon fill="#181818" points="74.778,444.9427,77.3616,439.6281,74.8808,441.9444,72.5644,439.4636,74.778,444.9427" style="stroke:#181818;stroke-width:0.6;"/></g><!--link psrepo to propertySoldMapper--><g id="link_psrepo_propertySoldMapper"><path codeLine="100" d="M498.456,397.6807 C490.446,410.9347 479.856,428.4667 471.534,442.2427 " fill="none" id="psrepo-to-propertySoldMapper" style="stroke:#181818;stroke-width:0.6;stroke-dasharray:7.0,7.0;"/><polygon fill="#181818" points="469.896,444.9427,474.7406,441.5588,471.4458,442.374,470.6306,439.0792,469.896,444.9427" style="stroke:#181818;stroke-width:0.6;"/></g><!--link ps to propertyMapper--><g id="link_ps_propertyMapper"><path codeLine="101" d="M524.526,561.3847 C534.594,571.1527 548.298,584.4607 559.83,595.6567 " fill="none" id="ps-to-propertyMapper" style="stroke:#181818;stroke-width:0.6;stroke-dasharray:7.0,7.0;"/><polygon fill="#181818" points="562.11,597.8707,559.9109,592.3858,559.9589,595.7795,556.5651,595.8275,562.11,597.8707" style="stroke:#181818;stroke-width:0.6;"/></g><!--link snrepo to storeMapper--><g id="link_snrepo_storeMapper"><path codeLine="102" d="M782.394,397.6807 C774.474,410.9347 764.004,428.4667 755.778,442.2427 " fill="none" id="snrepo-to-storeMapper" style="stroke:#181818;stroke-width:0.6;stroke-dasharray:7.0,7.0;"/><polygon fill="#181818" points="754.164,444.9427,759.0003,441.547,755.7075,442.3702,754.8843,439.0774,754.164,444.9427" style="stroke:#181818;stroke-width:0.6;"/></g><!--link storeMapper to store--><g id="link_storeMapper_store"><path codeLine="103" d="M754.992,485.2087 C763.68,498.7927 775.14,516.7207 783.408,529.6507 " fill="none" id="storeMapper-to-store" style="stroke:#181818;stroke-width:0.6;stroke-dasharray:7.0,7.0;"/><polygon fill="#181818" points="785.118,532.3267,784.2398,526.483,783.5057,529.7967,780.1919,529.0626,785.118,532.3267" style="stroke:#181818;stroke-width:0.6;"/><text fill="#000000" font-family="sans-serif" font-size="7.8" lengthAdjust="spacing" textLength="17.4" x="773.7" y="512.1896">store</text></g><!--link propertyMapper to prop--><g id="link_propertyMapper_prop"><path codeLine="104" d="M561.24,638.2087 C546.408,651.9667 526.782,670.1707 512.808,683.1307 " fill="none" id="propertyMapper-to-prop" style="stroke:#181818;stroke-width:0.6;stroke-dasharray:7.0,7.0;"/><polygon fill="#181818" points="510.444,685.3267,516.033,683.4076,512.6412,683.284,512.7647,679.8921,510.444,685.3267" style="stroke:#181818;stroke-width:0.6;"/><text fill="#000000" font-family="sans-serif" font-size="7.8" lengthAdjust="spacing" textLength="28.2" x="542.1" y="665.1896">property</text></g><!--link propertySoldMapper to ps--><g id="link_propertySoldMapper_ps"><path codeLine="105" d="M470.736,485.2087 C479.526,498.7927 491.118,516.7207 499.482,529.6507 " fill="none" id="propertySoldMapper-to-ps" style="stroke:#181818;stroke-width:0.6;stroke-dasharray:7.0,7.0;"/><polygon fill="#181818" points="501.216,532.3267,500.3007,526.4887,499.5877,529.807,496.2693,529.094,501.216,532.3267" style="stroke:#181818;stroke-width:0.6;"/><text fill="#000000" font-family="sans-serif" font-size="7.8" lengthAdjust="spacing" textLength="43.8" x="489.9" y="512.1896">propertySold</text></g><!--link clientMapper to client--><g id="link_clientMapper_client"><path codeLine="106" d="M84.12,485.2087 C91.092,498.7927 100.29,516.7207 106.92,529.6507 " fill="none" id="clientMapper-to-client" style="stroke:#181818;stroke-width:0.6;stroke-dasharray:7.0,7.0;"/><polygon fill="#181818" points="108.294,532.3267,107.9655,526.4265,106.9251,529.6572,103.6943,528.6168,108.294,532.3267" style="stroke:#181818;stroke-width:0.6;"/><text fill="#000000" font-family="sans-serif" font-size="7.8" lengthAdjust="spacing" textLength="18.6" x="99.3" y="512.1896">client</text></g><!--link sn to store--><g id="link_sn_store"><path codeLine="107" d="M836.832,479.5447 C827.934,493.4587 814.224,514.8967 804.744,529.7227 " fill="none" id="sn-to-store" style="stroke:#181818;stroke-width:0.6;"/><polygon fill="#181818" points="803.028,532.4107,807.9619,529.1585,804.6464,529.8846,803.9202,526.5691,803.028,532.4107" style="stroke:#181818;stroke-width:0.6;"/><text fill="#000000" font-family="sans-serif" font-size="7.8" lengthAdjust="spacing" textLength="17.4" x="822.3" y="512.1896">store</text></g><!--reverse link loc to city--><g id="link_loc_city"><path codeLine="108" d="M254.1,491.7487 C254.1,505.2667 254.1,521.2387 254.1,532.4107 " fill="none" id="loc-backto-city" style="stroke:#181818;stroke-width:0.6;"/><polygon fill="none" points="249.9,491.5447,254.1,479.5447,258.3,491.5447,249.9,491.5447" style="stroke:#181818;stroke-width:0.6;"/></g><!--reverse link loc to state--><g id="link_loc_state"><path codeLine="109" d="M271.08,489.4627 C281.052,503.4307 293.31,520.6027 301.734,532.4107 " fill="none" id="loc-backto-state" style="stroke:#181818;stroke-width:0.6;"/><polygon fill="none" points="267.552,491.7547,264,479.5447,274.392,486.8707,267.552,491.7547" style="stroke:#181818;stroke-width:0.6;"/></g><!--reverse link loc to district--><g id="link_loc_district"><path codeLine="110" d="M236.388,489.2587 C225.87,503.2627 212.892,520.5487 203.982,532.4107 " fill="none" id="loc-backto-district" style="stroke:#181818;stroke-width:0.6;"/><polygon fill="none" points="233.118,486.6187,243.684,479.5447,239.838,491.6647,233.118,486.6187" style="stroke:#181818;stroke-width:0.6;"/></g><!--SRC=[XPNDRjim3CVlUWgXfnITYst7OEWbmO00sLOqxGC8YfO8KoD3KZ04szvzigWFcdRQN6AHVvC_Kg8ST32Al-m-VlhCExvvxQqBVAiEGbxuMWJ1c3J2Utu3hi7qihdXmlEpdhfMzXISDKQv99716Vw7yVZhZ9KYQ7jwKhq5Ym_MgUygD4llRAzSkEoisJUhD5gTa4gdT5-rKKzAx9LBrZjT8HO_e-jHXECj-rVnXzUzZXcryedDHKDckpkeiCruVX0kRgjzbo5_M_UBk1u9BNAjAl82Gsm8UGOP7WlAi2eig93gIpoaokh4HDSqWFPUXAjz7FKfDVIIgZ2uds9VQ_3FHsVFXsCAMCx0Llim12Kn8P2LDHbjFihdJoGXrkASwPIjdtzyu3JxN9OSk_he7YE2tXC2hCK4-5Gda69uamf7o_ce2ynnKLzgvmw1Ii898am84nPnCC2g6258MStn5H6fb4gf34bsUPUW_tan9a4OXF6RwFjouo13AJdOjNqL-ZHV9gu31UedvaauKkrSq9c0xmGZWL9VK1JVrfCGfMsJzzkRhN4w7nyP7vfOX2AEJyMyZYVJQGaRiCyBniwQTzq3tF7BzCVIy_tzGxfSOTKzb0jkoISNDoYY16wF9Hzz9Aetp_gIZxuOrPq7SSadduygaLc1FYN9SYqtJ4_JJ0Z6Dr8JNcMXmYbHLfW6PYN2Ofa1S0WAota1WQIFJd146tAnl2_3VhNfHaOwpJCkOcw3s-fCaMkXsTDombak_3HjzOuysPeRKXCNCngHwYlzOcGCIrZSbvdHJx99NqUNJIkf5HltAMtNY63OrYz_kmv6hwvWvEgopTb_]--></g></svg>