<?xml version="1.0" encoding="us-ascii" standalone="no"?><svg xmlns="http://www.w3.org/2000/svg" xmlns:xlink="http://www.w3.org/1999/xlink" contentStyleType="text/css" height="867px" preserveAspectRatio="none" style="width:2193px;height:867px;background:#FFFFFF;" version="1.1" viewBox="0 0 2193 867" width="2193px" zoomAndPan="magnify"><defs/><g><!--class Client--><g id="elem_Client"><rect codeLine="2" fill="#F1F1F1" height="48" id="Client" rx="2.5" ry="2.5" style="stroke:#181818;stroke-width:0.5;" width="68" x="861.51" y="7"/><ellipse cx="876.51" cy="23" fill="#ADD1B2" rx="11" ry="11" style="stroke:#181818;stroke-width:1.0;"/><path d="M879.2756,18.875 Q879.4319,18.6563 879.6194,18.5469 Q879.8069,18.4375 880.0256,18.4375 Q880.4006,18.4375 880.635,18.7031 Q880.8694,18.9531 880.8694,19.5625 L880.8694,21.0156 Q880.8694,21.625 880.635,21.8906 Q880.4006,22.1563 880.0256,22.1563 Q879.6819,22.1563 879.4788,21.9531 Q879.2756,21.7656 879.1663,21.25 Q879.1194,20.8906 878.9319,20.7031 Q878.6038,20.3281 877.9944,20.1094 Q877.385,19.8906 876.76,19.8906 Q875.9944,19.8906 875.3538,20.2188 Q874.7288,20.5469 874.2288,21.2969 Q873.7444,22.0469 873.7444,23.0781 L873.7444,24.1719 Q873.7444,25.4063 874.635,26.2344 Q875.5256,27.0469 877.1194,27.0469 Q878.0569,27.0469 878.7131,26.7969 Q879.1038,26.6406 879.5256,26.2031 Q879.7913,25.9375 879.9319,25.8594 Q880.0881,25.7813 880.2913,25.7813 Q880.6194,25.7813 880.8694,26.0469 Q881.135,26.2969 881.135,26.6406 Q881.135,26.9844 880.7913,27.3906 Q880.2913,27.9688 879.4944,28.2969 Q878.4163,28.75 877.1194,28.75 Q875.6038,28.75 874.4006,28.125 Q873.4163,27.625 872.7288,26.5625 Q872.0413,25.4844 872.0413,24.2031 L872.0413,23.0469 Q872.0413,21.7188 872.6506,20.5781 Q873.2756,19.4219 874.3694,18.8125 Q875.4631,18.1875 876.6975,18.1875 Q877.4319,18.1875 878.0725,18.3594 Q878.7288,18.5156 879.2756,18.875 Z " fill="#000000"/><text fill="#000000" font-family="sans-serif" font-size="14" lengthAdjust="spacing" textLength="36" x="890.51" y="28.7969">Client</text><line style="stroke:#181818;stroke-width:0.5;" x1="862.51" x2="928.51" y1="39" y2="39"/><line style="stroke:#181818;stroke-width:0.5;" x1="862.51" x2="928.51" y1="47" y2="47"/></g><!--class ReadAppoitementRequestUI--><g id="elem_ReadAppoitementRequestUI"><rect codeLine="4" fill="#F1F1F1" height="178.3477" id="ReadAppoitementRequestUI" rx="2.5" ry="2.5" style="stroke:#181818;stroke-width:0.5;" width="290" x="750.51" y="134"/><ellipse cx="802.26" cy="150" fill="#ADD1B2" rx="11" ry="11" style="stroke:#181818;stroke-width:1.0;"/><path d="M805.0256,145.875 Q805.1819,145.6563 805.3694,145.5469 Q805.5569,145.4375 805.7756,145.4375 Q806.1506,145.4375 806.385,145.7031 Q806.6194,145.9531 806.6194,146.5625 L806.6194,148.0156 Q806.6194,148.625 806.385,148.8906 Q806.1506,149.1563 805.7756,149.1563 Q805.4319,149.1563 805.2288,148.9531 Q805.0256,148.7656 804.9163,148.25 Q804.8694,147.8906 804.6819,147.7031 Q804.3538,147.3281 803.7444,147.1094 Q803.135,146.8906 802.51,146.8906 Q801.7444,146.8906 801.1038,147.2188 Q800.4788,147.5469 799.9788,148.2969 Q799.4944,149.0469 799.4944,150.0781 L799.4944,151.1719 Q799.4944,152.4063 800.385,153.2344 Q801.2756,154.0469 802.8694,154.0469 Q803.8069,154.0469 804.4631,153.7969 Q804.8538,153.6406 805.2756,153.2031 Q805.5413,152.9375 805.6819,152.8594 Q805.8381,152.7813 806.0413,152.7813 Q806.3694,152.7813 806.6194,153.0469 Q806.885,153.2969 806.885,153.6406 Q806.885,153.9844 806.5413,154.3906 Q806.0413,154.9688 805.2444,155.2969 Q804.1663,155.75 802.8694,155.75 Q801.3538,155.75 800.1506,155.125 Q799.1663,154.625 798.4788,153.5625 Q797.7913,152.4844 797.7913,151.2031 L797.7913,150.0469 Q797.7913,148.7188 798.4006,147.5781 Q799.0256,146.4219 800.1194,145.8125 Q801.2131,145.1875 802.4475,145.1875 Q803.1819,145.1875 803.8225,145.3594 Q804.4788,145.5156 805.0256,145.875 Z " fill="#000000"/><text fill="#000000" font-family="sans-serif" font-size="14" lengthAdjust="spacing" textLength="178" x="822.76" y="155.7969">ReadAppoitementRequestUI</text><line style="stroke:#181818;stroke-width:0.5;" x1="751.51" x2="1039.51" y1="166" y2="166"/><line style="stroke:#181818;stroke-width:0.5;" x1="751.51" x2="1039.51" y1="174" y2="174"/><ellipse cx="761.51" cy="188.8105" fill="#84BE84" rx="3" ry="3" style="stroke:#038048;stroke-width:1.0;"/><text fill="#000000" font-family="sans-serif" font-size="14" lengthAdjust="spacing" textLength="31" x="770.51" y="193.1074">run()</text><ellipse cx="761.51" cy="207.4316" fill="#84BE84" rx="3" ry="3" style="stroke:#038048;stroke-width:1.0;"/><text fill="#000000" font-family="sans-serif" font-size="14" lengthAdjust="spacing" textLength="207" x="770.51" y="211.7285">getSelectedMessage(): Message</text><ellipse cx="761.51" cy="226.0527" fill="#84BE84" rx="3" ry="3" style="stroke:#038048;stroke-width:1.0;"/><text fill="#000000" font-family="sans-serif" font-size="14" lengthAdjust="spacing" textLength="130" x="770.51" y="230.3496">displayNotifications()</text><ellipse cx="761.51" cy="244.6738" fill="#84BE84" rx="3" ry="3" style="stroke:#038048;stroke-width:1.0;"/><text fill="#000000" font-family="sans-serif" font-size="14" lengthAdjust="spacing" textLength="264" x="770.51" y="248.9707">showMessageDetails(message: Message)</text><ellipse cx="761.51" cy="263.2949" fill="#84BE84" rx="3" ry="3" style="stroke:#038048;stroke-width:1.0;"/><text fill="#000000" font-family="sans-serif" font-size="14" lengthAdjust="spacing" textLength="201" x="770.51" y="267.5918">showAppointmentConfirmation()</text><ellipse cx="761.51" cy="281.916" fill="#84BE84" rx="3" ry="3" style="stroke:#038048;stroke-width:1.0;"/><text fill="#000000" font-family="sans-serif" font-size="14" lengthAdjust="spacing" textLength="171" x="770.51" y="286.2129">showDeclineReasonForm()</text><ellipse cx="761.51" cy="300.5371" fill="#84BE84" rx="3" ry="3" style="stroke:#038048;stroke-width:1.0;"/><text fill="#000000" font-family="sans-serif" font-size="14" lengthAdjust="spacing" textLength="158" x="770.51" y="304.834">showOperationSuccess()</text></g><!--class ReadAppoitementRequestController--><g id="elem_ReadAppoitementRequestController"><rect codeLine="14" fill="#F1F1F1" height="159.7266" id="ReadAppoitementRequestController" rx="2.5" ry="2.5" style="stroke:#181818;stroke-width:0.5;" width="700" x="916.51" y="391"/><ellipse cx="1148.26" cy="407" fill="#ADD1B2" rx="11" ry="11" style="stroke:#181818;stroke-width:1.0;"/><path d="M1151.0256,402.875 Q1151.1819,402.6563 1151.3694,402.5469 Q1151.5569,402.4375 1151.7756,402.4375 Q1152.1506,402.4375 1152.385,402.7031 Q1152.6194,402.9531 1152.6194,403.5625 L1152.6194,405.0156 Q1152.6194,405.625 1152.385,405.8906 Q1152.1506,406.1563 1151.7756,406.1563 Q1151.4319,406.1563 1151.2288,405.9531 Q1151.0256,405.7656 1150.9163,405.25 Q1150.8694,404.8906 1150.6819,404.7031 Q1150.3538,404.3281 1149.7444,404.1094 Q1149.135,403.8906 1148.51,403.8906 Q1147.7444,403.8906 1147.1038,404.2188 Q1146.4788,404.5469 1145.9788,405.2969 Q1145.4944,406.0469 1145.4944,407.0781 L1145.4944,408.1719 Q1145.4944,409.4063 1146.385,410.2344 Q1147.2756,411.0469 1148.8694,411.0469 Q1149.8069,411.0469 1150.4631,410.7969 Q1150.8538,410.6406 1151.2756,410.2031 Q1151.5413,409.9375 1151.6819,409.8594 Q1151.8381,409.7813 1152.0413,409.7813 Q1152.3694,409.7813 1152.6194,410.0469 Q1152.885,410.2969 1152.885,410.6406 Q1152.885,410.9844 1152.5413,411.3906 Q1152.0413,411.9688 1151.2444,412.2969 Q1150.1663,412.75 1148.8694,412.75 Q1147.3538,412.75 1146.1506,412.125 Q1145.1663,411.625 1144.4788,410.5625 Q1143.7913,409.4844 1143.7913,408.2031 L1143.7913,407.0469 Q1143.7913,405.7188 1144.4006,404.5781 Q1145.0256,403.4219 1146.1194,402.8125 Q1147.2131,402.1875 1148.4475,402.1875 Q1149.1819,402.1875 1149.8225,402.3594 Q1150.4788,402.5156 1151.0256,402.875 Z " fill="#000000"/><text fill="#000000" font-family="sans-serif" font-size="14" lengthAdjust="spacing" textLength="228" x="1168.76" y="412.7969">ReadAppoitementRequestController</text><line style="stroke:#181818;stroke-width:0.5;" x1="917.51" x2="1615.51" y1="423" y2="423"/><line style="stroke:#181818;stroke-width:0.5;" x1="917.51" x2="1615.51" y1="431" y2="431"/><ellipse cx="927.51" cy="445.8105" fill="#84BE84" rx="3" ry="3" style="stroke:#038048;stroke-width:1.0;"/><text fill="#000000" font-family="sans-serif" font-size="14" lengthAdjust="spacing" textLength="221" x="936.51" y="450.1074">getNotifications(): List&lt;Notification&gt;</text><ellipse cx="927.51" cy="464.4316" fill="#84BE84" rx="3" ry="3" style="stroke:#038048;stroke-width:1.0;"/><text fill="#000000" font-family="sans-serif" font-size="14" lengthAdjust="spacing" textLength="247" x="936.51" y="468.7285">getPropertySales(): List&lt;PropertySale&gt;</text><ellipse cx="927.51" cy="483.0527" fill="#84BE84" rx="3" ry="3" style="stroke:#038048;stroke-width:1.0;"/><text fill="#000000" font-family="sans-serif" font-size="14" lengthAdjust="spacing" textLength="241" x="936.51" y="487.3496">getVisitRequests(): List&lt;VisitRequest&gt;</text><ellipse cx="927.51" cy="501.6738" fill="#84BE84" rx="3" ry="3" style="stroke:#038048;stroke-width:1.0;"/><text fill="#000000" font-family="sans-serif" font-size="14" lengthAdjust="spacing" textLength="674" x="936.51" y="505.9707">createNotifications(propertySales: List&lt;PropertySale&gt;, visitRequests: List&lt;VisitRequest&gt;): List&lt;Notification&gt;</text><ellipse cx="927.51" cy="520.2949" fill="#84BE84" rx="3" ry="3" style="stroke:#038048;stroke-width:1.0;"/><text fill="#000000" font-family="sans-serif" font-size="14" lengthAdjust="spacing" textLength="317" x="936.51" y="524.5918">getMessageDetails(message: Message): Message</text><ellipse cx="927.51" cy="538.916" fill="#84BE84" rx="3" ry="3" style="stroke:#038048;stroke-width:1.0;"/><text fill="#000000" font-family="sans-serif" font-size="14" lengthAdjust="spacing" textLength="391" x="936.51" y="543.2129">addDeclinedVisitRequest(visitRequest: VisitRequest): boolean</text></g><!--class Repositories--><g id="elem_Repositories"><rect codeLine="23" fill="#F1F1F1" height="85.2422" id="Repositories" rx="2.5" ry="2.5" style="stroke:#181818;stroke-width:0.5;" width="364" x="1013.51" y="630"/><ellipse cx="1151.76" cy="646" fill="#ADD1B2" rx="11" ry="11" style="stroke:#181818;stroke-width:1.0;"/><path d="M1154.5256,641.875 Q1154.6819,641.6563 1154.8694,641.5469 Q1155.0569,641.4375 1155.2756,641.4375 Q1155.6506,641.4375 1155.885,641.7031 Q1156.1194,641.9531 1156.1194,642.5625 L1156.1194,644.0156 Q1156.1194,644.625 1155.885,644.8906 Q1155.6506,645.1563 1155.2756,645.1563 Q1154.9319,645.1563 1154.7288,644.9531 Q1154.5256,644.7656 1154.4163,644.25 Q1154.3694,643.8906 1154.1819,643.7031 Q1153.8538,643.3281 1153.2444,643.1094 Q1152.635,642.8906 1152.01,642.8906 Q1151.2444,642.8906 1150.6038,643.2188 Q1149.9788,643.5469 1149.4788,644.2969 Q1148.9944,645.0469 1148.9944,646.0781 L1148.9944,647.1719 Q1148.9944,648.4063 1149.885,649.2344 Q1150.7756,650.0469 1152.3694,650.0469 Q1153.3069,650.0469 1153.9631,649.7969 Q1154.3538,649.6406 1154.7756,649.2031 Q1155.0413,648.9375 1155.1819,648.8594 Q1155.3381,648.7813 1155.5413,648.7813 Q1155.8694,648.7813 1156.1194,649.0469 Q1156.385,649.2969 1156.385,649.6406 Q1156.385,649.9844 1156.0413,650.3906 Q1155.5413,650.9688 1154.7444,651.2969 Q1153.6663,651.75 1152.3694,651.75 Q1150.8538,651.75 1149.6506,651.125 Q1148.6663,650.625 1147.9788,649.5625 Q1147.2913,648.4844 1147.2913,647.2031 L1147.2913,646.0469 Q1147.2913,644.7188 1147.9006,643.5781 Q1148.5256,642.4219 1149.6194,641.8125 Q1150.7131,641.1875 1151.9475,641.1875 Q1152.6819,641.1875 1153.3225,641.3594 Q1153.9788,641.5156 1154.5256,641.875 Z " fill="#000000"/><text fill="#000000" font-family="sans-serif" font-size="14" lengthAdjust="spacing" textLength="79" x="1172.26" y="651.7969">Repositories</text><line style="stroke:#181818;stroke-width:0.5;" x1="1014.51" x2="1376.51" y1="662" y2="662"/><line style="stroke:#181818;stroke-width:0.5;" x1="1014.51" x2="1376.51" y1="670" y2="670"/><ellipse cx="1024.51" cy="684.8105" fill="#84BE84" rx="3" ry="3" style="stroke:#038048;stroke-width:1.0;"/><text fill="#000000" font-family="sans-serif" font-size="14" lengthAdjust="spacing" textLength="338" x="1033.51" y="689.1074">getPropertySaleRepository(): PropertySaleRepository</text><ellipse cx="1024.51" cy="703.4316" fill="#84BE84" rx="3" ry="3" style="stroke:#038048;stroke-width:1.0;"/><text fill="#000000" font-family="sans-serif" font-size="14" lengthAdjust="spacing" textLength="332" x="1033.51" y="707.7285">getVisitRequestRepository(): VisitRequestRepository</text></g><!--class PropertySaleRepository--><g id="elem_PropertySaleRepository"><rect codeLine="28" fill="#F1F1F1" height="66.6211" id="PropertySaleRepository" rx="2.5" ry="2.5" style="stroke:#181818;stroke-width:0.5;" width="273" x="1413.01" y="639"/><ellipse cx="1470.26" cy="655" fill="#ADD1B2" rx="11" ry="11" style="stroke:#181818;stroke-width:1.0;"/><path d="M1473.0256,650.875 Q1473.1819,650.6563 1473.3694,650.5469 Q1473.5569,650.4375 1473.7756,650.4375 Q1474.1506,650.4375 1474.385,650.7031 Q1474.6194,650.9531 1474.6194,651.5625 L1474.6194,653.0156 Q1474.6194,653.625 1474.385,653.8906 Q1474.1506,654.1563 1473.7756,654.1563 Q1473.4319,654.1563 1473.2288,653.9531 Q1473.0256,653.7656 1472.9163,653.25 Q1472.8694,652.8906 1472.6819,652.7031 Q1472.3538,652.3281 1471.7444,652.1094 Q1471.135,651.8906 1470.51,651.8906 Q1469.7444,651.8906 1469.1038,652.2188 Q1468.4788,652.5469 1467.9788,653.2969 Q1467.4944,654.0469 1467.4944,655.0781 L1467.4944,656.1719 Q1467.4944,657.4063 1468.385,658.2344 Q1469.2756,659.0469 1470.8694,659.0469 Q1471.8069,659.0469 1472.4631,658.7969 Q1472.8538,658.6406 1473.2756,658.2031 Q1473.5413,657.9375 1473.6819,657.8594 Q1473.8381,657.7813 1474.0413,657.7813 Q1474.3694,657.7813 1474.6194,658.0469 Q1474.885,658.2969 1474.885,658.6406 Q1474.885,658.9844 1474.5413,659.3906 Q1474.0413,659.9688 1473.2444,660.2969 Q1472.1663,660.75 1470.8694,660.75 Q1469.3538,660.75 1468.1506,660.125 Q1467.1663,659.625 1466.4788,658.5625 Q1465.7913,657.4844 1465.7913,656.2031 L1465.7913,655.0469 Q1465.7913,653.7188 1466.4006,652.5781 Q1467.0256,651.4219 1468.1194,650.8125 Q1469.2131,650.1875 1470.4475,650.1875 Q1471.1819,650.1875 1471.8225,650.3594 Q1472.4788,650.5156 1473.0256,650.875 Z " fill="#000000"/><text fill="#000000" font-family="sans-serif" font-size="14" lengthAdjust="spacing" textLength="150" x="1490.76" y="660.7969">PropertySaleRepository</text><line style="stroke:#181818;stroke-width:0.5;" x1="1414.01" x2="1685.01" y1="671" y2="671"/><line style="stroke:#181818;stroke-width:0.5;" x1="1414.01" x2="1685.01" y1="679" y2="679"/><ellipse cx="1424.01" cy="693.8105" fill="#84BE84" rx="3" ry="3" style="stroke:#038048;stroke-width:1.0;"/><text fill="#000000" font-family="sans-serif" font-size="14" lengthAdjust="spacing" textLength="247" x="1433.01" y="698.1074">getPropertySales(): List&lt;PropertySale&gt;</text></g><!--class VisitRequestRepository--><g id="elem_VisitRequestRepository"><rect codeLine="32" fill="#F1F1F1" height="85.2422" id="VisitRequestRepository" rx="2.5" ry="2.5" style="stroke:#181818;stroke-width:0.5;" width="417" x="1721.01" y="630"/><ellipse cx="1851.76" cy="646" fill="#ADD1B2" rx="11" ry="11" style="stroke:#181818;stroke-width:1.0;"/><path d="M1854.5256,641.875 Q1854.6819,641.6563 1854.8694,641.5469 Q1855.0569,641.4375 1855.2756,641.4375 Q1855.6506,641.4375 1855.885,641.7031 Q1856.1194,641.9531 1856.1194,642.5625 L1856.1194,644.0156 Q1856.1194,644.625 1855.885,644.8906 Q1855.6506,645.1563 1855.2756,645.1563 Q1854.9319,645.1563 1854.7288,644.9531 Q1854.5256,644.7656 1854.4163,644.25 Q1854.3694,643.8906 1854.1819,643.7031 Q1853.8538,643.3281 1853.2444,643.1094 Q1852.635,642.8906 1852.01,642.8906 Q1851.2444,642.8906 1850.6038,643.2188 Q1849.9788,643.5469 1849.4788,644.2969 Q1848.9944,645.0469 1848.9944,646.0781 L1848.9944,647.1719 Q1848.9944,648.4063 1849.885,649.2344 Q1850.7756,650.0469 1852.3694,650.0469 Q1853.3069,650.0469 1853.9631,649.7969 Q1854.3538,649.6406 1854.7756,649.2031 Q1855.0413,648.9375 1855.1819,648.8594 Q1855.3381,648.7813 1855.5413,648.7813 Q1855.8694,648.7813 1856.1194,649.0469 Q1856.385,649.2969 1856.385,649.6406 Q1856.385,649.9844 1856.0413,650.3906 Q1855.5413,650.9688 1854.7444,651.2969 Q1853.6663,651.75 1852.3694,651.75 Q1850.8538,651.75 1849.6506,651.125 Q1848.6663,650.625 1847.9788,649.5625 Q1847.2913,648.4844 1847.2913,647.2031 L1847.2913,646.0469 Q1847.2913,644.7188 1847.9006,643.5781 Q1848.5256,642.4219 1849.6194,641.8125 Q1850.7131,641.1875 1851.9475,641.1875 Q1852.6819,641.1875 1853.3225,641.3594 Q1853.9788,641.5156 1854.5256,641.875 Z " fill="#000000"/><text fill="#000000" font-family="sans-serif" font-size="14" lengthAdjust="spacing" textLength="147" x="1872.26" y="651.7969">VisitRequestRepository</text><line style="stroke:#181818;stroke-width:0.5;" x1="1722.01" x2="2137.01" y1="662" y2="662"/><line style="stroke:#181818;stroke-width:0.5;" x1="1722.01" x2="2137.01" y1="670" y2="670"/><ellipse cx="1732.01" cy="684.8105" fill="#84BE84" rx="3" ry="3" style="stroke:#038048;stroke-width:1.0;"/><text fill="#000000" font-family="sans-serif" font-size="14" lengthAdjust="spacing" textLength="241" x="1741.01" y="689.1074">getVisitRequests(): List&lt;VisitRequest&gt;</text><ellipse cx="1732.01" cy="703.4316" fill="#84BE84" rx="3" ry="3" style="stroke:#038048;stroke-width:1.0;"/><text fill="#000000" font-family="sans-serif" font-size="14" lengthAdjust="spacing" textLength="391" x="1741.01" y="707.7285">addDeclinedVisitRequest(visitRequest: VisitRequest): boolean</text></g><!--class Notification--><g id="elem_Notification"><rect codeLine="37" fill="#F1F1F1" height="66.6211" id="Notification" rx="2.5" ry="2.5" style="stroke:#181818;stroke-width:0.5;" width="676" x="302.51" y="639"/><ellipse cx="601.76" cy="655" fill="#ADD1B2" rx="11" ry="11" style="stroke:#181818;stroke-width:1.0;"/><path d="M604.5256,650.875 Q604.6819,650.6563 604.8694,650.5469 Q605.0569,650.4375 605.2756,650.4375 Q605.6506,650.4375 605.885,650.7031 Q606.1194,650.9531 606.1194,651.5625 L606.1194,653.0156 Q606.1194,653.625 605.885,653.8906 Q605.6506,654.1563 605.2756,654.1563 Q604.9319,654.1563 604.7288,653.9531 Q604.5256,653.7656 604.4163,653.25 Q604.3694,652.8906 604.1819,652.7031 Q603.8538,652.3281 603.2444,652.1094 Q602.635,651.8906 602.01,651.8906 Q601.2444,651.8906 600.6038,652.2188 Q599.9788,652.5469 599.4788,653.2969 Q598.9944,654.0469 598.9944,655.0781 L598.9944,656.1719 Q598.9944,657.4063 599.885,658.2344 Q600.7756,659.0469 602.3694,659.0469 Q603.3069,659.0469 603.9631,658.7969 Q604.3538,658.6406 604.7756,658.2031 Q605.0413,657.9375 605.1819,657.8594 Q605.3381,657.7813 605.5413,657.7813 Q605.8694,657.7813 606.1194,658.0469 Q606.385,658.2969 606.385,658.6406 Q606.385,658.9844 606.0413,659.3906 Q605.5413,659.9688 604.7444,660.2969 Q603.6663,660.75 602.3694,660.75 Q600.8538,660.75 599.6506,660.125 Q598.6663,659.625 597.9788,658.5625 Q597.2913,657.4844 597.2913,656.2031 L597.2913,655.0469 Q597.2913,653.7188 597.9006,652.5781 Q598.5256,651.4219 599.6194,650.8125 Q600.7131,650.1875 601.9475,650.1875 Q602.6819,650.1875 603.3225,650.3594 Q603.9788,650.5156 604.5256,650.875 Z " fill="#000000"/><text fill="#000000" font-family="sans-serif" font-size="14" lengthAdjust="spacing" textLength="69" x="622.26" y="660.7969">Notification</text><line style="stroke:#181818;stroke-width:0.5;" x1="303.51" x2="977.51" y1="671" y2="671"/><line style="stroke:#181818;stroke-width:0.5;" x1="303.51" x2="977.51" y1="679" y2="679"/><ellipse cx="313.51" cy="693.8105" fill="#84BE84" rx="3" ry="3" style="stroke:#038048;stroke-width:1.0;"/><text fill="#000000" font-family="sans-serif" font-size="14" lengthAdjust="spacing" textLength="650" x="322.51" y="698.1074">createMessages(propertySales: List&lt;PropertySale&gt;, visitRequests: List&lt;VisitRequest&gt;): List&lt;Message&gt;</text></g><!--class Message--><g id="elem_Message"><rect codeLine="41" fill="#F1F1F1" height="66.6211" id="Message" rx="2.5" ry="2.5" style="stroke:#181818;stroke-width:0.5;" width="221" x="46.01" y="639"/><ellipse cx="123.76" cy="655" fill="#ADD1B2" rx="11" ry="11" style="stroke:#181818;stroke-width:1.0;"/><path d="M126.5256,650.875 Q126.6819,650.6563 126.8694,650.5469 Q127.0569,650.4375 127.2756,650.4375 Q127.6506,650.4375 127.885,650.7031 Q128.1194,650.9531 128.1194,651.5625 L128.1194,653.0156 Q128.1194,653.625 127.885,653.8906 Q127.6506,654.1563 127.2756,654.1563 Q126.9319,654.1563 126.7287,653.9531 Q126.5256,653.7656 126.4162,653.25 Q126.3694,652.8906 126.1819,652.7031 Q125.8537,652.3281 125.2444,652.1094 Q124.635,651.8906 124.01,651.8906 Q123.2444,651.8906 122.6037,652.2188 Q121.9787,652.5469 121.4787,653.2969 Q120.9944,654.0469 120.9944,655.0781 L120.9944,656.1719 Q120.9944,657.4063 121.885,658.2344 Q122.7756,659.0469 124.3694,659.0469 Q125.3069,659.0469 125.9631,658.7969 Q126.3537,658.6406 126.7756,658.2031 Q127.0412,657.9375 127.1819,657.8594 Q127.3381,657.7813 127.5412,657.7813 Q127.8694,657.7813 128.1194,658.0469 Q128.385,658.2969 128.385,658.6406 Q128.385,658.9844 128.0413,659.3906 Q127.5412,659.9688 126.7444,660.2969 Q125.6662,660.75 124.3694,660.75 Q122.8537,660.75 121.6506,660.125 Q120.6662,659.625 119.9787,658.5625 Q119.2912,657.4844 119.2912,656.2031 L119.2912,655.0469 Q119.2912,653.7188 119.9006,652.5781 Q120.5256,651.4219 121.6194,650.8125 Q122.7131,650.1875 123.9475,650.1875 Q124.6819,650.1875 125.3225,650.3594 Q125.9787,650.5156 126.5256,650.875 Z " fill="#000000"/><text fill="#000000" font-family="sans-serif" font-size="14" lengthAdjust="spacing" textLength="57" x="144.26" y="660.7969">Message</text><line style="stroke:#181818;stroke-width:0.5;" x1="47.01" x2="266.01" y1="671" y2="671"/><line style="stroke:#181818;stroke-width:0.5;" x1="47.01" x2="266.01" y1="679" y2="679"/><ellipse cx="57.01" cy="693.8105" fill="#84BE84" rx="3" ry="3" style="stroke:#038048;stroke-width:1.0;"/><text fill="#000000" font-family="sans-serif" font-size="14" lengthAdjust="spacing" textLength="195" x="66.01" y="698.1074">getMessageDetails(): Message</text></g><!--class PropertySale--><g id="elem_PropertySale"><rect codeLine="45" fill="#F1F1F1" height="66.6211" id="PropertySale" rx="2.5" ry="2.5" style="stroke:#181818;stroke-width:0.5;" width="114" x="339.51" y="794"/><ellipse cx="354.51" cy="810" fill="#ADD1B2" rx="11" ry="11" style="stroke:#181818;stroke-width:1.0;"/><path d="M357.2756,805.875 Q357.4319,805.6563 357.6194,805.5469 Q357.8069,805.4375 358.0256,805.4375 Q358.4006,805.4375 358.635,805.7031 Q358.8694,805.9531 358.8694,806.5625 L358.8694,808.0156 Q358.8694,808.625 358.635,808.8906 Q358.4006,809.1563 358.0256,809.1563 Q357.6819,809.1563 357.4788,808.9531 Q357.2756,808.7656 357.1663,808.25 Q357.1194,807.8906 356.9319,807.7031 Q356.6038,807.3281 355.9944,807.1094 Q355.385,806.8906 354.76,806.8906 Q353.9944,806.8906 353.3538,807.2188 Q352.7288,807.5469 352.2288,808.2969 Q351.7444,809.0469 351.7444,810.0781 L351.7444,811.1719 Q351.7444,812.4063 352.635,813.2344 Q353.5256,814.0469 355.1194,814.0469 Q356.0569,814.0469 356.7131,813.7969 Q357.1038,813.6406 357.5256,813.2031 Q357.7913,812.9375 357.9319,812.8594 Q358.0881,812.7813 358.2913,812.7813 Q358.6194,812.7813 358.8694,813.0469 Q359.135,813.2969 359.135,813.6406 Q359.135,813.9844 358.7913,814.3906 Q358.2913,814.9688 357.4944,815.2969 Q356.4163,815.75 355.1194,815.75 Q353.6038,815.75 352.4006,815.125 Q351.4163,814.625 350.7288,813.5625 Q350.0413,812.4844 350.0413,811.2031 L350.0413,810.0469 Q350.0413,808.7188 350.6506,807.5781 Q351.2756,806.4219 352.3694,805.8125 Q353.4631,805.1875 354.6975,805.1875 Q355.4319,805.1875 356.0725,805.3594 Q356.7288,805.5156 357.2756,805.875 Z " fill="#000000"/><text fill="#000000" font-family="sans-serif" font-size="14" lengthAdjust="spacing" textLength="82" x="368.51" y="815.7969">PropertySale</text><line style="stroke:#181818;stroke-width:0.5;" x1="340.51" x2="452.51" y1="826" y2="826"/><text fill="#000000" font-family="sans-serif" font-size="14" lengthAdjust="spacing" textLength="76" x="345.51" y="845.1074">// properties</text><line style="stroke:#181818;stroke-width:0.5;" x1="340.51" x2="452.51" y1="852.6211" y2="852.6211"/></g><!--class VisitRequest--><g id="elem_VisitRequest"><rect codeLine="49" fill="#F1F1F1" height="66.6211" id="VisitRequest" rx="2.5" ry="2.5" style="stroke:#181818;stroke-width:0.5;" width="111" x="2070.01" y="794"/><ellipse cx="2085.01" cy="810" fill="#ADD1B2" rx="11" ry="11" style="stroke:#181818;stroke-width:1.0;"/><path d="M2087.7756,805.875 Q2087.9319,805.6563 2088.1194,805.5469 Q2088.3069,805.4375 2088.5256,805.4375 Q2088.9006,805.4375 2089.135,805.7031 Q2089.3694,805.9531 2089.3694,806.5625 L2089.3694,808.0156 Q2089.3694,808.625 2089.135,808.8906 Q2088.9006,809.1563 2088.5256,809.1563 Q2088.1819,809.1563 2087.9787,808.9531 Q2087.7756,808.7656 2087.6662,808.25 Q2087.6194,807.8906 2087.4319,807.7031 Q2087.1037,807.3281 2086.4944,807.1094 Q2085.885,806.8906 2085.26,806.8906 Q2084.4944,806.8906 2083.8537,807.2188 Q2083.2287,807.5469 2082.7287,808.2969 Q2082.2444,809.0469 2082.2444,810.0781 L2082.2444,811.1719 Q2082.2444,812.4063 2083.135,813.2344 Q2084.0256,814.0469 2085.6194,814.0469 Q2086.5569,814.0469 2087.2131,813.7969 Q2087.6037,813.6406 2088.0256,813.2031 Q2088.2912,812.9375 2088.4319,812.8594 Q2088.5881,812.7813 2088.7912,812.7813 Q2089.1194,812.7813 2089.3694,813.0469 Q2089.635,813.2969 2089.635,813.6406 Q2089.635,813.9844 2089.2912,814.3906 Q2088.7912,814.9688 2087.9944,815.2969 Q2086.9162,815.75 2085.6194,815.75 Q2084.1037,815.75 2082.9006,815.125 Q2081.9162,814.625 2081.2287,813.5625 Q2080.5412,812.4844 2080.5412,811.2031 L2080.5412,810.0469 Q2080.5412,808.7188 2081.1506,807.5781 Q2081.7756,806.4219 2082.8694,805.8125 Q2083.9631,805.1875 2085.1975,805.1875 Q2085.9319,805.1875 2086.5725,805.3594 Q2087.2287,805.5156 2087.7756,805.875 Z " fill="#000000"/><text fill="#000000" font-family="sans-serif" font-size="14" lengthAdjust="spacing" textLength="79" x="2099.01" y="815.7969">VisitRequest</text><line style="stroke:#181818;stroke-width:0.5;" x1="2071.01" x2="2180.01" y1="826" y2="826"/><text fill="#000000" font-family="sans-serif" font-size="14" lengthAdjust="spacing" textLength="76" x="2076.01" y="845.1074">// properties</text><line style="stroke:#181818;stroke-width:0.5;" x1="2071.01" x2="2180.01" y1="852.6211" y2="852.6211"/></g><!--link Client to ReadAppoitementRequestUI--><g id="link_Client_ReadAppoitementRequestUI"><path codeLine="53" d="M869.67,55.22 C861.99,63.74 854.55,74.01 850.51,85 C845.32,99.15 845.05,114.21 847.69,128.99 " fill="none" id="Client-to-ReadAppoitementRequestUI" style="stroke:#181818;stroke-width:1.0;"/><polygon fill="#181818" points="848.69,133.99,850.8365,124.3779,847.7039,129.0882,842.9936,125.9556,848.69,133.99" style="stroke:#181818;stroke-width:1.0;"/><text fill="#000000" font-family="sans-serif" font-size="13" lengthAdjust="spacing" textLength="42" x="851.51" y="100.0283">&#171;uses&#187;</text></g><!--link ReadAppoitementRequestUI to Client--><g id="link_ReadAppoitementRequestUI_Client"><path codeLine="60" d="M898.74,133.93 C898.97,117.66 898.96,100.81 898.51,85 C898.29,77.07 897.87,68.47 897.42,60.56 " fill="none" id="ReadAppoitementRequestUI-to-Client" style="stroke:#181818;stroke-width:1.0;"/><polygon fill="#181818" points="897.11,55.21,893.6315,64.4241,897.3961,60.2018,901.6184,63.9664,897.11,55.21" style="stroke:#181818;stroke-width:1.0;"/><text fill="#000000" font-family="sans-serif" font-size="13" lengthAdjust="spacing" textLength="42" x="900.51" y="100.0283">&#171;uses&#187;</text></g><!--link ReadAppoitementRequestUI to ReadAppoitementRequestController--><g id="link_ReadAppoitementRequestUI_ReadAppoitementRequestController"><path codeLine="54" d="M1028.4,312.12 C1065.67,336.82 1106.01,363.58 1142.73,387.92 " fill="none" id="ReadAppoitementRequestUI-to-ReadAppoitementRequestController" style="stroke:#181818;stroke-width:1.0;"/><polygon fill="#181818" points="1147.18,390.88,1141.8905,382.5721,1143.0132,388.1164,1137.4688,389.239,1147.18,390.88" style="stroke:#181818;stroke-width:1.0;"/><text fill="#000000" font-family="sans-serif" font-size="13" lengthAdjust="spacing" textLength="42" x="1092.51" y="357.0283">&#171;uses&#187;</text></g><!--link ReadAppoitementRequestController to Repositories--><g id="link_ReadAppoitementRequestController_Repositories"><path codeLine="55" d="M1238.35,551.13 C1229.46,576.12 1219.93,602.9 1212.12,624.85 " fill="none" id="ReadAppoitementRequestController-to-Repositories" style="stroke:#181818;stroke-width:1.0;"/><polygon fill="#181818" points="1210.37,629.74,1217.1667,622.6123,1212.0535,625.0319,1209.6338,619.9187,1210.37,629.74" style="stroke:#181818;stroke-width:1.0;"/><text fill="#000000" font-family="sans-serif" font-size="13" lengthAdjust="spacing" textLength="57" x="1227.51" y="596.0283">&#171;creates&#187;</text></g><!--link ReadAppoitementRequestController to PropertySaleRepository--><g id="link_ReadAppoitementRequestController_PropertySaleRepository"><path codeLine="56" d="M1325.01,551.12 C1340.66,568.78 1358.55,586.31 1377.51,600 C1397.67,614.55 1421.23,626.81 1444.33,636.84 " fill="none" id="ReadAppoitementRequestController-to-PropertySaleRepository" style="stroke:#181818;stroke-width:1.0;"/><polygon fill="#181818" points="1448.95,638.82,1442.2534,631.5981,1444.3543,636.8504,1439.102,638.9513,1448.95,638.82" style="stroke:#181818;stroke-width:1.0;"/><text fill="#000000" font-family="sans-serif" font-size="13" lengthAdjust="spacing" textLength="42" x="1378.51" y="596.0283">&#171;uses&#187;</text></g><!--link ReadAppoitementRequestController to PropertySaleRepository--><g id="link_ReadAppoitementRequestController_PropertySaleRepository"><path codeLine="66" d="M1382.72,551.08 C1397.17,561.09 1411.71,571.24 1425.51,581 C1450.7,598.82 1478.48,619.04 1501.34,635.84 " fill="none" id="ReadAppoitementRequestController-to-PropertySaleRepository-1" style="stroke:#181818;stroke-width:1.0;stroke-dasharray:7.0,7.0;"/><polygon fill="#181818" points="1505.55,638.93,1500.6618,630.3799,1501.5193,635.9713,1495.9279,636.8289,1505.55,638.93" style="stroke:#181818;stroke-width:1.0;"/><text fill="#000000" font-family="sans-serif" font-size="13" lengthAdjust="spacing" textLength="42" x="1449.51" y="596.0283">&#171;uses&#187;</text></g><!--link ReadAppoitementRequestController to VisitRequestRepository--><g id="link_ReadAppoitementRequestController_VisitRequestRepository"><path codeLine="57" d="M1529.5,551.13 C1617.06,577.48 1711.28,605.83 1786.28,628.4 " fill="none" id="ReadAppoitementRequestController-to-VisitRequestRepository" style="stroke:#181818;stroke-width:1.0;"/><polygon fill="#181818" points="1791.19,629.88,1783.7102,623.4728,1786.3989,628.4498,1781.4219,631.1386,1791.19,629.88" style="stroke:#181818;stroke-width:1.0;"/><text fill="#000000" font-family="sans-serif" font-size="13" lengthAdjust="spacing" textLength="42" x="1677.51" y="596.0283">&#171;uses&#187;</text></g><!--link ReadAppoitementRequestController to VisitRequestRepository--><g id="link_ReadAppoitementRequestController_VisitRequestRepository"><path codeLine="64" d="M1616.66,547.1 C1654.7,557.48 1692.62,568.81 1728.51,581 C1766.66,593.96 1807.42,611.56 1842.2,627.8 " fill="none" id="ReadAppoitementRequestController-to-VisitRequestRepository-1" style="stroke:#181818;stroke-width:1.0;stroke-dasharray:7.0,7.0;"/><polygon fill="#181818" points="1846.85,629.98,1840.3872,622.5482,1842.3194,627.8648,1837.0028,629.7971,1846.85,629.98" style="stroke:#181818;stroke-width:1.0;"/><text fill="#000000" font-family="sans-serif" font-size="13" lengthAdjust="spacing" textLength="42" x="1774.51" y="596.0283">&#171;uses&#187;</text></g><!--link ReadAppoitementRequestController to Notification--><g id="link_ReadAppoitementRequestController_Notification"><path codeLine="58" d="M1018.2,551.13 C924.17,581.1 822,613.66 747.66,637.35 " fill="none" id="ReadAppoitementRequestController-to-Notification" style="stroke:#181818;stroke-width:1.0;"/><polygon fill="#181818" points="742.81,638.9,752.5983,639.9901,747.5758,637.3875,750.1784,632.3649,742.81,638.9" style="stroke:#181818;stroke-width:1.0;"/><text fill="#000000" font-family="sans-serif" font-size="13" lengthAdjust="spacing" textLength="57" x="917.51" y="596.0283">&#171;creates&#187;</text></g><!--link ReadAppoitementRequestController to Message--><g id="link_ReadAppoitementRequestController_Message"><path codeLine="59" d="M916.25,515 C727.66,541.5 491.83,580.03 284.51,630 C275.33,632.21 265.85,634.76 256.4,637.49 " fill="none" id="ReadAppoitementRequestController-to-Message" style="stroke:#181818;stroke-width:1.0;"/><polygon fill="#181818" points="251.46,638.93,261.22,640.25,256.26,637.53,258.98,632.57,251.46,638.93" style="stroke:#181818;stroke-width:1.0;"/><text fill="#000000" font-family="sans-serif" font-size="13" lengthAdjust="spacing" textLength="42" x="498.51" y="596.0283">&#171;uses&#187;</text></g><!--link ReadAppoitementRequestUI to Message--><g id="link_ReadAppoitementRequestUI_Message"><path codeLine="61" d="M750.39,311.88 C586.88,410.89 329.02,567.04 214.56,636.35 " fill="none" id="ReadAppoitementRequestUI-to-Message" style="stroke:#181818;stroke-width:1.0;"/><polygon fill="#181818" points="210.21,638.98,219.9794,637.7317,214.4848,636.3866,215.83,630.892,210.21,638.98" style="stroke:#181818;stroke-width:1.0;"/><text fill="#000000" font-family="sans-serif" font-size="13" lengthAdjust="spacing" textLength="42" x="613.51" y="476.5283">&#171;uses&#187;</text></g><!--link ReadAppoitementRequestUI to VisitRequest--><g id="link_ReadAppoitementRequestUI_VisitRequest"><path codeLine="62" d="M1040.74,247.49 C1345.24,300.18 2032.59,438.37 2155.51,630 C2186.55,678.39 2164.49,747 2145.3,789.04 " fill="none" id="ReadAppoitementRequestUI-to-VisitRequest" style="stroke:#181818;stroke-width:1.0;"/><polygon fill="#181818" points="2143.09,793.77,2150.514,787.2982,2145.1997,789.2369,2143.2611,783.9226,2143.09,793.77" style="stroke:#181818;stroke-width:1.0;"/><text fill="#000000" font-family="sans-serif" font-size="13" lengthAdjust="spacing" textLength="42" x="2128.51" y="596.0283">&#171;uses&#187;</text></g><!--link ReadAppoitementRequestUI to PropertySale--><g id="link_ReadAppoitementRequestUI_PropertySale"><path codeLine="63" d="M750.3,239.01 C540.74,269.76 163.83,361.55 28.51,630 C11.51,663.73 6,684.66 28.51,715 C65.1,764.31 239.13,800.33 334.18,816.7 " fill="none" id="ReadAppoitementRequestUI-to-PropertySale" style="stroke:#181818;stroke-width:1.0;"/><polygon fill="#181818" points="339.2,817.56,331.0031,812.1001,334.2715,816.7172,329.6545,819.9857,339.2,817.56" style="stroke:#181818;stroke-width:1.0;"/><text fill="#000000" font-family="sans-serif" font-size="13" lengthAdjust="spacing" textLength="42" x="54.51" y="596.0283">&#171;uses&#187;</text></g><!--link VisitRequestRepository to VisitRequest--><g id="link_VisitRequestRepository_VisitRequest"><path codeLine="65" d="M1982.81,715.11 C2013.06,738.72 2050.55,767.98 2079.51,790.59 " fill="none" id="VisitRequestRepository-to-VisitRequest" style="stroke:#181818;stroke-width:1.0;"/><polygon fill="#181818" points="2083.72,793.87,2079.0781,785.1836,2079.7755,790.7973,2074.1619,791.4948,2083.72,793.87" style="stroke:#181818;stroke-width:1.0;"/><text fill="#000000" font-family="sans-serif" font-size="13" lengthAdjust="spacing" textLength="42" x="2045.51" y="760.0283">&#171;uses&#187;</text></g><!--link PropertySaleRepository to PropertySale--><g id="link_PropertySaleRepository_PropertySale"><path codeLine="67" d="M1436.43,706.07 C1422.71,709.4 1408.84,712.48 1395.51,715 C1044.6,781.46 616.3,812.92 458.61,822.86 " fill="none" id="PropertySaleRepository-to-PropertySale" style="stroke:#181818;stroke-width:1.0;"/><polygon fill="#181818" points="453.57,823.18,462.8038,826.6059,458.5601,822.8654,462.3005,818.6217,453.57,823.18" style="stroke:#181818;stroke-width:1.0;"/><text fill="#000000" font-family="sans-serif" font-size="13" lengthAdjust="spacing" textLength="42" x="1206.51" y="760.0283">&#171;uses&#187;</text></g><!--SRC=[hLJVQuCm47xthyYZPMlxBaKO7OF1kesMzJtJQnU8nYLneupzxqirwbMILaTzqhlllllndPTmgXHPSWQv3eAa-be3JU-AGZ0DcJ6luRC4fTyUoKz0p7CZopoSrAzxq1lWa6X8Lw0KtKCuYOXzhI4fKmMdXsUXsOubL3EHgoPSVOXl2xu7JHbNOLP_jYG8MTMKwsDDIv7lcCmgDans3mbdEPWEbCWVXComywK0MKLioYGnxCRtUxvdaqPBmJd8fdVJSA-JY3mnfHVO6hVOLobCKdtOK0uT5bixx9OfrYJkiDXgiOa4gk6qZ08dSgMv9L-OtyL-lfLBElLafsbgnKXnaX1N4H7iCWplGd2WEPQb40OX90E59C2TjP33SMPkZtF6fu5kJrU9czXJaq_gbisT3R4DNeRhp1bBtbHHhvaLzReRPadHGAm5JQ2tRsY_d9hOoFcSs4BDnhZdxKFMHv1Cfx7t0aPaiIWLg3WEl4VI7zzTauiywF3KVDrlS8ojfHaSxjxTiKMuTtOi2zwqVxIoQixEC25gJOUYHv9lJtwnOJ5OYZ6Zcyq62E2vAgDhxUMzk3wUstYctpy0]--></g></svg>