<?xml version="1.0" encoding="us-ascii" standalone="no"?><svg xmlns="http://www.w3.org/2000/svg" xmlns:xlink="http://www.w3.org/1999/xlink" contentStyleType="text/css" height="1066px" preserveAspectRatio="none" style="width:1482px;height:1066px;background:#FFFFFF;" version="1.1" viewBox="0 0 1482 1066" width="1482px" zoomAndPan="magnify"><defs/><g><rect fill="#FFFFFF" height="865.1484" style="stroke:#181818;stroke-width:1.0;" width="10" x="36" y="93.6211"/><rect fill="#FFFFFF" height="344.2012" style="stroke:#181818;stroke-width:1.0;" width="10" x="268" y="116.9121"/><rect fill="#FFFFFF" height="125.1641" style="stroke:#181818;stroke-width:1.0;" width="10" x="268" y="492.4043"/><rect fill="#FFFFFF" height="31.291" style="stroke:#181818;stroke-width:1.0;" width="10" x="268" y="675.1504"/><rect fill="#FFFFFF" height="31.291" style="stroke:#181818;stroke-width:1.0;" width="10" x="268" y="739.7324"/><rect fill="#FFFFFF" height="156.4551" style="stroke:#181818;stroke-width:1.0;" width="10" x="268" y="802.3145"/><rect fill="#FFFFFF" height="281.6191" style="stroke:#181818;stroke-width:1.0;" width="10" x="592" y="148.2031"/><rect fill="#FFFFFF" height="62.582" style="stroke:#181818;stroke-width:1.0;" width="10" x="592" y="523.6953"/><rect fill="#FFFFFF" height="93.873" style="stroke:#181818;stroke-width:1.0;" width="10" x="592" y="833.6055"/><rect fill="#FFFFFF" height="31.291" style="stroke:#181818;stroke-width:1.0;" width="10" x="790" y="179.4941"/><rect fill="#FFFFFF" height="31.291" style="stroke:#181818;stroke-width:1.0;" width="10" x="989" y="242.0762"/><rect fill="#FFFFFF" height="62.582" style="stroke:#181818;stroke-width:1.0;" width="10" x="1122.5" y="367.2402"/><rect fill="#FFFFFF" height="670.1113" style="stroke:#181818;stroke-width:1.0;" width="10" x="1379.5" y="304.6582"/><rect fill="#FFFFFF" height="31.291" style="stroke:#181818;stroke-width:1.0;" width="10" x="1384.5" y="864.8965"/><rect fill="none" height="334.2012" style="stroke:#000000;stroke-width:1.5;" width="1465" x="10" y="632.5684"/><line style="stroke:#181818;stroke-width:0.5;stroke-dasharray:5.0,5.0;" x1="41" x2="41" y1="83.6211" y2="983.7695"/><line style="stroke:#181818;stroke-width:0.5;stroke-dasharray:5.0,5.0;" x1="273" x2="273" y1="83.6211" y2="983.7695"/><line style="stroke:#181818;stroke-width:0.5;stroke-dasharray:5.0,5.0;" x1="597" x2="597" y1="83.6211" y2="983.7695"/><line style="stroke:#181818;stroke-width:0.5;stroke-dasharray:5.0,5.0;" x1="794.5" x2="794.5" y1="83.6211" y2="983.7695"/><line style="stroke:#181818;stroke-width:0.5;stroke-dasharray:5.0,5.0;" x1="994" x2="994" y1="83.6211" y2="983.7695"/><line style="stroke:#181818;stroke-width:0.5;stroke-dasharray:5.0,5.0;" x1="1127" x2="1127" y1="83.6211" y2="983.7695"/><line style="stroke:#181818;stroke-width:0.5;stroke-dasharray:5.0,5.0;" x1="1258" x2="1258" y1="83.6211" y2="983.7695"/><line style="stroke:#181818;stroke-width:0.5;stroke-dasharray:5.0,5.0;" x1="1384" x2="1384" y1="83.6211" y2="983.7695"/><text fill="#000000" font-family="sans-serif" font-size="14" lengthAdjust="spacing" textLength="36" x="20" y="80.1074">Client</text><ellipse cx="41" cy="13.5" fill="#E2E2F0" rx="8" ry="8" style="stroke:#181818;stroke-width:0.5;"/><path d="M41,21.5 L41,48.5 M28,29.5 L54,29.5 M41,48.5 L28,63.5 M41,48.5 L54,63.5 " fill="none" style="stroke:#181818;stroke-width:0.5;"/><text fill="#000000" font-family="sans-serif" font-size="14" lengthAdjust="spacing" textLength="36" x="20" y="997.877">Client</text><ellipse cx="41" cy="1009.8906" fill="#E2E2F0" rx="8" ry="8" style="stroke:#181818;stroke-width:0.5;"/><path d="M41,1017.8906 L41,1044.8906 M28,1025.8906 L54,1025.8906 M41,1044.8906 L28,1059.8906 M41,1044.8906 L54,1059.8906 " fill="none" style="stroke:#181818;stroke-width:0.5;"/><rect fill="#E2E2F0" height="32.6211" rx="2.5" ry="2.5" style="stroke:#181818;stroke-width:0.5;" width="192" x="177" y="50"/><text fill="#000000" font-family="sans-serif" font-size="14" lengthAdjust="spacing" textLength="178" x="184" y="72.1074">ReadAppoitementRequestUI</text><rect fill="#E2E2F0" height="32.6211" rx="2.5" ry="2.5" style="stroke:#181818;stroke-width:0.5;" width="192" x="177" y="982.7695"/><text fill="#000000" font-family="sans-serif" font-size="14" lengthAdjust="spacing" textLength="178" x="184" y="1004.877">ReadAppoitementRequestUI</text><rect fill="#E2E2F0" height="32.6211" rx="2.5" ry="2.5" style="stroke:#181818;stroke-width:0.5;" width="242" x="476" y="50"/><text fill="#000000" font-family="sans-serif" font-size="14" lengthAdjust="spacing" textLength="228" x="483" y="72.1074">ReadAppoitementRequestController</text><rect fill="#E2E2F0" height="32.6211" rx="2.5" ry="2.5" style="stroke:#181818;stroke-width:0.5;" width="242" x="476" y="982.7695"/><text fill="#000000" font-family="sans-serif" font-size="14" lengthAdjust="spacing" textLength="228" x="483" y="1004.877">ReadAppoitementRequestController</text><rect fill="#E2E2F0" height="32.6211" rx="2.5" ry="2.5" style="stroke:#181818;stroke-width:0.5;" width="93" x="748.5" y="50"/><text fill="#000000" font-family="sans-serif" font-size="14" lengthAdjust="spacing" textLength="79" x="755.5" y="72.1074">Repositories</text><rect fill="#E2E2F0" height="32.6211" rx="2.5" ry="2.5" style="stroke:#181818;stroke-width:0.5;" width="93" x="748.5" y="982.7695"/><text fill="#000000" font-family="sans-serif" font-size="14" lengthAdjust="spacing" textLength="79" x="755.5" y="1004.877">Repositories</text><rect fill="#E2E2F0" height="32.6211" rx="2.5" ry="2.5" style="stroke:#181818;stroke-width:0.5;" width="164" x="912" y="50"/><text fill="#000000" font-family="sans-serif" font-size="14" lengthAdjust="spacing" textLength="150" x="919" y="72.1074">PropertySaleRepository</text><rect fill="#E2E2F0" height="32.6211" rx="2.5" ry="2.5" style="stroke:#181818;stroke-width:0.5;" width="164" x="912" y="982.7695"/><text fill="#000000" font-family="sans-serif" font-size="14" lengthAdjust="spacing" textLength="150" x="919" y="1004.877">PropertySaleRepository</text><rect fill="#E2E2F0" height="32.6211" rx="2.5" ry="2.5" style="stroke:#181818;stroke-width:0.5;" width="83" x="1086" y="50"/><text fill="#000000" font-family="sans-serif" font-size="14" lengthAdjust="spacing" textLength="69" x="1093" y="72.1074">Notification</text><rect fill="#E2E2F0" height="32.6211" rx="2.5" ry="2.5" style="stroke:#181818;stroke-width:0.5;" width="83" x="1086" y="982.7695"/><text fill="#000000" font-family="sans-serif" font-size="14" lengthAdjust="spacing" textLength="69" x="1093" y="1004.877">Notification</text><rect fill="#E2E2F0" height="32.6211" rx="2.5" ry="2.5" style="stroke:#181818;stroke-width:0.5;" width="71" x="1223" y="50"/><text fill="#000000" font-family="sans-serif" font-size="14" lengthAdjust="spacing" textLength="57" x="1230" y="72.1074">Message</text><rect fill="#E2E2F0" height="32.6211" rx="2.5" ry="2.5" style="stroke:#181818;stroke-width:0.5;" width="71" x="1223" y="982.7695"/><text fill="#000000" font-family="sans-serif" font-size="14" lengthAdjust="spacing" textLength="57" x="1230" y="1004.877">Message</text><rect fill="#E2E2F0" height="32.6211" rx="2.5" ry="2.5" style="stroke:#181818;stroke-width:0.5;" width="161" x="1304" y="50"/><text fill="#000000" font-family="sans-serif" font-size="14" lengthAdjust="spacing" textLength="147" x="1311" y="72.1074">VisitRequestRepository</text><rect fill="#E2E2F0" height="32.6211" rx="2.5" ry="2.5" style="stroke:#181818;stroke-width:0.5;" width="161" x="1304" y="982.7695"/><text fill="#000000" font-family="sans-serif" font-size="14" lengthAdjust="spacing" textLength="147" x="1311" y="1004.877">VisitRequestRepository</text><rect fill="#FFFFFF" height="865.1484" style="stroke:#181818;stroke-width:1.0;" width="10" x="36" y="93.6211"/><rect fill="#FFFFFF" height="344.2012" style="stroke:#181818;stroke-width:1.0;" width="10" x="268" y="116.9121"/><rect fill="#FFFFFF" height="125.1641" style="stroke:#181818;stroke-width:1.0;" width="10" x="268" y="492.4043"/><rect fill="#FFFFFF" height="31.291" style="stroke:#181818;stroke-width:1.0;" width="10" x="268" y="675.1504"/><rect fill="#FFFFFF" height="31.291" style="stroke:#181818;stroke-width:1.0;" width="10" x="268" y="739.7324"/><rect fill="#FFFFFF" height="156.4551" style="stroke:#181818;stroke-width:1.0;" width="10" x="268" y="802.3145"/><rect fill="#FFFFFF" height="281.6191" style="stroke:#181818;stroke-width:1.0;" width="10" x="592" y="148.2031"/><rect fill="#FFFFFF" height="62.582" style="stroke:#181818;stroke-width:1.0;" width="10" x="592" y="523.6953"/><rect fill="#FFFFFF" height="93.873" style="stroke:#181818;stroke-width:1.0;" width="10" x="592" y="833.6055"/><rect fill="#FFFFFF" height="31.291" style="stroke:#181818;stroke-width:1.0;" width="10" x="790" y="179.4941"/><rect fill="#FFFFFF" height="31.291" style="stroke:#181818;stroke-width:1.0;" width="10" x="989" y="242.0762"/><rect fill="#FFFFFF" height="62.582" style="stroke:#181818;stroke-width:1.0;" width="10" x="1122.5" y="367.2402"/><rect fill="#FFFFFF" height="670.1113" style="stroke:#181818;stroke-width:1.0;" width="10" x="1379.5" y="304.6582"/><rect fill="#FFFFFF" height="31.291" style="stroke:#181818;stroke-width:1.0;" width="10" x="1384.5" y="864.8965"/><polygon fill="#181818" points="256,112.9121,266,116.9121,256,120.9121,260,116.9121" style="stroke:#181818;stroke-width:1.0;"/><line style="stroke:#181818;stroke-width:1.0;" x1="46" x2="262" y1="116.9121" y2="116.9121"/><text fill="#000000" font-family="sans-serif" font-size="13" lengthAdjust="spacing" textLength="190" x="53" y="111.6494">Run ReadAppoitementRequestUI</text><polygon fill="#181818" points="580,144.2031,590,148.2031,580,152.2031,584,148.2031" style="stroke:#181818;stroke-width:1.0;"/><line style="stroke:#181818;stroke-width:1.0;" x1="278" x2="586" y1="148.2031" y2="148.2031"/><text fill="#000000" font-family="sans-serif" font-size="13" lengthAdjust="spacing" textLength="96" x="285" y="142.9404">Get Notifications</text><polygon fill="#181818" points="778,175.4941,788,179.4941,778,183.4941,782,179.4941" style="stroke:#181818;stroke-width:1.0;"/><line style="stroke:#181818;stroke-width:1.0;" x1="602" x2="784" y1="179.4941" y2="179.4941"/><text fill="#000000" font-family="sans-serif" font-size="13" lengthAdjust="spacing" textLength="169" x="609" y="174.2314">getVisiteRequestRepository()</text><polygon fill="#181818" points="982,206.7852,992,210.7852,982,214.7852,986,210.7852" style="stroke:#181818;stroke-width:1.0;"/><line style="stroke:#181818;stroke-width:1.0;" x1="795" x2="988" y1="210.7852" y2="210.7852"/><text fill="#000000" font-family="sans-serif" font-size="13" lengthAdjust="spacing" textLength="170" x="802" y="205.5225">Get Property Sale Repository</text><polygon fill="#181818" points="977,238.0762,987,242.0762,977,246.0762,981,242.0762" style="stroke:#181818;stroke-width:1.0;"/><line style="stroke:#181818;stroke-width:1.0;" x1="602" x2="983" y1="242.0762" y2="242.0762"/><text fill="#000000" font-family="sans-serif" font-size="13" lengthAdjust="spacing" textLength="111" x="609" y="236.8135">Get Property Sales</text><polygon fill="#181818" points="613,269.3672,603,273.3672,613,277.3672,609,273.3672" style="stroke:#181818;stroke-width:1.0;"/><line style="stroke:#181818;stroke-width:1.0;stroke-dasharray:2.0,2.0;" x1="607" x2="993" y1="273.3672" y2="273.3672"/><text fill="#000000" font-family="sans-serif" font-size="13" lengthAdjust="spacing" textLength="128" x="619" y="268.1045">Return Property Sales</text><polygon fill="#181818" points="1367.5,300.6582,1377.5,304.6582,1367.5,308.6582,1371.5,304.6582" style="stroke:#181818;stroke-width:1.0;"/><line style="stroke:#181818;stroke-width:1.0;" x1="602" x2="1373.5" y1="304.6582" y2="304.6582"/><text fill="#000000" font-family="sans-serif" font-size="13" lengthAdjust="spacing" textLength="110" x="609" y="299.3955">Get Visit Requests</text><polygon fill="#181818" points="613,331.9492,603,335.9492,613,339.9492,609,335.9492" style="stroke:#181818;stroke-width:1.0;"/><line style="stroke:#181818;stroke-width:1.0;stroke-dasharray:2.0,2.0;" x1="607" x2="1378.5" y1="335.9492" y2="335.9492"/><text fill="#000000" font-family="sans-serif" font-size="13" lengthAdjust="spacing" textLength="127" x="619" y="330.6865">Return Visit Requests</text><polygon fill="#181818" points="1110.5,363.2402,1120.5,367.2402,1110.5,371.2402,1114.5,367.2402" style="stroke:#181818;stroke-width:1.0;"/><line style="stroke:#181818;stroke-width:1.0;" x1="602" x2="1116.5" y1="367.2402" y2="367.2402"/><text fill="#000000" font-family="sans-serif" font-size="13" lengthAdjust="spacing" textLength="113" x="609" y="361.9775">Create Notifications</text><polygon fill="#181818" points="1246.5,394.5313,1256.5,398.5313,1246.5,402.5313,1250.5,398.5313" style="stroke:#181818;stroke-width:1.0;"/><line style="stroke:#181818;stroke-width:1.0;" x1="1132.5" x2="1252.5" y1="398.5313" y2="398.5313"/><text fill="#000000" font-family="sans-serif" font-size="13" lengthAdjust="spacing" textLength="102" x="1139.5" y="393.2686">Create Messages</text><polygon fill="#181818" points="289,425.8223,279,429.8223,289,433.8223,285,429.8223" style="stroke:#181818;stroke-width:1.0;"/><line style="stroke:#181818;stroke-width:1.0;" x1="283" x2="1126.5" y1="429.8223" y2="429.8223"/><text fill="#000000" font-family="sans-serif" font-size="13" lengthAdjust="spacing" textLength="107" x="295" y="424.5596">Show Notifications</text><polygon fill="#181818" points="57,457.1133,47,461.1133,57,465.1133,53,461.1133" style="stroke:#181818;stroke-width:1.0;"/><line style="stroke:#181818;stroke-width:1.0;" x1="51" x2="272" y1="461.1133" y2="461.1133"/><text fill="#000000" font-family="sans-serif" font-size="13" lengthAdjust="spacing" textLength="118" x="63" y="455.8506">Display Notifications</text><polygon fill="#181818" points="256,488.4043,266,492.4043,256,496.4043,260,492.4043" style="stroke:#181818;stroke-width:1.0;"/><line style="stroke:#181818;stroke-width:1.0;" x1="46" x2="262" y1="492.4043" y2="492.4043"/><text fill="#000000" font-family="sans-serif" font-size="13" lengthAdjust="spacing" textLength="105" x="53" y="487.1416">Select a Message</text><polygon fill="#181818" points="580,519.6953,590,523.6953,580,527.6953,584,523.6953" style="stroke:#181818;stroke-width:1.0;"/><line style="stroke:#181818;stroke-width:1.0;" x1="278" x2="586" y1="523.6953" y2="523.6953"/><text fill="#000000" font-family="sans-serif" font-size="13" lengthAdjust="spacing" textLength="133" x="285" y="518.4326">Get Selected Message</text><polygon fill="#181818" points="1246.5,550.9863,1256.5,554.9863,1246.5,558.9863,1250.5,554.9863" style="stroke:#181818;stroke-width:1.0;"/><line style="stroke:#181818;stroke-width:1.0;" x1="602" x2="1252.5" y1="554.9863" y2="554.9863"/><text fill="#000000" font-family="sans-serif" font-size="13" lengthAdjust="spacing" textLength="122" x="609" y="549.7236">Get Message Details</text><polygon fill="#181818" points="289,582.2773,279,586.2773,289,590.2773,285,586.2773" style="stroke:#181818;stroke-width:1.0;"/><line style="stroke:#181818;stroke-width:1.0;" x1="283" x2="596" y1="586.2773" y2="586.2773"/><text fill="#000000" font-family="sans-serif" font-size="13" lengthAdjust="spacing" textLength="133" x="295" y="581.0146">Show Message Details</text><polygon fill="#181818" points="57,613.5684,47,617.5684,57,621.5684,53,617.5684" style="stroke:#181818;stroke-width:1.0;"/><line style="stroke:#181818;stroke-width:1.0;" x1="51" x2="272" y1="617.5684" y2="617.5684"/><text fill="#000000" font-family="sans-serif" font-size="13" lengthAdjust="spacing" textLength="103" x="63" y="612.3057">Accept or Decline</text><path d="M10,632.5684 L71,632.5684 L71,641.8594 L61,651.8594 L10,651.8594 L10,632.5684 " fill="#EEEEEE" style="stroke:#000000;stroke-width:1.5;"/><rect fill="none" height="334.2012" style="stroke:#000000;stroke-width:1.5;" width="1465" x="10" y="632.5684"/><text fill="#000000" font-family="sans-serif" font-size="13" font-weight="bold" lengthAdjust="spacing" textLength="16" x="25" y="647.5967">alt</text><polygon fill="#181818" points="256,671.1504,266,675.1504,256,679.1504,260,675.1504" style="stroke:#181818;stroke-width:1.0;"/><line style="stroke:#181818;stroke-width:1.0;" x1="46" x2="262" y1="675.1504" y2="675.1504"/><text fill="#000000" font-family="sans-serif" font-size="13" lengthAdjust="spacing" textLength="125" x="53" y="669.8877">Accept Appointement</text><polygon fill="#181818" points="57,702.4414,47,706.4414,57,710.4414,53,706.4414" style="stroke:#181818;stroke-width:1.0;"/><line style="stroke:#181818;stroke-width:1.0;" x1="51" x2="272" y1="706.4414" y2="706.4414"/><text fill="#000000" font-family="sans-serif" font-size="13" lengthAdjust="spacing" textLength="198" x="63" y="701.1787">"Your Appointement is scheduled"</text><line style="stroke:#000000;stroke-width:1.0;stroke-dasharray:2.0,2.0;" x1="10" x2="1475" y1="715.4414" y2="715.4414"/><polygon fill="#181818" points="256,735.7324,266,739.7324,256,743.7324,260,739.7324" style="stroke:#181818;stroke-width:1.0;"/><line style="stroke:#181818;stroke-width:1.0;" x1="46" x2="262" y1="739.7324" y2="739.7324"/><text fill="#000000" font-family="sans-serif" font-size="13" lengthAdjust="spacing" textLength="127" x="53" y="734.4697">Decline Appointement</text><polygon fill="#181818" points="57,767.0234,47,771.0234,57,775.0234,53,771.0234" style="stroke:#181818;stroke-width:1.0;"/><line style="stroke:#181818;stroke-width:1.0;" x1="51" x2="272" y1="771.0234" y2="771.0234"/><text fill="#000000" font-family="sans-serif" font-size="13" lengthAdjust="spacing" textLength="165" x="63" y="765.7607">Write the reason of declining</text><polygon fill="#181818" points="256,798.3145,266,802.3145,256,806.3145,260,802.3145" style="stroke:#181818;stroke-width:1.0;"/><line style="stroke:#181818;stroke-width:1.0;" x1="46" x2="262" y1="802.3145" y2="802.3145"/><text fill="#000000" font-family="sans-serif" font-size="13" lengthAdjust="spacing" textLength="44" x="53" y="797.0518">Reason</text><polygon fill="#181818" points="580,829.6055,590,833.6055,580,837.6055,584,833.6055" style="stroke:#181818;stroke-width:1.0;"/><line style="stroke:#181818;stroke-width:1.0;" x1="278" x2="586" y1="833.6055" y2="833.6055"/><text fill="#000000" font-family="sans-serif" font-size="13" lengthAdjust="spacing" textLength="295" x="285" y="828.3428">add declined appointement to declined visit request</text><polygon fill="#181818" points="1372.5,860.8965,1382.5,864.8965,1372.5,868.8965,1376.5,864.8965" style="stroke:#181818;stroke-width:1.0;"/><line style="stroke:#181818;stroke-width:1.0;" x1="602" x2="1378.5" y1="864.8965" y2="864.8965"/><text fill="#000000" font-family="sans-serif" font-size="13" lengthAdjust="spacing" textLength="153" x="609" y="859.6338">addDeclinedVisitRequest()</text><polygon fill="#181818" points="613,892.1875,603,896.1875,613,900.1875,609,896.1875" style="stroke:#181818;stroke-width:1.0;"/><line style="stroke:#181818;stroke-width:1.0;" x1="607" x2="1378.5" y1="896.1875" y2="896.1875"/><text fill="#000000" font-family="sans-serif" font-size="13" lengthAdjust="spacing" textLength="121" x="619" y="890.9248">"Operation Success"</text><polygon fill="#181818" points="289,923.4785,279,927.4785,289,931.4785,285,927.4785" style="stroke:#181818;stroke-width:1.0;"/><line style="stroke:#181818;stroke-width:1.0;" x1="283" x2="596" y1="927.4785" y2="927.4785"/><text fill="#000000" font-family="sans-serif" font-size="13" lengthAdjust="spacing" textLength="121" x="295" y="922.2158">"Operation Success"</text><polygon fill="#181818" points="52,954.7695,42,958.7695,52,962.7695,48,958.7695" style="stroke:#181818;stroke-width:1.0;"/><line style="stroke:#181818;stroke-width:1.0;" x1="46" x2="272" y1="958.7695" y2="958.7695"/><text fill="#000000" font-family="sans-serif" font-size="13" lengthAdjust="spacing" textLength="121" x="58" y="953.5068">"Operation Success"</text><!--SRC=[hLPDZziW4BtxLunysXxs3_XGQPL8LGxzKAAqwX7PimaIDLuORvL_Ny3OXYGu95kVOZFpviqRU8JL91Mi1CUMYg9ZYdZDEzOIb5japKlNIKxunwnkyQr7JVjD2Kp3VfCJl98jAIa4AfSqlvudTr9pGuIZTe7kGnppGyaE5PrsJE0KVtBHTib-YXE-IUAll6R4PUl2mWznw5VKcXtGHVdVHS5guk-CS187p3FyXkVFHe0AjdqBAPM6UFjCGE57- -mt5cWMfO8lI15D7IT4Q86O5q6EwhHkgpZ9AZWW_UH6ElGyPoMVFbs7YMeESqd6sSU5s8hZL8Qknl61dH_CPTDW3UQKZRjSgAapsfisqcA7OnGydqrlYzIhDhjiqE1ouRX7Dx-ByGqTkpNmYpaTNmTRxlzwJagDN4eFgX6UbWfM2Yt0ZIDqeKBa38kzXv6sl7UBgR9_r_UXM2_P7UNVNEA1LilKWy2KNNWJShvMmPhhJh1JYaY0DvfPx8Wx55WJiDb67tJ10GYRIw0F6k4qCLl5ly0QYN6HPJ7Jh6xctYa-LF1IrzWHc0jvZRNWBIQLPu8kr9y1t7tK3XTI_WH65kLlsQi80xW6NH-nwGKsPOeK2et5DLQ-cG_I-gNCjGLqH317JPk38ryD0OlCsqFs5WLhJ3RzWPrfSbdJ-A9cQx9G8fBpmhlpF3Lutd_RkGdVTQIyn4qOaxhH7pR_bF6VQLH-DzVVu6sxtcn8hSiaP773tX8Kiw7Ep-uTz3BFysBQ-ScwKJgnYVrYM7_uIufjymy0]--></g></svg>