<?xml version="1.0" encoding="us-ascii" standalone="no"?><svg xmlns="http://www.w3.org/2000/svg" xmlns:xlink="http://www.w3.org/1999/xlink" contentStyleType="text/css" height="700px" preserveAspectRatio="none" style="width:716px;height:700px;background:#FFFFFF;" version="1.1" viewBox="0 0 716 700" width="716.5px" zoomAndPan="magnify"><defs/><g><!--class ReviewVisitRequestController--><g id="elem_ReviewVisitRequestController"><rect codeLine="4" fill="#F1F1F1" height="79.8633" id="ReviewVisitRequestController" rx="1.25" ry="1.25" style="stroke:#181818;stroke-width:0.25;" width="336.5" x="238.75" y="3.5"/><ellipse cx="358.375" cy="11.5" fill="#ADD1B2" rx="5.5" ry="5.5" style="stroke:#181818;stroke-width:0.5;"/><path d="M359.7578,9.4375 Q359.8359,9.3281 359.9297,9.2734 Q360.0234,9.2188 360.1328,9.2188 Q360.3203,9.2188 360.4375,9.3516 Q360.5547,9.4766 360.5547,9.7813 L360.5547,10.5078 Q360.5547,10.8125 360.4375,10.9453 Q360.3203,11.0781 360.1328,11.0781 Q359.9609,11.0781 359.8594,10.9766 Q359.7578,10.8828 359.7031,10.625 Q359.6797,10.4453 359.5859,10.3516 Q359.4219,10.1641 359.1172,10.0547 Q358.8125,9.9453 358.5,9.9453 Q358.1172,9.9453 357.7969,10.1094 Q357.4844,10.2734 357.2344,10.6484 Q356.9922,11.0234 356.9922,11.5391 L356.9922,12.0859 Q356.9922,12.7031 357.4375,13.1172 Q357.8828,13.5234 358.6797,13.5234 Q359.1484,13.5234 359.4766,13.3984 Q359.6719,13.3203 359.8828,13.1016 Q360.0156,12.9688 360.0859,12.9297 Q360.1641,12.8906 360.2656,12.8906 Q360.4297,12.8906 360.5547,13.0234 Q360.6875,13.1484 360.6875,13.3203 Q360.6875,13.4922 360.5156,13.6953 Q360.2656,13.9844 359.8672,14.1484 Q359.3281,14.375 358.6797,14.375 Q357.9219,14.375 357.3203,14.0625 Q356.8281,13.8125 356.4844,13.2813 Q356.1406,12.7422 356.1406,12.1016 L356.1406,11.5234 Q356.1406,10.8594 356.4453,10.2891 Q356.7578,9.7109 357.3047,9.4063 Q357.8516,9.0938 358.4688,9.0938 Q358.8359,9.0938 359.1563,9.1797 Q359.4844,9.2578 359.7578,9.4375 Z " fill="#000000"/><text fill="#000000" font-family="sans-serif" font-size="7" lengthAdjust="spacing" textLength="93" x="368.625" y="14.3984">ReviewVisitRequestController</text><line style="stroke:#181818;stroke-width:0.25;" x1="239.25" x2="574.75" y1="19.5" y2="19.5"/><line style="stroke:#181818;stroke-width:0.25;" x1="239.25" x2="574.75" y1="23.5" y2="23.5"/><ellipse cx="244.25" cy="30.9053" fill="#84BE84" rx="1.5" ry="1.5" style="stroke:#038048;stroke-width:0.5;"/><text fill="#000000" font-family="sans-serif" font-size="7" lengthAdjust="spacing" textLength="100.5" x="248.75" y="33.0537">getVisitRequestListFromAgent()</text><ellipse cx="244.25" cy="40.2158" fill="#84BE84" rx="1.5" ry="1.5" style="stroke:#038048;stroke-width:0.5;"/><text fill="#000000" font-family="sans-serif" font-size="7" lengthAdjust="spacing" textLength="75" x="248.75" y="42.3643">getAgentFromSession()</text><ellipse cx="244.25" cy="49.5264" fill="#84BE84" rx="1.5" ry="1.5" style="stroke:#038048;stroke-width:0.5;"/><text fill="#000000" font-family="sans-serif" font-size="7" lengthAdjust="spacing" textLength="212" x="248.75" y="51.6748">sendEmailMessageToClient(visitRequestDTO.client, messageDTO)</text><ellipse cx="244.25" cy="58.8369" fill="#84BE84" rx="1.5" ry="1.5" style="stroke:#038048;stroke-width:0.5;"/><text fill="#000000" font-family="sans-serif" font-size="7" lengthAdjust="spacing" textLength="186.5" x="248.75" y="60.9854">addAcceptedRequests(VisitRequestDTO visitRequestDTO)</text><ellipse cx="244.25" cy="68.1475" fill="#84BE84" rx="1.5" ry="1.5" style="stroke:#038048;stroke-width:0.5;"/><text fill="#000000" font-family="sans-serif" font-size="7" lengthAdjust="spacing" textLength="194" x="248.75" y="70.2959">addDeclinedVisitRequest(VisitRequestDTO visitRequestDTO)</text><ellipse cx="244.25" cy="77.458" fill="#84BE84" rx="1.5" ry="1.5" style="stroke:#038048;stroke-width:0.5;"/><text fill="#000000" font-family="sans-serif" font-size="7" lengthAdjust="spacing" textLength="323.5" x="248.75" y="79.6064">sendResponseToClient(ClientDTO clientDTO, VisitRequestResponseDTO visitRequestResponseDTO)</text></g><!--class ReviewVisitRequestUI--><g id="elem_ReviewVisitRequestUI"><rect codeLine="13" fill="#F1F1F1" height="24" id="ReviewVisitRequestUI" rx="1.25" ry="1.25" style="stroke:#181818;stroke-width:0.25;" width="84" x="137" y="31.5"/><ellipse cx="144.5" cy="39.5" fill="#ADD1B2" rx="5.5" ry="5.5" style="stroke:#181818;stroke-width:0.5;"/><path d="M145.8828,37.4375 Q145.9609,37.3281 146.0547,37.2734 Q146.1484,37.2188 146.2578,37.2188 Q146.4453,37.2188 146.5625,37.3516 Q146.6797,37.4766 146.6797,37.7813 L146.6797,38.5078 Q146.6797,38.8125 146.5625,38.9453 Q146.4453,39.0781 146.2578,39.0781 Q146.0859,39.0781 145.9844,38.9766 Q145.8828,38.8828 145.8281,38.625 Q145.8047,38.4453 145.7109,38.3516 Q145.5469,38.1641 145.2422,38.0547 Q144.9375,37.9453 144.625,37.9453 Q144.2422,37.9453 143.9219,38.1094 Q143.6094,38.2734 143.3594,38.6484 Q143.1172,39.0234 143.1172,39.5391 L143.1172,40.0859 Q143.1172,40.7031 143.5625,41.1172 Q144.0078,41.5234 144.8047,41.5234 Q145.2734,41.5234 145.6016,41.3984 Q145.7969,41.3203 146.0078,41.1016 Q146.1406,40.9688 146.2109,40.9297 Q146.2891,40.8906 146.3906,40.8906 Q146.5547,40.8906 146.6797,41.0234 Q146.8125,41.1484 146.8125,41.3203 Q146.8125,41.4922 146.6406,41.6953 Q146.3906,41.9844 145.9922,42.1484 Q145.4531,42.375 144.8047,42.375 Q144.0469,42.375 143.4453,42.0625 Q142.9531,41.8125 142.6094,41.2813 Q142.2656,40.7422 142.2656,40.1016 L142.2656,39.5234 Q142.2656,38.8594 142.5703,38.2891 Q142.8828,37.7109 143.4297,37.4063 Q143.9766,37.0938 144.5938,37.0938 Q144.9609,37.0938 145.2813,37.1797 Q145.6094,37.2578 145.8828,37.4375 Z " fill="#000000"/><text fill="#000000" font-family="sans-serif" font-size="7" lengthAdjust="spacing" textLength="68" x="151.5" y="42.3984">ReviewVisitRequestUI</text><line style="stroke:#181818;stroke-width:0.25;" x1="137.5" x2="220.5" y1="47.5" y2="47.5"/><line style="stroke:#181818;stroke-width:0.25;" x1="137.5" x2="220.5" y1="51.5" y2="51.5"/></g><!--class Repositories--><g id="elem_Repositories"><rect codeLine="16" fill="#F1F1F1" height="51.9316" id="Repositories" rx="1.25" ry="1.25" style="stroke:#181818;stroke-width:0.25;" width="101.5" x="486.75" y="127.5"/><ellipse cx="515.625" cy="135.5" fill="#ADD1B2" rx="5.5" ry="5.5" style="stroke:#181818;stroke-width:0.5;"/><path d="M517.0078,133.4375 Q517.0859,133.3281 517.1797,133.2734 Q517.2734,133.2188 517.3828,133.2188 Q517.5703,133.2188 517.6875,133.3516 Q517.8047,133.4766 517.8047,133.7813 L517.8047,134.5078 Q517.8047,134.8125 517.6875,134.9453 Q517.5703,135.0781 517.3828,135.0781 Q517.2109,135.0781 517.1094,134.9766 Q517.0078,134.8828 516.9531,134.625 Q516.9297,134.4453 516.8359,134.3516 Q516.6719,134.1641 516.3672,134.0547 Q516.0625,133.9453 515.75,133.9453 Q515.3672,133.9453 515.0469,134.1094 Q514.7344,134.2734 514.4844,134.6484 Q514.2422,135.0234 514.2422,135.5391 L514.2422,136.0859 Q514.2422,136.7031 514.6875,137.1172 Q515.1328,137.5234 515.9297,137.5234 Q516.3984,137.5234 516.7266,137.3984 Q516.9219,137.3203 517.1328,137.1016 Q517.2656,136.9688 517.3359,136.9297 Q517.4141,136.8906 517.5156,136.8906 Q517.6797,136.8906 517.8047,137.0234 Q517.9375,137.1484 517.9375,137.3203 Q517.9375,137.4922 517.7656,137.6953 Q517.5156,137.9844 517.1172,138.1484 Q516.5781,138.375 515.9297,138.375 Q515.1719,138.375 514.5703,138.0625 Q514.0781,137.8125 513.7344,137.2813 Q513.3906,136.7422 513.3906,136.1016 L513.3906,135.5234 Q513.3906,134.8594 513.6953,134.2891 Q514.0078,133.7109 514.5547,133.4063 Q515.1016,133.0938 515.7188,133.0938 Q516.0859,133.0938 516.4063,133.1797 Q516.7344,133.2578 517.0078,133.4375 Z " fill="#000000"/><text fill="#000000" font-family="sans-serif" font-size="7" lengthAdjust="spacing" textLength="39.5" x="525.875" y="138.3984">Repositories</text><line style="stroke:#181818;stroke-width:0.25;" x1="487.25" x2="587.75" y1="143.5" y2="143.5"/><line style="stroke:#181818;stroke-width:0.25;" x1="487.25" x2="587.75" y1="147.5" y2="147.5"/><ellipse cx="492.25" cy="154.9053" fill="#84BE84" rx="1.5" ry="1.5" style="stroke:#038048;stroke-width:0.5;"/><text fill="#000000" font-family="sans-serif" font-size="7" lengthAdjust="spacing" textLength="67" x="496.75" y="157.0537">getClientRepository()</text><ellipse cx="492.25" cy="164.2158" fill="#84BE84" rx="1.5" ry="1.5" style="stroke:#038048;stroke-width:0.5;"/><text fill="#000000" font-family="sans-serif" font-size="7" lengthAdjust="spacing" textLength="88.5" x="496.75" y="166.3643">getVisitRequestRepository()</text><ellipse cx="492.25" cy="173.5264" fill="#84BE84" rx="1.5" ry="1.5" style="stroke:#038048;stroke-width:0.5;"/><text fill="#000000" font-family="sans-serif" font-size="7" lengthAdjust="spacing" textLength="66" x="496.75" y="175.6748">getStoreRepository()</text></g><!--class AplicationSession--><g id="elem_AplicationSession"><rect codeLine="21" fill="#F1F1F1" height="33.3105" id="AplicationSession" rx="1.25" ry="1.25" style="stroke:#181818;stroke-width:0.25;" width="77" x="250" y="136.75"/><ellipse cx="259.975" cy="144.75" fill="#ADD1B2" rx="5.5" ry="5.5" style="stroke:#181818;stroke-width:0.5;"/><path d="M261.3578,142.6875 Q261.4359,142.5781 261.5297,142.5234 Q261.6234,142.4688 261.7328,142.4688 Q261.9203,142.4688 262.0375,142.6016 Q262.1547,142.7266 262.1547,143.0313 L262.1547,143.7578 Q262.1547,144.0625 262.0375,144.1953 Q261.9203,144.3281 261.7328,144.3281 Q261.5609,144.3281 261.4594,144.2266 Q261.3578,144.1328 261.3031,143.875 Q261.2797,143.6953 261.1859,143.6016 Q261.0219,143.4141 260.7172,143.3047 Q260.4125,143.1953 260.1,143.1953 Q259.7172,143.1953 259.3969,143.3594 Q259.0844,143.5234 258.8344,143.8984 Q258.5922,144.2734 258.5922,144.7891 L258.5922,145.3359 Q258.5922,145.9531 259.0375,146.3672 Q259.4828,146.7734 260.2797,146.7734 Q260.7484,146.7734 261.0766,146.6484 Q261.2719,146.5703 261.4828,146.3516 Q261.6156,146.2188 261.6859,146.1797 Q261.7641,146.1406 261.8656,146.1406 Q262.0297,146.1406 262.1547,146.2734 Q262.2875,146.3984 262.2875,146.5703 Q262.2875,146.7422 262.1156,146.9453 Q261.8656,147.2344 261.4672,147.3984 Q260.9281,147.625 260.2797,147.625 Q259.5219,147.625 258.9203,147.3125 Q258.4281,147.0625 258.0844,146.5313 Q257.7406,145.9922 257.7406,145.3516 L257.7406,144.7734 Q257.7406,144.1094 258.0453,143.5391 Q258.3578,142.9609 258.9047,142.6563 Q259.4516,142.3438 260.0688,142.3438 Q260.4359,142.3438 260.7563,142.4297 Q261.0844,142.5078 261.3578,142.6875 Z " fill="#000000"/><text fill="#000000" font-family="sans-serif" font-size="7" lengthAdjust="spacing" textLength="55.5" x="267.525" y="147.6484">AplicationSession</text><line style="stroke:#181818;stroke-width:0.25;" x1="250.5" x2="326.5" y1="152.75" y2="152.75"/><line style="stroke:#181818;stroke-width:0.25;" x1="250.5" x2="326.5" y1="156.75" y2="156.75"/><ellipse cx="255.5" cy="164.1553" fill="#84BE84" rx="1.5" ry="1.5" style="stroke:#038048;stroke-width:0.5;"/><text fill="#000000" font-family="sans-serif" font-size="7" lengthAdjust="spacing" textLength="64" x="260" y="166.3037">getCurrentSession()</text></g><!--class UserSession--><g id="elem_UserSession"><rect codeLine="25" fill="#F1F1F1" height="33.3105" id="UserSession" rx="1.25" ry="1.25" style="stroke:#181818;stroke-width:0.25;" width="55.5" x="229.25" y="223.75"/><ellipse cx="236.75" cy="231.75" fill="#ADD1B2" rx="5.5" ry="5.5" style="stroke:#181818;stroke-width:0.5;"/><path d="M238.1328,229.6875 Q238.2109,229.5781 238.3047,229.5234 Q238.3984,229.4688 238.5078,229.4688 Q238.6953,229.4688 238.8125,229.6016 Q238.9297,229.7266 238.9297,230.0313 L238.9297,230.7578 Q238.9297,231.0625 238.8125,231.1953 Q238.6953,231.3281 238.5078,231.3281 Q238.3359,231.3281 238.2344,231.2266 Q238.1328,231.1328 238.0781,230.875 Q238.0547,230.6953 237.9609,230.6016 Q237.7969,230.4141 237.4922,230.3047 Q237.1875,230.1953 236.875,230.1953 Q236.4922,230.1953 236.1719,230.3594 Q235.8594,230.5234 235.6094,230.8984 Q235.3672,231.2734 235.3672,231.7891 L235.3672,232.3359 Q235.3672,232.9531 235.8125,233.3672 Q236.2578,233.7734 237.0547,233.7734 Q237.5234,233.7734 237.8516,233.6484 Q238.0469,233.5703 238.2578,233.3516 Q238.3906,233.2188 238.4609,233.1797 Q238.5391,233.1406 238.6406,233.1406 Q238.8047,233.1406 238.9297,233.2734 Q239.0625,233.3984 239.0625,233.5703 Q239.0625,233.7422 238.8906,233.9453 Q238.6406,234.2344 238.2422,234.3984 Q237.7031,234.625 237.0547,234.625 Q236.2969,234.625 235.6953,234.3125 Q235.2031,234.0625 234.8594,233.5313 Q234.5156,232.9922 234.5156,232.3516 L234.5156,231.7734 Q234.5156,231.1094 234.8203,230.5391 Q235.1328,229.9609 235.6797,229.6563 Q236.2266,229.3438 236.8438,229.3438 Q237.2109,229.3438 237.5313,229.4297 Q237.8594,229.5078 238.1328,229.6875 Z " fill="#000000"/><text fill="#000000" font-family="sans-serif" font-size="7" lengthAdjust="spacing" textLength="39.5" x="243.75" y="234.6484">UserSession</text><line style="stroke:#181818;stroke-width:0.25;" x1="229.75" x2="284.25" y1="239.75" y2="239.75"/><line style="stroke:#181818;stroke-width:0.25;" x1="229.75" x2="284.25" y1="243.75" y2="243.75"/><ellipse cx="234.75" cy="251.1553" fill="#84BE84" rx="1.5" ry="1.5" style="stroke:#038048;stroke-width:0.5;"/><text fill="#000000" font-family="sans-serif" font-size="7" lengthAdjust="spacing" textLength="36" x="239.25" y="253.3037">getUserID()</text></g><!--class VisitRequestRepositories--><g id="elem_VisitRequestRepositories"><rect codeLine="29" fill="#F1F1F1" height="51.9316" id="VisitRequestRepositories" rx="1.25" ry="1.25" style="stroke:#181818;stroke-width:0.25;" width="209" x="302.5" y="214.5"/><ellipse cx="365.375" cy="222.5" fill="#ADD1B2" rx="5.5" ry="5.5" style="stroke:#181818;stroke-width:0.5;"/><path d="M366.7578,220.4375 Q366.8359,220.3281 366.9297,220.2734 Q367.0234,220.2188 367.1328,220.2188 Q367.3203,220.2188 367.4375,220.3516 Q367.5547,220.4766 367.5547,220.7813 L367.5547,221.5078 Q367.5547,221.8125 367.4375,221.9453 Q367.3203,222.0781 367.1328,222.0781 Q366.9609,222.0781 366.8594,221.9766 Q366.7578,221.8828 366.7031,221.625 Q366.6797,221.4453 366.5859,221.3516 Q366.4219,221.1641 366.1172,221.0547 Q365.8125,220.9453 365.5,220.9453 Q365.1172,220.9453 364.7969,221.1094 Q364.4844,221.2734 364.2344,221.6484 Q363.9922,222.0234 363.9922,222.5391 L363.9922,223.0859 Q363.9922,223.7031 364.4375,224.1172 Q364.8828,224.5234 365.6797,224.5234 Q366.1484,224.5234 366.4766,224.3984 Q366.6719,224.3203 366.8828,224.1016 Q367.0156,223.9688 367.0859,223.9297 Q367.1641,223.8906 367.2656,223.8906 Q367.4297,223.8906 367.5547,224.0234 Q367.6875,224.1484 367.6875,224.3203 Q367.6875,224.4922 367.5156,224.6953 Q367.2656,224.9844 366.8672,225.1484 Q366.3281,225.375 365.6797,225.375 Q364.9219,225.375 364.3203,225.0625 Q363.8281,224.8125 363.4844,224.2813 Q363.1406,223.7422 363.1406,223.1016 L363.1406,222.5234 Q363.1406,221.8594 363.4453,221.2891 Q363.7578,220.7109 364.3047,220.4063 Q364.8516,220.0938 365.4688,220.0938 Q365.8359,220.0938 366.1563,220.1797 Q366.4844,220.2578 366.7578,220.4375 Z " fill="#000000"/><text fill="#000000" font-family="sans-serif" font-size="7" lengthAdjust="spacing" textLength="79" x="375.625" y="225.3984">VisitRequestRepositories</text><line style="stroke:#181818;stroke-width:0.25;" x1="303" x2="511" y1="230.5" y2="230.5"/><line style="stroke:#181818;stroke-width:0.25;" x1="303" x2="511" y1="234.5" y2="234.5"/><ellipse cx="308" cy="241.9053" fill="#84BE84" rx="1.5" ry="1.5" style="stroke:#038048;stroke-width:0.5;"/><text fill="#000000" font-family="sans-serif" font-size="7" lengthAdjust="spacing" textLength="169" x="312.5" y="244.0537">getVisitRequestListFromAgent(AgentDTO agentDTO)</text><ellipse cx="308" cy="251.2158" fill="#84BE84" rx="1.5" ry="1.5" style="stroke:#038048;stroke-width:0.5;"/><text fill="#000000" font-family="sans-serif" font-size="7" lengthAdjust="spacing" textLength="196" x="312.5" y="253.3643">addAcceptedVisitRequest(VisitRequestDTO visitRequestDTO)</text><ellipse cx="308" cy="260.5264" fill="#84BE84" rx="1.5" ry="1.5" style="stroke:#038048;stroke-width:0.5;"/><text fill="#000000" font-family="sans-serif" font-size="7" lengthAdjust="spacing" textLength="194" x="312.5" y="262.6748">addDeclinedVisitRequest(VisitRequestDTO visitRequestDTO)</text></g><!--class ClientRepository--><g id="elem_ClientRepository"><rect codeLine="35" fill="#F1F1F1" height="33.3105" id="ClientRepository" rx="1.25" ry="1.25" style="stroke:#181818;stroke-width:0.25;" width="134" x="529" y="223.75"/><ellipse cx="567.875" cy="231.75" fill="#ADD1B2" rx="5.5" ry="5.5" style="stroke:#181818;stroke-width:0.5;"/><path d="M569.2578,229.6875 Q569.3359,229.5781 569.4297,229.5234 Q569.5234,229.4688 569.6328,229.4688 Q569.8203,229.4688 569.9375,229.6016 Q570.0547,229.7266 570.0547,230.0313 L570.0547,230.7578 Q570.0547,231.0625 569.9375,231.1953 Q569.8203,231.3281 569.6328,231.3281 Q569.4609,231.3281 569.3594,231.2266 Q569.2578,231.1328 569.2031,230.875 Q569.1797,230.6953 569.0859,230.6016 Q568.9219,230.4141 568.6172,230.3047 Q568.3125,230.1953 568,230.1953 Q567.6172,230.1953 567.2969,230.3594 Q566.9844,230.5234 566.7344,230.8984 Q566.4922,231.2734 566.4922,231.7891 L566.4922,232.3359 Q566.4922,232.9531 566.9375,233.3672 Q567.3828,233.7734 568.1797,233.7734 Q568.6484,233.7734 568.9766,233.6484 Q569.1719,233.5703 569.3828,233.3516 Q569.5156,233.2188 569.5859,233.1797 Q569.6641,233.1406 569.7656,233.1406 Q569.9297,233.1406 570.0547,233.2734 Q570.1875,233.3984 570.1875,233.5703 Q570.1875,233.7422 570.0156,233.9453 Q569.7656,234.2344 569.3672,234.3984 Q568.8281,234.625 568.1797,234.625 Q567.4219,234.625 566.8203,234.3125 Q566.3281,234.0625 565.9844,233.5313 Q565.6406,232.9922 565.6406,232.3516 L565.6406,231.7734 Q565.6406,231.1094 565.9453,230.5391 Q566.2578,229.9609 566.8047,229.6563 Q567.3516,229.3438 567.9688,229.3438 Q568.3359,229.3438 568.6563,229.4297 Q568.9844,229.5078 569.2578,229.6875 Z " fill="#000000"/><text fill="#000000" font-family="sans-serif" font-size="7" lengthAdjust="spacing" textLength="52" x="578.125" y="234.6484">ClientRepository</text><line style="stroke:#181818;stroke-width:0.25;" x1="529.5" x2="662.5" y1="239.75" y2="239.75"/><line style="stroke:#181818;stroke-width:0.25;" x1="529.5" x2="662.5" y1="243.75" y2="243.75"/><ellipse cx="534.5" cy="251.1553" fill="#84BE84" rx="1.5" ry="1.5" style="stroke:#038048;stroke-width:0.5;"/><text fill="#000000" font-family="sans-serif" font-size="7" lengthAdjust="spacing" textLength="121" x="539" y="253.3037">notifyClient(client.get(), messageDTO)</text></g><!--class StoreRepository--><g id="elem_StoreRepository"><rect codeLine="39" fill="#F1F1F1" height="33.3105" id="StoreRepository" rx="1.25" ry="1.25" style="stroke:#181818;stroke-width:0.25;" width="131.5" x="581.75" y="301.5"/><ellipse cx="619.875" cy="309.5" fill="#ADD1B2" rx="5.5" ry="5.5" style="stroke:#181818;stroke-width:0.5;"/><path d="M621.2578,307.4375 Q621.3359,307.3281 621.4297,307.2734 Q621.5234,307.2188 621.6328,307.2188 Q621.8203,307.2188 621.9375,307.3516 Q622.0547,307.4766 622.0547,307.7813 L622.0547,308.5078 Q622.0547,308.8125 621.9375,308.9453 Q621.8203,309.0781 621.6328,309.0781 Q621.4609,309.0781 621.3594,308.9766 Q621.2578,308.8828 621.2031,308.625 Q621.1797,308.4453 621.0859,308.3516 Q620.9219,308.1641 620.6172,308.0547 Q620.3125,307.9453 620,307.9453 Q619.6172,307.9453 619.2969,308.1094 Q618.9844,308.2734 618.7344,308.6484 Q618.4922,309.0234 618.4922,309.5391 L618.4922,310.0859 Q618.4922,310.7031 618.9375,311.1172 Q619.3828,311.5234 620.1797,311.5234 Q620.6484,311.5234 620.9766,311.3984 Q621.1719,311.3203 621.3828,311.1016 Q621.5156,310.9688 621.5859,310.9297 Q621.6641,310.8906 621.7656,310.8906 Q621.9297,310.8906 622.0547,311.0234 Q622.1875,311.1484 622.1875,311.3203 Q622.1875,311.4922 622.0156,311.6953 Q621.7656,311.9844 621.3672,312.1484 Q620.8281,312.375 620.1797,312.375 Q619.4219,312.375 618.8203,312.0625 Q618.3281,311.8125 617.9844,311.2813 Q617.6406,310.7422 617.6406,310.1016 L617.6406,309.5234 Q617.6406,308.8594 617.9453,308.2891 Q618.2578,307.7109 618.8047,307.4063 Q619.3516,307.0938 619.9688,307.0938 Q620.3359,307.0938 620.6563,307.1797 Q620.9844,307.2578 621.2578,307.4375 Z " fill="#000000"/><text fill="#000000" font-family="sans-serif" font-size="7" lengthAdjust="spacing" textLength="51" x="630.125" y="312.3984">StoreRepository</text><line style="stroke:#181818;stroke-width:0.25;" x1="582.25" x2="712.75" y1="317.5" y2="317.5"/><line style="stroke:#181818;stroke-width:0.25;" x1="582.25" x2="712.75" y1="321.5" y2="321.5"/><ellipse cx="587.25" cy="328.9053" fill="#84BE84" rx="1.5" ry="1.5" style="stroke:#038048;stroke-width:0.5;"/><text fill="#000000" font-family="sans-serif" font-size="7" lengthAdjust="spacing" textLength="118.5" x="591.75" y="331.0537">getAgentFromEmail(agentDTO.email)</text></g><!--class Agent--><g id="elem_Agent"><rect codeLine="43" fill="#F1F1F1" height="24" id="Agent" rx="1.25" ry="1.25" style="stroke:#181818;stroke-width:0.25;" width="34.5" x="477.75" y="480"/><ellipse cx="485.25" cy="488" fill="#ADD1B2" rx="5.5" ry="5.5" style="stroke:#181818;stroke-width:0.5;"/><path d="M486.6328,485.9375 Q486.7109,485.8281 486.8047,485.7734 Q486.8984,485.7188 487.0078,485.7188 Q487.1953,485.7188 487.3125,485.8516 Q487.4297,485.9766 487.4297,486.2813 L487.4297,487.0078 Q487.4297,487.3125 487.3125,487.4453 Q487.1953,487.5781 487.0078,487.5781 Q486.8359,487.5781 486.7344,487.4766 Q486.6328,487.3828 486.5781,487.125 Q486.5547,486.9453 486.4609,486.8516 Q486.2969,486.6641 485.9922,486.5547 Q485.6875,486.4453 485.375,486.4453 Q484.9922,486.4453 484.6719,486.6094 Q484.3594,486.7734 484.1094,487.1484 Q483.8672,487.5234 483.8672,488.0391 L483.8672,488.5859 Q483.8672,489.2031 484.3125,489.6172 Q484.7578,490.0234 485.5547,490.0234 Q486.0234,490.0234 486.3516,489.8984 Q486.5469,489.8203 486.7578,489.6016 Q486.8906,489.4688 486.9609,489.4297 Q487.0391,489.3906 487.1406,489.3906 Q487.3047,489.3906 487.4297,489.5234 Q487.5625,489.6484 487.5625,489.8203 Q487.5625,489.9922 487.3906,490.1953 Q487.1406,490.4844 486.7422,490.6484 Q486.2031,490.875 485.5547,490.875 Q484.7969,490.875 484.1953,490.5625 Q483.7031,490.3125 483.3594,489.7813 Q483.0156,489.2422 483.0156,488.6016 L483.0156,488.0234 Q483.0156,487.3594 483.3203,486.7891 Q483.6328,486.2109 484.1797,485.9063 Q484.7266,485.5938 485.3438,485.5938 Q485.7109,485.5938 486.0313,485.6797 Q486.3594,485.7578 486.6328,485.9375 Z " fill="#000000"/><text fill="#000000" font-family="sans-serif" font-size="7" lengthAdjust="spacing" textLength="18.5" x="492.25" y="490.8984">Agent</text><line style="stroke:#181818;stroke-width:0.25;" x1="478.25" x2="511.75" y1="496" y2="496"/><line style="stroke:#181818;stroke-width:0.25;" x1="478.25" x2="511.75" y1="500" y2="500"/></g><!--class Client--><g id="elem_Client"><rect codeLine="56" fill="#F1F1F1" height="33.3105" id="Client" rx="1.25" ry="1.25" style="stroke:#181818;stroke-width:0.25;" width="83.5" x="318.25" y="301.5"/><ellipse cx="348.875" cy="309.5" fill="#ADD1B2" rx="5.5" ry="5.5" style="stroke:#181818;stroke-width:0.5;"/><path d="M350.2578,307.4375 Q350.3359,307.3281 350.4297,307.2734 Q350.5234,307.2188 350.6328,307.2188 Q350.8203,307.2188 350.9375,307.3516 Q351.0547,307.4766 351.0547,307.7813 L351.0547,308.5078 Q351.0547,308.8125 350.9375,308.9453 Q350.8203,309.0781 350.6328,309.0781 Q350.4609,309.0781 350.3594,308.9766 Q350.2578,308.8828 350.2031,308.625 Q350.1797,308.4453 350.0859,308.3516 Q349.9219,308.1641 349.6172,308.0547 Q349.3125,307.9453 349,307.9453 Q348.6172,307.9453 348.2969,308.1094 Q347.9844,308.2734 347.7344,308.6484 Q347.4922,309.0234 347.4922,309.5391 L347.4922,310.0859 Q347.4922,310.7031 347.9375,311.1172 Q348.3828,311.5234 349.1797,311.5234 Q349.6484,311.5234 349.9766,311.3984 Q350.1719,311.3203 350.3828,311.1016 Q350.5156,310.9688 350.5859,310.9297 Q350.6641,310.8906 350.7656,310.8906 Q350.9297,310.8906 351.0547,311.0234 Q351.1875,311.1484 351.1875,311.3203 Q351.1875,311.4922 351.0156,311.6953 Q350.7656,311.9844 350.3672,312.1484 Q349.8281,312.375 349.1797,312.375 Q348.4219,312.375 347.8203,312.0625 Q347.3281,311.8125 346.9844,311.2813 Q346.6406,310.7422 346.6406,310.1016 L346.6406,309.5234 Q346.6406,308.8594 346.9453,308.2891 Q347.2578,307.7109 347.8047,307.4063 Q348.3516,307.0938 348.9688,307.0938 Q349.3359,307.0938 349.6563,307.1797 Q349.9844,307.2578 350.2578,307.4375 Z " fill="#000000"/><text fill="#000000" font-family="sans-serif" font-size="7" lengthAdjust="spacing" textLength="18" x="359.125" y="312.3984">Client</text><line style="stroke:#181818;stroke-width:0.25;" x1="318.75" x2="401.25" y1="317.5" y2="317.5"/><rect fill="none" height="3" style="stroke:#C82930;stroke-width:0.5;" width="3" x="322.25" y="323.4053"/><text fill="#000000" font-family="sans-serif" font-size="7" lengthAdjust="spacing" textLength="70.5" x="328.25" y="327.0537">Notification notification</text><line style="stroke:#181818;stroke-width:0.25;" x1="318.75" x2="401.25" y1="330.8105" y2="330.8105"/></g><!--class VisitRequest--><g id="elem_VisitRequest"><rect codeLine="49" fill="#F1F1F1" height="61.2422" id="VisitRequest" rx="1.25" ry="1.25" style="stroke:#181818;stroke-width:0.25;" width="96.5" x="124.75" y="123"/><ellipse cx="151.125" cy="131" fill="#ADD1B2" rx="5.5" ry="5.5" style="stroke:#181818;stroke-width:0.5;"/><path d="M152.5078,128.9375 Q152.5859,128.8281 152.6797,128.7734 Q152.7734,128.7188 152.8828,128.7188 Q153.0703,128.7188 153.1875,128.8516 Q153.3047,128.9766 153.3047,129.2813 L153.3047,130.0078 Q153.3047,130.3125 153.1875,130.4453 Q153.0703,130.5781 152.8828,130.5781 Q152.7109,130.5781 152.6094,130.4766 Q152.5078,130.3828 152.4531,130.125 Q152.4297,129.9453 152.3359,129.8516 Q152.1719,129.6641 151.8672,129.5547 Q151.5625,129.4453 151.25,129.4453 Q150.8672,129.4453 150.5469,129.6094 Q150.2344,129.7734 149.9844,130.1484 Q149.7422,130.5234 149.7422,131.0391 L149.7422,131.5859 Q149.7422,132.2031 150.1875,132.6172 Q150.6328,133.0234 151.4297,133.0234 Q151.8984,133.0234 152.2266,132.8984 Q152.4219,132.8203 152.6328,132.6016 Q152.7656,132.4688 152.8359,132.4297 Q152.9141,132.3906 153.0156,132.3906 Q153.1797,132.3906 153.3047,132.5234 Q153.4375,132.6484 153.4375,132.8203 Q153.4375,132.9922 153.2656,133.1953 Q153.0156,133.4844 152.6172,133.6484 Q152.0781,133.875 151.4297,133.875 Q150.6719,133.875 150.0703,133.5625 Q149.5781,133.3125 149.2344,132.7813 Q148.8906,132.2422 148.8906,131.6016 L148.8906,131.0234 Q148.8906,130.3594 149.1953,129.7891 Q149.5078,129.2109 150.0547,128.9063 Q150.6016,128.5938 151.2188,128.5938 Q151.5859,128.5938 151.9063,128.6797 Q152.2344,128.7578 152.5078,128.9375 Z " fill="#000000"/><text fill="#000000" font-family="sans-serif" font-size="7" lengthAdjust="spacing" textLength="39.5" x="161.375" y="133.8984">VisitRequest</text><line style="stroke:#181818;stroke-width:0.25;" x1="125.25" x2="220.75" y1="139" y2="139"/><ellipse cx="130.25" cy="146.4053" fill="none" rx="1.5" ry="1.5" style="stroke:#038048;stroke-width:0.5;"/><text fill="#000000" font-family="sans-serif" font-size="7" lengthAdjust="spacing" textLength="15" x="134.75" y="148.5537">int id</text><rect fill="none" height="3" style="stroke:#C82930;stroke-width:0.5;" width="3" x="128.75" y="154.2158"/><text fill="#000000" font-family="sans-serif" font-size="7" lengthAdjust="spacing" textLength="83.5" x="134.75" y="157.8643">PropertySale propertySale</text><rect fill="none" height="3" style="stroke:#C82930;stroke-width:0.5;" width="3" x="128.75" y="163.5264"/><text fill="#000000" font-family="sans-serif" font-size="7" lengthAdjust="spacing" textLength="76.5" x="134.75" y="167.1748">LocalDateTime visitStart</text><rect fill="none" height="3" style="stroke:#C82930;stroke-width:0.5;" width="3" x="128.75" y="172.8369"/><text fill="#000000" font-family="sans-serif" font-size="7" lengthAdjust="spacing" textLength="74" x="134.75" y="176.4854">LocalDateTime visitEnd</text><line style="stroke:#181818;stroke-width:0.25;" x1="125.25" x2="220.75" y1="180.2422" y2="180.2422"/></g><!--class Notification--><g id="elem_Notification"><rect codeLine="60" fill="#F1F1F1" height="33.3105" id="Notification" rx="1.25" ry="1.25" style="stroke:#181818;stroke-width:0.25;" width="56" x="287" y="383.75"/><ellipse cx="296.975" cy="391.75" fill="#ADD1B2" rx="5.5" ry="5.5" style="stroke:#181818;stroke-width:0.5;"/><path d="M298.3578,389.6875 Q298.4359,389.5781 298.5297,389.5234 Q298.6234,389.4688 298.7328,389.4688 Q298.9203,389.4688 299.0375,389.6016 Q299.1547,389.7266 299.1547,390.0313 L299.1547,390.7578 Q299.1547,391.0625 299.0375,391.1953 Q298.9203,391.3281 298.7328,391.3281 Q298.5609,391.3281 298.4594,391.2266 Q298.3578,391.1328 298.3031,390.875 Q298.2797,390.6953 298.1859,390.6016 Q298.0219,390.4141 297.7172,390.3047 Q297.4125,390.1953 297.1,390.1953 Q296.7172,390.1953 296.3969,390.3594 Q296.0844,390.5234 295.8344,390.8984 Q295.5922,391.2734 295.5922,391.7891 L295.5922,392.3359 Q295.5922,392.9531 296.0375,393.3672 Q296.4828,393.7734 297.2797,393.7734 Q297.7484,393.7734 298.0766,393.6484 Q298.2719,393.5703 298.4828,393.3516 Q298.6156,393.2188 298.6859,393.1797 Q298.7641,393.1406 298.8656,393.1406 Q299.0297,393.1406 299.1547,393.2734 Q299.2875,393.3984 299.2875,393.5703 Q299.2875,393.7422 299.1156,393.9453 Q298.8656,394.2344 298.4672,394.3984 Q297.9281,394.625 297.2797,394.625 Q296.5219,394.625 295.9203,394.3125 Q295.4281,394.0625 295.0844,393.5313 Q294.7406,392.9922 294.7406,392.3516 L294.7406,391.7734 Q294.7406,391.1094 295.0453,390.5391 Q295.3578,389.9609 295.9047,389.6563 Q296.4516,389.3438 297.0688,389.3438 Q297.4359,389.3438 297.7563,389.4297 Q298.0844,389.5078 298.3578,389.6875 Z " fill="#000000"/><text fill="#000000" font-family="sans-serif" font-size="7" lengthAdjust="spacing" textLength="34.5" x="304.525" y="394.6484">Notification</text><line style="stroke:#181818;stroke-width:0.25;" x1="287.5" x2="342.5" y1="399.75" y2="399.75"/><rect fill="none" height="3" style="stroke:#C82930;stroke-width:0.5;" width="3" x="291" y="405.6553"/><text fill="#000000" font-family="sans-serif" font-size="7" lengthAdjust="spacing" textLength="43" x="297" y="409.3037">int id_counter</text><line style="stroke:#181818;stroke-width:0.25;" x1="287.5" x2="342.5" y1="413.0605" y2="413.0605"/></g><!--class Message--><g id="elem_Message"><rect codeLine="64" fill="#F1F1F1" height="51.9316" id="Message" rx="1.25" ry="1.25" style="stroke:#181818;stroke-width:0.25;" width="76.5" x="269.25" y="466"/><ellipse cx="291.15" cy="474" fill="#ADD1B2" rx="5.5" ry="5.5" style="stroke:#181818;stroke-width:0.5;"/><path d="M292.5328,471.9375 Q292.6109,471.8281 292.7047,471.7734 Q292.7984,471.7188 292.9078,471.7188 Q293.0953,471.7188 293.2125,471.8516 Q293.3297,471.9766 293.3297,472.2813 L293.3297,473.0078 Q293.3297,473.3125 293.2125,473.4453 Q293.0953,473.5781 292.9078,473.5781 Q292.7359,473.5781 292.6344,473.4766 Q292.5328,473.3828 292.4781,473.125 Q292.4547,472.9453 292.3609,472.8516 Q292.1969,472.6641 291.8922,472.5547 Q291.5875,472.4453 291.275,472.4453 Q290.8922,472.4453 290.5719,472.6094 Q290.2594,472.7734 290.0094,473.1484 Q289.7672,473.5234 289.7672,474.0391 L289.7672,474.5859 Q289.7672,475.2031 290.2125,475.6172 Q290.6578,476.0234 291.4547,476.0234 Q291.9234,476.0234 292.2516,475.8984 Q292.4469,475.8203 292.6578,475.6016 Q292.7906,475.4688 292.8609,475.4297 Q292.9391,475.3906 293.0406,475.3906 Q293.2047,475.3906 293.3297,475.5234 Q293.4625,475.6484 293.4625,475.8203 Q293.4625,475.9922 293.2906,476.1953 Q293.0406,476.4844 292.6422,476.6484 Q292.1031,476.875 291.4547,476.875 Q290.6969,476.875 290.0953,476.5625 Q289.6031,476.3125 289.2594,475.7813 Q288.9156,475.2422 288.9156,474.6016 L288.9156,474.0234 Q288.9156,473.3594 289.2203,472.7891 Q289.5328,472.2109 290.0797,471.9063 Q290.6266,471.5938 291.2438,471.5938 Q291.6109,471.5938 291.9313,471.6797 Q292.2594,471.7578 292.5328,471.9375 Z " fill="#000000"/><text fill="#000000" font-family="sans-serif" font-size="7" lengthAdjust="spacing" textLength="28.5" x="301.35" y="476.8984">Message</text><line style="stroke:#181818;stroke-width:0.25;" x1="269.75" x2="345.25" y1="482" y2="482"/><rect fill="none" height="3" style="stroke:#C82930;stroke-width:0.5;" width="3" x="273.25" y="487.9053"/><text fill="#000000" font-family="sans-serif" font-size="7" lengthAdjust="spacing" textLength="15" x="279.25" y="491.5537">int id</text><rect fill="none" height="3" style="stroke:#C82930;stroke-width:0.5;" width="3" x="273.25" y="497.2158"/><text fill="#000000" font-family="sans-serif" font-size="7" lengthAdjust="spacing" textLength="63.5" x="279.25" y="500.8643">LocalDateTime date</text><rect fill="none" height="3" style="stroke:#C82930;stroke-width:0.5;" width="3" x="273.25" y="506.5264"/><text fill="#000000" font-family="sans-serif" font-size="7" lengthAdjust="spacing" textLength="49" x="279.25" y="510.1748">String message</text><line style="stroke:#181818;stroke-width:0.25;" x1="269.75" x2="345.25" y1="513.9316" y2="513.9316"/></g><!--class User--><g id="elem_User"><rect codeLine="70" fill="#F1F1F1" height="79.8633" id="User" rx="1.25" ry="1.25" style="stroke:#181818;stroke-width:0.25;" width="78" x="353" y="562"/><ellipse cx="382.625" cy="570" fill="#ADD1B2" rx="5.5" ry="5.5" style="stroke:#181818;stroke-width:0.5;"/><path d="M384.0078,567.9375 Q384.0859,567.8281 384.1797,567.7734 Q384.2734,567.7188 384.3828,567.7188 Q384.5703,567.7188 384.6875,567.8516 Q384.8047,567.9766 384.8047,568.2813 L384.8047,569.0078 Q384.8047,569.3125 384.6875,569.4453 Q384.5703,569.5781 384.3828,569.5781 Q384.2109,569.5781 384.1094,569.4766 Q384.0078,569.3828 383.9531,569.125 Q383.9297,568.9453 383.8359,568.8516 Q383.6719,568.6641 383.3672,568.5547 Q383.0625,568.4453 382.75,568.4453 Q382.3672,568.4453 382.0469,568.6094 Q381.7344,568.7734 381.4844,569.1484 Q381.2422,569.5234 381.2422,570.0391 L381.2422,570.5859 Q381.2422,571.2031 381.6875,571.6172 Q382.1328,572.0234 382.9297,572.0234 Q383.3984,572.0234 383.7266,571.8984 Q383.9219,571.8203 384.1328,571.6016 Q384.2656,571.4688 384.3359,571.4297 Q384.4141,571.3906 384.5156,571.3906 Q384.6797,571.3906 384.8047,571.5234 Q384.9375,571.6484 384.9375,571.8203 Q384.9375,571.9922 384.7656,572.1953 Q384.5156,572.4844 384.1172,572.6484 Q383.5781,572.875 382.9297,572.875 Q382.1719,572.875 381.5703,572.5625 Q381.0781,572.3125 380.7344,571.7813 Q380.3906,571.2422 380.3906,570.6016 L380.3906,570.0234 Q380.3906,569.3594 380.6953,568.7891 Q381.0078,568.2109 381.5547,567.9063 Q382.1016,567.5938 382.7188,567.5938 Q383.0859,567.5938 383.4063,567.6797 Q383.7344,567.7578 384.0078,567.9375 Z " fill="#000000"/><text fill="#000000" font-family="sans-serif" font-size="7" lengthAdjust="spacing" textLength="14.5" x="392.875" y="572.8984">User</text><line style="stroke:#181818;stroke-width:0.25;" x1="353.5" x2="430.5" y1="578" y2="578"/><rect fill="none" height="3" style="stroke:#C82930;stroke-width:0.5;" width="3" x="357" y="583.9053"/><text fill="#000000" font-family="sans-serif" font-size="7" lengthAdjust="spacing" textLength="38" x="363" y="587.5537">String name</text><rect fill="none" height="3" style="stroke:#C82930;stroke-width:0.5;" width="3" x="357" y="593.2158"/><text fill="#000000" font-family="sans-serif" font-size="7" lengthAdjust="spacing" textLength="61.5" x="363" y="596.8643">int passportNumber</text><rect fill="none" height="3" style="stroke:#C82930;stroke-width:0.5;" width="3" x="357" y="602.5264"/><text fill="#000000" font-family="sans-serif" font-size="7" lengthAdjust="spacing" textLength="65" x="363" y="606.1748">String phoneNumber</text><rect fill="none" height="3" style="stroke:#C82930;stroke-width:0.5;" width="3" x="357" y="611.8369"/><text fill="#000000" font-family="sans-serif" font-size="7" lengthAdjust="spacing" textLength="54" x="363" y="615.4854">String taxNumber</text><rect fill="none" height="3" style="stroke:#C82930;stroke-width:0.5;" width="3" x="357" y="621.1475"/><text fill="#000000" font-family="sans-serif" font-size="7" lengthAdjust="spacing" textLength="46" x="363" y="624.7959">String address</text><rect fill="none" height="3" style="stroke:#C82930;stroke-width:0.5;" width="3" x="357" y="630.458"/><text fill="#000000" font-family="sans-serif" font-size="7" lengthAdjust="spacing" textLength="37" x="363" y="634.1064">String email</text><line style="stroke:#181818;stroke-width:0.25;" x1="353.5" x2="430.5" y1="637.8633" y2="637.8633"/></g><!--class PropertySaleRequest--><g id="elem_PropertySaleRequest"><rect codeLine="79" fill="#F1F1F1" height="42.6211" id="PropertySaleRequest" rx="1.25" ry="1.25" style="stroke:#181818;stroke-width:0.25;" width="83.5" x="54.25" y="297"/><ellipse cx="61.75" cy="305" fill="#ADD1B2" rx="5.5" ry="5.5" style="stroke:#181818;stroke-width:0.5;"/><path d="M63.1328,302.9375 Q63.2109,302.8281 63.3047,302.7734 Q63.3984,302.7188 63.5078,302.7188 Q63.6953,302.7188 63.8125,302.8516 Q63.9297,302.9766 63.9297,303.2813 L63.9297,304.0078 Q63.9297,304.3125 63.8125,304.4453 Q63.6953,304.5781 63.5078,304.5781 Q63.3359,304.5781 63.2344,304.4766 Q63.1328,304.3828 63.0781,304.125 Q63.0547,303.9453 62.9609,303.8516 Q62.7969,303.6641 62.4922,303.5547 Q62.1875,303.4453 61.875,303.4453 Q61.4922,303.4453 61.1719,303.6094 Q60.8594,303.7734 60.6094,304.1484 Q60.3672,304.5234 60.3672,305.0391 L60.3672,305.5859 Q60.3672,306.2031 60.8125,306.6172 Q61.2578,307.0234 62.0547,307.0234 Q62.5234,307.0234 62.8516,306.8984 Q63.0469,306.8203 63.2578,306.6016 Q63.3906,306.4688 63.4609,306.4297 Q63.5391,306.3906 63.6406,306.3906 Q63.8047,306.3906 63.9297,306.5234 Q64.0625,306.6484 64.0625,306.8203 Q64.0625,306.9922 63.8906,307.1953 Q63.6406,307.4844 63.2422,307.6484 Q62.7031,307.875 62.0547,307.875 Q61.2969,307.875 60.6953,307.5625 Q60.2031,307.3125 59.8594,306.7813 Q59.5156,306.2422 59.5156,305.6016 L59.5156,305.0234 Q59.5156,304.3594 59.8203,303.7891 Q60.1328,303.2109 60.6797,302.9063 Q61.2266,302.5938 61.8438,302.5938 Q62.2109,302.5938 62.5313,302.6797 Q62.8594,302.7578 63.1328,302.9375 Z " fill="#000000"/><text fill="#000000" font-family="sans-serif" font-size="7" lengthAdjust="spacing" textLength="67.5" x="68.75" y="307.8984">PropertySaleRequest</text><line style="stroke:#181818;stroke-width:0.25;" x1="54.75" x2="137.25" y1="313" y2="313"/><rect fill="none" height="3" style="stroke:#C82930;stroke-width:0.5;" width="3" x="58.25" y="318.9053"/><text fill="#000000" font-family="sans-serif" font-size="7" lengthAdjust="spacing" textLength="59" x="64.25" y="322.5537">int typeOfBusiness</text><rect fill="none" height="3" style="stroke:#C82930;stroke-width:0.5;" width="3" x="58.25" y="328.2158"/><text fill="#000000" font-family="sans-serif" font-size="7" lengthAdjust="spacing" textLength="63.5" x="64.25" y="331.8643">float requestedPrice</text><line style="stroke:#181818;stroke-width:0.25;" x1="54.75" x2="137.25" y1="335.6211" y2="335.6211"/></g><!--class PropertySale--><g id="elem_PropertySale"><rect codeLine="84" fill="#F1F1F1" height="42.6211" id="PropertySale" rx="1.25" ry="1.25" style="stroke:#181818;stroke-width:0.25;" width="76" x="62.5" y="219.25"/><ellipse cx="78.55" cy="227.25" fill="#ADD1B2" rx="5.5" ry="5.5" style="stroke:#181818;stroke-width:0.5;"/><path d="M79.9328,225.1875 Q80.0109,225.0781 80.1047,225.0234 Q80.1984,224.9688 80.3078,224.9688 Q80.4953,224.9688 80.6125,225.1016 Q80.7297,225.2266 80.7297,225.5313 L80.7297,226.2578 Q80.7297,226.5625 80.6125,226.6953 Q80.4953,226.8281 80.3078,226.8281 Q80.1359,226.8281 80.0344,226.7266 Q79.9328,226.6328 79.8781,226.375 Q79.8547,226.1953 79.7609,226.1016 Q79.5969,225.9141 79.2922,225.8047 Q78.9875,225.6953 78.675,225.6953 Q78.2922,225.6953 77.9719,225.8594 Q77.6594,226.0234 77.4094,226.3984 Q77.1672,226.7734 77.1672,227.2891 L77.1672,227.8359 Q77.1672,228.4531 77.6125,228.8672 Q78.0578,229.2734 78.8547,229.2734 Q79.3234,229.2734 79.6516,229.1484 Q79.8469,229.0703 80.0578,228.8516 Q80.1906,228.7188 80.2609,228.6797 Q80.3391,228.6406 80.4406,228.6406 Q80.6047,228.6406 80.7297,228.7734 Q80.8625,228.8984 80.8625,229.0703 Q80.8625,229.2422 80.6906,229.4453 Q80.4406,229.7344 80.0422,229.8984 Q79.5031,230.125 78.8547,230.125 Q78.0969,230.125 77.4953,229.8125 Q77.0031,229.5625 76.6594,229.0313 Q76.3156,228.4922 76.3156,227.8516 L76.3156,227.2734 Q76.3156,226.6094 76.6203,226.0391 Q76.9328,225.4609 77.4797,225.1563 Q78.0266,224.8438 78.6438,224.8438 Q79.0109,224.8438 79.3313,224.9297 Q79.6594,225.0078 79.9328,225.1875 Z " fill="#000000"/><text fill="#000000" font-family="sans-serif" font-size="7" lengthAdjust="spacing" textLength="41" x="87.45" y="230.1484">PropertySale</text><line style="stroke:#181818;stroke-width:0.25;" x1="63" x2="138" y1="235.25" y2="235.25"/><rect fill="none" height="3" style="stroke:#C82930;stroke-width:0.5;" width="3" x="66.5" y="241.1553"/><text fill="#000000" font-family="sans-serif" font-size="7" lengthAdjust="spacing" textLength="63" x="72.5" y="244.8037">int typeOfComission</text><rect fill="none" height="3" style="stroke:#C82930;stroke-width:0.5;" width="3" x="66.5" y="250.4658"/><text fill="#000000" font-family="sans-serif" font-size="7" lengthAdjust="spacing" textLength="52" x="72.5" y="254.1143">float commission</text><line style="stroke:#181818;stroke-width:0.25;" x1="63" x2="138" y1="257.8711" y2="257.8711"/></g><!--class Property--><g id="elem_Property"><rect codeLine="89" fill="#F1F1F1" height="61.2422" id="Property" rx="1.25" ry="1.25" style="stroke:#181818;stroke-width:0.25;" width="105" x="35.5" y="370"/><ellipse cx="72.375" cy="378" fill="#A9DCDF" rx="5.5" ry="5.5" style="stroke:#181818;stroke-width:0.5;"/><path d="M73.4688,378.8828 L71.3984,378.8828 L71.1875,379.3984 L71.3984,379.3984 Q71.7031,379.3984 71.8359,379.5156 Q71.9688,379.6328 71.9688,379.8281 Q71.9688,380.0156 71.8359,380.1328 Q71.7031,380.25 71.3984,380.25 L70.25,380.25 Q69.9453,380.25 69.8203,380.1328 Q69.6875,380.0156 69.6875,379.8203 Q69.6875,379.6328 69.8281,379.5156 Q69.9609,379.3906 70.2734,379.3984 L71.6094,376.0703 L71.0547,376.0703 Q70.75,376.0703 70.6172,375.9531 Q70.4844,375.8359 70.4844,375.6406 Q70.4844,375.4531 70.6172,375.3359 Q70.75,375.2188 71.0547,375.2188 L72.8906,375.2188 L74.5859,379.3984 Q74.8828,379.3984 74.9766,379.4688 Q75.1719,379.6016 75.1719,379.8281 Q75.1719,380.0156 75.0391,380.1328 Q74.9141,380.25 74.6094,380.25 L73.4609,380.25 Q73.1563,380.25 73.0234,380.1328 Q72.8906,380.0156 72.8906,379.8203 Q72.8906,379.6328 73.0234,379.5156 Q73.1563,379.3984 73.4609,379.3984 L73.6719,379.3984 L73.4688,378.8828 Z M73.1094,378.0313 L72.4297,376.3438 L71.7422,378.0313 L73.1094,378.0313 Z " fill="#000000"/><text fill="#000000" font-family="sans-serif" font-size="7" font-style="italic" lengthAdjust="spacing" textLength="27" x="82.625" y="380.8984">Property</text><line style="stroke:#181818;stroke-width:0.25;" x1="36" x2="140" y1="386" y2="386"/><rect fill="none" height="3" style="stroke:#C82930;stroke-width:0.5;" width="3" x="39.5" y="391.9053"/><text fill="#000000" font-family="sans-serif" font-size="7" lengthAdjust="spacing" textLength="30" x="45.5" y="395.5537">float area</text><rect fill="none" height="3" style="stroke:#C82930;stroke-width:0.5;" width="3" x="39.5" y="401.2158"/><text fill="#000000" font-family="sans-serif" font-size="7" lengthAdjust="spacing" textLength="38.5" x="45.5" y="404.8643">String street</text><rect fill="none" height="3" style="stroke:#C82930;stroke-width:0.5;" width="3" x="39.5" y="410.5264"/><text fill="#000000" font-family="sans-serif" font-size="7" lengthAdjust="spacing" textLength="46" x="45.5" y="414.1748">String zipCode</text><rect fill="none" height="3" style="stroke:#C82930;stroke-width:0.5;" width="3" x="39.5" y="419.8369"/><text fill="#000000" font-family="sans-serif" font-size="7" lengthAdjust="spacing" textLength="92" x="45.5" y="423.4854">float distanceFromCityCenter</text><line style="stroke:#181818;stroke-width:0.25;" x1="36" x2="140" y1="427.2422" y2="427.2422"/></g><!--class Land--><g id="elem_Land"><rect codeLine="96" fill="#F1F1F1" height="24" id="Land" rx="1.25" ry="1.25" style="stroke:#181818;stroke-width:0.25;" width="32" x="72" y="480"/><ellipse cx="79.5" cy="488" fill="#ADD1B2" rx="5.5" ry="5.5" style="stroke:#181818;stroke-width:0.5;"/><path d="M80.8828,485.9375 Q80.9609,485.8281 81.0547,485.7734 Q81.1484,485.7188 81.2578,485.7188 Q81.4453,485.7188 81.5625,485.8516 Q81.6797,485.9766 81.6797,486.2813 L81.6797,487.0078 Q81.6797,487.3125 81.5625,487.4453 Q81.4453,487.5781 81.2578,487.5781 Q81.0859,487.5781 80.9844,487.4766 Q80.8828,487.3828 80.8281,487.125 Q80.8047,486.9453 80.7109,486.8516 Q80.5469,486.6641 80.2422,486.5547 Q79.9375,486.4453 79.625,486.4453 Q79.2422,486.4453 78.9219,486.6094 Q78.6094,486.7734 78.3594,487.1484 Q78.1172,487.5234 78.1172,488.0391 L78.1172,488.5859 Q78.1172,489.2031 78.5625,489.6172 Q79.0078,490.0234 79.8047,490.0234 Q80.2734,490.0234 80.6016,489.8984 Q80.7969,489.8203 81.0078,489.6016 Q81.1406,489.4688 81.2109,489.4297 Q81.2891,489.3906 81.3906,489.3906 Q81.5547,489.3906 81.6797,489.5234 Q81.8125,489.6484 81.8125,489.8203 Q81.8125,489.9922 81.6406,490.1953 Q81.3906,490.4844 80.9922,490.6484 Q80.4531,490.875 79.8047,490.875 Q79.0469,490.875 78.4453,490.5625 Q77.9531,490.3125 77.6094,489.7813 Q77.2656,489.2422 77.2656,488.6016 L77.2656,488.0234 Q77.2656,487.3594 77.5703,486.7891 Q77.8828,486.2109 78.4297,485.9063 Q78.9766,485.5938 79.5938,485.5938 Q79.9609,485.5938 80.2813,485.6797 Q80.6094,485.7578 80.8828,485.9375 Z " fill="#000000"/><text fill="#000000" font-family="sans-serif" font-size="7" lengthAdjust="spacing" textLength="16" x="86.5" y="490.8984">Land</text><line style="stroke:#181818;stroke-width:0.25;" x1="72.5" x2="103.5" y1="496" y2="496"/><line style="stroke:#181818;stroke-width:0.25;" x1="72.5" x2="103.5" y1="500" y2="500"/></g><!--class City--><g id="elem_City"><rect codeLine="100" fill="#F1F1F1" height="24" id="City" rx="1.25" ry="1.25" style="stroke:#181818;stroke-width:0.25;" width="28" x="15" y="672.5"/><ellipse cx="22.5" cy="680.5" fill="#ADD1B2" rx="5.5" ry="5.5" style="stroke:#181818;stroke-width:0.5;"/><path d="M23.8828,678.4375 Q23.9609,678.3281 24.0547,678.2734 Q24.1484,678.2188 24.2578,678.2188 Q24.4453,678.2188 24.5625,678.3516 Q24.6797,678.4766 24.6797,678.7813 L24.6797,679.5078 Q24.6797,679.8125 24.5625,679.9453 Q24.4453,680.0781 24.2578,680.0781 Q24.0859,680.0781 23.9844,679.9766 Q23.8828,679.8828 23.8281,679.625 Q23.8047,679.4453 23.7109,679.3516 Q23.5469,679.1641 23.2422,679.0547 Q22.9375,678.9453 22.625,678.9453 Q22.2422,678.9453 21.9219,679.1094 Q21.6094,679.2734 21.3594,679.6484 Q21.1172,680.0234 21.1172,680.5391 L21.1172,681.0859 Q21.1172,681.7031 21.5625,682.1172 Q22.0078,682.5234 22.8047,682.5234 Q23.2734,682.5234 23.6016,682.3984 Q23.7969,682.3203 24.0078,682.1016 Q24.1406,681.9688 24.2109,681.9297 Q24.2891,681.8906 24.3906,681.8906 Q24.5547,681.8906 24.6797,682.0234 Q24.8125,682.1484 24.8125,682.3203 Q24.8125,682.4922 24.6406,682.6953 Q24.3906,682.9844 23.9922,683.1484 Q23.4531,683.375 22.8047,683.375 Q22.0469,683.375 21.4453,683.0625 Q20.9531,682.8125 20.6094,682.2813 Q20.2656,681.7422 20.2656,681.1016 L20.2656,680.5234 Q20.2656,679.8594 20.5703,679.2891 Q20.8828,678.7109 21.4297,678.4063 Q21.9766,678.0938 22.5938,678.0938 Q22.9609,678.0938 23.2813,678.1797 Q23.6094,678.2578 23.8828,678.4375 Z " fill="#000000"/><text fill="#000000" font-family="sans-serif" font-size="7" lengthAdjust="spacing" textLength="12" x="29.5" y="683.3984">City</text><line style="stroke:#181818;stroke-width:0.25;" x1="15.5" x2="42.5" y1="688.5" y2="688.5"/><line style="stroke:#181818;stroke-width:0.25;" x1="15.5" x2="42.5" y1="692.5" y2="692.5"/></g><!--class State--><g id="elem_State"><rect codeLine="103" fill="#F1F1F1" height="33.3105" id="State" rx="1.25" ry="1.25" style="stroke:#181818;stroke-width:0.25;" width="51" x="3.5" y="475.25"/><ellipse cx="19.325" cy="483.25" fill="#ADD1B2" rx="5.5" ry="5.5" style="stroke:#181818;stroke-width:0.5;"/><path d="M20.7078,481.1875 Q20.7859,481.0781 20.8797,481.0234 Q20.9734,480.9688 21.0828,480.9688 Q21.2703,480.9688 21.3875,481.1016 Q21.5047,481.2266 21.5047,481.5313 L21.5047,482.2578 Q21.5047,482.5625 21.3875,482.6953 Q21.2703,482.8281 21.0828,482.8281 Q20.9109,482.8281 20.8094,482.7266 Q20.7078,482.6328 20.6531,482.375 Q20.6297,482.1953 20.5359,482.1016 Q20.3719,481.9141 20.0672,481.8047 Q19.7625,481.6953 19.45,481.6953 Q19.0672,481.6953 18.7469,481.8594 Q18.4344,482.0234 18.1844,482.3984 Q17.9422,482.7734 17.9422,483.2891 L17.9422,483.8359 Q17.9422,484.4531 18.3875,484.8672 Q18.8328,485.2734 19.6297,485.2734 Q20.0984,485.2734 20.4266,485.1484 Q20.6219,485.0703 20.8328,484.8516 Q20.9656,484.7188 21.0359,484.6797 Q21.1141,484.6406 21.2156,484.6406 Q21.3797,484.6406 21.5047,484.7734 Q21.6375,484.8984 21.6375,485.0703 Q21.6375,485.2422 21.4656,485.4453 Q21.2156,485.7344 20.8172,485.8984 Q20.2781,486.125 19.6297,486.125 Q18.8719,486.125 18.2703,485.8125 Q17.7781,485.5625 17.4344,485.0313 Q17.0906,484.4922 17.0906,483.8516 L17.0906,483.2734 Q17.0906,482.6094 17.3953,482.0391 Q17.7078,481.4609 18.2547,481.1563 Q18.8016,480.8438 19.4188,480.8438 Q19.7859,480.8438 20.1063,480.9297 Q20.4344,481.0078 20.7078,481.1875 Z " fill="#000000"/><text fill="#000000" font-family="sans-serif" font-size="7" lengthAdjust="spacing" textLength="16.5" x="28.175" y="486.1484">State</text><line style="stroke:#181818;stroke-width:0.25;" x1="4" x2="54" y1="491.25" y2="491.25"/><rect fill="none" height="3" style="stroke:#C82930;stroke-width:0.5;" width="3" x="7.5" y="497.1553"/><text fill="#000000" font-family="sans-serif" font-size="7" lengthAdjust="spacing" textLength="38" x="13.5" y="500.8037">String name</text><line style="stroke:#181818;stroke-width:0.25;" x1="4" x2="54" y1="504.5605" y2="504.5605"/></g><!--class District--><g id="elem_District"><rect codeLine="107" fill="#F1F1F1" height="24" id="District" rx="1.25" ry="1.25" style="stroke:#181818;stroke-width:0.25;" width="37.5" x="10.25" y="590"/><ellipse cx="17.75" cy="598" fill="#ADD1B2" rx="5.5" ry="5.5" style="stroke:#181818;stroke-width:0.5;"/><path d="M19.1328,595.9375 Q19.2109,595.8281 19.3047,595.7734 Q19.3984,595.7188 19.5078,595.7188 Q19.6953,595.7188 19.8125,595.8516 Q19.9297,595.9766 19.9297,596.2813 L19.9297,597.0078 Q19.9297,597.3125 19.8125,597.4453 Q19.6953,597.5781 19.5078,597.5781 Q19.3359,597.5781 19.2344,597.4766 Q19.1328,597.3828 19.0781,597.125 Q19.0547,596.9453 18.9609,596.8516 Q18.7969,596.6641 18.4922,596.5547 Q18.1875,596.4453 17.875,596.4453 Q17.4922,596.4453 17.1719,596.6094 Q16.8594,596.7734 16.6094,597.1484 Q16.3672,597.5234 16.3672,598.0391 L16.3672,598.5859 Q16.3672,599.2031 16.8125,599.6172 Q17.2578,600.0234 18.0547,600.0234 Q18.5234,600.0234 18.8516,599.8984 Q19.0469,599.8203 19.2578,599.6016 Q19.3906,599.4688 19.4609,599.4297 Q19.5391,599.3906 19.6406,599.3906 Q19.8047,599.3906 19.9297,599.5234 Q20.0625,599.6484 20.0625,599.8203 Q20.0625,599.9922 19.8906,600.1953 Q19.6406,600.4844 19.2422,600.6484 Q18.7031,600.875 18.0547,600.875 Q17.2969,600.875 16.6953,600.5625 Q16.2031,600.3125 15.8594,599.7813 Q15.5156,599.2422 15.5156,598.6016 L15.5156,598.0234 Q15.5156,597.3594 15.8203,596.7891 Q16.1328,596.2109 16.6797,595.9063 Q17.2266,595.5938 17.8438,595.5938 Q18.2109,595.5938 18.5313,595.6797 Q18.8594,595.7578 19.1328,595.9375 Z " fill="#000000"/><text fill="#000000" font-family="sans-serif" font-size="7" lengthAdjust="spacing" textLength="21.5" x="24.75" y="600.8984">District</text><line style="stroke:#181818;stroke-width:0.25;" x1="10.75" x2="47.25" y1="606" y2="606"/><line style="stroke:#181818;stroke-width:0.25;" x1="10.75" x2="47.25" y1="610" y2="610"/></g><!--class ResidentialProperty--><g id="elem_ResidentialProperty"><rect codeLine="111" fill="#F1F1F1" height="61.2422" id="ResidentialProperty" rx="1.25" ry="1.25" style="stroke:#181818;stroke-width:0.25;" width="88" x="121.5" y="461.5"/><ellipse cx="133.5" cy="469.5" fill="#A9DCDF" rx="5.5" ry="5.5" style="stroke:#181818;stroke-width:0.5;"/><path d="M134.5938,470.3828 L132.5234,470.3828 L132.3125,470.8984 L132.5234,470.8984 Q132.8281,470.8984 132.9609,471.0156 Q133.0938,471.1328 133.0938,471.3281 Q133.0938,471.5156 132.9609,471.6328 Q132.8281,471.75 132.5234,471.75 L131.375,471.75 Q131.0703,471.75 130.9453,471.6328 Q130.8125,471.5156 130.8125,471.3203 Q130.8125,471.1328 130.9531,471.0156 Q131.0859,470.8906 131.3984,470.8984 L132.7344,467.5703 L132.1797,467.5703 Q131.875,467.5703 131.7422,467.4531 Q131.6094,467.3359 131.6094,467.1406 Q131.6094,466.9531 131.7422,466.8359 Q131.875,466.7188 132.1797,466.7188 L134.0156,466.7188 L135.7109,470.8984 Q136.0078,470.8984 136.1016,470.9688 Q136.2969,471.1016 136.2969,471.3281 Q136.2969,471.5156 136.1641,471.6328 Q136.0391,471.75 135.7344,471.75 L134.5859,471.75 Q134.2813,471.75 134.1484,471.6328 Q134.0156,471.5156 134.0156,471.3203 Q134.0156,471.1328 134.1484,471.0156 Q134.2813,470.8984 134.5859,470.8984 L134.7969,470.8984 L134.5938,470.3828 Z M134.2344,469.5313 L133.5547,467.8438 L132.8672,469.5313 L134.2344,469.5313 Z " fill="#000000"/><text fill="#000000" font-family="sans-serif" font-size="7" font-style="italic" lengthAdjust="spacing" textLength="62" x="141.5" y="472.3984">ResidentialProperty</text><line style="stroke:#181818;stroke-width:0.25;" x1="122" x2="209" y1="477.5" y2="477.5"/><rect fill="none" height="3" style="stroke:#C82930;stroke-width:0.5;" width="3" x="125.5" y="483.4053"/><text fill="#000000" font-family="sans-serif" font-size="7" lengthAdjust="spacing" textLength="63.5" x="131.5" y="487.0537">numberOfBedrooms</text><rect fill="none" height="3" style="stroke:#C82930;stroke-width:0.5;" width="3" x="125.5" y="492.7158"/><text fill="#000000" font-family="sans-serif" font-size="7" lengthAdjust="spacing" textLength="65.5" x="131.5" y="496.3643">numberOfBathrooms</text><rect fill="none" height="3" style="stroke:#C82930;stroke-width:0.5;" width="3" x="125.5" y="502.0264"/><text fill="#000000" font-family="sans-serif" font-size="7" lengthAdjust="spacing" textLength="75" x="131.5" y="505.6748">numerOfParkingSpaces</text><rect fill="none" height="3" style="stroke:#C82930;stroke-width:0.5;" width="3" x="125.5" y="511.3369"/><text fill="#000000" font-family="sans-serif" font-size="7" lengthAdjust="spacing" textLength="61.5" x="131.5" y="514.9854">availableEquipment</text><line style="stroke:#181818;stroke-width:0.25;" x1="122" x2="209" y1="518.7422" y2="518.7422"/></g><!--class Apartment--><g id="elem_Apartment"><rect codeLine="118" fill="#F1F1F1" height="24" id="Apartment" rx="1.25" ry="1.25" style="stroke:#181818;stroke-width:0.25;" width="48.5" x="205.25" y="590"/><ellipse cx="212.75" cy="598" fill="#ADD1B2" rx="5.5" ry="5.5" style="stroke:#181818;stroke-width:0.5;"/><path d="M214.1328,595.9375 Q214.2109,595.8281 214.3047,595.7734 Q214.3984,595.7188 214.5078,595.7188 Q214.6953,595.7188 214.8125,595.8516 Q214.9297,595.9766 214.9297,596.2813 L214.9297,597.0078 Q214.9297,597.3125 214.8125,597.4453 Q214.6953,597.5781 214.5078,597.5781 Q214.3359,597.5781 214.2344,597.4766 Q214.1328,597.3828 214.0781,597.125 Q214.0547,596.9453 213.9609,596.8516 Q213.7969,596.6641 213.4922,596.5547 Q213.1875,596.4453 212.875,596.4453 Q212.4922,596.4453 212.1719,596.6094 Q211.8594,596.7734 211.6094,597.1484 Q211.3672,597.5234 211.3672,598.0391 L211.3672,598.5859 Q211.3672,599.2031 211.8125,599.6172 Q212.2578,600.0234 213.0547,600.0234 Q213.5234,600.0234 213.8516,599.8984 Q214.0469,599.8203 214.2578,599.6016 Q214.3906,599.4688 214.4609,599.4297 Q214.5391,599.3906 214.6406,599.3906 Q214.8047,599.3906 214.9297,599.5234 Q215.0625,599.6484 215.0625,599.8203 Q215.0625,599.9922 214.8906,600.1953 Q214.6406,600.4844 214.2422,600.6484 Q213.7031,600.875 213.0547,600.875 Q212.2969,600.875 211.6953,600.5625 Q211.2031,600.3125 210.8594,599.7813 Q210.5156,599.2422 210.5156,598.6016 L210.5156,598.0234 Q210.5156,597.3594 210.8203,596.7891 Q211.1328,596.2109 211.6797,595.9063 Q212.2266,595.5938 212.8438,595.5938 Q213.2109,595.5938 213.5313,595.6797 Q213.8594,595.7578 214.1328,595.9375 Z " fill="#000000"/><text fill="#000000" font-family="sans-serif" font-size="7" lengthAdjust="spacing" textLength="32.5" x="219.75" y="600.8984">Apartment</text><line style="stroke:#181818;stroke-width:0.25;" x1="205.75" x2="253.25" y1="606" y2="606"/><line style="stroke:#181818;stroke-width:0.25;" x1="205.75" x2="253.25" y1="610" y2="610"/></g><!--class House--><g id="elem_House"><rect codeLine="122" fill="#F1F1F1" height="51.9316" id="House" rx="1.25" ry="1.25" style="stroke:#181818;stroke-width:0.25;" width="96.5" x="91.25" y="576"/><ellipse cx="127.375" cy="584" fill="#ADD1B2" rx="5.5" ry="5.5" style="stroke:#181818;stroke-width:0.5;"/><path d="M128.7578,581.9375 Q128.8359,581.8281 128.9297,581.7734 Q129.0234,581.7188 129.1328,581.7188 Q129.3203,581.7188 129.4375,581.8516 Q129.5547,581.9766 129.5547,582.2813 L129.5547,583.0078 Q129.5547,583.3125 129.4375,583.4453 Q129.3203,583.5781 129.1328,583.5781 Q128.9609,583.5781 128.8594,583.4766 Q128.7578,583.3828 128.7031,583.125 Q128.6797,582.9453 128.5859,582.8516 Q128.4219,582.6641 128.1172,582.5547 Q127.8125,582.4453 127.5,582.4453 Q127.1172,582.4453 126.7969,582.6094 Q126.4844,582.7734 126.2344,583.1484 Q125.9922,583.5234 125.9922,584.0391 L125.9922,584.5859 Q125.9922,585.2031 126.4375,585.6172 Q126.8828,586.0234 127.6797,586.0234 Q128.1484,586.0234 128.4766,585.8984 Q128.6719,585.8203 128.8828,585.6016 Q129.0156,585.4688 129.0859,585.4297 Q129.1641,585.3906 129.2656,585.3906 Q129.4297,585.3906 129.5547,585.5234 Q129.6875,585.6484 129.6875,585.8203 Q129.6875,585.9922 129.5156,586.1953 Q129.2656,586.4844 128.8672,586.6484 Q128.3281,586.875 127.6797,586.875 Q126.9219,586.875 126.3203,586.5625 Q125.8281,586.3125 125.4844,585.7813 Q125.1406,585.2422 125.1406,584.6016 L125.1406,584.0234 Q125.1406,583.3594 125.4453,582.7891 Q125.7578,582.2109 126.3047,581.9063 Q126.8516,581.5938 127.4688,581.5938 Q127.8359,581.5938 128.1563,581.6797 Q128.4844,581.7578 128.7578,581.9375 Z " fill="#000000"/><text fill="#000000" font-family="sans-serif" font-size="7" lengthAdjust="spacing" textLength="20" x="137.625" y="586.8984">House</text><line style="stroke:#181818;stroke-width:0.25;" x1="91.75" x2="187.25" y1="592" y2="592"/><rect fill="none" height="3" style="stroke:#C82930;stroke-width:0.5;" width="3" x="95.25" y="597.9053"/><text fill="#000000" font-family="sans-serif" font-size="7" lengthAdjust="spacing" textLength="68.5" x="101.25" y="601.5537">existanceOfBasement</text><rect fill="none" height="3" style="stroke:#C82930;stroke-width:0.5;" width="3" x="95.25" y="607.2158"/><text fill="#000000" font-family="sans-serif" font-size="7" lengthAdjust="spacing" textLength="83.5" x="101.25" y="610.8643">existanceOfInhabitableLoft</text><rect fill="none" height="3" style="stroke:#C82930;stroke-width:0.5;" width="3" x="95.25" y="616.5264"/><text fill="#000000" font-family="sans-serif" font-size="7" lengthAdjust="spacing" textLength="41" x="101.25" y="620.1748">sunExposure</text><line style="stroke:#181818;stroke-width:0.25;" x1="91.75" x2="187.25" y1="623.9316" y2="623.9316"/></g><!--class Store--><g id="elem_Store"><rect codeLine="128" fill="#F1F1F1" height="24" id="Store" rx="1.25" ry="1.25" style="stroke:#181818;stroke-width:0.25;" width="33" x="478.5" y="388.5"/><ellipse cx="486" cy="396.5" fill="#ADD1B2" rx="5.5" ry="5.5" style="stroke:#181818;stroke-width:0.5;"/><path d="M487.3828,394.4375 Q487.4609,394.3281 487.5547,394.2734 Q487.6484,394.2188 487.7578,394.2188 Q487.9453,394.2188 488.0625,394.3516 Q488.1797,394.4766 488.1797,394.7813 L488.1797,395.5078 Q488.1797,395.8125 488.0625,395.9453 Q487.9453,396.0781 487.7578,396.0781 Q487.5859,396.0781 487.4844,395.9766 Q487.3828,395.8828 487.3281,395.625 Q487.3047,395.4453 487.2109,395.3516 Q487.0469,395.1641 486.7422,395.0547 Q486.4375,394.9453 486.125,394.9453 Q485.7422,394.9453 485.4219,395.1094 Q485.1094,395.2734 484.8594,395.6484 Q484.6172,396.0234 484.6172,396.5391 L484.6172,397.0859 Q484.6172,397.7031 485.0625,398.1172 Q485.5078,398.5234 486.3047,398.5234 Q486.7734,398.5234 487.1016,398.3984 Q487.2969,398.3203 487.5078,398.1016 Q487.6406,397.9688 487.7109,397.9297 Q487.7891,397.8906 487.8906,397.8906 Q488.0547,397.8906 488.1797,398.0234 Q488.3125,398.1484 488.3125,398.3203 Q488.3125,398.4922 488.1406,398.6953 Q487.8906,398.9844 487.4922,399.1484 Q486.9531,399.375 486.3047,399.375 Q485.5469,399.375 484.9453,399.0625 Q484.4531,398.8125 484.1094,398.2813 Q483.7656,397.7422 483.7656,397.1016 L483.7656,396.5234 Q483.7656,395.8594 484.0703,395.2891 Q484.3828,394.7109 484.9297,394.4063 Q485.4766,394.0938 486.0938,394.0938 Q486.4609,394.0938 486.7813,394.1797 Q487.1094,394.2578 487.3828,394.4375 Z " fill="#000000"/><text fill="#000000" font-family="sans-serif" font-size="7" lengthAdjust="spacing" textLength="17" x="493" y="399.3984">Store</text><line style="stroke:#181818;stroke-width:0.25;" x1="479" x2="511" y1="404.5" y2="404.5"/><line style="stroke:#181818;stroke-width:0.25;" x1="479" x2="511" y1="408.5" y2="408.5"/></g><!--class NetworkManager--><g id="elem_NetworkManager"><rect codeLine="132" fill="#F1F1F1" height="24" id="NetworkManager" rx="1.25" ry="1.25" style="stroke:#181818;stroke-width:0.25;" width="69" x="613" y="388.5"/><ellipse cx="620.5" cy="396.5" fill="#ADD1B2" rx="5.5" ry="5.5" style="stroke:#181818;stroke-width:0.5;"/><path d="M621.8828,394.4375 Q621.9609,394.3281 622.0547,394.2734 Q622.1484,394.2188 622.2578,394.2188 Q622.4453,394.2188 622.5625,394.3516 Q622.6797,394.4766 622.6797,394.7813 L622.6797,395.5078 Q622.6797,395.8125 622.5625,395.9453 Q622.4453,396.0781 622.2578,396.0781 Q622.0859,396.0781 621.9844,395.9766 Q621.8828,395.8828 621.8281,395.625 Q621.8047,395.4453 621.7109,395.3516 Q621.5469,395.1641 621.2422,395.0547 Q620.9375,394.9453 620.625,394.9453 Q620.2422,394.9453 619.9219,395.1094 Q619.6094,395.2734 619.3594,395.6484 Q619.1172,396.0234 619.1172,396.5391 L619.1172,397.0859 Q619.1172,397.7031 619.5625,398.1172 Q620.0078,398.5234 620.8047,398.5234 Q621.2734,398.5234 621.6016,398.3984 Q621.7969,398.3203 622.0078,398.1016 Q622.1406,397.9688 622.2109,397.9297 Q622.2891,397.8906 622.3906,397.8906 Q622.5547,397.8906 622.6797,398.0234 Q622.8125,398.1484 622.8125,398.3203 Q622.8125,398.4922 622.6406,398.6953 Q622.3906,398.9844 621.9922,399.1484 Q621.4531,399.375 620.8047,399.375 Q620.0469,399.375 619.4453,399.0625 Q618.9531,398.8125 618.6094,398.2813 Q618.2656,397.7422 618.2656,397.1016 L618.2656,396.5234 Q618.2656,395.8594 618.5703,395.2891 Q618.8828,394.7109 619.4297,394.4063 Q619.9766,394.0938 620.5938,394.0938 Q620.9609,394.0938 621.2813,394.1797 Q621.6094,394.2578 621.8828,394.4375 Z " fill="#000000"/><text fill="#000000" font-family="sans-serif" font-size="7" lengthAdjust="spacing" textLength="53" x="627.5" y="399.3984">NetworkManager</text><line style="stroke:#181818;stroke-width:0.25;" x1="613.5" x2="681.5" y1="404.5" y2="404.5"/><line style="stroke:#181818;stroke-width:0.25;" x1="613.5" x2="681.5" y1="408.5" y2="408.5"/></g><!--class StoreManager--><g id="elem_StoreManager"><rect fill="#F1F1F1" height="24" id="StoreManager" rx="1.25" ry="1.25" style="stroke:#181818;stroke-width:0.25;" width="61" x="399" y="480"/><ellipse cx="406.5" cy="488" fill="#ADD1B2" rx="5.5" ry="5.5" style="stroke:#181818;stroke-width:0.5;"/><path d="M407.8828,485.9375 Q407.9609,485.8281 408.0547,485.7734 Q408.1484,485.7188 408.2578,485.7188 Q408.4453,485.7188 408.5625,485.8516 Q408.6797,485.9766 408.6797,486.2813 L408.6797,487.0078 Q408.6797,487.3125 408.5625,487.4453 Q408.4453,487.5781 408.2578,487.5781 Q408.0859,487.5781 407.9844,487.4766 Q407.8828,487.3828 407.8281,487.125 Q407.8047,486.9453 407.7109,486.8516 Q407.5469,486.6641 407.2422,486.5547 Q406.9375,486.4453 406.625,486.4453 Q406.2422,486.4453 405.9219,486.6094 Q405.6094,486.7734 405.3594,487.1484 Q405.1172,487.5234 405.1172,488.0391 L405.1172,488.5859 Q405.1172,489.2031 405.5625,489.6172 Q406.0078,490.0234 406.8047,490.0234 Q407.2734,490.0234 407.6016,489.8984 Q407.7969,489.8203 408.0078,489.6016 Q408.1406,489.4688 408.2109,489.4297 Q408.2891,489.3906 408.3906,489.3906 Q408.5547,489.3906 408.6797,489.5234 Q408.8125,489.6484 408.8125,489.8203 Q408.8125,489.9922 408.6406,490.1953 Q408.3906,490.4844 407.9922,490.6484 Q407.4531,490.875 406.8047,490.875 Q406.0469,490.875 405.4453,490.5625 Q404.9531,490.3125 404.6094,489.7813 Q404.2656,489.2422 404.2656,488.6016 L404.2656,488.0234 Q404.2656,487.3594 404.5703,486.7891 Q404.8828,486.2109 405.4297,485.9063 Q405.9766,485.5938 406.5938,485.5938 Q406.9609,485.5938 407.2813,485.6797 Q407.6094,485.7578 407.8828,485.9375 Z " fill="#000000"/><text fill="#000000" font-family="sans-serif" font-size="7" lengthAdjust="spacing" textLength="45" x="413.5" y="490.8984">StoreManager</text><line style="stroke:#181818;stroke-width:0.25;" x1="399.5" x2="459.5" y1="496" y2="496"/><line style="stroke:#181818;stroke-width:0.25;" x1="399.5" x2="459.5" y1="500" y2="500"/></g><!--link ReviewVisitRequestUI to ReviewVisitRequestController--><g id="link_ReviewVisitRequestUI_ReviewVisitRequestController"><path codeLine="138" d="M221.08,43.5 C226.08,43.5 231.08,43.5 236.08,43.5 " fill="none" id="ReviewVisitRequestUI-to-ReviewVisitRequestController" style="stroke:#181818;stroke-width:0.5;stroke-dasharray:7.0,7.0;"/><polygon fill="#181818" points="238.695,43.5,234.195,41.5,236.195,43.5,234.195,45.5,238.695,43.5" style="stroke:#181818;stroke-width:0.5;"/></g><!--link ReviewVisitRequestController to Repositories--><g id="link_ReviewVisitRequestController_Repositories"><path codeLine="139" d="M454.3,83.505 C471.05,97.5 489.52,112.925 504.79,125.68 " fill="none" id="ReviewVisitRequestController-to-Repositories" style="stroke:#181818;stroke-width:0.5;stroke-dasharray:7.0,7.0;"/><polygon fill="#181818" points="506.825,127.38,504.6564,122.9588,504.9074,125.776,502.0901,126.027,506.825,127.38" style="stroke:#181818;stroke-width:0.5;"/><text fill="#000000" font-family="sans-serif" font-size="6.5" lengthAdjust="spacing" textLength="33.5" x="480.5" y="106.0142">repositories</text></g><!--link Repositories to VisitRequestRepositories--><g id="link_Repositories_VisitRequestRepositories"><path codeLine="140" d="M498.7,179.57 C482.735,190.09 464.23,202.285 448.045,212.955 " fill="none" id="Repositories-to-VisitRequestRepositories" style="stroke:#181818;stroke-width:0.5;"/><polygon fill="#181818" points="445.875,214.38,450.7338,213.5788,447.9639,213.0065,448.5362,210.2366,445.875,214.38" style="stroke:#181818;stroke-width:0.5;"/><text fill="#000000" font-family="sans-serif" font-size="6.5" lengthAdjust="spacing" textLength="3.5" x="447.3637" y="208.8276">1</text></g><!--link Repositories to ClientRepository--><g id="link_Repositories_ClientRepository"><path codeLine="141" d="M554.895,179.57 C564.095,193.095 575.18,209.395 583.52,221.655 " fill="none" id="Repositories-to-ClientRepository" style="stroke:#181818;stroke-width:0.5;"/><polygon fill="#181818" points="584.94,223.74,584.058,218.8952,583.5319,221.6743,580.7528,221.1482,584.94,223.74" style="stroke:#181818;stroke-width:0.5;"/><text fill="#000000" font-family="sans-serif" font-size="6.5" lengthAdjust="spacing" textLength="3.5" x="578.918" y="218.1508">1</text></g><!--link Repositories to StoreRepository--><g id="link_Repositories_StoreRepository"><path codeLine="142" d="M588.34,162.765 C618.195,170.805 653.575,186.01 672,214.5 C688.925,240.675 672.78,277.35 659.88,299.215 " fill="none" id="Repositories-to-StoreRepository" style="stroke:#181818;stroke-width:0.5;"/><polygon fill="#181818" points="658.565,301.41,662.5841,298.5645,659.8428,299.2612,659.1461,296.52,658.565,301.41" style="stroke:#181818;stroke-width:0.5;"/><text fill="#000000" font-family="sans-serif" font-size="6.5" lengthAdjust="spacing" textLength="3.5" x="656.8989" y="295.805">1</text></g><!--link ReviewVisitRequestController to VisitRequestRepositories--><g id="link_ReviewVisitRequestController_VisitRequestRepositories"><path codeLine="143" d="M407,83.665 C407,121.71 407,178.205 407,211.84 " fill="none" id="ReviewVisitRequestController-to-VisitRequestRepositories" style="stroke:#181818;stroke-width:0.5;stroke-dasharray:7.0,7.0;"/><polygon fill="#181818" points="407,214.425,409,209.925,407,211.925,405,209.925,407,214.425" style="stroke:#181818;stroke-width:0.5;"/><text fill="#000000" font-family="sans-serif" font-size="6.5" lengthAdjust="spacing" textLength="33.5" x="407.5" y="156.2642">repositories</text></g><!--link ReviewVisitRequestController to AplicationSession--><g id="link_ReviewVisitRequestController_AplicationSession"><path codeLine="144" d="M364.05,83.505 C344.97,101.055 323.445,120.855 308.265,134.82 " fill="none" id="ReviewVisitRequestController-to-AplicationSession" style="stroke:#181818;stroke-width:0.5;stroke-dasharray:7.0,7.0;"/><polygon fill="#181818" points="306.26,136.665,310.9303,135.1035,308.1047,134.9776,308.2305,132.152,306.26,136.665" style="stroke:#181818;stroke-width:0.5;"/></g><!--link AplicationSession to AplicationSession--><g id="link_AplicationSession_AplicationSession"><path codeLine="145" d="M327.105,145.155 C337.03,145.685 344.5,148.47 344.5,153.5 C344.5,158.1 338.26,160.82 329.605,161.655 " fill="none" id="AplicationSession-to-AplicationSession" style="stroke:#181818;stroke-width:0.5;"/><polygon fill="#181818" points="327.105,161.845,331.7411,163.5052,329.5981,161.6593,331.444,159.5162,327.105,161.845" style="stroke:#181818;stroke-width:0.5;"/><text fill="#000000" font-family="sans-serif" font-size="6.5" lengthAdjust="spacing" textLength="24.5" x="347.5" y="156.2642">instance</text></g><!--link AplicationSession to UserSession--><g id="link_AplicationSession_UserSession"><path codeLine="146" d="M282.5,170.38 C277.18,184.905 269.415,206.11 263.85,221.3 " fill="none" id="AplicationSession-to-UserSession" style="stroke:#181818;stroke-width:0.5;"/><polygon fill="#181818" points="262.975,223.685,266.3959,220.1428,263.8316,221.3364,262.6381,218.7721,262.975,223.685" style="stroke:#181818;stroke-width:0.5;"/><text fill="#000000" font-family="sans-serif" font-size="6.5" lengthAdjust="spacing" textLength="3.5" x="260.3068" y="218.085">1</text></g><!--link Repositories to Repositories--><g id="link_Repositories_Repositories"><path codeLine="147" d="M588.395,145.41 C598.525,146.32 605.75,149.02 605.75,153.5 C605.75,157.595 599.715,160.2 590.94,161.315 " fill="none" id="Repositories-to-Repositories" style="stroke:#181818;stroke-width:0.5;"/><polygon fill="#181818" points="588.395,161.59,593.0812,163.103,590.881,161.3257,592.6583,159.1254,588.395,161.59" style="stroke:#181818;stroke-width:0.5;"/><text fill="#000000" font-family="sans-serif" font-size="6.5" lengthAdjust="spacing" textLength="24.5" x="608.75" y="156.2642">instance</text></g><!--link VisitRequest to Client--><g id="link_VisitRequest_Client"><path codeLine="148" d="M178.725,184.1 C184.97,209.235 197.335,244.405 220.5,266.5 C246.515,291.31 285.535,304.295 315.7,310.98 " fill="none" id="VisitRequest-to-Client" style="stroke:#181818;stroke-width:0.5;"/><polygon fill="#181818" points="318.22,311.525,314.2447,308.6186,315.7765,310.9963,313.3988,312.5281,318.22,311.525" style="stroke:#181818;stroke-width:0.5;"/><text fill="#000000" font-family="sans-serif" font-size="6.5" lengthAdjust="spacing" textLength="3.5" x="310.7071" y="309.0428">1</text></g><!--reverse link VisitRequest to VisitRequestRepositories--><g id="link_VisitRequest_VisitRequestRepositories"><path codeLine="150" d="M223.79,176.825 C229.73,179.32 235.73,181.765 241.5,184 C269.08,194.68 299.655,205.35 326.95,214.465 " fill="none" id="VisitRequest-backto-VisitRequestRepositories" style="stroke:#181818;stroke-width:0.5;"/><polygon fill="#181818" points="221.43,175.83,224.7973,179.4233,223.733,176.8027,226.3536,175.7385,221.43,175.83" style="stroke:#181818;stroke-width:0.5;"/><text fill="#000000" font-family="sans-serif" font-size="6.5" lengthAdjust="spacing" textLength="10" x="225.1868" y="175.612">0..*</text></g><!--link Client to Notification--><g id="link_Client_Notification"><path codeLine="151" d="M350.895,335.19 C343.46,348.615 332.955,367.58 325.23,381.53 " fill="none" id="Client-to-Notification" style="stroke:#181818;stroke-width:0.5;"/><polygon fill="#181818" points="324.015,383.72,327.9446,380.7521,325.2261,381.5329,324.4453,378.8144,324.015,383.72" style="stroke:#181818;stroke-width:0.5;"/><text fill="#000000" font-family="sans-serif" font-size="6.5" lengthAdjust="spacing" textLength="3.5" x="321.9453" y="378.1269">1</text></g><!--link Notification to Message--><g id="link_Notification_Message"><path codeLine="152" d="M313.64,417.39 C312.58,430.195 311.08,448.3 309.83,463.41 " fill="none" id="Notification-to-Message" style="stroke:#181818;stroke-width:0.5;"/><polygon fill="#181818" points="309.615,466,311.9818,461.6816,309.8226,463.5086,307.9956,461.3495,309.615,466" style="stroke:#181818;stroke-width:0.5;"/><text fill="#000000" font-family="sans-serif" font-size="6.5" lengthAdjust="spacing" textLength="10" x="299.2093" y="460.2753">0..*</text></g><!--link VisitRequest to Message--><g id="link_VisitRequest_Message"><path codeLine="153" d="M169.875,184.015 C168.42,200.515 167,221.365 167,240 C167,240 167,240 167,401 C167,424.895 225.17,455.51 266.65,474.3 " fill="none" id="VisitRequest-to-Message" style="stroke:#181818;stroke-width:0.5;"/><polygon fill="#181818" points="269.11,475.41,265.8314,471.7357,266.8314,474.3814,264.1857,475.3814,269.11,475.41" style="stroke:#181818;stroke-width:0.5;"/><text fill="#000000" font-family="sans-serif" font-size="6.5" lengthAdjust="spacing" textLength="3.5" x="261.7842" y="471.948">1</text></g><!--link VisitRequest to PropertySale--><g id="link_VisitRequest_PropertySale"><path codeLine="154" d="M147.645,184.08 C138.495,194.93 128.325,206.995 119.78,217.13 " fill="none" id="VisitRequest-to-PropertySale" style="stroke:#181818;stroke-width:0.5;"/><polygon fill="#181818" points="118.09,219.13,122.5199,216.9792,119.7017,217.2188,119.462,214.4006,118.09,219.13" style="stroke:#181818;stroke-width:0.5;"/><text fill="#000000" font-family="sans-serif" font-size="6.5" lengthAdjust="spacing" textLength="3.5" x="117.1145" y="213.5629">1</text></g><!--reverse link Property to ResidentialProperty--><g id="link_Property_ResidentialProperty"><path codeLine="157" d="M120.325,438.75 C126.8,446.31 133.52,454.16 139.74,461.415 " fill="none" id="Property-backto-ResidentialProperty" style="stroke:#181818;stroke-width:0.5;"/><polygon fill="none" points="117.545,440.88,113.7,431.01,122.86,436.33,117.545,440.88" style="stroke:#181818;stroke-width:0.5;"/></g><!--reverse link Property to Land--><g id="link_Property_Land"><path codeLine="158" d="M88,441.12 C88,455.28 88,470.115 88,479.99 " fill="none" id="Property-backto-Land" style="stroke:#181818;stroke-width:0.5;"/><polygon fill="none" points="84.5,441.01,88,431.01,91.5,441.01,84.5,441.01" style="stroke:#181818;stroke-width:0.5;"/></g><!--reverse link ResidentialProperty to Apartment--><g id="link_ResidentialProperty_Apartment"><path codeLine="159" d="M188.235,531.22 C200.42,551.97 214.56,576.06 222.725,589.965 " fill="none" id="ResidentialProperty-backto-Apartment" style="stroke:#181818;stroke-width:0.5;"/><polygon fill="none" points="185.205,532.97,183.16,522.575,191.24,529.425,185.205,532.97" style="stroke:#181818;stroke-width:0.5;"/></g><!--reverse link ResidentialProperty to House--><g id="link_ResidentialProperty_House"><path codeLine="160" d="M155.995,532.355 C152.52,546.915 148.69,562.98 145.595,575.955 " fill="none" id="ResidentialProperty-backto-House" style="stroke:#181818;stroke-width:0.5;"/><polygon fill="none" points="152.6,531.49,158.325,522.575,159.41,533.11,152.6,531.49" style="stroke:#181818;stroke-width:0.5;"/></g><!--link Property to State--><g id="link_Property_State"><path codeLine="162" d="M68.435,431.01 C59.405,444.865 48.965,460.875 41.1,472.94 " fill="none" id="Property-to-State" style="stroke:#181818;stroke-width:0.5;"/><polygon fill="#181818" points="39.66,475.15,43.7929,472.4724,41.0252,473.0557,40.442,470.2881,39.66,475.15" style="stroke:#181818;stroke-width:0.5;"/><text fill="#000000" font-family="sans-serif" font-size="6.5" lengthAdjust="spacing" textLength="3.5" x="37.8585" y="469.6739">1</text></g><!--link State to District--><g id="link_State_District"><path codeLine="163" d="M29,508.82 C29,530.13 29,567.105 29,587.31 " fill="none" id="State-to-District" style="stroke:#181818;stroke-width:0.5;"/><polygon fill="#181818" points="29,589.925,31,585.425,29,587.425,27,585.425,29,589.925" style="stroke:#181818;stroke-width:0.5;"/><text fill="#000000" font-family="sans-serif" font-size="6.5" lengthAdjust="spacing" textLength="10" x="17.7188" y="584.2745">1..*</text></g><!--link District to City--><g id="link_District_City"><path codeLine="164" d="M29,614.005 C29,628.645 29,653.935 29,669.775 " fill="none" id="District-to-City" style="stroke:#181818;stroke-width:0.5;"/><polygon fill="#181818" points="29,672.425,31,667.925,29,669.925,27,667.925,29,672.425" style="stroke:#181818;stroke-width:0.5;"/><text fill="#000000" font-family="sans-serif" font-size="6.5" lengthAdjust="spacing" textLength="10" x="17.7188" y="666.7745">1..*</text></g><!--link PropertySale to PropertySaleRequest--><g id="link_PropertySale_PropertySaleRequest"><path codeLine="166" d="M99.28,261.77 C98.83,269.49 98.305,278.425 97.81,286.86 " fill="none" id="PropertySale-to-PropertySaleRequest" style="stroke:#181818;stroke-width:0.5;"/><polygon fill="none" points="101.3,287.185,97.22,296.965,94.31,286.775,101.3,287.185" style="stroke:#181818;stroke-width:0.5;"/></g><!--link PropertySaleRequest to Property--><g id="link_PropertySaleRequest_Property"><path codeLine="168" d="M93.94,339.675 C93.11,348.1 92.135,358.015 91.215,367.345 " fill="none" id="PropertySaleRequest-to-Property" style="stroke:#181818;stroke-width:0.5;"/><polygon fill="#181818" points="90.96,369.96,93.3869,365.6751,91.2024,367.4718,89.4058,365.2873,90.96,369.96" style="stroke:#181818;stroke-width:0.5;"/><text fill="#000000" font-family="sans-serif" font-size="6.5" lengthAdjust="spacing" textLength="3.5" x="87.5999" y="364.446">1</text></g><!--link Message to User--><g id="link_Message_User"><path codeLine="170" d="M321.455,518.055 C326.975,527.445 333.63,537.98 340.5,547 C343.785,551.315 347.37,555.675 351.06,559.94 " fill="none" id="Message-to-User" style="stroke:#181818;stroke-width:0.5;"/><polygon fill="#181818" points="352.885,562.03,351.437,557.3233,351.2428,560.145,348.421,559.9508,352.885,562.03" style="stroke:#181818;stroke-width:0.5;"/><text fill="#000000" font-family="sans-serif" font-size="6.5" lengthAdjust="spacing" textLength="18" x="341" y="545.0142">author</text><text fill="#000000" font-family="sans-serif" font-size="6.5" lengthAdjust="spacing" textLength="3.5" x="345.4901" y="556.3429">1</text></g><!--link ClientRepository to Client--><g id="link_ClientRepository_Client"><path codeLine="172" d="M548.11,257.31 C538.955,260.39 529.44,263.565 520.5,266.5 C481.295,279.38 436.56,293.625 404.295,303.825 " fill="none" id="ClientRepository-to-Client" style="stroke:#181818;stroke-width:0.5;"/><polygon fill="#181818" points="401.8,304.615,406.6927,305.1734,404.1849,303.8652,405.4931,301.3575,401.8,304.615" style="stroke:#181818;stroke-width:0.5;"/><text fill="#000000" font-family="sans-serif" font-size="6.5" lengthAdjust="spacing" textLength="10" x="405.8219" y="301.6066">0..*</text></g><!--link Client to User--><g id="link_Client_User"><path codeLine="173" d="M361.86,335.175 C366.555,376.68 379.05,487.085 386.395,551.975 " fill="none" id="Client-to-User" style="stroke:#181818;stroke-width:0.5;"/><polygon fill="none" points="389.88,551.65,387.525,561.98,382.925,552.435,389.88,551.65" style="stroke:#181818;stroke-width:0.5;"/></g><!--link StoreRepository to Store--><g id="link_StoreRepository_Store"><path codeLine="176" d="M616.825,335.095 C586.005,351.515 539.505,376.29 513.78,389.995 " fill="none" id="StoreRepository-to-Store" style="stroke:#181818;stroke-width:0.5;"/><polygon fill="#181818" points="511.51,391.205,516.4225,390.862,513.7183,390.033,514.5472,387.3288,511.51,391.205" style="stroke:#181818;stroke-width:0.5;"/><text fill="#000000" font-family="sans-serif" font-size="6.5" lengthAdjust="spacing" textLength="10" x="515.4759" y="387.2352">0..*</text></g><!--link StoreRepository to NetworkManager--><g id="link_StoreRepository_NetworkManager"><path codeLine="177" d="M647.5,335.19 C647.5,350.035 647.5,371.645 647.5,385.765 " fill="none" id="StoreRepository-to-NetworkManager" style="stroke:#181818;stroke-width:0.5;"/><polygon fill="#181818" points="647.5,388.31,649.5,383.81,647.5,385.81,645.5,383.81,647.5,388.31" style="stroke:#181818;stroke-width:0.5;"/><text fill="#000000" font-family="sans-serif" font-size="6.5" lengthAdjust="spacing" textLength="3.5" x="643.5734" y="382.8346">1</text></g><!--link Store to StoreManager--><g id="link_Store_StoreManager"><path codeLine="179" d="M486.57,412.645 C474.485,429.345 452.275,460.03 439.415,477.8 " fill="none" id="Store-to-StoreManager" style="stroke:#181818;stroke-width:0.5;"/><polygon fill="#181818" points="437.895,479.9,442.1546,477.429,439.3616,477.8754,438.9152,475.0824,437.895,479.9" style="stroke:#181818;stroke-width:0.5;"/><text fill="#000000" font-family="sans-serif" font-size="6.5" lengthAdjust="spacing" textLength="3.5" x="436.0147" y="474.4466">1</text></g><!--link Store to Agent--><g id="link_Store_Agent"><path codeLine="180" d="M495,412.645 C495,429.21 495,459.53 495,477.36 " fill="none" id="Store-to-Agent" style="stroke:#181818;stroke-width:0.5;"/><polygon fill="#181818" points="495,479.9,497,475.4,495,477.4,493,475.4,495,479.9" style="stroke:#181818;stroke-width:0.5;"/><text fill="#000000" font-family="sans-serif" font-size="6.5" lengthAdjust="spacing" textLength="10" x="483.7813" y="474.4466">0..*</text></g><!--link StoreManager to User--><g id="link_StoreManager_User"><path codeLine="181" d="M425.485,504.165 C421.485,515.805 415.055,534.48 408.9,552.38 " fill="none" id="StoreManager-to-User" style="stroke:#181818;stroke-width:0.5;"/><polygon fill="none" points="412.185,553.59,405.62,561.91,405.565,551.315,412.185,553.59" style="stroke:#181818;stroke-width:0.5;"/></g><!--link Agent to User--><g id="link_Agent_User"><path codeLine="182" d="M485.28,504.035 C480.46,509.67 474.505,516.515 469,522.5 C459.155,533.21 448.37,544.525 438.075,555.135 " fill="none" id="Agent-to-User" style="stroke:#181818;stroke-width:0.5;"/><polygon fill="none" points="440.525,557.635,431.04,562.355,435.51,552.75,440.525,557.635" style="stroke:#181818;stroke-width:0.5;"/></g><!--SRC=[dLPRRzGw47xthx3wmlP0jl2AZYgLtI8gbL9r2w_8JQQx5ebjRATqoU6_dx6TYvraM-1b6yzyytdkxekTjSgyFJbH9HEshifbBgkJl6J6P0LdMyqgGeW_qnjuuF3Z2pVSti3t6enTIM6rB4lGj24ljs1ZvIKtzhsMrTaMX5qSUxt_Ti8D6CEbS683eZYl62y_eenjuLQkIkvC7YAozUsdPUx5hsWLS2X2QrOKPtaEoaBHGitYIsf8HqJ1QWt89w28mRzXwRoz0QEaC8EduOypoBklLpJcwYp6d97ycFmwdEZF5qsiLX9LKdCmRTw30xrYtwOxTM6atE0t9D9VxGLdgkGvirYVjamD2RVKMkCrG-qwWyy6T0zrI2UuM2-Yc6PTmG2Uwnl_wzB6se-qvdzOlR-kUn_7EDFelv2Mt-_RLWWDiCIO5iTfg_OKeyGtwMJuKLXqqIx17IDZZsl6_ZJpYKPgoeMbl20PlTPIWRRx3Ik1gkY0kakPitBDBDpo2aBq6ykqdLUTYsBgG4QlN1xQng4YEWpW6E9CWdDVSraB2th0jQk03fY99mL-e71ZDHVRBj43W-l0Xj0U85W5xkZO50AKrFQghkxmrW6aTbB0H6hPuqI6ZQJnoaZY2pNS7sUxhqQutkuLVBf_LnjiGwJ8w7qfcQKweA2urZo7UIQQSgnanVtKzIIulJiH4h0xOpNBKPmmUPQ0PnhOa4L40zZX_9EhbIoWHnSucapauFfqnUr-1MdPBfaea3ng3WGrSUTZqHgI5gNNhf4TGxU1OEGxRafUu7MSbKaOmbS6qmc5bh8oiOZPNIHpeckcl-756yLoS6BsW4LZToMSVw-vgf0_cZI50-14r4VGIZ_8seGom6ER3NUJ0M-SI2_4Zjrnw-WlvRrJcbgSF-BSrnf6wo39sXNO7r9_-yW4jhGEjnCozohGvUcJpp9vyirUUkleCNcBJJWSIQAZMNPAZzuS7TpaARn3Z_VbF6gq4fzt-v0Jqn2U8PgyTMGYeTaC32_Y8bHwpgADAteOfu6F_ExfOcz7UIIfykZrSldFqRzPThWemQwdYHSmIHQsHtY-RllEE_AaCjvLlcMdGvjbjVhlj4SIlpF6mc7sMiqC4mcZ-0I0T5z3cxb7m_-sBljukyL3kezOwLROmEINS9P5laOBFeKToWqXtUiMTmas0AljJcf2nYCJbwPjWxwgw8YpnboFHYWsygfvW6k9PDkqHEbaThf85PZzVoCanaG-UMNiu_y0]--></g></svg>