<?xml version="1.0" encoding="us-ascii" standalone="no"?><svg xmlns="http://www.w3.org/2000/svg" xmlns:xlink="http://www.w3.org/1999/xlink" contentStyleType="text/css" height="564px" preserveAspectRatio="none" style="width:1067px;height:564px;background:#FFFFFF;" version="1.1" viewBox="0 0 1067 564" width="1067px" zoomAndPan="magnify"><defs/><g><!--class Store--><g id="elem_Store"><rect codeLine="18" fill="#F1F1F1" height="205.6875" id="Store" rx="2.5" ry="2.5" style="stroke:#181818;stroke-width:0.5;" width="124" x="7" y="7"/><text fill="#000000" font-family="sans-serif" font-size="14" lengthAdjust="spacing" textLength="34" x="52" y="24.6738">Store</text><line style="stroke:#181818;stroke-width:0.5;" x1="8" x2="130" y1="32.6406" y2="32.6406"/><text fill="#000000" font-family="sans-serif" font-size="14" lengthAdjust="spacing" textLength="88" x="13" y="49.3145">storeManager</text><text fill="#000000" font-family="sans-serif" font-size="14" lengthAdjust="spacing" textLength="11" x="13" y="64.9551">id</text><text fill="#000000" font-family="sans-serif" font-size="14" lengthAdjust="spacing" textLength="43" x="13" y="80.5957">agents</text><text fill="#000000" font-family="sans-serif" font-size="14" lengthAdjust="spacing" textLength="35" x="13" y="96.2363">name</text><text fill="#000000" font-family="sans-serif" font-size="14" lengthAdjust="spacing" textLength="33" x="13" y="111.877">email</text><text fill="#000000" font-family="sans-serif" font-size="14" lengthAdjust="spacing" textLength="112" x="13" y="127.5176">telephoneNumber</text><text fill="#000000" font-family="sans-serif" font-size="14" lengthAdjust="spacing" textLength="51" x="13" y="143.1582">address</text><text fill="#000000" font-family="sans-serif" font-size="14" lengthAdjust="spacing" textLength="51" x="13" y="158.7988">zipCode</text><text fill="#000000" font-family="sans-serif" font-size="14" lengthAdjust="spacing" textLength="31" x="13" y="174.4395">state</text><text fill="#000000" font-family="sans-serif" font-size="14" lengthAdjust="spacing" textLength="41" x="13" y="190.0801">district</text><text fill="#000000" font-family="sans-serif" font-size="14" lengthAdjust="spacing" textLength="21" x="13" y="205.7207">city</text></g><!--class Property--><g id="elem_Property"><rect codeLine="32" fill="#F1F1F1" height="96.2031" id="Property" rx="2.5" ry="2.5" style="stroke:#181818;stroke-width:0.5;" width="132" x="406" y="289"/><text fill="#000000" font-family="sans-serif" font-size="14" lengthAdjust="spacing" textLength="54" x="445" y="306.6738">Property</text><line style="stroke:#181818;stroke-width:0.5;" x1="407" x2="537" y1="314.6406" y2="314.6406"/><text fill="#000000" font-family="sans-serif" font-size="14" lengthAdjust="spacing" textLength="29" x="412" y="331.3145">area</text><text fill="#000000" font-family="sans-serif" font-size="14" lengthAdjust="spacing" textLength="120" x="412" y="346.9551">distanceCityCenter</text><text fill="#000000" font-family="sans-serif" font-size="14" lengthAdjust="spacing" textLength="99" x="412" y="362.5957">typeOfBusiness</text><text fill="#000000" font-family="sans-serif" font-size="14" lengthAdjust="spacing" textLength="31" x="412" y="378.2363">price</text></g><!--class House--><g id="elem_House"><rect codeLine="40" fill="#F1F1F1" height="80.5625" id="House" rx="2.5" ry="2.5" style="stroke:#181818;stroke-width:0.5;" width="104" x="956" y="296.5"/><text fill="#000000" font-family="sans-serif" font-size="14" lengthAdjust="spacing" textLength="40" x="988" y="314.1738">House</text><line style="stroke:#181818;stroke-width:0.5;" x1="957" x2="1059" y1="322.1406" y2="322.1406"/><text fill="#000000" font-family="sans-serif" font-size="14" lengthAdjust="spacing" textLength="62" x="962" y="338.8145">basement</text><text fill="#000000" font-family="sans-serif" font-size="14" lengthAdjust="spacing" textLength="82" x="962" y="354.4551">sunExposure</text><text fill="#000000" font-family="sans-serif" font-size="14" lengthAdjust="spacing" textLength="92" x="962" y="370.0957">inhabitable loft</text></g><!--class PropertySale--><g id="elem_PropertySale"><rect codeLine="46" fill="#F1F1F1" height="33.6406" id="PropertySale" rx="2.5" ry="2.5" style="stroke:#181818;stroke-width:0.5;" width="88" x="299" y="93"/><text fill="#000000" font-family="sans-serif" font-size="14" lengthAdjust="spacing" textLength="82" x="302" y="110.6738">PropertySale</text><line style="stroke:#181818;stroke-width:0.5;" x1="300" x2="386" y1="118.6406" y2="118.6406"/></g><!--class ResidentialProperty--><g id="elem_ResidentialProperty"><rect codeLine="50" fill="#F1F1F1" height="111.8438" id="ResidentialProperty" rx="2.5" ry="2.5" style="stroke:#181818;stroke-width:0.5;" width="155" x="662.5" y="446"/><text fill="#000000" font-family="sans-serif" font-size="14" lengthAdjust="spacing" textLength="124" x="678" y="463.6738">ResidentialProperty</text><line style="stroke:#181818;stroke-width:0.5;" x1="663.5" x2="816.5" y1="471.6406" y2="471.6406"/><text fill="#000000" font-family="sans-serif" font-size="14" lengthAdjust="spacing" textLength="107" x="668.5" y="488.3145">numberOfRooms</text><text fill="#000000" font-family="sans-serif" font-size="14" lengthAdjust="spacing" textLength="131" x="668.5" y="503.9551">numberOfBathrooms</text><text fill="#000000" font-family="sans-serif" font-size="14" lengthAdjust="spacing" textLength="143" x="668.5" y="519.5957">numberParkingSpaces</text><text fill="#000000" font-family="sans-serif" font-size="14" lengthAdjust="spacing" textLength="91" x="668.5" y="535.2363">centralHeating</text><text fill="#000000" font-family="sans-serif" font-size="14" lengthAdjust="spacing" textLength="95" x="668.5" y="550.877">airConditioning</text></g><!--class Manager--><g id="elem_Manager"><rect codeLine="59" fill="#F1F1F1" height="96.2031" id="Manager" rx="2.5" ry="2.5" style="stroke:#181818;stroke-width:0.5;" width="62" x="202" y="62"/><text fill="#000000" font-family="sans-serif" font-size="14" lengthAdjust="spacing" textLength="56" x="205" y="79.6738">Manager</text><line style="stroke:#181818;stroke-width:0.5;" x1="203" x2="263" y1="87.6406" y2="87.6406"/><text fill="#000000" font-family="sans-serif" font-size="14" lengthAdjust="spacing" textLength="35" x="208" y="104.3145">name</text><text fill="#000000" font-family="sans-serif" font-size="14" lengthAdjust="spacing" textLength="33" x="208" y="119.9551">email</text><text fill="#000000" font-family="sans-serif" font-size="14" lengthAdjust="spacing" textLength="49" x="208" y="135.5957">position</text><text fill="#000000" font-family="sans-serif" font-size="14" lengthAdjust="spacing" textLength="40" x="208" y="151.2363">phone</text></g><!--class PropertySold--><g id="elem_PropertySold"><rect codeLine="66" fill="#F1F1F1" height="80.5625" id="PropertySold" rx="2.5" ry="2.5" style="stroke:#181818;stroke-width:0.5;" width="101" x="237.5" y="296.5"/><text fill="#000000" font-family="sans-serif" font-size="14" lengthAdjust="spacing" textLength="82" x="247" y="314.1738">PropertySold</text><line style="stroke:#181818;stroke-width:0.5;" x1="238.5" x2="337.5" y1="322.1406" y2="322.1406"/><text fill="#000000" font-family="sans-serif" font-size="14" lengthAdjust="spacing" textLength="75" x="243.5" y="338.8145">paidAmount</text><text fill="#000000" font-family="sans-serif" font-size="14" lengthAdjust="spacing" textLength="36" x="243.5" y="354.4551">buyer</text><text fill="#000000" font-family="sans-serif" font-size="14" lengthAdjust="spacing" textLength="89" x="243.5" y="370.0957">purchaseData</text></g><!--class State--><g id="elem_State"><rect codeLine="72" fill="#F1F1F1" height="49.2813" id="State" rx="2.5" ry="2.5" style="stroke:#181818;stroke-width:0.5;" width="80" x="734" y="312.5"/><text fill="#000000" font-family="sans-serif" font-size="14" lengthAdjust="spacing" textLength="33" x="757.5" y="330.1738">State</text><line style="stroke:#181818;stroke-width:0.5;" x1="735" x2="813" y1="338.1406" y2="338.1406"/><text fill="#000000" font-family="sans-serif" font-size="14" lengthAdjust="spacing" textLength="68" x="740" y="354.8145">nameState</text></g><!--class District--><g id="elem_District"><rect codeLine="76" fill="#F1F1F1" height="49.2813" id="District" rx="2.5" ry="2.5" style="stroke:#181818;stroke-width:0.5;" width="90" x="609" y="312.5"/><text fill="#000000" font-family="sans-serif" font-size="14" lengthAdjust="spacing" textLength="43" x="632.5" y="330.1738">District</text><line style="stroke:#181818;stroke-width:0.5;" x1="610" x2="698" y1="338.1406" y2="338.1406"/><text fill="#000000" font-family="sans-serif" font-size="14" lengthAdjust="spacing" textLength="78" x="615" y="354.8145">nameDistrict</text></g><!--class City--><g id="elem_City"><rect codeLine="80" fill="#F1F1F1" height="49.2813" id="City" rx="2.5" ry="2.5" style="stroke:#181818;stroke-width:0.5;" width="71" x="849.5" y="312.5"/><text fill="#000000" font-family="sans-serif" font-size="14" lengthAdjust="spacing" textLength="24" x="873" y="330.1738">City</text><line style="stroke:#181818;stroke-width:0.5;" x1="850.5" x2="919.5" y1="338.1406" y2="338.1406"/><text fill="#000000" font-family="sans-serif" font-size="14" lengthAdjust="spacing" textLength="59" x="855.5" y="354.8145">nameCity</text></g><!--link PropertySold to Property--><g id="link_PropertySold_Property"><path codeLine="85" d="M338.77,337 C359.51,337 383.78,337 405.88,337 " fill="none" id="PropertySold-Property" style="stroke:#181818;stroke-width:1.0;"/><polygon fill="#000000" points="365.75,326.2617,356.7049,323.3228,356.7049,329.2006,365.75,326.2617" style="stroke:#000000;stroke-width:1.0;"/><text fill="#000000" font-family="sans-serif" font-size="13" lengthAdjust="spacing" textLength="18" x="369.75" y="330.7686">the</text></g><!--link Property to City--><g id="link_Property_City"><path codeLine="86" d="M516.61,288.94 C531.56,276.04 549.23,263.79 568,257 C600.29,245.31 718.63,237.01 831,289 C842.95,294.53 854.19,303.6 863.28,312.37 " fill="none" id="Property-City" style="stroke:#181818;stroke-width:1.0;"/><polygon fill="#000000" points="577.9886,251.5989,569.1623,248.0567,568.7659,253.9212,577.9886,251.5989" style="stroke:#000000;stroke-width:1.0;"/><text fill="#000000" font-family="sans-serif" font-size="13" lengthAdjust="spacing" textLength="21" x="582" y="255.7686">has</text><text fill="#000000" font-family="sans-serif" font-size="13" lengthAdjust="spacing" textLength="7" x="515.905" y="278.302">1</text><text fill="#000000" font-family="sans-serif" font-size="13" lengthAdjust="spacing" textLength="7" x="849.5021" y="301.6705">1</text></g><!--link Property to State--><g id="link_Property_State"><path codeLine="87" d="M535.77,288.97 C583.09,259.54 648.71,231.91 704,257 C728.87,268.29 748.38,293.26 760.42,312.32 " fill="none" id="Property-State" style="stroke:#181818;stroke-width:1.0;"/><polygon fill="#000000" points="677.9732,251.7786,669.2804,247.9203,668.6728,253.7667,677.9732,251.7786" style="stroke:#000000;stroke-width:1.0;"/><text fill="#000000" font-family="sans-serif" font-size="13" lengthAdjust="spacing" textLength="21" x="682" y="255.7686">has</text><text fill="#000000" font-family="sans-serif" font-size="13" lengthAdjust="spacing" textLength="7" x="537.9988" y="278.3366">1</text><text fill="#000000" font-family="sans-serif" font-size="13" lengthAdjust="spacing" textLength="7" x="748.8298" y="301.6071">1</text></g><!--link Property to District--><g id="link_Property_District"><path codeLine="88" d="M538.22,337 C561.7,337 587.56,337 608.87,337 " fill="none" id="Property-District" style="stroke:#181818;stroke-width:1.0;"/><polygon fill="#000000" points="565.5,326.2617,556.4549,323.3228,556.4549,329.2006,565.5,326.2617" style="stroke:#000000;stroke-width:1.0;"/><text fill="#000000" font-family="sans-serif" font-size="13" lengthAdjust="spacing" textLength="21" x="569.5" y="330.7686">has</text><text fill="#000000" font-family="sans-serif" font-size="13" lengthAdjust="spacing" textLength="7" x="545.8456" y="334.0204">1</text><text fill="#000000" font-family="sans-serif" font-size="13" lengthAdjust="spacing" textLength="7" x="594.1196" y="333.6722">1</text></g><!--link Store to Manager--><g id="link_Store_Manager"><path codeLine="89" d="M131,110 C155.13,110 181.72,110 201.7,110 " fill="none" id="Store-Manager" style="stroke:#181818;stroke-width:1.0;"/><polygon fill="#000000" points="158.5,99.2617,149.4549,96.3228,149.4549,102.2006,158.5,99.2617" style="stroke:#000000;stroke-width:1.0;"/><text fill="#000000" font-family="sans-serif" font-size="13" lengthAdjust="spacing" textLength="21" x="162.5" y="103.7686">has</text><text fill="#000000" font-family="sans-serif" font-size="13" lengthAdjust="spacing" textLength="7" x="138.9828" y="106.9664">1</text><text fill="#000000" font-family="sans-serif" font-size="13" lengthAdjust="spacing" textLength="7" x="187.0875" y="106.2723">1</text></g><!--link Manager to PropertySold--><g id="link_Manager_PropertySold"><path codeLine="90" d="M238.99,158.15 C243.28,187.47 249.91,225.78 259,259 C262.35,271.26 266.88,284.31 271.36,296.1 " fill="none" id="Manager-PropertySold" style="stroke:#181818;stroke-width:1.0;"/><polygon fill="#000000" points="265.1422,256.1295,265.9371,246.6522,260.2147,247.995,265.1422,256.1295" style="stroke:#000000;stroke-width:1.0;"/><text fill="#000000" font-family="sans-serif" font-size="13" lengthAdjust="spacing" textLength="43" x="273" y="255.7686">creates</text><text fill="#000000" font-family="sans-serif" font-size="13" lengthAdjust="spacing" textLength="7" x="232.3557" y="178.0422">1</text><text fill="#000000" font-family="sans-serif" font-size="13" lengthAdjust="spacing" textLength="5" x="263.0703" y="285.7183">*</text></g><!--reverse link Property to ResidentialProperty--><g id="link_Property_ResidentialProperty"><path codeLine="91" d="M555.53,388.8 C589.58,409.51 628.71,433.31 662.15,453.65 " fill="none" id="Property-backto-ResidentialProperty" style="stroke:#181818;stroke-width:1.0;"/><polygon fill="none" points="551.7,394.67,538.25,378.29,558.97,382.7,551.7,394.67" style="stroke:#181818;stroke-width:1.0;"/></g><!--link House to ResidentialProperty--><g id="link_House_ResidentialProperty"><path codeLine="92" d="M955.86,373.51 C949.87,377.44 943.83,381.34 938,385 C904.98,405.73 868.26,427.57 835.51,446.63 " fill="none" id="House-to-ResidentialProperty" style="stroke:#181818;stroke-width:1.0;"/><polygon fill="none" points="838.58,452.94,817.76,456.91,831.56,440.83,838.58,452.94" style="stroke:#181818;stroke-width:1.0;"/></g><!--reverse link PropertySale to PropertySold--><g id="link_PropertySale_PropertySold"><path codeLine="93" d="M340.22,147.43 C337.28,177.73 331.56,221.76 321,259 C317.47,271.45 312.41,284.55 307.3,296.35 " fill="none" id="PropertySale-backto-PropertySold" style="stroke:#181818;stroke-width:1.0;"/><polygon fill="none" points="333.26,146.6,341.95,127.27,347.21,147.8,333.26,146.6" style="stroke:#181818;stroke-width:1.0;"/></g><!--SRC=[VLDDRzim3BthLmYz11XGOBiMGu4s6T0TkWRDBw0bEYQgBqWqjZJTVnyjsudR1SqXeSX7FfAFAIyK4cJmsiSGJPUZHysvHrLEaGJc1VQuuuD3dT4mXBrR0ae7DlwciDSjk89AhHosh3dgJFkEjQKXYs9GYoJZe9GxvanDp_ZJnB2ZLzHVbUh8eZQKZP1KsoDtqHQfoyJImoPweA0VeqKdpbf9Rnrm6xFNHxNI-jfYCPbIPLtzLMe4xJXc58IMJndiHmWoMguEilL7te5BDGDuh0OAeQiMeyFKnO2_UjzCYM1jnZAcl59QIryJ0_1eMIeogE7wCCG7TMffcsF2p8UZWeoW1YG4Wsi1hQKHeU13mgVslYyK1fOaXN38dmeynBxWKJLGq4k2AdtuyIV5qcTK53feYA6HhRdOyl-qEt2IVFO_Ov6L1oPmCsJQbwoZZlpKFiVeomVVFR0SpqV_5h88lj_92U4SCL8zWtj0O0bDJg2yZi7IeDVWFOytAJGrSK4H6RMcZOz1cWjJHcV70Wd8tldOXr6BfZzC8gO-cqvsk046jJWOaN31NT_dy6RITO6ONMVG8EK2i9xaLylczFMfLtsZkKDzUuhhgszN4X- -QwaRBNrUZe_jVW8uDJnZnd_46J2lUuxFxueGo9UhTqiLd96pPNp7z_rDe1SkITLRbJfljnV3owCSYoov_W40]--></g></svg>