<?xml version="1.0" encoding="us-ascii" standalone="no"?><svg xmlns="http://www.w3.org/2000/svg" xmlns:xlink="http://www.w3.org/1999/xlink" contentStyleType="text/css" height="848px" preserveAspectRatio="none" style="width:980px;height:848px;background:#FFFFFF;" version="1.1" viewBox="0 0 980 848" width="980px" zoomAndPan="magnify"><defs/><g><text fill="#000000" font-family="sans-serif" font-size="14" font-weight="bold" lengthAdjust="spacing" textLength="228" x="377.75" y="27.6738">System Sequence Diagram (SSD)</text><rect fill="#FFFFFF" height="632.5156" style="stroke:#181818;stroke-width:1.0;" width="10" x="52.5" y="127.2813"/><rect fill="#FFFFFF" height="602.9922" style="stroke:#181818;stroke-width:1.0;" width="10" x="322.5" y="147.8047"/><rect fill="#FFFFFF" height="28.5234" style="stroke:#181818;stroke-width:1.0;" width="10" x="917.5" y="176.3281"/><rect fill="#FFFFFF" height="28.5234" style="stroke:#181818;stroke-width:1.0;" width="10" x="917.5" y="233.375"/><rect fill="#FFFFFF" height="52.0469" style="stroke:#181818;stroke-width:1.0;" width="10" x="917.5" y="290.4219"/><rect fill="#FFFFFF" height="52.0469" style="stroke:#181818;stroke-width:1.0;" width="10" x="917.5" y="370.9922"/><rect fill="#FFFFFF" height="42.5234" style="stroke:#181818;stroke-width:1.0;" width="10" x="917.5" y="451.5625"/><rect fill="#FFFFFF" height="28.5234" style="stroke:#181818;stroke-width:1.0;" width="10" x="917.5" y="522.6094"/><rect fill="#FFFFFF" height="28.5234" style="stroke:#181818;stroke-width:1.0;" width="10" x="917.5" y="579.6563"/><rect fill="#FFFFFF" height="28.5234" style="stroke:#181818;stroke-width:1.0;" width="10" x="917.5" y="636.7031"/><rect fill="#FFFFFF" height="28.5234" style="stroke:#181818;stroke-width:1.0;" width="10" x="917.5" y="693.75"/><rect fill="none" height="161.1406" style="stroke:#000000;stroke-width:1.5;" width="688.5" x="286" y="305.4219"/><rect fill="none" height="73.5703" style="stroke:#000000;stroke-width:1.5;" width="668.5" x="296" y="385.9922"/><line style="stroke:#181818;stroke-width:0.5;stroke-dasharray:5.0,5.0;" x1="57" x2="57" y1="117.2813" y2="768.7969"/><line style="stroke:#181818;stroke-width:0.5;stroke-dasharray:5.0,5.0;" x1="327" x2="327" y1="117.2813" y2="768.7969"/><line style="stroke:#181818;stroke-width:0.5;stroke-dasharray:5.0,5.0;" x1="922.5" x2="922.5" y1="117.2813" y2="768.7969"/><text fill="#000000" font-family="sans-serif" font-size="14" lengthAdjust="spacing" textLength="99" x="5" y="114.3145">Property Owner</text><ellipse cx="57.5" cy="50.1406" fill="#E3E3E3" rx="8" ry="8" style="stroke:#181818;stroke-width:0.5;"/><path d="M57.5,58.1406 L57.5,85.1406 M44.5,66.1406 L70.5,66.1406 M57.5,85.1406 L44.5,100.1406 M57.5,85.1406 L70.5,100.1406 " fill="none" style="stroke:#181818;stroke-width:0.5;"/><text fill="#000000" font-family="sans-serif" font-size="14" lengthAdjust="spacing" textLength="99" x="5" y="780.4707">Property Owner</text><ellipse cx="57.5" cy="791.9375" fill="#E3E3E3" rx="8" ry="8" style="stroke:#181818;stroke-width:0.5;"/><path d="M57.5,799.9375 L57.5,826.9375 M44.5,807.9375 L70.5,807.9375 M57.5,826.9375 L44.5,841.9375 M57.5,826.9375 L70.5,841.9375 " fill="none" style="stroke:#181818;stroke-width:0.5;"/><text fill="#000000" font-family="sans-serif" font-size="14" lengthAdjust="spacing" textLength="37" x="306" y="114.3145">Agent</text><ellipse cx="327.5" cy="50.1406" fill="#E3E3E3" rx="8" ry="8" style="stroke:#181818;stroke-width:0.5;"/><path d="M327.5,58.1406 L327.5,85.1406 M314.5,66.1406 L340.5,66.1406 M327.5,85.1406 L314.5,100.1406 M327.5,85.1406 L340.5,100.1406 " fill="none" style="stroke:#181818;stroke-width:0.5;"/><text fill="#000000" font-family="sans-serif" font-size="14" lengthAdjust="spacing" textLength="37" x="306" y="780.4707">Agent</text><ellipse cx="327.5" cy="791.9375" fill="#E3E3E3" rx="8" ry="8" style="stroke:#181818;stroke-width:0.5;"/><path d="M327.5,799.9375 L327.5,826.9375 M314.5,807.9375 L340.5,807.9375 M327.5,826.9375 L314.5,841.9375 M327.5,826.9375 L340.5,841.9375 " fill="none" style="stroke:#181818;stroke-width:0.5;"/><rect fill="#E3E3E3" height="29.6406" rx="2.5" ry="2.5" style="stroke:#181818;stroke-width:0.5;" width="64" x="890.5" y="86.6406"/><text fill="#000000" font-family="sans-serif" font-size="14" lengthAdjust="spacing" textLength="50" x="897.5" y="106.3145">:System</text><rect fill="#E3E3E3" height="29.6406" rx="2.5" ry="2.5" style="stroke:#181818;stroke-width:0.5;" width="64" x="890.5" y="767.7969"/><text fill="#000000" font-family="sans-serif" font-size="14" lengthAdjust="spacing" textLength="50" x="897.5" y="787.4707">:System</text><rect fill="#FFFFFF" height="632.5156" style="stroke:#181818;stroke-width:1.0;" width="10" x="52.5" y="127.2813"/><rect fill="#FFFFFF" height="602.9922" style="stroke:#181818;stroke-width:1.0;" width="10" x="322.5" y="147.8047"/><rect fill="#FFFFFF" height="28.5234" style="stroke:#181818;stroke-width:1.0;" width="10" x="917.5" y="176.3281"/><rect fill="#FFFFFF" height="28.5234" style="stroke:#181818;stroke-width:1.0;" width="10" x="917.5" y="233.375"/><rect fill="#FFFFFF" height="52.0469" style="stroke:#181818;stroke-width:1.0;" width="10" x="917.5" y="290.4219"/><rect fill="#FFFFFF" height="52.0469" style="stroke:#181818;stroke-width:1.0;" width="10" x="917.5" y="370.9922"/><rect fill="#FFFFFF" height="42.5234" style="stroke:#181818;stroke-width:1.0;" width="10" x="917.5" y="451.5625"/><rect fill="#FFFFFF" height="28.5234" style="stroke:#181818;stroke-width:1.0;" width="10" x="917.5" y="522.6094"/><rect fill="#FFFFFF" height="28.5234" style="stroke:#181818;stroke-width:1.0;" width="10" x="917.5" y="579.6563"/><rect fill="#FFFFFF" height="28.5234" style="stroke:#181818;stroke-width:1.0;" width="10" x="917.5" y="636.7031"/><rect fill="#FFFFFF" height="28.5234" style="stroke:#181818;stroke-width:1.0;" width="10" x="917.5" y="693.75"/><polygon fill="#181818" points="310.5,143.8047,320.5,147.8047,310.5,151.8047,314.5,147.8047" style="stroke:#181818;stroke-width:1.0;"/><line style="stroke:#181818;stroke-width:1.0;" x1="62.5" x2="316.5" y1="147.8047" y2="147.8047"/><text fill="#000000" font-family="sans-serif" font-size="13" font-weight="bold" lengthAdjust="spacing" textLength="7" x="69.5" y="143.0498">1</text><text fill="#000000" font-family="sans-serif" font-size="13" lengthAdjust="spacing" textLength="230" x="80.5" y="143.0498">contacts agent to list a property for sale</text><polygon fill="#181818" points="905.5,172.3281,915.5,176.3281,905.5,180.3281,909.5,176.3281" style="stroke:#181818;stroke-width:1.0;"/><line style="stroke:#181818;stroke-width:1.0;" x1="332.5" x2="911.5" y1="176.3281" y2="176.3281"/><text fill="#000000" font-family="sans-serif" font-size="13" font-weight="bold" lengthAdjust="spacing" textLength="7" x="339.5" y="171.5732">2</text><text fill="#000000" font-family="sans-serif" font-size="13" lengthAdjust="spacing" textLength="200" x="350.5" y="171.5732">asks to create a new property sale</text><polygon fill="#181818" points="343.5,200.8516,333.5,204.8516,343.5,208.8516,339.5,204.8516" style="stroke:#181818;stroke-width:1.0;"/><line style="stroke:#181818;stroke-width:1.0;stroke-dasharray:2.0,2.0;" x1="337.5" x2="921.5" y1="204.8516" y2="204.8516"/><text fill="#000000" font-family="sans-serif" font-size="13" font-weight="bold" lengthAdjust="spacing" textLength="7" x="349.5" y="200.0967">3</text><text fill="#000000" font-family="sans-serif" font-size="13" lengthAdjust="spacing" textLength="79" x="360.5" y="200.0967">requests data</text><polygon fill="#181818" points="905.5,229.375,915.5,233.375,905.5,237.375,909.5,233.375" style="stroke:#181818;stroke-width:1.0;"/><line style="stroke:#181818;stroke-width:1.0;" x1="332.5" x2="911.5" y1="233.375" y2="233.375"/><text fill="#000000" font-family="sans-serif" font-size="13" font-weight="bold" lengthAdjust="spacing" textLength="7" x="339.5" y="228.6201">4</text><text fill="#000000" font-family="sans-serif" font-size="13" lengthAdjust="spacing" textLength="250" x="350.5" y="228.6201">selects data(type of type, type of business)</text><polygon fill="#181818" points="343.5,257.8984,333.5,261.8984,343.5,265.8984,339.5,261.8984" style="stroke:#181818;stroke-width:1.0;"/><line style="stroke:#181818;stroke-width:1.0;stroke-dasharray:2.0,2.0;" x1="337.5" x2="921.5" y1="261.8984" y2="261.8984"/><text fill="#000000" font-family="sans-serif" font-size="13" font-weight="bold" lengthAdjust="spacing" textLength="7" x="349.5" y="257.1436">5</text><text fill="#000000" font-family="sans-serif" font-size="13" lengthAdjust="spacing" textLength="79" x="360.5" y="257.1436">requests data</text><polygon fill="#181818" points="905.5,286.4219,915.5,290.4219,905.5,294.4219,909.5,290.4219" style="stroke:#181818;stroke-width:1.0;"/><line style="stroke:#181818;stroke-width:1.0;" x1="332.5" x2="911.5" y1="290.4219" y2="290.4219"/><text fill="#000000" font-family="sans-serif" font-size="13" font-weight="bold" lengthAdjust="spacing" textLength="7" x="339.5" y="285.667">6</text><text fill="#000000" font-family="sans-serif" font-size="13" lengthAdjust="spacing" textLength="391" x="350.5" y="285.667">types data(area, location, distance from city center, requesed price)</text><path d="M286,305.4219 L347,305.4219 L347,311.9453 L337,321.9453 L286,321.9453 L286,305.4219 " fill="#EEEEEE" style="stroke:#000000;stroke-width:1.5;"/><rect fill="none" height="161.1406" style="stroke:#000000;stroke-width:1.5;" width="688.5" x="286" y="305.4219"/><text fill="#000000" font-family="sans-serif" font-size="13" font-weight="bold" lengthAdjust="spacing" textLength="16" x="301" y="318.1904">alt</text><text fill="#000000" font-family="sans-serif" font-size="11" font-weight="bold" lengthAdjust="spacing" textLength="216" x="362" y="317.3799">[Property Type == House or Apartment]</text><polygon fill="#181818" points="343.5,338.4688,333.5,342.4688,343.5,346.4688,339.5,342.4688" style="stroke:#181818;stroke-width:1.0;"/><line style="stroke:#181818;stroke-width:1.0;stroke-dasharray:2.0,2.0;" x1="337.5" x2="921.5" y1="342.4688" y2="342.4688"/><text fill="#000000" font-family="sans-serif" font-size="13" font-weight="bold" lengthAdjust="spacing" textLength="7" x="349.5" y="337.7139">7</text><text fill="#000000" font-family="sans-serif" font-size="13" lengthAdjust="spacing" textLength="79" x="360.5" y="337.7139">requests data</text><polygon fill="#181818" points="905.5,366.9922,915.5,370.9922,905.5,374.9922,909.5,370.9922" style="stroke:#181818;stroke-width:1.0;"/><line style="stroke:#181818;stroke-width:1.0;" x1="332.5" x2="911.5" y1="370.9922" y2="370.9922"/><text fill="#000000" font-family="sans-serif" font-size="13" font-weight="bold" lengthAdjust="spacing" textLength="7" x="339.5" y="366.2373">8</text><text fill="#000000" font-family="sans-serif" font-size="13" lengthAdjust="spacing" textLength="555" x="350.5" y="366.2373">types requested data(number of bedrooms, bathrooms, parking spaces and available equipment)</text><path d="M296,385.9922 L357,385.9922 L357,392.5156 L347,402.5156 L296,402.5156 L296,385.9922 " fill="#EEEEEE" style="stroke:#000000;stroke-width:1.5;"/><rect fill="none" height="73.5703" style="stroke:#000000;stroke-width:1.5;" width="668.5" x="296" y="385.9922"/><text fill="#000000" font-family="sans-serif" font-size="13" font-weight="bold" lengthAdjust="spacing" textLength="16" x="311" y="398.7607">alt</text><text fill="#000000" font-family="sans-serif" font-size="11" font-weight="bold" lengthAdjust="spacing" textLength="139" x="372" y="397.9502">[Property Type == House]</text><polygon fill="#181818" points="343.5,419.0391,333.5,423.0391,343.5,427.0391,339.5,423.0391" style="stroke:#181818;stroke-width:1.0;"/><line style="stroke:#181818;stroke-width:1.0;stroke-dasharray:2.0,2.0;" x1="337.5" x2="921.5" y1="423.0391" y2="423.0391"/><text fill="#000000" font-family="sans-serif" font-size="13" font-weight="bold" lengthAdjust="spacing" textLength="7" x="349.5" y="418.2842">9</text><text fill="#000000" font-family="sans-serif" font-size="13" lengthAdjust="spacing" textLength="79" x="360.5" y="418.2842">requests data</text><polygon fill="#181818" points="905.5,447.5625,915.5,451.5625,905.5,455.5625,909.5,451.5625" style="stroke:#181818;stroke-width:1.0;"/><line style="stroke:#181818;stroke-width:1.0;" x1="332.5" x2="911.5" y1="451.5625" y2="451.5625"/><text fill="#000000" font-family="sans-serif" font-size="13" font-weight="bold" lengthAdjust="spacing" textLength="14" x="339.5" y="446.8076">10</text><text fill="#000000" font-family="sans-serif" font-size="13" lengthAdjust="spacing" textLength="335" x="357.5" y="446.8076">selects data(existace of loft, basement and sun exposure)</text><polygon fill="#181818" points="343.5,490.0859,333.5,494.0859,343.5,498.0859,339.5,494.0859" style="stroke:#181818;stroke-width:1.0;"/><line style="stroke:#181818;stroke-width:1.0;stroke-dasharray:2.0,2.0;" x1="337.5" x2="921.5" y1="494.0859" y2="494.0859"/><text fill="#000000" font-family="sans-serif" font-size="13" font-weight="bold" lengthAdjust="spacing" textLength="14" x="349.5" y="489.3311">11</text><text fill="#000000" font-family="sans-serif" font-size="13" lengthAdjust="spacing" textLength="79" x="367.5" y="489.3311">requests data</text><polygon fill="#181818" points="905.5,518.6094,915.5,522.6094,905.5,526.6094,909.5,522.6094" style="stroke:#181818;stroke-width:1.0;"/><line style="stroke:#181818;stroke-width:1.0;" x1="332.5" x2="911.5" y1="522.6094" y2="522.6094"/><text fill="#000000" font-family="sans-serif" font-size="13" font-weight="bold" lengthAdjust="spacing" textLength="14" x="339.5" y="517.8545">12</text><text fill="#000000" font-family="sans-serif" font-size="13" lengthAdjust="spacing" textLength="139" x="357.5" y="517.8545">import's property photos</text><polygon fill="#181818" points="343.5,547.1328,333.5,551.1328,343.5,555.1328,339.5,551.1328" style="stroke:#181818;stroke-width:1.0;"/><line style="stroke:#181818;stroke-width:1.0;stroke-dasharray:2.0,2.0;" x1="337.5" x2="921.5" y1="551.1328" y2="551.1328"/><text fill="#000000" font-family="sans-serif" font-size="13" font-weight="bold" lengthAdjust="spacing" textLength="14" x="349.5" y="546.3779">13</text><text fill="#000000" font-family="sans-serif" font-size="13" lengthAdjust="spacing" textLength="79" x="367.5" y="546.3779">requests data</text><polygon fill="#181818" points="905.5,575.6563,915.5,579.6563,905.5,583.6563,909.5,579.6563" style="stroke:#181818;stroke-width:1.0;"/><line style="stroke:#181818;stroke-width:1.0;" x1="332.5" x2="911.5" y1="579.6563" y2="579.6563"/><text fill="#000000" font-family="sans-serif" font-size="13" font-weight="bold" lengthAdjust="spacing" textLength="14" x="339.5" y="574.9014">14</text><text fill="#000000" font-family="sans-serif" font-size="13" lengthAdjust="spacing" textLength="493" x="357.5" y="574.9014">types data(owner's name, citizen card number, tax number, adress, email, telephone)</text><polygon fill="#181818" points="343.5,604.1797,333.5,608.1797,343.5,612.1797,339.5,608.1797" style="stroke:#181818;stroke-width:1.0;"/><line style="stroke:#181818;stroke-width:1.0;stroke-dasharray:2.0,2.0;" x1="337.5" x2="921.5" y1="608.1797" y2="608.1797"/><text fill="#000000" font-family="sans-serif" font-size="13" font-weight="bold" lengthAdjust="spacing" textLength="14" x="349.5" y="603.4248">15</text><text fill="#000000" font-family="sans-serif" font-size="13" lengthAdjust="spacing" textLength="79" x="367.5" y="603.4248">requests data</text><polygon fill="#181818" points="905.5,632.7031,915.5,636.7031,905.5,640.7031,909.5,636.7031" style="stroke:#181818;stroke-width:1.0;"/><line style="stroke:#181818;stroke-width:1.0;" x1="332.5" x2="911.5" y1="636.7031" y2="636.7031"/><text fill="#000000" font-family="sans-serif" font-size="13" font-weight="bold" lengthAdjust="spacing" textLength="14" x="339.5" y="631.9482">16</text><text fill="#000000" font-family="sans-serif" font-size="13" lengthAdjust="spacing" textLength="181" x="357.5" y="631.9482">selects data(type of commission)</text><polygon fill="#181818" points="343.5,661.2266,333.5,665.2266,343.5,669.2266,339.5,665.2266" style="stroke:#181818;stroke-width:1.0;"/><line style="stroke:#181818;stroke-width:1.0;stroke-dasharray:2.0,2.0;" x1="337.5" x2="921.5" y1="665.2266" y2="665.2266"/><text fill="#000000" font-family="sans-serif" font-size="13" font-weight="bold" lengthAdjust="spacing" textLength="14" x="349.5" y="660.4717">17</text><text fill="#000000" font-family="sans-serif" font-size="13" lengthAdjust="spacing" textLength="79" x="367.5" y="660.4717">requests data</text><polygon fill="#181818" points="905.5,689.75,915.5,693.75,905.5,697.75,909.5,693.75" style="stroke:#181818;stroke-width:1.0;"/><line style="stroke:#181818;stroke-width:1.0;" x1="332.5" x2="911.5" y1="693.75" y2="693.75"/><text fill="#000000" font-family="sans-serif" font-size="13" font-weight="bold" lengthAdjust="spacing" textLength="14" x="339.5" y="688.9951">18</text><text fill="#000000" font-family="sans-serif" font-size="13" lengthAdjust="spacing" textLength="174" x="357.5" y="688.9951">types data(agent comissision)</text><polygon fill="#181818" points="343.5,718.2734,333.5,722.2734,343.5,726.2734,339.5,722.2734" style="stroke:#181818;stroke-width:1.0;"/><line style="stroke:#181818;stroke-width:1.0;stroke-dasharray:2.0,2.0;" x1="337.5" x2="921.5" y1="722.2734" y2="722.2734"/><text fill="#000000" font-family="sans-serif" font-size="13" font-weight="bold" lengthAdjust="spacing" textLength="14" x="349.5" y="717.5186">19</text><text fill="#000000" font-family="sans-serif" font-size="13" lengthAdjust="spacing" textLength="169" x="367.5" y="717.5186">(In)Sucesses of the operation</text><polygon fill="#181818" points="73.5,746.7969,63.5,750.7969,73.5,754.7969,69.5,750.7969" style="stroke:#181818;stroke-width:1.0;"/><line style="stroke:#181818;stroke-width:1.0;stroke-dasharray:2.0,2.0;" x1="67.5" x2="326.5" y1="750.7969" y2="750.7969"/><text fill="#000000" font-family="sans-serif" font-size="13" font-weight="bold" lengthAdjust="spacing" textLength="14" x="79.5" y="746.042">20</text><text fill="#000000" font-family="sans-serif" font-size="13" lengthAdjust="spacing" textLength="76" x="97.5" y="746.042">(In)Sucesses</text><!--SRC=[pLLDRzim3BtxLn2vD0QSvHwW0mhqi9qsmFi3ZCp4Gcp94-acsQyV9JjVQvUssu355zCIzVWUHT9tjKZ7Y_cyQz19tpOVZ6_dJDzxSePcbSLrm3RZZNKTgWMjTzxKmRS44dews-dGR71DfUmRWa16qAsRSmUkiV9RwzQmmeOfoyIAkfPx5cgX76F2un0JfcNvc6SPzk9Ttoufg6t41vXy3RwZ87luidKK9e0yM8VzXpKvISl9oZIyM6CxLGYJnH0lRGzcmhLFA3J2PA1FCc7sSS201HZlH1qPC2s8XyQo049teBFIu8ogEPu_OWuSqbfy1ZZ57NKlbCY68vm95FqH76rFe4V02z03SpXxHi3P6USGayhAkKB1etD5lyLvpewf8JCYJ6NV4VWLn7S1XwzbpzOHS_u_UKOo8qlKH1RGU8DYlIkWqdl2M5ehhLimLhDgz3Y5OWnCbURR6heYuBJJ21mBy5lCmFqzVF8zQoe2FCHQQoyk_DsoNv5-JVu8g7fI8eQ-ILT4LV2-vGAMAFLeAjTDR4VMrjN3w2h09xGDBhKj5SbsKKb-4VaghUlvUUxxHwbvOuhUMD6qYyLXKXqtVYKnGKnHTye7zmvertdk0-KluhzAWbnrMhpuU5dwF-W5stO-o1sVfaXNU_5y8_tfusXLTWvRdIBQZ_O7EJ0OAXWgLaSBxeusLa67Im7KQctgbbwVod6KtznOr7-dPTQPSpEJC6sEjFwEsFIpoyjUvmGhUFm5r2fPYolDs7SGLSZXrte9cVroEdd_1000]--></g></svg>