<?xml version="1.0" encoding="us-ascii" standalone="no"?><svg xmlns="http://www.w3.org/2000/svg" xmlns:xlink="http://www.w3.org/1999/xlink" contentStyleType="text/css" height="1435px" preserveAspectRatio="none" style="width:1034px;height:1435px;background:#FFFFFF;" version="1.1" viewBox="0 0 1034 1435" width="1034px" zoomAndPan="magnify"><defs/><g><!--class Repositories--><g id="elem_Repositories"><rect codeLine="9" fill="#F1F1F1" height="103.8633" id="Repositories" rx="2.5" ry="2.5" style="stroke:#181818;stroke-width:0.5;" width="206" x="601.5" y="172"/><ellipse cx="660.75" cy="188" fill="#ADD1B2" rx="11" ry="11" style="stroke:#181818;stroke-width:1.0;"/><path d="M663.5156,183.875 Q663.6719,183.6563 663.8594,183.5469 Q664.0469,183.4375 664.2656,183.4375 Q664.6406,183.4375 664.875,183.7031 Q665.1094,183.9531 665.1094,184.5625 L665.1094,186.0156 Q665.1094,186.625 664.875,186.8906 Q664.6406,187.1563 664.2656,187.1563 Q663.9219,187.1563 663.7188,186.9531 Q663.5156,186.7656 663.4063,186.25 Q663.3594,185.8906 663.1719,185.7031 Q662.8438,185.3281 662.2344,185.1094 Q661.625,184.8906 661,184.8906 Q660.2344,184.8906 659.5938,185.2188 Q658.9688,185.5469 658.4688,186.2969 Q657.9844,187.0469 657.9844,188.0781 L657.9844,189.1719 Q657.9844,190.4063 658.875,191.2344 Q659.7656,192.0469 661.3594,192.0469 Q662.2969,192.0469 662.9531,191.7969 Q663.3438,191.6406 663.7656,191.2031 Q664.0313,190.9375 664.1719,190.8594 Q664.3281,190.7813 664.5313,190.7813 Q664.8594,190.7813 665.1094,191.0469 Q665.375,191.2969 665.375,191.6406 Q665.375,191.9844 665.0313,192.3906 Q664.5313,192.9688 663.7344,193.2969 Q662.6563,193.75 661.3594,193.75 Q659.8438,193.75 658.6406,193.125 Q657.6563,192.625 656.9688,191.5625 Q656.2813,190.4844 656.2813,189.2031 L656.2813,188.0469 Q656.2813,186.7188 656.8906,185.5781 Q657.5156,184.4219 658.6094,183.8125 Q659.7031,183.1875 660.9375,183.1875 Q661.6719,183.1875 662.3125,183.3594 Q662.9688,183.5156 663.5156,183.875 Z " fill="#000000"/><text fill="#000000" font-family="sans-serif" font-size="14" lengthAdjust="spacing" textLength="79" x="681.25" y="193.7969">Repositories</text><line style="stroke:#181818;stroke-width:0.5;" x1="602.5" x2="806.5" y1="204" y2="204"/><rect fill="none" height="6" style="stroke:#C82930;stroke-width:1.0;" width="6" x="609.5" y="215.8105"/><text fill="#000000" font-family="sans-serif" font-size="14" lengthAdjust="spacing" textLength="79" x="621.5" y="223.1074">Repositories</text><line style="stroke:#181818;stroke-width:0.5;" x1="602.5" x2="806.5" y1="230.6211" y2="230.6211"/><ellipse cx="612.5" cy="245.4316" fill="#84BE84" rx="3" ry="3" style="stroke:#038048;stroke-width:1.0;"/><text fill="#000000" font-family="sans-serif" font-size="14" lengthAdjust="spacing" textLength="174" x="621.5" y="249.7285">getInstance() : Repositories</text><ellipse cx="612.5" cy="264.0527" fill="#84BE84" rx="3" ry="3" style="stroke:#038048;stroke-width:1.0;"/><text fill="#000000" font-family="sans-serif" font-size="14" lengthAdjust="spacing" textLength="180" x="621.5" y="268.3496">getPropertySaleRepository()</text></g><!--class PropertySaleRepository--><g id="elem_PropertySaleRepository"><rect codeLine="15" fill="#F1F1F1" height="85.2422" id="PropertySaleRepository" rx="2.5" ry="2.5" style="stroke:#181818;stroke-width:0.5;" width="646" x="240.5" y="355"/><ellipse cx="484.25" cy="371" fill="#ADD1B2" rx="11" ry="11" style="stroke:#181818;stroke-width:1.0;"/><path d="M487.0156,366.875 Q487.1719,366.6563 487.3594,366.5469 Q487.5469,366.4375 487.7656,366.4375 Q488.1406,366.4375 488.375,366.7031 Q488.6094,366.9531 488.6094,367.5625 L488.6094,369.0156 Q488.6094,369.625 488.375,369.8906 Q488.1406,370.1563 487.7656,370.1563 Q487.4219,370.1563 487.2188,369.9531 Q487.0156,369.7656 486.9063,369.25 Q486.8594,368.8906 486.6719,368.7031 Q486.3438,368.3281 485.7344,368.1094 Q485.125,367.8906 484.5,367.8906 Q483.7344,367.8906 483.0938,368.2188 Q482.4688,368.5469 481.9688,369.2969 Q481.4844,370.0469 481.4844,371.0781 L481.4844,372.1719 Q481.4844,373.4063 482.375,374.2344 Q483.2656,375.0469 484.8594,375.0469 Q485.7969,375.0469 486.4531,374.7969 Q486.8438,374.6406 487.2656,374.2031 Q487.5313,373.9375 487.6719,373.8594 Q487.8281,373.7813 488.0313,373.7813 Q488.3594,373.7813 488.6094,374.0469 Q488.875,374.2969 488.875,374.6406 Q488.875,374.9844 488.5313,375.3906 Q488.0313,375.9688 487.2344,376.2969 Q486.1563,376.75 484.8594,376.75 Q483.3438,376.75 482.1406,376.125 Q481.1563,375.625 480.4688,374.5625 Q479.7813,373.4844 479.7813,372.2031 L479.7813,371.0469 Q479.7813,369.7188 480.3906,368.5781 Q481.0156,367.4219 482.1094,366.8125 Q483.2031,366.1875 484.4375,366.1875 Q485.1719,366.1875 485.8125,366.3594 Q486.4688,366.5156 487.0156,366.875 Z " fill="#000000"/><text fill="#000000" font-family="sans-serif" font-size="14" lengthAdjust="spacing" textLength="150" x="504.75" y="376.7969">PropertySaleRepository</text><line style="stroke:#181818;stroke-width:0.5;" x1="241.5" x2="885.5" y1="387" y2="387"/><line style="stroke:#181818;stroke-width:0.5;" x1="241.5" x2="885.5" y1="395" y2="395"/><ellipse cx="251.5" cy="409.8105" fill="#84BE84" rx="3" ry="3" style="stroke:#038048;stroke-width:1.0;"/><text fill="#000000" font-family="sans-serif" font-size="14" lengthAdjust="spacing" textLength="203" x="260.5" y="414.1074">ListProperties(short sortCriteria)</text><ellipse cx="251.5" cy="428.4316" fill="#84BE84" rx="3" ry="3" style="stroke:#038048;stroke-width:1.0;"/><text fill="#000000" font-family="sans-serif" font-size="14" lengthAdjust="spacing" textLength="620" x="260.5" y="432.7285">ListProperties(short sortCriteria, short propertyBusiness, short propertyType, int numberOfRooms)</text></g><g id="elem_GMN4"><path d="M6,375 L6,419.582 A0,0 0 0 0 6,419.582 L205,419.582 A0,0 0 0 0 205,419.582 L205,401.5 L240.23,397.5 L205,393.5 L205,385 L195,375 L6,375 A0,0 0 0 0 6,375 " fill="#FEFFDD" style="stroke:#181818;stroke-width:0.5;"/><path d="M195,375 L195,385 L205,385 L195,375 " fill="#FEFFDD" style="stroke:#181818;stroke-width:0.5;"/><text fill="#000000" font-family="sans-serif" font-size="13" lengthAdjust="spacing" textLength="178" x="12" y="394.0283">Used for storing and displaying</text><text fill="#000000" font-family="sans-serif" font-size="13" lengthAdjust="spacing" textLength="100" x="12" y="411.3193">the properties list</text></g><!--class ListPropertiesController--><g id="elem_ListPropertiesController"><rect codeLine="25" fill="#F1F1F1" height="103.8633" id="ListPropertiesController" rx="2.5" ry="2.5" style="stroke:#181818;stroke-width:0.5;" width="646" x="381.5" y="7"/><ellipse cx="625.75" cy="23" fill="#ADD1B2" rx="11" ry="11" style="stroke:#181818;stroke-width:1.0;"/><path d="M628.5156,18.875 Q628.6719,18.6563 628.8594,18.5469 Q629.0469,18.4375 629.2656,18.4375 Q629.6406,18.4375 629.875,18.7031 Q630.1094,18.9531 630.1094,19.5625 L630.1094,21.0156 Q630.1094,21.625 629.875,21.8906 Q629.6406,22.1563 629.2656,22.1563 Q628.9219,22.1563 628.7188,21.9531 Q628.5156,21.7656 628.4063,21.25 Q628.3594,20.8906 628.1719,20.7031 Q627.8438,20.3281 627.2344,20.1094 Q626.625,19.8906 626,19.8906 Q625.2344,19.8906 624.5938,20.2188 Q623.9688,20.5469 623.4688,21.2969 Q622.9844,22.0469 622.9844,23.0781 L622.9844,24.1719 Q622.9844,25.4063 623.875,26.2344 Q624.7656,27.0469 626.3594,27.0469 Q627.2969,27.0469 627.9531,26.7969 Q628.3438,26.6406 628.7656,26.2031 Q629.0313,25.9375 629.1719,25.8594 Q629.3281,25.7813 629.5313,25.7813 Q629.8594,25.7813 630.1094,26.0469 Q630.375,26.2969 630.375,26.6406 Q630.375,26.9844 630.0313,27.3906 Q629.5313,27.9688 628.7344,28.2969 Q627.6563,28.75 626.3594,28.75 Q624.8438,28.75 623.6406,28.125 Q622.6563,27.625 621.9688,26.5625 Q621.2813,25.4844 621.2813,24.2031 L621.2813,23.0469 Q621.2813,21.7188 621.8906,20.5781 Q622.5156,19.4219 623.6094,18.8125 Q624.7031,18.1875 625.9375,18.1875 Q626.6719,18.1875 627.3125,18.3594 Q627.9688,18.5156 628.5156,18.875 Z " fill="#000000"/><text fill="#000000" font-family="sans-serif" font-size="14" lengthAdjust="spacing" textLength="149" x="646.25" y="28.7969">ListPropertiesController</text><line style="stroke:#181818;stroke-width:0.5;" x1="382.5" x2="1026.5" y1="39" y2="39"/><line style="stroke:#181818;stroke-width:0.5;" x1="382.5" x2="1026.5" y1="47" y2="47"/><ellipse cx="392.5" cy="61.8105" fill="#84BE84" rx="3" ry="3" style="stroke:#038048;stroke-width:1.0;"/><text fill="#000000" font-family="sans-serif" font-size="14" lengthAdjust="spacing" textLength="159" x="401.5" y="66.1074">ListPropertiesController()</text><ellipse cx="392.5" cy="80.4316" fill="#84BE84" rx="3" ry="3" style="stroke:#038048;stroke-width:1.0;"/><text fill="#000000" font-family="sans-serif" font-size="14" lengthAdjust="spacing" textLength="203" x="401.5" y="84.7285">ListProperties(short sortCriteria)</text><ellipse cx="392.5" cy="99.0527" fill="#84BE84" rx="3" ry="3" style="stroke:#038048;stroke-width:1.0;"/><text fill="#000000" font-family="sans-serif" font-size="14" lengthAdjust="spacing" textLength="620" x="401.5" y="103.3496">ListProperties(short sortCriteria, short propertyBusiness, short propertyType, int numberOfRooms)</text></g><!--class PropertySaleRequest--><g id="elem_PropertySaleRequest"><rect codeLine="31" fill="#F1F1F1" height="103.8633" id="PropertySaleRequest" rx="2.5" ry="2.5" style="stroke:#181818;stroke-width:0.5;" width="167" x="752" y="684"/><ellipse cx="767" cy="700" fill="#ADD1B2" rx="11" ry="11" style="stroke:#181818;stroke-width:1.0;"/><path d="M769.7656,695.875 Q769.9219,695.6563 770.1094,695.5469 Q770.2969,695.4375 770.5156,695.4375 Q770.8906,695.4375 771.125,695.7031 Q771.3594,695.9531 771.3594,696.5625 L771.3594,698.0156 Q771.3594,698.625 771.125,698.8906 Q770.8906,699.1563 770.5156,699.1563 Q770.1719,699.1563 769.9688,698.9531 Q769.7656,698.7656 769.6563,698.25 Q769.6094,697.8906 769.4219,697.7031 Q769.0938,697.3281 768.4844,697.1094 Q767.875,696.8906 767.25,696.8906 Q766.4844,696.8906 765.8438,697.2188 Q765.2188,697.5469 764.7188,698.2969 Q764.2344,699.0469 764.2344,700.0781 L764.2344,701.1719 Q764.2344,702.4063 765.125,703.2344 Q766.0156,704.0469 767.6094,704.0469 Q768.5469,704.0469 769.2031,703.7969 Q769.5938,703.6406 770.0156,703.2031 Q770.2813,702.9375 770.4219,702.8594 Q770.5781,702.7813 770.7813,702.7813 Q771.1094,702.7813 771.3594,703.0469 Q771.625,703.2969 771.625,703.6406 Q771.625,703.9844 771.2813,704.3906 Q770.7813,704.9688 769.9844,705.2969 Q768.9063,705.75 767.6094,705.75 Q766.0938,705.75 764.8906,705.125 Q763.9063,704.625 763.2188,703.5625 Q762.5313,702.4844 762.5313,701.2031 L762.5313,700.0469 Q762.5313,698.7188 763.1406,697.5781 Q763.7656,696.4219 764.8594,695.8125 Q765.9531,695.1875 767.1875,695.1875 Q767.9219,695.1875 768.5625,695.3594 Q769.2188,695.5156 769.7656,695.875 Z " fill="#000000"/><text fill="#000000" font-family="sans-serif" font-size="14" lengthAdjust="spacing" textLength="135" x="781" y="705.7969">PropertySaleRequest</text><line style="stroke:#181818;stroke-width:0.5;" x1="753" x2="918" y1="716" y2="716"/><rect fill="none" height="6" style="stroke:#C82930;stroke-width:1.0;" width="6" x="760" y="727.8105"/><text fill="#000000" font-family="sans-serif" font-size="14" lengthAdjust="spacing" textLength="118" x="772" y="735.1074">int typeOfBusiness</text><rect fill="none" height="6" style="stroke:#C82930;stroke-width:1.0;" width="6" x="760" y="746.4316"/><text fill="#000000" font-family="sans-serif" font-size="14" lengthAdjust="spacing" textLength="127" x="772" y="753.7285">float requestedPrice</text><line style="stroke:#181818;stroke-width:0.5;" x1="753" x2="918" y1="761.2422" y2="761.2422"/><ellipse cx="763" cy="776.0527" fill="#84BE84" rx="3" ry="3" style="stroke:#038048;stroke-width:1.0;"/><text fill="#000000" font-family="sans-serif" font-size="14" lengthAdjust="spacing" textLength="76" x="772" y="780.3496">SortByCity()</text></g><!--class ListPropertiesUI--><g id="elem_ListPropertiesUI"><rect codeLine="38" fill="#F1F1F1" height="48" id="ListPropertiesUI" rx="2.5" ry="2.5" style="stroke:#181818;stroke-width:0.5;" width="131" x="215" y="35"/><ellipse cx="230" cy="51" fill="#ADD1B2" rx="11" ry="11" style="stroke:#181818;stroke-width:1.0;"/><path d="M232.7656,46.875 Q232.9219,46.6563 233.1094,46.5469 Q233.2969,46.4375 233.5156,46.4375 Q233.8906,46.4375 234.125,46.7031 Q234.3594,46.9531 234.3594,47.5625 L234.3594,49.0156 Q234.3594,49.625 234.125,49.8906 Q233.8906,50.1563 233.5156,50.1563 Q233.1719,50.1563 232.9688,49.9531 Q232.7656,49.7656 232.6563,49.25 Q232.6094,48.8906 232.4219,48.7031 Q232.0938,48.3281 231.4844,48.1094 Q230.875,47.8906 230.25,47.8906 Q229.4844,47.8906 228.8438,48.2188 Q228.2188,48.5469 227.7188,49.2969 Q227.2344,50.0469 227.2344,51.0781 L227.2344,52.1719 Q227.2344,53.4063 228.125,54.2344 Q229.0156,55.0469 230.6094,55.0469 Q231.5469,55.0469 232.2031,54.7969 Q232.5938,54.6406 233.0156,54.2031 Q233.2813,53.9375 233.4219,53.8594 Q233.5781,53.7813 233.7813,53.7813 Q234.1094,53.7813 234.3594,54.0469 Q234.625,54.2969 234.625,54.6406 Q234.625,54.9844 234.2813,55.3906 Q233.7813,55.9688 232.9844,56.2969 Q231.9063,56.75 230.6094,56.75 Q229.0938,56.75 227.8906,56.125 Q226.9063,55.625 226.2188,54.5625 Q225.5313,53.4844 225.5313,52.2031 L225.5313,51.0469 Q225.5313,49.7188 226.1406,48.5781 Q226.7656,47.4219 227.8594,46.8125 Q228.9531,46.1875 230.1875,46.1875 Q230.9219,46.1875 231.5625,46.3594 Q232.2188,46.5156 232.7656,46.875 Z " fill="#000000"/><text fill="#000000" font-family="sans-serif" font-size="14" lengthAdjust="spacing" textLength="99" x="244" y="56.7969">ListPropertiesUI</text><line style="stroke:#181818;stroke-width:0.5;" x1="216" x2="345" y1="67" y2="67"/><line style="stroke:#181818;stroke-width:0.5;" x1="216" x2="345" y1="75" y2="75"/></g><!--class PropertySale--><g id="elem_PropertySale"><rect codeLine="41" fill="#F1F1F1" height="122.4844" id="PropertySale" rx="2.5" ry="2.5" style="stroke:#181818;stroke-width:0.5;" width="152" x="759.5" y="501"/><ellipse cx="791.6" cy="517" fill="#ADD1B2" rx="11" ry="11" style="stroke:#181818;stroke-width:1.0;"/><path d="M794.3656,512.875 Q794.5219,512.6563 794.7094,512.5469 Q794.8969,512.4375 795.1156,512.4375 Q795.4906,512.4375 795.725,512.7031 Q795.9594,512.9531 795.9594,513.5625 L795.9594,515.0156 Q795.9594,515.625 795.725,515.8906 Q795.4906,516.1563 795.1156,516.1563 Q794.7719,516.1563 794.5688,515.9531 Q794.3656,515.7656 794.2563,515.25 Q794.2094,514.8906 794.0219,514.7031 Q793.6938,514.3281 793.0844,514.1094 Q792.475,513.8906 791.85,513.8906 Q791.0844,513.8906 790.4438,514.2188 Q789.8188,514.5469 789.3188,515.2969 Q788.8344,516.0469 788.8344,517.0781 L788.8344,518.1719 Q788.8344,519.4063 789.725,520.2344 Q790.6156,521.0469 792.2094,521.0469 Q793.1469,521.0469 793.8031,520.7969 Q794.1938,520.6406 794.6156,520.2031 Q794.8813,519.9375 795.0219,519.8594 Q795.1781,519.7813 795.3813,519.7813 Q795.7094,519.7813 795.9594,520.0469 Q796.225,520.2969 796.225,520.6406 Q796.225,520.9844 795.8813,521.3906 Q795.3813,521.9688 794.5844,522.2969 Q793.5063,522.75 792.2094,522.75 Q790.6938,522.75 789.4906,522.125 Q788.5063,521.625 787.8188,520.5625 Q787.1313,519.4844 787.1313,518.2031 L787.1313,517.0469 Q787.1313,515.7188 787.7406,514.5781 Q788.3656,513.4219 789.4594,512.8125 Q790.5531,512.1875 791.7875,512.1875 Q792.5219,512.1875 793.1625,512.3594 Q793.8188,512.5156 794.3656,512.875 Z " fill="#000000"/><text fill="#000000" font-family="sans-serif" font-size="14" lengthAdjust="spacing" textLength="82" x="809.4" y="522.7969">PropertySale</text><line style="stroke:#181818;stroke-width:0.5;" x1="760.5" x2="910.5" y1="533" y2="533"/><rect fill="none" height="6" style="stroke:#C82930;stroke-width:1.0;" width="6" x="767.5" y="544.8105"/><text fill="#000000" font-family="sans-serif" font-size="14" lengthAdjust="spacing" textLength="126" x="779.5" y="552.1074">int typeOfComission</text><rect fill="none" height="6" style="stroke:#C82930;stroke-width:1.0;" width="6" x="767.5" y="563.4316"/><text fill="#000000" font-family="sans-serif" font-size="14" lengthAdjust="spacing" textLength="104" x="779.5" y="570.7285">float commission</text><line style="stroke:#181818;stroke-width:0.5;" x1="760.5" x2="910.5" y1="578.2422" y2="578.2422"/><ellipse cx="770.5" cy="593.0527" fill="#84BE84" rx="3" ry="3" style="stroke:#038048;stroke-width:1.0;"/><text fill="#000000" font-family="sans-serif" font-size="14" lengthAdjust="spacing" textLength="84" x="779.5" y="597.3496">SortByPrice()</text><ellipse cx="770.5" cy="611.6738" fill="#84BE84" rx="3" ry="3" style="stroke:#038048;stroke-width:1.0;"/><text fill="#000000" font-family="sans-serif" font-size="14" lengthAdjust="spacing" textLength="98" x="779.5" y="615.9707">calculatePrice()</text></g><g id="elem_GMN11"><path d="M573,522.5 L573,601.6641 A0,0 0 0 0 573,601.6641 L724,601.6641 A0,0 0 0 0 724,601.6641 L724,566 L759.1,562 L724,558 L724,532.5 L714,522.5 L573,522.5 A0,0 0 0 0 573,522.5 " fill="#FEFFDD" style="stroke:#181818;stroke-width:0.5;"/><path d="M714,522.5 L714,532.5 L724,532.5 L714,522.5 " fill="#FEFFDD" style="stroke:#181818;stroke-width:0.5;"/><text fill="#000000" font-family="sans-serif" font-size="13" lengthAdjust="spacing" textLength="112" x="579" y="541.5283">Used for categorize</text><text fill="#000000" font-family="sans-serif" font-size="13" lengthAdjust="spacing" textLength="105" x="579" y="558.8193">the properties that</text><text fill="#000000" font-family="sans-serif" font-size="13" lengthAdjust="spacing" textLength="130" x="579" y="576.1104">were already accepted</text><text fill="#000000" font-family="sans-serif" font-size="13" lengthAdjust="spacing" textLength="98" x="579" y="593.4014">in the application</text></g><!--class Property--><g id="elem_Property"><rect codeLine="56" fill="#F1F1F1" height="122.4844" id="Property" rx="2.5" ry="2.5" style="stroke:#181818;stroke-width:0.5;" width="210" x="730.5" y="849"/><ellipse cx="804.25" cy="865" fill="#A9DCDF" rx="11" ry="11" style="stroke:#181818;stroke-width:1.0;"/><path d="M806.4375,866.7656 L802.2969,866.7656 L801.875,867.7969 L802.2969,867.7969 Q802.9063,867.7969 803.1719,868.0313 Q803.4375,868.2656 803.4375,868.6563 Q803.4375,869.0313 803.1719,869.2656 Q802.9063,869.5 802.2969,869.5 L800,869.5 Q799.3906,869.5 799.1406,869.2656 Q798.875,869.0313 798.875,868.6406 Q798.875,868.2656 799.1563,868.0313 Q799.4219,867.7813 800.0469,867.7969 L802.7188,861.1406 L801.6094,861.1406 Q801,861.1406 800.7344,860.9063 Q800.4688,860.6719 800.4688,860.2813 Q800.4688,859.9063 800.7344,859.6719 Q801,859.4375 801.6094,859.4375 L805.2813,859.4375 L808.6719,867.7969 Q809.2656,867.7969 809.4531,867.9375 Q809.8438,868.2031 809.8438,868.6563 Q809.8438,869.0313 809.5781,869.2656 Q809.3281,869.5 808.7188,869.5 L806.4219,869.5 Q805.8125,869.5 805.5469,869.2656 Q805.2813,869.0313 805.2813,868.6406 Q805.2813,868.2656 805.5469,868.0313 Q805.8125,867.7969 806.4219,867.7969 L806.8438,867.7969 L806.4375,866.7656 Z M805.7188,865.0625 L804.3594,861.6875 L802.9844,865.0625 L805.7188,865.0625 Z " fill="#000000"/><text fill="#000000" font-family="sans-serif" font-size="14" font-style="italic" lengthAdjust="spacing" textLength="54" x="824.75" y="870.7969">Property</text><line style="stroke:#181818;stroke-width:0.5;" x1="731.5" x2="939.5" y1="881" y2="881"/><rect fill="none" height="6" style="stroke:#C82930;stroke-width:1.0;" width="6" x="738.5" y="892.8105"/><text fill="#000000" font-family="sans-serif" font-size="14" lengthAdjust="spacing" textLength="60" x="750.5" y="900.1074">float area</text><rect fill="none" height="6" style="stroke:#C82930;stroke-width:1.0;" width="6" x="738.5" y="911.4316"/><text fill="#000000" font-family="sans-serif" font-size="14" lengthAdjust="spacing" textLength="77" x="750.5" y="918.7285">String street</text><rect fill="none" height="6" style="stroke:#C82930;stroke-width:1.0;" width="6" x="738.5" y="930.0527"/><text fill="#000000" font-family="sans-serif" font-size="14" lengthAdjust="spacing" textLength="92" x="750.5" y="937.3496">String zipCode</text><rect fill="none" height="6" style="stroke:#C82930;stroke-width:1.0;" width="6" x="738.5" y="948.6738"/><text fill="#000000" font-family="sans-serif" font-size="14" lengthAdjust="spacing" textLength="184" x="750.5" y="955.9707">float distanceFromCityCenter</text><line style="stroke:#181818;stroke-width:0.5;" x1="731.5" x2="939.5" y1="963.4844" y2="963.4844"/></g><!--class Land--><g id="elem_Land"><rect codeLine="64" fill="#F1F1F1" height="48" id="Land" rx="2.5" ry="2.5" style="stroke:#181818;stroke-width:0.5;" width="64" x="803.5" y="1069"/><ellipse cx="818.5" cy="1085" fill="#ADD1B2" rx="11" ry="11" style="stroke:#181818;stroke-width:1.0;"/><path d="M821.2656,1080.875 Q821.4219,1080.6563 821.6094,1080.5469 Q821.7969,1080.4375 822.0156,1080.4375 Q822.3906,1080.4375 822.625,1080.7031 Q822.8594,1080.9531 822.8594,1081.5625 L822.8594,1083.0156 Q822.8594,1083.625 822.625,1083.8906 Q822.3906,1084.1563 822.0156,1084.1563 Q821.6719,1084.1563 821.4688,1083.9531 Q821.2656,1083.7656 821.1563,1083.25 Q821.1094,1082.8906 820.9219,1082.7031 Q820.5938,1082.3281 819.9844,1082.1094 Q819.375,1081.8906 818.75,1081.8906 Q817.9844,1081.8906 817.3438,1082.2188 Q816.7188,1082.5469 816.2188,1083.2969 Q815.7344,1084.0469 815.7344,1085.0781 L815.7344,1086.1719 Q815.7344,1087.4063 816.625,1088.2344 Q817.5156,1089.0469 819.1094,1089.0469 Q820.0469,1089.0469 820.7031,1088.7969 Q821.0938,1088.6406 821.5156,1088.2031 Q821.7813,1087.9375 821.9219,1087.8594 Q822.0781,1087.7813 822.2813,1087.7813 Q822.6094,1087.7813 822.8594,1088.0469 Q823.125,1088.2969 823.125,1088.6406 Q823.125,1088.9844 822.7813,1089.3906 Q822.2813,1089.9688 821.4844,1090.2969 Q820.4063,1090.75 819.1094,1090.75 Q817.5938,1090.75 816.3906,1090.125 Q815.4063,1089.625 814.7188,1088.5625 Q814.0313,1087.4844 814.0313,1086.2031 L814.0313,1085.0469 Q814.0313,1083.7188 814.6406,1082.5781 Q815.2656,1081.4219 816.3594,1080.8125 Q817.4531,1080.1875 818.6875,1080.1875 Q819.4219,1080.1875 820.0625,1080.3594 Q820.7188,1080.5156 821.2656,1080.875 Z " fill="#000000"/><text fill="#000000" font-family="sans-serif" font-size="14" lengthAdjust="spacing" textLength="32" x="832.5" y="1090.7969">Land</text><line style="stroke:#181818;stroke-width:0.5;" x1="804.5" x2="866.5" y1="1101" y2="1101"/><line style="stroke:#181818;stroke-width:0.5;" x1="804.5" x2="866.5" y1="1109" y2="1109"/></g><!--class City--><g id="elem_City"><rect codeLine="68" fill="#F1F1F1" height="48" id="City" rx="2.5" ry="2.5" style="stroke:#181818;stroke-width:0.5;" width="56" x="925.5" y="1380"/><ellipse cx="940.5" cy="1396" fill="#ADD1B2" rx="11" ry="11" style="stroke:#181818;stroke-width:1.0;"/><path d="M943.2656,1391.875 Q943.4219,1391.6563 943.6094,1391.5469 Q943.7969,1391.4375 944.0156,1391.4375 Q944.3906,1391.4375 944.625,1391.7031 Q944.8594,1391.9531 944.8594,1392.5625 L944.8594,1394.0156 Q944.8594,1394.625 944.625,1394.8906 Q944.3906,1395.1563 944.0156,1395.1563 Q943.6719,1395.1563 943.4688,1394.9531 Q943.2656,1394.7656 943.1563,1394.25 Q943.1094,1393.8906 942.9219,1393.7031 Q942.5938,1393.3281 941.9844,1393.1094 Q941.375,1392.8906 940.75,1392.8906 Q939.9844,1392.8906 939.3438,1393.2188 Q938.7188,1393.5469 938.2188,1394.2969 Q937.7344,1395.0469 937.7344,1396.0781 L937.7344,1397.1719 Q937.7344,1398.4063 938.625,1399.2344 Q939.5156,1400.0469 941.1094,1400.0469 Q942.0469,1400.0469 942.7031,1399.7969 Q943.0938,1399.6406 943.5156,1399.2031 Q943.7813,1398.9375 943.9219,1398.8594 Q944.0781,1398.7813 944.2813,1398.7813 Q944.6094,1398.7813 944.8594,1399.0469 Q945.125,1399.2969 945.125,1399.6406 Q945.125,1399.9844 944.7813,1400.3906 Q944.2813,1400.9688 943.4844,1401.2969 Q942.4063,1401.75 941.1094,1401.75 Q939.5938,1401.75 938.3906,1401.125 Q937.4063,1400.625 936.7188,1399.5625 Q936.0313,1398.4844 936.0313,1397.2031 L936.0313,1396.0469 Q936.0313,1394.7188 936.6406,1393.5781 Q937.2656,1392.4219 938.3594,1391.8125 Q939.4531,1391.1875 940.6875,1391.1875 Q941.4219,1391.1875 942.0625,1391.3594 Q942.7188,1391.5156 943.2656,1391.875 Z " fill="#000000"/><text fill="#000000" font-family="sans-serif" font-size="14" lengthAdjust="spacing" textLength="24" x="954.5" y="1401.7969">City</text><line style="stroke:#181818;stroke-width:0.5;" x1="926.5" x2="980.5" y1="1412" y2="1412"/><line style="stroke:#181818;stroke-width:0.5;" x1="926.5" x2="980.5" y1="1420" y2="1420"/></g><!--class State--><g id="elem_State"><rect codeLine="71" fill="#F1F1F1" height="66.6211" id="State" rx="2.5" ry="2.5" style="stroke:#181818;stroke-width:0.5;" width="102" x="902.5" y="1059.5"/><ellipse cx="934.15" cy="1075.5" fill="#ADD1B2" rx="11" ry="11" style="stroke:#181818;stroke-width:1.0;"/><path d="M936.9156,1071.375 Q937.0719,1071.1563 937.2594,1071.0469 Q937.4469,1070.9375 937.6656,1070.9375 Q938.0406,1070.9375 938.275,1071.2031 Q938.5094,1071.4531 938.5094,1072.0625 L938.5094,1073.5156 Q938.5094,1074.125 938.275,1074.3906 Q938.0406,1074.6563 937.6656,1074.6563 Q937.3219,1074.6563 937.1188,1074.4531 Q936.9156,1074.2656 936.8063,1073.75 Q936.7594,1073.3906 936.5719,1073.2031 Q936.2438,1072.8281 935.6344,1072.6094 Q935.025,1072.3906 934.4,1072.3906 Q933.6344,1072.3906 932.9938,1072.7188 Q932.3688,1073.0469 931.8688,1073.7969 Q931.3844,1074.5469 931.3844,1075.5781 L931.3844,1076.6719 Q931.3844,1077.9063 932.275,1078.7344 Q933.1656,1079.5469 934.7594,1079.5469 Q935.6969,1079.5469 936.3531,1079.2969 Q936.7438,1079.1406 937.1656,1078.7031 Q937.4313,1078.4375 937.5719,1078.3594 Q937.7281,1078.2813 937.9313,1078.2813 Q938.2594,1078.2813 938.5094,1078.5469 Q938.775,1078.7969 938.775,1079.1406 Q938.775,1079.4844 938.4313,1079.8906 Q937.9313,1080.4688 937.1344,1080.7969 Q936.0563,1081.25 934.7594,1081.25 Q933.2438,1081.25 932.0406,1080.625 Q931.0563,1080.125 930.3688,1079.0625 Q929.6813,1077.9844 929.6813,1076.7031 L929.6813,1075.5469 Q929.6813,1074.2188 930.2906,1073.0781 Q930.9156,1071.9219 932.0094,1071.3125 Q933.1031,1070.6875 934.3375,1070.6875 Q935.0719,1070.6875 935.7125,1070.8594 Q936.3688,1071.0156 936.9156,1071.375 Z " fill="#000000"/><text fill="#000000" font-family="sans-serif" font-size="14" lengthAdjust="spacing" textLength="33" x="951.85" y="1081.2969">State</text><line style="stroke:#181818;stroke-width:0.5;" x1="903.5" x2="1003.5" y1="1091.5" y2="1091.5"/><rect fill="none" height="6" style="stroke:#C82930;stroke-width:1.0;" width="6" x="910.5" y="1103.3105"/><text fill="#000000" font-family="sans-serif" font-size="14" lengthAdjust="spacing" textLength="76" x="922.5" y="1110.6074">String name</text><line style="stroke:#181818;stroke-width:0.5;" x1="903.5" x2="1003.5" y1="1118.1211" y2="1118.1211"/></g><!--class District--><g id="elem_District"><rect codeLine="75" fill="#F1F1F1" height="48" id="District" rx="2.5" ry="2.5" style="stroke:#181818;stroke-width:0.5;" width="75" x="916" y="1243"/><ellipse cx="931" cy="1259" fill="#ADD1B2" rx="11" ry="11" style="stroke:#181818;stroke-width:1.0;"/><path d="M933.7656,1254.875 Q933.9219,1254.6563 934.1094,1254.5469 Q934.2969,1254.4375 934.5156,1254.4375 Q934.8906,1254.4375 935.125,1254.7031 Q935.3594,1254.9531 935.3594,1255.5625 L935.3594,1257.0156 Q935.3594,1257.625 935.125,1257.8906 Q934.8906,1258.1563 934.5156,1258.1563 Q934.1719,1258.1563 933.9688,1257.9531 Q933.7656,1257.7656 933.6563,1257.25 Q933.6094,1256.8906 933.4219,1256.7031 Q933.0938,1256.3281 932.4844,1256.1094 Q931.875,1255.8906 931.25,1255.8906 Q930.4844,1255.8906 929.8438,1256.2188 Q929.2188,1256.5469 928.7188,1257.2969 Q928.2344,1258.0469 928.2344,1259.0781 L928.2344,1260.1719 Q928.2344,1261.4063 929.125,1262.2344 Q930.0156,1263.0469 931.6094,1263.0469 Q932.5469,1263.0469 933.2031,1262.7969 Q933.5938,1262.6406 934.0156,1262.2031 Q934.2813,1261.9375 934.4219,1261.8594 Q934.5781,1261.7813 934.7813,1261.7813 Q935.1094,1261.7813 935.3594,1262.0469 Q935.625,1262.2969 935.625,1262.6406 Q935.625,1262.9844 935.2813,1263.3906 Q934.7813,1263.9688 933.9844,1264.2969 Q932.9063,1264.75 931.6094,1264.75 Q930.0938,1264.75 928.8906,1264.125 Q927.9063,1263.625 927.2188,1262.5625 Q926.5313,1261.4844 926.5313,1260.2031 L926.5313,1259.0469 Q926.5313,1257.7188 927.1406,1256.5781 Q927.7656,1255.4219 928.8594,1254.8125 Q929.9531,1254.1875 931.1875,1254.1875 Q931.9219,1254.1875 932.5625,1254.3594 Q933.2188,1254.5156 933.7656,1254.875 Z " fill="#000000"/><text fill="#000000" font-family="sans-serif" font-size="14" lengthAdjust="spacing" textLength="43" x="945" y="1264.7969">District</text><line style="stroke:#181818;stroke-width:0.5;" x1="917" x2="990" y1="1275" y2="1275"/><line style="stroke:#181818;stroke-width:0.5;" x1="917" x2="990" y1="1283" y2="1283"/></g><!--class ResidentialProperty--><g id="elem_ResidentialProperty"><rect codeLine="79" fill="#F1F1F1" height="122.4844" id="ResidentialProperty" rx="2.5" ry="2.5" style="stroke:#181818;stroke-width:0.5;" width="176" x="592.5" y="1032"/><ellipse cx="616.5" cy="1048" fill="#A9DCDF" rx="11" ry="11" style="stroke:#181818;stroke-width:1.0;"/><path d="M618.6875,1049.7656 L614.5469,1049.7656 L614.125,1050.7969 L614.5469,1050.7969 Q615.1563,1050.7969 615.4219,1051.0313 Q615.6875,1051.2656 615.6875,1051.6563 Q615.6875,1052.0313 615.4219,1052.2656 Q615.1563,1052.5 614.5469,1052.5 L612.25,1052.5 Q611.6406,1052.5 611.3906,1052.2656 Q611.125,1052.0313 611.125,1051.6406 Q611.125,1051.2656 611.4063,1051.0313 Q611.6719,1050.7813 612.2969,1050.7969 L614.9688,1044.1406 L613.8594,1044.1406 Q613.25,1044.1406 612.9844,1043.9063 Q612.7188,1043.6719 612.7188,1043.2813 Q612.7188,1042.9063 612.9844,1042.6719 Q613.25,1042.4375 613.8594,1042.4375 L617.5313,1042.4375 L620.9219,1050.7969 Q621.5156,1050.7969 621.7031,1050.9375 Q622.0938,1051.2031 622.0938,1051.6563 Q622.0938,1052.0313 621.8281,1052.2656 Q621.5781,1052.5 620.9688,1052.5 L618.6719,1052.5 Q618.0625,1052.5 617.7969,1052.2656 Q617.5313,1052.0313 617.5313,1051.6406 Q617.5313,1051.2656 617.7969,1051.0313 Q618.0625,1050.7969 618.6719,1050.7969 L619.0938,1050.7969 L618.6875,1049.7656 Z M617.9688,1048.0625 L616.6094,1044.6875 L615.2344,1048.0625 L617.9688,1048.0625 Z " fill="#000000"/><text fill="#000000" font-family="sans-serif" font-size="14" font-style="italic" lengthAdjust="spacing" textLength="124" x="632.5" y="1053.7969">ResidentialProperty</text><line style="stroke:#181818;stroke-width:0.5;" x1="593.5" x2="767.5" y1="1064" y2="1064"/><rect fill="none" height="6" style="stroke:#C82930;stroke-width:1.0;" width="6" x="600.5" y="1075.8105"/><text fill="#000000" font-family="sans-serif" font-size="14" lengthAdjust="spacing" textLength="127" x="612.5" y="1083.1074">numberOfBedrooms</text><rect fill="none" height="6" style="stroke:#C82930;stroke-width:1.0;" width="6" x="600.5" y="1094.4316"/><text fill="#000000" font-family="sans-serif" font-size="14" lengthAdjust="spacing" textLength="131" x="612.5" y="1101.7285">numberOfBathrooms</text><rect fill="none" height="6" style="stroke:#C82930;stroke-width:1.0;" width="6" x="600.5" y="1113.0527"/><text fill="#000000" font-family="sans-serif" font-size="14" lengthAdjust="spacing" textLength="150" x="612.5" y="1120.3496">numerOfParkingSpaces</text><rect fill="none" height="6" style="stroke:#C82930;stroke-width:1.0;" width="6" x="600.5" y="1131.6738"/><text fill="#000000" font-family="sans-serif" font-size="14" lengthAdjust="spacing" textLength="123" x="612.5" y="1138.9707">availableEquipment</text><line style="stroke:#181818;stroke-width:0.5;" x1="593.5" x2="767.5" y1="1146.4844" y2="1146.4844"/></g><!--class Apartment--><g id="elem_Apartment"><rect codeLine="86" fill="#F1F1F1" height="48" id="Apartment" rx="2.5" ry="2.5" style="stroke:#181818;stroke-width:0.5;" width="97" x="708" y="1243"/><ellipse cx="723" cy="1259" fill="#ADD1B2" rx="11" ry="11" style="stroke:#181818;stroke-width:1.0;"/><path d="M725.7656,1254.875 Q725.9219,1254.6563 726.1094,1254.5469 Q726.2969,1254.4375 726.5156,1254.4375 Q726.8906,1254.4375 727.125,1254.7031 Q727.3594,1254.9531 727.3594,1255.5625 L727.3594,1257.0156 Q727.3594,1257.625 727.125,1257.8906 Q726.8906,1258.1563 726.5156,1258.1563 Q726.1719,1258.1563 725.9688,1257.9531 Q725.7656,1257.7656 725.6563,1257.25 Q725.6094,1256.8906 725.4219,1256.7031 Q725.0938,1256.3281 724.4844,1256.1094 Q723.875,1255.8906 723.25,1255.8906 Q722.4844,1255.8906 721.8438,1256.2188 Q721.2188,1256.5469 720.7188,1257.2969 Q720.2344,1258.0469 720.2344,1259.0781 L720.2344,1260.1719 Q720.2344,1261.4063 721.125,1262.2344 Q722.0156,1263.0469 723.6094,1263.0469 Q724.5469,1263.0469 725.2031,1262.7969 Q725.5938,1262.6406 726.0156,1262.2031 Q726.2813,1261.9375 726.4219,1261.8594 Q726.5781,1261.7813 726.7813,1261.7813 Q727.1094,1261.7813 727.3594,1262.0469 Q727.625,1262.2969 727.625,1262.6406 Q727.625,1262.9844 727.2813,1263.3906 Q726.7813,1263.9688 725.9844,1264.2969 Q724.9063,1264.75 723.6094,1264.75 Q722.0938,1264.75 720.8906,1264.125 Q719.9063,1263.625 719.2188,1262.5625 Q718.5313,1261.4844 718.5313,1260.2031 L718.5313,1259.0469 Q718.5313,1257.7188 719.1406,1256.5781 Q719.7656,1255.4219 720.8594,1254.8125 Q721.9531,1254.1875 723.1875,1254.1875 Q723.9219,1254.1875 724.5625,1254.3594 Q725.2188,1254.5156 725.7656,1254.875 Z " fill="#000000"/><text fill="#000000" font-family="sans-serif" font-size="14" lengthAdjust="spacing" textLength="65" x="737" y="1264.7969">Apartment</text><line style="stroke:#181818;stroke-width:0.5;" x1="709" x2="804" y1="1275" y2="1275"/><line style="stroke:#181818;stroke-width:0.5;" x1="709" x2="804" y1="1283" y2="1283"/></g><!--class House--><g id="elem_House"><rect codeLine="90" fill="#F1F1F1" height="103.8633" id="House" rx="2.5" ry="2.5" style="stroke:#181818;stroke-width:0.5;" width="193" x="480" y="1215"/><ellipse cx="552.25" cy="1231" fill="#ADD1B2" rx="11" ry="11" style="stroke:#181818;stroke-width:1.0;"/><path d="M555.0156,1226.875 Q555.1719,1226.6563 555.3594,1226.5469 Q555.5469,1226.4375 555.7656,1226.4375 Q556.1406,1226.4375 556.375,1226.7031 Q556.6094,1226.9531 556.6094,1227.5625 L556.6094,1229.0156 Q556.6094,1229.625 556.375,1229.8906 Q556.1406,1230.1563 555.7656,1230.1563 Q555.4219,1230.1563 555.2188,1229.9531 Q555.0156,1229.7656 554.9063,1229.25 Q554.8594,1228.8906 554.6719,1228.7031 Q554.3438,1228.3281 553.7344,1228.1094 Q553.125,1227.8906 552.5,1227.8906 Q551.7344,1227.8906 551.0938,1228.2188 Q550.4688,1228.5469 549.9688,1229.2969 Q549.4844,1230.0469 549.4844,1231.0781 L549.4844,1232.1719 Q549.4844,1233.4063 550.375,1234.2344 Q551.2656,1235.0469 552.8594,1235.0469 Q553.7969,1235.0469 554.4531,1234.7969 Q554.8438,1234.6406 555.2656,1234.2031 Q555.5313,1233.9375 555.6719,1233.8594 Q555.8281,1233.7813 556.0313,1233.7813 Q556.3594,1233.7813 556.6094,1234.0469 Q556.875,1234.2969 556.875,1234.6406 Q556.875,1234.9844 556.5313,1235.3906 Q556.0313,1235.9688 555.2344,1236.2969 Q554.1563,1236.75 552.8594,1236.75 Q551.3438,1236.75 550.1406,1236.125 Q549.1563,1235.625 548.4688,1234.5625 Q547.7813,1233.4844 547.7813,1232.2031 L547.7813,1231.0469 Q547.7813,1229.7188 548.3906,1228.5781 Q549.0156,1227.4219 550.1094,1226.8125 Q551.2031,1226.1875 552.4375,1226.1875 Q553.1719,1226.1875 553.8125,1226.3594 Q554.4688,1226.5156 555.0156,1226.875 Z " fill="#000000"/><text fill="#000000" font-family="sans-serif" font-size="14" lengthAdjust="spacing" textLength="40" x="572.75" y="1236.7969">House</text><line style="stroke:#181818;stroke-width:0.5;" x1="481" x2="672" y1="1247" y2="1247"/><rect fill="none" height="6" style="stroke:#C82930;stroke-width:1.0;" width="6" x="488" y="1258.8105"/><text fill="#000000" font-family="sans-serif" font-size="14" lengthAdjust="spacing" textLength="137" x="500" y="1266.1074">existanceOfBasement</text><rect fill="none" height="6" style="stroke:#C82930;stroke-width:1.0;" width="6" x="488" y="1277.4316"/><text fill="#000000" font-family="sans-serif" font-size="14" lengthAdjust="spacing" textLength="167" x="500" y="1284.7285">existanceOfInhabitableLoft</text><rect fill="none" height="6" style="stroke:#C82930;stroke-width:1.0;" width="6" x="488" y="1296.0527"/><text fill="#000000" font-family="sans-serif" font-size="14" lengthAdjust="spacing" textLength="82" x="500" y="1303.3496">sunExposure</text><line style="stroke:#181818;stroke-width:0.5;" x1="481" x2="672" y1="1310.8633" y2="1310.8633"/></g><!--link ListPropertiesUI to ListPropertiesController--><g id="link_ListPropertiesUI_ListPropertiesController"><path codeLine="96" d="M346.2,59 C356.3,59 366.53,59 376.07,59 " fill="none" id="ListPropertiesUI-to-ListPropertiesController" style="stroke:#181818;stroke-width:1.0;stroke-dasharray:7.0,7.0;"/><polygon fill="#181818" points="381.29,59,372.29,55,376.29,59,372.29,63,381.29,59" style="stroke:#181818;stroke-width:1.0;"/></g><!--link ListPropertiesController to Repositories--><g id="link_ListPropertiesController_Repositories"><path codeLine="98" d="M704.5,111.13 C704.5,128.79 704.5,148.68 704.5,166.73 " fill="none" id="ListPropertiesController-to-Repositories" style="stroke:#181818;stroke-width:1.0;stroke-dasharray:7.0,7.0;"/><polygon fill="#181818" points="704.5,171.77,708.5,162.77,704.5,166.77,700.5,162.77,704.5,171.77" style="stroke:#181818;stroke-width:1.0;"/></g><!--link ListPropertiesController to PropertySaleRepository--><g id="link_ListPropertiesController_PropertySaleRepository"><path codeLine="99" d="M649.77,111.08 C618.12,140.62 584.5,172 584.5,172 C584.5,172 574.03,283.97 567.87,349.75 " fill="none" id="ListPropertiesController-to-PropertySaleRepository" style="stroke:#181818;stroke-width:1.0;stroke-dasharray:7.0,7.0;"/><polygon fill="#181818" points="567.4,354.8,572.2051,346.2028,567.8565,349.8209,564.2385,345.4724,567.4,354.8" style="stroke:#181818;stroke-width:1.0;"/></g><!--link Repositories to PropertySaleRepository--><g id="link_Repositories_PropertySaleRepository"><path codeLine="101" d="M662.2,276.46 C642.72,300.15 619.8,328.02 600.96,350.94 " fill="none" id="Repositories-to-PropertySaleRepository" style="stroke:#181818;stroke-width:1.0;"/><polygon fill="#181818" points="597.73,354.86,606.5276,350.4326,600.8985,350.9921,600.339,345.363,597.73,354.86" style="stroke:#181818;stroke-width:1.0;"/><text fill="#000000" font-family="sans-serif" font-size="13" lengthAdjust="spacing" textLength="137" x="634.5" y="321.0283">PropertySaleRepository</text><text fill="#000000" font-family="sans-serif" font-size="13" lengthAdjust="spacing" textLength="7" x="595.6276" y="343.7418">1</text></g><!--link PropertySaleRepository to PropertySale--><g id="link_PropertySaleRepository_PropertySale"><path codeLine="103" d="M635.64,440.04 C684.98,468.46 741.5,501 741.5,501 C741.5,501 746.65,504.29 754.53,509.32 " fill="none" id="PropertySaleRepository-to-PropertySale" style="stroke:#181818;stroke-width:1.0;"/><polygon fill="#181818" points="759.18,512.29,753.7597,504.0668,754.9699,509.5927,749.4441,510.8029,759.18,512.29" style="stroke:#181818;stroke-width:1.0;"/><text fill="#000000" font-family="sans-serif" font-size="13" lengthAdjust="spacing" textLength="5" x="746.4212" y="503.5788">*</text></g><!--link Repositories to Repositories--><g id="link_Repositories_Repositories"><path codeLine="105" d="M807.71,209.28 C828.04,210.97 842.5,215.87 842.5,224 C842.5,231.43 830.42,236.17 812.82,238.21 " fill="none" id="Repositories-to-Repositories" style="stroke:#181818;stroke-width:1.0;"/><polygon fill="#181818" points="807.71,238.72,817.0563,241.8259,812.6863,238.2338,816.2784,233.8638,807.71,238.72" style="stroke:#181818;stroke-width:1.0;"/><text fill="#000000" font-family="sans-serif" font-size="13" lengthAdjust="spacing" textLength="49" x="848.5" y="229.5283">instance</text></g><!--reverse link Property to ResidentialProperty--><g id="link_Property_ResidentialProperty"><path codeLine="107" d="M770.85,986.5 C757.9,1001.62 744.46,1017.32 732.02,1031.83 " fill="none" id="Property-backto-ResidentialProperty" style="stroke:#181818;stroke-width:1.0;"/><polygon fill="none" points="765.78,981.66,784.1,971.02,776.41,990.76,765.78,981.66" style="stroke:#181818;stroke-width:1.0;"/></g><!--reverse link Property to Land--><g id="link_Property_Land"><path codeLine="108" d="M835.5,991.24 C835.5,1019.56 835.5,1049.23 835.5,1068.98 " fill="none" id="Property-backto-Land" style="stroke:#181818;stroke-width:1.0;"/><polygon fill="none" points="828.5,991.02,835.5,971.02,842.5,991.02,828.5,991.02" style="stroke:#181818;stroke-width:1.0;"/></g><!--reverse link ResidentialProperty to Apartment--><g id="link_ResidentialProperty_Apartment"><path codeLine="109" d="M715.19,1172.51 C726.51,1198.12 738.22,1224.62 746.27,1242.84 " fill="none" id="ResidentialProperty-backto-Apartment" style="stroke:#181818;stroke-width:1.0;"/><polygon fill="none" points="708.76,1175.28,707.08,1154.16,721.57,1169.62,708.76,1175.28" style="stroke:#181818;stroke-width:1.0;"/></g><!--reverse link ResidentialProperty to House--><g id="link_ResidentialProperty_House"><path codeLine="110" d="M633.53,1171.68 C624.7,1186.28 615.69,1201.19 607.5,1214.73 " fill="none" id="ResidentialProperty-backto-House" style="stroke:#181818;stroke-width:1.0;"/><polygon fill="none" points="627.79,1167.65,644.13,1154.16,639.77,1174.89,627.79,1167.65" style="stroke:#181818;stroke-width:1.0;"/></g><!--link ListPropertiesController to PropertySale--><g id="link_ListPropertiesController_PropertySale"><path codeLine="113" d="M795.72,111.08 C848.47,140.62 904.5,172 904.5,172 C904.5,172 904.5,440 904.5,440 C904.5,440 888.84,467.47 872.43,496.23 " fill="none" id="ListPropertiesController-to-PropertySale" style="stroke:#181818;stroke-width:1.0;stroke-dasharray:7.0,7.0;"/><polygon fill="#181818" points="869.8,500.85,877.7423,495.026,872.2838,496.5105,870.7992,491.052,869.8,500.85" style="stroke:#181818;stroke-width:1.0;"/></g><!--link Property to State--><g id="link_Property_State"><path codeLine="115" d="M874.63,971.02 C892.69,998.73 913.57,1030.75 929.3,1054.88 " fill="none" id="Property-to-State" style="stroke:#181818;stroke-width:1.0;"/><polygon fill="#181818" points="932.18,1059.3,930.6161,1049.5761,929.4495,1055.1114,923.9143,1053.9449,932.18,1059.3" style="stroke:#181818;stroke-width:1.0;"/><text fill="#000000" font-family="sans-serif" font-size="13" lengthAdjust="spacing" textLength="7" x="920.4487" y="1048.3478">1</text></g><!--link State to District--><g id="link_State_District"><path codeLine="116" d="M953.5,1126.76 C953.5,1158.91 953.5,1207.44 953.5,1237.89 " fill="none" id="State-to-District" style="stroke:#181818;stroke-width:1.0;"/><polygon fill="#181818" points="953.5,1242.99,957.5,1233.99,953.5,1237.99,949.5,1233.99,953.5,1242.99" style="stroke:#181818;stroke-width:1.0;"/><text fill="#000000" font-family="sans-serif" font-size="13" lengthAdjust="spacing" textLength="20" x="930.9375" y="1231.7249">1..*</text></g><!--link District to City--><g id="link_District_City"><path codeLine="117" d="M953.5,1291.21 C953.5,1314.29 953.5,1349.75 953.5,1374.53 " fill="none" id="District-to-City" style="stroke:#181818;stroke-width:1.0;"/><polygon fill="#181818" points="953.5,1379.64,957.5,1370.64,953.5,1374.64,949.5,1370.64,953.5,1379.64" style="stroke:#181818;stroke-width:1.0;"/><text fill="#000000" font-family="sans-serif" font-size="13" lengthAdjust="spacing" textLength="20" x="931.0625" y="1368.6942">1..*</text></g><!--link PropertySale to PropertySaleRequest--><g id="link_PropertySale_PropertySaleRequest"><path codeLine="119" d="M835.5,623.16 C835.5,636.13 835.5,649.96 835.5,663.32 " fill="none" id="PropertySale-to-PropertySaleRequest" style="stroke:#181818;stroke-width:1.0;"/><polygon fill="none" points="842.5,663.73,835.5,683.73,828.5,663.73,842.5,663.73" style="stroke:#181818;stroke-width:1.0;"/></g><!--link PropertySaleRequest to Property--><g id="link_PropertySaleRequest_Property"><path codeLine="121" d="M835.5,788.14 C835.5,805.61 835.5,825.39 835.5,843.81 " fill="none" id="PropertySaleRequest-to-Property" style="stroke:#181818;stroke-width:1.0;"/><polygon fill="#181818" points="835.5,848.97,839.5,839.97,835.5,843.97,831.5,839.97,835.5,848.97" style="stroke:#181818;stroke-width:1.0;"/><text fill="#000000" font-family="sans-serif" font-size="13" lengthAdjust="spacing" textLength="7" x="828.0953" y="837.9477">1</text></g><!--SRC=[hLHDJzmm4BtxLrYzi1HsfLuv89KjLP6GG6pv0RF99B5mx61F2c7fV-_OsP1aIH27xY7Ql7cUZ-UNEV8FobJWe9IbDJOfd2rHagjHz94AaWV8SKEDHkam8J2v7X9y0QbzKYQN6MW_Z6Xba9eAPMLr4rx4qKJGEh9276dCI9ALJkK5oLI5KieQ8H8DtiixhAnNP9r2BtTYEGB4YSoHhepdvX9S7CkpYV2jinKwQZQWyItQB8x5twx6D6F7nw-LxyvpleKlk6df-R5sYj0fEFuCwLIsMBMlSr5x5i7xG_mtot8gbI5fwdABxYQxixRqiLDZ2MNKocOp3Gl9ltkFgSoiapvem9S39cLLVQMXuTV8eGAxca5LpVqBP5geqMao7cfj3JchDJg-Wv3YP9R0mauH9hNx9F5_w3TrquyrUWgU2aU29s-oBZM3cRP0xFp8mlJMgGJvjZTSyQ9PAzfRQ5Al-olMQRAg7DTRsr9v7_pU5KnisK5lrMBjHV1Q0ZgfDH1sq4VM61iYuLCvU-85fqn01L34dz2X1EqGqaP2ac35myU8Cl4GL9LMd2nqsBi6jfuS9Dp_QEGuRZiOS4f-sL2q9RCHgNz_KTNQflZ6Pil6Z_edxwOWzXeDUq7qebu7O-y6G60DHDyGpxlh2nWeiO_-uFIi8BK93fg_GwzIhgT0Z-ReN7M1gGl66a90nG0Bq2quNdhvXXSf1XZ-WDAmrNZvMAkgvFnzEzzvDrA0MjliqL-szgrXy7alHwZaCHuUeLUcWAsYaFxQPY7eQtFvpAkXTd7iT_vSdSz-meVimTU_ucEZ5ViXSsPFYT5INoxFvPTlNsR8lDBdiimSYFc-ZlDDb1m1PspkLih0V7_xosLTlVRpY6Y-Gx2_n7ra8fDex_G3WlYyfBq4dORHz28-zxgkLYn5vtRH_Ha6mtSp5fEZh-TJk_9GymY-kq3n3m00]--></g></svg>