<?xml version="1.0" encoding="us-ascii" standalone="no"?><svg xmlns="http://www.w3.org/2000/svg" xmlns:xlink="http://www.w3.org/1999/xlink" contentStyleType="text/css" height="2129px" preserveAspectRatio="none" style="width:1491px;height:2129px;background:#FFFFFF;" version="1.1" viewBox="0 0 1491 2129" width="1491px" zoomAndPan="magnify"><defs/><g><rect fill="#FFFFFF" height="1898.6641" style="stroke:#181818;stroke-width:1.0;" width="10" x="68.5" y="112.2422"/><rect fill="#FFFFFF" height="547.5684" style="stroke:#181818;stroke-width:1.0;" width="10" x="528.5" y="135.5332"/><rect fill="#FFFFFF" height="629.1113" style="stroke:#181818;stroke-width:1.0;" width="10" x="528.5" y="766.9746"/><rect fill="#FFFFFF" height="535.2383" style="stroke:#181818;stroke-width:1.0;" width="10" x="528.5" y="1460.668"/><rect fill="#FFFFFF" height="31.291" style="stroke:#181818;stroke-width:1.0;" width="10" x="759.5" y="210.4453"/><rect fill="#FFFFFF" height="281.6191" style="stroke:#181818;stroke-width:1.0;" width="10" x="759.5" y="273.0273"/><rect fill="#FFFFFF" height="281.6191" style="stroke:#181818;stroke-width:1.0;" width="10" x="759.5" y="986.0117"/><rect fill="#FFFFFF" height="281.6191" style="stroke:#181818;stroke-width:1.0;" width="10" x="759.5" y="1585.832"/><rect fill="#FFFFFF" height="31.291" style="stroke:#181818;stroke-width:1.0;" width="10" x="969.5" y="304.3184"/><rect fill="#FFFFFF" height="93.873" style="stroke:#181818;stroke-width:1.0;" width="10" x="969.5" y="366.9004"/><rect fill="#FFFFFF" height="31.291" style="stroke:#181818;stroke-width:1.0;" width="10" x="969.5" y="1017.3027"/><rect fill="#FFFFFF" height="93.873" style="stroke:#181818;stroke-width:1.0;" width="10" x="969.5" y="1079.8848"/><rect fill="#FFFFFF" height="31.291" style="stroke:#181818;stroke-width:1.0;" width="10" x="969.5" y="1617.123"/><rect fill="#FFFFFF" height="93.873" style="stroke:#181818;stroke-width:1.0;" width="10" x="969.5" y="1679.7051"/><rect fill="#FFFFFF" height="31.291" style="stroke:#181818;stroke-width:1.0;" width="10" x="1179.5" y="398.1914"/><rect fill="#FFFFFF" height="31.291" style="stroke:#181818;stroke-width:1.0;" width="10" x="1179.5" y="1111.1758"/><rect fill="#FFFFFF" height="31.291" style="stroke:#181818;stroke-width:1.0;" width="10" x="1179.5" y="1710.9961"/><rect fill="#FFFFFF" height="31.291" style="stroke:#181818;stroke-width:1.0;" width="10" x="1322" y="492.0645"/><rect fill="#FFFFFF" height="31.291" style="stroke:#181818;stroke-width:1.0;" width="10" x="1322" y="1205.0488"/><rect fill="#FFFFFF" height="31.291" style="stroke:#181818;stroke-width:1.0;" width="10" x="1322" y="1804.8691"/><rect fill="#FFFFFF" height="48.582" style="stroke:#181818;stroke-width:1.0;" width="10" x="1438" y="585.9375"/><rect fill="#FFFFFF" height="48.582" style="stroke:#181818;stroke-width:1.0;" width="10" x="1438" y="1298.9219"/><rect fill="#FFFFFF" height="48.582" style="stroke:#181818;stroke-width:1.0;" width="10" x="1438" y="1898.7422"/><rect fill="none" height="1312.8047" style="stroke:#000000;stroke-width:1.5;" width="1475" x="10" y="698.1016"/><rect fill="none" height="679.6934" style="stroke:#000000;stroke-width:1.5;" width="1455" x="20" y="724.3926"/><rect fill="none" height="585.8203" style="stroke:#000000;stroke-width:1.5;" width="1455" x="20" y="1418.0859"/><line style="stroke:#181818;stroke-width:0.5;stroke-dasharray:5.0,5.0;" x1="73" x2="73" y1="102.2422" y2="2027.9063"/><line style="stroke:#181818;stroke-width:0.5;stroke-dasharray:5.0,5.0;" x1="533" x2="533" y1="102.2422" y2="2027.9063"/><line style="stroke:#181818;stroke-width:0.5;stroke-dasharray:5.0,5.0;" x1="764" x2="764" y1="175.3438" y2="2027.9063"/><line style="stroke:#181818;stroke-width:0.5;stroke-dasharray:5.0,5.0;" x1="974" x2="974" y1="102.2422" y2="2027.9063"/><line style="stroke:#181818;stroke-width:0.5;stroke-dasharray:5.0,5.0;" x1="1184" x2="1184" y1="102.2422" y2="2027.9063"/><line style="stroke:#181818;stroke-width:0.5;stroke-dasharray:5.0,5.0;" x1="1327" x2="1327" y1="102.2422" y2="2027.9063"/><line style="stroke:#181818;stroke-width:0.5;stroke-dasharray:5.0,5.0;" x1="1443" x2="1443" y1="102.2422" y2="2027.9063"/><text fill="#000000" font-family="sans-serif" font-size="14" lengthAdjust="spacing" textLength="81" x="30" y="80.1074">Unregistered</text><text fill="#000000" font-family="sans-serif" font-size="14" lengthAdjust="spacing" textLength="29" x="56" y="98.7285">User</text><ellipse cx="73.5" cy="13.5" fill="#E3E3E3" rx="8" ry="8" style="stroke:#181818;stroke-width:0.5;"/><path d="M73.5,21.5 L73.5,48.5 M60.5,29.5 L86.5,29.5 M73.5,48.5 L60.5,63.5 M73.5,48.5 L86.5,63.5 " fill="none" style="stroke:#181818;stroke-width:0.5;"/><text fill="#000000" font-family="sans-serif" font-size="14" lengthAdjust="spacing" textLength="81" x="30" y="2042.0137">Unregistered</text><text fill="#000000" font-family="sans-serif" font-size="14" lengthAdjust="spacing" textLength="29" x="56" y="2060.6348">User</text><ellipse cx="73.5" cy="2072.6484" fill="#E3E3E3" rx="8" ry="8" style="stroke:#181818;stroke-width:0.5;"/><path d="M73.5,2080.6484 L73.5,2107.6484 M60.5,2088.6484 L86.5,2088.6484 M73.5,2107.6484 L60.5,2122.6484 M73.5,2107.6484 L86.5,2122.6484 " fill="none" style="stroke:#181818;stroke-width:0.5;"/><rect fill="#E3E3E3" height="32.6211" rx="2.5" ry="2.5" style="stroke:#181818;stroke-width:0.5;" width="167" x="450" y="68.6211"/><text fill="#000000" font-family="sans-serif" font-size="14" lengthAdjust="spacing" textLength="153" x="457" y="90.7285">:PropertySaleListMenu()</text><rect fill="#E3E3E3" height="32.6211" rx="2.5" ry="2.5" style="stroke:#181818;stroke-width:0.5;" width="167" x="450" y="2026.9063"/><text fill="#000000" font-family="sans-serif" font-size="14" lengthAdjust="spacing" textLength="153" x="457" y="2049.0137">:PropertySaleListMenu()</text><rect fill="#E3E3E3" height="32.6211" rx="2.5" ry="2.5" style="stroke:#181818;stroke-width:0.5;" width="167" x="681" y="2026.9063"/><text fill="#000000" font-family="sans-serif" font-size="14" lengthAdjust="spacing" textLength="153" x="688" y="2049.0137">:ListPropertiesController</text><rect fill="#E3E3E3" height="32.6211" rx="2.5" ry="2.5" style="stroke:#181818;stroke-width:0.5;" width="97" x="926" y="68.6211"/><text fill="#000000" font-family="sans-serif" font-size="14" lengthAdjust="spacing" textLength="83" x="933" y="90.7285">:Repositories</text><rect fill="#E3E3E3" height="32.6211" rx="2.5" ry="2.5" style="stroke:#181818;stroke-width:0.5;" width="97" x="926" y="2026.9063"/><text fill="#000000" font-family="sans-serif" font-size="14" lengthAdjust="spacing" textLength="83" x="933" y="2049.0137">:Repositories</text><rect fill="#E3E3E3" height="51.2422" rx="2.5" ry="2.5" style="stroke:#181818;stroke-width:0.5;" width="97" x="1136" y="50"/><text fill="#000000" font-family="sans-serif" font-size="14" lengthAdjust="spacing" textLength="74" x="1147.5" y="72.1074">repositories</text><text fill="#000000" font-family="sans-serif" font-size="14" lengthAdjust="spacing" textLength="83" x="1143" y="90.7285">:Repositories</text><rect fill="#E3E3E3" height="51.2422" rx="2.5" ry="2.5" style="stroke:#181818;stroke-width:0.5;" width="97" x="1136" y="2026.9063"/><text fill="#000000" font-family="sans-serif" font-size="14" lengthAdjust="spacing" textLength="74" x="1147.5" y="2049.0137">repositories</text><text fill="#000000" font-family="sans-serif" font-size="14" lengthAdjust="spacing" textLength="83" x="1143" y="2067.6348">:Repositories</text><rect fill="#E3E3E3" height="51.2422" rx="2.5" ry="2.5" style="stroke:#181818;stroke-width:0.5;" width="168" x="1243" y="50"/><text fill="#000000" font-family="sans-serif" font-size="14" lengthAdjust="spacing" textLength="153" x="1250.5" y="72.1074">propertySaleRepository:</text><text fill="#000000" font-family="sans-serif" font-size="14" lengthAdjust="spacing" textLength="154" x="1250" y="90.7285">:PropertySaleRepository</text><rect fill="#E3E3E3" height="51.2422" rx="2.5" ry="2.5" style="stroke:#181818;stroke-width:0.5;" width="168" x="1243" y="2026.9063"/><text fill="#000000" font-family="sans-serif" font-size="14" lengthAdjust="spacing" textLength="153" x="1250.5" y="2049.0137">propertySaleRepository:</text><text fill="#000000" font-family="sans-serif" font-size="14" lengthAdjust="spacing" textLength="154" x="1250" y="2067.6348">:PropertySaleRepository</text><rect fill="#E3E3E3" height="32.6211" rx="2.5" ry="2.5" style="stroke:#181818;stroke-width:0.5;" width="44" x="1421" y="68.6211"/><text fill="#000000" font-family="sans-serif" font-size="14" lengthAdjust="spacing" textLength="30" x="1428" y="90.7285">:Utils</text><rect fill="#E3E3E3" height="32.6211" rx="2.5" ry="2.5" style="stroke:#181818;stroke-width:0.5;" width="44" x="1421" y="2026.9063"/><text fill="#000000" font-family="sans-serif" font-size="14" lengthAdjust="spacing" textLength="30" x="1428" y="2049.0137">:Utils</text><rect fill="#FFFFFF" height="1898.6641" style="stroke:#181818;stroke-width:1.0;" width="10" x="68.5" y="112.2422"/><rect fill="#FFFFFF" height="547.5684" style="stroke:#181818;stroke-width:1.0;" width="10" x="528.5" y="135.5332"/><rect fill="#FFFFFF" height="629.1113" style="stroke:#181818;stroke-width:1.0;" width="10" x="528.5" y="766.9746"/><rect fill="#FFFFFF" height="535.2383" style="stroke:#181818;stroke-width:1.0;" width="10" x="528.5" y="1460.668"/><rect fill="#FFFFFF" height="31.291" style="stroke:#181818;stroke-width:1.0;" width="10" x="759.5" y="210.4453"/><rect fill="#FFFFFF" height="281.6191" style="stroke:#181818;stroke-width:1.0;" width="10" x="759.5" y="273.0273"/><rect fill="#FFFFFF" height="281.6191" style="stroke:#181818;stroke-width:1.0;" width="10" x="759.5" y="986.0117"/><rect fill="#FFFFFF" height="281.6191" style="stroke:#181818;stroke-width:1.0;" width="10" x="759.5" y="1585.832"/><rect fill="#FFFFFF" height="31.291" style="stroke:#181818;stroke-width:1.0;" width="10" x="969.5" y="304.3184"/><rect fill="#FFFFFF" height="93.873" style="stroke:#181818;stroke-width:1.0;" width="10" x="969.5" y="366.9004"/><rect fill="#FFFFFF" height="31.291" style="stroke:#181818;stroke-width:1.0;" width="10" x="969.5" y="1017.3027"/><rect fill="#FFFFFF" height="93.873" style="stroke:#181818;stroke-width:1.0;" width="10" x="969.5" y="1079.8848"/><rect fill="#FFFFFF" height="31.291" style="stroke:#181818;stroke-width:1.0;" width="10" x="969.5" y="1617.123"/><rect fill="#FFFFFF" height="93.873" style="stroke:#181818;stroke-width:1.0;" width="10" x="969.5" y="1679.7051"/><rect fill="#FFFFFF" height="31.291" style="stroke:#181818;stroke-width:1.0;" width="10" x="1179.5" y="398.1914"/><rect fill="#FFFFFF" height="31.291" style="stroke:#181818;stroke-width:1.0;" width="10" x="1179.5" y="1111.1758"/><rect fill="#FFFFFF" height="31.291" style="stroke:#181818;stroke-width:1.0;" width="10" x="1179.5" y="1710.9961"/><rect fill="#FFFFFF" height="31.291" style="stroke:#181818;stroke-width:1.0;" width="10" x="1322" y="492.0645"/><rect fill="#FFFFFF" height="31.291" style="stroke:#181818;stroke-width:1.0;" width="10" x="1322" y="1205.0488"/><rect fill="#FFFFFF" height="31.291" style="stroke:#181818;stroke-width:1.0;" width="10" x="1322" y="1804.8691"/><rect fill="#FFFFFF" height="48.582" style="stroke:#181818;stroke-width:1.0;" width="10" x="1438" y="585.9375"/><rect fill="#FFFFFF" height="48.582" style="stroke:#181818;stroke-width:1.0;" width="10" x="1438" y="1298.9219"/><rect fill="#FFFFFF" height="48.582" style="stroke:#181818;stroke-width:1.0;" width="10" x="1438" y="1898.7422"/><polygon fill="#181818" points="516.5,131.5332,526.5,135.5332,516.5,139.5332,520.5,135.5332" style="stroke:#181818;stroke-width:1.0;"/><line style="stroke:#181818;stroke-width:1.0;" x1="78.5" x2="522.5" y1="135.5332" y2="135.5332"/><text fill="#000000" font-family="sans-serif" font-size="13" font-weight="bold" lengthAdjust="spacing" textLength="7" x="85.5" y="130.2705">1</text><text fill="#000000" font-family="sans-serif" font-size="13" lengthAdjust="spacing" textLength="220" x="96.5" y="130.2705">selects to display the listed properties</text><polygon fill="#181818" points="669,162.8242,679,166.8242,669,170.8242,673,166.8242" style="stroke:#181818;stroke-width:1.0;"/><line style="stroke:#181818;stroke-width:1.0;" x1="538.5" x2="675" y1="166.8242" y2="166.8242"/><text fill="#000000" font-family="sans-serif" font-size="13" font-weight="bold" lengthAdjust="spacing" textLength="7" x="545.5" y="161.5615">2</text><text fill="#000000" font-family="sans-serif" font-size="13" lengthAdjust="spacing" textLength="36" x="556.5" y="161.5615">create</text><rect fill="#E3E3E3" height="32.6211" rx="2.5" ry="2.5" style="stroke:#181818;stroke-width:0.5;" width="167" x="681" y="143.5332"/><text fill="#000000" font-family="sans-serif" font-size="14" lengthAdjust="spacing" textLength="153" x="688" y="165.6406">:ListPropertiesController</text><polygon fill="#181818" points="747.5,206.4453,757.5,210.4453,747.5,214.4453,751.5,210.4453" style="stroke:#181818;stroke-width:1.0;"/><line style="stroke:#181818;stroke-width:1.0;" x1="538.5" x2="753.5" y1="210.4453" y2="210.4453"/><text fill="#000000" font-family="sans-serif" font-size="13" font-weight="bold" lengthAdjust="spacing" textLength="7" x="545.5" y="205.1826">3</text><text fill="#000000" font-family="sans-serif" font-size="13" lengthAdjust="spacing" textLength="124" x="556.5" y="205.1826">getSortFilterOptions()</text><polygon fill="#181818" points="549.5,237.7363,539.5,241.7363,549.5,245.7363,545.5,241.7363" style="stroke:#181818;stroke-width:1.0;"/><line style="stroke:#181818;stroke-width:1.0;stroke-dasharray:2.0,2.0;" x1="543.5" x2="763.5" y1="241.7363" y2="241.7363"/><text fill="#000000" font-family="sans-serif" font-size="13" font-weight="bold" lengthAdjust="spacing" textLength="7" x="555.5" y="236.4736">4</text><text fill="#000000" font-family="sans-serif" font-size="13" lengthAdjust="spacing" textLength="96" x="566.5" y="236.4736">sortFilterOptions</text><polygon fill="#181818" points="747.5,269.0273,757.5,273.0273,747.5,277.0273,751.5,273.0273" style="stroke:#181818;stroke-width:1.0;"/><line style="stroke:#181818;stroke-width:1.0;" x1="538.5" x2="753.5" y1="273.0273" y2="273.0273"/><text fill="#000000" font-family="sans-serif" font-size="13" font-weight="bold" lengthAdjust="spacing" textLength="7" x="545.5" y="267.7646">5</text><text fill="#000000" font-family="sans-serif" font-size="13" lengthAdjust="spacing" textLength="184" x="556.5" y="267.7646">ListProperties(sortFilterOptions)</text><polygon fill="#181818" points="957.5,300.3184,967.5,304.3184,957.5,308.3184,961.5,304.3184" style="stroke:#181818;stroke-width:1.0;"/><line style="stroke:#181818;stroke-width:1.0;" x1="769.5" x2="963.5" y1="304.3184" y2="304.3184"/><text fill="#000000" font-family="sans-serif" font-size="13" font-weight="bold" lengthAdjust="spacing" textLength="7" x="776.5" y="299.0557">6</text><text fill="#000000" font-family="sans-serif" font-size="13" lengthAdjust="spacing" textLength="75" x="787.5" y="299.0557">getInstance()</text><polygon fill="#181818" points="780.5,331.6094,770.5,335.6094,780.5,339.6094,776.5,335.6094" style="stroke:#181818;stroke-width:1.0;"/><line style="stroke:#181818;stroke-width:1.0;stroke-dasharray:2.0,2.0;" x1="774.5" x2="973.5" y1="335.6094" y2="335.6094"/><text fill="#000000" font-family="sans-serif" font-size="13" font-weight="bold" lengthAdjust="spacing" textLength="7" x="786.5" y="330.3467">7</text><text fill="#000000" font-family="sans-serif" font-size="13" lengthAdjust="spacing" textLength="67" x="797.5" y="330.3467">repositories</text><polygon fill="#181818" points="957.5,362.9004,967.5,366.9004,957.5,370.9004,961.5,366.9004" style="stroke:#181818;stroke-width:1.0;"/><line style="stroke:#181818;stroke-width:1.0;" x1="769.5" x2="963.5" y1="366.9004" y2="366.9004"/><text fill="#000000" font-family="sans-serif" font-size="13" font-weight="bold" lengthAdjust="spacing" textLength="7" x="776.5" y="361.6377">8</text><text fill="#000000" font-family="sans-serif" font-size="13" lengthAdjust="spacing" textLength="163" x="787.5" y="361.6377">getPropertySaleRepository()</text><polygon fill="#181818" points="1167.5,394.1914,1177.5,398.1914,1167.5,402.1914,1171.5,398.1914" style="stroke:#181818;stroke-width:1.0;"/><line style="stroke:#181818;stroke-width:1.0;" x1="979.5" x2="1173.5" y1="398.1914" y2="398.1914"/><text fill="#000000" font-family="sans-serif" font-size="13" font-weight="bold" lengthAdjust="spacing" textLength="7" x="986.5" y="392.9287">9</text><text fill="#000000" font-family="sans-serif" font-size="13" lengthAdjust="spacing" textLength="163" x="997.5" y="392.9287">getPropertySaleRepository()</text><polygon fill="#181818" points="990.5,425.4824,980.5,429.4824,990.5,433.4824,986.5,429.4824" style="stroke:#181818;stroke-width:1.0;"/><line style="stroke:#181818;stroke-width:1.0;stroke-dasharray:2.0,2.0;" x1="984.5" x2="1183.5" y1="429.4824" y2="429.4824"/><text fill="#000000" font-family="sans-serif" font-size="13" font-weight="bold" lengthAdjust="spacing" textLength="14" x="996.5" y="424.2197">10</text><text fill="#000000" font-family="sans-serif" font-size="13" lengthAdjust="spacing" textLength="137" x="1014.5" y="424.2197">PropertySaleRepository</text><polygon fill="#181818" points="780.5,456.7734,770.5,460.7734,780.5,464.7734,776.5,460.7734" style="stroke:#181818;stroke-width:1.0;"/><line style="stroke:#181818;stroke-width:1.0;stroke-dasharray:2.0,2.0;" x1="774.5" x2="973.5" y1="460.7734" y2="460.7734"/><text fill="#000000" font-family="sans-serif" font-size="13" font-weight="bold" lengthAdjust="spacing" textLength="14" x="786.5" y="455.5107">11</text><text fill="#000000" font-family="sans-serif" font-size="13" lengthAdjust="spacing" textLength="137" x="804.5" y="455.5107">PropertySaleRepository</text><polygon fill="#181818" points="1310,488.0645,1320,492.0645,1310,496.0645,1314,492.0645" style="stroke:#181818;stroke-width:1.0;"/><line style="stroke:#181818;stroke-width:1.0;" x1="769.5" x2="1316" y1="492.0645" y2="492.0645"/><text fill="#000000" font-family="sans-serif" font-size="13" font-weight="bold" lengthAdjust="spacing" textLength="14" x="776.5" y="486.8018">12</text><text fill="#000000" font-family="sans-serif" font-size="13" lengthAdjust="spacing" textLength="180" x="794.5" y="486.8018">listProperties(sortFilterOptions)</text><polygon fill="#181818" points="780.5,519.3555,770.5,523.3555,780.5,527.3555,776.5,523.3555" style="stroke:#181818;stroke-width:1.0;"/><line style="stroke:#181818;stroke-width:1.0;stroke-dasharray:2.0,2.0;" x1="774.5" x2="1326" y1="523.3555" y2="523.3555"/><text fill="#000000" font-family="sans-serif" font-size="13" font-weight="bold" lengthAdjust="spacing" textLength="14" x="786.5" y="518.0928">13</text><text fill="#000000" font-family="sans-serif" font-size="13" lengthAdjust="spacing" textLength="68" x="804.5" y="518.0928">propertyList</text><polygon fill="#181818" points="549.5,550.6465,539.5,554.6465,549.5,558.6465,545.5,554.6465" style="stroke:#181818;stroke-width:1.0;"/><line style="stroke:#181818;stroke-width:1.0;stroke-dasharray:2.0,2.0;" x1="543.5" x2="763.5" y1="554.6465" y2="554.6465"/><text fill="#000000" font-family="sans-serif" font-size="13" font-weight="bold" lengthAdjust="spacing" textLength="14" x="555.5" y="549.3838">14</text><text fill="#000000" font-family="sans-serif" font-size="13" lengthAdjust="spacing" textLength="68" x="573.5" y="549.3838">propertyList</text><polygon fill="#181818" points="1426,581.9375,1436,585.9375,1426,589.9375,1430,585.9375" style="stroke:#181818;stroke-width:1.0;"/><line style="stroke:#181818;stroke-width:1.0;" x1="538.5" x2="1432" y1="585.9375" y2="585.9375"/><text fill="#000000" font-family="sans-serif" font-size="13" font-weight="bold" lengthAdjust="spacing" textLength="14" x="545.5" y="580.6748">15</text><text fill="#000000" font-family="sans-serif" font-size="13" lengthAdjust="spacing" textLength="370" x="563.5" y="580.6748">showPropertySalelist(propertyList, getPrompt(sortFilterOptions))</text><polygon fill="#181818" points="549.5,630.5195,539.5,634.5195,549.5,638.5195,545.5,634.5195" style="stroke:#181818;stroke-width:1.0;"/><line style="stroke:#181818;stroke-width:1.0;stroke-dasharray:2.0,2.0;" x1="543.5" x2="1442" y1="634.5195" y2="634.5195"/><text fill="#000000" font-family="sans-serif" font-size="13" font-weight="bold" lengthAdjust="spacing" textLength="14" x="555.5" y="620.6113">16</text><text fill="#000000" font-family="sans-serif" font-size="13" lengthAdjust="spacing" textLength="300" x="573.5" y="611.9658">display the listed properties sorted by most recently</text><text fill="#000000" font-family="sans-serif" font-size="13" lengthAdjust="spacing" textLength="236" x="573.5" y="629.2568">added and the options sort, filter and exit</text><polygon fill="#181818" points="89.5,679.1016,79.5,683.1016,89.5,687.1016,85.5,683.1016" style="stroke:#181818;stroke-width:1.0;"/><line style="stroke:#181818;stroke-width:1.0;stroke-dasharray:2.0,2.0;" x1="83.5" x2="532.5" y1="683.1016" y2="683.1016"/><text fill="#000000" font-family="sans-serif" font-size="13" font-weight="bold" lengthAdjust="spacing" textLength="14" x="95.5" y="669.1934">17</text><text fill="#000000" font-family="sans-serif" font-size="13" lengthAdjust="spacing" textLength="300" x="113.5" y="660.5479">display the listed properties sorted by most recently</text><text fill="#000000" font-family="sans-serif" font-size="13" lengthAdjust="spacing" textLength="236" x="117.5" y="677.8389">added and the options sort, filter and exit</text><path d="M10,698.1016 L83,698.1016 L83,707.3926 L73,717.3926 L10,717.3926 L10,698.1016 " fill="#EEEEEE" style="stroke:#000000;stroke-width:1.5;"/><rect fill="none" height="1312.8047" style="stroke:#000000;stroke-width:1.5;" width="1475" x="10" y="698.1016"/><text fill="#000000" font-family="sans-serif" font-size="13" font-weight="bold" lengthAdjust="spacing" textLength="28" x="25" y="713.1299">loop</text><text fill="#000000" font-family="sans-serif" font-size="11" font-weight="bold" lengthAdjust="spacing" textLength="142" x="98" y="711.9717">[until user selects to exit]</text><path d="M20,724.3926 L85,724.3926 L85,733.6836 L75,743.6836 L20,743.6836 L20,724.3926 " fill="#EEEEEE" style="stroke:#000000;stroke-width:1.5;"/><rect fill="none" height="679.6934" style="stroke:#000000;stroke-width:1.5;" width="1455" x="20" y="724.3926"/><text fill="#000000" font-family="sans-serif" font-size="13" font-weight="bold" lengthAdjust="spacing" textLength="20" x="35" y="739.4209">opt</text><text fill="#000000" font-family="sans-serif" font-size="11" font-weight="bold" lengthAdjust="spacing" textLength="92" x="100" y="738.2627">[selects to filter]</text><polygon fill="#181818" points="516.5,762.9746,526.5,766.9746,516.5,770.9746,520.5,766.9746" style="stroke:#181818;stroke-width:1.0;"/><line style="stroke:#181818;stroke-width:1.0;" x1="78.5" x2="522.5" y1="766.9746" y2="766.9746"/><text fill="#000000" font-family="sans-serif" font-size="13" font-weight="bold" lengthAdjust="spacing" textLength="14" x="85.5" y="761.7119">18</text><text fill="#000000" font-family="sans-serif" font-size="13" lengthAdjust="spacing" textLength="73" x="103.5" y="761.7119">Selects data</text><polygon fill="#181818" points="89.5,794.2656,79.5,798.2656,89.5,802.2656,85.5,798.2656" style="stroke:#181818;stroke-width:1.0;"/><line style="stroke:#181818;stroke-width:1.0;stroke-dasharray:2.0,2.0;" x1="83.5" x2="527.5" y1="798.2656" y2="798.2656"/><text fill="#000000" font-family="sans-serif" font-size="13" font-weight="bold" lengthAdjust="spacing" textLength="14" x="95.5" y="793.0029">19</text><text fill="#000000" font-family="sans-serif" font-size="13" lengthAdjust="spacing" textLength="279" x="113.5" y="793.0029">display the property business types (rent or sell)</text><polygon fill="#181818" points="516.5,825.5566,526.5,829.5566,516.5,833.5566,520.5,829.5566" style="stroke:#181818;stroke-width:1.0;"/><line style="stroke:#181818;stroke-width:1.0;" x1="78.5" x2="522.5" y1="829.5566" y2="829.5566"/><text fill="#000000" font-family="sans-serif" font-size="13" font-weight="bold" lengthAdjust="spacing" textLength="14" x="85.5" y="824.2939">20</text><text fill="#000000" font-family="sans-serif" font-size="13" lengthAdjust="spacing" textLength="104" x="103.5" y="824.2939">selects one or not</text><polygon fill="#181818" points="89.5,856.8477,79.5,860.8477,89.5,864.8477,85.5,860.8477" style="stroke:#181818;stroke-width:1.0;"/><line style="stroke:#181818;stroke-width:1.0;stroke-dasharray:2.0,2.0;" x1="83.5" x2="527.5" y1="860.8477" y2="860.8477"/><text fill="#000000" font-family="sans-serif" font-size="13" font-weight="bold" lengthAdjust="spacing" textLength="14" x="95.5" y="855.585">21</text><text fill="#000000" font-family="sans-serif" font-size="13" lengthAdjust="spacing" textLength="306" x="113.5" y="855.585">display the property types (land, apartment or house)</text><polygon fill="#181818" points="516.5,888.1387,526.5,892.1387,516.5,896.1387,520.5,892.1387" style="stroke:#181818;stroke-width:1.0;"/><line style="stroke:#181818;stroke-width:1.0;" x1="78.5" x2="522.5" y1="892.1387" y2="892.1387"/><text fill="#000000" font-family="sans-serif" font-size="13" font-weight="bold" lengthAdjust="spacing" textLength="14" x="85.5" y="886.876">22</text><text fill="#000000" font-family="sans-serif" font-size="13" lengthAdjust="spacing" textLength="104" x="103.5" y="886.876">selects one or not</text><polygon fill="#181818" points="89.5,919.4297,79.5,923.4297,89.5,927.4297,85.5,923.4297" style="stroke:#181818;stroke-width:1.0;"/><line style="stroke:#181818;stroke-width:1.0;stroke-dasharray:2.0,2.0;" x1="83.5" x2="527.5" y1="923.4297" y2="923.4297"/><text fill="#000000" font-family="sans-serif" font-size="13" font-weight="bold" lengthAdjust="spacing" textLength="14" x="95.5" y="918.167">23</text><text fill="#000000" font-family="sans-serif" font-size="13" lengthAdjust="spacing" textLength="217" x="113.5" y="918.167">requests to type the number of rooms</text><polygon fill="#181818" points="516.5,950.7207,526.5,954.7207,516.5,958.7207,520.5,954.7207" style="stroke:#181818;stroke-width:1.0;"/><line style="stroke:#181818;stroke-width:1.0;" x1="78.5" x2="522.5" y1="954.7207" y2="954.7207"/><text fill="#000000" font-family="sans-serif" font-size="13" font-weight="bold" lengthAdjust="spacing" textLength="14" x="85.5" y="949.458">24</text><text fill="#000000" font-family="sans-serif" font-size="13" lengthAdjust="spacing" textLength="122" x="103.5" y="949.458">types requested data</text><polygon fill="#181818" points="747.5,982.0117,757.5,986.0117,747.5,990.0117,751.5,986.0117" style="stroke:#181818;stroke-width:1.0;"/><line style="stroke:#181818;stroke-width:1.0;" x1="538.5" x2="753.5" y1="986.0117" y2="986.0117"/><text fill="#000000" font-family="sans-serif" font-size="13" font-weight="bold" lengthAdjust="spacing" textLength="14" x="545.5" y="980.749">25</text><text fill="#000000" font-family="sans-serif" font-size="13" lengthAdjust="spacing" textLength="184" x="563.5" y="980.749">ListProperties(sortFilterOptions)</text><polygon fill="#181818" points="957.5,1013.3027,967.5,1017.3027,957.5,1021.3027,961.5,1017.3027" style="stroke:#181818;stroke-width:1.0;"/><line style="stroke:#181818;stroke-width:1.0;" x1="769.5" x2="963.5" y1="1017.3027" y2="1017.3027"/><text fill="#000000" font-family="sans-serif" font-size="13" font-weight="bold" lengthAdjust="spacing" textLength="14" x="776.5" y="1012.04">26</text><text fill="#000000" font-family="sans-serif" font-size="13" lengthAdjust="spacing" textLength="75" x="794.5" y="1012.04">getInstance()</text><polygon fill="#181818" points="780.5,1044.5938,770.5,1048.5938,780.5,1052.5938,776.5,1048.5938" style="stroke:#181818;stroke-width:1.0;"/><line style="stroke:#181818;stroke-width:1.0;stroke-dasharray:2.0,2.0;" x1="774.5" x2="973.5" y1="1048.5938" y2="1048.5938"/><text fill="#000000" font-family="sans-serif" font-size="13" font-weight="bold" lengthAdjust="spacing" textLength="14" x="786.5" y="1043.3311">27</text><text fill="#000000" font-family="sans-serif" font-size="13" lengthAdjust="spacing" textLength="67" x="804.5" y="1043.3311">repositories</text><polygon fill="#181818" points="957.5,1075.8848,967.5,1079.8848,957.5,1083.8848,961.5,1079.8848" style="stroke:#181818;stroke-width:1.0;"/><line style="stroke:#181818;stroke-width:1.0;" x1="769.5" x2="963.5" y1="1079.8848" y2="1079.8848"/><text fill="#000000" font-family="sans-serif" font-size="13" font-weight="bold" lengthAdjust="spacing" textLength="14" x="776.5" y="1074.6221">28</text><text fill="#000000" font-family="sans-serif" font-size="13" lengthAdjust="spacing" textLength="163" x="794.5" y="1074.6221">getPropertySaleRepository()</text><polygon fill="#181818" points="1167.5,1107.1758,1177.5,1111.1758,1167.5,1115.1758,1171.5,1111.1758" style="stroke:#181818;stroke-width:1.0;"/><line style="stroke:#181818;stroke-width:1.0;" x1="979.5" x2="1173.5" y1="1111.1758" y2="1111.1758"/><text fill="#000000" font-family="sans-serif" font-size="13" font-weight="bold" lengthAdjust="spacing" textLength="14" x="986.5" y="1105.9131">29</text><text fill="#000000" font-family="sans-serif" font-size="13" lengthAdjust="spacing" textLength="163" x="1004.5" y="1105.9131">getPropertySaleRepository()</text><polygon fill="#181818" points="990.5,1138.4668,980.5,1142.4668,990.5,1146.4668,986.5,1142.4668" style="stroke:#181818;stroke-width:1.0;"/><line style="stroke:#181818;stroke-width:1.0;stroke-dasharray:2.0,2.0;" x1="984.5" x2="1183.5" y1="1142.4668" y2="1142.4668"/><text fill="#000000" font-family="sans-serif" font-size="13" font-weight="bold" lengthAdjust="spacing" textLength="14" x="996.5" y="1137.2041">30</text><text fill="#000000" font-family="sans-serif" font-size="13" lengthAdjust="spacing" textLength="137" x="1014.5" y="1137.2041">PropertySaleRepository</text><polygon fill="#181818" points="780.5,1169.7578,770.5,1173.7578,780.5,1177.7578,776.5,1173.7578" style="stroke:#181818;stroke-width:1.0;"/><line style="stroke:#181818;stroke-width:1.0;stroke-dasharray:2.0,2.0;" x1="774.5" x2="973.5" y1="1173.7578" y2="1173.7578"/><text fill="#000000" font-family="sans-serif" font-size="13" font-weight="bold" lengthAdjust="spacing" textLength="14" x="786.5" y="1168.4951">31</text><text fill="#000000" font-family="sans-serif" font-size="13" lengthAdjust="spacing" textLength="137" x="804.5" y="1168.4951">PropertySaleRepository</text><polygon fill="#181818" points="1310,1201.0488,1320,1205.0488,1310,1209.0488,1314,1205.0488" style="stroke:#181818;stroke-width:1.0;"/><line style="stroke:#181818;stroke-width:1.0;" x1="769.5" x2="1316" y1="1205.0488" y2="1205.0488"/><text fill="#000000" font-family="sans-serif" font-size="13" font-weight="bold" lengthAdjust="spacing" textLength="14" x="776.5" y="1199.7861">32</text><text fill="#000000" font-family="sans-serif" font-size="13" lengthAdjust="spacing" textLength="180" x="794.5" y="1199.7861">listProperties(sortFilterOptions)</text><polygon fill="#181818" points="780.5,1232.3398,770.5,1236.3398,780.5,1240.3398,776.5,1236.3398" style="stroke:#181818;stroke-width:1.0;"/><line style="stroke:#181818;stroke-width:1.0;stroke-dasharray:2.0,2.0;" x1="774.5" x2="1326" y1="1236.3398" y2="1236.3398"/><text fill="#000000" font-family="sans-serif" font-size="13" font-weight="bold" lengthAdjust="spacing" textLength="14" x="786.5" y="1231.0771">33</text><text fill="#000000" font-family="sans-serif" font-size="13" lengthAdjust="spacing" textLength="68" x="804.5" y="1231.0771">propertyList</text><polygon fill="#181818" points="549.5,1263.6309,539.5,1267.6309,549.5,1271.6309,545.5,1267.6309" style="stroke:#181818;stroke-width:1.0;"/><line style="stroke:#181818;stroke-width:1.0;stroke-dasharray:2.0,2.0;" x1="543.5" x2="763.5" y1="1267.6309" y2="1267.6309"/><text fill="#000000" font-family="sans-serif" font-size="13" font-weight="bold" lengthAdjust="spacing" textLength="14" x="555.5" y="1262.3682">34</text><text fill="#000000" font-family="sans-serif" font-size="13" lengthAdjust="spacing" textLength="68" x="573.5" y="1262.3682">propertyList</text><polygon fill="#181818" points="1426,1294.9219,1436,1298.9219,1426,1302.9219,1430,1298.9219" style="stroke:#181818;stroke-width:1.0;"/><line style="stroke:#181818;stroke-width:1.0;" x1="538.5" x2="1432" y1="1298.9219" y2="1298.9219"/><text fill="#000000" font-family="sans-serif" font-size="13" font-weight="bold" lengthAdjust="spacing" textLength="14" x="545.5" y="1293.6592">35</text><text fill="#000000" font-family="sans-serif" font-size="13" lengthAdjust="spacing" textLength="370" x="563.5" y="1293.6592">showPropertySalelist(propertyList, getPrompt(sortFilterOptions))</text><polygon fill="#181818" points="549.5,1343.5039,539.5,1347.5039,549.5,1351.5039,545.5,1347.5039" style="stroke:#181818;stroke-width:1.0;"/><line style="stroke:#181818;stroke-width:1.0;stroke-dasharray:2.0,2.0;" x1="543.5" x2="1442" y1="1347.5039" y2="1347.5039"/><text fill="#000000" font-family="sans-serif" font-size="13" font-weight="bold" lengthAdjust="spacing" textLength="14" x="555.5" y="1333.5957">36</text><text fill="#000000" font-family="sans-serif" font-size="13" lengthAdjust="spacing" textLength="300" x="573.5" y="1324.9502">display the listed properties sorted by most recently</text><text fill="#000000" font-family="sans-serif" font-size="13" lengthAdjust="spacing" textLength="408" x="573.5" y="1342.2412">added, filttered as the user selected and the options sort, filter and exit</text><polygon fill="#181818" points="89.5,1392.0859,79.5,1396.0859,89.5,1400.0859,85.5,1396.0859" style="stroke:#181818;stroke-width:1.0;"/><line style="stroke:#181818;stroke-width:1.0;stroke-dasharray:2.0,2.0;" x1="83.5" x2="532.5" y1="1396.0859" y2="1396.0859"/><text fill="#000000" font-family="sans-serif" font-size="13" font-weight="bold" lengthAdjust="spacing" textLength="14" x="95.5" y="1382.1777">37</text><text fill="#000000" font-family="sans-serif" font-size="13" lengthAdjust="spacing" textLength="300" x="113.5" y="1373.5322">display the listed properties sorted by most recently</text><text fill="#000000" font-family="sans-serif" font-size="13" lengthAdjust="spacing" textLength="408" x="113.5" y="1390.8232">added, filttered as the user selected and the options sort, filter and exit</text><path d="M20,1418.0859 L85,1418.0859 L85,1427.377 L75,1437.377 L20,1437.377 L20,1418.0859 " fill="#EEEEEE" style="stroke:#000000;stroke-width:1.5;"/><rect fill="none" height="585.8203" style="stroke:#000000;stroke-width:1.5;" width="1455" x="20" y="1418.0859"/><text fill="#000000" font-family="sans-serif" font-size="13" font-weight="bold" lengthAdjust="spacing" textLength="20" x="35" y="1433.1143">opt</text><text fill="#000000" font-family="sans-serif" font-size="11" font-weight="bold" lengthAdjust="spacing" textLength="89" x="100" y="1431.9561">[selects to sort]</text><polygon fill="#181818" points="516.5,1456.668,526.5,1460.668,516.5,1464.668,520.5,1460.668" style="stroke:#181818;stroke-width:1.0;"/><line style="stroke:#181818;stroke-width:1.0;" x1="78.5" x2="522.5" y1="1460.668" y2="1460.668"/><text fill="#000000" font-family="sans-serif" font-size="13" font-weight="bold" lengthAdjust="spacing" textLength="14" x="85.5" y="1455.4053">38</text><text fill="#000000" font-family="sans-serif" font-size="13" lengthAdjust="spacing" textLength="71" x="103.5" y="1455.4053">selects data</text><polygon fill="#181818" points="89.5,1487.959,79.5,1491.959,89.5,1495.959,85.5,1491.959" style="stroke:#181818;stroke-width:1.0;"/><line style="stroke:#181818;stroke-width:1.0;stroke-dasharray:2.0,2.0;" x1="83.5" x2="527.5" y1="1491.959" y2="1491.959"/><text fill="#000000" font-family="sans-serif" font-size="13" font-weight="bold" lengthAdjust="spacing" textLength="14" x="95.5" y="1486.6963">39</text><text fill="#000000" font-family="sans-serif" font-size="13" lengthAdjust="spacing" textLength="395" x="113.5" y="1486.6963">display the sort options (by price, by city or by most recently added)</text><polygon fill="#181818" points="516.5,1519.25,526.5,1523.25,516.5,1527.25,520.5,1523.25" style="stroke:#181818;stroke-width:1.0;"/><line style="stroke:#181818;stroke-width:1.0;" x1="78.5" x2="522.5" y1="1523.25" y2="1523.25"/><text fill="#000000" font-family="sans-serif" font-size="13" font-weight="bold" lengthAdjust="spacing" textLength="14" x="85.5" y="1517.9873">40</text><text fill="#000000" font-family="sans-serif" font-size="13" lengthAdjust="spacing" textLength="104" x="103.5" y="1517.9873">selects one or not</text><polygon fill="#181818" points="752.5,1550.541,762.5,1554.541,752.5,1558.541,756.5,1554.541" style="stroke:#181818;stroke-width:1.0;"/><line style="stroke:#181818;stroke-width:1.0;" x1="538.5" x2="758.5" y1="1554.541" y2="1554.541"/><text fill="#000000" font-family="sans-serif" font-size="13" font-weight="bold" lengthAdjust="spacing" textLength="14" x="545.5" y="1549.2783">41</text><text fill="#000000" font-family="sans-serif" font-size="13" lengthAdjust="spacing" textLength="184" x="563.5" y="1549.2783">ListProperties(short sortCriteria)</text><polygon fill="#181818" points="747.5,1581.832,757.5,1585.832,747.5,1589.832,751.5,1585.832" style="stroke:#181818;stroke-width:1.0;"/><line style="stroke:#181818;stroke-width:1.0;" x1="538.5" x2="753.5" y1="1585.832" y2="1585.832"/><text fill="#000000" font-family="sans-serif" font-size="13" font-weight="bold" lengthAdjust="spacing" textLength="14" x="545.5" y="1580.5693">42</text><text fill="#000000" font-family="sans-serif" font-size="13" lengthAdjust="spacing" textLength="184" x="563.5" y="1580.5693">ListProperties(sortFilterOptions)</text><polygon fill="#181818" points="957.5,1613.123,967.5,1617.123,957.5,1621.123,961.5,1617.123" style="stroke:#181818;stroke-width:1.0;"/><line style="stroke:#181818;stroke-width:1.0;" x1="769.5" x2="963.5" y1="1617.123" y2="1617.123"/><text fill="#000000" font-family="sans-serif" font-size="13" font-weight="bold" lengthAdjust="spacing" textLength="14" x="776.5" y="1611.8604">43</text><text fill="#000000" font-family="sans-serif" font-size="13" lengthAdjust="spacing" textLength="75" x="794.5" y="1611.8604">getInstance()</text><polygon fill="#181818" points="780.5,1644.4141,770.5,1648.4141,780.5,1652.4141,776.5,1648.4141" style="stroke:#181818;stroke-width:1.0;"/><line style="stroke:#181818;stroke-width:1.0;stroke-dasharray:2.0,2.0;" x1="774.5" x2="973.5" y1="1648.4141" y2="1648.4141"/><text fill="#000000" font-family="sans-serif" font-size="13" font-weight="bold" lengthAdjust="spacing" textLength="14" x="786.5" y="1643.1514">44</text><text fill="#000000" font-family="sans-serif" font-size="13" lengthAdjust="spacing" textLength="67" x="804.5" y="1643.1514">repositories</text><polygon fill="#181818" points="957.5,1675.7051,967.5,1679.7051,957.5,1683.7051,961.5,1679.7051" style="stroke:#181818;stroke-width:1.0;"/><line style="stroke:#181818;stroke-width:1.0;" x1="769.5" x2="963.5" y1="1679.7051" y2="1679.7051"/><text fill="#000000" font-family="sans-serif" font-size="13" font-weight="bold" lengthAdjust="spacing" textLength="14" x="776.5" y="1674.4424">45</text><text fill="#000000" font-family="sans-serif" font-size="13" lengthAdjust="spacing" textLength="163" x="794.5" y="1674.4424">getPropertySaleRepository()</text><polygon fill="#181818" points="1167.5,1706.9961,1177.5,1710.9961,1167.5,1714.9961,1171.5,1710.9961" style="stroke:#181818;stroke-width:1.0;"/><line style="stroke:#181818;stroke-width:1.0;" x1="979.5" x2="1173.5" y1="1710.9961" y2="1710.9961"/><text fill="#000000" font-family="sans-serif" font-size="13" font-weight="bold" lengthAdjust="spacing" textLength="14" x="986.5" y="1705.7334">46</text><text fill="#000000" font-family="sans-serif" font-size="13" lengthAdjust="spacing" textLength="163" x="1004.5" y="1705.7334">getPropertySaleRepository()</text><polygon fill="#181818" points="990.5,1738.2871,980.5,1742.2871,990.5,1746.2871,986.5,1742.2871" style="stroke:#181818;stroke-width:1.0;"/><line style="stroke:#181818;stroke-width:1.0;stroke-dasharray:2.0,2.0;" x1="984.5" x2="1183.5" y1="1742.2871" y2="1742.2871"/><text fill="#000000" font-family="sans-serif" font-size="13" font-weight="bold" lengthAdjust="spacing" textLength="14" x="996.5" y="1737.0244">47</text><text fill="#000000" font-family="sans-serif" font-size="13" lengthAdjust="spacing" textLength="137" x="1014.5" y="1737.0244">PropertySaleRepository</text><polygon fill="#181818" points="780.5,1769.5781,770.5,1773.5781,780.5,1777.5781,776.5,1773.5781" style="stroke:#181818;stroke-width:1.0;"/><line style="stroke:#181818;stroke-width:1.0;stroke-dasharray:2.0,2.0;" x1="774.5" x2="973.5" y1="1773.5781" y2="1773.5781"/><text fill="#000000" font-family="sans-serif" font-size="13" font-weight="bold" lengthAdjust="spacing" textLength="14" x="786.5" y="1768.3154">48</text><text fill="#000000" font-family="sans-serif" font-size="13" lengthAdjust="spacing" textLength="137" x="804.5" y="1768.3154">PropertySaleRepository</text><polygon fill="#181818" points="1310,1800.8691,1320,1804.8691,1310,1808.8691,1314,1804.8691" style="stroke:#181818;stroke-width:1.0;"/><line style="stroke:#181818;stroke-width:1.0;" x1="769.5" x2="1316" y1="1804.8691" y2="1804.8691"/><text fill="#000000" font-family="sans-serif" font-size="13" font-weight="bold" lengthAdjust="spacing" textLength="14" x="776.5" y="1799.6064">49</text><text fill="#000000" font-family="sans-serif" font-size="13" lengthAdjust="spacing" textLength="180" x="794.5" y="1799.6064">listProperties(sortFilterOptions)</text><polygon fill="#181818" points="780.5,1832.1602,770.5,1836.1602,780.5,1840.1602,776.5,1836.1602" style="stroke:#181818;stroke-width:1.0;"/><line style="stroke:#181818;stroke-width:1.0;stroke-dasharray:2.0,2.0;" x1="774.5" x2="1326" y1="1836.1602" y2="1836.1602"/><text fill="#000000" font-family="sans-serif" font-size="13" font-weight="bold" lengthAdjust="spacing" textLength="14" x="786.5" y="1830.8975">50</text><text fill="#000000" font-family="sans-serif" font-size="13" lengthAdjust="spacing" textLength="68" x="804.5" y="1830.8975">propertyList</text><polygon fill="#181818" points="549.5,1863.4512,539.5,1867.4512,549.5,1871.4512,545.5,1867.4512" style="stroke:#181818;stroke-width:1.0;"/><line style="stroke:#181818;stroke-width:1.0;stroke-dasharray:2.0,2.0;" x1="543.5" x2="763.5" y1="1867.4512" y2="1867.4512"/><text fill="#000000" font-family="sans-serif" font-size="13" font-weight="bold" lengthAdjust="spacing" textLength="14" x="555.5" y="1862.1885">51</text><text fill="#000000" font-family="sans-serif" font-size="13" lengthAdjust="spacing" textLength="68" x="573.5" y="1862.1885">propertyList</text><polygon fill="#181818" points="1426,1894.7422,1436,1898.7422,1426,1902.7422,1430,1898.7422" style="stroke:#181818;stroke-width:1.0;"/><line style="stroke:#181818;stroke-width:1.0;" x1="538.5" x2="1432" y1="1898.7422" y2="1898.7422"/><text fill="#000000" font-family="sans-serif" font-size="13" font-weight="bold" lengthAdjust="spacing" textLength="14" x="545.5" y="1893.4795">52</text><text fill="#000000" font-family="sans-serif" font-size="13" lengthAdjust="spacing" textLength="370" x="563.5" y="1893.4795">showPropertySalelist(propertyList, getPrompt(sortFilterOptions))</text><polygon fill="#181818" points="549.5,1943.3242,539.5,1947.3242,549.5,1951.3242,545.5,1947.3242" style="stroke:#181818;stroke-width:1.0;"/><line style="stroke:#181818;stroke-width:1.0;stroke-dasharray:2.0,2.0;" x1="543.5" x2="1442" y1="1947.3242" y2="1947.3242"/><text fill="#000000" font-family="sans-serif" font-size="13" font-weight="bold" lengthAdjust="spacing" textLength="14" x="555.5" y="1933.416">53</text><text fill="#000000" font-family="sans-serif" font-size="13" lengthAdjust="spacing" textLength="199" x="573.5" y="1924.7705">display the listed properties sorted</text><text fill="#000000" font-family="sans-serif" font-size="13" lengthAdjust="spacing" textLength="319" x="573.5" y="1942.0615">as the user selected and the options sort, filter and exit</text><polygon fill="#181818" points="89.5,1991.9063,79.5,1995.9063,89.5,1999.9063,85.5,1995.9063" style="stroke:#181818;stroke-width:1.0;"/><line style="stroke:#181818;stroke-width:1.0;stroke-dasharray:2.0,2.0;" x1="83.5" x2="532.5" y1="1995.9063" y2="1995.9063"/><text fill="#000000" font-family="sans-serif" font-size="13" font-weight="bold" lengthAdjust="spacing" textLength="14" x="95.5" y="1981.998">54</text><text fill="#000000" font-family="sans-serif" font-size="13" lengthAdjust="spacing" textLength="199" x="113.5" y="1973.3525">display the listed properties sorted</text><text fill="#000000" font-family="sans-serif" font-size="13" lengthAdjust="spacing" textLength="319" x="113.5" y="1990.6436">as the user selected and the options sort, filter and exit</text><!--SRC=[xPZFRk8m4CRlUGghbuKLl027NggkXDJLegRSUZ795AmQEsixs_BsEtPIS88J9MdAOHUEyNZccy__VaA_Cf5HHVTaBuLCTahkWHYLGwIF8nbDNkaMOdFWG1GaXeejzmFqZgRoZOajUQ5SGnJHt4YHxpUWekZRZgL0NgGq6_aUqSH8HMxMGi6MQGCAqcUnrg1k2DLa7KUOqR24PLGOShDOAPc1CeUOSdZ0-9yWyicqY5tMOkru6Sz0tqbXbEIyp7ptzFXGYt-4J6g6SZ3QnHm_769cEyGUgbEKD-DP11BShweJCa_-AVi2vww28ovBUAWcVcqOBugkdvOFSMIDPN-e0UjXHChVEYRpMtIAB8W6ZYkdYP4aPJhZz43C3WYtYv2IxEZRQV8fu_BqqMLTsgpMqU_VCNEY0AEQGZ1W2oQMolnW7DVxLsQO57eohSGVQxbrgWov9FDZ6_L4bTWKMX9LD5Kto-GiRMTv9ucteGrKjByK6WzD0hMkAwb3k-yislv2LUPbPmlYxz6pwPu_dSgrDERw2c_Lh-lorXwnVfMhrV60XglThvo7mKOR3cIRkQ4wxUise4XNA-kh6Iw5EvNtEXIDBZUqqZgvGTFyT68_xb9xSbjJUHODKLAzRofLkvODtnBdTv6xkksbjfDllbIx3XE_ygpSyllC15QbuxAK3qMhB2Ves7phG-6kOlooEI0wQ6F108JXXsT1qnI_Kv6wYR9GwS9dvCKfTuFmpZelPAazQlFJgew7goPZoFObuwl9fSn8Bl2j9ZaoZly8kpJD3M5vFxge7qMr6Txx7fV1AJKq_7Q5dl6GPnyRZsnopGHe5738qBc9GgU8T5tmQQEG3zLIW0qMqlGiMrRZQFQCK8iz-xBmJgABurHMy3i7NPXh2pe91R8I-KAKb7lTMAXGMAR0FUCy7uirchd37-bqqG_XaSwlTcSrdsIM7g_V60RrfuiBkJMGVHevg9-Y4VYeXPKwQnc5eRvYHrsGi_emro3z8x9OFoxxXDj1NXkKhyvnWv9SaEzQM6-OzF4OiE0czoUF_QV2fl0mQ1H6REN5nlwZhcluIQQyj0ir_FI7GAIE7cjWQMlXrm15bI1PJTZaYKrpr3z18pB54fXPInA6J8SuLdUduErfkBY7SEqijRE5RVKxnT0kHZ7X5Rwky7M5hojyNU7h2b__0NmXPlpxRFNbJTRGAIg0gIaYhhFLNm00]--></g></svg>