<?xml version="1.0" encoding="us-ascii" standalone="no"?><svg xmlns="http://www.w3.org/2000/svg" xmlns:xlink="http://www.w3.org/1999/xlink" contentStyleType="text/css" height="605px" preserveAspectRatio="none" style="width:578px;height:605px;background:#FFFFFF;" version="1.1" viewBox="0 0 578 605" width="578px" zoomAndPan="magnify"><defs/><g><text fill="#000000" font-family="sans-serif" font-size="14" font-weight="bold" lengthAdjust="spacing" textLength="228" x="176.75" y="30.1074">System Sequence Diagram (SSD)</text><rect fill="#FFFFFF" height="380.4922" style="stroke:#181818;stroke-width:1.0;" width="10" x="36.5" y="133.2422"/><rect fill="#FFFFFF" height="31.291" style="stroke:#181818;stroke-width:1.0;" width="10" x="525.5" y="156.5332"/><rect fill="#FFFFFF" height="31.291" style="stroke:#181818;stroke-width:1.0;" width="10" x="525.5" y="219.1152"/><rect fill="#FFFFFF" height="31.291" style="stroke:#181818;stroke-width:1.0;" width="10" x="525.5" y="307.9883"/><rect fill="#FFFFFF" height="143.1641" style="stroke:#181818;stroke-width:1.0;" width="10" x="525.5" y="370.5703"/><rect fill="#FFFFFF" height="47.291" style="stroke:#181818;stroke-width:1.0;" width="10" x="530.5" y="466.4434"/><rect fill="none" height="144.4551" style="stroke:#000000;stroke-width:1.5;" width="562.5" x="10" y="265.4063"/><rect fill="none" height="81.873" style="stroke:#000000;stroke-width:1.5;" width="562.5" x="10" y="423.8613"/><line style="stroke:#181818;stroke-width:0.5;stroke-dasharray:5.0,5.0;" x1="41" x2="41" y1="123.2422" y2="522.7344"/><line style="stroke:#181818;stroke-width:0.5;stroke-dasharray:5.0,5.0;" x1="530.5" x2="530.5" y1="123.2422" y2="522.7344"/><text fill="#000000" font-family="sans-serif" font-size="14" lengthAdjust="spacing" textLength="37" x="20" y="119.7285">Agent</text><ellipse cx="41.5" cy="53.1211" fill="#E3E3E3" rx="8" ry="8" style="stroke:#181818;stroke-width:0.5;"/><path d="M41.5,61.1211 L41.5,88.1211 M28.5,69.1211 L54.5,69.1211 M41.5,88.1211 L28.5,103.1211 M41.5,88.1211 L54.5,103.1211 " fill="none" style="stroke:#181818;stroke-width:0.5;"/><text fill="#000000" font-family="sans-serif" font-size="14" lengthAdjust="spacing" textLength="37" x="20" y="536.8418">Agent</text><ellipse cx="41.5" cy="548.8555" fill="#E3E3E3" rx="8" ry="8" style="stroke:#181818;stroke-width:0.5;"/><path d="M41.5,556.8555 L41.5,583.8555 M28.5,564.8555 L54.5,564.8555 M41.5,583.8555 L28.5,598.8555 M41.5,583.8555 L54.5,598.8555 " fill="none" style="stroke:#181818;stroke-width:0.5;"/><rect fill="#E3E3E3" height="32.6211" rx="2.5" ry="2.5" style="stroke:#181818;stroke-width:0.5;" width="64" x="498.5" y="89.6211"/><text fill="#000000" font-family="sans-serif" font-size="14" lengthAdjust="spacing" textLength="50" x="505.5" y="111.7285">:System</text><rect fill="#E3E3E3" height="32.6211" rx="2.5" ry="2.5" style="stroke:#181818;stroke-width:0.5;" width="64" x="498.5" y="521.7344"/><text fill="#000000" font-family="sans-serif" font-size="14" lengthAdjust="spacing" textLength="50" x="505.5" y="543.8418">:System</text><rect fill="#FFFFFF" height="380.4922" style="stroke:#181818;stroke-width:1.0;" width="10" x="36.5" y="133.2422"/><rect fill="#FFFFFF" height="31.291" style="stroke:#181818;stroke-width:1.0;" width="10" x="525.5" y="156.5332"/><rect fill="#FFFFFF" height="31.291" style="stroke:#181818;stroke-width:1.0;" width="10" x="525.5" y="219.1152"/><rect fill="#FFFFFF" height="31.291" style="stroke:#181818;stroke-width:1.0;" width="10" x="525.5" y="307.9883"/><rect fill="#FFFFFF" height="143.1641" style="stroke:#181818;stroke-width:1.0;" width="10" x="525.5" y="370.5703"/><rect fill="#FFFFFF" height="47.291" style="stroke:#181818;stroke-width:1.0;" width="10" x="530.5" y="466.4434"/><polygon fill="#181818" points="513.5,152.5332,523.5,156.5332,513.5,160.5332,517.5,156.5332" style="stroke:#181818;stroke-width:1.0;"/><line style="stroke:#181818;stroke-width:1.0;" x1="46.5" x2="519.5" y1="156.5332" y2="156.5332"/><text fill="#000000" font-family="sans-serif" font-size="13" font-weight="bold" lengthAdjust="spacing" textLength="7" x="53.5" y="151.2705">1</text><text fill="#000000" font-family="sans-serif" font-size="13" lengthAdjust="spacing" textLength="275" x="64.5" y="151.2705">Requests to display all announcement requests</text><polygon fill="#181818" points="57.5,183.8242,47.5,187.8242,57.5,191.8242,53.5,187.8242" style="stroke:#181818;stroke-width:1.0;"/><line style="stroke:#181818;stroke-width:1.0;stroke-dasharray:2.0,2.0;" x1="51.5" x2="529.5" y1="187.8242" y2="187.8242"/><text fill="#000000" font-family="sans-serif" font-size="13" font-weight="bold" lengthAdjust="spacing" textLength="7" x="63.5" y="182.5615">2</text><text fill="#000000" font-family="sans-serif" font-size="13" lengthAdjust="spacing" textLength="210" x="74.5" y="182.5615">Display all announcements requests</text><polygon fill="#181818" points="513.5,215.1152,523.5,219.1152,513.5,223.1152,517.5,219.1152" style="stroke:#181818;stroke-width:1.0;"/><line style="stroke:#181818;stroke-width:1.0;" x1="46.5" x2="519.5" y1="219.1152" y2="219.1152"/><text fill="#000000" font-family="sans-serif" font-size="13" font-weight="bold" lengthAdjust="spacing" textLength="7" x="53.5" y="213.8525">3</text><text fill="#000000" font-family="sans-serif" font-size="13" lengthAdjust="spacing" textLength="205" x="64.5" y="213.8525">Selects one announcement request</text><polygon fill="#181818" points="57.5,246.4063,47.5,250.4063,57.5,254.4063,53.5,250.4063" style="stroke:#181818;stroke-width:1.0;"/><line style="stroke:#181818;stroke-width:1.0;stroke-dasharray:2.0,2.0;" x1="51.5" x2="529.5" y1="250.4063" y2="250.4063"/><text fill="#000000" font-family="sans-serif" font-size="13" font-weight="bold" lengthAdjust="spacing" textLength="7" x="63.5" y="245.1436">4</text><text fill="#000000" font-family="sans-serif" font-size="13" lengthAdjust="spacing" textLength="444" x="74.5" y="245.1436">Requests to select if the agent wants to accept or decline the announcement</text><path d="M10,265.4063 L71,265.4063 L71,274.6973 L61,284.6973 L10,284.6973 L10,265.4063 " fill="#EEEEEE" style="stroke:#000000;stroke-width:1.5;"/><rect fill="none" height="144.4551" style="stroke:#000000;stroke-width:1.5;" width="562.5" x="10" y="265.4063"/><text fill="#000000" font-family="sans-serif" font-size="13" font-weight="bold" lengthAdjust="spacing" textLength="16" x="25" y="280.4346">alt</text><text fill="#000000" font-family="sans-serif" font-size="11" font-weight="bold" lengthAdjust="spacing" textLength="167" x="86" y="279.2764">[if the agent selects to accept]</text><polygon fill="#181818" points="513.5,303.9883,523.5,307.9883,513.5,311.9883,517.5,307.9883" style="stroke:#181818;stroke-width:1.0;"/><line style="stroke:#181818;stroke-width:1.0;" x1="46.5" x2="519.5" y1="307.9883" y2="307.9883"/><text fill="#000000" font-family="sans-serif" font-size="13" font-weight="bold" lengthAdjust="spacing" textLength="7" x="53.5" y="302.7256">5</text><text fill="#000000" font-family="sans-serif" font-size="13" lengthAdjust="spacing" textLength="260" x="64.5" y="302.7256">Selects to accept the announcement request</text><polygon fill="#181818" points="57.5,335.2793,47.5,339.2793,57.5,343.2793,53.5,339.2793" style="stroke:#181818;stroke-width:1.0;"/><line style="stroke:#181818;stroke-width:1.0;stroke-dasharray:2.0,2.0;" x1="51.5" x2="529.5" y1="339.2793" y2="339.2793"/><text fill="#000000" font-family="sans-serif" font-size="13" font-weight="bold" lengthAdjust="spacing" textLength="7" x="63.5" y="334.0166">6</text><text fill="#000000" font-family="sans-serif" font-size="13" lengthAdjust="spacing" textLength="377" x="74.5" y="334.0166">Requests to select the comission type and to type the comission</text><polygon fill="#181818" points="513.5,366.5703,523.5,370.5703,513.5,374.5703,517.5,370.5703" style="stroke:#181818;stroke-width:1.0;"/><line style="stroke:#181818;stroke-width:1.0;" x1="46.5" x2="519.5" y1="370.5703" y2="370.5703"/><text fill="#000000" font-family="sans-serif" font-size="13" font-weight="bold" lengthAdjust="spacing" textLength="7" x="53.5" y="365.3076">7</text><text fill="#000000" font-family="sans-serif" font-size="13" lengthAdjust="spacing" textLength="217" x="64.5" y="365.3076">Selects and types the requested data</text><polygon fill="#181818" points="57.5,397.8613,47.5,401.8613,57.5,405.8613,53.5,401.8613" style="stroke:#181818;stroke-width:1.0;"/><line style="stroke:#181818;stroke-width:1.0;stroke-dasharray:2.0,2.0;" x1="51.5" x2="524.5" y1="401.8613" y2="401.8613"/><text fill="#000000" font-family="sans-serif" font-size="13" font-weight="bold" lengthAdjust="spacing" textLength="7" x="63.5" y="396.5986">8</text><text fill="#000000" font-family="sans-serif" font-size="13" lengthAdjust="spacing" textLength="140" x="74.5" y="396.5986">(in)Success of operation</text><path d="M10,423.8613 L71,423.8613 L71,433.1523 L61,443.1523 L10,443.1523 L10,423.8613 " fill="#EEEEEE" style="stroke:#000000;stroke-width:1.5;"/><rect fill="none" height="81.873" style="stroke:#000000;stroke-width:1.5;" width="562.5" x="10" y="423.8613"/><text fill="#000000" font-family="sans-serif" font-size="13" font-weight="bold" lengthAdjust="spacing" textLength="16" x="25" y="438.8896">alt</text><text fill="#000000" font-family="sans-serif" font-size="11" font-weight="bold" lengthAdjust="spacing" textLength="164" x="86" y="437.7314">[if the agent selects declines]</text><polygon fill="#181818" points="518.5,462.4434,528.5,466.4434,518.5,470.4434,522.5,466.4434" style="stroke:#181818;stroke-width:1.0;"/><line style="stroke:#181818;stroke-width:1.0;" x1="46.5" x2="524.5" y1="466.4434" y2="466.4434"/><text fill="#000000" font-family="sans-serif" font-size="13" font-weight="bold" lengthAdjust="spacing" textLength="7" x="53.5" y="461.1807">9</text><text fill="#000000" font-family="sans-serif" font-size="13" lengthAdjust="spacing" textLength="215" x="64.5" y="461.1807">Selects to decline the announcement</text><polygon fill="#181818" points="57.5,493.7344,47.5,497.7344,57.5,501.7344,53.5,497.7344" style="stroke:#181818;stroke-width:1.0;"/><line style="stroke:#181818;stroke-width:1.0;stroke-dasharray:2.0,2.0;" x1="51.5" x2="529.5" y1="497.7344" y2="497.7344"/><text fill="#000000" font-family="sans-serif" font-size="13" font-weight="bold" lengthAdjust="spacing" textLength="14" x="63.5" y="492.4717">10</text><text fill="#000000" font-family="sans-serif" font-size="13" lengthAdjust="spacing" textLength="140" x="81.5" y="492.4717">(in)Success of operation</text><!--SRC=[hLFDRi8m3BxtAImkWmFZpc7I99vWrHx0Iqs9I9EkTeVwzdFIGWiRFvFcGsN5plTZfqyxaPhNgrNjq4jRkMSJgXNJPqlUqBAmM3POPRotlaRDe0e-c5qJAW9fMffKQZHxB2cNpX4qP0HzwQODlCCY7AmlOOkEASl4YhRc7GjLa0-SiEavOPxdcqMMOIl1jzK7DPeR2GtCNaloCWDaU6SzLdInnjPg06Rh7YvL-pJUibyer7Td6MZ459OlH_8rl4Lw5WO9K5ZMSNI0pW5w7rgLLIcbkkgR4iG9Tg19Xp46pAN29vgrMleTaCyHOnHqYGlN9EVaTCeCmTElCjEjlqgTpe4J0TWjo4ufujJXWBuleZ5K2-W-2ZBEgeRKDD5nozCGen9q5qGyk3jHtPd2AEbInt_F8-BhNsAPRV0WNHtfYjYGyhFompEuwYj1AouduC4A5L2Wu1r7FztChL_ahOw9zTbi8TJKe1nbZfyOfBowb0SsDEp_z8R7AxUMTVVLN5WQbLtRrdLx4qadMzat]--></g></svg>