<?xml version="1.0" encoding="us-ascii" standalone="no"?><svg xmlns="http://www.w3.org/2000/svg" xmlns:xlink="http://www.w3.org/1999/xlink" contentStyleType="text/css" height="1754px" preserveAspectRatio="none" style="width:1855px;height:1754px;background:#FFFFFF;" version="1.1" viewBox="0 0 1855 1754" width="1855px" zoomAndPan="magnify"><defs/><g><rect fill="#FFFFFF" height="1568.5332" style="stroke:#181818;stroke-width:1.0;" width="10" x="73" y="93.6211"/><rect fill="#FFFFFF" height="1545.2422" style="stroke:#181818;stroke-width:1.0;" width="10" x="282" y="116.9121"/><rect fill="#FFFFFF" height="1434.3691" style="stroke:#181818;stroke-width:1.0;" width="10" x="287" y="218.7852"/><rect fill="#FFFFFF" height="31.291" style="stroke:#181818;stroke-width:1.0;" width="10" x="451" y="148.2031"/><rect fill="#FFFFFF" height="953.5859" style="stroke:#181818;stroke-width:1.0;" width="10" x="451" y="543.1133"/><rect fill="#FFFFFF" height="31.291" style="stroke:#181818;stroke-width:1.0;" width="10" x="602.5" y="255.0762"/><rect fill="#FFFFFF" height="891.0039" style="stroke:#181818;stroke-width:1.0;" width="10" x="1042" y="574.4043"/><rect fill="#FFFFFF" height="452.9297" style="stroke:#181818;stroke-width:1.0;" width="10" x="1047" y="613.6953"/><rect fill="#FFFFFF" height="28" style="stroke:#181818;stroke-width:1.0;" width="10" x="1052" y="710.5684"/><rect fill="#FFFFFF" height="28" style="stroke:#181818;stroke-width:1.0;" width="10" x="1052" y="801.4902"/><rect fill="#FFFFFF" height="28" style="stroke:#181818;stroke-width:1.0;" width="10" x="1052" y="925.7031"/><rect fill="#FFFFFF" height="28" style="stroke:#181818;stroke-width:1.0;" width="10" x="1052" y="1016.625"/><rect fill="#FFFFFF" height="31.291" style="stroke:#181818;stroke-width:1.0;" width="10" x="1236" y="1183.7891"/><rect fill="#FFFFFF" height="31.291" style="stroke:#181818;stroke-width:1.0;" width="10" x="1236" y="1559.2813"/><rect fill="#FFFFFF" height="344.2012" style="stroke:#181818;stroke-width:1.0;" width="10" x="1381" y="1089.916"/><rect fill="#FFFFFF" height="31.291" style="stroke:#181818;stroke-width:1.0;" width="10" x="1521" y="1246.3711"/><rect fill="#FFFFFF" height="194.1641" style="stroke:#181818;stroke-width:1.0;" width="10" x="1609" y="317.6582"/><rect fill="#FFFFFF" height="116.582" style="stroke:#181818;stroke-width:1.0;" width="10" x="1614" y="356.9492"/><rect fill="#FFFFFF" height="72.291" style="stroke:#181818;stroke-width:1.0;" width="10" x="1619" y="401.2402"/><rect fill="#FFFFFF" height="28" style="stroke:#181818;stroke-width:1.0;" width="10" x="1624" y="445.5313"/><rect fill="#FFFFFF" height="93.873" style="stroke:#181818;stroke-width:1.0;" width="10" x="1609" y="1527.9902"/><rect fill="#FFFFFF" height="31.291" style="stroke:#181818;stroke-width:1.0;" width="10" x="1795" y="1121.207"/><rect fill="#FFFFFF" height="31.291" style="stroke:#181818;stroke-width:1.0;" width="10" x="1795" y="1308.9531"/><rect fill="#FFFFFF" height="31.291" style="stroke:#181818;stroke-width:1.0;" width="10" x="1795" y="1371.5352"/><rect fill="none" height="184.5039" style="stroke:#000000;stroke-width:1.5;" width="284" x="953" y="659.9863"/><rect fill="none" height="184.5039" style="stroke:#000000;stroke-width:1.5;" width="293" x="953" y="875.1211"/><line style="stroke:#181818;stroke-width:0.5;stroke-dasharray:5.0,5.0;" x1="78" x2="78" y1="83.6211" y2="1671.1543"/><line style="stroke:#181818;stroke-width:0.5;stroke-dasharray:5.0,5.0;" x1="287" x2="287" y1="83.6211" y2="1671.1543"/><line style="stroke:#181818;stroke-width:0.5;stroke-dasharray:5.0,5.0;" x1="456" x2="456" y1="83.6211" y2="1671.1543"/><line style="stroke:#181818;stroke-width:0.5;stroke-dasharray:5.0,5.0;" x1="607" x2="607" y1="83.6211" y2="1671.1543"/><line style="stroke:#181818;stroke-width:0.5;stroke-dasharray:5.0,5.0;" x1="703" x2="703" y1="83.6211" y2="1671.1543"/><line style="stroke:#181818;stroke-width:0.5;stroke-dasharray:5.0,5.0;" x1="797" x2="797" y1="83.6211" y2="1671.1543"/><line style="stroke:#181818;stroke-width:0.5;stroke-dasharray:5.0,5.0;" x1="904" x2="904" y1="83.6211" y2="1671.1543"/><line style="stroke:#181818;stroke-width:0.5;stroke-dasharray:5.0,5.0;" x1="1047" x2="1047" y1="83.6211" y2="1671.1543"/><line style="stroke:#181818;stroke-width:0.5;stroke-dasharray:5.0,5.0;" x1="1241" x2="1241" y1="83.6211" y2="1671.1543"/><line style="stroke:#181818;stroke-width:0.5;stroke-dasharray:5.0,5.0;" x1="1386" x2="1386" y1="83.6211" y2="1671.1543"/><line style="stroke:#181818;stroke-width:0.5;stroke-dasharray:5.0,5.0;" x1="1526" x2="1526" y1="83.6211" y2="1671.1543"/><line style="stroke:#181818;stroke-width:0.5;stroke-dasharray:5.0,5.0;" x1="1614" x2="1614" y1="83.6211" y2="1671.1543"/><line style="stroke:#181818;stroke-width:0.5;stroke-dasharray:5.0,5.0;" x1="1799.5" x2="1799.5" y1="83.6211" y2="1671.1543"/><text fill="#000000" font-family="sans-serif" font-size="14" lengthAdjust="spacing" textLength="110" x="20" y="80.1074">Network Manager</text><ellipse cx="78" cy="13.5" fill="#E3E3E3" rx="8" ry="8" style="stroke:#181818;stroke-width:0.5;"/><path d="M78,21.5 L78,48.5 M65,29.5 L91,29.5 M78,48.5 L65,63.5 M78,48.5 L91,63.5 " fill="none" style="stroke:#181818;stroke-width:0.5;"/><text fill="#000000" font-family="sans-serif" font-size="14" lengthAdjust="spacing" textLength="110" x="20" y="1685.2617">Network Manager</text><ellipse cx="78" cy="1697.2754" fill="#E3E3E3" rx="8" ry="8" style="stroke:#181818;stroke-width:0.5;"/><path d="M78,1705.2754 L78,1732.2754 M65,1713.2754 L91,1713.2754 M78,1732.2754 L65,1747.2754 M78,1732.2754 L91,1747.2754 " fill="none" style="stroke:#181818;stroke-width:0.5;"/><rect fill="#E3E3E3" height="32.6211" rx="2.5" ry="2.5" style="stroke:#181818;stroke-width:0.5;" width="134" x="220" y="50"/><text fill="#000000" font-family="sans-serif" font-size="14" lengthAdjust="spacing" textLength="120" x="227" y="72.1074">:ListPropertySoldUI</text><rect fill="#E3E3E3" height="32.6211" rx="2.5" ry="2.5" style="stroke:#181818;stroke-width:0.5;" width="134" x="220" y="1670.1543"/><text fill="#000000" font-family="sans-serif" font-size="14" lengthAdjust="spacing" textLength="120" x="227" y="1692.2617">:ListPropertySoldUI</text><rect fill="#E3E3E3" height="32.6211" rx="2.5" ry="2.5" style="stroke:#181818;stroke-width:0.5;" width="184" x="364" y="50"/><text fill="#000000" font-family="sans-serif" font-size="14" lengthAdjust="spacing" textLength="170" x="371" y="72.1074">:ListPropertySoldController</text><rect fill="#E3E3E3" height="32.6211" rx="2.5" ry="2.5" style="stroke:#181818;stroke-width:0.5;" width="184" x="364" y="1670.1543"/><text fill="#000000" font-family="sans-serif" font-size="14" lengthAdjust="spacing" textLength="170" x="371" y="1692.2617">:ListPropertySoldController</text><rect fill="#E3E3E3" height="32.6211" rx="2.5" ry="2.5" style="stroke:#181818;stroke-width:0.5;" width="99" x="558" y="50"/><text fill="#000000" font-family="sans-serif" font-size="14" lengthAdjust="spacing" textLength="85" x="565" y="72.1074">SortAlgorithm</text><rect fill="#E3E3E3" height="32.6211" rx="2.5" ry="2.5" style="stroke:#181818;stroke-width:0.5;" width="99" x="558" y="1670.1543"/><text fill="#000000" font-family="sans-serif" font-size="14" lengthAdjust="spacing" textLength="85" x="565" y="1692.2617">SortAlgorithm</text><rect fill="#E3E3E3" height="32.6211" rx="2.5" ry="2.5" style="stroke:#181818;stroke-width:0.5;" width="72" x="667" y="50"/><text fill="#000000" font-family="sans-serif" font-size="14" lengthAdjust="spacing" textLength="58" x="674" y="72.1074">SortType</text><rect fill="#E3E3E3" height="32.6211" rx="2.5" ry="2.5" style="stroke:#181818;stroke-width:0.5;" width="72" x="667" y="1670.1543"/><text fill="#000000" font-family="sans-serif" font-size="14" lengthAdjust="spacing" textLength="58" x="674" y="1692.2617">SortType</text><rect fill="#E3E3E3" height="32.6211" rx="2.5" ry="2.5" style="stroke:#181818;stroke-width:0.5;" width="97" x="749" y="50"/><text fill="#000000" font-family="sans-serif" font-size="14" lengthAdjust="spacing" textLength="83" x="756" y="72.1074">:Repositories</text><rect fill="#E3E3E3" height="32.6211" rx="2.5" ry="2.5" style="stroke:#181818;stroke-width:0.5;" width="97" x="749" y="1670.1543"/><text fill="#000000" font-family="sans-serif" font-size="14" lengthAdjust="spacing" textLength="83" x="756" y="1692.2617">:Repositories</text><rect fill="#E3E3E3" height="51.2422" rx="2.5" ry="2.5" style="stroke:#181818;stroke-width:0.5;" width="97" x="856" y="31.3789"/><text fill="#000000" font-family="sans-serif" font-size="14" lengthAdjust="spacing" textLength="74" x="867.5" y="53.4863">repositories</text><text fill="#000000" font-family="sans-serif" font-size="14" lengthAdjust="spacing" textLength="83" x="863" y="72.1074">:Repositories</text><rect fill="#E3E3E3" height="51.2422" rx="2.5" ry="2.5" style="stroke:#181818;stroke-width:0.5;" width="97" x="856" y="1670.1543"/><text fill="#000000" font-family="sans-serif" font-size="14" lengthAdjust="spacing" textLength="74" x="867.5" y="1692.2617">repositories</text><text fill="#000000" font-family="sans-serif" font-size="14" lengthAdjust="spacing" textLength="83" x="863" y="1710.8828">:Repositories</text><rect fill="#E3E3E3" height="51.2422" rx="2.5" ry="2.5" style="stroke:#181818;stroke-width:0.5;" width="168" x="963" y="31.3789"/><text fill="#000000" font-family="sans-serif" font-size="14" lengthAdjust="spacing" textLength="149" x="972.5" y="53.4863">propertySoldRepository</text><text fill="#000000" font-family="sans-serif" font-size="14" lengthAdjust="spacing" textLength="154" x="970" y="72.1074">:PropertySoldRepository</text><rect fill="#E3E3E3" height="51.2422" rx="2.5" ry="2.5" style="stroke:#181818;stroke-width:0.5;" width="168" x="963" y="1670.1543"/><text fill="#000000" font-family="sans-serif" font-size="14" lengthAdjust="spacing" textLength="149" x="972.5" y="1692.2617">propertySoldRepository</text><text fill="#000000" font-family="sans-serif" font-size="14" lengthAdjust="spacing" textLength="154" x="970" y="1710.8828">:PropertySoldRepository</text><rect fill="#E3E3E3" height="32.6211" rx="2.5" ry="2.5" style="stroke:#181818;stroke-width:0.5;" width="126" x="1178" y="50"/><text fill="#000000" font-family="sans-serif" font-size="14" lengthAdjust="spacing" textLength="112" x="1185" y="72.1074">PropertySoldDTO</text><rect fill="#E3E3E3" height="32.6211" rx="2.5" ry="2.5" style="stroke:#181818;stroke-width:0.5;" width="126" x="1178" y="1670.1543"/><text fill="#000000" font-family="sans-serif" font-size="14" lengthAdjust="spacing" textLength="112" x="1185" y="1692.2617">PropertySoldDTO</text><rect fill="#E3E3E3" height="32.6211" rx="2.5" ry="2.5" style="stroke:#181818;stroke-width:0.5;" width="144" x="1314" y="50"/><text fill="#000000" font-family="sans-serif" font-size="14" lengthAdjust="spacing" textLength="130" x="1321" y="72.1074">PropertySoldMapper</text><rect fill="#E3E3E3" height="32.6211" rx="2.5" ry="2.5" style="stroke:#181818;stroke-width:0.5;" width="144" x="1314" y="1670.1543"/><text fill="#000000" font-family="sans-serif" font-size="14" lengthAdjust="spacing" textLength="130" x="1321" y="1692.2617">PropertySoldMapper</text><rect fill="#E3E3E3" height="32.6211" rx="2.5" ry="2.5" style="stroke:#181818;stroke-width:0.5;" width="116" x="1468" y="50"/><text fill="#000000" font-family="sans-serif" font-size="14" lengthAdjust="spacing" textLength="102" x="1475" y="72.1074">PropertyMapper</text><rect fill="#E3E3E3" height="32.6211" rx="2.5" ry="2.5" style="stroke:#181818;stroke-width:0.5;" width="116" x="1468" y="1670.1543"/><text fill="#000000" font-family="sans-serif" font-size="14" lengthAdjust="spacing" textLength="102" x="1475" y="1692.2617">PropertyMapper</text><rect fill="#E3E3E3" height="32.6211" rx="2.5" ry="2.5" style="stroke:#181818;stroke-width:0.5;" width="40" x="1594" y="50"/><text fill="#000000" font-family="sans-serif" font-size="14" lengthAdjust="spacing" textLength="26" x="1601" y="72.1074">Utils</text><rect fill="#E3E3E3" height="32.6211" rx="2.5" ry="2.5" style="stroke:#181818;stroke-width:0.5;" width="40" x="1594" y="1670.1543"/><text fill="#000000" font-family="sans-serif" font-size="14" lengthAdjust="spacing" textLength="26" x="1601" y="1692.2617">Utils</text><rect fill="#E3E3E3" height="32.6211" rx="2.5" ry="2.5" style="stroke:#181818;stroke-width:0.5;" width="99" x="1750.5" y="50"/><text fill="#000000" font-family="sans-serif" font-size="14" lengthAdjust="spacing" textLength="85" x="1757.5" y="72.1074">ErrorOptional</text><rect fill="#E3E3E3" height="32.6211" rx="2.5" ry="2.5" style="stroke:#181818;stroke-width:0.5;" width="99" x="1750.5" y="1670.1543"/><text fill="#000000" font-family="sans-serif" font-size="14" lengthAdjust="spacing" textLength="85" x="1757.5" y="1692.2617">ErrorOptional</text><rect fill="#FFFFFF" height="1568.5332" style="stroke:#181818;stroke-width:1.0;" width="10" x="73" y="93.6211"/><rect fill="#FFFFFF" height="1545.2422" style="stroke:#181818;stroke-width:1.0;" width="10" x="282" y="116.9121"/><rect fill="#FFFFFF" height="1434.3691" style="stroke:#181818;stroke-width:1.0;" width="10" x="287" y="218.7852"/><rect fill="#FFFFFF" height="31.291" style="stroke:#181818;stroke-width:1.0;" width="10" x="451" y="148.2031"/><rect fill="#FFFFFF" height="953.5859" style="stroke:#181818;stroke-width:1.0;" width="10" x="451" y="543.1133"/><rect fill="#FFFFFF" height="31.291" style="stroke:#181818;stroke-width:1.0;" width="10" x="602.5" y="255.0762"/><rect fill="#FFFFFF" height="891.0039" style="stroke:#181818;stroke-width:1.0;" width="10" x="1042" y="574.4043"/><rect fill="#FFFFFF" height="452.9297" style="stroke:#181818;stroke-width:1.0;" width="10" x="1047" y="613.6953"/><rect fill="#FFFFFF" height="28" style="stroke:#181818;stroke-width:1.0;" width="10" x="1052" y="710.5684"/><rect fill="#FFFFFF" height="28" style="stroke:#181818;stroke-width:1.0;" width="10" x="1052" y="801.4902"/><rect fill="#FFFFFF" height="28" style="stroke:#181818;stroke-width:1.0;" width="10" x="1052" y="925.7031"/><rect fill="#FFFFFF" height="28" style="stroke:#181818;stroke-width:1.0;" width="10" x="1052" y="1016.625"/><rect fill="#FFFFFF" height="31.291" style="stroke:#181818;stroke-width:1.0;" width="10" x="1236" y="1183.7891"/><rect fill="#FFFFFF" height="31.291" style="stroke:#181818;stroke-width:1.0;" width="10" x="1236" y="1559.2813"/><rect fill="#FFFFFF" height="344.2012" style="stroke:#181818;stroke-width:1.0;" width="10" x="1381" y="1089.916"/><rect fill="#FFFFFF" height="31.291" style="stroke:#181818;stroke-width:1.0;" width="10" x="1521" y="1246.3711"/><rect fill="#FFFFFF" height="194.1641" style="stroke:#181818;stroke-width:1.0;" width="10" x="1609" y="317.6582"/><rect fill="#FFFFFF" height="116.582" style="stroke:#181818;stroke-width:1.0;" width="10" x="1614" y="356.9492"/><rect fill="#FFFFFF" height="72.291" style="stroke:#181818;stroke-width:1.0;" width="10" x="1619" y="401.2402"/><rect fill="#FFFFFF" height="28" style="stroke:#181818;stroke-width:1.0;" width="10" x="1624" y="445.5313"/><rect fill="#FFFFFF" height="93.873" style="stroke:#181818;stroke-width:1.0;" width="10" x="1609" y="1527.9902"/><rect fill="#FFFFFF" height="31.291" style="stroke:#181818;stroke-width:1.0;" width="10" x="1795" y="1121.207"/><rect fill="#FFFFFF" height="31.291" style="stroke:#181818;stroke-width:1.0;" width="10" x="1795" y="1308.9531"/><rect fill="#FFFFFF" height="31.291" style="stroke:#181818;stroke-width:1.0;" width="10" x="1795" y="1371.5352"/><polygon fill="#181818" points="270,112.9121,280,116.9121,270,120.9121,274,116.9121" style="stroke:#181818;stroke-width:1.0;"/><line style="stroke:#181818;stroke-width:1.0;" x1="83" x2="276" y1="116.9121" y2="116.9121"/><text fill="#000000" font-family="sans-serif" font-size="13" font-weight="bold" lengthAdjust="spacing" textLength="7" x="90" y="111.6494">1</text><text fill="#000000" font-family="sans-serif" font-size="13" lengthAdjust="spacing" textLength="152" x="101" y="111.6494">asks to list all deals made</text><polygon fill="#181818" points="439,144.2031,449,148.2031,439,152.2031,443,148.2031" style="stroke:#181818;stroke-width:1.0;"/><line style="stroke:#181818;stroke-width:1.0;" x1="292" x2="445" y1="148.2031" y2="148.2031"/><text fill="#000000" font-family="sans-serif" font-size="13" font-weight="bold" lengthAdjust="spacing" textLength="7" x="299" y="142.9404">2</text><text fill="#000000" font-family="sans-serif" font-size="13" lengthAdjust="spacing" textLength="36" x="310" y="142.9404">create</text><polygon fill="#181818" points="303,175.4941,293,179.4941,303,183.4941,299,179.4941" style="stroke:#181818;stroke-width:1.0;"/><line style="stroke:#181818;stroke-width:1.0;stroke-dasharray:2.0,2.0;" x1="297" x2="455" y1="179.4941" y2="179.4941"/><text fill="#000000" font-family="sans-serif" font-size="13" font-weight="bold" lengthAdjust="spacing" textLength="7" x="309" y="174.2314">3</text><text fill="#000000" font-family="sans-serif" font-size="13" lengthAdjust="spacing" textLength="4" x="320" y="174.2314">&#160;</text><line style="stroke:#181818;stroke-width:1.0;" x1="292" x2="339" y1="205.7852" y2="205.7852"/><line style="stroke:#181818;stroke-width:1.0;" x1="339" x2="339" y1="205.7852" y2="218.7852"/><line style="stroke:#181818;stroke-width:1.0;" x1="298" x2="339" y1="218.7852" y2="218.7852"/><polygon fill="#181818" points="308,214.7852,298,218.7852,308,222.7852,304,218.7852" style="stroke:#181818;stroke-width:1.0;"/><text fill="#000000" font-family="sans-serif" font-size="13" font-weight="bold" lengthAdjust="spacing" textLength="7" x="304" y="200.5225">4</text><text fill="#000000" font-family="sans-serif" font-size="13" lengthAdjust="spacing" textLength="97" x="315" y="200.5225">getSortAlgorithm</text><polygon fill="#181818" points="590.5,251.0762,600.5,255.0762,590.5,259.0762,594.5,255.0762" style="stroke:#181818;stroke-width:1.0;"/><line style="stroke:#181818;stroke-width:1.0;" x1="297" x2="596.5" y1="255.0762" y2="255.0762"/><text fill="#000000" font-family="sans-serif" font-size="13" font-weight="bold" lengthAdjust="spacing" textLength="7" x="304" y="249.8135">5</text><text fill="#000000" font-family="sans-serif" font-size="13" lengthAdjust="spacing" textLength="36" x="315" y="249.8135">values</text><polygon fill="#181818" points="308,282.3672,298,286.3672,308,290.3672,304,286.3672" style="stroke:#181818;stroke-width:1.0;"/><line style="stroke:#181818;stroke-width:1.0;stroke-dasharray:2.0,2.0;" x1="302" x2="606.5" y1="286.3672" y2="286.3672"/><text fill="#000000" font-family="sans-serif" font-size="13" font-weight="bold" lengthAdjust="spacing" textLength="7" x="314" y="281.1045">6</text><text fill="#000000" font-family="sans-serif" font-size="13" lengthAdjust="spacing" textLength="4" x="325" y="281.1045">&#160;</text><polygon fill="#181818" points="1597,313.6582,1607,317.6582,1597,321.6582,1601,317.6582" style="stroke:#181818;stroke-width:1.0;"/><line style="stroke:#181818;stroke-width:1.0;" x1="297" x2="1603" y1="317.6582" y2="317.6582"/><text fill="#000000" font-family="sans-serif" font-size="13" font-weight="bold" lengthAdjust="spacing" textLength="7" x="304" y="312.3955">7</text><text fill="#000000" font-family="sans-serif" font-size="13" lengthAdjust="spacing" textLength="129" x="315" y="312.3955">showAndSelectIndex()</text><line style="stroke:#181818;stroke-width:1.0;" x1="1619" x2="1666" y1="343.9492" y2="343.9492"/><line style="stroke:#181818;stroke-width:1.0;" x1="1666" x2="1666" y1="343.9492" y2="356.9492"/><line style="stroke:#181818;stroke-width:1.0;" x1="1625" x2="1666" y1="356.9492" y2="356.9492"/><polygon fill="#181818" points="1635,352.9492,1625,356.9492,1635,360.9492,1631,356.9492" style="stroke:#181818;stroke-width:1.0;"/><text fill="#000000" font-family="sans-serif" font-size="13" font-weight="bold" lengthAdjust="spacing" textLength="7" x="1631" y="338.6865">8</text><text fill="#000000" font-family="sans-serif" font-size="13" lengthAdjust="spacing" textLength="59" x="1642" y="338.6865">showList()</text><line style="stroke:#181818;stroke-width:1.0;" x1="1624" x2="1671" y1="388.2402" y2="388.2402"/><line style="stroke:#181818;stroke-width:1.0;" x1="1671" x2="1671" y1="388.2402" y2="401.2402"/><line style="stroke:#181818;stroke-width:1.0;" x1="1630" x2="1671" y1="401.2402" y2="401.2402"/><polygon fill="#181818" points="1640,397.2402,1630,401.2402,1640,405.2402,1636,401.2402" style="stroke:#181818;stroke-width:1.0;"/><text fill="#000000" font-family="sans-serif" font-size="13" font-weight="bold" lengthAdjust="spacing" textLength="7" x="1636" y="382.9775">9</text><text fill="#000000" font-family="sans-serif" font-size="13" lengthAdjust="spacing" textLength="81" x="1647" y="382.9775">selectsIndex()</text><line style="stroke:#181818;stroke-width:1.0;" x1="1634" x2="1676" y1="437.5313" y2="437.5313"/><line style="stroke:#181818;stroke-width:1.0;" x1="1676" x2="1676" y1="437.5313" y2="450.5313"/><line style="stroke:#181818;stroke-width:1.0;" x1="1635" x2="1676" y1="450.5313" y2="450.5313"/><polygon fill="#181818" points="1645,446.5313,1635,450.5313,1645,454.5313,1641,450.5313" style="stroke:#181818;stroke-width:1.0;"/><text fill="#000000" font-family="sans-serif" font-size="13" font-weight="bold" lengthAdjust="spacing" textLength="14" x="1641" y="432.2686">10</text><text fill="#000000" font-family="sans-serif" font-size="13" lengthAdjust="spacing" textLength="134" x="1659" y="432.2686">readLineFromConsole()</text><polygon fill="#181818" points="308,507.8223,298,511.8223,308,515.8223,304,511.8223" style="stroke:#181818;stroke-width:1.0;"/><line style="stroke:#181818;stroke-width:1.0;stroke-dasharray:2.0,2.0;" x1="302" x2="1613" y1="511.8223" y2="511.8223"/><text fill="#000000" font-family="sans-serif" font-size="13" font-weight="bold" lengthAdjust="spacing" textLength="14" x="314" y="506.5596">11</text><text fill="#000000" font-family="sans-serif" font-size="13" lengthAdjust="spacing" textLength="28" x="332" y="506.5596">input</text><polygon fill="#181818" points="439,539.1133,449,543.1133,439,547.1133,443,543.1133" style="stroke:#181818;stroke-width:1.0;"/><line style="stroke:#181818;stroke-width:1.0;" x1="297" x2="445" y1="543.1133" y2="543.1133"/><text fill="#000000" font-family="sans-serif" font-size="13" font-weight="bold" lengthAdjust="spacing" textLength="14" x="304" y="537.8506">12</text><text fill="#000000" font-family="sans-serif" font-size="13" lengthAdjust="spacing" textLength="100" x="322" y="537.8506">listPropertySold()</text><polygon fill="#181818" points="1030,570.4043,1040,574.4043,1030,578.4043,1034,574.4043" style="stroke:#181818;stroke-width:1.0;"/><line style="stroke:#181818;stroke-width:1.0;" x1="461" x2="1036" y1="574.4043" y2="574.4043"/><text fill="#000000" font-family="sans-serif" font-size="13" font-weight="bold" lengthAdjust="spacing" textLength="14" x="468" y="569.1416">13</text><text fill="#000000" font-family="sans-serif" font-size="13" lengthAdjust="spacing" textLength="100" x="486" y="569.1416">listPropertySold()</text><line style="stroke:#181818;stroke-width:1.0;" x1="1052" x2="1099" y1="600.6953" y2="600.6953"/><line style="stroke:#181818;stroke-width:1.0;" x1="1099" x2="1099" y1="600.6953" y2="613.6953"/><line style="stroke:#181818;stroke-width:1.0;" x1="1058" x2="1099" y1="613.6953" y2="613.6953"/><polygon fill="#181818" points="1068,609.6953,1058,613.6953,1068,617.6953,1064,613.6953" style="stroke:#181818;stroke-width:1.0;"/><text fill="#000000" font-family="sans-serif" font-size="13" font-weight="bold" lengthAdjust="spacing" textLength="14" x="1064" y="595.4326">14</text><text fill="#000000" font-family="sans-serif" font-size="13" lengthAdjust="spacing" textLength="89" x="1082" y="595.4326">sortProperties()</text><path d="M953,659.9863 L1014,659.9863 L1014,669.2773 L1004,679.2773 L953,679.2773 L953,659.9863 " fill="#EEEEEE" style="stroke:#000000;stroke-width:1.5;"/><rect fill="none" height="184.5039" style="stroke:#000000;stroke-width:1.5;" width="284" x="953" y="659.9863"/><text fill="#000000" font-family="sans-serif" font-size="13" font-weight="bold" lengthAdjust="spacing" textLength="16" x="968" y="675.0146">alt</text><text fill="#000000" font-family="sans-serif" font-size="11" font-weight="bold" lengthAdjust="spacing" textLength="131" x="1029" y="673.8564">[sortType is ascending]</text><line style="stroke:#181818;stroke-width:1.0;" x1="1062" x2="1104" y1="702.5684" y2="702.5684"/><line style="stroke:#181818;stroke-width:1.0;" x1="1104" x2="1104" y1="702.5684" y2="715.5684"/><line style="stroke:#181818;stroke-width:1.0;" x1="1063" x2="1104" y1="715.5684" y2="715.5684"/><polygon fill="#181818" points="1073,711.5684,1063,715.5684,1073,719.5684,1069,715.5684" style="stroke:#181818;stroke-width:1.0;"/><text fill="#000000" font-family="sans-serif" font-size="13" font-weight="bold" lengthAdjust="spacing" textLength="14" x="1069" y="697.3057">15</text><text fill="#000000" font-family="sans-serif" font-size="13" lengthAdjust="spacing" textLength="131" x="1087" y="697.3057">sortBubbleAscending()</text><line style="stroke:#000000;stroke-width:1.0;stroke-dasharray:2.0,2.0;" x1="953" x2="1237" y1="754.5684" y2="754.5684"/><text fill="#000000" font-family="sans-serif" font-size="11" font-weight="bold" lengthAdjust="spacing" textLength="139" x="958" y="766.4385">[sortType is descending]</text><line style="stroke:#181818;stroke-width:1.0;" x1="1062" x2="1104" y1="793.4902" y2="793.4902"/><line style="stroke:#181818;stroke-width:1.0;" x1="1104" x2="1104" y1="793.4902" y2="806.4902"/><line style="stroke:#181818;stroke-width:1.0;" x1="1063" x2="1104" y1="806.4902" y2="806.4902"/><polygon fill="#181818" points="1073,802.4902,1063,806.4902,1073,810.4902,1069,806.4902" style="stroke:#181818;stroke-width:1.0;"/><text fill="#000000" font-family="sans-serif" font-size="13" font-weight="bold" lengthAdjust="spacing" textLength="14" x="1069" y="788.2275">16</text><text fill="#000000" font-family="sans-serif" font-size="13" lengthAdjust="spacing" textLength="138" x="1087" y="788.2275">sortBubbleDescending()</text><path d="M953,875.1211 L1014,875.1211 L1014,884.4121 L1004,894.4121 L953,894.4121 L953,875.1211 " fill="#EEEEEE" style="stroke:#000000;stroke-width:1.5;"/><rect fill="none" height="184.5039" style="stroke:#000000;stroke-width:1.5;" width="293" x="953" y="875.1211"/><text fill="#000000" font-family="sans-serif" font-size="13" font-weight="bold" lengthAdjust="spacing" textLength="16" x="968" y="890.1494">alt</text><text fill="#000000" font-family="sans-serif" font-size="11" font-weight="bold" lengthAdjust="spacing" textLength="131" x="1029" y="888.9912">[sortType is ascending]</text><line style="stroke:#181818;stroke-width:1.0;" x1="1062" x2="1104" y1="917.7031" y2="917.7031"/><line style="stroke:#181818;stroke-width:1.0;" x1="1104" x2="1104" y1="917.7031" y2="930.7031"/><line style="stroke:#181818;stroke-width:1.0;" x1="1063" x2="1104" y1="930.7031" y2="930.7031"/><polygon fill="#181818" points="1073,926.7031,1063,930.7031,1073,934.7031,1069,930.7031" style="stroke:#181818;stroke-width:1.0;"/><text fill="#000000" font-family="sans-serif" font-size="13" font-weight="bold" lengthAdjust="spacing" textLength="14" x="1069" y="912.4404">17</text><text fill="#000000" font-family="sans-serif" font-size="13" lengthAdjust="spacing" textLength="140" x="1087" y="912.4404">sortInsertionAscending()</text><line style="stroke:#000000;stroke-width:1.0;stroke-dasharray:2.0,2.0;" x1="953" x2="1246" y1="969.7031" y2="969.7031"/><text fill="#000000" font-family="sans-serif" font-size="11" font-weight="bold" lengthAdjust="spacing" textLength="139" x="958" y="981.5732">[sortType is descending]</text><line style="stroke:#181818;stroke-width:1.0;" x1="1062" x2="1104" y1="1008.625" y2="1008.625"/><line style="stroke:#181818;stroke-width:1.0;" x1="1104" x2="1104" y1="1008.625" y2="1021.625"/><line style="stroke:#181818;stroke-width:1.0;" x1="1063" x2="1104" y1="1021.625" y2="1021.625"/><polygon fill="#181818" points="1073,1017.625,1063,1021.625,1073,1025.625,1069,1021.625" style="stroke:#181818;stroke-width:1.0;"/><text fill="#000000" font-family="sans-serif" font-size="13" font-weight="bold" lengthAdjust="spacing" textLength="14" x="1069" y="1003.3623">18</text><text fill="#000000" font-family="sans-serif" font-size="13" lengthAdjust="spacing" textLength="147" x="1087" y="1003.3623">sortInsertionDescending()</text><polygon fill="#181818" points="1369,1085.916,1379,1089.916,1369,1093.916,1373,1089.916" style="stroke:#181818;stroke-width:1.0;"/><line style="stroke:#181818;stroke-width:1.0;" x1="1052" x2="1375" y1="1089.916" y2="1089.916"/><text fill="#000000" font-family="sans-serif" font-size="13" font-weight="bold" lengthAdjust="spacing" textLength="14" x="1059" y="1084.6533">19</text><text fill="#000000" font-family="sans-serif" font-size="13" lengthAdjust="spacing" textLength="45" x="1077" y="1084.6533">toDTO()</text><polygon fill="#181818" points="1783,1117.207,1793,1121.207,1783,1125.207,1787,1121.207" style="stroke:#181818;stroke-width:1.0;"/><line style="stroke:#181818;stroke-width:1.0;" x1="1391" x2="1789" y1="1121.207" y2="1121.207"/><text fill="#000000" font-family="sans-serif" font-size="13" font-weight="bold" lengthAdjust="spacing" textLength="14" x="1398" y="1115.9443">20</text><text fill="#000000" font-family="sans-serif" font-size="13" lengthAdjust="spacing" textLength="44" x="1416" y="1115.9443">empty()</text><polygon fill="#181818" points="1402,1148.498,1392,1152.498,1402,1156.498,1398,1152.498" style="stroke:#181818;stroke-width:1.0;"/><line style="stroke:#181818;stroke-width:1.0;stroke-dasharray:2.0,2.0;" x1="1396" x2="1799" y1="1152.498" y2="1152.498"/><text fill="#000000" font-family="sans-serif" font-size="13" font-weight="bold" lengthAdjust="spacing" textLength="14" x="1408" y="1147.2354">21</text><text fill="#000000" font-family="sans-serif" font-size="13" lengthAdjust="spacing" textLength="4" x="1426" y="1147.2354">&#160;</text><polygon fill="#181818" points="1257,1179.7891,1247,1183.7891,1257,1187.7891,1253,1183.7891" style="stroke:#181818;stroke-width:1.0;"/><line style="stroke:#181818;stroke-width:1.0;" x1="1251" x2="1380" y1="1183.7891" y2="1183.7891"/><text fill="#000000" font-family="sans-serif" font-size="13" font-weight="bold" lengthAdjust="spacing" textLength="14" x="1263" y="1178.5264">22</text><text fill="#000000" font-family="sans-serif" font-size="13" lengthAdjust="spacing" textLength="36" x="1281" y="1178.5264">create</text><polygon fill="#181818" points="1369,1211.0801,1379,1215.0801,1369,1219.0801,1373,1215.0801" style="stroke:#181818;stroke-width:1.0;"/><line style="stroke:#181818;stroke-width:1.0;stroke-dasharray:2.0,2.0;" x1="1241" x2="1375" y1="1215.0801" y2="1215.0801"/><text fill="#000000" font-family="sans-serif" font-size="13" font-weight="bold" lengthAdjust="spacing" textLength="14" x="1248" y="1209.8174">23</text><text fill="#000000" font-family="sans-serif" font-size="13" lengthAdjust="spacing" textLength="25" x="1266" y="1209.8174">dtos</text><polygon fill="#181818" points="1509,1242.3711,1519,1246.3711,1509,1250.3711,1513,1246.3711" style="stroke:#181818;stroke-width:1.0;"/><line style="stroke:#181818;stroke-width:1.0;" x1="1391" x2="1515" y1="1246.3711" y2="1246.3711"/><text fill="#000000" font-family="sans-serif" font-size="13" font-weight="bold" lengthAdjust="spacing" textLength="14" x="1398" y="1241.1084">24</text><text fill="#000000" font-family="sans-serif" font-size="13" lengthAdjust="spacing" textLength="45" x="1416" y="1241.1084">toDTO()</text><polygon fill="#181818" points="1402,1273.6621,1392,1277.6621,1402,1281.6621,1398,1277.6621" style="stroke:#181818;stroke-width:1.0;"/><line style="stroke:#181818;stroke-width:1.0;stroke-dasharray:2.0,2.0;" x1="1396" x2="1525" y1="1277.6621" y2="1277.6621"/><text fill="#000000" font-family="sans-serif" font-size="13" font-weight="bold" lengthAdjust="spacing" textLength="14" x="1408" y="1272.3994">25</text><text fill="#000000" font-family="sans-serif" font-size="13" lengthAdjust="spacing" textLength="4" x="1426" y="1272.3994">&#160;</text><polygon fill="#181818" points="1783,1304.9531,1793,1308.9531,1783,1312.9531,1787,1308.9531" style="stroke:#181818;stroke-width:1.0;"/><line style="stroke:#181818;stroke-width:1.0;" x1="1391" x2="1789" y1="1308.9531" y2="1308.9531"/><text fill="#000000" font-family="sans-serif" font-size="13" font-weight="bold" lengthAdjust="spacing" textLength="14" x="1398" y="1303.6904">26</text><text fill="#000000" font-family="sans-serif" font-size="13" lengthAdjust="spacing" textLength="57" x="1416" y="1303.6904">hasError()</text><polygon fill="#181818" points="1402,1336.2441,1392,1340.2441,1402,1344.2441,1398,1340.2441" style="stroke:#181818;stroke-width:1.0;"/><line style="stroke:#181818;stroke-width:1.0;stroke-dasharray:2.0,2.0;" x1="1396" x2="1799" y1="1340.2441" y2="1340.2441"/><text fill="#000000" font-family="sans-serif" font-size="13" font-weight="bold" lengthAdjust="spacing" textLength="14" x="1408" y="1334.9814">27</text><text fill="#000000" font-family="sans-serif" font-size="13" lengthAdjust="spacing" textLength="4" x="1426" y="1334.9814">&#160;</text><polygon fill="#181818" points="1783,1367.5352,1793,1371.5352,1783,1375.5352,1787,1371.5352" style="stroke:#181818;stroke-width:1.0;"/><line style="stroke:#181818;stroke-width:1.0;" x1="1391" x2="1789" y1="1371.5352" y2="1371.5352"/><text fill="#000000" font-family="sans-serif" font-size="13" font-weight="bold" lengthAdjust="spacing" textLength="14" x="1398" y="1366.2725">28</text><text fill="#000000" font-family="sans-serif" font-size="13" lengthAdjust="spacing" textLength="26" x="1416" y="1366.2725">get()</text><polygon fill="#181818" points="1402,1398.8262,1392,1402.8262,1402,1406.8262,1398,1402.8262" style="stroke:#181818;stroke-width:1.0;"/><line style="stroke:#181818;stroke-width:1.0;stroke-dasharray:2.0,2.0;" x1="1396" x2="1799" y1="1402.8262" y2="1402.8262"/><text fill="#000000" font-family="sans-serif" font-size="13" font-weight="bold" lengthAdjust="spacing" textLength="14" x="1408" y="1397.5635">29</text><text fill="#000000" font-family="sans-serif" font-size="13" lengthAdjust="spacing" textLength="25" x="1426" y="1397.5635">dtos</text><polygon fill="#181818" points="1063,1430.1172,1053,1434.1172,1063,1438.1172,1059,1434.1172" style="stroke:#181818;stroke-width:1.0;"/><line style="stroke:#181818;stroke-width:1.0;stroke-dasharray:2.0,2.0;" x1="1057" x2="1385" y1="1434.1172" y2="1434.1172"/><text fill="#000000" font-family="sans-serif" font-size="13" font-weight="bold" lengthAdjust="spacing" textLength="14" x="1069" y="1428.8545">30</text><text fill="#000000" font-family="sans-serif" font-size="13" lengthAdjust="spacing" textLength="25" x="1087" y="1428.8545">dtos</text><polygon fill="#181818" points="472,1461.4082,462,1465.4082,472,1469.4082,468,1465.4082" style="stroke:#181818;stroke-width:1.0;"/><line style="stroke:#181818;stroke-width:1.0;stroke-dasharray:2.0,2.0;" x1="466" x2="1046" y1="1465.4082" y2="1465.4082"/><text fill="#000000" font-family="sans-serif" font-size="13" font-weight="bold" lengthAdjust="spacing" textLength="14" x="478" y="1460.1455">31</text><text fill="#000000" font-family="sans-serif" font-size="13" lengthAdjust="spacing" textLength="17" x="496" y="1460.1455">list</text><polygon fill="#181818" points="308,1492.6992,298,1496.6992,308,1500.6992,304,1496.6992" style="stroke:#181818;stroke-width:1.0;"/><line style="stroke:#181818;stroke-width:1.0;stroke-dasharray:2.0,2.0;" x1="302" x2="455" y1="1496.6992" y2="1496.6992"/><text fill="#000000" font-family="sans-serif" font-size="13" font-weight="bold" lengthAdjust="spacing" textLength="14" x="314" y="1491.4365">32</text><text fill="#000000" font-family="sans-serif" font-size="13" lengthAdjust="spacing" textLength="17" x="332" y="1491.4365">list</text><polygon fill="#181818" points="1597,1523.9902,1607,1527.9902,1597,1531.9902,1601,1527.9902" style="stroke:#181818;stroke-width:1.0;"/><line style="stroke:#181818;stroke-width:1.0;" x1="297" x2="1603" y1="1527.9902" y2="1527.9902"/><text fill="#000000" font-family="sans-serif" font-size="13" font-weight="bold" lengthAdjust="spacing" textLength="14" x="304" y="1522.7275">33</text><text fill="#000000" font-family="sans-serif" font-size="13" lengthAdjust="spacing" textLength="134" x="322" y="1522.7275">showPropertySoldList()</text><polygon fill="#181818" points="1257,1555.2813,1247,1559.2813,1257,1563.2813,1253,1559.2813" style="stroke:#181818;stroke-width:1.0;"/><line style="stroke:#181818;stroke-width:1.0;" x1="1251" x2="1608" y1="1559.2813" y2="1559.2813"/><text fill="#000000" font-family="sans-serif" font-size="13" font-weight="bold" lengthAdjust="spacing" textLength="14" x="1263" y="1554.0186">34</text><text fill="#000000" font-family="sans-serif" font-size="13" lengthAdjust="spacing" textLength="53" x="1281" y="1554.0186">toString()</text><polygon fill="#181818" points="1597,1586.5723,1607,1590.5723,1597,1594.5723,1601,1590.5723" style="stroke:#181818;stroke-width:1.0;"/><line style="stroke:#181818;stroke-width:1.0;stroke-dasharray:2.0,2.0;" x1="1241" x2="1603" y1="1590.5723" y2="1590.5723"/><text fill="#000000" font-family="sans-serif" font-size="13" font-weight="bold" lengthAdjust="spacing" textLength="14" x="1248" y="1585.3096">35</text><text fill="#000000" font-family="sans-serif" font-size="13" lengthAdjust="spacing" textLength="157" x="1266" y="1585.3096">properties sorted and listed</text><polygon fill="#181818" points="308,1617.8633,298,1621.8633,308,1625.8633,304,1621.8633" style="stroke:#181818;stroke-width:1.0;"/><line style="stroke:#181818;stroke-width:1.0;stroke-dasharray:2.0,2.0;" x1="302" x2="1613" y1="1621.8633" y2="1621.8633"/><text fill="#000000" font-family="sans-serif" font-size="13" font-weight="bold" lengthAdjust="spacing" textLength="14" x="314" y="1616.6006">36</text><text fill="#000000" font-family="sans-serif" font-size="13" lengthAdjust="spacing" textLength="157" x="332" y="1616.6006">properties sorted and listed</text><polygon fill="#181818" points="94,1649.1543,84,1653.1543,94,1657.1543,90,1653.1543" style="stroke:#181818;stroke-width:1.0;"/><line style="stroke:#181818;stroke-width:1.0;stroke-dasharray:2.0,2.0;" x1="88" x2="281" y1="1653.1543" y2="1653.1543"/><text fill="#000000" font-family="sans-serif" font-size="13" font-weight="bold" lengthAdjust="spacing" textLength="14" x="100" y="1647.8916">37</text><text fill="#000000" font-family="sans-serif" font-size="13" lengthAdjust="spacing" textLength="157" x="118" y="1647.8916">properties sorted and listed</text><!--SRC=[pLTDRzim3BtxLmYzR3la3-HG85ite42x5dDxsqMns4I8B1cIqZR_VhJY3ycM7TlTWFbaI-GZ7_LCq-R0PK4rpKckfChsMkL0h3v2OfgTWcO7keFKdWGG3PcbSYTy0xEdJBrnkIClL1X84dgqIXxpBUWa-RJd3CYBKdQhtXEQMQN9rK-mRqeVo3sLYAol23NrVOAObcUyeDAIg_KTD_PHgmAqFQLAiETRPvoUZ8NyWkqt9QrMGbG1siVGBrNQRiHEQMxt-HdTN-aRFvqAQEpAXquUlw1GXYDH3iRPDGkdb9Urm-g4Bjhp-2tx0Fv-w5buVDimYF4OtN1eyQqGrxUvUNhe-U7QiCCzBOggwFtbk5l49MR-RBaubyJT9QMW-2krqCWd8NXL3sHrNIc5hD7dO8XLHA1A21M2C42rafmoS3uDKgKjjrXv8qwhdZN9DA1XwEMfossqpsJLfE5sCEwGKnYoINq7DfHaRHlDEGJfodjDNgaueenw61tB5gmBqU7JuJG8q-RapWupCNlrjf4i1O5TvLOoUF_yfPzNTTBr-jcvWrA- -ejyNMYpE3OAWTrn2J-mSU9X6YLW0enNhVFE_8rkIhvSi2yVxGJNcBZHNNJQQ8nGJBY-ugy7cin4-84ErHWEW8-5DQZAQXERw9AWL5Y7qcYRS4Esn-rMG6FZsvLVXjA4cWmamyOVM2sayDN5szIG7eyfN7nRJnUNc9SNu9SzeCKWokl3t6vWWDnSWaj8IjOkD8o30-VIb1B2B_ZyC_z8SMxhk9kHyiokpzm2pPR2X-cEok6VyWt4CCDl6kFpT8DihS9Pwb8_gcQXQ8mA2V6_QwtqGr6MZGg4XhomfnXqODYYXlwhQCQnYWp0nPFiJ94a6AS62r3Ecr7W4c8rL5jcbRbqX8F8_PIddzdGUTMOaqjx2N1S07jgtDB_fe5kdZZW_kKKoNhex6SaEjQafaXhxD3ypX2Rm9PqdkW_nmZU-E-7Fr_xaUVEslqNtghKwh2ZBtlfwnIBPh1p7mzWX4hcQ0ERzVv7fkcvs0D3DaBMVwNpCUlVExp-0000]--></g></svg>