<?xml version="1.0" encoding="us-ascii" standalone="no"?><svg xmlns="http://www.w3.org/2000/svg" xmlns:xlink="http://www.w3.org/1999/xlink" contentStyleType="text/css" height="825px" preserveAspectRatio="none" style="width:599px;height:825px;background:#FFFFFF;" version="1.1" viewBox="0 0 599 825" width="599px" zoomAndPan="magnify"><defs/><g><!--class ListPropertySoldUI--><g id="elem_ListPropertySoldUI"><rect codeLine="11" fill="#F1F1F1" height="85.2422" id="ListPropertySoldUI" rx="2.5" ry="2.5" style="stroke:#181818;stroke-width:0.5;" width="148" x="44" y="7"/><ellipse cx="59" cy="23" fill="#ADD1B2" rx="11" ry="11" style="stroke:#181818;stroke-width:1.0;"/><path d="M61.7656,18.875 Q61.9219,18.6563 62.1094,18.5469 Q62.2969,18.4375 62.5156,18.4375 Q62.8906,18.4375 63.125,18.7031 Q63.3594,18.9531 63.3594,19.5625 L63.3594,21.0156 Q63.3594,21.625 63.125,21.8906 Q62.8906,22.1563 62.5156,22.1563 Q62.1719,22.1563 61.9688,21.9531 Q61.7656,21.7656 61.6563,21.25 Q61.6094,20.8906 61.4219,20.7031 Q61.0938,20.3281 60.4844,20.1094 Q59.875,19.8906 59.25,19.8906 Q58.4844,19.8906 57.8438,20.2188 Q57.2188,20.5469 56.7188,21.2969 Q56.2344,22.0469 56.2344,23.0781 L56.2344,24.1719 Q56.2344,25.4063 57.125,26.2344 Q58.0156,27.0469 59.6094,27.0469 Q60.5469,27.0469 61.2031,26.7969 Q61.5938,26.6406 62.0156,26.2031 Q62.2813,25.9375 62.4219,25.8594 Q62.5781,25.7813 62.7813,25.7813 Q63.1094,25.7813 63.3594,26.0469 Q63.625,26.2969 63.625,26.6406 Q63.625,26.9844 63.2813,27.3906 Q62.7813,27.9688 61.9844,28.2969 Q60.9063,28.75 59.6094,28.75 Q58.0938,28.75 56.8906,28.125 Q55.9063,27.625 55.2188,26.5625 Q54.5313,25.4844 54.5313,24.2031 L54.5313,23.0469 Q54.5313,21.7188 55.1406,20.5781 Q55.7656,19.4219 56.8594,18.8125 Q57.9531,18.1875 59.1875,18.1875 Q59.9219,18.1875 60.5625,18.3594 Q61.2188,18.5156 61.7656,18.875 Z " fill="#000000"/><text fill="#000000" font-family="sans-serif" font-size="14" lengthAdjust="spacing" textLength="116" x="73" y="28.7969">ListPropertySoldUI</text><line style="stroke:#181818;stroke-width:0.5;" x1="45" x2="191" y1="39" y2="39"/><line style="stroke:#181818;stroke-width:0.5;" x1="45" x2="191" y1="47" y2="47"/><text fill="#000000" font-family="sans-serif" font-size="14" lengthAdjust="spacing" textLength="123" x="50" y="66.1074">+getSortAlgorithm()</text><text fill="#000000" font-family="sans-serif" font-size="14" lengthAdjust="spacing" textLength="125" x="50" y="84.7285">+getSortingOption()</text></g><!--class ListPropertySoldController--><g id="elem_ListPropertySoldController"><rect codeLine="16" fill="#F1F1F1" height="85.2422" id="ListPropertySoldController" rx="2.5" ry="2.5" style="stroke:#181818;stroke-width:0.5;" width="198" x="227" y="7"/><ellipse cx="242" cy="23" fill="#ADD1B2" rx="11" ry="11" style="stroke:#181818;stroke-width:1.0;"/><path d="M244.7656,18.875 Q244.9219,18.6563 245.1094,18.5469 Q245.2969,18.4375 245.5156,18.4375 Q245.8906,18.4375 246.125,18.7031 Q246.3594,18.9531 246.3594,19.5625 L246.3594,21.0156 Q246.3594,21.625 246.125,21.8906 Q245.8906,22.1563 245.5156,22.1563 Q245.1719,22.1563 244.9688,21.9531 Q244.7656,21.7656 244.6563,21.25 Q244.6094,20.8906 244.4219,20.7031 Q244.0938,20.3281 243.4844,20.1094 Q242.875,19.8906 242.25,19.8906 Q241.4844,19.8906 240.8438,20.2188 Q240.2188,20.5469 239.7188,21.2969 Q239.2344,22.0469 239.2344,23.0781 L239.2344,24.1719 Q239.2344,25.4063 240.125,26.2344 Q241.0156,27.0469 242.6094,27.0469 Q243.5469,27.0469 244.2031,26.7969 Q244.5938,26.6406 245.0156,26.2031 Q245.2813,25.9375 245.4219,25.8594 Q245.5781,25.7813 245.7813,25.7813 Q246.1094,25.7813 246.3594,26.0469 Q246.625,26.2969 246.625,26.6406 Q246.625,26.9844 246.2813,27.3906 Q245.7813,27.9688 244.9844,28.2969 Q243.9063,28.75 242.6094,28.75 Q241.0938,28.75 239.8906,28.125 Q238.9063,27.625 238.2188,26.5625 Q237.5313,25.4844 237.5313,24.2031 L237.5313,23.0469 Q237.5313,21.7188 238.1406,20.5781 Q238.7656,19.4219 239.8594,18.8125 Q240.9531,18.1875 242.1875,18.1875 Q242.9219,18.1875 243.5625,18.3594 Q244.2188,18.5156 244.7656,18.875 Z " fill="#000000"/><text fill="#000000" font-family="sans-serif" font-size="14" lengthAdjust="spacing" textLength="166" x="256" y="28.7969">ListPropertySoldController</text><line style="stroke:#181818;stroke-width:0.5;" x1="228" x2="424" y1="39" y2="39"/><line style="stroke:#181818;stroke-width:0.5;" x1="228" x2="424" y1="47" y2="47"/><text fill="#000000" font-family="sans-serif" font-size="14" lengthAdjust="spacing" textLength="146" x="233" y="66.1074">+getAlgorithmOptions()</text><text fill="#000000" font-family="sans-serif" font-size="14" lengthAdjust="spacing" textLength="106" x="233" y="84.7285">+listDealsMade()</text></g><!--class Repositories--><g id="elem_Repositories"><rect codeLine="21" fill="#F1F1F1" height="103.8633" id="Repositories" rx="2.5" ry="2.5" style="stroke:#181818;stroke-width:0.5;" width="200" x="7" y="122"/><ellipse cx="63.25" cy="138" fill="#ADD1B2" rx="11" ry="11" style="stroke:#181818;stroke-width:1.0;"/><path d="M66.0156,133.875 Q66.1719,133.6563 66.3594,133.5469 Q66.5469,133.4375 66.7656,133.4375 Q67.1406,133.4375 67.375,133.7031 Q67.6094,133.9531 67.6094,134.5625 L67.6094,136.0156 Q67.6094,136.625 67.375,136.8906 Q67.1406,137.1563 66.7656,137.1563 Q66.4219,137.1563 66.2188,136.9531 Q66.0156,136.7656 65.9063,136.25 Q65.8594,135.8906 65.6719,135.7031 Q65.3438,135.3281 64.7344,135.1094 Q64.125,134.8906 63.5,134.8906 Q62.7344,134.8906 62.0938,135.2188 Q61.4688,135.5469 60.9688,136.2969 Q60.4844,137.0469 60.4844,138.0781 L60.4844,139.1719 Q60.4844,140.4063 61.375,141.2344 Q62.2656,142.0469 63.8594,142.0469 Q64.7969,142.0469 65.4531,141.7969 Q65.8438,141.6406 66.2656,141.2031 Q66.5313,140.9375 66.6719,140.8594 Q66.8281,140.7813 67.0313,140.7813 Q67.3594,140.7813 67.6094,141.0469 Q67.875,141.2969 67.875,141.6406 Q67.875,141.9844 67.5313,142.3906 Q67.0313,142.9688 66.2344,143.2969 Q65.1563,143.75 63.8594,143.75 Q62.3438,143.75 61.1406,143.125 Q60.1563,142.625 59.4688,141.5625 Q58.7813,140.4844 58.7813,139.2031 L58.7813,138.0469 Q58.7813,136.7188 59.3906,135.5781 Q60.0156,134.4219 61.1094,133.8125 Q62.2031,133.1875 63.4375,133.1875 Q64.1719,133.1875 64.8125,133.3594 Q65.4688,133.5156 66.0156,133.875 Z " fill="#000000"/><text fill="#000000" font-family="sans-serif" font-size="14" lengthAdjust="spacing" textLength="79" x="83.75" y="143.7969">Repositories</text><line style="stroke:#181818;stroke-width:0.5;" x1="8" x2="206" y1="154" y2="154"/><line style="stroke:#181818;stroke-width:0.5;" x1="8" x2="206" y1="162" y2="162"/><text fill="#000000" font-family="sans-serif" font-size="14" lengthAdjust="spacing" textLength="94" x="13" y="181.1074">-Repositories()</text><text fill="#000000" font-family="sans-serif" font-size="14" lengthAdjust="spacing" textLength="178" x="13" y="199.7285">+getInstance(): Repositories</text><text fill="#000000" font-family="sans-serif" font-size="14" lengthAdjust="spacing" textLength="188" x="13" y="218.3496">+getPropertySoldRepository()</text></g><!--class PropertySale--><g id="elem_PropertySale"><rect codeLine="27" fill="#F1F1F1" height="48" id="PropertySale" rx="2.5" ry="2.5" style="stroke:#181818;stroke-width:0.5;" width="114" x="253" y="532"/><ellipse cx="268" cy="548" fill="#ADD1B2" rx="11" ry="11" style="stroke:#181818;stroke-width:1.0;"/><path d="M270.7656,543.875 Q270.9219,543.6563 271.1094,543.5469 Q271.2969,543.4375 271.5156,543.4375 Q271.8906,543.4375 272.125,543.7031 Q272.3594,543.9531 272.3594,544.5625 L272.3594,546.0156 Q272.3594,546.625 272.125,546.8906 Q271.8906,547.1563 271.5156,547.1563 Q271.1719,547.1563 270.9688,546.9531 Q270.7656,546.7656 270.6563,546.25 Q270.6094,545.8906 270.4219,545.7031 Q270.0938,545.3281 269.4844,545.1094 Q268.875,544.8906 268.25,544.8906 Q267.4844,544.8906 266.8438,545.2188 Q266.2188,545.5469 265.7188,546.2969 Q265.2344,547.0469 265.2344,548.0781 L265.2344,549.1719 Q265.2344,550.4063 266.125,551.2344 Q267.0156,552.0469 268.6094,552.0469 Q269.5469,552.0469 270.2031,551.7969 Q270.5938,551.6406 271.0156,551.2031 Q271.2813,550.9375 271.4219,550.8594 Q271.5781,550.7813 271.7813,550.7813 Q272.1094,550.7813 272.3594,551.0469 Q272.625,551.2969 272.625,551.6406 Q272.625,551.9844 272.2813,552.3906 Q271.7813,552.9688 270.9844,553.2969 Q269.9063,553.75 268.6094,553.75 Q267.0938,553.75 265.8906,553.125 Q264.9063,552.625 264.2188,551.5625 Q263.5313,550.4844 263.5313,549.2031 L263.5313,548.0469 Q263.5313,546.7188 264.1406,545.5781 Q264.7656,544.4219 265.8594,543.8125 Q266.9531,543.1875 268.1875,543.1875 Q268.9219,543.1875 269.5625,543.3594 Q270.2188,543.5156 270.7656,543.875 Z " fill="#000000"/><text fill="#000000" font-family="sans-serif" font-size="14" lengthAdjust="spacing" textLength="82" x="282" y="553.7969">PropertySale</text><line style="stroke:#181818;stroke-width:0.5;" x1="254" x2="366" y1="564" y2="564"/><line style="stroke:#181818;stroke-width:0.5;" x1="254" x2="366" y1="572" y2="572"/></g><!--class PropertySold--><g id="elem_PropertySold"><rect codeLine="31" fill="#F1F1F1" height="159.7266" id="PropertySold" rx="2.5" ry="2.5" style="stroke:#181818;stroke-width:0.5;" width="213" x="379.5" y="659"/><ellipse cx="440.75" cy="675" fill="#ADD1B2" rx="11" ry="11" style="stroke:#181818;stroke-width:1.0;"/><path d="M443.5156,670.875 Q443.6719,670.6563 443.8594,670.5469 Q444.0469,670.4375 444.2656,670.4375 Q444.6406,670.4375 444.875,670.7031 Q445.1094,670.9531 445.1094,671.5625 L445.1094,673.0156 Q445.1094,673.625 444.875,673.8906 Q444.6406,674.1563 444.2656,674.1563 Q443.9219,674.1563 443.7188,673.9531 Q443.5156,673.7656 443.4063,673.25 Q443.3594,672.8906 443.1719,672.7031 Q442.8438,672.3281 442.2344,672.1094 Q441.625,671.8906 441,671.8906 Q440.2344,671.8906 439.5938,672.2188 Q438.9688,672.5469 438.4688,673.2969 Q437.9844,674.0469 437.9844,675.0781 L437.9844,676.1719 Q437.9844,677.4063 438.875,678.2344 Q439.7656,679.0469 441.3594,679.0469 Q442.2969,679.0469 442.9531,678.7969 Q443.3438,678.6406 443.7656,678.2031 Q444.0313,677.9375 444.1719,677.8594 Q444.3281,677.7813 444.5313,677.7813 Q444.8594,677.7813 445.1094,678.0469 Q445.375,678.2969 445.375,678.6406 Q445.375,678.9844 445.0313,679.3906 Q444.5313,679.9688 443.7344,680.2969 Q442.6563,680.75 441.3594,680.75 Q439.8438,680.75 438.6406,680.125 Q437.6563,679.625 436.9688,678.5625 Q436.2813,677.4844 436.2813,676.2031 L436.2813,675.0469 Q436.2813,673.7188 436.8906,672.5781 Q437.5156,671.4219 438.6094,670.8125 Q439.7031,670.1875 440.9375,670.1875 Q441.6719,670.1875 442.3125,670.3594 Q442.9688,670.5156 443.5156,670.875 Z " fill="#000000"/><text fill="#000000" font-family="sans-serif" font-size="14" lengthAdjust="spacing" textLength="82" x="461.25" y="680.7969">PropertySold</text><line style="stroke:#181818;stroke-width:0.5;" x1="380.5" x2="591.5" y1="691" y2="691"/><text fill="#000000" font-family="sans-serif" font-size="14" lengthAdjust="spacing" textLength="119" x="385.5" y="710.1074">-paidAmount : float</text><text fill="#000000" font-family="sans-serif" font-size="14" lengthAdjust="spacing" textLength="89" x="385.5" y="728.7285">-buyer : Client</text><text fill="#000000" font-family="sans-serif" font-size="14" lengthAdjust="spacing" textLength="201" x="385.5" y="747.3496">-purchaseData : LocalDataTime</text><line style="stroke:#181818;stroke-width:0.5;" x1="380.5" x2="591.5" y1="754.8633" y2="754.8633"/><text fill="#000000" font-family="sans-serif" font-size="14" lengthAdjust="spacing" textLength="75" x="385.5" y="773.9707">+getBuyer()</text><text fill="#000000" font-family="sans-serif" font-size="14" lengthAdjust="spacing" textLength="128" x="385.5" y="792.5918">+getPurchaseData()</text><text fill="#000000" font-family="sans-serif" font-size="14" lengthAdjust="spacing" textLength="114" x="385.5" y="811.2129">+getPaidAmount()</text></g><!--class PropertySoldRepository--><g id="elem_PropertySoldRepository"><rect codeLine="41" fill="#F1F1F1" height="196.9688" id="PropertySoldRepository" rx="2.5" ry="2.5" style="stroke:#181818;stroke-width:0.5;" width="225" x="197.5" y="256"/><ellipse cx="231.85" cy="272" fill="#ADD1B2" rx="11" ry="11" style="stroke:#181818;stroke-width:1.0;"/><path d="M234.6156,267.875 Q234.7719,267.6563 234.9594,267.5469 Q235.1469,267.4375 235.3656,267.4375 Q235.7406,267.4375 235.975,267.7031 Q236.2094,267.9531 236.2094,268.5625 L236.2094,270.0156 Q236.2094,270.625 235.975,270.8906 Q235.7406,271.1563 235.3656,271.1563 Q235.0219,271.1563 234.8188,270.9531 Q234.6156,270.7656 234.5063,270.25 Q234.4594,269.8906 234.2719,269.7031 Q233.9438,269.3281 233.3344,269.1094 Q232.725,268.8906 232.1,268.8906 Q231.3344,268.8906 230.6938,269.2188 Q230.0688,269.5469 229.5688,270.2969 Q229.0844,271.0469 229.0844,272.0781 L229.0844,273.1719 Q229.0844,274.4063 229.975,275.2344 Q230.8656,276.0469 232.4594,276.0469 Q233.3969,276.0469 234.0531,275.7969 Q234.4438,275.6406 234.8656,275.2031 Q235.1313,274.9375 235.2719,274.8594 Q235.4281,274.7813 235.6313,274.7813 Q235.9594,274.7813 236.2094,275.0469 Q236.475,275.2969 236.475,275.6406 Q236.475,275.9844 236.1313,276.3906 Q235.6313,276.9688 234.8344,277.2969 Q233.7563,277.75 232.4594,277.75 Q230.9438,277.75 229.7406,277.125 Q228.7563,276.625 228.0688,275.5625 Q227.3813,274.4844 227.3813,273.2031 L227.3813,272.0469 Q227.3813,270.7188 227.9906,269.5781 Q228.6156,268.4219 229.7094,267.8125 Q230.8031,267.1875 232.0375,267.1875 Q232.7719,267.1875 233.4125,267.3594 Q234.0688,267.5156 234.6156,267.875 Z " fill="#000000"/><text fill="#000000" font-family="sans-serif" font-size="14" lengthAdjust="spacing" textLength="150" x="250.15" y="277.7969">PropertySoldRepository</text><line style="stroke:#181818;stroke-width:0.5;" x1="198.5" x2="421.5" y1="288" y2="288"/><text fill="#000000" font-family="sans-serif" font-size="14" lengthAdjust="spacing" textLength="213" x="203.5" y="307.1074">-List&lt;PropertySold&gt; dealMadeList</text><line style="stroke:#181818;stroke-width:0.5;" x1="198.5" x2="421.5" y1="314.6211" y2="314.6211"/><text fill="#000000" font-family="sans-serif" font-size="14" lengthAdjust="spacing" textLength="140" x="203.5" y="333.7285">+createPropertySold()</text><text fill="#000000" font-family="sans-serif" font-size="14" lengthAdjust="spacing" textLength="124" x="203.5" y="352.3496">+addPropertySold()</text><text fill="#000000" font-family="sans-serif" font-size="14" lengthAdjust="spacing" textLength="59" x="203.5" y="370.9707">+isValid()</text><text fill="#000000" font-family="sans-serif" font-size="14" lengthAdjust="spacing" textLength="117" x="203.5" y="389.5918">+listPropertySold()</text><text fill="#000000" font-family="sans-serif" font-size="14" lengthAdjust="spacing" textLength="107" x="203.5" y="408.2129">+sortProperties()</text><text fill="#000000" font-family="sans-serif" font-size="14" lengthAdjust="spacing" textLength="86" x="203.5" y="426.834">+sortBubble()</text><text fill="#000000" font-family="sans-serif" font-size="14" lengthAdjust="spacing" textLength="96" x="203.5" y="445.4551">+sortInsertion()</text></g><!--class Property--><g id="elem_Property"><rect codeLine="53" fill="#F1F1F1" height="85.2422" id="Property" rx="2.5" ry="2.5" style="stroke:#181818;stroke-width:0.5;" width="86" x="258" y="696.5"/><ellipse cx="273" cy="712.5" fill="#ADD1B2" rx="11" ry="11" style="stroke:#181818;stroke-width:1.0;"/><path d="M275.7656,708.375 Q275.9219,708.1563 276.1094,708.0469 Q276.2969,707.9375 276.5156,707.9375 Q276.8906,707.9375 277.125,708.2031 Q277.3594,708.4531 277.3594,709.0625 L277.3594,710.5156 Q277.3594,711.125 277.125,711.3906 Q276.8906,711.6563 276.5156,711.6563 Q276.1719,711.6563 275.9688,711.4531 Q275.7656,711.2656 275.6563,710.75 Q275.6094,710.3906 275.4219,710.2031 Q275.0938,709.8281 274.4844,709.6094 Q273.875,709.3906 273.25,709.3906 Q272.4844,709.3906 271.8438,709.7188 Q271.2188,710.0469 270.7188,710.7969 Q270.2344,711.5469 270.2344,712.5781 L270.2344,713.6719 Q270.2344,714.9063 271.125,715.7344 Q272.0156,716.5469 273.6094,716.5469 Q274.5469,716.5469 275.2031,716.2969 Q275.5938,716.1406 276.0156,715.7031 Q276.2813,715.4375 276.4219,715.3594 Q276.5781,715.2813 276.7813,715.2813 Q277.1094,715.2813 277.3594,715.5469 Q277.625,715.7969 277.625,716.1406 Q277.625,716.4844 277.2813,716.8906 Q276.7813,717.4688 275.9844,717.7969 Q274.9063,718.25 273.6094,718.25 Q272.0938,718.25 270.8906,717.625 Q269.9063,717.125 269.2188,716.0625 Q268.5313,714.9844 268.5313,713.7031 L268.5313,712.5469 Q268.5313,711.2188 269.1406,710.0781 Q269.7656,708.9219 270.8594,708.3125 Q271.9531,707.6875 273.1875,707.6875 Q273.9219,707.6875 274.5625,707.8594 Q275.2188,708.0156 275.7656,708.375 Z " fill="#000000"/><text fill="#000000" font-family="sans-serif" font-size="14" lengthAdjust="spacing" textLength="54" x="287" y="718.2969">Property</text><line style="stroke:#181818;stroke-width:0.5;" x1="259" x2="343" y1="728.5" y2="728.5"/><text fill="#000000" font-family="sans-serif" font-size="14" lengthAdjust="spacing" textLength="73" x="264" y="747.6074">-area : float</text><line style="stroke:#181818;stroke-width:0.5;" x1="259" x2="343" y1="755.1211" y2="755.1211"/><text fill="#000000" font-family="sans-serif" font-size="14" lengthAdjust="spacing" textLength="68" x="264" y="774.2285">+getArea()</text></g><!--link ListPropertySoldUI to ListPropertySoldController--><g id="link_ListPropertySoldUI_ListPropertySoldController"><path codeLine="59" d="M192.32,49.5 C198.62,49.5 210.03,49.5 221.52,49.5 " fill="none" id="ListPropertySoldUI-to-ListPropertySoldController" style="stroke:#181818;stroke-width:1.0;stroke-dasharray:7.0,7.0;"/><polygon fill="#181818" points="226.78,49.5,217.78,45.5,221.78,49.5,217.78,53.5,226.78,49.5" style="stroke:#181818;stroke-width:1.0;"/></g><!--link Repositories to Repositories--><g id="link_Repositories_Repositories"><path codeLine="61" d="M207.09,151.64 C227.43,154.07 242,161.53 242,174 C242,185.4 229.83,192.61 212.2,195.62 " fill="none" id="Repositories-to-Repositories" style="stroke:#181818;stroke-width:1.0;"/><polygon fill="#181818" points="207.09,196.36,216.5696,199.0317,212.0386,195.6449,215.4254,191.1139,207.09,196.36" style="stroke:#181818;stroke-width:1.0;"/><text fill="#000000" font-family="sans-serif" font-size="13" lengthAdjust="spacing" textLength="49" x="248" y="179.5283">instance</text></g><!--link ListPropertySoldController to Repositories--><g id="link_ListPropertySoldController_Repositories"><path codeLine="63" d="M251.55,92.14 C235.91,100.89 219.2,110.24 202.9,119.36 " fill="none" id="ListPropertySoldController-to-Repositories" style="stroke:#181818;stroke-width:1.0;stroke-dasharray:7.0,7.0;"/><polygon fill="#181818" points="198.32,121.92,208.13,121.0458,202.6908,119.4918,204.2448,114.0526,198.32,121.92" style="stroke:#181818;stroke-width:1.0;"/><text fill="#000000" font-family="sans-serif" font-size="13" lengthAdjust="spacing" textLength="67" x="228.23" y="120.7783">repositories</text></g><!--link Repositories to PropertySoldRepository--><g id="link_Repositories_PropertySoldRepository"><path codeLine="65" d="M165.17,226.15 C174.67,234.5 184.79,243.4 195.09,252.46 " fill="none" id="Repositories-to-PropertySoldRepository" style="stroke:#181818;stroke-width:1.0;"/><polygon fill="#181818" points="198.9,255.81,194.7776,246.8654,195.1433,252.5104,189.4983,252.8761,198.9,255.81" style="stroke:#181818;stroke-width:1.0;"/><text fill="#000000" font-family="sans-serif" font-size="13" lengthAdjust="spacing" textLength="7" x="183.1259" y="244.6439">1</text></g><!--link ListPropertySoldController to PropertySoldRepository--><g id="link_ListPropertySoldController_PropertySoldRepository"><path codeLine="67" d="M323.79,92.31 C321.65,132.97 318.3,196.34 315.44,250.47 " fill="none" id="ListPropertySoldController-to-PropertySoldRepository" style="stroke:#181818;stroke-width:1.0;stroke-dasharray:7.0,7.0;"/><polygon fill="#181818" points="315.17,255.68,319.627,246.8973,315.4268,250.6866,311.6375,246.4864,315.17,255.68" style="stroke:#181818;stroke-width:1.0;"/><text fill="#000000" font-family="sans-serif" font-size="13" lengthAdjust="spacing" textLength="135" x="324" y="179.5283">propertySoldRepository</text></g><!--link ListPropertySoldController to PropertySold--><g id="link_ListPropertySoldController_PropertySold"><path codeLine="69" d="M406.28,92.09 C436.63,107.82 464,122 464,122 C464,122 476.94,484.44 482.97,653.3 " fill="none" id="ListPropertySoldController-to-PropertySold" style="stroke:#181818;stroke-width:1.0;stroke-dasharray:7.0,7.0;"/><polygon fill="#181818" points="483.17,658.73,486.8332,649.5877,482.9844,653.7334,478.8387,649.8847,483.17,658.73" style="stroke:#181818;stroke-width:1.0;"/><text fill="#000000" font-family="sans-serif" font-size="13" lengthAdjust="spacing" textLength="73" x="478" y="498.0283">propertySold</text><text fill="#000000" font-family="sans-serif" font-size="13" lengthAdjust="spacing" textLength="7" x="475.5865" y="647.6009">1</text></g><!--reverse link PropertySale to PropertySold--><g id="link_PropertySale_PropertySold"><path codeLine="71" d="M346.66,594.7 C364.72,613.28 387.22,636.41 408.83,658.64 " fill="none" id="PropertySale-backto-PropertySold" style="stroke:#181818;stroke-width:1.0;"/><polygon fill="none" points="341.57,599.51,332.65,580.29,351.61,589.75,341.57,599.51" style="stroke:#181818;stroke-width:1.0;"/><text fill="#000000" font-family="sans-serif" font-size="13" lengthAdjust="spacing" textLength="49" x="379" y="625.0283">contains</text><text fill="#000000" font-family="sans-serif" font-size="13" lengthAdjust="spacing" textLength="7" x="330.0784" y="601.9347">1</text><text fill="#000000" font-family="sans-serif" font-size="13" lengthAdjust="spacing" textLength="7" x="394.6453" y="647.7794">1</text></g><!--link PropertySale to Property--><g id="link_PropertySale_Property"><path codeLine="73" d="M308.84,580.29 C307.45,608.23 305.09,655.74 303.32,691.33 " fill="none" id="PropertySale-to-Property" style="stroke:#181818;stroke-width:1.0;"/><polygon fill="#181818" points="303.06,696.5,307.517,687.7173,303.3168,691.5066,299.5275,687.3064,303.06,696.5" style="stroke:#181818;stroke-width:1.0;"/><text fill="#000000" font-family="sans-serif" font-size="13" lengthAdjust="spacing" textLength="21" x="309" y="625.0283">has</text><text fill="#000000" font-family="sans-serif" font-size="13" lengthAdjust="spacing" textLength="7" x="300.7624" y="601.9347">1</text><text fill="#000000" font-family="sans-serif" font-size="13" lengthAdjust="spacing" textLength="16" x="286.0762" y="685.0855">0.*</text></g><!--link PropertySoldRepository to PropertySale--><g id="link_PropertySoldRepository_PropertySale"><path codeLine="76" d="M310,453.2 C310,480.1 310,507.19 310,526.65 " fill="none" id="PropertySoldRepository-to-PropertySale" style="stroke:#181818;stroke-width:1.0;"/><polygon fill="#181818" points="310,531.93,314,522.93,310,526.93,306,522.93,310,531.93" style="stroke:#181818;stroke-width:1.0;"/><text fill="#000000" font-family="sans-serif" font-size="13" lengthAdjust="spacing" textLength="7" x="302.743" y="475.1127">1</text><text fill="#000000" font-family="sans-serif" font-size="13" lengthAdjust="spacing" textLength="5" x="304.3594" y="520.6495">*</text></g><!--SRC=[dLJBRjim4BppAuXSdBQGaLwDm82JN0oaI52tlQ-bjKI48WboXK9r- -zT-a5JaP93RkRipkpiGvw55sKSU6XbQuqj6szRbEGx59U8W_85QjnGhr5wB0bChVE4q41bVojJontea4UqCaYzG-cixkD3p2Q2rfCL6QlK4CAAoAjjHxWkhTceFoXlX9Xft94aAxsg6vALYdQKDK8SEF9H1Nhsrg6dVcDrzNEz5rzaZRJX6YjTMw-eQQy_NK1s_UIY18F_tfAvjuQyrHhzIIv97RdXeAYPzO0yWMzGOIxt7PqDYfY1OI-AmVliPMq2pxLatc8GFqPpCodQvpLI1cZSYmcScR6s0rMjMjiPaWkvqnQ8mMtNe-VtlLPe8k0wNpOGy04867-q9UZu-uTgKHmjtKNEsVrpbf-mL6dIvw2Jw2mE_JOFBsN5qup3ZA5OjlG8X7dEeHXKrGXJuHTeLQN5Z182B_y4djSGeRjkkzMOdhoMc30yZxDMT0riAKtoT1mC7TF7voZdotUkIuXyzR9O3aw1owZJbOobBoBpPKvQy1URNTEemDNNgpTsybuDEUS-fcdiqdrCxxMLLqf2v3T-oBxzMnHJDFx78E1PJL2AsFFD_FE5m_bykYBB7VQJM1adoed_]--></g></svg>