<?xml version="1.0" encoding="us-ascii" standalone="no"?><svg xmlns="http://www.w3.org/2000/svg" xmlns:xlink="http://www.w3.org/1999/xlink" contentStyleType="text/css" height="851px" preserveAspectRatio="none" style="width:458px;height:851px;background:#FFFFFF;" version="1.1" viewBox="0 0 458 851" width="458px" zoomAndPan="magnify"><defs/><g><!--class ListEmployeeUI--><g id="elem_ListEmployeeUI"><rect codeLine="3" fill="#F1F1F1" height="48" id="ListEmployeeUI" rx="2.5" ry="2.5" style="stroke:#181818;stroke-width:0.5;" width="128" x="283" y="7"/><ellipse cx="298" cy="23" fill="#ADD1B2" rx="11" ry="11" style="stroke:#181818;stroke-width:1.0;"/><path d="M300.7656,18.875 Q300.9219,18.6563 301.1094,18.5469 Q301.2969,18.4375 301.5156,18.4375 Q301.8906,18.4375 302.125,18.7031 Q302.3594,18.9531 302.3594,19.5625 L302.3594,21.0156 Q302.3594,21.625 302.125,21.8906 Q301.8906,22.1563 301.5156,22.1563 Q301.1719,22.1563 300.9688,21.9531 Q300.7656,21.7656 300.6563,21.25 Q300.6094,20.8906 300.4219,20.7031 Q300.0938,20.3281 299.4844,20.1094 Q298.875,19.8906 298.25,19.8906 Q297.4844,19.8906 296.8438,20.2188 Q296.2188,20.5469 295.7188,21.2969 Q295.2344,22.0469 295.2344,23.0781 L295.2344,24.1719 Q295.2344,25.4063 296.125,26.2344 Q297.0156,27.0469 298.6094,27.0469 Q299.5469,27.0469 300.2031,26.7969 Q300.5938,26.6406 301.0156,26.2031 Q301.2813,25.9375 301.4219,25.8594 Q301.5781,25.7813 301.7813,25.7813 Q302.1094,25.7813 302.3594,26.0469 Q302.625,26.2969 302.625,26.6406 Q302.625,26.9844 302.2813,27.3906 Q301.7813,27.9688 300.9844,28.2969 Q299.9063,28.75 298.6094,28.75 Q297.0938,28.75 295.8906,28.125 Q294.9063,27.625 294.2188,26.5625 Q293.5313,25.4844 293.5313,24.2031 L293.5313,23.0469 Q293.5313,21.7188 294.1406,20.5781 Q294.7656,19.4219 295.8594,18.8125 Q296.9531,18.1875 298.1875,18.1875 Q298.9219,18.1875 299.5625,18.3594 Q300.2188,18.5156 300.7656,18.875 Z " fill="#000000"/><text fill="#000000" font-family="sans-serif" font-size="14" lengthAdjust="spacing" textLength="96" x="312" y="28.7969">ListEmployeeUI</text><line style="stroke:#181818;stroke-width:0.5;" x1="284" x2="410" y1="39" y2="39"/><line style="stroke:#181818;stroke-width:0.5;" x1="284" x2="410" y1="47" y2="47"/></g><!--class ListEmployeeController--><g id="elem_ListEmployeeController"><rect codeLine="6" fill="#F1F1F1" height="66.6211" id="ListEmployeeController" rx="2.5" ry="2.5" style="stroke:#181818;stroke-width:0.5;" width="178" x="258" y="116"/><ellipse cx="273" cy="132" fill="#ADD1B2" rx="11" ry="11" style="stroke:#181818;stroke-width:1.0;"/><path d="M275.7656,127.875 Q275.9219,127.6563 276.1094,127.5469 Q276.2969,127.4375 276.5156,127.4375 Q276.8906,127.4375 277.125,127.7031 Q277.3594,127.9531 277.3594,128.5625 L277.3594,130.0156 Q277.3594,130.625 277.125,130.8906 Q276.8906,131.1563 276.5156,131.1563 Q276.1719,131.1563 275.9688,130.9531 Q275.7656,130.7656 275.6563,130.25 Q275.6094,129.8906 275.4219,129.7031 Q275.0938,129.3281 274.4844,129.1094 Q273.875,128.8906 273.25,128.8906 Q272.4844,128.8906 271.8438,129.2188 Q271.2188,129.5469 270.7188,130.2969 Q270.2344,131.0469 270.2344,132.0781 L270.2344,133.1719 Q270.2344,134.4063 271.125,135.2344 Q272.0156,136.0469 273.6094,136.0469 Q274.5469,136.0469 275.2031,135.7969 Q275.5938,135.6406 276.0156,135.2031 Q276.2813,134.9375 276.4219,134.8594 Q276.5781,134.7813 276.7813,134.7813 Q277.1094,134.7813 277.3594,135.0469 Q277.625,135.2969 277.625,135.6406 Q277.625,135.9844 277.2813,136.3906 Q276.7813,136.9688 275.9844,137.2969 Q274.9063,137.75 273.6094,137.75 Q272.0938,137.75 270.8906,137.125 Q269.9063,136.625 269.2188,135.5625 Q268.5313,134.4844 268.5313,133.2031 L268.5313,132.0469 Q268.5313,130.7188 269.1406,129.5781 Q269.7656,128.4219 270.8594,127.8125 Q271.9531,127.1875 273.1875,127.1875 Q273.9219,127.1875 274.5625,127.3594 Q275.2188,127.5156 275.7656,127.875 Z " fill="#000000"/><text fill="#000000" font-family="sans-serif" font-size="14" lengthAdjust="spacing" textLength="146" x="287" y="137.7969">ListEmployeeController</text><line style="stroke:#181818;stroke-width:0.5;" x1="259" x2="435" y1="148" y2="148"/><text fill="#000000" font-family="sans-serif" font-size="14" lengthAdjust="spacing" textLength="109" x="264" y="167.1074">+listAllEmployees</text><line style="stroke:#181818;stroke-width:0.5;" x1="259" x2="435" y1="174.6211" y2="174.6211"/></g><!--class Repositories--><g id="elem_Repositories"><rect codeLine="9" fill="#F1F1F1" height="103.8633" id="Repositories" rx="2.5" ry="2.5" style="stroke:#181818;stroke-width:0.5;" width="207" x="98.5" y="244"/><ellipse cx="158.25" cy="260" fill="#ADD1B2" rx="11" ry="11" style="stroke:#181818;stroke-width:1.0;"/><path d="M161.0156,255.875 Q161.1719,255.6563 161.3594,255.5469 Q161.5469,255.4375 161.7656,255.4375 Q162.1406,255.4375 162.375,255.7031 Q162.6094,255.9531 162.6094,256.5625 L162.6094,258.0156 Q162.6094,258.625 162.375,258.8906 Q162.1406,259.1563 161.7656,259.1563 Q161.4219,259.1563 161.2188,258.9531 Q161.0156,258.7656 160.9063,258.25 Q160.8594,257.8906 160.6719,257.7031 Q160.3438,257.3281 159.7344,257.1094 Q159.125,256.8906 158.5,256.8906 Q157.7344,256.8906 157.0938,257.2188 Q156.4688,257.5469 155.9688,258.2969 Q155.4844,259.0469 155.4844,260.0781 L155.4844,261.1719 Q155.4844,262.4063 156.375,263.2344 Q157.2656,264.0469 158.8594,264.0469 Q159.7969,264.0469 160.4531,263.7969 Q160.8438,263.6406 161.2656,263.2031 Q161.5313,262.9375 161.6719,262.8594 Q161.8281,262.7813 162.0313,262.7813 Q162.3594,262.7813 162.6094,263.0469 Q162.875,263.2969 162.875,263.6406 Q162.875,263.9844 162.5313,264.3906 Q162.0313,264.9688 161.2344,265.2969 Q160.1563,265.75 158.8594,265.75 Q157.3438,265.75 156.1406,265.125 Q155.1563,264.625 154.4688,263.5625 Q153.7813,262.4844 153.7813,261.2031 L153.7813,260.0469 Q153.7813,258.7188 154.3906,257.5781 Q155.0156,256.4219 156.1094,255.8125 Q157.2031,255.1875 158.4375,255.1875 Q159.1719,255.1875 159.8125,255.3594 Q160.4688,255.5156 161.0156,255.875 Z " fill="#000000"/><text fill="#000000" font-family="sans-serif" font-size="14" lengthAdjust="spacing" textLength="79" x="178.75" y="265.7969">Repositories</text><line style="stroke:#181818;stroke-width:0.5;" x1="99.5" x2="304.5" y1="276" y2="276"/><line style="stroke:#181818;stroke-width:0.5;" x1="99.5" x2="304.5" y1="284" y2="284"/><text fill="#000000" font-family="sans-serif" font-size="14" lengthAdjust="spacing" textLength="140" x="104.5" y="303.1074">+getStoreRepository()</text><text fill="#000000" font-family="sans-serif" font-size="14" lengthAdjust="spacing" textLength="195" x="104.5" y="321.7285">+getPropertySalesRepository()</text><text fill="#000000" font-family="sans-serif" font-size="14" lengthAdjust="spacing" textLength="91" x="104.5" y="340.3496">+getInstance()</text></g><!--class StoreRepository--><g id="elem_StoreRepository"><rect codeLine="15" fill="#F1F1F1" height="85.2422" id="StoreRepository" rx="2.5" ry="2.5" style="stroke:#181818;stroke-width:0.5;" width="176" x="7" y="409"/><ellipse cx="40.9" cy="425" fill="#ADD1B2" rx="11" ry="11" style="stroke:#181818;stroke-width:1.0;"/><path d="M43.6656,420.875 Q43.8219,420.6563 44.0094,420.5469 Q44.1969,420.4375 44.4156,420.4375 Q44.7906,420.4375 45.025,420.7031 Q45.2594,420.9531 45.2594,421.5625 L45.2594,423.0156 Q45.2594,423.625 45.025,423.8906 Q44.7906,424.1563 44.4156,424.1563 Q44.0719,424.1563 43.8688,423.9531 Q43.6656,423.7656 43.5563,423.25 Q43.5094,422.8906 43.3219,422.7031 Q42.9938,422.3281 42.3844,422.1094 Q41.775,421.8906 41.15,421.8906 Q40.3844,421.8906 39.7438,422.2188 Q39.1188,422.5469 38.6188,423.2969 Q38.1344,424.0469 38.1344,425.0781 L38.1344,426.1719 Q38.1344,427.4063 39.025,428.2344 Q39.9156,429.0469 41.5094,429.0469 Q42.4469,429.0469 43.1031,428.7969 Q43.4938,428.6406 43.9156,428.2031 Q44.1813,427.9375 44.3219,427.8594 Q44.4781,427.7813 44.6813,427.7813 Q45.0094,427.7813 45.2594,428.0469 Q45.525,428.2969 45.525,428.6406 Q45.525,428.9844 45.1813,429.3906 Q44.6813,429.9688 43.8844,430.2969 Q42.8063,430.75 41.5094,430.75 Q39.9938,430.75 38.7906,430.125 Q37.8063,429.625 37.1188,428.5625 Q36.4313,427.4844 36.4313,426.2031 L36.4313,425.0469 Q36.4313,423.7188 37.0406,422.5781 Q37.6656,421.4219 38.7594,420.8125 Q39.8531,420.1875 41.0875,420.1875 Q41.8219,420.1875 42.4625,420.3594 Q43.1188,420.5156 43.6656,420.875 Z " fill="#000000"/><text fill="#000000" font-family="sans-serif" font-size="14" lengthAdjust="spacing" textLength="102" x="59.1" y="430.7969">StoreRepository</text><line style="stroke:#181818;stroke-width:0.5;" x1="8" x2="182" y1="441" y2="441"/><line style="stroke:#181818;stroke-width:0.5;" x1="8" x2="182" y1="449" y2="449"/><text fill="#000000" font-family="sans-serif" font-size="14" lengthAdjust="spacing" textLength="140" x="13" y="468.1074">+getStortedStoreList()</text><text fill="#000000" font-family="sans-serif" font-size="14" lengthAdjust="spacing" textLength="164" x="13" y="486.7285">+getAgentListFromStore()</text></g><!--class Store--><g id="elem_Store"><rect codeLine="20" fill="#F1F1F1" height="271.4531" id="Store" rx="2.5" ry="2.5" style="stroke:#181818;stroke-width:0.5;" width="140" x="25" y="573"/><ellipse cx="73.75" cy="589" fill="#ADD1B2" rx="11" ry="11" style="stroke:#181818;stroke-width:1.0;"/><path d="M76.5156,584.875 Q76.6719,584.6563 76.8594,584.5469 Q77.0469,584.4375 77.2656,584.4375 Q77.6406,584.4375 77.875,584.7031 Q78.1094,584.9531 78.1094,585.5625 L78.1094,587.0156 Q78.1094,587.625 77.875,587.8906 Q77.6406,588.1563 77.2656,588.1563 Q76.9219,588.1563 76.7188,587.9531 Q76.5156,587.7656 76.4063,587.25 Q76.3594,586.8906 76.1719,586.7031 Q75.8438,586.3281 75.2344,586.1094 Q74.625,585.8906 74,585.8906 Q73.2344,585.8906 72.5938,586.2188 Q71.9688,586.5469 71.4688,587.2969 Q70.9844,588.0469 70.9844,589.0781 L70.9844,590.1719 Q70.9844,591.4063 71.875,592.2344 Q72.7656,593.0469 74.3594,593.0469 Q75.2969,593.0469 75.9531,592.7969 Q76.3438,592.6406 76.7656,592.2031 Q77.0313,591.9375 77.1719,591.8594 Q77.3281,591.7813 77.5313,591.7813 Q77.8594,591.7813 78.1094,592.0469 Q78.375,592.2969 78.375,592.6406 Q78.375,592.9844 78.0313,593.3906 Q77.5313,593.9688 76.7344,594.2969 Q75.6563,594.75 74.3594,594.75 Q72.8438,594.75 71.6406,594.125 Q70.6563,593.625 69.9688,592.5625 Q69.2813,591.4844 69.2813,590.2031 L69.2813,589.0469 Q69.2813,587.7188 69.8906,586.5781 Q70.5156,585.4219 71.6094,584.8125 Q72.7031,584.1875 73.9375,584.1875 Q74.6719,584.1875 75.3125,584.3594 Q75.9688,584.5156 76.5156,584.875 Z " fill="#000000"/><text fill="#000000" font-family="sans-serif" font-size="14" lengthAdjust="spacing" textLength="34" x="94.25" y="594.7969">Store</text><line style="stroke:#181818;stroke-width:0.5;" x1="26" x2="164" y1="605" y2="605"/><text fill="#000000" font-family="sans-serif" font-size="14" lengthAdjust="spacing" textLength="18" x="31" y="624.1074">-ID</text><text fill="#000000" font-family="sans-serif" font-size="14" lengthAdjust="spacing" textLength="56" x="31" y="642.7285">-address</text><text fill="#000000" font-family="sans-serif" font-size="14" lengthAdjust="spacing" textLength="41" x="31" y="661.3496">-Name</text><text fill="#000000" font-family="sans-serif" font-size="14" lengthAdjust="spacing" textLength="39" x="31" y="679.9707">-Email</text><text fill="#000000" font-family="sans-serif" font-size="14" lengthAdjust="spacing" textLength="95" x="31" y="698.5918">-PhoneNumber</text><text fill="#000000" font-family="sans-serif" font-size="14" lengthAdjust="spacing" textLength="59" x="31" y="717.2129">-Property</text><line style="stroke:#181818;stroke-width:0.5;" x1="26" x2="164" y1="724.7266" y2="724.7266"/><text fill="#000000" font-family="sans-serif" font-size="14" lengthAdjust="spacing" textLength="51" x="31" y="743.834">+getID()</text><text fill="#000000" font-family="sans-serif" font-size="14" lengthAdjust="spacing" textLength="90" x="31" y="762.4551">+getAddress()</text><text fill="#000000" font-family="sans-serif" font-size="14" lengthAdjust="spacing" textLength="74" x="31" y="781.0762">+getName()</text><text fill="#000000" font-family="sans-serif" font-size="14" lengthAdjust="spacing" textLength="72" x="31" y="799.6973">+getEmail()</text><text fill="#000000" font-family="sans-serif" font-size="14" lengthAdjust="spacing" textLength="128" x="31" y="818.3184">+getPhoneNumber()</text><text fill="#000000" font-family="sans-serif" font-size="14" lengthAdjust="spacing" textLength="92" x="31" y="836.9395">+getProperty()</text></g><!--class PropertySaleRepository--><g id="elem_PropertySaleRepository"><rect codeLine="35" fill="#F1F1F1" height="66.6211" id="PropertySaleRepository" rx="2.5" ry="2.5" style="stroke:#181818;stroke-width:0.5;" width="182" x="218" y="418"/><ellipse cx="233" cy="434" fill="#ADD1B2" rx="11" ry="11" style="stroke:#181818;stroke-width:1.0;"/><path d="M235.7656,429.875 Q235.9219,429.6563 236.1094,429.5469 Q236.2969,429.4375 236.5156,429.4375 Q236.8906,429.4375 237.125,429.7031 Q237.3594,429.9531 237.3594,430.5625 L237.3594,432.0156 Q237.3594,432.625 237.125,432.8906 Q236.8906,433.1563 236.5156,433.1563 Q236.1719,433.1563 235.9688,432.9531 Q235.7656,432.7656 235.6563,432.25 Q235.6094,431.8906 235.4219,431.7031 Q235.0938,431.3281 234.4844,431.1094 Q233.875,430.8906 233.25,430.8906 Q232.4844,430.8906 231.8438,431.2188 Q231.2188,431.5469 230.7188,432.2969 Q230.2344,433.0469 230.2344,434.0781 L230.2344,435.1719 Q230.2344,436.4063 231.125,437.2344 Q232.0156,438.0469 233.6094,438.0469 Q234.5469,438.0469 235.2031,437.7969 Q235.5938,437.6406 236.0156,437.2031 Q236.2813,436.9375 236.4219,436.8594 Q236.5781,436.7813 236.7813,436.7813 Q237.1094,436.7813 237.3594,437.0469 Q237.625,437.2969 237.625,437.6406 Q237.625,437.9844 237.2813,438.3906 Q236.7813,438.9688 235.9844,439.2969 Q234.9063,439.75 233.6094,439.75 Q232.0938,439.75 230.8906,439.125 Q229.9063,438.625 229.2188,437.5625 Q228.5313,436.4844 228.5313,435.2031 L228.5313,434.0469 Q228.5313,432.7188 229.1406,431.5781 Q229.7656,430.4219 230.8594,429.8125 Q231.9531,429.1875 233.1875,429.1875 Q233.9219,429.1875 234.5625,429.3594 Q235.2188,429.5156 235.7656,429.875 Z " fill="#000000"/><text fill="#000000" font-family="sans-serif" font-size="14" lengthAdjust="spacing" textLength="150" x="247" y="439.7969">PropertySaleRepository</text><line style="stroke:#181818;stroke-width:0.5;" x1="219" x2="399" y1="450" y2="450"/><line style="stroke:#181818;stroke-width:0.5;" x1="219" x2="399" y1="458" y2="458"/><text fill="#000000" font-family="sans-serif" font-size="14" lengthAdjust="spacing" textLength="149" x="224" y="477.1074">+getPropertySalesList()</text></g><!--class UserSession--><g id="elem_UserSession"><rect codeLine="39" fill="#F1F1F1" height="66.6211" id="UserSession" rx="2.5" ry="2.5" style="stroke:#181818;stroke-width:0.5;" width="111" x="340.5" y="262.5"/><ellipse cx="355.5" cy="278.5" fill="#ADD1B2" rx="11" ry="11" style="stroke:#181818;stroke-width:1.0;"/><path d="M358.2656,274.375 Q358.4219,274.1563 358.6094,274.0469 Q358.7969,273.9375 359.0156,273.9375 Q359.3906,273.9375 359.625,274.2031 Q359.8594,274.4531 359.8594,275.0625 L359.8594,276.5156 Q359.8594,277.125 359.625,277.3906 Q359.3906,277.6563 359.0156,277.6563 Q358.6719,277.6563 358.4688,277.4531 Q358.2656,277.2656 358.1563,276.75 Q358.1094,276.3906 357.9219,276.2031 Q357.5938,275.8281 356.9844,275.6094 Q356.375,275.3906 355.75,275.3906 Q354.9844,275.3906 354.3438,275.7188 Q353.7188,276.0469 353.2188,276.7969 Q352.7344,277.5469 352.7344,278.5781 L352.7344,279.6719 Q352.7344,280.9063 353.625,281.7344 Q354.5156,282.5469 356.1094,282.5469 Q357.0469,282.5469 357.7031,282.2969 Q358.0938,282.1406 358.5156,281.7031 Q358.7813,281.4375 358.9219,281.3594 Q359.0781,281.2813 359.2813,281.2813 Q359.6094,281.2813 359.8594,281.5469 Q360.125,281.7969 360.125,282.1406 Q360.125,282.4844 359.7813,282.8906 Q359.2813,283.4688 358.4844,283.7969 Q357.4063,284.25 356.1094,284.25 Q354.5938,284.25 353.3906,283.625 Q352.4063,283.125 351.7188,282.0625 Q351.0313,280.9844 351.0313,279.7031 L351.0313,278.5469 Q351.0313,277.2188 351.6406,276.0781 Q352.2656,274.9219 353.3594,274.3125 Q354.4531,273.6875 355.6875,273.6875 Q356.4219,273.6875 357.0625,273.8594 Q357.7188,274.0156 358.2656,274.375 Z " fill="#000000"/><text fill="#000000" font-family="sans-serif" font-size="14" lengthAdjust="spacing" textLength="79" x="369.5" y="284.2969">UserSession</text><line style="stroke:#181818;stroke-width:0.5;" x1="341.5" x2="450.5" y1="294.5" y2="294.5"/><line style="stroke:#181818;stroke-width:0.5;" x1="341.5" x2="450.5" y1="302.5" y2="302.5"/><text fill="#000000" font-family="sans-serif" font-size="14" lengthAdjust="spacing" textLength="96" x="346.5" y="321.6074">+getUserRole()</text></g><!--link ListEmployeeUI to ListEmployeeController--><g id="link_ListEmployeeUI_ListEmployeeController"><path codeLine="46" d="M347,55.02 C347,70.9 347,92.37 347,110.74 " fill="none" id="ListEmployeeUI-to-ListEmployeeController" style="stroke:#181818;stroke-width:1.0;"/><polygon fill="#181818" points="347,115.83,351,106.83,347,110.83,343,106.83,347,115.83" style="stroke:#181818;stroke-width:1.0;"/></g><!--link ListEmployeeController to Repositories--><g id="link_ListEmployeeController_Repositories"><path codeLine="48" d="M314.1,183.29 C297.26,200.07 276.3,220.96 257.08,240.11 " fill="none" id="ListEmployeeController-to-Repositories" style="stroke:#181818;stroke-width:1.0;"/><polygon fill="#181818" points="253.26,243.91,262.4595,240.393,256.8027,240.3816,256.8141,234.7248,253.26,243.91" style="stroke:#181818;stroke-width:1.0;"/></g><!--link StoreRepository to Store--><g id="link_StoreRepository_Store"><path codeLine="50" d="M95,494.04 C95,514.63 95,540.82 95,567.75 " fill="none" id="StoreRepository-to-Store" style="stroke:#181818;stroke-width:1.0;"/><polygon fill="#181818" points="95,572.79,99,563.79,95,567.79,91,563.79,95,572.79" style="stroke:#181818;stroke-width:1.0;"/><polygon fill="#000000" points="100,538.6455,102.9389,529.6004,97.0611,529.6004,100,538.6455" style="stroke:#000000;stroke-width:1.0;"/><text fill="#000000" font-family="sans-serif" font-size="13" lengthAdjust="spacing" textLength="37" x="109" y="539.0283">knows</text></g><!--link Repositories to StoreRepository--><g id="link_Repositories_StoreRepository"><path codeLine="52" d="M166.37,348.11 C153.7,366.28 139.53,386.62 127.17,404.35 " fill="none" id="Repositories-to-StoreRepository" style="stroke:#181818;stroke-width:1.0;"/><polygon fill="#181818" points="124.07,408.8,132.4974,403.703,126.9287,404.6978,125.9339,399.1291,124.07,408.8" style="stroke:#181818;stroke-width:1.0;"/></g><!--link Repositories to PropertySaleRepository--><g id="link_Repositories_PropertySaleRepository"><path codeLine="53" d="M237.63,348.11 C252.55,369.52 269.57,393.93 283.24,413.55 " fill="none" id="Repositories-to-PropertySaleRepository" style="stroke:#181818;stroke-width:1.0;"/><polygon fill="#181818" points="286.28,417.91,284.4161,408.2391,283.4213,413.8078,277.8526,412.813,286.28,417.91" style="stroke:#181818;stroke-width:1.0;"/></g><!--link ListEmployeeController to UserSession--><g id="link_ListEmployeeController_UserSession"><path codeLine="55" d="M358.12,183.29 C365.61,205.37 375.5,234.54 383.29,257.53 " fill="none" id="ListEmployeeController-to-UserSession" style="stroke:#181818;stroke-width:1.0;stroke-dasharray:7.0,7.0;"/><polygon fill="#181818" points="384.93,262.34,385.8168,252.5311,383.319,257.6067,378.2434,255.1088,384.93,262.34" style="stroke:#181818;stroke-width:1.0;"/></g><!--SRC=[TLBBQiCm4BphAtHi2Guzzs0mJGg64a9CFa2nbrH43wDLA6xelrUlE8gT-6BFpCvejLuySTKpmoHj1KEih3NySBPGjrer_1Ve6o51eLySxLhsGWy0-vfUoDyZvKChQxGGO5m5fGlXj4g8gupE5Kqxw3Logmq7zAMB8zZ6GHY5uUKrqbkZUp1sQ9W0dCkrGijK2mwFBKsIidmBNH1zqzU4wWZAUkBJQ1dKMPQ_3AL5lOflrdK642FOC0dnQoqP5_5p-wqLRCxo02OHwHO1XRvN_lm4gXYOCJurWo4wmrb-pgP3ylxpyTr6GYypKvXlciletYEOndN6jSeidjrfaURadibs54NvP2tkIxDryPPyAGYP_CHG4JZwJazA_o0j2RdRex7YvfeNF9x7qxwMop8V0la7]--></g></svg>