<?xml version="1.0" encoding="us-ascii" standalone="no"?><svg xmlns="http://www.w3.org/2000/svg" xmlns:xlink="http://www.w3.org/1999/xlink" contentStyleType="text/css" height="1519px" preserveAspectRatio="none" style="width:772px;height:1519px;background:#FFFFFF;" version="1.1" viewBox="0 0 772 1519" width="772px" zoomAndPan="magnify"><defs/><g><!--class PropertyOwner--><g id="elem_PropertyOwner"><rect codeLine="10" fill="#F1F1F1" height="49.2813" id="PropertyOwner" rx="2.5" ry="2.5" style="stroke:#181818;stroke-width:0.5;" width="101" x="7" y="807"/><text fill="#000000" font-family="sans-serif" font-size="14" lengthAdjust="spacing" textLength="95" x="10" y="824.6738">PropertyOwner</text><line style="stroke:#181818;stroke-width:0.5;" x1="8" x2="107" y1="832.6406" y2="832.6406"/><text fill="#000000" font-family="sans-serif" font-size="14" lengthAdjust="spacing" textLength="60" x="13" y="849.3145">password</text></g><!--class Property--><g id="elem_Property"><rect codeLine="14" fill="#F1F1F1" height="127.4844" id="Property" rx="2.5" ry="2.5" style="stroke:#181818;stroke-width:0.5;" width="190" x="110.5" y="1057"/><text fill="#000000" font-family="sans-serif" font-size="14" lengthAdjust="spacing" textLength="54" x="178.5" y="1074.6738">Property</text><line style="stroke:#181818;stroke-width:0.5;" x1="111.5" x2="299.5" y1="1082.6406" y2="1082.6406"/><text fill="#000000" font-family="sans-serif" font-size="14" lengthAdjust="spacing" textLength="103" x="116.5" y="1099.3145">type of business</text><text fill="#000000" font-family="sans-serif" font-size="14" lengthAdjust="spacing" textLength="67" x="116.5" y="1114.9551">area in m2</text><text fill="#000000" font-family="sans-serif" font-size="14" lengthAdjust="spacing" textLength="49" x="116.5" y="1130.5957">location</text><text fill="#000000" font-family="sans-serif" font-size="14" lengthAdjust="spacing" textLength="178" x="116.5" y="1146.2363">distance from the city centre</text><text fill="#000000" font-family="sans-serif" font-size="14" lengthAdjust="spacing" textLength="99" x="116.5" y="1161.877">requested price</text><text fill="#000000" font-family="sans-serif" font-size="14" lengthAdjust="spacing" textLength="80" x="116.5" y="1177.5176">photographs</text></g><!--class Land--><g id="elem_Land"><rect codeLine="23" fill="#F1F1F1" height="33.6406" id="Land" rx="2.5" ry="2.5" style="stroke:#181818;stroke-width:0.5;" width="38" x="139.5" y="1291"/><text fill="#000000" font-family="sans-serif" font-size="14" lengthAdjust="spacing" textLength="32" x="142.5" y="1308.6738">Land</text><line style="stroke:#181818;stroke-width:0.5;" x1="140.5" x2="176.5" y1="1316.6406" y2="1316.6406"/></g><!--class House--><g id="elem_House"><rect codeLine="26" fill="#F1F1F1" height="80.5625" id="House" rx="2.5" ry="2.5" style="stroke:#181818;stroke-width:0.5;" width="176" x="132.5" y="1432"/><text fill="#000000" font-family="sans-serif" font-size="14" lengthAdjust="spacing" textLength="40" x="200.5" y="1449.6738">House</text><line style="stroke:#181818;stroke-width:0.5;" x1="133.5" x2="307.5" y1="1457.6406" y2="1457.6406"/><text fill="#000000" font-family="sans-serif" font-size="14" lengthAdjust="spacing" textLength="141" x="138.5" y="1474.3145">existance of basement</text><text fill="#000000" font-family="sans-serif" font-size="14" lengthAdjust="spacing" textLength="164" x="138.5" y="1489.9551">exitance of inhabitable loft</text><text fill="#000000" font-family="sans-serif" font-size="14" lengthAdjust="spacing" textLength="85" x="138.5" y="1505.5957">sun exposure</text></g><!--class Apartment--><g id="elem_Apartment"><rect codeLine="32" fill="#F1F1F1" height="33.6406" id="Apartment" rx="2.5" ry="2.5" style="stroke:#181818;stroke-width:0.5;" width="71" x="344" y="1455.5"/><text fill="#000000" font-family="sans-serif" font-size="14" lengthAdjust="spacing" textLength="65" x="347" y="1473.1738">Apartment</text><line style="stroke:#181818;stroke-width:0.5;" x1="345" x2="414" y1="1481.1406" y2="1481.1406"/></g><!--class Agent--><g id="elem_Agent"><rect codeLine="35" fill="#F1F1F1" height="33.6406" id="Agent" rx="2.5" ry="2.5" style="stroke:#181818;stroke-width:0.5;" width="43" x="289" y="814.5"/><text fill="#000000" font-family="sans-serif" font-size="14" lengthAdjust="spacing" textLength="37" x="292" y="832.1738">Agent</text><line style="stroke:#181818;stroke-width:0.5;" x1="290" x2="331" y1="840.1406" y2="840.1406"/></g><!--class PropertySaleRequest--><g id="elem_PropertySaleRequest"><rect codeLine="38" fill="#F1F1F1" height="49.2813" id="PropertySaleRequest" rx="2.5" ry="2.5" style="stroke:#181818;stroke-width:0.5;" width="141" x="135" y="932"/><text fill="#000000" font-family="sans-serif" font-size="14" lengthAdjust="spacing" textLength="135" x="138" y="949.6738">PropertySaleRequest</text><line style="stroke:#181818;stroke-width:0.5;" x1="136" x2="275" y1="957.6406" y2="957.6406"/><text fill="#000000" font-family="sans-serif" font-size="14" lengthAdjust="spacing" textLength="62" x="141" y="974.3145">commission</text></g><!--class Client--><g id="elem_Client"><rect codeLine="42" fill="#F1F1F1" height="49.2813" id="Client" rx="2.5" ry="2.5" style="stroke:#181818;stroke-width:0.5;" width="72" x="472.5" y="807"/><text fill="#000000" font-family="sans-serif" font-size="14" lengthAdjust="spacing" textLength="36" x="490.5" y="824.6738">Client</text><line style="stroke:#181818;stroke-width:0.5;" x1="473.5" x2="543.5" y1="832.6406" y2="832.6406"/><text fill="#000000" font-family="sans-serif" font-size="14" lengthAdjust="spacing" textLength="60" x="478.5" y="849.3145">password</text></g><!--class VisitRequest--><g id="elem_VisitRequest"><rect codeLine="46" fill="#F1F1F1" height="33.6406" id="VisitRequest" rx="2.5" ry="2.5" style="stroke:#181818;stroke-width:0.5;" width="85" x="493" y="939.5"/><text fill="#000000" font-family="sans-serif" font-size="14" lengthAdjust="spacing" textLength="79" x="496" y="957.1738">VisitRequest</text><line style="stroke:#181818;stroke-width:0.5;" x1="494" x2="577" y1="965.1406" y2="965.1406"/></g><!--class BuyRequest--><g id="elem_BuyRequest"><rect codeLine="49" fill="#F1F1F1" height="33.6406" id="BuyRequest" rx="2.5" ry="2.5" style="stroke:#181818;stroke-width:0.5;" width="83" x="352" y="939.5"/><text fill="#000000" font-family="sans-serif" font-size="14" lengthAdjust="spacing" textLength="77" x="355" y="957.1738">BuyRequest</text><line style="stroke:#181818;stroke-width:0.5;" x1="353" x2="434" y1="965.1406" y2="965.1406"/></g><!--class Store--><g id="elem_Store"><rect codeLine="52" fill="#F1F1F1" height="33.6406" id="Store" rx="2.5" ry="2.5" style="stroke:#181818;stroke-width:0.5;" width="40" x="232.5" y="697"/><text fill="#000000" font-family="sans-serif" font-size="14" lengthAdjust="spacing" textLength="34" x="235.5" y="714.6738">Store</text><line style="stroke:#181818;stroke-width:0.5;" x1="233.5" x2="271.5" y1="722.6406" y2="722.6406"/></g><!--class StoreManager--><g id="elem_StoreManager"><rect codeLine="55" fill="#F1F1F1" height="49.2813" id="StoreManager" rx="2.5" ry="2.5" style="stroke:#181818;stroke-width:0.5;" width="108" x="144.5" y="807"/><text fill="#000000" font-family="sans-serif" font-size="14" lengthAdjust="spacing" textLength="90" x="153.5" y="824.6738">StoreManager</text><line style="stroke:#181818;stroke-width:0.5;" x1="145.5" x2="251.5" y1="832.6406" y2="832.6406"/><text fill="#000000" font-family="sans-serif" font-size="14" lengthAdjust="spacing" textLength="96" x="150.5" y="849.3145">managingStore</text></g><!--class StoreNetwork--><g id="elem_Branch"><rect codeLine="59" fill="#F1F1F1" height="33.6406" id="Branch" rx="2.5" ry="2.5" style="stroke:#181818;stroke-width:0.5;" width="51" x="227" y="587"/><text fill="#000000" font-family="sans-serif" font-size="14" lengthAdjust="spacing" textLength="45" x="230" y="604.6738">Branch</text><line style="stroke:#181818;stroke-width:0.5;" x1="228" x2="277" y1="612.6406" y2="612.6406"/></g><!--class UnregisteredUser--><g id="elem_UnregisteredUser"><rect codeLine="62" fill="#F1F1F1" height="33.6406" id="UnregisteredUser" rx="2.5" ry="2.5" style="stroke:#181818;stroke-width:0.5;" width="116" x="649.5" y="697"/><text fill="#000000" font-family="sans-serif" font-size="14" lengthAdjust="spacing" textLength="110" x="652.5" y="714.6738">UnregisteredUser</text><line style="stroke:#181818;stroke-width:0.5;" x1="650.5" x2="764.5" y1="722.6406" y2="722.6406"/></g><!--class ResidentialProperty--><g id="elem_ResidentialProperty"><rect codeLine="65" fill="#F1F1F1" height="96.2031" id="ResidentialProperty" rx="2.5" ry="2.5" style="stroke:#181818;stroke-width:0.5;" width="176" x="212.5" y="1260"/><text fill="#000000" font-family="sans-serif" font-size="14" lengthAdjust="spacing" textLength="124" x="238.5" y="1277.6738">ResidentialProperty</text><line style="stroke:#181818;stroke-width:0.5;" x1="213.5" x2="387.5" y1="1285.6406" y2="1285.6406"/><text fill="#000000" font-family="sans-serif" font-size="14" lengthAdjust="spacing" textLength="131" x="218.5" y="1302.3145">number of bedrooms</text><text fill="#000000" font-family="sans-serif" font-size="14" lengthAdjust="spacing" textLength="135" x="218.5" y="1317.9551">number of bathrooms</text><text fill="#000000" font-family="sans-serif" font-size="14" lengthAdjust="spacing" textLength="164" x="218.5" y="1333.5957">number of parking spaces</text><text fill="#000000" font-family="sans-serif" font-size="14" lengthAdjust="spacing" textLength="126" x="218.5" y="1349.2363">available equipment</text></g><!--class Employee--><g id="elem_Employee"><rect codeLine="72" fill="#F1F1F1" height="158.7656" id="Employee" rx="2.5" ry="2.5" style="stroke:#181818;stroke-width:0.5;" width="119" x="191" y="227"/><text fill="#000000" font-family="sans-serif" font-size="14" lengthAdjust="spacing" textLength="62" x="219.5" y="244.6738">Employee</text><line style="stroke:#181818;stroke-width:0.5;" x1="192" x2="309" y1="252.6406" y2="252.6406"/><text fill="#000000" font-family="sans-serif" font-size="14" lengthAdjust="spacing" textLength="35" x="197" y="269.3145">name</text><text fill="#000000" font-family="sans-serif" font-size="14" lengthAdjust="spacing" textLength="107" x="197" y="284.9551">civil card number</text><text fill="#000000" font-family="sans-serif" font-size="14" lengthAdjust="spacing" textLength="70" x="197" y="300.5957">tax number</text><text fill="#000000" font-family="sans-serif" font-size="14" lengthAdjust="spacing" textLength="43" x="197" y="316.2363">adress</text><text fill="#000000" font-family="sans-serif" font-size="14" lengthAdjust="spacing" textLength="80" x="197" y="331.877">email adress</text><text fill="#000000" font-family="sans-serif" font-size="14" lengthAdjust="spacing" textLength="92" x="197" y="347.5176">phone number</text><text fill="#000000" font-family="sans-serif" font-size="14" lengthAdjust="spacing" textLength="60" x="197" y="363.1582">password</text><text fill="#000000" font-family="sans-serif" font-size="14" lengthAdjust="spacing" textLength="46" x="197" y="378.7988">agency</text></g><!--class PropertyList--><g id="elem_PropertyList"><rect codeLine="83" fill="#F1F1F1" height="33.6406" id="PropertyList" rx="2.5" ry="2.5" style="stroke:#181818;stroke-width:0.5;" width="82" x="648.5" y="939.5"/><text fill="#000000" font-family="sans-serif" font-size="14" lengthAdjust="spacing" textLength="76" x="651.5" y="957.1738">PropertyList</text><line style="stroke:#181818;stroke-width:0.5;" x1="649.5" x2="729.5" y1="965.1406" y2="965.1406"/></g><!--class NetworkManager--><g id="elem_NetworkManager"><rect codeLine="86" fill="#F1F1F1" height="49.2813" id="NetworkManager" rx="2.5" ry="2.5" style="stroke:#181818;stroke-width:0.5;" width="119" x="191" y="462"/><text fill="#000000" font-family="sans-serif" font-size="14" lengthAdjust="spacing" textLength="106" x="197.5" y="479.6738">NetworkManager</text><line style="stroke:#181818;stroke-width:0.5;" x1="192" x2="309" y1="487.6406" y2="487.6406"/><text fill="#000000" font-family="sans-serif" font-size="14" lengthAdjust="spacing" textLength="107" x="197" y="504.3145">managingBranch</text></g><!--class ListOfEmployees--><g id="elem_ListOfEmployees"><rect codeLine="90" fill="#F1F1F1" height="33.6406" id="ListOfEmployees" rx="2.5" ry="2.5" style="stroke:#181818;stroke-width:0.5;" width="112" x="131.5" y="117"/><text fill="#000000" font-family="sans-serif" font-size="14" lengthAdjust="spacing" textLength="106" x="134.5" y="134.6738">ListOfEmployees</text><line style="stroke:#181818;stroke-width:0.5;" x1="132.5" x2="242.5" y1="142.6406" y2="142.6406"/></g><!--class SystemAdministrator--><g id="elem_SystemAdministrator"><rect fill="#F1F1F1" height="33.6406" id="SystemAdministrator" rx="2.5" ry="2.5" style="stroke:#181818;stroke-width:0.5;" width="135" x="183" y="7"/><text fill="#000000" font-family="sans-serif" font-size="14" lengthAdjust="spacing" textLength="129" x="186" y="24.6738">SystemAdministrator</text><line style="stroke:#181818;stroke-width:0.5;" x1="184" x2="317" y1="32.6406" y2="32.6406"/></g><!--link SystemAdministrator to ListOfEmployees--><g id="link_SystemAdministrator_ListOfEmployees"><path codeLine="93" d="M238.83,41.31 C232.81,49.97 225.49,60.89 219.5,71 C210.49,86.22 201.35,104.24 195.16,116.92 " fill="none" id="SystemAdministrator-ListOfEmployees" style="stroke:#181818;stroke-width:1.0;"/><polygon fill="#000000" points="221.9993,83.5914,229.0681,77.2288,223.9782,74.289,221.9993,83.5914" style="stroke:#000000;stroke-width:1.0;"/><text fill="#000000" font-family="sans-serif" font-size="13" lengthAdjust="spacing" textLength="53" x="233.5" y="83.7686">manages</text><text fill="#000000" font-family="sans-serif" font-size="13" lengthAdjust="spacing" textLength="7" x="227.3738" y="60.3493">1</text><text fill="#000000" font-family="sans-serif" font-size="13" lengthAdjust="spacing" textLength="7" x="189.642" y="106.2673">1</text></g><!--link ListOfEmployees to Employee--><g id="link_ListOfEmployees_Employee"><path codeLine="94" d="M193.43,151.04 C199.92,168.61 210.82,198.12 221.37,226.66 " fill="none" id="ListOfEmployees-Employee" style="stroke:#181818;stroke-width:1.0;"/><polygon fill="#000000" points="217.2329,193.9518,216.8548,184.4488,211.3413,186.4859,217.2329,193.9518" style="stroke:#000000;stroke-width:1.0;"/><text fill="#000000" font-family="sans-serif" font-size="13" lengthAdjust="spacing" textLength="42" x="224.5" y="193.7686">contais</text><text fill="#000000" font-family="sans-serif" font-size="13" lengthAdjust="spacing" textLength="7" x="187.1742" y="170.306">1</text><text fill="#000000" font-family="sans-serif" font-size="13" lengthAdjust="spacing" textLength="5" x="213.3553" y="216.1877">*</text></g><!--link PropertyOwner to Property--><g id="link_PropertyOwner_Property"><path codeLine="96" d="M55.29,856.11 C53.45,886.49 53.64,940.19 72.5,981 C85.51,1009.14 106.61,1035.12 128.22,1056.78 " fill="none" id="PropertyOwner-Property" style="stroke:#181818;stroke-width:1.0;"/><polygon fill="#000000" points="79.2079,961.461,78.8805,951.9561,73.3561,953.9638,79.2079,961.461" style="stroke:#000000;stroke-width:1.0;"/><text fill="#000000" font-family="sans-serif" font-size="13" lengthAdjust="spacing" textLength="30" x="86.5" y="961.2686">owns</text><text fill="#000000" font-family="sans-serif" font-size="13" lengthAdjust="spacing" textLength="7" x="46.8268" y="876.0096">1</text><text fill="#000000" font-family="sans-serif" font-size="13" lengthAdjust="spacing" textLength="20" x="98.1283" y="1046.3738">1..*</text></g><!--link Property to ResidentialProperty--><g id="link_Property_ResidentialProperty"><path codeLine="98" d="M237.53,1184.04 C250.24,1208.87 264.61,1236.93 276.42,1259.97 " fill="none" id="Property-ResidentialProperty" style="stroke:#181818;stroke-width:1.0;"/><polygon fill="#000000" points="266.7793,1226.712,265.2718,1217.3216,260.0402,1220.0012,266.7793,1226.712" style="stroke:#000000;stroke-width:1.0;"/><text fill="#000000" font-family="sans-serif" font-size="13" lengthAdjust="spacing" textLength="39" x="273.5" y="1226.7686">can be</text></g><!--link Property to Land--><g id="link_Property_Land"><path codeLine="99" d="M187.44,1184.08 C184.69,1194.06 181.96,1204.3 179.5,1214 C172.71,1240.8 165.84,1272.21 161.89,1290.81 " fill="none" id="Property-Land" style="stroke:#181818;stroke-width:1.0;"/><polygon fill="#000000" points="183.3359,1227.1243,188.2999,1219.012,182.5836,1217.6436,183.3359,1227.1243" style="stroke:#000000;stroke-width:1.0;"/><text fill="#000000" font-family="sans-serif" font-size="13" lengthAdjust="spacing" textLength="39" x="193.5" y="1226.7686">can be</text></g><!--link ResidentialProperty to House--><g id="link_ResidentialProperty_House"><path codeLine="100" d="M277.36,1356 C265.55,1380 251.33,1408.87 240.07,1431.75 " fill="none" id="ResidentialProperty-House" style="stroke:#181818;stroke-width:1.0;"/><polygon fill="#000000" points="263.2917,1398.7476,269.9233,1391.9306,264.6498,1389.3345,263.2917,1398.7476" style="stroke:#000000;stroke-width:1.0;"/><text fill="#000000" font-family="sans-serif" font-size="13" lengthAdjust="spacing" textLength="39" x="274.5" y="1398.7686">can be</text></g><!--link ResidentialProperty to Apartment--><g id="link_ResidentialProperty_Apartment"><path codeLine="101" d="M323.35,1356 C339.57,1389.37 360.38,1432.18 371.56,1455.16 " fill="none" id="ResidentialProperty-Apartment" style="stroke:#181818;stroke-width:1.0;"/><polygon fill="#000000" points="352.6862,1398.7584,351.3744,1389.3388,346.0882,1391.9088,352.6862,1398.7584" style="stroke:#000000;stroke-width:1.0;"/><text fill="#000000" font-family="sans-serif" font-size="13" lengthAdjust="spacing" textLength="39" x="359.5" y="1398.7686">can be</text></g><!--link UnregisteredUser to PropertyList--><g id="link_UnregisteredUser_PropertyList"><path codeLine="104" d="M706.29,731.15 C703.01,774.97 693.98,895.69 690.7,939.42 " fill="none" id="UnregisteredUser-PropertyList" style="stroke:#181818;stroke-width:1.0;"/><polygon fill="#000000" points="706.1268,836.7478,709.7327,827.9473,703.8712,827.5085,706.1268,836.7478" style="stroke:#000000;stroke-width:1.0;"/><text fill="#000000" font-family="sans-serif" font-size="13" lengthAdjust="spacing" textLength="39" x="715.5" y="836.2686">search</text><text fill="#000000" font-family="sans-serif" font-size="13" lengthAdjust="spacing" textLength="7" x="697.8476" y="750.4497">1</text><text fill="#000000" font-family="sans-serif" font-size="13" lengthAdjust="spacing" textLength="7" x="682.8806" y="928.7673">1</text></g><!--link PropertyOwner to PropertySaleRequest--><g id="link_PropertyOwner_PropertySaleRequest"><path codeLine="106" d="M86.04,856.22 C112.24,878 150.87,910.1 177.05,931.86 " fill="none" id="PropertyOwner-PropertySaleRequest" style="stroke:#181818;stroke-width:1.0;"/><polygon fill="#000000" points="149.3453,897.4576,144.2676,889.416,140.5106,893.9364,149.3453,897.4576" style="stroke:#000000;stroke-width:1.0;"/><text fill="#000000" font-family="sans-serif" font-size="13" lengthAdjust="spacing" textLength="35" x="154.5" y="898.7686">sends</text></g><!--link PropertySaleRequest to Property--><g id="link_PropertySaleRequest_Property"><path codeLine="107" d="M205.5,981.06 C205.5,1000.89 205.5,1030.19 205.5,1056.73 " fill="none" id="PropertySaleRequest-Property" style="stroke:#181818;stroke-width:1.0;stroke-dasharray:7.0,7.0;"/><polygon fill="#000000" points="210.5,1024.2617,213.4389,1015.2166,207.5611,1015.2166,210.5,1024.2617" style="stroke:#000000;stroke-width:1.0;"/><text fill="#000000" font-family="sans-serif" font-size="13" lengthAdjust="spacing" textLength="61" x="219.5" y="1023.7686">represents</text><text fill="#000000" font-family="sans-serif" font-size="13" lengthAdjust="spacing" textLength="7" x="197.6031" y="1000.9468">1</text><text fill="#000000" font-family="sans-serif" font-size="13" lengthAdjust="spacing" textLength="7" x="198.0953" y="1046.318">1</text></g><!--link Agent to PropertySaleRequest--><g id="link_Agent_PropertySaleRequest"><path codeLine="108" d="M288.82,845.62 C266,859.57 232.8,880.41 228.5,886 C218.27,899.29 212.47,917.36 209.26,931.73 " fill="none" id="Agent-PropertySaleRequest" style="stroke:#181818;stroke-width:1.0;"/><polygon fill="#000000" points="230.1069,897.9342,238.4037,893.2851,234.0865,889.2962,230.1069,897.9342" style="stroke:#000000;stroke-width:1.0;"/><text fill="#000000" font-family="sans-serif" font-size="13" lengthAdjust="spacing" textLength="51" x="242.5" y="898.7686">approves</text></g><!--link Client to VisitRequest--><g id="link_Client_VisitRequest"><path codeLine="110" d="M544.89,848.55 C560.03,857.28 576.03,869.67 584.5,886 C594.63,905.52 576.37,925.87 559.34,939.46 " fill="none" id="Client-VisitRequest" style="stroke:#181818;stroke-width:1.0;"/><polygon fill="#000000" points="593.2849,899.1997,594.7675,889.8054,588.9625,890.7281,593.2849,899.1997" style="stroke:#000000;stroke-width:1.0;"/><text fill="#000000" font-family="sans-serif" font-size="13" lengthAdjust="spacing" textLength="46" x="601.5" y="898.7686">submits</text></g><!--link Agent to VisitRequest--><g id="link_Agent_VisitRequest"><path codeLine="111" d="M332.11,835.35 C365.85,840.65 432.02,854.47 478.5,886 C499.16,900.02 516.26,923.66 526.18,939.42 " fill="none" id="Agent-VisitRequest" style="stroke:#181818;stroke-width:1.0;"/><polygon fill="#000000" points="506.9064,896.6247,500.324,889.76,497.5462,894.9401,506.9064,896.6247" style="stroke:#000000;stroke-width:1.0;"/><text fill="#000000" font-family="sans-serif" font-size="13" lengthAdjust="spacing" textLength="51" x="511.5" y="898.7686">approves</text></g><!--link Client to BuyRequest--><g id="link_Client_BuyRequest"><path codeLine="113" d="M472.27,845 C452.28,853.62 428.53,866.99 413.5,886 C401.27,901.46 396.52,924.1 394.67,939.29 " fill="none" id="Client-BuyRequest" style="stroke:#181818;stroke-width:1.0;"/><polygon fill="#000000" points="415.3227,898.1224,423.3397,893.0059,418.8012,889.2708,415.3227,898.1224" style="stroke:#000000;stroke-width:1.0;"/><text fill="#000000" font-family="sans-serif" font-size="13" lengthAdjust="spacing" textLength="46" x="427.5" y="898.7686">submits</text></g><!--link Agent to BuyRequest--><g id="link_Agent_BuyRequest"><path codeLine="114" d="M305.22,848.78 C301.43,863.61 298.41,885.64 307.5,902 C317.07,919.22 334.72,931.61 351.56,940.1 " fill="none" id="Agent-BuyRequest" style="stroke:#181818;stroke-width:1.0;"/><polygon fill="#000000" points="314.7626,898.7205,313.2903,889.3246,308.0487,891.9844,314.7626,898.7205" style="stroke:#000000;stroke-width:1.0;"/><text fill="#000000" font-family="sans-serif" font-size="13" lengthAdjust="spacing" textLength="51" x="321.5" y="898.7686">approves</text></g><!--link Store to StoreManager--><g id="link_Store_StoreManager"><path codeLine="116" d="M237.88,731.01 C230.85,739.42 222.83,750.2 217.5,761 C210.36,775.47 205.59,793 202.61,806.84 " fill="none" id="Store-StoreManager" style="stroke:#181818;stroke-width:1.0;"/><polygon fill="#000000" points="220.3913,773.7953,226.8707,766.8334,221.5412,764.3545,220.3913,773.7953" style="stroke:#000000;stroke-width:1.0;"/><text fill="#000000" font-family="sans-serif" font-size="13" lengthAdjust="spacing" textLength="21" x="231.5" y="773.7686">has</text><text fill="#000000" font-family="sans-serif" font-size="13" lengthAdjust="spacing" textLength="7" x="225.3308" y="750.2668">1</text><text fill="#000000" font-family="sans-serif" font-size="13" lengthAdjust="spacing" textLength="7" x="195.7739" y="796.1325">1</text></g><!--link StoreNetwork to Store--><g id="link_Branch_Store"><path codeLine="118" d="M252.5,621.4 C252.5,641.82 252.5,676.47 252.5,696.8 " fill="none" id="Branch-Store" style="stroke:#181818;stroke-width:1.0;"/><polygon fill="#000000" points="257.5,664.2617,260.4389,655.2166,254.5611,655.2166,257.5,664.2617" style="stroke:#000000;stroke-width:1.0;"/><text fill="#000000" font-family="sans-serif" font-size="13" lengthAdjust="spacing" textLength="21" x="266.5" y="663.7686">has</text><text fill="#000000" font-family="sans-serif" font-size="13" lengthAdjust="spacing" textLength="7" x="244.4719" y="640.4657">1</text><text fill="#000000" font-family="sans-serif" font-size="13" lengthAdjust="spacing" textLength="5" x="246.6094" y="686.1046">*</text></g><!--link NetworkManager to StoreNetwork--><g id="link_NetworkManager_Branch"><path codeLine="119" d="M250.91,511.15 C251.3,533.72 251.88,567.12 252.22,586.81 " fill="none" id="NetworkManager-Branch" style="stroke:#181818;stroke-width:1.0;"/><polygon fill="#000000" points="257.5866,554.261,260.3685,545.1664,254.4915,545.2681,257.5866,554.261" style="stroke:#000000;stroke-width:1.0;"/><text fill="#000000" font-family="sans-serif" font-size="13" lengthAdjust="spacing" textLength="53" x="266.5" y="553.7686">manages</text><text fill="#000000" font-family="sans-serif" font-size="13" lengthAdjust="spacing" textLength="7" x="243.1182" y="531.0599">1</text><text fill="#000000" font-family="sans-serif" font-size="13" lengthAdjust="spacing" textLength="7" x="243.8734" y="576.1181">1</text></g><!--link Store to Agent--><g id="link_Store_Agent"><path codeLine="120" d="M260.56,731.06 C271.58,753 291.24,792.14 302.32,814.2 " fill="none" id="Store-Agent" style="stroke:#181818;stroke-width:1.0;"/><polygon fill="#000000" points="290.7442,773.7298,289.3106,764.3279,284.0581,766.9661,290.7442,773.7298" style="stroke:#000000;stroke-width:1.0;"/><text fill="#000000" font-family="sans-serif" font-size="13" lengthAdjust="spacing" textLength="21" x="297.5" y="773.7686">has</text><text fill="#000000" font-family="sans-serif" font-size="13" lengthAdjust="spacing" textLength="7" x="254.9565" y="750.3321">1</text><text fill="#000000" font-family="sans-serif" font-size="13" lengthAdjust="spacing" textLength="5" x="293.6488" y="803.7672">*</text></g><!--link SystemAdministrator to Employee--><g id="link_SystemAdministrator_Employee"><path codeLine="122" d="M270.34,41.24 C278.55,49.23 287.16,59.6 291.5,71 C294.03,77.65 292.01,79.91 291.5,87 C288.11,133.87 278.67,185.58 269.7,226.92 " fill="none" id="SystemAdministrator-Employee" style="stroke:#181818;stroke-width:1.0;"/><polygon fill="#000000" points="294.4828,139.2617,297.4529,130.2268,291.575,130.2065,294.4828,139.2617" style="stroke:#000000;stroke-width:1.0;"/><text fill="#000000" font-family="sans-serif" font-size="13" lengthAdjust="spacing" textLength="50" x="303.5" y="138.7686">registers</text></g><!--link Employee to NetworkManager--><g id="link_Employee_NetworkManager"><path codeLine="123" d="M250.5,386.09 C250.5,413.47 250.5,442.19 250.5,461.67 " fill="none" id="Employee-NetworkManager" style="stroke:#181818;stroke-width:1.0;"/><polygon fill="#000000" points="255.5,429.2617,258.4389,420.2166,252.5611,420.2166,255.5,429.2617" style="stroke:#000000;stroke-width:1.0;"/><text fill="#000000" font-family="sans-serif" font-size="13" lengthAdjust="spacing" textLength="39" x="264.5" y="428.7686">can be</text></g><!--link Employee to Agent--><g id="link_Employee_Agent"><path codeLine="124" d="M310.31,365.26 C337.41,397.63 363.5,440.48 363.5,485.5 C363.5,485.5 363.5,485.5 363.5,715 C363.5,753.39 339.02,792.95 323.33,814.36 " fill="none" id="Employee-Agent" style="stroke:#181818;stroke-width:1.0;"/><polygon fill="#000000" points="368.6449,609.2596,371.3205,600.1332,365.4451,600.3035,368.6449,609.2596" style="stroke:#000000;stroke-width:1.0;"/><text fill="#000000" font-family="sans-serif" font-size="13" lengthAdjust="spacing" textLength="39" x="377.5" y="608.7686">can be</text></g><!--link Employee to StoreManager--><g id="link_Employee_StoreManager"><path codeLine="125" d="M190.69,365.26 C163.59,397.63 137.5,440.48 137.5,485.5 C137.5,485.5 137.5,485.5 137.5,715 C137.5,749.92 159.57,784.63 177.17,806.74 " fill="none" id="Employee-StoreManager" style="stroke:#181818;stroke-width:1.0;"/><polygon fill="#000000" points="142.347,609.2594,145.5614,600.3085,139.6863,600.1286,142.347,609.2594" style="stroke:#000000;stroke-width:1.0;"/><text fill="#000000" font-family="sans-serif" font-size="13" lengthAdjust="spacing" textLength="39" x="151.5" y="608.7686">can be</text></g><!--link PropertyList to Property--><g id="link_PropertyList_Property"><path codeLine="127" d="M648.23,971.31 C571.77,996.91 406.24,1052.31 300.67,1087.65 " fill="none" id="PropertyList-Property" style="stroke:#181818;stroke-width:1.0;"/><polygon fill="#000000" points="519.7586,1020.8488,529.2688,1020.7647,527.403,1015.1908,519.7586,1020.8488" style="stroke:#000000;stroke-width:1.0;"/><text fill="#000000" font-family="sans-serif" font-size="13" lengthAdjust="spacing" textLength="44" x="533.5" y="1023.7686">Contais</text><text fill="#000000" font-family="sans-serif" font-size="13" lengthAdjust="spacing" textLength="7" x="633.5352" y="970.4968">1</text><text fill="#000000" font-family="sans-serif" font-size="13" lengthAdjust="spacing" textLength="5" x="308.4531" y="1082.2446">*</text></g><!--SRC=[ZLHDQzmm4BthLuXS0eKiROyv5BOXq4BQb2pfVLQQjSLQaZkIit53_tj7_bhPwq9FjcVUlFbwut0qhWO2AwrtNfNaBSf83OemUMfGHoXm5ziA9Q6Au8eg1uGIj3yPLyW3L075zTbL6OUnhL5wYgKNrnKUeenUaYdAABL9TCQxZ4nL4C8sHZBx9k9NvTtE_4RvNfH6erI65EVktYqofGv2T27o1_aQARQF9uSatqJDnfCdBVui4UpiQph8VHEumX04488qJjgFel8AkgAq2TohGddWiSXOflGShT15Ga7ugy4GKSkQZ49HbpxwWg0kmpdb0pZDwQRlBxu9-2RmTQHEDK10ovp9EXcDAs7FdtkUUUKFKOJ6INojVMWuzyItvQ7559mdsHOBmzZu3Yfywijcj_BMX90QdO1tbUb3BuVtqmGJpy6J_NFJhbXtqHDU6Bw1Oo6bvTZqnehfp1aPSVzb7lVi20iU5XBgvu2KkPumi0nSD52D3Ru9rzWzPqXZHKtUsv2R89PB6m_mcAGRMER8EdW1KtLJvwPCtUrbodXlwygto0jqO54eys8ggO2qxFb4XDVn5JGbNQ5bFZbyi4GSZe1fn3mIfzhBRJrmsrcxtp4o_3ZCy3p2VcQPv3ZiyJ2M6Zg6NSiJj5jjZMCl0KzTNdsuaZSttMCH8czbHyvldyJIDuQzkvh6mNW-qmWcuSNy3XEyJxFPSCXqWXpZJsuMa60hEqtiu7YTZCsXtMbblhLGXdKNzn-uyoLbM26M-Xlwx-UMRuh30WAnUYzcmEYr2qm1JeUihToR-3URMHgE8AnPILnb2kll_9_iKDVaNxebYk6m6JkxOowXsLipPriWrccoirybcVbpYlxFa8blzcUubILqiE5FaAcj3nm1ysl8-OR8NCFpdCpLbpabMpiFHcRw7aMGu9EP8OioCkdag37TgdFH_rbxCtLnyKFjcHhkpbVt5m00]--></g></svg>